<?xml version="1.0" encoding="UTF-8" standalone="no"?>
<!DOCTYPE svg PUBLIC "-//W3C//DTD SVG 1.1//EN"
 "http://www.w3.org/Graphics/SVG/1.1/DTD/svg11.dtd">
<!-- Generated by graphviz version 2.43.0 (0)
 -->
<!-- Title: Clipboard++/RmlUI/EventHandlers/Clipboard++Events/Main/AutoCopyEvent.cpp Pages: 1 -->
<svg width="745pt" height="368pt"
 viewBox="0.00 0.00 745.00 368.00" xmlns="http://www.w3.org/2000/svg" xmlns:xlink="http://www.w3.org/1999/xlink">
<g id="graph0" class="graph" transform="scale(1 1) rotate(0) translate(4 364)">
<title>Clipboard++/RmlUI/EventHandlers/Clipboard++Events/Main/AutoCopyEvent.cpp</title>
<!-- Node1 -->
<g id="Node000001" class="node">
<title>Node1</title>
<g id="a_Node000001"><a xlink:title=" ">
<polygon fill="#999999" stroke="#666666" points="591,-360 350,-360 350,-330 591,-330 591,-360"/>
<text text-anchor="start" x="358" y="-348" font-family="Helvetica,sans-Serif" font-size="10.00">Clipboard++/RmlUI/EventHandlers</text>
<text text-anchor="middle" x="470.5" y="-337" font-family="Helvetica,sans-Serif" font-size="10.00">/Clipboard++Events/Main/AutoCopyEvent.cpp</text>
</a>
</g>
</g>
<!-- Node2 -->
<g id="Node000002" class="node">
<title>Node2</title>
<g id="a_Node000002"><a xlink:href="AutoCopyEvent_8h.html" target="_top" xlink:title=" ">
<polygon fill="white" stroke="#666666" points="478,-294 377,-294 377,-275 478,-275 478,-294"/>
<text text-anchor="middle" x="427.5" y="-282" font-family="Helvetica,sans-Serif" font-size="10.00">AutoCopyEvent.h</text>
</a>
</g>
</g>
<!-- Node1&#45;&gt;Node2 -->
<g id="edge1_Node000001_Node000002" class="edge">
<title>Node1&#45;&gt;Node2</title>
<g id="a_edge1_Node000001_Node000002"><a xlink:title=" ">
<path fill="none" stroke="#63b8ff" d="M460.09,-329.84C454.04,-321.61 446.38,-311.18 440,-302.51"/>
<polygon fill="#63b8ff" stroke="#63b8ff" points="442.69,-300.25 433.94,-294.27 437.05,-304.4 442.69,-300.25"/>
</a>
</g>
</g>
<!-- Node16 -->
<g id="Node000016" class="node">
<title>Node16</title>
<g id="a_Node000016"><a xlink:href="ClipboardListener_8h.html" target="_top" xlink:title=" ">
<polygon fill="white" stroke="#666666" points="722.5,-184 612.5,-184 612.5,-165 722.5,-165 722.5,-184"/>
<text text-anchor="middle" x="667.5" y="-172" font-family="Helvetica,sans-Serif" font-size="10.00">ClipboardListener.h</text>
</a>
</g>
</g>
<!-- Node1&#45;&gt;Node16 -->
<g id="edge18_Node000001_Node000016" class="edge">
<title>Node1&#45;&gt;Node16</title>
<g id="a_edge18_Node000001_Node000016"><a xlink:title=" ">
<path fill="none" stroke="#63b8ff" d="M486.96,-329.92C523.58,-298.6 611.57,-223.34 649.55,-190.85"/>
<polygon fill="#63b8ff" stroke="#63b8ff" points="651.94,-193.41 657.26,-184.25 647.39,-188.1 651.94,-193.41"/>
</a>
</g>
</g>
<!-- Node3 -->
<g id="Node000003" class="node">
<title>Node3</title>
<g id="a_Node000003"><a xlink:href="Clipboard_09_09Event_8h.html" target="_top" xlink:title=" ">
<polygon fill="white" stroke="#666666" points="485.5,-239 369.5,-239 369.5,-220 485.5,-220 485.5,-239"/>
<text text-anchor="middle" x="427.5" y="-227" font-family="Helvetica,sans-Serif" font-size="10.00">Clipboard++Event.h</text>
</a>
</g>
</g>
<!-- Node2&#45;&gt;Node3 -->
<g id="edge2_Node000002_Node000003" class="edge">
<title>Node2&#45;&gt;Node3</title>
<g id="a_edge2_Node000002_Node000003"><a xlink:title=" ">
<path fill="none" stroke="#63b8ff" d="M427.5,-274.75C427.5,-267.8 427.5,-257.85 427.5,-249.13"/>
<polygon fill="#63b8ff" stroke="#63b8ff" points="431,-249.09 427.5,-239.09 424,-249.09 431,-249.09"/>
</a>
</g>
</g>
<!-- Node6 -->
<g id="Node000006" class="node">
<title>Node6</title>
<g id="a_Node000006"><a xlink:href="MemoryCellManager_8h.html" target="_top" xlink:title=" ">
<polygon fill="white" stroke="#666666" points="210.5,-239 16.5,-239 16.5,-220 210.5,-220 210.5,-239"/>
<text text-anchor="middle" x="113.5" y="-227" font-family="Helvetica,sans-Serif" font-size="10.00">MemoryCells/MemoryCellManager.h</text>
</a>
</g>
</g>
<!-- Node2&#45;&gt;Node6 -->
<g id="edge5_Node000002_Node000006" class="edge">
<title>Node2&#45;&gt;Node6</title>
<g id="a_edge5_Node000002_Node000006"><a xlink:title=" ">
<path fill="none" stroke="#63b8ff" d="M377.05,-274.98C321.74,-265.65 233.03,-250.67 174.02,-240.71"/>
<polygon fill="#63b8ff" stroke="#63b8ff" points="174.53,-237.25 164.08,-239.04 173.36,-244.15 174.53,-237.25"/>
</a>
</g>
</g>
<!-- Node4 -->
<g id="Node000004" class="node">
<title>Node4</title>
<g id="a_Node000004"><a xlink:title=" ">
<polygon fill="#e0e0e0" stroke="#999999" points="594.5,-184 482.5,-184 482.5,-165 594.5,-165 594.5,-184"/>
<text text-anchor="middle" x="538.5" y="-172" font-family="Helvetica,sans-Serif" font-size="10.00">RmlUi/Core/Types.h</text>
</a>
</g>
</g>
<!-- Node3&#45;&gt;Node4 -->
<g id="edge3_Node000003_Node000004" class="edge">
<title>Node3&#45;&gt;Node4</title>
<g id="a_edge3_Node000003_Node000004"><a xlink:title=" ">
<path fill="none" stroke="#63b8ff" d="M445.33,-219.98C463.11,-211.5 490.65,-198.35 511.18,-188.54"/>
<polygon fill="#63b8ff" stroke="#63b8ff" points="512.83,-191.64 520.34,-184.17 509.81,-185.32 512.83,-191.64"/>
</a>
</g>
</g>
<!-- Node5 -->
<g id="Node000005" class="node">
<title>Node5</title>
<g id="a_Node000005"><a xlink:title=" ">
<polygon fill="#e0e0e0" stroke="#999999" points="464,-184 289,-184 289,-165 464,-165 464,-184"/>
<text text-anchor="middle" x="376.5" y="-172" font-family="Helvetica,sans-Serif" font-size="10.00">RmlUi/Core/ElementDocument.h</text>
</a>
</g>
</g>
<!-- Node3&#45;&gt;Node5 -->
<g id="edge4_Node000003_Node000005" class="edge">
<title>Node3&#45;&gt;Node5</title>
<g id="a_edge4_Node000003_Node000005"><a xlink:title=" ">
<path fill="none" stroke="#63b8ff" d="M419.08,-219.75C411.73,-212.11 400.87,-200.82 391.96,-191.56"/>
<polygon fill="#63b8ff" stroke="#63b8ff" points="394.22,-188.87 384.76,-184.09 389.18,-193.72 394.22,-188.87"/>
</a>
</g>
</g>
<!-- Node7 -->
<g id="Node000007" class="node">
<title>Node7</title>
<g id="a_Node000007"><a xlink:href="ClipboardInterface_8h.html" target="_top" xlink:title=" ">
<polygon fill="white" stroke="#666666" points="207.5,-129 91.5,-129 91.5,-110 207.5,-110 207.5,-129"/>
<text text-anchor="middle" x="149.5" y="-117" font-family="Helvetica,sans-Serif" font-size="10.00">ClipboardInterface.h</text>
</a>
</g>
</g>
<!-- Node6&#45;&gt;Node7 -->
<g id="edge6_Node000006_Node000007" class="edge">
<title>Node6&#45;&gt;Node7</title>
<g id="a_edge6_Node000006_Node000007"><a xlink:title=" ">
<path fill="none" stroke="#63b8ff" d="M101.93,-219.95C87.01,-207.83 64.24,-184.91 75.5,-165 83.67,-150.55 98.62,-140.27 112.96,-133.26"/>
<polygon fill="#63b8ff" stroke="#63b8ff" points="114.51,-136.4 122.21,-129.12 111.65,-130.01 114.51,-136.4"/>
</a>
</g>
</g>
<!-- Node10 -->
<g id="Node000010" class="node">
<title>Node10</title>
<g id="a_Node000010"><a xlink:title=" ">
<polygon fill="#e0e0e0" stroke="#999999" points="47,-19 0,-19 0,0 47,0 47,-19"/>
<text text-anchor="middle" x="23.5" y="-7" font-family="Helvetica,sans-Serif" font-size="10.00">vector</text>
</a>
</g>
</g>
<!-- Node6&#45;&gt;Node10 -->
<g id="edge16_Node000006_Node000010" class="edge">
<title>Node6&#45;&gt;Node10</title>
<g id="a_edge16_Node000006_Node000010"><a xlink:title=" ">
<path fill="none" stroke="#63b8ff" d="M101.85,-219.88C91.63,-211.72 77.1,-198.57 68.5,-184 38.52,-133.17 28.26,-62.44 24.96,-29.18"/>
<polygon fill="#63b8ff" stroke="#63b8ff" points="28.43,-28.73 24.06,-19.08 21.46,-29.35 28.43,-28.73"/>
</a>
</g>
</g>
<!-- Node12 -->
<g id="Node000012" class="node">
<title>Node12</title>
<g id="a_Node000012"><a xlink:href="ClipboardAdapter_8h.html" target="_top" xlink:title=" ">
<polygon fill="white" stroke="#666666" points="270.5,-184 160.5,-184 160.5,-165 270.5,-165 270.5,-184"/>
<text text-anchor="middle" x="215.5" y="-172" font-family="Helvetica,sans-Serif" font-size="10.00">ClipboardAdapter.h</text>
</a>
</g>
</g>
<!-- Node6&#45;&gt;Node12 -->
<g id="edge12_Node000006_Node000012" class="edge">
<title>Node6&#45;&gt;Node12</title>
<g id="a_edge12_Node000006_Node000012"><a xlink:title=" ">
<path fill="none" stroke="#63b8ff" d="M129.89,-219.98C146.07,-211.57 171.07,-198.59 189.88,-188.81"/>
<polygon fill="#63b8ff" stroke="#63b8ff" points="191.55,-191.89 198.81,-184.17 188.33,-185.68 191.55,-191.89"/>
</a>
</g>
</g>
<!-- Node15 -->
<g id="Node000015" class="node">
<title>Node15</title>
<g id="a_Node000015"><a xlink:title=" ">
<polygon fill="#e0e0e0" stroke="#999999" points="142.5,-184 84.5,-184 84.5,-165 142.5,-165 142.5,-184"/>
<text text-anchor="middle" x="113.5" y="-172" font-family="Helvetica,sans-Serif" font-size="10.00">memory</text>
</a>
</g>
</g>
<!-- Node6&#45;&gt;Node15 -->
<g id="edge17_Node000006_Node000015" class="edge">
<title>Node6&#45;&gt;Node15</title>
<g id="a_edge17_Node000006_Node000015"><a xlink:title=" ">
<path fill="none" stroke="#63b8ff" d="M113.5,-219.75C113.5,-212.8 113.5,-202.85 113.5,-194.13"/>
<polygon fill="#63b8ff" stroke="#63b8ff" points="117,-194.09 113.5,-184.09 110,-194.09 117,-194.09"/>
</a>
</g>
</g>
<!-- Node8 -->
<g id="Node000008" class="node">
<title>Node8</title>
<g id="a_Node000008"><a xlink:title=" ">
<polygon fill="#e0e0e0" stroke="#999999" points="245.5,-19 201.5,-19 201.5,0 245.5,0 245.5,-19"/>
<text text-anchor="middle" x="223.5" y="-7" font-family="Helvetica,sans-Serif" font-size="10.00">string</text>
</a>
</g>
</g>
<!-- Node7&#45;&gt;Node8 -->
<g id="edge7_Node000007_Node000008" class="edge">
<title>Node7&#45;&gt;Node8</title>
<g id="a_edge7_Node000007_Node000008"><a xlink:title=" ">
<path fill="none" stroke="#63b8ff" d="M167.23,-109.87C180.89,-102.3 199.13,-90 209.5,-74 218.14,-60.66 221.51,-42.79 222.8,-29.41"/>
<polygon fill="#63b8ff" stroke="#63b8ff" points="226.31,-29.23 223.47,-19.03 219.33,-28.78 226.31,-29.23"/>
</a>
</g>
</g>
<!-- Node9 -->
<g id="Node000009" class="node">
<title>Node9</title>
<g id="a_Node000009"><a xlink:href="KeyShortCut_8h.html" target="_top" xlink:title=" ">
<polygon fill="white" stroke="#666666" points="200.5,-74 46.5,-74 46.5,-55 200.5,-55 200.5,-74"/>
<text text-anchor="middle" x="123.5" y="-62" font-family="Helvetica,sans-Serif" font-size="10.00">KeyShortCuts/KeyShortCut.h</text>
</a>
</g>
</g>
<!-- Node7&#45;&gt;Node9 -->
<g id="edge8_Node000007_Node000009" class="edge">
<title>Node7&#45;&gt;Node9</title>
<g id="a_edge8_Node000007_Node000009"><a xlink:title=" ">
<path fill="none" stroke="#63b8ff" d="M145.21,-109.75C141.69,-102.57 136.59,-92.18 132.22,-83.27"/>
<polygon fill="#63b8ff" stroke="#63b8ff" points="135.26,-81.53 127.71,-74.09 128.98,-84.61 135.26,-81.53"/>
</a>
</g>
</g>
<!-- Node9&#45;&gt;Node8 -->
<g id="edge10_Node000009_Node000008" class="edge">
<title>Node9&#45;&gt;Node8</title>
<g id="a_edge10_Node000009_Node000008"><a xlink:title=" ">
<path fill="none" stroke="#63b8ff" d="M139.57,-54.98C155.36,-46.61 179.72,-33.7 198.13,-23.95"/>
<polygon fill="#63b8ff" stroke="#63b8ff" points="199.94,-26.95 207.14,-19.17 196.67,-20.76 199.94,-26.95"/>
</a>
</g>
</g>
<!-- Node9&#45;&gt;Node10 -->
<g id="edge9_Node000009_Node000010" class="edge">
<title>Node9&#45;&gt;Node10</title>
<g id="a_edge9_Node000009_Node000010"><a xlink:title=" ">
<path fill="none" stroke="#63b8ff" d="M107.43,-54.98C91.64,-46.61 67.28,-33.7 48.87,-23.95"/>
<polygon fill="#63b8ff" stroke="#63b8ff" points="50.33,-20.76 39.86,-19.17 47.06,-26.95 50.33,-20.76"/>
</a>
</g>
</g>
<!-- Node11 -->
<g id="Node000011" class="node">
<title>Node11</title>
<g id="a_Node000011"><a xlink:title=" ">
<polygon fill="#e0e0e0" stroke="#999999" points="178,-19 69,-19 69,0 178,0 178,-19"/>
<text text-anchor="middle" x="123.5" y="-7" font-family="Helvetica,sans-Serif" font-size="10.00">RmlUi/Core/Input.h</text>
</a>
</g>
</g>
<!-- Node9&#45;&gt;Node11 -->
<g id="edge11_Node000009_Node000011" class="edge">
<title>Node9&#45;&gt;Node11</title>
<g id="a_edge11_Node000009_Node000011"><a xlink:title=" ">
<path fill="none" stroke="#63b8ff" d="M123.5,-54.75C123.5,-47.8 123.5,-37.85 123.5,-29.13"/>
<polygon fill="#63b8ff" stroke="#63b8ff" points="127,-29.09 123.5,-19.09 120,-29.09 127,-29.09"/>
</a>
</g>
</g>
<!-- Node12&#45;&gt;Node7 -->
<g id="edge13_Node000012_Node000007" class="edge">
<title>Node12&#45;&gt;Node7</title>
<g id="a_edge13_Node000012_Node000007"><a xlink:title=" ">
<path fill="none" stroke="#63b8ff" d="M204.9,-164.98C195.04,-157.07 180.15,-145.11 168.28,-135.58"/>
<polygon fill="#63b8ff" stroke="#63b8ff" points="170.29,-132.7 160.3,-129.17 165.9,-138.16 170.29,-132.7"/>
</a>
</g>
</g>
<!-- Node13 -->
<g id="Node000013" class="node">
<title>Node13</title>
<g id="a_Node000013"><a xlink:title=" ">
<polygon fill="#e0e0e0" stroke="#999999" points="537,-129 466,-129 466,-110 537,-110 537,-129"/>
<text text-anchor="middle" x="501.5" y="-117" font-family="Helvetica,sans-Serif" font-size="10.00">QClipboard</text>
</a>
</g>
</g>
<!-- Node12&#45;&gt;Node13 -->
<g id="edge14_Node000012_Node000013" class="edge">
<title>Node12&#45;&gt;Node13</title>
<g id="a_edge14_Node000012_Node000013"><a xlink:title=" ">
<path fill="none" stroke="#63b8ff" d="M261.45,-164.98C314.85,-155.09 402.45,-138.86 455.76,-128.98"/>
<polygon fill="#63b8ff" stroke="#63b8ff" points="456.43,-132.41 465.62,-127.15 455.15,-125.53 456.43,-132.41"/>
</a>
</g>
</g>
<!-- Node14 -->
<g id="Node000014" class="node">
<title>Node14</title>
<g id="a_Node000014"><a xlink:title=" ">
<polygon fill="#e0e0e0" stroke="#999999" points="344.5,-129 288.5,-129 288.5,-110 344.5,-110 344.5,-129"/>
<text text-anchor="middle" x="316.5" y="-117" font-family="Helvetica,sans-Serif" font-size="10.00">QObject</text>
</a>
</g>
</g>
<!-- Node12&#45;&gt;Node14 -->
<g id="edge15_Node000012_Node000014" class="edge">
<title>Node12&#45;&gt;Node14</title>
<g id="a_edge15_Node000012_Node000014"><a xlink:title=" ">
<path fill="none" stroke="#63b8ff" d="M231.73,-164.98C247.68,-156.61 272.28,-143.7 290.88,-133.95"/>
<polygon fill="#63b8ff" stroke="#63b8ff" points="292.75,-136.92 299.98,-129.17 289.5,-130.72 292.75,-136.92"/>
</a>
</g>
</g>
<!-- Node16&#45;&gt;Node13 -->
<g id="edge20_Node000016_Node000013" class="edge">
<title>Node16&#45;&gt;Node13</title>
<g id="a_edge20_Node000016_Node000013"><a xlink:title=" ">
<path fill="none" stroke="#63b8ff" d="M640.83,-164.98C612.96,-156.09 569.05,-142.07 537.98,-132.15"/>
<polygon fill="#63b8ff" stroke="#63b8ff" points="538.97,-128.79 528.38,-129.08 536.84,-135.46 538.97,-128.79"/>
</a>
</g>
</g>
<!-- Node16&#45;&gt;Node14 -->
<g id="edge19_Node000016_Node000014" class="edge">
<title>Node16&#45;&gt;Node14</title>
<g id="a_edge19_Node000016_Node000014"><a xlink:title=" ">
<path fill="none" stroke="#63b8ff" d="M612.27,-165.16C540.55,-154.33 417.19,-135.7 354.89,-126.3"/>
<polygon fill="#63b8ff" stroke="#63b8ff" points="355.12,-122.79 344.71,-124.76 354.07,-129.71 355.12,-122.79"/>
</a>
</g>
</g>
<!-- Node17 -->
<g id="Node000017" class="node">
<title>Node17</title>
<g id="a_Node000017"><a xlink:title=" ">
<polygon fill="#e0e0e0" stroke="#999999" points="654,-129 607,-129 607,-110 654,-110 654,-129"/>
<text text-anchor="middle" x="630.5" y="-117" font-family="Helvetica,sans-Serif" font-size="10.00">queue</text>
</a>
</g>
</g>
<!-- Node16&#45;&gt;Node17 -->
<g id="edge21_Node000016_Node000017" class="edge">
<title>Node16&#45;&gt;Node17</title>
<g id="a_edge21_Node000016_Node000017"><a xlink:title=" ">
<path fill="none" stroke="#63b8ff" d="M661.39,-164.75C656.22,-157.34 648.65,-146.5 642.31,-137.41"/>
<polygon fill="#63b8ff" stroke="#63b8ff" points="645.09,-135.29 636.5,-129.09 639.35,-139.29 645.09,-135.29"/>
</a>
</g>
</g>
<!-- Node18 -->
<g id="Node000018" class="node">
<title>Node18</title>
<g id="a_Node000018"><a xlink:title=" ">
<polygon fill="#e0e0e0" stroke="#999999" points="737,-129 672,-129 672,-110 737,-110 737,-129"/>
<text text-anchor="middle" x="704.5" y="-117" font-family="Helvetica,sans-Serif" font-size="10.00">functional</text>
</a>
</g>
</g>
<!-- Node16&#45;&gt;Node18 -->
<g id="edge22_Node000016_Node000018" class="edge">
<title>Node16&#45;&gt;Node18</title>
<g id="a_edge22_Node000016_Node000018"><a xlink:title=" ">
<path fill="none" stroke="#63b8ff" d="M673.61,-164.75C678.78,-157.34 686.35,-146.5 692.69,-137.41"/>
<polygon fill="#63b8ff" stroke="#63b8ff" points="695.65,-139.29 698.5,-129.09 689.91,-135.29 695.65,-139.29"/>
</a>
</g>
</g>
</g>
</svg>
