<?xml version="1.0" encoding="UTF-8" standalone="no"?>
<!DOCTYPE svg PUBLIC "-//W3C//DTD SVG 1.1//EN"
 "http://www.w3.org/Graphics/SVG/1.1/DTD/svg11.dtd">
<!-- Generated by graphviz version 2.43.0 (0)
 -->
<!-- Title: ShortCutsViewModel Pages: 1 -->
<svg width="632pt" height="571pt"
 viewBox="0.00 0.00 631.50 571.00" xmlns="http://www.w3.org/2000/svg" xmlns:xlink="http://www.w3.org/1999/xlink">
<g id="graph0" class="graph" transform="scale(1 1) rotate(0) translate(4 567)">
<title>ShortCutsViewModel</title>
<!-- Node1 -->
<g id="Node000001" class="node">
<title>Node1</title>
<g id="a_Node000001"><a xlink:title=" ">
<polygon fill="#999999" stroke="transparent" points="396,-184 257,-184 257,0 396,0 396,-184"/>
<text text-anchor="start" x="276" y="-172" font-family="Helvetica,sans-Serif" font-size="10.00">ShortCutsViewModel</text>
<text text-anchor="start" x="325" y="-157" font-family="Helvetica,sans-Serif" font-size="10.00"> </text>
<text text-anchor="start" x="261.5" y="-142" font-family="Helvetica,sans-Serif" font-size="10.00">+</text>
<text text-anchor="start" x="274.5" y="-142" font-family="Helvetica,sans-Serif" font-size="10.00">updateList()</text>
<text text-anchor="start" x="261.5" y="-127" font-family="Helvetica,sans-Serif" font-size="10.00">+</text>
<text text-anchor="start" x="274.5" y="-127" font-family="Helvetica,sans-Serif" font-size="10.00">moveUpIndex()</text>
<text text-anchor="start" x="261.5" y="-112" font-family="Helvetica,sans-Serif" font-size="10.00">+</text>
<text text-anchor="start" x="274.5" y="-112" font-family="Helvetica,sans-Serif" font-size="10.00">moveDownIndex()</text>
<text text-anchor="start" x="261.5" y="-97" font-family="Helvetica,sans-Serif" font-size="10.00">+</text>
<text text-anchor="start" x="274.5" y="-97" font-family="Helvetica,sans-Serif" font-size="10.00">getMemoryCell()</text>
<text text-anchor="start" x="261.5" y="-82" font-family="Helvetica,sans-Serif" font-size="10.00">+</text>
<text text-anchor="start" x="274.5" y="-82" font-family="Helvetica,sans-Serif" font-size="10.00">getSelectedCell()</text>
<text text-anchor="start" x="261.5" y="-67" font-family="Helvetica,sans-Serif" font-size="10.00">+</text>
<text text-anchor="start" x="274.5" y="-67" font-family="Helvetica,sans-Serif" font-size="10.00">hasSelectedCell()</text>
<text text-anchor="start" x="261.5" y="-52" font-family="Helvetica,sans-Serif" font-size="10.00">+</text>
<text text-anchor="start" x="274.5" y="-52" font-family="Helvetica,sans-Serif" font-size="10.00">getSelectedCellIndex()</text>
<text text-anchor="start" x="261.5" y="-37" font-family="Helvetica,sans-Serif" font-size="10.00">+</text>
<text text-anchor="start" x="274.5" y="-37" font-family="Helvetica,sans-Serif" font-size="10.00">Instance()</text>
<text text-anchor="start" x="261.5" y="-22" font-family="Helvetica,sans-Serif" font-size="10.00">#</text>
<text text-anchor="start" x="274.5" y="-22" font-family="Helvetica,sans-Serif" font-size="10.00">ShortCutsViewModel()</text>
<text text-anchor="start" x="261.5" y="-7" font-family="Helvetica,sans-Serif" font-size="10.00">#</text>
<text text-anchor="start" x="274.5" y="-7" font-family="Helvetica,sans-Serif" font-size="10.00">~ShortCutsViewModel()</text>
<polygon fill="#666666" stroke="#666666" points="257.5,-167 257.5,-167 396.5,-167 396.5,-167 257.5,-167"/>
<polygon fill="#666666" stroke="#666666" points="257.5,-152 257.5,-152 396.5,-152 396.5,-152 257.5,-152"/>
<polygon fill="none" stroke="#666666" points="257,0 257,-184 396,-184 396,0 257,0"/>
</a>
</g>
</g>
<!-- Node2 -->
<g id="Node000002" class="node">
<title>Node2</title>
<g id="a_Node000002"><a xlink:href="classMemoryCellManager.html" target="_top" xlink:title=" ">
<polygon fill="white" stroke="transparent" points="207.5,-456 59.5,-456 59.5,-242 207.5,-242 207.5,-456"/>
<text text-anchor="start" x="82" y="-444" font-family="Helvetica,sans-Serif" font-size="10.00">MemoryCellManager</text>
<text text-anchor="start" x="131.5" y="-429" font-family="Helvetica,sans-Serif" font-size="10.00"> </text>
<text text-anchor="start" x="63.5" y="-414" font-family="Helvetica,sans-Serif" font-size="10.00">+</text>
<text text-anchor="start" x="76.5" y="-414" font-family="Helvetica,sans-Serif" font-size="10.00">getMemoryCellCount()</text>
<text text-anchor="start" x="63.5" y="-399" font-family="Helvetica,sans-Serif" font-size="10.00">+</text>
<text text-anchor="start" x="76.5" y="-399" font-family="Helvetica,sans-Serif" font-size="10.00">getMemoryCell()</text>
<text text-anchor="start" x="63.5" y="-384" font-family="Helvetica,sans-Serif" font-size="10.00">+</text>
<text text-anchor="start" x="76.5" y="-384" font-family="Helvetica,sans-Serif" font-size="10.00">addMemoryCell()</text>
<text text-anchor="start" x="63.5" y="-369" font-family="Helvetica,sans-Serif" font-size="10.00">+</text>
<text text-anchor="start" x="76.5" y="-369" font-family="Helvetica,sans-Serif" font-size="10.00">initialize()</text>
<text text-anchor="start" x="63.5" y="-354" font-family="Helvetica,sans-Serif" font-size="10.00">+</text>
<text text-anchor="start" x="76.5" y="-354" font-family="Helvetica,sans-Serif" font-size="10.00">cleanup()</text>
<text text-anchor="start" x="63.5" y="-339" font-family="Helvetica,sans-Serif" font-size="10.00">+</text>
<text text-anchor="start" x="76.5" y="-339" font-family="Helvetica,sans-Serif" font-size="10.00">setSelectedCell()</text>
<text text-anchor="start" x="63.5" y="-324" font-family="Helvetica,sans-Serif" font-size="10.00">+</text>
<text text-anchor="start" x="76.5" y="-324" font-family="Helvetica,sans-Serif" font-size="10.00">getSelectedCell()</text>
<text text-anchor="start" x="63.5" y="-309" font-family="Helvetica,sans-Serif" font-size="10.00">+</text>
<text text-anchor="start" x="76.5" y="-309" font-family="Helvetica,sans-Serif" font-size="10.00">loadCells()</text>
<text text-anchor="start" x="63.5" y="-294" font-family="Helvetica,sans-Serif" font-size="10.00">+</text>
<text text-anchor="start" x="76.5" y="-294" font-family="Helvetica,sans-Serif" font-size="10.00">getContents()</text>
<text text-anchor="start" x="63.5" y="-279" font-family="Helvetica,sans-Serif" font-size="10.00">+</text>
<text text-anchor="start" x="76.5" y="-279" font-family="Helvetica,sans-Serif" font-size="10.00">moveContentsOneDown()</text>
<text text-anchor="start" x="63.5" y="-264" font-family="Helvetica,sans-Serif" font-size="10.00">+</text>
<text text-anchor="start" x="76.5" y="-264" font-family="Helvetica,sans-Serif" font-size="10.00">Instance()</text>
<text text-anchor="start" x="63.5" y="-249" font-family="Helvetica,sans-Serif" font-size="10.00">#</text>
<text text-anchor="start" x="76.5" y="-249" font-family="Helvetica,sans-Serif" font-size="10.00">MemoryCellManager()</text>
<polygon fill="#666666" stroke="#666666" points="59.5,-439 59.5,-439 207.5,-439 207.5,-439 59.5,-439"/>
<polygon fill="#666666" stroke="#666666" points="59.5,-424 59.5,-424 207.5,-424 207.5,-424 59.5,-424"/>
<polygon fill="none" stroke="#666666" points="59.5,-242 59.5,-456 207.5,-456 207.5,-242 59.5,-242"/>
</a>
</g>
</g>
<!-- Node2&#45;&gt;Node1 -->
<g id="edge1_Node000001_Node000002" class="edge">
<title>Node2&#45;&gt;Node1</title>
<g id="a_edge1_Node000001_Node000002"><a xlink:title=" ">
<path fill="none" stroke="#63b8ff" d="M134.38,-241.99C137.71,-227.83 142.84,-214.06 150.5,-202 172.68,-167.1 210.47,-141.56 245.36,-124"/>
<polygon fill="none" stroke="#63b8ff" points="245.76,-123.81 249.42,-117.6 256.56,-118.59 252.9,-124.8 245.76,-123.81"/>
</a>
</g>
<text text-anchor="middle" x="215.5" y="-210.5" font-family="Helvetica,sans-Serif" font-size="10.00" fill="grey"> &#45;m_memoryCellsManager</text>
</g>
<!-- Node3 -->
<g id="Node000003" class="node">
<title>Node3</title>
<g id="a_Node000003"><a xlink:title=" ">
<polygon fill="white" stroke="transparent" points="153,-563 0,-563 0,-503 153,-503 153,-563"/>
<text text-anchor="start" x="5.5" y="-551" font-family="Helvetica,sans-Serif" font-size="10.00">vector&lt; std::unique</text>
<text text-anchor="start" x="5.5" y="-540" font-family="Helvetica,sans-Serif" font-size="10.00">_ptr&lt; ClipboardInterface &gt; &gt;</text>
<text text-anchor="start" x="75" y="-525" font-family="Helvetica,sans-Serif" font-size="10.00"> </text>
<text text-anchor="start" x="75" y="-510" font-family="Helvetica,sans-Serif" font-size="10.00"> </text>
<polygon fill="#666666" stroke="#666666" points="0.5,-535 0.5,-535 153.5,-535 153.5,-535 0.5,-535"/>
<polygon fill="#666666" stroke="#666666" points="0.5,-520 0.5,-520 153.5,-520 153.5,-520 0.5,-520"/>
<polygon fill="none" stroke="#666666" points="0,-503 0,-563 153,-563 153,-503 0,-503"/>
</a>
</g>
</g>
<!-- Node3&#45;&gt;Node2 -->
<g id="edge2_Node000002_Node000003" class="edge">
<title>Node3&#45;&gt;Node2</title>
<g id="a_edge2_Node000002_Node000003"><a xlink:title=" ">
<path fill="none" stroke="#63b8ff" d="M76.61,-502.8C77.15,-493.49 78.28,-483.22 80.5,-474 80.99,-471.97 81.51,-469.92 82.06,-467.87"/>
<polygon fill="none" stroke="#63b8ff" points="82.13,-467.62 79.97,-460.74 85.48,-456.09 87.65,-462.97 82.13,-467.62"/>
</a>
</g>
<text text-anchor="middle" x="124.5" y="-477" font-family="Helvetica,sans-Serif" font-size="10.00" fill="grey"> &#45;m_memoryCells</text>
</g>
<!-- Node4 -->
<g id="Node000004" class="node">
<title>Node4</title>
<g id="a_Node000004"><a xlink:title=" ">
<polygon fill="white" stroke="transparent" points="210,-557.5 171,-557.5 171,-508.5 210,-508.5 210,-557.5"/>
<text text-anchor="start" x="176.5" y="-545" font-family="Helvetica,sans-Serif" font-size="10.00">size_t</text>
<text text-anchor="start" x="189" y="-530" font-family="Helvetica,sans-Serif" font-size="10.00"> </text>
<text text-anchor="start" x="189" y="-515" font-family="Helvetica,sans-Serif" font-size="10.00"> </text>
<polygon fill="#666666" stroke="#666666" points="171.5,-540 171.5,-540 210.5,-540 210.5,-540 171.5,-540"/>
<polygon fill="#666666" stroke="#666666" points="171.5,-525 171.5,-525 210.5,-525 210.5,-525 171.5,-525"/>
<polygon fill="none" stroke="#666666" points="171,-508.5 171,-557.5 210,-557.5 210,-508.5 171,-508.5"/>
</a>
</g>
</g>
<!-- Node4&#45;&gt;Node2 -->
<g id="edge3_Node000002_Node000004" class="edge">
<title>Node4&#45;&gt;Node2</title>
<g id="a_edge3_Node000002_Node000004"><a xlink:title=" ">
<path fill="none" stroke="#63b8ff" d="M183.05,-508.21C179.59,-497.15 175.19,-483.1 170.44,-467.96"/>
<polygon fill="none" stroke="#63b8ff" points="170.35,-467.65 164.74,-463.12 166.76,-456.2 172.37,-460.73 170.35,-467.65"/>
</a>
</g>
<text text-anchor="middle" x="209" y="-477" font-family="Helvetica,sans-Serif" font-size="10.00" fill="grey"> &#45;selectedCell</text>
</g>
<!-- Node5 -->
<g id="Node000005" class="node">
<title>Node5</title>
<g id="a_Node000005"><a xlink:title=" ">
<polygon fill="white" stroke="transparent" points="298,-373.5 275,-373.5 275,-324.5 298,-324.5 298,-373.5"/>
<text text-anchor="start" x="280.5" y="-361" font-family="Helvetica,sans-Serif" font-size="10.00">int</text>
<text text-anchor="start" x="285" y="-346" font-family="Helvetica,sans-Serif" font-size="10.00"> </text>
<text text-anchor="start" x="285" y="-331" font-family="Helvetica,sans-Serif" font-size="10.00"> </text>
<polygon fill="#666666" stroke="#666666" points="275.5,-356 275.5,-356 298.5,-356 298.5,-356 275.5,-356"/>
<polygon fill="#666666" stroke="#666666" points="275.5,-341 275.5,-341 298.5,-341 298.5,-341 275.5,-341"/>
<polygon fill="none" stroke="#666666" points="275,-324.5 275,-373.5 298,-373.5 298,-324.5 275,-324.5"/>
</a>
</g>
</g>
<!-- Node5&#45;&gt;Node1 -->
<g id="edge4_Node000001_Node000005" class="edge">
<title>Node5&#45;&gt;Node1</title>
<g id="a_edge4_Node000001_Node000005"><a xlink:title=" ">
<path fill="none" stroke="#63b8ff" d="M284.24,-324.26C282.02,-295.19 279.97,-244.56 287.5,-202 287.84,-200.08 288.21,-198.16 288.61,-196.22"/>
<polygon fill="none" stroke="#63b8ff" points="288.66,-195.97 286.11,-189.23 291.36,-184.28 293.91,-191.03 288.66,-195.97"/>
</a>
</g>
<text text-anchor="middle" x="316" y="-216" font-family="Helvetica,sans-Serif" font-size="10.00" fill="grey"> &#45;cellsIndex</text>
<text text-anchor="middle" x="316" y="-205" font-family="Helvetica,sans-Serif" font-size="10.00" fill="grey">&#45;viewIndex</text>
</g>
<!-- Node6 -->
<g id="Node000006" class="node">
<title>Node6</title>
<g id="a_Node000006"><a xlink:title=" ">
<polygon fill="white" stroke="transparent" points="412.5,-373.5 320.5,-373.5 320.5,-324.5 412.5,-324.5 412.5,-373.5"/>
<text text-anchor="start" x="325.5" y="-361" font-family="Helvetica,sans-Serif" font-size="10.00">vector&lt; size_t &gt;</text>
<text text-anchor="start" x="364.5" y="-346" font-family="Helvetica,sans-Serif" font-size="10.00"> </text>
<text text-anchor="start" x="364.5" y="-331" font-family="Helvetica,sans-Serif" font-size="10.00"> </text>
<polygon fill="#666666" stroke="#666666" points="320.5,-356 320.5,-356 412.5,-356 412.5,-356 320.5,-356"/>
<polygon fill="#666666" stroke="#666666" points="320.5,-341 320.5,-341 412.5,-341 412.5,-341 320.5,-341"/>
<polygon fill="none" stroke="#666666" points="320.5,-324.5 320.5,-373.5 412.5,-373.5 412.5,-324.5 320.5,-324.5"/>
</a>
</g>
</g>
<!-- Node6&#45;&gt;Node1 -->
<g id="edge5_Node000001_Node000006" class="edge">
<title>Node6&#45;&gt;Node1</title>
<g id="a_edge5_Node000001_Node000006"><a xlink:title=" ">
<path fill="none" stroke="#63b8ff" d="M363.06,-324.47C358.81,-295.6 351.32,-245.17 344.5,-202 344.2,-200.1 343.9,-198.19 343.59,-196.26"/>
<polygon fill="none" stroke="#63b8ff" points="343.57,-196.13 338.67,-190.83 341.67,-184.28 346.57,-189.57 343.57,-196.13"/>
</a>
</g>
<text text-anchor="middle" x="410" y="-210.5" font-family="Helvetica,sans-Serif" font-size="10.00" fill="grey"> &#45;m_selectedCellsIndexes</text>
</g>
<!-- Node7 -->
<g id="Node000007" class="node">
<title>Node7</title>
<g id="a_Node000007"><a xlink:title=" ">
<polygon fill="white" stroke="transparent" points="595.5,-373.5 433.5,-373.5 433.5,-324.5 595.5,-324.5 595.5,-373.5"/>
<text text-anchor="start" x="438.5" y="-361" font-family="Helvetica,sans-Serif" font-size="10.00">vector&lt; ClipboardInterface * &gt;</text>
<text text-anchor="start" x="512.5" y="-346" font-family="Helvetica,sans-Serif" font-size="10.00"> </text>
<text text-anchor="start" x="512.5" y="-331" font-family="Helvetica,sans-Serif" font-size="10.00"> </text>
<polygon fill="#666666" stroke="#666666" points="433.5,-356 433.5,-356 595.5,-356 595.5,-356 433.5,-356"/>
<polygon fill="#666666" stroke="#666666" points="433.5,-341 433.5,-341 595.5,-341 595.5,-341 433.5,-341"/>
<polygon fill="none" stroke="#666666" points="433.5,-324.5 433.5,-373.5 595.5,-373.5 595.5,-324.5 433.5,-324.5"/>
</a>
</g>
</g>
<!-- Node7&#45;&gt;Node1 -->
<g id="edge6_Node000001_Node000007" class="edge">
<title>Node7&#45;&gt;Node1</title>
<g id="a_edge6_Node000001_Node000007"><a xlink:title=" ">
<path fill="none" stroke="#63b8ff" d="M513.2,-324.25C510.5,-293.57 502.18,-239.65 476.5,-202 458.57,-175.7 432.11,-153.46 406.39,-136.06"/>
<polygon fill="none" stroke="#63b8ff" points="406.25,-135.97 399.03,-136.03 396.21,-129.39 403.42,-129.33 406.25,-135.97"/>
</a>
</g>
<text text-anchor="middle" x="556" y="-210.5" font-family="Helvetica,sans-Serif" font-size="10.00" fill="grey"> &#45;m_memoryCellsShortCuts</text>
</g>
</g>
</svg>
