<?xml version="1.0" encoding="UTF-8" standalone="no"?>
<!DOCTYPE svg PUBLIC "-//W3C//DTD SVG 1.1//EN"
 "http://www.w3.org/Graphics/SVG/1.1/DTD/svg11.dtd">
<!-- Generated by graphviz version 2.43.0 (0)
 -->
<!-- Title: SearchEvent Pages: 1 -->
<svg width="632pt" height="697pt"
 viewBox="0.00 0.00 631.50 697.00" xmlns="http://www.w3.org/2000/svg" xmlns:xlink="http://www.w3.org/1999/xlink">
<g id="graph0" class="graph" transform="scale(1 1) rotate(0) translate(4 693)">
<title>SearchEvent</title>
<!-- Node1 -->
<g id="Node000001" class="node">
<title>Node1</title>
<g id="a_Node000001"><a xlink:title=" ">
<polygon fill="#999999" stroke="transparent" points="247.5,-79 149.5,-79 149.5,0 247.5,0 247.5,-79"/>
<text text-anchor="start" x="168" y="-66.5" font-family="Helvetica,sans-Serif" font-size="10.00">SearchEvent</text>
<text text-anchor="start" x="196.5" y="-51.5" font-family="Helvetica,sans-Serif" font-size="10.00"> </text>
<text text-anchor="start" x="153.5" y="-36.5" font-family="Helvetica,sans-Serif" font-size="10.00">+</text>
<text text-anchor="start" x="166.5" y="-36.5" font-family="Helvetica,sans-Serif" font-size="10.00">SearchEvent()</text>
<text text-anchor="start" x="153.5" y="-21.5" font-family="Helvetica,sans-Serif" font-size="10.00">+</text>
<text text-anchor="start" x="166.5" y="-21.5" font-family="Helvetica,sans-Serif" font-size="10.00">~SearchEvent()</text>
<text text-anchor="start" x="153.5" y="-6.5" font-family="Helvetica,sans-Serif" font-size="10.00">+</text>
<text text-anchor="start" x="166.5" y="-6.5" font-family="Helvetica,sans-Serif" font-size="10.00">handle()</text>
<polygon fill="#666666" stroke="#666666" points="149.5,-61.5 149.5,-61.5 247.5,-61.5 247.5,-61.5 149.5,-61.5"/>
<polygon fill="#666666" stroke="#666666" points="149.5,-46.5 149.5,-46.5 247.5,-46.5 247.5,-46.5 149.5,-46.5"/>
<polygon fill="none" stroke="#666666" points="149.5,0 149.5,-79 247.5,-79 247.5,0 149.5,0"/>
</a>
</g>
</g>
<!-- Node2 -->
<g id="Node000002" class="node">
<title>Node2</title>
<g id="a_Node000002"><a xlink:href="classClipboardEvent.html" target="_top" xlink:title=" ">
<polygon fill="white" stroke="transparent" points="238.5,-250 126.5,-250 126.5,-186 238.5,-186 238.5,-250"/>
<text text-anchor="start" x="145" y="-238" font-family="Helvetica,sans-Serif" font-size="10.00">ClipboardEvent</text>
<text text-anchor="start" x="180.5" y="-223" font-family="Helvetica,sans-Serif" font-size="10.00"> </text>
<text text-anchor="start" x="130.5" y="-208" font-family="Helvetica,sans-Serif" font-size="10.00">+</text>
<text text-anchor="start" x="143.5" y="-208" font-family="Helvetica,sans-Serif" font-size="10.00">~ClipboardEvent()</text>
<text text-anchor="start" x="130.5" y="-193" font-family="Helvetica,sans-Serif" font-size="10.00">+</text>
<text text-anchor="start" x="143.5" y="-193" font-family="Helvetica,sans-Serif" font-size="10.00">handle()</text>
<polygon fill="#666666" stroke="#666666" points="126.5,-233 126.5,-233 238.5,-233 238.5,-233 126.5,-233"/>
<polygon fill="#666666" stroke="#666666" points="126.5,-218 126.5,-218 238.5,-218 238.5,-218 126.5,-218"/>
<polygon fill="none" stroke="#666666" points="126.5,-186 126.5,-250 238.5,-250 238.5,-186 126.5,-186"/>
</a>
</g>
</g>
<!-- Node2&#45;&gt;Node1 -->
<g id="edge1_Node000001_Node000002" class="edge">
<title>Node2&#45;&gt;Node1</title>
<g id="a_edge1_Node000001_Node000002"><a xlink:title=" ">
<path fill="none" stroke="#63b8ff" d="M186.26,-175.57C188.9,-146.37 192.42,-107.56 195.01,-79.03"/>
<polygon fill="none" stroke="#63b8ff" points="182.74,-175.58 185.32,-185.85 189.71,-176.21 182.74,-175.58"/>
</a>
</g>
</g>
<!-- Node3 -->
<g id="Node000003" class="node">
<title>Node3</title>
<g id="a_Node000003"><a xlink:href="classShortCutsViewModel.html" target="_top" xlink:title=" ">
<polygon fill="white" stroke="transparent" points="396,-310 257,-310 257,-126 396,-126 396,-310"/>
<text text-anchor="start" x="276" y="-298" font-family="Helvetica,sans-Serif" font-size="10.00">ShortCutsViewModel</text>
<text text-anchor="start" x="325" y="-283" font-family="Helvetica,sans-Serif" font-size="10.00"> </text>
<text text-anchor="start" x="261.5" y="-268" font-family="Helvetica,sans-Serif" font-size="10.00">+</text>
<text text-anchor="start" x="274.5" y="-268" font-family="Helvetica,sans-Serif" font-size="10.00">updateList()</text>
<text text-anchor="start" x="261.5" y="-253" font-family="Helvetica,sans-Serif" font-size="10.00">+</text>
<text text-anchor="start" x="274.5" y="-253" font-family="Helvetica,sans-Serif" font-size="10.00">moveUpIndex()</text>
<text text-anchor="start" x="261.5" y="-238" font-family="Helvetica,sans-Serif" font-size="10.00">+</text>
<text text-anchor="start" x="274.5" y="-238" font-family="Helvetica,sans-Serif" font-size="10.00">moveDownIndex()</text>
<text text-anchor="start" x="261.5" y="-223" font-family="Helvetica,sans-Serif" font-size="10.00">+</text>
<text text-anchor="start" x="274.5" y="-223" font-family="Helvetica,sans-Serif" font-size="10.00">getMemoryCell()</text>
<text text-anchor="start" x="261.5" y="-208" font-family="Helvetica,sans-Serif" font-size="10.00">+</text>
<text text-anchor="start" x="274.5" y="-208" font-family="Helvetica,sans-Serif" font-size="10.00">getSelectedCell()</text>
<text text-anchor="start" x="261.5" y="-193" font-family="Helvetica,sans-Serif" font-size="10.00">+</text>
<text text-anchor="start" x="274.5" y="-193" font-family="Helvetica,sans-Serif" font-size="10.00">hasSelectedCell()</text>
<text text-anchor="start" x="261.5" y="-178" font-family="Helvetica,sans-Serif" font-size="10.00">+</text>
<text text-anchor="start" x="274.5" y="-178" font-family="Helvetica,sans-Serif" font-size="10.00">getSelectedCellIndex()</text>
<text text-anchor="start" x="261.5" y="-163" font-family="Helvetica,sans-Serif" font-size="10.00">+</text>
<text text-anchor="start" x="274.5" y="-163" font-family="Helvetica,sans-Serif" font-size="10.00">Instance()</text>
<text text-anchor="start" x="261.5" y="-148" font-family="Helvetica,sans-Serif" font-size="10.00">#</text>
<text text-anchor="start" x="274.5" y="-148" font-family="Helvetica,sans-Serif" font-size="10.00">ShortCutsViewModel()</text>
<text text-anchor="start" x="261.5" y="-133" font-family="Helvetica,sans-Serif" font-size="10.00">#</text>
<text text-anchor="start" x="274.5" y="-133" font-family="Helvetica,sans-Serif" font-size="10.00">~ShortCutsViewModel()</text>
<polygon fill="#666666" stroke="#666666" points="257.5,-293 257.5,-293 396.5,-293 396.5,-293 257.5,-293"/>
<polygon fill="#666666" stroke="#666666" points="257.5,-278 257.5,-278 396.5,-278 396.5,-278 257.5,-278"/>
<polygon fill="none" stroke="#666666" points="257,-126 257,-310 396,-310 396,-126 257,-126"/>
</a>
</g>
</g>
<!-- Node3&#45;&gt;Node1 -->
<g id="edge2_Node000001_Node000003" class="edge">
<title>Node3&#45;&gt;Node1</title>
<g id="a_edge2_Node000001_Node000003"><a xlink:title=" ">
<path fill="none" stroke="#63b8ff" d="M260.44,-125.91C251.17,-113.13 241.96,-100.43 233.59,-88.88"/>
<polygon fill="none" stroke="#63b8ff" points="233.51,-88.78 226.75,-86.27 226.47,-79.06 233.23,-81.57 233.51,-88.78"/>
</a>
</g>
<text text-anchor="middle" x="308" y="-100" font-family="Helvetica,sans-Serif" font-size="10.00" fill="grey"> &#45;m_shortCutsViewModel</text>
</g>
<!-- Node4 -->
<g id="Node000004" class="node">
<title>Node4</title>
<g id="a_Node000004"><a xlink:href="classMemoryCellManager.html" target="_top" xlink:title=" ">
<polygon fill="white" stroke="transparent" points="207.5,-582 59.5,-582 59.5,-368 207.5,-368 207.5,-582"/>
<text text-anchor="start" x="82" y="-570" font-family="Helvetica,sans-Serif" font-size="10.00">MemoryCellManager</text>
<text text-anchor="start" x="131.5" y="-555" font-family="Helvetica,sans-Serif" font-size="10.00"> </text>
<text text-anchor="start" x="63.5" y="-540" font-family="Helvetica,sans-Serif" font-size="10.00">+</text>
<text text-anchor="start" x="76.5" y="-540" font-family="Helvetica,sans-Serif" font-size="10.00">getMemoryCellCount()</text>
<text text-anchor="start" x="63.5" y="-525" font-family="Helvetica,sans-Serif" font-size="10.00">+</text>
<text text-anchor="start" x="76.5" y="-525" font-family="Helvetica,sans-Serif" font-size="10.00">getMemoryCell()</text>
<text text-anchor="start" x="63.5" y="-510" font-family="Helvetica,sans-Serif" font-size="10.00">+</text>
<text text-anchor="start" x="76.5" y="-510" font-family="Helvetica,sans-Serif" font-size="10.00">addMemoryCell()</text>
<text text-anchor="start" x="63.5" y="-495" font-family="Helvetica,sans-Serif" font-size="10.00">+</text>
<text text-anchor="start" x="76.5" y="-495" font-family="Helvetica,sans-Serif" font-size="10.00">initialize()</text>
<text text-anchor="start" x="63.5" y="-480" font-family="Helvetica,sans-Serif" font-size="10.00">+</text>
<text text-anchor="start" x="76.5" y="-480" font-family="Helvetica,sans-Serif" font-size="10.00">cleanup()</text>
<text text-anchor="start" x="63.5" y="-465" font-family="Helvetica,sans-Serif" font-size="10.00">+</text>
<text text-anchor="start" x="76.5" y="-465" font-family="Helvetica,sans-Serif" font-size="10.00">setSelectedCell()</text>
<text text-anchor="start" x="63.5" y="-450" font-family="Helvetica,sans-Serif" font-size="10.00">+</text>
<text text-anchor="start" x="76.5" y="-450" font-family="Helvetica,sans-Serif" font-size="10.00">getSelectedCell()</text>
<text text-anchor="start" x="63.5" y="-435" font-family="Helvetica,sans-Serif" font-size="10.00">+</text>
<text text-anchor="start" x="76.5" y="-435" font-family="Helvetica,sans-Serif" font-size="10.00">loadCells()</text>
<text text-anchor="start" x="63.5" y="-420" font-family="Helvetica,sans-Serif" font-size="10.00">+</text>
<text text-anchor="start" x="76.5" y="-420" font-family="Helvetica,sans-Serif" font-size="10.00">getContents()</text>
<text text-anchor="start" x="63.5" y="-405" font-family="Helvetica,sans-Serif" font-size="10.00">+</text>
<text text-anchor="start" x="76.5" y="-405" font-family="Helvetica,sans-Serif" font-size="10.00">moveContentsOneDown()</text>
<text text-anchor="start" x="63.5" y="-390" font-family="Helvetica,sans-Serif" font-size="10.00">+</text>
<text text-anchor="start" x="76.5" y="-390" font-family="Helvetica,sans-Serif" font-size="10.00">Instance()</text>
<text text-anchor="start" x="63.5" y="-375" font-family="Helvetica,sans-Serif" font-size="10.00">#</text>
<text text-anchor="start" x="76.5" y="-375" font-family="Helvetica,sans-Serif" font-size="10.00">MemoryCellManager()</text>
<polygon fill="#666666" stroke="#666666" points="59.5,-565 59.5,-565 207.5,-565 207.5,-565 59.5,-565"/>
<polygon fill="#666666" stroke="#666666" points="59.5,-550 59.5,-550 207.5,-550 207.5,-550 59.5,-550"/>
<polygon fill="none" stroke="#666666" points="59.5,-368 59.5,-582 207.5,-582 207.5,-368 59.5,-368"/>
</a>
</g>
</g>
<!-- Node4&#45;&gt;Node3 -->
<g id="edge3_Node000003_Node000004" class="edge">
<title>Node4&#45;&gt;Node3</title>
<g id="a_edge3_Node000003_Node000004"><a xlink:title=" ">
<path fill="none" stroke="#63b8ff" d="M129.75,-367.97C133.56,-353.15 140.05,-339.19 150.5,-328 178.1,-298.47 204.9,-326.59 246.05,-309.45"/>
<polygon fill="none" stroke="#63b8ff" points="246.1,-309.42 249.68,-303.16 256.83,-304.05 253.26,-310.31 246.1,-309.42"/>
</a>
</g>
<text text-anchor="middle" x="215.5" y="-336.5" font-family="Helvetica,sans-Serif" font-size="10.00" fill="grey"> &#45;m_memoryCellsManager</text>
</g>
<!-- Node5 -->
<g id="Node000005" class="node">
<title>Node5</title>
<g id="a_Node000005"><a xlink:title=" ">
<polygon fill="white" stroke="transparent" points="153,-689 0,-689 0,-629 153,-629 153,-689"/>
<text text-anchor="start" x="5.5" y="-677" font-family="Helvetica,sans-Serif" font-size="10.00">vector&lt; std::unique</text>
<text text-anchor="start" x="5.5" y="-666" font-family="Helvetica,sans-Serif" font-size="10.00">_ptr&lt; ClipboardInterface &gt; &gt;</text>
<text text-anchor="start" x="75" y="-651" font-family="Helvetica,sans-Serif" font-size="10.00"> </text>
<text text-anchor="start" x="75" y="-636" font-family="Helvetica,sans-Serif" font-size="10.00"> </text>
<polygon fill="#666666" stroke="#666666" points="0.5,-661 0.5,-661 153.5,-661 153.5,-661 0.5,-661"/>
<polygon fill="#666666" stroke="#666666" points="0.5,-646 0.5,-646 153.5,-646 153.5,-646 0.5,-646"/>
<polygon fill="none" stroke="#666666" points="0,-629 0,-689 153,-689 153,-629 0,-629"/>
</a>
</g>
</g>
<!-- Node5&#45;&gt;Node4 -->
<g id="edge4_Node000004_Node000005" class="edge">
<title>Node5&#45;&gt;Node4</title>
<g id="a_edge4_Node000004_Node000005"><a xlink:title=" ">
<path fill="none" stroke="#63b8ff" d="M76.61,-628.8C77.15,-619.49 78.28,-609.22 80.5,-600 80.99,-597.97 81.51,-595.92 82.06,-593.87"/>
<polygon fill="none" stroke="#63b8ff" points="82.13,-593.62 79.97,-586.74 85.48,-582.09 87.65,-588.97 82.13,-593.62"/>
</a>
</g>
<text text-anchor="middle" x="124.5" y="-603" font-family="Helvetica,sans-Serif" font-size="10.00" fill="grey"> &#45;m_memoryCells</text>
</g>
<!-- Node6 -->
<g id="Node000006" class="node">
<title>Node6</title>
<g id="a_Node000006"><a xlink:title=" ">
<polygon fill="white" stroke="transparent" points="210,-683.5 171,-683.5 171,-634.5 210,-634.5 210,-683.5"/>
<text text-anchor="start" x="176.5" y="-671" font-family="Helvetica,sans-Serif" font-size="10.00">size_t</text>
<text text-anchor="start" x="189" y="-656" font-family="Helvetica,sans-Serif" font-size="10.00"> </text>
<text text-anchor="start" x="189" y="-641" font-family="Helvetica,sans-Serif" font-size="10.00"> </text>
<polygon fill="#666666" stroke="#666666" points="171.5,-666 171.5,-666 210.5,-666 210.5,-666 171.5,-666"/>
<polygon fill="#666666" stroke="#666666" points="171.5,-651 171.5,-651 210.5,-651 210.5,-651 171.5,-651"/>
<polygon fill="none" stroke="#666666" points="171,-634.5 171,-683.5 210,-683.5 210,-634.5 171,-634.5"/>
</a>
</g>
</g>
<!-- Node6&#45;&gt;Node4 -->
<g id="edge5_Node000004_Node000006" class="edge">
<title>Node6&#45;&gt;Node4</title>
<g id="a_edge5_Node000004_Node000006"><a xlink:title=" ">
<path fill="none" stroke="#63b8ff" d="M183.05,-634.21C179.59,-623.15 175.19,-609.1 170.44,-593.96"/>
<polygon fill="none" stroke="#63b8ff" points="170.35,-593.65 164.74,-589.12 166.76,-582.2 172.37,-586.73 170.35,-593.65"/>
</a>
</g>
<text text-anchor="middle" x="209" y="-603" font-family="Helvetica,sans-Serif" font-size="10.00" fill="grey"> &#45;selectedCell</text>
</g>
<!-- Node7 -->
<g id="Node000007" class="node">
<title>Node7</title>
<g id="a_Node000007"><a xlink:title=" ">
<polygon fill="white" stroke="transparent" points="298,-499.5 275,-499.5 275,-450.5 298,-450.5 298,-499.5"/>
<text text-anchor="start" x="280.5" y="-487" font-family="Helvetica,sans-Serif" font-size="10.00">int</text>
<text text-anchor="start" x="285" y="-472" font-family="Helvetica,sans-Serif" font-size="10.00"> </text>
<text text-anchor="start" x="285" y="-457" font-family="Helvetica,sans-Serif" font-size="10.00"> </text>
<polygon fill="#666666" stroke="#666666" points="275.5,-482 275.5,-482 298.5,-482 298.5,-482 275.5,-482"/>
<polygon fill="#666666" stroke="#666666" points="275.5,-467 275.5,-467 298.5,-467 298.5,-467 275.5,-467"/>
<polygon fill="none" stroke="#666666" points="275,-450.5 275,-499.5 298,-499.5 298,-450.5 275,-450.5"/>
</a>
</g>
</g>
<!-- Node7&#45;&gt;Node3 -->
<g id="edge6_Node000003_Node000007" class="edge">
<title>Node7&#45;&gt;Node3</title>
<g id="a_edge6_Node000003_Node000007"><a xlink:title=" ">
<path fill="none" stroke="#63b8ff" d="M284.24,-450.26C282.02,-421.19 279.97,-370.56 287.5,-328 287.84,-326.08 288.21,-324.16 288.61,-322.22"/>
<polygon fill="none" stroke="#63b8ff" points="288.66,-321.97 286.11,-315.23 291.36,-310.28 293.91,-317.03 288.66,-321.97"/>
</a>
</g>
<text text-anchor="middle" x="316" y="-342" font-family="Helvetica,sans-Serif" font-size="10.00" fill="grey"> &#45;cellsIndex</text>
<text text-anchor="middle" x="316" y="-331" font-family="Helvetica,sans-Serif" font-size="10.00" fill="grey">&#45;viewIndex</text>
</g>
<!-- Node8 -->
<g id="Node000008" class="node">
<title>Node8</title>
<g id="a_Node000008"><a xlink:title=" ">
<polygon fill="white" stroke="transparent" points="412.5,-499.5 320.5,-499.5 320.5,-450.5 412.5,-450.5 412.5,-499.5"/>
<text text-anchor="start" x="325.5" y="-487" font-family="Helvetica,sans-Serif" font-size="10.00">vector&lt; size_t &gt;</text>
<text text-anchor="start" x="364.5" y="-472" font-family="Helvetica,sans-Serif" font-size="10.00"> </text>
<text text-anchor="start" x="364.5" y="-457" font-family="Helvetica,sans-Serif" font-size="10.00"> </text>
<polygon fill="#666666" stroke="#666666" points="320.5,-482 320.5,-482 412.5,-482 412.5,-482 320.5,-482"/>
<polygon fill="#666666" stroke="#666666" points="320.5,-467 320.5,-467 412.5,-467 412.5,-467 320.5,-467"/>
<polygon fill="none" stroke="#666666" points="320.5,-450.5 320.5,-499.5 412.5,-499.5 412.5,-450.5 320.5,-450.5"/>
</a>
</g>
</g>
<!-- Node8&#45;&gt;Node3 -->
<g id="edge7_Node000003_Node000008" class="edge">
<title>Node8&#45;&gt;Node3</title>
<g id="a_edge7_Node000003_Node000008"><a xlink:title=" ">
<path fill="none" stroke="#63b8ff" d="M363.06,-450.47C358.81,-421.6 351.32,-371.17 344.5,-328 344.2,-326.1 343.9,-324.19 343.59,-322.26"/>
<polygon fill="none" stroke="#63b8ff" points="343.57,-322.13 338.67,-316.83 341.67,-310.28 346.57,-315.57 343.57,-322.13"/>
</a>
</g>
<text text-anchor="middle" x="410" y="-336.5" font-family="Helvetica,sans-Serif" font-size="10.00" fill="grey"> &#45;m_selectedCellsIndexes</text>
</g>
<!-- Node9 -->
<g id="Node000009" class="node">
<title>Node9</title>
<g id="a_Node000009"><a xlink:title=" ">
<polygon fill="white" stroke="transparent" points="595.5,-499.5 433.5,-499.5 433.5,-450.5 595.5,-450.5 595.5,-499.5"/>
<text text-anchor="start" x="438.5" y="-487" font-family="Helvetica,sans-Serif" font-size="10.00">vector&lt; ClipboardInterface * &gt;</text>
<text text-anchor="start" x="512.5" y="-472" font-family="Helvetica,sans-Serif" font-size="10.00"> </text>
<text text-anchor="start" x="512.5" y="-457" font-family="Helvetica,sans-Serif" font-size="10.00"> </text>
<polygon fill="#666666" stroke="#666666" points="433.5,-482 433.5,-482 595.5,-482 595.5,-482 433.5,-482"/>
<polygon fill="#666666" stroke="#666666" points="433.5,-467 433.5,-467 595.5,-467 595.5,-467 433.5,-467"/>
<polygon fill="none" stroke="#666666" points="433.5,-450.5 433.5,-499.5 595.5,-499.5 595.5,-450.5 433.5,-450.5"/>
</a>
</g>
</g>
<!-- Node9&#45;&gt;Node3 -->
<g id="edge8_Node000003_Node000009" class="edge">
<title>Node9&#45;&gt;Node3</title>
<g id="a_edge8_Node000003_Node000009"><a xlink:title=" ">
<path fill="none" stroke="#63b8ff" d="M513.2,-450.25C510.5,-419.57 502.18,-365.65 476.5,-328 458.57,-301.7 432.11,-279.46 406.39,-262.06"/>
<polygon fill="none" stroke="#63b8ff" points="406.25,-261.97 399.03,-262.03 396.21,-255.39 403.42,-255.33 406.25,-261.97"/>
</a>
</g>
<text text-anchor="middle" x="556" y="-336.5" font-family="Helvetica,sans-Serif" font-size="10.00" fill="grey"> &#45;m_memoryCellsShortCuts</text>
</g>
</g>
</svg>
