<?xml version="1.0" encoding="UTF-8" standalone="no"?>
<!DOCTYPE svg PUBLIC "-//W3C//DTD SVG 1.1//EN"
 "http://www.w3.org/Graphics/SVG/1.1/DTD/svg11.dtd">
<!-- Generated by graphviz version 2.43.0 (0)
 -->
<!-- Title: ElementShortcuts Pages: 1 -->
<!--zoomable 757 -->

<svg id="main" version="1.1" xmlns="http://www.w3.org/2000/svg" xmlns:xlink="http://www.w3.org/1999/xlink" xml:space="preserve" onload="init(evt)">
<style type="text/css"><![CDATA[
.node, .edge {opacity: 0.7;}
.node.selected, .edge.selected {opacity: 1;}
.edge:hover path { stroke: red; }
.edge:hover polygon { stroke: red; fill: red; }
]]></style>

<defs>
  <circle id="rim" cx="0" cy="0" r="7"/>
  <circle id="rim2" cx="0" cy="0" r="3.5"/>
  <g id="zoomPlus">
    <use xlink:href="#rim" fill="#404040"><set attributeName="fill" to="#808080" begin="zoomplus.mouseover" end="zoomplus.mouseout"/></use>
    <path d="M-4,0h8M0,-4v8" fill="none" stroke="white" stroke-width="1.5" pointer-events="none"/>
  </g>
  <g id="zoomMin">
    <use xlink:href="#rim" fill="#404040"><set attributeName="fill" to="#808080" begin="zoomminus.mouseover" end="zoomminus.mouseout"/></use>
    <path d="M-4,0h8" fill="none" stroke="white" stroke-width="1.5" pointer-events="none"/>
  </g>
  <g id="arrowUp" transform="translate(30 24)">
    <use xlink:href="#rim"/>
    <path pointer-events="none" fill="none" stroke="white" stroke-width="1.5" d="M0,-3.0v7 M-2.5,-0.5L0,-3.0L2.5,-0.5"/>
  </g>
  <g id="arrowRight" transform="rotate(90) translate(36 -43)">
    <use xlink:href="#rim"/>
    <path pointer-events="none" fill="none" stroke="white" stroke-width="1.5" d="M0,-3.0v7 M-2.5,-0.5L0,-3.0L2.5,-0.5"/>
  </g>
  <g id="arrowDown" transform="rotate(180) translate(-30 -48)">
    <use xlink:href="#rim"/>
    <path pointer-events="none" fill="none" stroke="white" stroke-width="1.5" d="M0,-3.0v7 M-2.5,-0.5L0,-3.0L2.5,-0.5"/>
  </g>
  <g id="arrowLeft" transform="rotate(270) translate(-36 17)">
    <use xlink:href="#rim"/>
    <path pointer-events="none" fill="none" stroke="white" stroke-width="1.5" d="M0,-3.0v7 M-2.5,-0.5L0,-3.0L2.5,-0.5"/>
  </g>
  <g id="resetDef">
    <use xlink:href="#rim2" fill="#404040"><set attributeName="fill" to="#808080" begin="reset.mouseover" end="reset.mouseout"/></use>
  </g>
</defs>
<script type="application/ecmascript">
var viewWidth = 632;
var viewHeight = 757;
var sectionId = 'dynsection-1';
</script>
<script type="application/ecmascript" xlink:href="svg.min.js"/>
<svg id="graph" class="graph">
<g id="viewport">
<title>ElementShortcuts</title>
<!-- Node1 -->
<g id="Node000001" class="node">
<title>Node1</title>
<g id="a_Node000001"><a xlink:title=" ">
<polygon fill="#999999" stroke="transparent" points="249.5,-139 125.5,-139 125.5,0 249.5,0 249.5,-139"/>
<text text-anchor="start" x="144" y="-126.5" font-family="Helvetica,sans-Serif" font-size="10.00">ElementShortcuts</text>
<text text-anchor="start" x="185.5" y="-111.5" font-family="Helvetica,sans-Serif" font-size="10.00"> </text>
<text text-anchor="start" x="129.5" y="-96.5" font-family="Helvetica,sans-Serif" font-size="10.00">+</text>
<text text-anchor="start" x="142.5" y="-96.5" font-family="Helvetica,sans-Serif" font-size="10.00">ElementShortcuts()</text>
<text text-anchor="start" x="129.5" y="-81.5" font-family="Helvetica,sans-Serif" font-size="10.00">+</text>
<text text-anchor="start" x="142.5" y="-81.5" font-family="Helvetica,sans-Serif" font-size="10.00">~ElementShortcuts()</text>
<text text-anchor="start" x="129.5" y="-66.5" font-family="Helvetica,sans-Serif" font-size="10.00">+</text>
<text text-anchor="start" x="142.5" y="-66.5" font-family="Helvetica,sans-Serif" font-size="10.00">OnChildAdd()</text>
<text text-anchor="start" x="129.5" y="-51.5" font-family="Helvetica,sans-Serif" font-size="10.00">+</text>
<text text-anchor="start" x="142.5" y="-51.5" font-family="Helvetica,sans-Serif" font-size="10.00">OnChildRemove()</text>
<text text-anchor="start" x="129.5" y="-36.5" font-family="Helvetica,sans-Serif" font-size="10.00">+</text>
<text text-anchor="start" x="142.5" y="-36.5" font-family="Helvetica,sans-Serif" font-size="10.00">ProcessEvent()</text>
<text text-anchor="start" x="129.5" y="-21.5" font-family="Helvetica,sans-Serif" font-size="10.00">#</text>
<text text-anchor="start" x="142.5" y="-21.5" font-family="Helvetica,sans-Serif" font-size="10.00">OnUpdate()</text>
<text text-anchor="start" x="129.5" y="-6.5" font-family="Helvetica,sans-Serif" font-size="10.00">#</text>
<text text-anchor="start" x="142.5" y="-6.5" font-family="Helvetica,sans-Serif" font-size="10.00">OnRender()</text>
<polygon fill="#666666" stroke="#666666" points="125.5,-121.5 125.5,-121.5 249.5,-121.5 249.5,-121.5 125.5,-121.5"/>
<polygon fill="#666666" stroke="#666666" points="125.5,-106.5 125.5,-106.5 249.5,-106.5 249.5,-106.5 125.5,-106.5"/>
<polygon fill="none" stroke="#666666" points="125.5,0 125.5,-139 249.5,-139 249.5,0 125.5,0"/>
</a>
</g>
</g>
<!-- Node2 -->
<g id="Node000002" class="node">
<title>Node2</title>
<g id="a_Node000002"><a xlink:title=" ">
<polygon fill="white" stroke="transparent" points="118,-302.5 41,-302.5 41,-253.5 118,-253.5 118,-302.5"/>
<text text-anchor="start" x="46.5" y="-290" font-family="Helvetica,sans-Serif" font-size="10.00">Rml::Element</text>
<text text-anchor="start" x="78" y="-275" font-family="Helvetica,sans-Serif" font-size="10.00"> </text>
<text text-anchor="start" x="78" y="-260" font-family="Helvetica,sans-Serif" font-size="10.00"> </text>
<polygon fill="#666666" stroke="#666666" points="41.5,-285 41.5,-285 118.5,-285 118.5,-285 41.5,-285"/>
<polygon fill="#666666" stroke="#666666" points="41.5,-270 41.5,-270 118.5,-270 118.5,-270 41.5,-270"/>
<polygon fill="none" stroke="#666666" points="41,-253.5 41,-302.5 118,-302.5 118,-253.5 41,-253.5"/>
</a>
</g>
</g>
<!-- Node2&#45;&gt;Node1 -->
<g id="edge1_Node000001_Node000002" class="edge">
<title>Node2&#45;&gt;Node1</title>
<g id="a_edge1_Node000001_Node000002"><a xlink:title=" ">
<path fill="none" stroke="#63b8ff" d="M96.32,-244.25C105.25,-226.92 116.43,-205.28 126.5,-186 134.43,-170.82 142.98,-154.55 151.11,-139.15"/>
<polygon fill="none" stroke="#63b8ff" points="93.08,-242.91 91.61,-253.4 99.3,-246.11 93.08,-242.91"/>
</a>
</g>
</g>
<!-- Node3 -->
<g id="Node000003" class="node">
<title>Node3</title>
<g id="a_Node000003"><a xlink:title=" ">
<polygon fill="white" stroke="transparent" points="239,-302.5 136,-302.5 136,-253.5 239,-253.5 239,-302.5"/>
<text text-anchor="start" x="141.5" y="-290" font-family="Helvetica,sans-Serif" font-size="10.00">Rml::EventListener</text>
<text text-anchor="start" x="186" y="-275" font-family="Helvetica,sans-Serif" font-size="10.00"> </text>
<text text-anchor="start" x="186" y="-260" font-family="Helvetica,sans-Serif" font-size="10.00"> </text>
<polygon fill="#666666" stroke="#666666" points="136.5,-285 136.5,-285 239.5,-285 239.5,-285 136.5,-285"/>
<polygon fill="#666666" stroke="#666666" points="136.5,-270 136.5,-270 239.5,-270 239.5,-270 136.5,-270"/>
<polygon fill="none" stroke="#666666" points="136,-253.5 136,-302.5 239,-302.5 239,-253.5 136,-253.5"/>
</a>
</g>
</g>
<!-- Node3&#45;&gt;Node1 -->
<g id="edge2_Node000001_Node000003" class="edge">
<title>Node3&#45;&gt;Node1</title>
<g id="a_edge2_Node000001_Node000003"><a xlink:title=" ">
<path fill="none" stroke="#63b8ff" d="M187.5,-243.21C187.5,-215.12 187.5,-174.23 187.5,-139.29"/>
<polygon fill="none" stroke="#63b8ff" points="184,-243.31 187.5,-253.31 191,-243.31 184,-243.31"/>
</a>
</g>
</g>
<!-- Node4 -->
<g id="Node000004" class="node">
<title>Node4</title>
<g id="a_Node000004"><a xlink:href="classShortCutsViewModel.html" target="_top" xlink:title=" ">
<polygon fill="white" stroke="transparent" points="396,-370 257,-370 257,-186 396,-186 396,-370"/>
<text text-anchor="start" x="276" y="-358" font-family="Helvetica,sans-Serif" font-size="10.00">ShortCutsViewModel</text>
<text text-anchor="start" x="325" y="-343" font-family="Helvetica,sans-Serif" font-size="10.00"> </text>
<text text-anchor="start" x="261.5" y="-328" font-family="Helvetica,sans-Serif" font-size="10.00">+</text>
<text text-anchor="start" x="274.5" y="-328" font-family="Helvetica,sans-Serif" font-size="10.00">updateList()</text>
<text text-anchor="start" x="261.5" y="-313" font-family="Helvetica,sans-Serif" font-size="10.00">+</text>
<text text-anchor="start" x="274.5" y="-313" font-family="Helvetica,sans-Serif" font-size="10.00">moveUpIndex()</text>
<text text-anchor="start" x="261.5" y="-298" font-family="Helvetica,sans-Serif" font-size="10.00">+</text>
<text text-anchor="start" x="274.5" y="-298" font-family="Helvetica,sans-Serif" font-size="10.00">moveDownIndex()</text>
<text text-anchor="start" x="261.5" y="-283" font-family="Helvetica,sans-Serif" font-size="10.00">+</text>
<text text-anchor="start" x="274.5" y="-283" font-family="Helvetica,sans-Serif" font-size="10.00">getMemoryCell()</text>
<text text-anchor="start" x="261.5" y="-268" font-family="Helvetica,sans-Serif" font-size="10.00">+</text>
<text text-anchor="start" x="274.5" y="-268" font-family="Helvetica,sans-Serif" font-size="10.00">getSelectedCell()</text>
<text text-anchor="start" x="261.5" y="-253" font-family="Helvetica,sans-Serif" font-size="10.00">+</text>
<text text-anchor="start" x="274.5" y="-253" font-family="Helvetica,sans-Serif" font-size="10.00">hasSelectedCell()</text>
<text text-anchor="start" x="261.5" y="-238" font-family="Helvetica,sans-Serif" font-size="10.00">+</text>
<text text-anchor="start" x="274.5" y="-238" font-family="Helvetica,sans-Serif" font-size="10.00">getSelectedCellIndex()</text>
<text text-anchor="start" x="261.5" y="-223" font-family="Helvetica,sans-Serif" font-size="10.00">+</text>
<text text-anchor="start" x="274.5" y="-223" font-family="Helvetica,sans-Serif" font-size="10.00">Instance()</text>
<text text-anchor="start" x="261.5" y="-208" font-family="Helvetica,sans-Serif" font-size="10.00">#</text>
<text text-anchor="start" x="274.5" y="-208" font-family="Helvetica,sans-Serif" font-size="10.00">ShortCutsViewModel()</text>
<text text-anchor="start" x="261.5" y="-193" font-family="Helvetica,sans-Serif" font-size="10.00">#</text>
<text text-anchor="start" x="274.5" y="-193" font-family="Helvetica,sans-Serif" font-size="10.00">~ShortCutsViewModel()</text>
<polygon fill="#666666" stroke="#666666" points="257.5,-353 257.5,-353 396.5,-353 396.5,-353 257.5,-353"/>
<polygon fill="#666666" stroke="#666666" points="257.5,-338 257.5,-338 396.5,-338 396.5,-338 257.5,-338"/>
<polygon fill="none" stroke="#666666" points="257,-186 257,-370 396,-370 396,-186 257,-186"/>
</a>
</g>
</g>
<!-- Node4&#45;&gt;Node1 -->
<g id="edge3_Node000001_Node000004" class="edge">
<title>Node4&#45;&gt;Node1</title>
<g id="a_edge3_Node000001_Node000004"><a xlink:title=" ">
<path fill="none" stroke="#63b8ff" d="M265.13,-185.82C256.97,-173.71 248.66,-161.37 240.66,-149.48"/>
<polygon fill="none" stroke="#63b8ff" points="240.42,-149.12 233.75,-146.38 233.72,-139.17 240.39,-141.91 240.42,-149.12"/>
</a>
</g>
<text text-anchor="middle" x="282.5" y="-160" font-family="Helvetica,sans-Serif" font-size="10.00" fill="grey"> &#45;viewModel</text>
</g>
<!-- Node5 -->
<g id="Node000005" class="node">
<title>Node5</title>
<g id="a_Node000005"><a xlink:href="classMemoryCellManager.html" target="_top" xlink:title=" ">
<polygon fill="white" stroke="transparent" points="207.5,-642 59.5,-642 59.5,-428 207.5,-428 207.5,-642"/>
<text text-anchor="start" x="82" y="-630" font-family="Helvetica,sans-Serif" font-size="10.00">MemoryCellManager</text>
<text text-anchor="start" x="131.5" y="-615" font-family="Helvetica,sans-Serif" font-size="10.00"> </text>
<text text-anchor="start" x="63.5" y="-600" font-family="Helvetica,sans-Serif" font-size="10.00">+</text>
<text text-anchor="start" x="76.5" y="-600" font-family="Helvetica,sans-Serif" font-size="10.00">getMemoryCellCount()</text>
<text text-anchor="start" x="63.5" y="-585" font-family="Helvetica,sans-Serif" font-size="10.00">+</text>
<text text-anchor="start" x="76.5" y="-585" font-family="Helvetica,sans-Serif" font-size="10.00">getMemoryCell()</text>
<text text-anchor="start" x="63.5" y="-570" font-family="Helvetica,sans-Serif" font-size="10.00">+</text>
<text text-anchor="start" x="76.5" y="-570" font-family="Helvetica,sans-Serif" font-size="10.00">addMemoryCell()</text>
<text text-anchor="start" x="63.5" y="-555" font-family="Helvetica,sans-Serif" font-size="10.00">+</text>
<text text-anchor="start" x="76.5" y="-555" font-family="Helvetica,sans-Serif" font-size="10.00">initialize()</text>
<text text-anchor="start" x="63.5" y="-540" font-family="Helvetica,sans-Serif" font-size="10.00">+</text>
<text text-anchor="start" x="76.5" y="-540" font-family="Helvetica,sans-Serif" font-size="10.00">cleanup()</text>
<text text-anchor="start" x="63.5" y="-525" font-family="Helvetica,sans-Serif" font-size="10.00">+</text>
<text text-anchor="start" x="76.5" y="-525" font-family="Helvetica,sans-Serif" font-size="10.00">setSelectedCell()</text>
<text text-anchor="start" x="63.5" y="-510" font-family="Helvetica,sans-Serif" font-size="10.00">+</text>
<text text-anchor="start" x="76.5" y="-510" font-family="Helvetica,sans-Serif" font-size="10.00">getSelectedCell()</text>
<text text-anchor="start" x="63.5" y="-495" font-family="Helvetica,sans-Serif" font-size="10.00">+</text>
<text text-anchor="start" x="76.5" y="-495" font-family="Helvetica,sans-Serif" font-size="10.00">loadCells()</text>
<text text-anchor="start" x="63.5" y="-480" font-family="Helvetica,sans-Serif" font-size="10.00">+</text>
<text text-anchor="start" x="76.5" y="-480" font-family="Helvetica,sans-Serif" font-size="10.00">getContents()</text>
<text text-anchor="start" x="63.5" y="-465" font-family="Helvetica,sans-Serif" font-size="10.00">+</text>
<text text-anchor="start" x="76.5" y="-465" font-family="Helvetica,sans-Serif" font-size="10.00">moveContentsOneDown()</text>
<text text-anchor="start" x="63.5" y="-450" font-family="Helvetica,sans-Serif" font-size="10.00">+</text>
<text text-anchor="start" x="76.5" y="-450" font-family="Helvetica,sans-Serif" font-size="10.00">Instance()</text>
<text text-anchor="start" x="63.5" y="-435" font-family="Helvetica,sans-Serif" font-size="10.00">#</text>
<text text-anchor="start" x="76.5" y="-435" font-family="Helvetica,sans-Serif" font-size="10.00">MemoryCellManager()</text>
<polygon fill="#666666" stroke="#666666" points="59.5,-625 59.5,-625 207.5,-625 207.5,-625 59.5,-625"/>
<polygon fill="#666666" stroke="#666666" points="59.5,-610 59.5,-610 207.5,-610 207.5,-610 59.5,-610"/>
<polygon fill="none" stroke="#666666" points="59.5,-428 59.5,-642 207.5,-642 207.5,-428 59.5,-428"/>
</a>
</g>
</g>
<!-- Node5&#45;&gt;Node4 -->
<g id="edge4_Node000004_Node000005" class="edge">
<title>Node5&#45;&gt;Node4</title>
<g id="a_edge4_Node000004_Node000005"><a xlink:title=" ">
<path fill="none" stroke="#63b8ff" d="M129.73,-427.96C133.54,-413.13 140.04,-399.18 150.5,-388 178.34,-358.26 205.41,-386.69 246.05,-370.04"/>
<polygon fill="none" stroke="#63b8ff" points="246.24,-369.95 249.83,-363.69 256.99,-364.6 253.4,-370.86 246.24,-369.95"/>
</a>
</g>
<text text-anchor="middle" x="215.5" y="-396.5" font-family="Helvetica,sans-Serif" font-size="10.00" fill="grey"> &#45;m_memoryCellsManager</text>
</g>
<!-- Node6 -->
<g id="Node000006" class="node">
<title>Node6</title>
<g id="a_Node000006"><a xlink:title=" ">
<polygon fill="white" stroke="transparent" points="153,-749 0,-749 0,-689 153,-689 153,-749"/>
<text text-anchor="start" x="5.5" y="-737" font-family="Helvetica,sans-Serif" font-size="10.00">vector&lt; std::unique</text>
<text text-anchor="start" x="5.5" y="-726" font-family="Helvetica,sans-Serif" font-size="10.00">_ptr&lt; ClipboardInterface &gt; &gt;</text>
<text text-anchor="start" x="75" y="-711" font-family="Helvetica,sans-Serif" font-size="10.00"> </text>
<text text-anchor="start" x="75" y="-696" font-family="Helvetica,sans-Serif" font-size="10.00"> </text>
<polygon fill="#666666" stroke="#666666" points="0.5,-721 0.5,-721 153.5,-721 153.5,-721 0.5,-721"/>
<polygon fill="#666666" stroke="#666666" points="0.5,-706 0.5,-706 153.5,-706 153.5,-706 0.5,-706"/>
<polygon fill="none" stroke="#666666" points="0,-689 0,-749 153,-749 153,-689 0,-689"/>
</a>
</g>
</g>
<!-- Node6&#45;&gt;Node5 -->
<g id="edge5_Node000005_Node000006" class="edge">
<title>Node6&#45;&gt;Node5</title>
<g id="a_edge5_Node000005_Node000006"><a xlink:title=" ">
<path fill="none" stroke="#63b8ff" d="M76.61,-688.8C77.15,-679.49 78.28,-669.22 80.5,-660 80.99,-657.97 81.51,-655.92 82.06,-653.87"/>
<polygon fill="none" stroke="#63b8ff" points="82.13,-653.62 79.97,-646.74 85.48,-642.09 87.65,-648.97 82.13,-653.62"/>
</a>
</g>
<text text-anchor="middle" x="124.5" y="-663" font-family="Helvetica,sans-Serif" font-size="10.00" fill="grey"> &#45;m_memoryCells</text>
</g>
<!-- Node7 -->
<g id="Node000007" class="node">
<title>Node7</title>
<g id="a_Node000007"><a xlink:title=" ">
<polygon fill="white" stroke="transparent" points="210,-743.5 171,-743.5 171,-694.5 210,-694.5 210,-743.5"/>
<text text-anchor="start" x="176.5" y="-731" font-family="Helvetica,sans-Serif" font-size="10.00">size_t</text>
<text text-anchor="start" x="189" y="-716" font-family="Helvetica,sans-Serif" font-size="10.00"> </text>
<text text-anchor="start" x="189" y="-701" font-family="Helvetica,sans-Serif" font-size="10.00"> </text>
<polygon fill="#666666" stroke="#666666" points="171.5,-726 171.5,-726 210.5,-726 210.5,-726 171.5,-726"/>
<polygon fill="#666666" stroke="#666666" points="171.5,-711 171.5,-711 210.5,-711 210.5,-711 171.5,-711"/>
<polygon fill="none" stroke="#666666" points="171,-694.5 171,-743.5 210,-743.5 210,-694.5 171,-694.5"/>
</a>
</g>
</g>
<!-- Node7&#45;&gt;Node5 -->
<g id="edge6_Node000005_Node000007" class="edge">
<title>Node7&#45;&gt;Node5</title>
<g id="a_edge6_Node000005_Node000007"><a xlink:title=" ">
<path fill="none" stroke="#63b8ff" d="M183.05,-694.21C179.59,-683.15 175.19,-669.1 170.44,-653.96"/>
<polygon fill="none" stroke="#63b8ff" points="170.35,-653.65 164.74,-649.12 166.76,-642.2 172.37,-646.73 170.35,-653.65"/>
</a>
</g>
<text text-anchor="middle" x="209" y="-663" font-family="Helvetica,sans-Serif" font-size="10.00" fill="grey"> &#45;selectedCell</text>
</g>
<!-- Node8 -->
<g id="Node000008" class="node">
<title>Node8</title>
<g id="a_Node000008"><a xlink:title=" ">
<polygon fill="white" stroke="transparent" points="298,-559.5 275,-559.5 275,-510.5 298,-510.5 298,-559.5"/>
<text text-anchor="start" x="280.5" y="-547" font-family="Helvetica,sans-Serif" font-size="10.00">int</text>
<text text-anchor="start" x="285" y="-532" font-family="Helvetica,sans-Serif" font-size="10.00"> </text>
<text text-anchor="start" x="285" y="-517" font-family="Helvetica,sans-Serif" font-size="10.00"> </text>
<polygon fill="#666666" stroke="#666666" points="275.5,-542 275.5,-542 298.5,-542 298.5,-542 275.5,-542"/>
<polygon fill="#666666" stroke="#666666" points="275.5,-527 275.5,-527 298.5,-527 298.5,-527 275.5,-527"/>
<polygon fill="none" stroke="#666666" points="275,-510.5 275,-559.5 298,-559.5 298,-510.5 275,-510.5"/>
</a>
</g>
</g>
<!-- Node8&#45;&gt;Node4 -->
<g id="edge7_Node000004_Node000008" class="edge">
<title>Node8&#45;&gt;Node4</title>
<g id="a_edge7_Node000004_Node000008"><a xlink:title=" ">
<path fill="none" stroke="#63b8ff" d="M284.24,-510.26C282.02,-481.19 279.97,-430.56 287.5,-388 287.84,-386.08 288.21,-384.16 288.61,-382.22"/>
<polygon fill="none" stroke="#63b8ff" points="288.66,-381.97 286.11,-375.23 291.36,-370.28 293.91,-377.03 288.66,-381.97"/>
</a>
</g>
<text text-anchor="middle" x="316" y="-402" font-family="Helvetica,sans-Serif" font-size="10.00" fill="grey"> &#45;cellsIndex</text>
<text text-anchor="middle" x="316" y="-391" font-family="Helvetica,sans-Serif" font-size="10.00" fill="grey">&#45;viewIndex</text>
</g>
<!-- Node9 -->
<g id="Node000009" class="node">
<title>Node9</title>
<g id="a_Node000009"><a xlink:title=" ">
<polygon fill="white" stroke="transparent" points="412.5,-559.5 320.5,-559.5 320.5,-510.5 412.5,-510.5 412.5,-559.5"/>
<text text-anchor="start" x="325.5" y="-547" font-family="Helvetica,sans-Serif" font-size="10.00">vector&lt; size_t &gt;</text>
<text text-anchor="start" x="364.5" y="-532" font-family="Helvetica,sans-Serif" font-size="10.00"> </text>
<text text-anchor="start" x="364.5" y="-517" font-family="Helvetica,sans-Serif" font-size="10.00"> </text>
<polygon fill="#666666" stroke="#666666" points="320.5,-542 320.5,-542 412.5,-542 412.5,-542 320.5,-542"/>
<polygon fill="#666666" stroke="#666666" points="320.5,-527 320.5,-527 412.5,-527 412.5,-527 320.5,-527"/>
<polygon fill="none" stroke="#666666" points="320.5,-510.5 320.5,-559.5 412.5,-559.5 412.5,-510.5 320.5,-510.5"/>
</a>
</g>
</g>
<!-- Node9&#45;&gt;Node4 -->
<g id="edge8_Node000004_Node000009" class="edge">
<title>Node9&#45;&gt;Node4</title>
<g id="a_edge8_Node000004_Node000009"><a xlink:title=" ">
<path fill="none" stroke="#63b8ff" d="M363.06,-510.47C358.81,-481.6 351.32,-431.17 344.5,-388 344.2,-386.1 343.9,-384.19 343.59,-382.26"/>
<polygon fill="none" stroke="#63b8ff" points="343.57,-382.13 338.67,-376.83 341.67,-370.28 346.57,-375.57 343.57,-382.13"/>
</a>
</g>
<text text-anchor="middle" x="410" y="-396.5" font-family="Helvetica,sans-Serif" font-size="10.00" fill="grey"> &#45;m_selectedCellsIndexes</text>
</g>
<!-- Node10 -->
<g id="Node000010" class="node">
<title>Node10</title>
<g id="a_Node000010"><a xlink:title=" ">
<polygon fill="white" stroke="transparent" points="595.5,-559.5 433.5,-559.5 433.5,-510.5 595.5,-510.5 595.5,-559.5"/>
<text text-anchor="start" x="438.5" y="-547" font-family="Helvetica,sans-Serif" font-size="10.00">vector&lt; ClipboardInterface * &gt;</text>
<text text-anchor="start" x="512.5" y="-532" font-family="Helvetica,sans-Serif" font-size="10.00"> </text>
<text text-anchor="start" x="512.5" y="-517" font-family="Helvetica,sans-Serif" font-size="10.00"> </text>
<polygon fill="#666666" stroke="#666666" points="433.5,-542 433.5,-542 595.5,-542 595.5,-542 433.5,-542"/>
<polygon fill="#666666" stroke="#666666" points="433.5,-527 433.5,-527 595.5,-527 595.5,-527 433.5,-527"/>
<polygon fill="none" stroke="#666666" points="433.5,-510.5 433.5,-559.5 595.5,-559.5 595.5,-510.5 433.5,-510.5"/>
</a>
</g>
</g>
<!-- Node10&#45;&gt;Node4 -->
<g id="edge9_Node000004_Node000010" class="edge">
<title>Node10&#45;&gt;Node4</title>
<g id="a_edge9_Node000004_Node000010"><a xlink:title=" ">
<path fill="none" stroke="#63b8ff" d="M513.2,-510.25C510.5,-479.57 502.18,-425.65 476.5,-388 458.57,-361.7 432.11,-339.46 406.39,-322.06"/>
<polygon fill="none" stroke="#63b8ff" points="406.25,-321.97 399.03,-322.03 396.21,-315.39 403.42,-315.33 406.25,-321.97"/>
</a>
</g>
<text text-anchor="middle" x="556" y="-396.5" font-family="Helvetica,sans-Serif" font-size="10.00" fill="grey"> &#45;m_memoryCellsShortCuts</text>
</g>
</g>
</svg>

<g id="navigator" transform="translate(0 0)" fill="#404254">
  <rect fill="#f2f5e9" fill-opacity="0.5" stroke="#606060" stroke-width=".5" x="0" y="0" width="60" height="60"/>
  <use id="zoomplus" xlink:href="#zoomPlus" x="17" y="9" onmousedown="handleZoom(evt,'in')"/>
  <use id="zoomminus" xlink:href="#zoomMin" x="42" y="9" onmousedown="handleZoom(evt,'out')"/>
  <use id="reset" xlink:href="#resetDef" x="30" y="36" onmousedown="handleReset()"/>
   <use id="arrowup" xlink:href="#arrowUp" x="0" y="0" onmousedown="handlePan(0,-1)"/>
  <use id="arrowright" xlink:href="#arrowRight" x="0" y="0" onmousedown="handlePan(1,0)"/>
  <use id="arrowdown" xlink:href="#arrowDown" x="0" y="0" onmousedown="handlePan(0,1)"/>
  <use id="arrowleft" xlink:href="#arrowLeft" x="0" y="0" onmousedown="handlePan(-1,0)"/>
</g>
<svg viewBox="0 0 15 15" width="100%" height="30px" preserveAspectRatio="xMaxYMin meet">
 <g id="arrow_out" transform="scale(0.3 0.3)">
  <a xlink:href="classElementShortcuts__coll__graph_org.svg" target="_base">
   <rect id="button" ry="5" rx="5" y="6" x="6" height="38" width="38"
        fill="#f2f5e9" fill-opacity="0.5" stroke="#606060" stroke-width="1.0"/>
   <path id="arrow"
     d="M 11.500037,31.436501 C 11.940474,20.09759 22.043105,11.32322 32.158766,21.979434 L 37.068811,17.246167 C 37.068811,17.246167 37.088388,32 37.088388,32 L 22.160133,31.978069 C 22.160133,31.978069 26.997745,27.140456 26.997745,27.140456 C 18.528582,18.264221 13.291696,25.230495 11.500037,31.436501 z"
     style="fill:#404040;"/>
  </a>
 </g>
</svg>

<style type='text/css'>
<![CDATA[
[data-mouse-over-selected='false'] { opacity: 0.7; }
[data-mouse-over-selected='true']  { opacity: 1.0; }
]]>
</style>
<script type="application/ecmascript"><![CDATA[
document.addEventListener('DOMContentLoaded', (event) => {
  highlightEdges();
  highlightAdjacentNodes();
});
]]></script>
</svg>
