<?xml version="1.0" encoding="UTF-8" standalone="no"?>
<!DOCTYPE svg PUBLIC "-//W3C//DTD SVG 1.1//EN"
 "http://www.w3.org/Graphics/SVG/1.1/DTD/svg11.dtd">
<!-- Generated by graphviz version 2.43.0 (0)
 -->
<!-- Title: Clipboard++/ClipboardXX.cpp Pages: 1 -->
<svg width="2208pt" height="489pt"
 viewBox="0.00 0.00 2208.31 489.00" xmlns="http://www.w3.org/2000/svg" xmlns:xlink="http://www.w3.org/1999/xlink">
<g id="graph0" class="graph" transform="scale(1 1) rotate(0) translate(4 485)">
<title>Clipboard++/ClipboardXX.cpp</title>
<!-- Node1 -->
<g id="Node000001" class="node">
<title>Node1</title>
<g id="a_Node000001"><a xlink:title=" ">
<polygon fill="#999999" stroke="#666666" points="1590.5,-481 1427.5,-481 1427.5,-462 1590.5,-462 1590.5,-481"/>
<text text-anchor="middle" x="1509" y="-469" font-family="Helvetica,sans-Serif" font-size="10.00">Clipboard++/ClipboardXX.cpp</text>
</a>
</g>
</g>
<!-- Node2 -->
<g id="Node000002" class="node">
<title>Node2</title>
<g id="a_Node000002"><a xlink:href="ClipboardXX_8h.html" target="_top" xlink:title=" ">
<polygon fill="white" stroke="#666666" points="587,-420.5 501,-420.5 501,-401.5 587,-401.5 587,-420.5"/>
<text text-anchor="middle" x="544" y="-408.5" font-family="Helvetica,sans-Serif" font-size="10.00">ClipboardXX.h</text>
</a>
</g>
</g>
<!-- Node1&#45;&gt;Node2 -->
<g id="edge1_Node000001_Node000002" class="edge">
<title>Node1&#45;&gt;Node2</title>
<g id="a_edge1_Node000001_Node000002"><a xlink:title=" ">
<path fill="none" stroke="#63b8ff" d="M1427.14,-465.54C1234.54,-453.86 756.95,-424.91 597.09,-415.22"/>
<polygon fill="#63b8ff" stroke="#63b8ff" points="597.22,-411.72 587.03,-414.61 596.8,-418.71 597.22,-411.72"/>
</a>
</g>
</g>
<!-- Node24 -->
<g id="Node000024" class="node">
<title>Node24</title>
<g id="a_Node000024"><a xlink:href="MemoryCellManager_8h.html" target="_top" xlink:title=" ">
<polygon fill="white" stroke="#666666" points="1221,-239 1027,-239 1027,-220 1221,-220 1221,-239"/>
<text text-anchor="middle" x="1124" y="-227" font-family="Helvetica,sans-Serif" font-size="10.00">MemoryCells/MemoryCellManager.h</text>
</a>
</g>
</g>
<!-- Node1&#45;&gt;Node24 -->
<g id="edge58_Node000001_Node000024" class="edge">
<title>Node1&#45;&gt;Node24</title>
<g id="a_edge58_Node000001_Node000024"><a xlink:title=" ">
<path fill="none" stroke="#63b8ff" d="M1427.3,-463.1C1388.01,-457.03 1341.26,-446.02 1303,-426 1253.96,-400.34 1257.07,-373.12 1212,-341 1184.15,-321.16 1165.32,-331.74 1144,-305 1131.37,-289.16 1126.68,-266.02 1124.96,-249.75"/>
<polygon fill="#63b8ff" stroke="#63b8ff" points="1128.42,-249.01 1124.16,-239.31 1121.44,-249.55 1128.42,-249.01"/>
</a>
</g>
</g>
<!-- Node25 -->
<g id="Node000025" class="node">
<title>Node25</title>
<g id="a_Node000025"><a xlink:href="ClipboardAdapter_8h.html" target="_top" xlink:title=" ">
<polygon fill="white" stroke="#666666" points="1425,-184 1315,-184 1315,-165 1425,-165 1425,-184"/>
<text text-anchor="middle" x="1370" y="-172" font-family="Helvetica,sans-Serif" font-size="10.00">ClipboardAdapter.h</text>
</a>
</g>
</g>
<!-- Node1&#45;&gt;Node25 -->
<g id="edge57_Node000001_Node000025" class="edge">
<title>Node1&#45;&gt;Node25</title>
<g id="a_edge57_Node000001_Node000025"><a xlink:title=" ">
<path fill="none" stroke="#63b8ff" d="M1444.1,-461.93C1420.06,-455.66 1394.43,-444.8 1377,-426 1353.77,-400.94 1358,-385.67 1358,-351.5 1358,-351.5 1358,-351.5 1358,-289 1358,-255.42 1363.26,-216.56 1366.81,-194.13"/>
<polygon fill="#63b8ff" stroke="#63b8ff" points="1370.31,-194.45 1368.48,-184.01 1363.4,-193.31 1370.31,-194.45"/>
</a>
</g>
</g>
<!-- Node29 -->
<g id="Node000029" class="node">
<title>Node29</title>
<g id="a_Node000029"><a xlink:title=" ">
<polygon fill="#e0e0e0" stroke="#999999" points="1952.5,-420.5 1847.5,-420.5 1847.5,-401.5 1952.5,-401.5 1952.5,-420.5"/>
<text text-anchor="middle" x="1900" y="-408.5" font-family="Helvetica,sans-Serif" font-size="10.00">RmlUi/Debugger.h</text>
</a>
</g>
</g>
<!-- Node1&#45;&gt;Node29 -->
<g id="edge45_Node000001_Node000029" class="edge">
<title>Node1&#45;&gt;Node29</title>
<g id="a_edge45_Node000001_Node000029"><a xlink:title=" ">
<path fill="none" stroke="#63b8ff" d="M1586.41,-461.97C1653.27,-454.14 1752.35,-441.43 1838,-426 1843.43,-425.02 1849.1,-423.89 1854.72,-422.71"/>
<polygon fill="#63b8ff" stroke="#63b8ff" points="1855.67,-426.08 1864.7,-420.53 1854.18,-419.24 1855.67,-426.08"/>
</a>
</g>
</g>
<!-- Node30 -->
<g id="Node000030" class="node">
<title>Node30</title>
<g id="a_Node000030"><a xlink:href="RmlUi__Backend_8h.html" target="_top" xlink:title=" ">
<polygon fill="white" stroke="#666666" points="1761,-420.5 1659,-420.5 1659,-401.5 1761,-401.5 1761,-420.5"/>
<text text-anchor="middle" x="1710" y="-408.5" font-family="Helvetica,sans-Serif" font-size="10.00">RmlUi_Backend.h</text>
</a>
</g>
</g>
<!-- Node1&#45;&gt;Node30 -->
<g id="edge46_Node000001_Node000030" class="edge">
<title>Node1&#45;&gt;Node30</title>
<g id="a_edge46_Node000001_Node000030"><a xlink:title=" ">
<path fill="none" stroke="#63b8ff" d="M1538.23,-461.99C1573.21,-451.81 1631.93,-434.72 1670.82,-423.4"/>
<polygon fill="#63b8ff" stroke="#63b8ff" points="1672.11,-426.67 1680.74,-420.52 1670.16,-419.95 1672.11,-426.67"/>
</a>
</g>
</g>
<!-- Node34 -->
<g id="Node000034" class="node">
<title>Node34</title>
<g id="a_Node000034"><a xlink:href="Shell_8h.html" target="_top" xlink:title=" ">
<polygon fill="white" stroke="#666666" points="1829,-420.5 1779,-420.5 1779,-401.5 1829,-401.5 1829,-420.5"/>
<text text-anchor="middle" x="1804" y="-408.5" font-family="Helvetica,sans-Serif" font-size="10.00">Shell.h</text>
</a>
</g>
</g>
<!-- Node1&#45;&gt;Node34 -->
<g id="edge51_Node000001_Node000034" class="edge">
<title>Node1&#45;&gt;Node34</title>
<g id="a_edge51_Node000001_Node000034"><a xlink:title=" ">
<path fill="none" stroke="#63b8ff" d="M1585.66,-461.98C1638.21,-455.04 1709.14,-443.48 1770,-426 1771.89,-425.46 1773.81,-424.84 1775.74,-424.18"/>
<polygon fill="#63b8ff" stroke="#63b8ff" points="1777.08,-427.42 1785.2,-420.61 1774.61,-420.87 1777.08,-427.42"/>
</a>
</g>
</g>
<!-- Node36 -->
<g id="Node000036" class="node">
<title>Node36</title>
<g id="a_Node000036"><a xlink:title=" ">
<polygon fill="#e0e0e0" stroke="#999999" points="2027.5,-420.5 1970.5,-420.5 1970.5,-401.5 2027.5,-401.5 2027.5,-420.5"/>
<text text-anchor="middle" x="1999" y="-408.5" font-family="Helvetica,sans-Serif" font-size="10.00">QScreen</text>
</a>
</g>
</g>
<!-- Node1&#45;&gt;Node36 -->
<g id="edge55_Node000001_Node000036" class="edge">
<title>Node1&#45;&gt;Node36</title>
<g id="a_edge55_Node000001_Node000036"><a xlink:title=" ">
<path fill="none" stroke="#63b8ff" d="M1590.65,-468.93C1682.17,-465.69 1834.46,-455.84 1962,-426 1964.52,-425.41 1967.09,-424.69 1969.66,-423.9"/>
<polygon fill="#63b8ff" stroke="#63b8ff" points="1971.03,-427.12 1979.33,-420.54 1968.74,-420.51 1971.03,-427.12"/>
</a>
</g>
</g>
<!-- Node37 -->
<g id="Node000037" class="node">
<title>Node37</title>
<g id="a_Node000037"><a xlink:title=" ">
<polygon fill="#e0e0e0" stroke="#999999" points="2102,-420.5 2046,-420.5 2046,-401.5 2102,-401.5 2102,-420.5"/>
<text text-anchor="middle" x="2074" y="-408.5" font-family="Helvetica,sans-Serif" font-size="10.00">QLocale</text>
</a>
</g>
</g>
<!-- Node1&#45;&gt;Node37 -->
<g id="edge56_Node000001_Node000037" class="edge">
<title>Node1&#45;&gt;Node37</title>
<g id="a_edge56_Node000001_Node000037"><a xlink:title=" ">
<path fill="none" stroke="#63b8ff" d="M1590.57,-470.59C1695.23,-469.14 1881.79,-461.18 2037,-426 2039.52,-425.43 2042.1,-424.72 2044.66,-423.93"/>
<polygon fill="#63b8ff" stroke="#63b8ff" points="2046.03,-427.17 2054.34,-420.59 2043.75,-420.55 2046.03,-427.17"/>
</a>
</g>
</g>
<!-- Node38 -->
<g id="Node000038" class="node">
<title>Node38</title>
<g id="a_Node000038"><a xlink:href="HotKeyListener_8h.html" target="_top" xlink:title=" ">
<polygon fill="white" stroke="#666666" points="261,-426 113,-426 113,-396 261,-396 261,-426"/>
<text text-anchor="start" x="121" y="-414" font-family="Helvetica,sans-Serif" font-size="10.00">QClipboard/HotKeyListener</text>
<text text-anchor="middle" x="187" y="-403" font-family="Helvetica,sans-Serif" font-size="10.00">/HotKeyListener.h</text>
</a>
</g>
</g>
<!-- Node1&#45;&gt;Node38 -->
<g id="edge59_Node000001_Node000038" class="edge">
<title>Node1&#45;&gt;Node38</title>
<g id="a_edge59_Node000001_Node000038"><a xlink:title=" ">
<path fill="none" stroke="#63b8ff" d="M1427.27,-466.98C1254.56,-459.54 839.81,-441.59 492,-426 417.38,-422.66 332.51,-418.75 271.27,-415.92"/>
<polygon fill="#63b8ff" stroke="#63b8ff" points="271.42,-412.42 261.27,-415.45 271.09,-419.41 271.42,-412.42"/>
</a>
</g>
</g>
<!-- Node39 -->
<g id="Node000039" class="node">
<title>Node39</title>
<g id="a_Node000039"><a xlink:href="KeyShortCutManager_8h.html" target="_top" xlink:title=" ">
<polygon fill="white" stroke="#666666" points="1291.5,-305 1152.5,-305 1152.5,-275 1291.5,-275 1291.5,-305"/>
<text text-anchor="start" x="1160.5" y="-293" font-family="Helvetica,sans-Serif" font-size="10.00">QClipboard/KeyShortCuts</text>
<text text-anchor="middle" x="1222" y="-282" font-family="Helvetica,sans-Serif" font-size="10.00">/KeyShortCutManager.h</text>
</a>
</g>
</g>
<!-- Node1&#45;&gt;Node39 -->
<g id="edge61_Node000001_Node000039" class="edge">
<title>Node1&#45;&gt;Node39</title>
<g id="a_edge61_Node000001_Node000039"><a xlink:title=" ">
<path fill="none" stroke="#63b8ff" d="M1444.88,-461.99C1412.83,-455.63 1374.48,-444.68 1344,-426 1296.64,-396.99 1256.79,-344.15 1236.47,-313.9"/>
<polygon fill="#63b8ff" stroke="#63b8ff" points="1239.23,-311.72 1230.81,-305.29 1233.38,-315.56 1239.23,-311.72"/>
</a>
</g>
</g>
<!-- Node40 -->
<g id="Node000040" class="node">
<title>Node40</title>
<g id="a_Node000040"><a xlink:href="TranslationManager_8h.html" target="_top" xlink:title=" ">
<polygon fill="white" stroke="#666666" points="1532,-420.5 1386,-420.5 1386,-401.5 1532,-401.5 1532,-420.5"/>
<text text-anchor="middle" x="1459" y="-408.5" font-family="Helvetica,sans-Serif" font-size="10.00">Utils/TranslationManager.h</text>
</a>
</g>
</g>
<!-- Node1&#45;&gt;Node40 -->
<g id="edge64_Node000001_Node000040" class="edge">
<title>Node1&#45;&gt;Node40</title>
<g id="a_edge64_Node000001_Node000040"><a xlink:title=" ">
<path fill="none" stroke="#63b8ff" d="M1501.62,-461.87C1494.09,-453.05 1482.21,-439.16 1472.91,-428.27"/>
<polygon fill="#63b8ff" stroke="#63b8ff" points="1475.57,-426 1466.41,-420.67 1470.24,-430.54 1475.57,-426"/>
</a>
</g>
</g>
<!-- Node42 -->
<g id="Node000042" class="node">
<title>Node42</title>
<g id="a_Node000042"><a xlink:href="ClipboardListener_8h.html" target="_top" xlink:title=" ">
<polygon fill="white" stroke="#666666" points="1591,-184 1481,-184 1481,-165 1591,-165 1591,-184"/>
<text text-anchor="middle" x="1536" y="-172" font-family="Helvetica,sans-Serif" font-size="10.00">ClipboardListener.h</text>
</a>
</g>
</g>
<!-- Node1&#45;&gt;Node42 -->
<g id="edge67_Node000001_Node000042" class="edge">
<title>Node1&#45;&gt;Node42</title>
<g id="a_edge67_Node000001_Node000042"><a xlink:title=" ">
<path fill="none" stroke="#63b8ff" d="M1517.75,-461.9C1525.56,-453.56 1536.45,-440.13 1541,-426 1545.09,-413.31 1545.64,-408.5 1541,-396 1533.65,-376.21 1517.35,-379.79 1510,-360 1488.46,-301.99 1513.63,-227.65 1527.73,-193.78"/>
<polygon fill="#63b8ff" stroke="#63b8ff" points="1531.08,-194.85 1531.84,-184.28 1524.66,-192.07 1531.08,-194.85"/>
</a>
</g>
</g>
<!-- Node3 -->
<g id="Node000003" class="node">
<title>Node3</title>
<g id="a_Node000003"><a xlink:title=" ">
<polygon fill="#e0e0e0" stroke="#999999" points="426.5,-360 345.5,-360 345.5,-341 426.5,-341 426.5,-360"/>
<text text-anchor="middle" x="386" y="-348" font-family="Helvetica,sans-Serif" font-size="10.00">RmlUi/Core.h</text>
</a>
</g>
</g>
<!-- Node2&#45;&gt;Node3 -->
<g id="edge2_Node000002_Node000003" class="edge">
<title>Node2&#45;&gt;Node3</title>
<g id="a_edge2_Node000002_Node000003"><a xlink:title=" ">
<path fill="none" stroke="#63b8ff" d="M521.03,-401.49C494.11,-391.53 449.33,-374.95 418.77,-363.63"/>
<polygon fill="#63b8ff" stroke="#63b8ff" points="419.6,-360.21 409,-360.02 417.16,-366.77 419.6,-360.21"/>
</a>
</g>
</g>
<!-- Node4 -->
<g id="Node000004" class="node">
<title>Node4</title>
<g id="a_Node000004"><a xlink:title=" ">
<polygon fill="#e0e0e0" stroke="#999999" points="523.5,-360 444.5,-360 444.5,-341 523.5,-341 523.5,-360"/>
<text text-anchor="middle" x="484" y="-348" font-family="Helvetica,sans-Serif" font-size="10.00">QApplication</text>
</a>
</g>
</g>
<!-- Node2&#45;&gt;Node4 -->
<g id="edge3_Node000002_Node000004" class="edge">
<title>Node2&#45;&gt;Node4</title>
<g id="a_edge3_Node000002_Node000004"><a xlink:title=" ">
<path fill="none" stroke="#63b8ff" d="M535.15,-401.37C526.02,-392.47 511.58,-378.39 500.36,-367.45"/>
<polygon fill="#63b8ff" stroke="#63b8ff" points="502.49,-364.64 492.89,-360.17 497.61,-369.65 502.49,-364.64"/>
</a>
</g>
</g>
<!-- Node5 -->
<g id="Node000005" class="node">
<title>Node5</title>
<g id="a_Node000005"><a xlink:title=" ">
<polygon fill="#e0e0e0" stroke="#999999" points="1047.5,-360 946.5,-360 946.5,-341 1047.5,-341 1047.5,-360"/>
<text text-anchor="middle" x="997" y="-348" font-family="Helvetica,sans-Serif" font-size="10.00">QSystemTrayIcon</text>
</a>
</g>
</g>
<!-- Node2&#45;&gt;Node5 -->
<g id="edge4_Node000002_Node000005" class="edge">
<title>Node2&#45;&gt;Node5</title>
<g id="a_edge4_Node000002_Node000005"><a xlink:title=" ">
<path fill="none" stroke="#63b8ff" d="M587.17,-404.76C657.93,-396.13 803.25,-378.17 936.5,-360.19"/>
<polygon fill="#63b8ff" stroke="#63b8ff" points="937.04,-363.64 946.48,-358.84 936.1,-356.71 937.04,-363.64"/>
</a>
</g>
</g>
<!-- Node6 -->
<g id="Node000006" class="node">
<title>Node6</title>
<g id="a_Node000006"><a xlink:title=" ">
<polygon fill="#e0e0e0" stroke="#999999" points="157.5,-360 106.5,-360 106.5,-341 157.5,-341 157.5,-360"/>
<text text-anchor="middle" x="132" y="-348" font-family="Helvetica,sans-Serif" font-size="10.00">QMenu</text>
</a>
</g>
</g>
<!-- Node2&#45;&gt;Node6 -->
<g id="edge5_Node000002_Node000006" class="edge">
<title>Node2&#45;&gt;Node6</title>
<g id="a_edge5_Node000002_Node000006"><a xlink:title=" ">
<path fill="none" stroke="#63b8ff" d="M500.79,-405.78C432.26,-398.76 294.3,-383.29 167.44,-359.88"/>
<polygon fill="#63b8ff" stroke="#63b8ff" points="168.02,-356.43 157.55,-358.04 166.73,-363.31 168.02,-356.43"/>
</a>
</g>
</g>
<!-- Node7 -->
<g id="Node000007" class="node">
<title>Node7</title>
<g id="a_Node000007"><a xlink:title=" ">
<polygon fill="#e0e0e0" stroke="#999999" points="224,-360 176,-360 176,-341 224,-341 224,-360"/>
<text text-anchor="middle" x="200" y="-348" font-family="Helvetica,sans-Serif" font-size="10.00">thread</text>
</a>
</g>
</g>
<!-- Node2&#45;&gt;Node7 -->
<g id="edge6_Node000002_Node000007" class="edge">
<title>Node2&#45;&gt;Node7</title>
<g id="a_edge6_Node000002_Node000007"><a xlink:title=" ">
<path fill="none" stroke="#63b8ff" d="M500.75,-404.34C442.41,-396.42 335.09,-380.85 234.15,-360.07"/>
<polygon fill="#63b8ff" stroke="#63b8ff" points="234.59,-356.59 224.09,-357.98 233.17,-363.44 234.59,-356.59"/>
</a>
</g>
</g>
<!-- Node8 -->
<g id="Node000008" class="node">
<title>Node8</title>
<g id="a_Node000008"><a xlink:title=" ">
<polygon fill="#e0e0e0" stroke="#999999" points="50,-360 0,-360 0,-341 50,-341 50,-360"/>
<text text-anchor="middle" x="25" y="-348" font-family="Helvetica,sans-Serif" font-size="10.00">atomic</text>
</a>
</g>
</g>
<!-- Node2&#45;&gt;Node8 -->
<g id="edge7_Node000002_Node000008" class="edge">
<title>Node2&#45;&gt;Node8</title>
<g id="a_edge7_Node000002_Node000008"><a xlink:title=" ">
<path fill="none" stroke="#63b8ff" d="M500.76,-407.11C416.4,-401.11 224.07,-385.7 64,-360 62.73,-359.8 61.44,-359.58 60.14,-359.35"/>
<polygon fill="#63b8ff" stroke="#63b8ff" points="60.58,-355.87 50.1,-357.4 59.25,-362.74 60.58,-355.87"/>
</a>
</g>
</g>
<!-- Node9 -->
<g id="Node000009" class="node">
<title>Node9</title>
<g id="a_Node000009"><a xlink:title=" ">
<polygon fill="#e0e0e0" stroke="#999999" points="598,-184 540,-184 540,-165 598,-165 598,-184"/>
<text text-anchor="middle" x="569" y="-172" font-family="Helvetica,sans-Serif" font-size="10.00">memory</text>
</a>
</g>
</g>
<!-- Node2&#45;&gt;Node9 -->
<g id="edge8_Node000002_Node000009" class="edge">
<title>Node2&#45;&gt;Node9</title>
<g id="a_edge8_Node000002_Node000009"><a xlink:title=" ">
<path fill="none" stroke="#63b8ff" d="M500.63,-408.37C393.61,-403.91 123.65,-389.79 97,-360 -29.92,-218.09 394.96,-184.26 529.48,-177.19"/>
<polygon fill="#63b8ff" stroke="#63b8ff" points="529.94,-180.67 539.75,-176.67 529.59,-173.68 529.94,-180.67"/>
</a>
</g>
</g>
<!-- Node10 -->
<g id="Node000010" class="node">
<title>Node10</title>
<g id="a_Node000010"><a xlink:title=" ">
<polygon fill="#e0e0e0" stroke="#999999" points="1398,-129 1342,-129 1342,-110 1398,-110 1398,-129"/>
<text text-anchor="middle" x="1370" y="-117" font-family="Helvetica,sans-Serif" font-size="10.00">QObject</text>
</a>
</g>
</g>
<!-- Node2&#45;&gt;Node10 -->
<g id="edge9_Node000002_Node000010" class="edge">
<title>Node2&#45;&gt;Node10</title>
<g id="a_edge9_Node000002_Node000010"><a xlink:title=" ">
<path fill="none" stroke="#63b8ff" d="M587.39,-409.43C716.28,-407.32 1095.17,-397.95 1212,-360 1256.22,-345.63 1277.63,-345.2 1301,-305 1332.29,-251.17 1276.18,-219.66 1306,-165 1313.41,-151.43 1326.95,-141.1 1339.68,-133.83"/>
<polygon fill="#63b8ff" stroke="#63b8ff" points="1341.49,-136.84 1348.7,-129.08 1338.23,-130.64 1341.49,-136.84"/>
</a>
</g>
</g>
<!-- Node11 -->
<g id="Node000011" class="node">
<title>Node11</title>
<g id="a_Node000011"><a xlink:href="EventListenerInstancer_8h.html" target="_top" xlink:title=" ">
<polygon fill="white" stroke="#666666" points="1202.5,-360 1065.5,-360 1065.5,-341 1202.5,-341 1202.5,-360"/>
<text text-anchor="middle" x="1134" y="-348" font-family="Helvetica,sans-Serif" font-size="10.00">EventListenerInstancer.h</text>
</a>
</g>
</g>
<!-- Node2&#45;&gt;Node11 -->
<g id="edge10_Node000002_Node000011" class="edge">
<title>Node2&#45;&gt;Node11</title>
<g id="a_edge10_Node000002_Node000011"><a xlink:title=" ">
<path fill="none" stroke="#63b8ff" d="M587.26,-405.97C673.94,-397.86 875.34,-378.81 1054.99,-360.2"/>
<polygon fill="#63b8ff" stroke="#63b8ff" points="1055.57,-363.66 1065.16,-359.14 1054.85,-356.69 1055.57,-363.66"/>
</a>
</g>
</g>
<!-- Node13 -->
<g id="Node000013" class="node">
<title>Node13</title>
<g id="a_Node000013"><a xlink:href="ElementFileManager_8h.html" target="_top" xlink:title=" ">
<polygon fill="white" stroke="#666666" points="666.5,-360 541.5,-360 541.5,-341 666.5,-341 666.5,-360"/>
<text text-anchor="middle" x="604" y="-348" font-family="Helvetica,sans-Serif" font-size="10.00">ElementFileManager.h</text>
</a>
</g>
</g>
<!-- Node2&#45;&gt;Node13 -->
<g id="edge12_Node000002_Node000013" class="edge">
<title>Node2&#45;&gt;Node13</title>
<g id="a_edge12_Node000002_Node000013"><a xlink:title=" ">
<path fill="none" stroke="#63b8ff" d="M552.85,-401.37C561.98,-392.47 576.42,-378.39 587.64,-367.45"/>
<polygon fill="#63b8ff" stroke="#63b8ff" points="590.39,-369.65 595.11,-360.17 585.51,-364.64 590.39,-369.65"/>
</a>
</g>
</g>
<!-- Node16 -->
<g id="Node000016" class="node">
<title>Node16</title>
<g id="a_Node000016"><a xlink:href="ElementClipboard_8h.html" target="_top" xlink:title=" ">
<polygon fill="white" stroke="#666666" points="797.5,-360 684.5,-360 684.5,-341 797.5,-341 797.5,-360"/>
<text text-anchor="middle" x="741" y="-348" font-family="Helvetica,sans-Serif" font-size="10.00">ElementClipboard.h</text>
</a>
</g>
</g>
<!-- Node2&#45;&gt;Node16 -->
<g id="edge15_Node000002_Node000016" class="edge">
<title>Node2&#45;&gt;Node16</title>
<g id="a_edge15_Node000002_Node000016"><a xlink:title=" ">
<path fill="none" stroke="#63b8ff" d="M572.65,-401.49C606.93,-391.31 664.48,-374.22 702.6,-362.9"/>
<polygon fill="#63b8ff" stroke="#63b8ff" points="703.73,-366.22 712.32,-360.02 701.74,-359.51 703.73,-366.22"/>
</a>
</g>
</g>
<!-- Node17 -->
<g id="Node000017" class="node">
<title>Node17</title>
<g id="a_Node000017"><a xlink:href="ElementShortCuts_8h.html" target="_top" xlink:title=" ">
<polygon fill="white" stroke="#666666" points="928.5,-360 815.5,-360 815.5,-341 928.5,-341 928.5,-360"/>
<text text-anchor="middle" x="872" y="-348" font-family="Helvetica,sans-Serif" font-size="10.00">ElementShortCuts.h</text>
</a>
</g>
</g>
<!-- Node2&#45;&gt;Node17 -->
<g id="edge17_Node000002_Node000017" class="edge">
<title>Node2&#45;&gt;Node17</title>
<g id="a_edge17_Node000002_Node000017"><a xlink:title=" ">
<path fill="none" stroke="#63b8ff" d="M587.22,-402.29C645.42,-391.91 749.18,-373.41 814.09,-361.83"/>
<polygon fill="#63b8ff" stroke="#63b8ff" points="814.93,-365.23 824.16,-360.03 813.7,-358.34 814.93,-365.23"/>
</a>
</g>
</g>
<!-- Node27 -->
<g id="Node000027" class="node">
<title>Node27</title>
<g id="a_Node000027"><a xlink:href="ElementEdit_8h.html" target="_top" xlink:title=" ">
<polygon fill="white" stroke="#666666" points="327.5,-360 242.5,-360 242.5,-341 327.5,-341 327.5,-360"/>
<text text-anchor="middle" x="285" y="-348" font-family="Helvetica,sans-Serif" font-size="10.00">ElementEdit.h</text>
</a>
</g>
</g>
<!-- Node2&#45;&gt;Node27 -->
<g id="edge37_Node000002_Node000027" class="edge">
<title>Node2&#45;&gt;Node27</title>
<g id="a_edge37_Node000002_Node000027"><a xlink:title=" ">
<path fill="none" stroke="#63b8ff" d="M506.34,-401.49C460.4,-391.12 382.69,-373.57 332.64,-362.26"/>
<polygon fill="#63b8ff" stroke="#63b8ff" points="333.23,-358.81 322.71,-360.02 331.69,-365.63 333.23,-358.81"/>
</a>
</g>
</g>
<!-- Node12 -->
<g id="Node000012" class="node">
<title>Node12</title>
<g id="a_Node000012"><a xlink:title=" ">
<polygon fill="#e0e0e0" stroke="#999999" points="1096,-305 954,-305 954,-275 1096,-275 1096,-305"/>
<text text-anchor="start" x="962" y="-293" font-family="Helvetica,sans-Serif" font-size="10.00">RmlUi/Core/EventListener</text>
<text text-anchor="middle" x="1025" y="-282" font-family="Helvetica,sans-Serif" font-size="10.00">Instancer.h</text>
</a>
</g>
</g>
<!-- Node11&#45;&gt;Node12 -->
<g id="edge11_Node000011_Node000012" class="edge">
<title>Node11&#45;&gt;Node12</title>
<g id="a_edge11_Node000011_Node000012"><a xlink:title=" ">
<path fill="none" stroke="#63b8ff" d="M1117.92,-340.87C1102.78,-332.75 1079.61,-320.31 1060.2,-309.89"/>
<polygon fill="#63b8ff" stroke="#63b8ff" points="1061.77,-306.76 1051.3,-305.11 1058.46,-312.93 1061.77,-306.76"/>
</a>
</g>
</g>
<!-- Node14 -->
<g id="Node000014" class="node">
<title>Node14</title>
<g id="a_Node000014"><a xlink:title=" ">
<polygon fill="#e0e0e0" stroke="#999999" points="751.5,-299.5 626.5,-299.5 626.5,-280.5 751.5,-280.5 751.5,-299.5"/>
<text text-anchor="middle" x="689" y="-287.5" font-family="Helvetica,sans-Serif" font-size="10.00">RmlUi/Core/Element.h</text>
</a>
</g>
</g>
<!-- Node13&#45;&gt;Node14 -->
<g id="edge13_Node000013_Node000014" class="edge">
<title>Node13&#45;&gt;Node14</title>
<g id="a_edge13_Node000013_Node000014"><a xlink:title=" ">
<path fill="none" stroke="#63b8ff" d="M616.54,-340.87C630.1,-331.54 651.94,-316.51 668.1,-305.38"/>
<polygon fill="#63b8ff" stroke="#63b8ff" points="670.15,-308.22 676.41,-299.67 666.18,-302.45 670.15,-308.22"/>
</a>
</g>
</g>
<!-- Node15 -->
<g id="Node000015" class="node">
<title>Node15</title>
<g id="a_Node000015"><a xlink:title=" ">
<polygon fill="#e0e0e0" stroke="#999999" points="609,-299.5 459,-299.5 459,-280.5 609,-280.5 609,-299.5"/>
<text text-anchor="middle" x="534" y="-287.5" font-family="Helvetica,sans-Serif" font-size="10.00">RmlUi/Core/EventListener.h</text>
</a>
</g>
</g>
<!-- Node13&#45;&gt;Node15 -->
<g id="edge14_Node000013_Node000015" class="edge">
<title>Node13&#45;&gt;Node15</title>
<g id="a_edge14_Node000013_Node000015"><a xlink:title=" ">
<path fill="none" stroke="#63b8ff" d="M593.67,-340.87C582.81,-331.8 565.51,-317.34 552.33,-306.32"/>
<polygon fill="#63b8ff" stroke="#63b8ff" points="554.29,-303.39 544.37,-299.67 549.8,-308.77 554.29,-303.39"/>
</a>
</g>
</g>
<!-- Node16&#45;&gt;Node14 -->
<g id="edge16_Node000016_Node000014" class="edge">
<title>Node16&#45;&gt;Node14</title>
<g id="a_edge16_Node000016_Node000014"><a xlink:title=" ">
<path fill="none" stroke="#63b8ff" d="M733.33,-340.87C725.49,-332.05 713.14,-318.16 703.46,-307.27"/>
<polygon fill="#63b8ff" stroke="#63b8ff" points="705.96,-304.82 696.7,-299.67 700.73,-309.47 705.96,-304.82"/>
</a>
</g>
</g>
<!-- Node17&#45;&gt;Node9 -->
<g id="edge36_Node000017_Node000009" class="edge">
<title>Node17&#45;&gt;Node9</title>
<g id="a_edge36_Node000017_Node000009"><a xlink:title=" ">
<path fill="none" stroke="#63b8ff" d="M857.1,-340.9C842.34,-332.23 819.22,-318.28 800,-305 782.01,-292.57 779.45,-286.74 761,-275 705.47,-239.65 635.94,-206.05 597.64,-188.38"/>
<polygon fill="#63b8ff" stroke="#63b8ff" points="598.7,-185.02 588.15,-184.04 595.78,-191.38 598.7,-185.02"/>
</a>
</g>
</g>
<!-- Node17&#45;&gt;Node14 -->
<g id="edge18_Node000017_Node000014" class="edge">
<title>Node17&#45;&gt;Node14</title>
<g id="a_edge18_Node000017_Node000014"><a xlink:title=" ">
<path fill="none" stroke="#63b8ff" d="M845.39,-340.99C813.81,-330.9 760.99,-314.01 725.58,-302.69"/>
<polygon fill="#63b8ff" stroke="#63b8ff" points="726.23,-299.23 715.64,-299.52 724.1,-305.9 726.23,-299.23"/>
</a>
</g>
</g>
<!-- Node17&#45;&gt;Node15 -->
<g id="edge19_Node000017_Node000015" class="edge">
<title>Node17&#45;&gt;Node15</title>
<g id="a_edge19_Node000017_Node000015"><a xlink:title=" ">
<path fill="none" stroke="#63b8ff" d="M822.85,-340.99C762.02,-330.47 658.52,-312.55 593.33,-301.27"/>
<polygon fill="#63b8ff" stroke="#63b8ff" points="593.66,-297.77 583.21,-299.52 592.46,-304.67 593.66,-297.77"/>
</a>
</g>
</g>
<!-- Node18 -->
<g id="Node000018" class="node">
<title>Node18</title>
<g id="a_Node000018"><a xlink:href="ShortCutsViewModel_8h.html" target="_top" xlink:title=" ">
<polygon fill="white" stroke="#666666" points="935.5,-299.5 808.5,-299.5 808.5,-280.5 935.5,-280.5 935.5,-299.5"/>
<text text-anchor="middle" x="872" y="-287.5" font-family="Helvetica,sans-Serif" font-size="10.00">ShortCutsViewModel.h</text>
</a>
</g>
</g>
<!-- Node17&#45;&gt;Node18 -->
<g id="edge20_Node000017_Node000018" class="edge">
<title>Node17&#45;&gt;Node18</title>
<g id="a_edge20_Node000017_Node000018"><a xlink:title=" ">
<path fill="none" stroke="#63b8ff" d="M872,-340.87C872,-332.75 872,-320.31 872,-309.89"/>
<polygon fill="#63b8ff" stroke="#63b8ff" points="875.5,-309.67 872,-299.67 868.5,-309.67 875.5,-309.67"/>
</a>
</g>
</g>
<!-- Node19 -->
<g id="Node000019" class="node">
<title>Node19</title>
<g id="a_Node000019"><a xlink:href="ClipboardInterface_8h.html" target="_top" xlink:title=" ">
<polygon fill="white" stroke="#666666" points="1221,-129 1105,-129 1105,-110 1221,-110 1221,-129"/>
<text text-anchor="middle" x="1163" y="-117" font-family="Helvetica,sans-Serif" font-size="10.00">ClipboardInterface.h</text>
</a>
</g>
</g>
<!-- Node18&#45;&gt;Node19 -->
<g id="edge21_Node000018_Node000019" class="edge">
<title>Node18&#45;&gt;Node19</title>
<g id="a_edge21_Node000018_Node000019"><a xlink:title=" ">
<path fill="none" stroke="#63b8ff" d="M886.83,-280.41C934.12,-253.03 1081.59,-167.64 1139.41,-134.16"/>
<polygon fill="#63b8ff" stroke="#63b8ff" points="1141.3,-137.11 1148.2,-129.07 1137.79,-131.05 1141.3,-137.11"/>
</a>
</g>
</g>
<!-- Node22 -->
<g id="Node000022" class="node">
<title>Node22</title>
<g id="a_Node000022"><a xlink:title=" ">
<polygon fill="#e0e0e0" stroke="#999999" points="1013.5,-19 966.5,-19 966.5,0 1013.5,0 1013.5,-19"/>
<text text-anchor="middle" x="990" y="-7" font-family="Helvetica,sans-Serif" font-size="10.00">vector</text>
</a>
</g>
</g>
<!-- Node18&#45;&gt;Node22 -->
<g id="edge35_Node000018_Node000022" class="edge">
<title>Node18&#45;&gt;Node22</title>
<g id="a_edge35_Node000018_Node000022"><a xlink:title=" ">
<path fill="none" stroke="#63b8ff" d="M875.27,-280.31C882.04,-261.5 897,-215.45 897,-175.5 897,-175.5 897,-175.5 897,-118.5 897,-76.48 937.92,-42.69 965.47,-24.7"/>
<polygon fill="#63b8ff" stroke="#63b8ff" points="967.61,-27.49 974.22,-19.21 963.89,-21.56 967.61,-27.49"/>
</a>
</g>
</g>
<!-- Node18&#45;&gt;Node24 -->
<g id="edge27_Node000018_Node000024" class="edge">
<title>Node18&#45;&gt;Node24</title>
<g id="a_edge27_Node000018_Node000024"><a xlink:title=" ">
<path fill="none" stroke="#63b8ff" d="M908.64,-280.49C953.25,-270.14 1028.63,-252.64 1077.34,-241.33"/>
<polygon fill="#63b8ff" stroke="#63b8ff" points="1078.36,-244.69 1087.31,-239.02 1076.78,-237.87 1078.36,-244.69"/>
</a>
</g>
</g>
<!-- Node20 -->
<g id="Node000020" class="node">
<title>Node20</title>
<g id="a_Node000020"><a xlink:title=" ">
<polygon fill="#e0e0e0" stroke="#999999" points="1328,-19 1284,-19 1284,0 1328,0 1328,-19"/>
<text text-anchor="middle" x="1306" y="-7" font-family="Helvetica,sans-Serif" font-size="10.00">string</text>
</a>
</g>
</g>
<!-- Node19&#45;&gt;Node20 -->
<g id="edge22_Node000019_Node000020" class="edge">
<title>Node19&#45;&gt;Node20</title>
<g id="a_edge22_Node000019_Node000020"><a xlink:title=" ">
<path fill="none" stroke="#63b8ff" d="M1184.76,-109.87C1202.96,-102.05 1229.05,-89.43 1249,-74 1266.49,-60.47 1282.97,-41.12 1293.66,-27.35"/>
<polygon fill="#63b8ff" stroke="#63b8ff" points="1296.57,-29.3 1299.81,-19.21 1290.99,-25.08 1296.57,-29.3"/>
</a>
</g>
</g>
<!-- Node21 -->
<g id="Node000021" class="node">
<title>Node21</title>
<g id="a_Node000021"><a xlink:href="KeyShortCut_8h.html" target="_top" xlink:title=" ">
<polygon fill="white" stroke="#666666" points="1240,-74 1086,-74 1086,-55 1240,-55 1240,-74"/>
<text text-anchor="middle" x="1163" y="-62" font-family="Helvetica,sans-Serif" font-size="10.00">KeyShortCuts/KeyShortCut.h</text>
</a>
</g>
</g>
<!-- Node19&#45;&gt;Node21 -->
<g id="edge23_Node000019_Node000021" class="edge">
<title>Node19&#45;&gt;Node21</title>
<g id="a_edge23_Node000019_Node000021"><a xlink:title=" ">
<path fill="none" stroke="#63b8ff" d="M1163,-109.75C1163,-102.8 1163,-92.85 1163,-84.13"/>
<polygon fill="#63b8ff" stroke="#63b8ff" points="1166.5,-84.09 1163,-74.09 1159.5,-84.09 1166.5,-84.09"/>
</a>
</g>
</g>
<!-- Node21&#45;&gt;Node20 -->
<g id="edge25_Node000021_Node000020" class="edge">
<title>Node21&#45;&gt;Node20</title>
<g id="a_edge25_Node000021_Node000020"><a xlink:title=" ">
<path fill="none" stroke="#63b8ff" d="M1185.98,-54.98C1209.78,-46.16 1247.16,-32.31 1273.89,-22.4"/>
<polygon fill="#63b8ff" stroke="#63b8ff" points="1275.39,-25.58 1283.55,-18.82 1272.96,-19.01 1275.39,-25.58"/>
</a>
</g>
</g>
<!-- Node21&#45;&gt;Node22 -->
<g id="edge24_Node000021_Node000022" class="edge">
<title>Node21&#45;&gt;Node22</title>
<g id="a_edge24_Node000021_Node000022"><a xlink:title=" ">
<path fill="none" stroke="#63b8ff" d="M1135.2,-54.98C1104.78,-45.66 1056.01,-30.72 1023.5,-20.76"/>
<polygon fill="#63b8ff" stroke="#63b8ff" points="1024.14,-17.3 1013.56,-17.72 1022.09,-23.99 1024.14,-17.3"/>
</a>
</g>
</g>
<!-- Node23 -->
<g id="Node000023" class="node">
<title>Node23</title>
<g id="a_Node000023"><a xlink:title=" ">
<polygon fill="#e0e0e0" stroke="#999999" points="1700.5,-19 1591.5,-19 1591.5,0 1700.5,0 1700.5,-19"/>
<text text-anchor="middle" x="1646" y="-7" font-family="Helvetica,sans-Serif" font-size="10.00">RmlUi/Core/Input.h</text>
</a>
</g>
</g>
<!-- Node21&#45;&gt;Node23 -->
<g id="edge26_Node000021_Node000023" class="edge">
<title>Node21&#45;&gt;Node23</title>
<g id="a_edge26_Node000021_Node000023"><a xlink:title=" ">
<path fill="none" stroke="#63b8ff" d="M1240.07,-55.04C1334.47,-44.68 1492.73,-27.32 1581.17,-17.61"/>
<polygon fill="#63b8ff" stroke="#63b8ff" points="1581.78,-21.07 1591.34,-16.5 1581.02,-14.11 1581.78,-21.07"/>
</a>
</g>
</g>
<!-- Node24&#45;&gt;Node9 -->
<g id="edge34_Node000024_Node000009" class="edge">
<title>Node24&#45;&gt;Node9</title>
<g id="a_edge34_Node000024_Node000009"><a xlink:title=" ">
<path fill="none" stroke="#63b8ff" d="M1034.83,-219.98C912.19,-208.27 696.64,-187.69 608.37,-179.26"/>
<polygon fill="#63b8ff" stroke="#63b8ff" points="608.54,-175.76 598.25,-178.29 607.88,-182.73 608.54,-175.76"/>
</a>
</g>
</g>
<!-- Node24&#45;&gt;Node19 -->
<g id="edge28_Node000024_Node000019" class="edge">
<title>Node24&#45;&gt;Node19</title>
<g id="a_edge28_Node000024_Node000019"><a xlink:title=" ">
<path fill="none" stroke="#63b8ff" d="M1127.19,-219.66C1133.57,-202.01 1147.98,-162.09 1156.45,-138.64"/>
<polygon fill="#63b8ff" stroke="#63b8ff" points="1159.77,-139.75 1159.87,-129.16 1153.18,-137.38 1159.77,-139.75"/>
</a>
</g>
</g>
<!-- Node24&#45;&gt;Node22 -->
<g id="edge33_Node000024_Node000022" class="edge">
<title>Node24&#45;&gt;Node22</title>
<g id="a_edge33_Node000024_Node000022"><a xlink:title=" ">
<path fill="none" stroke="#63b8ff" d="M1099.61,-219.98C1065.6,-206.62 1005.27,-177.17 980,-129 963.12,-96.83 974.17,-52.9 982.73,-28.57"/>
<polygon fill="#63b8ff" stroke="#63b8ff" points="986.02,-29.76 986.27,-19.16 979.47,-27.29 986.02,-29.76"/>
</a>
</g>
</g>
<!-- Node24&#45;&gt;Node25 -->
<g id="edge29_Node000024_Node000025" class="edge">
<title>Node24&#45;&gt;Node25</title>
<g id="a_edge29_Node000024_Node000025"><a xlink:title=" ">
<path fill="none" stroke="#63b8ff" d="M1163.52,-219.98C1206.17,-210.8 1274.15,-196.15 1320.36,-186.19"/>
<polygon fill="#63b8ff" stroke="#63b8ff" points="1321.13,-189.61 1330.17,-184.08 1319.65,-182.77 1321.13,-189.61"/>
</a>
</g>
</g>
<!-- Node25&#45;&gt;Node10 -->
<g id="edge32_Node000025_Node000010" class="edge">
<title>Node25&#45;&gt;Node10</title>
<g id="a_edge32_Node000025_Node000010"><a xlink:title=" ">
<path fill="none" stroke="#63b8ff" d="M1370,-164.75C1370,-157.8 1370,-147.85 1370,-139.13"/>
<polygon fill="#63b8ff" stroke="#63b8ff" points="1373.5,-139.09 1370,-129.09 1366.5,-139.09 1373.5,-139.09"/>
</a>
</g>
</g>
<!-- Node25&#45;&gt;Node19 -->
<g id="edge30_Node000025_Node000019" class="edge">
<title>Node25&#45;&gt;Node19</title>
<g id="a_edge30_Node000025_Node000019"><a xlink:title=" ">
<path fill="none" stroke="#63b8ff" d="M1336.74,-164.98C1301.39,-155.93 1245.33,-141.58 1206.49,-131.64"/>
<polygon fill="#63b8ff" stroke="#63b8ff" points="1207.07,-128.17 1196.52,-129.08 1205.34,-134.95 1207.07,-128.17"/>
</a>
</g>
</g>
<!-- Node26 -->
<g id="Node000026" class="node">
<title>Node26</title>
<g id="a_Node000026"><a xlink:title=" ">
<polygon fill="#e0e0e0" stroke="#999999" points="1552.5,-129 1481.5,-129 1481.5,-110 1552.5,-110 1552.5,-129"/>
<text text-anchor="middle" x="1517" y="-117" font-family="Helvetica,sans-Serif" font-size="10.00">QClipboard</text>
</a>
</g>
</g>
<!-- Node25&#45;&gt;Node26 -->
<g id="edge31_Node000025_Node000026" class="edge">
<title>Node25&#45;&gt;Node26</title>
<g id="a_edge31_Node000025_Node000026"><a xlink:title=" ">
<path fill="none" stroke="#63b8ff" d="M1393.62,-164.98C1417.9,-156.23 1455.95,-142.51 1483.37,-132.62"/>
<polygon fill="#63b8ff" stroke="#63b8ff" points="1484.73,-135.85 1492.95,-129.17 1482.36,-129.27 1484.73,-135.85"/>
</a>
</g>
</g>
<!-- Node27&#45;&gt;Node9 -->
<g id="edge44_Node000027_Node000009" class="edge">
<title>Node27&#45;&gt;Node9</title>
<g id="a_edge44_Node000027_Node000009"><a xlink:title=" ">
<path fill="none" stroke="#63b8ff" d="M299.08,-340.87C344.89,-312.81 489.9,-223.96 546.27,-189.42"/>
<polygon fill="#63b8ff" stroke="#63b8ff" points="548.13,-192.39 554.83,-184.18 544.48,-186.42 548.13,-192.39"/>
</a>
</g>
</g>
<!-- Node27&#45;&gt;Node14 -->
<g id="edge38_Node000027_Node000014" class="edge">
<title>Node27&#45;&gt;Node14</title>
<g id="a_edge38_Node000027_Node000014"><a xlink:title=" ">
<path fill="none" stroke="#63b8ff" d="M327.56,-342.28C330.41,-341.84 333.25,-341.4 336,-341 461.01,-322.61 493.28,-325.23 618,-305 624.58,-303.93 631.49,-302.71 638.3,-301.43"/>
<polygon fill="#63b8ff" stroke="#63b8ff" points="639,-304.86 648.16,-299.54 637.68,-297.99 639,-304.86"/>
</a>
</g>
</g>
<!-- Node27&#45;&gt;Node15 -->
<g id="edge39_Node000027_Node000015" class="edge">
<title>Node27&#45;&gt;Node15</title>
<g id="a_edge39_Node000027_Node000015"><a xlink:title=" ">
<path fill="none" stroke="#63b8ff" d="M321.21,-340.99C365.28,-330.64 439.77,-313.14 487.9,-301.83"/>
<polygon fill="#63b8ff" stroke="#63b8ff" points="488.82,-305.21 497.75,-299.52 487.21,-298.4 488.82,-305.21"/>
</a>
</g>
</g>
<!-- Node28 -->
<g id="Node000028" class="node">
<title>Node28</title>
<g id="a_Node000028"><a xlink:href="EditViewModel_8h.html" target="_top" xlink:title=" ">
<polygon fill="white" stroke="#666666" points="1087,-129 989,-129 989,-110 1087,-110 1087,-129"/>
<text text-anchor="middle" x="1038" y="-117" font-family="Helvetica,sans-Serif" font-size="10.00">EditViewModel.h</text>
</a>
</g>
</g>
<!-- Node27&#45;&gt;Node28 -->
<g id="edge40_Node000027_Node000028" class="edge">
<title>Node27&#45;&gt;Node28</title>
<g id="a_edge40_Node000027_Node000028"><a xlink:title=" ">
<path fill="none" stroke="#63b8ff" d="M292.37,-340.99C319.91,-309.93 420.83,-202.52 531,-165 612.39,-137.28 863.07,-125.99 978.59,-122.17"/>
<polygon fill="#63b8ff" stroke="#63b8ff" points="978.79,-125.66 988.67,-121.84 978.56,-118.67 978.79,-125.66"/>
</a>
</g>
</g>
<!-- Node28&#45;&gt;Node21 -->
<g id="edge41_Node000028_Node000021" class="edge">
<title>Node28&#45;&gt;Node21</title>
<g id="a_edge41_Node000028_Node000021"><a xlink:title=" ">
<path fill="none" stroke="#63b8ff" d="M1058.08,-109.98C1078.37,-101.38 1109.96,-87.99 1133.17,-78.15"/>
<polygon fill="#63b8ff" stroke="#63b8ff" points="1134.71,-81.3 1142.55,-74.17 1131.98,-74.85 1134.71,-81.3"/>
</a>
</g>
</g>
<!-- Node28&#45;&gt;Node22 -->
<g id="edge43_Node000028_Node000022" class="edge">
<title>Node28&#45;&gt;Node22</title>
<g id="a_edge43_Node000028_Node000022"><a xlink:title=" ">
<path fill="none" stroke="#63b8ff" d="M1034.07,-109.66C1026.19,-91.93 1008.32,-51.73 997.92,-28.32"/>
<polygon fill="#63b8ff" stroke="#63b8ff" points="1001.11,-26.87 993.85,-19.16 994.71,-29.72 1001.11,-26.87"/>
</a>
</g>
</g>
<!-- Node28&#45;&gt;Node23 -->
<g id="edge42_Node000028_Node000023" class="edge">
<title>Node28&#45;&gt;Node23</title>
<g id="a_edge42_Node000028_Node000023"><a xlink:title=" ">
<path fill="none" stroke="#63b8ff" d="M1085.96,-109.98C1196.45,-90.35 1468.55,-42.02 1588.09,-20.79"/>
<polygon fill="#63b8ff" stroke="#63b8ff" points="1588.91,-24.2 1598.15,-19 1587.69,-17.3 1588.91,-24.2"/>
</a>
</g>
</g>
<!-- Node30&#45;&gt;Node23 -->
<g id="edge47_Node000030_Node000023" class="edge">
<title>Node30&#45;&gt;Node23</title>
<g id="a_edge47_Node000030_Node000023"><a xlink:title=" ">
<path fill="none" stroke="#63b8ff" d="M1743.79,-401.42C1788.54,-389.79 1862.91,-369.38 1872,-360 1894.14,-337.17 1891,-322.81 1891,-291 1891,-291 1891,-291 1891,-118.5 1891,-39.59 1783.26,-17.84 1710.67,-12.15"/>
<polygon fill="#63b8ff" stroke="#63b8ff" points="1710.9,-8.65 1700.68,-11.44 1710.41,-15.64 1710.9,-8.65"/>
</a>
</g>
</g>
<!-- Node31 -->
<g id="Node000031" class="node">
<title>Node31</title>
<g id="a_Node000031"><a xlink:title=" ">
<polygon fill="#e0e0e0" stroke="#999999" points="1681,-360 1519,-360 1519,-341 1681,-341 1681,-360"/>
<text text-anchor="middle" x="1600" y="-348" font-family="Helvetica,sans-Serif" font-size="10.00">RmlUi/Core/RenderInterface.h</text>
</a>
</g>
</g>
<!-- Node30&#45;&gt;Node31 -->
<g id="edge48_Node000030_Node000031" class="edge">
<title>Node30&#45;&gt;Node31</title>
<g id="a_edge48_Node000030_Node000031"><a xlink:title=" ">
<path fill="none" stroke="#63b8ff" d="M1693.77,-401.37C1675.73,-391.78 1646.38,-376.17 1625.32,-364.97"/>
<polygon fill="#63b8ff" stroke="#63b8ff" points="1626.77,-361.77 1616.3,-360.17 1623.48,-367.95 1626.77,-361.77"/>
</a>
</g>
</g>
<!-- Node32 -->
<g id="Node000032" class="node">
<title>Node32</title>
<g id="a_Node000032"><a xlink:title=" ">
<polygon fill="#e0e0e0" stroke="#999999" points="1863,-360 1699,-360 1699,-341 1863,-341 1863,-360"/>
<text text-anchor="middle" x="1781" y="-348" font-family="Helvetica,sans-Serif" font-size="10.00">RmlUi/Core/SystemInterface.h</text>
</a>
</g>
</g>
<!-- Node30&#45;&gt;Node32 -->
<g id="edge49_Node000030_Node000032" class="edge">
<title>Node30&#45;&gt;Node32</title>
<g id="a_edge49_Node000030_Node000032"><a xlink:title=" ">
<path fill="none" stroke="#63b8ff" d="M1720.48,-401.37C1731.49,-392.3 1749.04,-377.84 1762.41,-366.82"/>
<polygon fill="#63b8ff" stroke="#63b8ff" points="1764.99,-369.23 1770.48,-360.17 1760.54,-363.83 1764.99,-369.23"/>
</a>
</g>
</g>
<!-- Node33 -->
<g id="Node000033" class="node">
<title>Node33</title>
<g id="a_Node000033"><a xlink:title=" ">
<polygon fill="#e0e0e0" stroke="#999999" points="2031,-360 1919,-360 1919,-341 2031,-341 2031,-360"/>
<text text-anchor="middle" x="1975" y="-348" font-family="Helvetica,sans-Serif" font-size="10.00">RmlUi/Core/Types.h</text>
</a>
</g>
</g>
<!-- Node30&#45;&gt;Node33 -->
<g id="edge50_Node000030_Node000033" class="edge">
<title>Node30&#45;&gt;Node33</title>
<g id="a_edge50_Node000030_Node000033"><a xlink:title=" ">
<path fill="none" stroke="#63b8ff" d="M1746.15,-401.47C1754.01,-399.64 1762.28,-397.74 1770,-396 1822.85,-384.1 1883.48,-371.01 1925.02,-362.12"/>
<polygon fill="#63b8ff" stroke="#63b8ff" points="1925.84,-365.53 1934.89,-360.01 1924.38,-358.68 1925.84,-365.53"/>
</a>
</g>
</g>
<!-- Node34&#45;&gt;Node23 -->
<g id="edge53_Node000034_Node000023" class="edge">
<title>Node34&#45;&gt;Node23</title>
<g id="a_edge53_Node000034_Node000023"><a xlink:title=" ">
<path fill="none" stroke="#63b8ff" d="M1822.58,-401.47C1827.79,-399.38 1833.54,-397.35 1839,-396 1912.96,-377.68 2121.9,-409.3 2180,-360 2204.25,-339.42 2199,-322.81 2199,-291 2199,-291 2199,-291 2199,-118.5 2199,-19.99 1856.68,-9.64 1710.7,-9.7"/>
<polygon fill="#63b8ff" stroke="#63b8ff" points="1710.53,-6.2 1700.54,-9.72 1710.54,-13.2 1710.53,-6.2"/>
</a>
</g>
</g>
<!-- Node34&#45;&gt;Node33 -->
<g id="edge54_Node000034_Node000033" class="edge">
<title>Node34&#45;&gt;Node33</title>
<g id="a_edge54_Node000034_Node000033"><a xlink:title=" ">
<path fill="none" stroke="#63b8ff" d="M1824.64,-401.49C1829.34,-399.62 1834.32,-397.7 1839,-396 1872.07,-383.99 1910.17,-371.65 1937.61,-363.02"/>
<polygon fill="#63b8ff" stroke="#63b8ff" points="1938.71,-366.34 1947.21,-360.02 1936.62,-359.66 1938.71,-366.34"/>
</a>
</g>
</g>
<!-- Node35 -->
<g id="Node000035" class="node">
<title>Node35</title>
<g id="a_Node000035"><a xlink:title=" ">
<polygon fill="#e0e0e0" stroke="#999999" points="2171,-360 2049,-360 2049,-341 2171,-341 2171,-360"/>
<text text-anchor="middle" x="2110" y="-348" font-family="Helvetica,sans-Serif" font-size="10.00">RmlUi/Core/Context.h</text>
</a>
</g>
</g>
<!-- Node34&#45;&gt;Node35 -->
<g id="edge52_Node000034_Node000035" class="edge">
<title>Node34&#45;&gt;Node35</title>
<g id="a_edge52_Node000034_Node000035"><a xlink:title=" ">
<path fill="none" stroke="#63b8ff" d="M1823.36,-401.38C1828.38,-399.39 1833.83,-397.44 1839,-396 1875.53,-385.82 1971.31,-371.11 2038.6,-361.43"/>
<polygon fill="#63b8ff" stroke="#63b8ff" points="2039.32,-364.86 2048.72,-359.98 2038.32,-357.93 2039.32,-364.86"/>
</a>
</g>
</g>
<!-- Node38&#45;&gt;Node8 -->
<g id="edge60_Node000038_Node000008" class="edge">
<title>Node38&#45;&gt;Node8</title>
<g id="a_edge60_Node000038_Node000008"><a xlink:title=" ">
<path fill="none" stroke="#63b8ff" d="M148.2,-395.99C120.81,-386.1 84.48,-372.98 58.39,-363.56"/>
<polygon fill="#63b8ff" stroke="#63b8ff" points="59.52,-360.24 48.92,-360.14 57.14,-366.83 59.52,-360.24"/>
</a>
</g>
</g>
<!-- Node39&#45;&gt;Node21 -->
<g id="edge62_Node000039_Node000021" class="edge">
<title>Node39&#45;&gt;Node21</title>
<g id="a_edge62_Node000039_Node000021"><a xlink:title=" ">
<path fill="none" stroke="#63b8ff" d="M1227.2,-274.92C1237.98,-243.24 1259.4,-164.83 1230,-110 1222.49,-96 1208.43,-85.66 1195.12,-78.48"/>
<polygon fill="#63b8ff" stroke="#63b8ff" points="1196.63,-75.33 1186.11,-74.02 1193.52,-81.6 1196.63,-75.33"/>
</a>
</g>
</g>
<!-- Node39&#45;&gt;Node24 -->
<g id="edge63_Node000039_Node000024" class="edge">
<title>Node39&#45;&gt;Node24</title>
<g id="a_edge63_Node000039_Node000024"><a xlink:title=" ">
<path fill="none" stroke="#63b8ff" d="M1198.28,-274.84C1182.8,-265.6 1162.68,-253.59 1147.29,-244.4"/>
<polygon fill="#63b8ff" stroke="#63b8ff" points="1148.78,-241.21 1138.4,-239.09 1145.19,-247.23 1148.78,-241.21"/>
</a>
</g>
</g>
<!-- Node40&#45;&gt;Node20 -->
<g id="edge65_Node000040_Node000020" class="edge">
<title>Node40&#45;&gt;Node20</title>
<g id="a_edge65_Node000040_Node000020"><a xlink:title=" ">
<path fill="none" stroke="#63b8ff" d="M1458.26,-401.35C1456.66,-381.73 1453,-332.37 1453,-291 1453,-291 1453,-291 1453,-118.5 1453,-61.77 1381.02,-31.55 1337.8,-18.52"/>
<polygon fill="#63b8ff" stroke="#63b8ff" points="1338.58,-15.1 1328.01,-15.71 1336.65,-21.83 1338.58,-15.1"/>
</a>
</g>
</g>
<!-- Node41 -->
<g id="Node000041" class="node">
<title>Node41</title>
<g id="a_Node000041"><a xlink:title=" ">
<polygon fill="#e0e0e0" stroke="#999999" points="1425,-360 1387,-360 1387,-341 1425,-341 1425,-360"/>
<text text-anchor="middle" x="1406" y="-348" font-family="Helvetica,sans-Serif" font-size="10.00">map</text>
</a>
</g>
</g>
<!-- Node40&#45;&gt;Node41 -->
<g id="edge66_Node000040_Node000041" class="edge">
<title>Node40&#45;&gt;Node41</title>
<g id="a_edge66_Node000040_Node000041"><a xlink:title=" ">
<path fill="none" stroke="#63b8ff" d="M1451.18,-401.37C1443.19,-392.55 1430.61,-378.66 1420.74,-367.77"/>
<polygon fill="#63b8ff" stroke="#63b8ff" points="1423.16,-365.23 1413.85,-360.17 1417.97,-369.93 1423.16,-365.23"/>
</a>
</g>
</g>
<!-- Node42&#45;&gt;Node10 -->
<g id="edge68_Node000042_Node000010" class="edge">
<title>Node42&#45;&gt;Node10</title>
<g id="a_edge68_Node000042_Node000010"><a xlink:title=" ">
<path fill="none" stroke="#63b8ff" d="M1509.33,-164.98C1481.46,-156.09 1437.55,-142.07 1406.48,-132.15"/>
<polygon fill="#63b8ff" stroke="#63b8ff" points="1407.47,-128.79 1396.88,-129.08 1405.34,-135.46 1407.47,-128.79"/>
</a>
</g>
</g>
<!-- Node42&#45;&gt;Node26 -->
<g id="edge69_Node000042_Node000026" class="edge">
<title>Node42&#45;&gt;Node26</title>
<g id="a_edge69_Node000042_Node000026"><a xlink:title=" ">
<path fill="none" stroke="#63b8ff" d="M1532.86,-164.75C1530.32,-157.65 1526.64,-147.4 1523.47,-138.56"/>
<polygon fill="#63b8ff" stroke="#63b8ff" points="1526.75,-137.32 1520.08,-129.09 1520.16,-139.68 1526.75,-137.32"/>
</a>
</g>
</g>
<!-- Node43 -->
<g id="Node000043" class="node">
<title>Node43</title>
<g id="a_Node000043"><a xlink:title=" ">
<polygon fill="#e0e0e0" stroke="#999999" points="1617.5,-129 1570.5,-129 1570.5,-110 1617.5,-110 1617.5,-129"/>
<text text-anchor="middle" x="1594" y="-117" font-family="Helvetica,sans-Serif" font-size="10.00">queue</text>
</a>
</g>
</g>
<!-- Node42&#45;&gt;Node43 -->
<g id="edge70_Node000042_Node000043" class="edge">
<title>Node42&#45;&gt;Node43</title>
<g id="a_edge70_Node000042_Node000043"><a xlink:title=" ">
<path fill="none" stroke="#63b8ff" d="M1545.32,-164.98C1553.81,-157.23 1566.56,-145.58 1576.88,-136.14"/>
<polygon fill="#63b8ff" stroke="#63b8ff" points="1579.49,-138.5 1584.51,-129.17 1574.77,-133.33 1579.49,-138.5"/>
</a>
</g>
</g>
<!-- Node44 -->
<g id="Node000044" class="node">
<title>Node44</title>
<g id="a_Node000044"><a xlink:title=" ">
<polygon fill="#e0e0e0" stroke="#999999" points="1700.5,-129 1635.5,-129 1635.5,-110 1700.5,-110 1700.5,-129"/>
<text text-anchor="middle" x="1668" y="-117" font-family="Helvetica,sans-Serif" font-size="10.00">functional</text>
</a>
</g>
</g>
<!-- Node42&#45;&gt;Node44 -->
<g id="edge71_Node000042_Node000044" class="edge">
<title>Node42&#45;&gt;Node44</title>
<g id="a_edge71_Node000042_Node000044"><a xlink:title=" ">
<path fill="none" stroke="#63b8ff" d="M1557.21,-164.98C1578.73,-156.34 1612.28,-142.87 1636.83,-133.02"/>
<polygon fill="#63b8ff" stroke="#63b8ff" points="1638.43,-136.14 1646.41,-129.17 1635.82,-129.65 1638.43,-136.14"/>
</a>
</g>
</g>
</g>
</svg>
