<?xml version="1.0" encoding="UTF-8" standalone="no"?>
<!DOCTYPE svg PUBLIC "-//W3C//DTD SVG 1.1//EN"
 "http://www.w3.org/Graphics/SVG/1.1/DTD/svg11.dtd">
<!-- Generated by graphviz version 2.43.0 (0)
 -->
<!-- Title: Clipboard++/Clipboard++.cpp Pages: 1 -->
<svg width="1422pt" height="489pt"
 viewBox="0.00 0.00 1421.50 489.00" xmlns="http://www.w3.org/2000/svg" xmlns:xlink="http://www.w3.org/1999/xlink">
<g id="graph0" class="graph" transform="scale(1 1) rotate(0) translate(4 485)">
<title>Clipboard++/Clipboard++.cpp</title>
<!-- Node1 -->
<g id="Node000001" class="node">
<title>Node1</title>
<g id="a_Node000001"><a xlink:title=" ">
<polygon fill="#999999" stroke="#666666" points="652,-481 523,-481 523,-451 652,-451 652,-481"/>
<text text-anchor="start" x="531" y="-469" font-family="Helvetica,sans-Serif" font-size="10.00">Clipboard++/Clipboard</text>
<text text-anchor="middle" x="587.5" y="-458" font-family="Helvetica,sans-Serif" font-size="10.00">++.cpp</text>
</a>
</g>
</g>
<!-- Node2 -->
<g id="Node000002" class="node">
<title>Node2</title>
<g id="a_Node000002"><a xlink:href="ClipboardXX_8h.html" target="_top" xlink:title=" ">
<polygon fill="white" stroke="#666666" points="630.5,-415 544.5,-415 544.5,-396 630.5,-396 630.5,-415"/>
<text text-anchor="middle" x="587.5" y="-403" font-family="Helvetica,sans-Serif" font-size="10.00">ClipboardXX.h</text>
</a>
</g>
</g>
<!-- Node1&#45;&gt;Node2 -->
<g id="edge1_Node000001_Node000002" class="edge">
<title>Node1&#45;&gt;Node2</title>
<g id="a_edge1_Node000001_Node000002"><a xlink:title=" ">
<path fill="none" stroke="#63b8ff" d="M587.5,-450.84C587.5,-443.21 587.5,-433.7 587.5,-425.45"/>
<polygon fill="#63b8ff" stroke="#63b8ff" points="591,-425.27 587.5,-415.27 584,-425.27 591,-425.27"/>
</a>
</g>
</g>
<!-- Node3 -->
<g id="Node000003" class="node">
<title>Node3</title>
<g id="a_Node000003"><a xlink:title=" ">
<polygon fill="#e0e0e0" stroke="#999999" points="81,-360 0,-360 0,-341 81,-341 81,-360"/>
<text text-anchor="middle" x="40.5" y="-348" font-family="Helvetica,sans-Serif" font-size="10.00">RmlUi/Core.h</text>
</a>
</g>
</g>
<!-- Node2&#45;&gt;Node3 -->
<g id="edge2_Node000002_Node000003" class="edge">
<title>Node2&#45;&gt;Node3</title>
<g id="a_edge2_Node000002_Node000003"><a xlink:title=" ">
<path fill="none" stroke="#63b8ff" d="M544.4,-401.85C459.56,-396.38 264.72,-382.53 91.18,-360.12"/>
<polygon fill="#63b8ff" stroke="#63b8ff" points="91.47,-356.63 81.1,-358.81 90.57,-363.57 91.47,-356.63"/>
</a>
</g>
</g>
<!-- Node4 -->
<g id="Node000004" class="node">
<title>Node4</title>
<g id="a_Node000004"><a xlink:title=" ">
<polygon fill="#e0e0e0" stroke="#999999" points="178,-360 99,-360 99,-341 178,-341 178,-360"/>
<text text-anchor="middle" x="138.5" y="-348" font-family="Helvetica,sans-Serif" font-size="10.00">QApplication</text>
</a>
</g>
</g>
<!-- Node2&#45;&gt;Node4 -->
<g id="edge3_Node000002_Node000004" class="edge">
<title>Node2&#45;&gt;Node4</title>
<g id="a_edge3_Node000002_Node000004"><a xlink:title=" ">
<path fill="none" stroke="#63b8ff" d="M544.36,-400.64C472.57,-394.01 323.82,-379.41 188.18,-360.16"/>
<polygon fill="#63b8ff" stroke="#63b8ff" points="188.42,-356.66 178.02,-358.71 187.42,-363.59 188.42,-356.66"/>
</a>
</g>
</g>
<!-- Node5 -->
<g id="Node000005" class="node">
<title>Node5</title>
<g id="a_Node000005"><a xlink:title=" ">
<polygon fill="#e0e0e0" stroke="#999999" points="297,-360 196,-360 196,-341 297,-341 297,-360"/>
<text text-anchor="middle" x="246.5" y="-348" font-family="Helvetica,sans-Serif" font-size="10.00">QSystemTrayIcon</text>
</a>
</g>
</g>
<!-- Node2&#45;&gt;Node5 -->
<g id="edge4_Node000002_Node000005" class="edge">
<title>Node2&#45;&gt;Node5</title>
<g id="a_edge4_Node000002_Node000005"><a xlink:title=" ">
<path fill="none" stroke="#63b8ff" d="M544.31,-397.79C484.31,-388.46 375.43,-371.54 307.26,-360.94"/>
<polygon fill="#63b8ff" stroke="#63b8ff" points="307.51,-357.44 297.09,-359.36 306.43,-364.36 307.51,-357.44"/>
</a>
</g>
</g>
<!-- Node6 -->
<g id="Node000006" class="node">
<title>Node6</title>
<g id="a_Node000006"><a xlink:title=" ">
<polygon fill="#e0e0e0" stroke="#999999" points="366,-360 315,-360 315,-341 366,-341 366,-360"/>
<text text-anchor="middle" x="340.5" y="-348" font-family="Helvetica,sans-Serif" font-size="10.00">QMenu</text>
</a>
</g>
</g>
<!-- Node2&#45;&gt;Node6 -->
<g id="edge5_Node000002_Node000006" class="edge">
<title>Node2&#45;&gt;Node6</title>
<g id="a_edge5_Node000002_Node000006"><a xlink:title=" ">
<path fill="none" stroke="#63b8ff" d="M544.78,-395.94C504,-387.68 440.58,-374.6 376.04,-360.06"/>
<polygon fill="#63b8ff" stroke="#63b8ff" points="376.62,-356.61 366.09,-357.81 375.07,-363.43 376.62,-356.61"/>
</a>
</g>
</g>
<!-- Node7 -->
<g id="Node000007" class="node">
<title>Node7</title>
<g id="a_Node000007"><a xlink:title=" ">
<polygon fill="#e0e0e0" stroke="#999999" points="432.5,-360 384.5,-360 384.5,-341 432.5,-341 432.5,-360"/>
<text text-anchor="middle" x="408.5" y="-348" font-family="Helvetica,sans-Serif" font-size="10.00">thread</text>
</a>
</g>
</g>
<!-- Node2&#45;&gt;Node7 -->
<g id="edge6_Node000002_Node000007" class="edge">
<title>Node2&#45;&gt;Node7</title>
<g id="a_edge6_Node000002_Node000007"><a xlink:title=" ">
<path fill="none" stroke="#63b8ff" d="M558.74,-395.98C527.04,-386.6 476.08,-371.51 442.44,-361.55"/>
<polygon fill="#63b8ff" stroke="#63b8ff" points="443.18,-358.12 432.6,-358.63 441.19,-364.83 443.18,-358.12"/>
</a>
</g>
</g>
<!-- Node8 -->
<g id="Node000008" class="node">
<title>Node8</title>
<g id="a_Node000008"><a xlink:title=" ">
<polygon fill="#e0e0e0" stroke="#999999" points="500.5,-360 450.5,-360 450.5,-341 500.5,-341 500.5,-360"/>
<text text-anchor="middle" x="475.5" y="-348" font-family="Helvetica,sans-Serif" font-size="10.00">atomic</text>
</a>
</g>
</g>
<!-- Node2&#45;&gt;Node8 -->
<g id="edge7_Node000002_Node000008" class="edge">
<title>Node2&#45;&gt;Node8</title>
<g id="a_edge7_Node000002_Node000008"><a xlink:title=" ">
<path fill="none" stroke="#63b8ff" d="M569.51,-395.98C551.57,-387.5 523.78,-374.35 503.07,-364.54"/>
<polygon fill="#63b8ff" stroke="#63b8ff" points="504.36,-361.28 493.82,-360.17 501.36,-367.61 504.36,-361.28"/>
</a>
</g>
</g>
<!-- Node9 -->
<g id="Node000009" class="node">
<title>Node9</title>
<g id="a_Node000009"><a xlink:title=" ">
<polygon fill="#e0e0e0" stroke="#999999" points="931.5,-184 873.5,-184 873.5,-165 931.5,-165 931.5,-184"/>
<text text-anchor="middle" x="902.5" y="-172" font-family="Helvetica,sans-Serif" font-size="10.00">memory</text>
</a>
</g>
</g>
<!-- Node2&#45;&gt;Node9 -->
<g id="edge8_Node000002_Node000009" class="edge">
<title>Node2&#45;&gt;Node9</title>
<g id="a_edge8_Node000002_Node000009"><a xlink:title=" ">
<path fill="none" stroke="#63b8ff" d="M605.06,-395.9C621.17,-387.65 645.36,-374.37 664.5,-360 736.38,-306.01 736.68,-271.31 810.5,-220 829.15,-207.04 852.15,-195.91 870.48,-188.03"/>
<polygon fill="#63b8ff" stroke="#63b8ff" points="871.99,-191.19 879.87,-184.1 869.29,-184.73 871.99,-191.19"/>
</a>
</g>
</g>
<!-- Node10 -->
<g id="Node000010" class="node">
<title>Node10</title>
<g id="a_Node000010"><a xlink:title=" ">
<polygon fill="#e0e0e0" stroke="#999999" points="1413.5,-129 1357.5,-129 1357.5,-110 1413.5,-110 1413.5,-129"/>
<text text-anchor="middle" x="1385.5" y="-117" font-family="Helvetica,sans-Serif" font-size="10.00">QObject</text>
</a>
</g>
</g>
<!-- Node2&#45;&gt;Node10 -->
<g id="edge9_Node000002_Node000010" class="edge">
<title>Node2&#45;&gt;Node10</title>
<g id="a_edge9_Node000002_Node000010"><a xlink:title=" ">
<path fill="none" stroke="#63b8ff" d="M630.9,-403.25C753.67,-399.43 1101.67,-386.5 1212.5,-360 1289.41,-341.61 1376.5,-370.08 1376.5,-291 1376.5,-291 1376.5,-291 1376.5,-228.5 1376.5,-197.08 1380.33,-160.7 1382.99,-139.2"/>
<polygon fill="#63b8ff" stroke="#63b8ff" points="1386.48,-139.52 1384.29,-129.16 1379.54,-138.63 1386.48,-139.52"/>
</a>
</g>
</g>
<!-- Node11 -->
<g id="Node000011" class="node">
<title>Node11</title>
<g id="a_Node000011"><a xlink:href="EventListenerInstancer_8h.html" target="_top" xlink:title=" ">
<polygon fill="white" stroke="#666666" points="656,-360 519,-360 519,-341 656,-341 656,-360"/>
<text text-anchor="middle" x="587.5" y="-348" font-family="Helvetica,sans-Serif" font-size="10.00">EventListenerInstancer.h</text>
</a>
</g>
</g>
<!-- Node2&#45;&gt;Node11 -->
<g id="edge10_Node000002_Node000011" class="edge">
<title>Node2&#45;&gt;Node11</title>
<g id="a_edge10_Node000002_Node000011"><a xlink:title=" ">
<path fill="none" stroke="#63b8ff" d="M587.5,-395.75C587.5,-388.8 587.5,-378.85 587.5,-370.13"/>
<polygon fill="#63b8ff" stroke="#63b8ff" points="591,-370.09 587.5,-360.09 584,-370.09 591,-370.09"/>
</a>
</g>
</g>
<!-- Node13 -->
<g id="Node000013" class="node">
<title>Node13</title>
<g id="a_Node000013"><a xlink:href="ElementFileManager_8h.html" target="_top" xlink:title=" ">
<polygon fill="white" stroke="#666666" points="1072,-360 947,-360 947,-341 1072,-341 1072,-360"/>
<text text-anchor="middle" x="1009.5" y="-348" font-family="Helvetica,sans-Serif" font-size="10.00">ElementFileManager.h</text>
</a>
</g>
</g>
<!-- Node2&#45;&gt;Node13 -->
<g id="edge12_Node000002_Node000013" class="edge">
<title>Node2&#45;&gt;Node13</title>
<g id="a_edge12_Node000002_Node000013"><a xlink:title=" ">
<path fill="none" stroke="#63b8ff" d="M630.68,-399.08C702.89,-390.01 848.9,-371.67 937.06,-360.6"/>
<polygon fill="#63b8ff" stroke="#63b8ff" points="937.5,-364.07 946.98,-359.35 936.63,-357.12 937.5,-364.07"/>
</a>
</g>
</g>
<!-- Node16 -->
<g id="Node000016" class="node">
<title>Node16</title>
<g id="a_Node000016"><a xlink:href="ElementClipboard_8h.html" target="_top" xlink:title=" ">
<polygon fill="white" stroke="#666666" points="929,-360 816,-360 816,-341 929,-341 929,-360"/>
<text text-anchor="middle" x="872.5" y="-348" font-family="Helvetica,sans-Serif" font-size="10.00">ElementClipboard.h</text>
</a>
</g>
</g>
<!-- Node2&#45;&gt;Node16 -->
<g id="edge15_Node000002_Node000016" class="edge">
<title>Node2&#45;&gt;Node16</title>
<g id="a_edge15_Node000002_Node000016"><a xlink:title=" ">
<path fill="none" stroke="#63b8ff" d="M630.79,-396.45C680.48,-387.21 762.14,-372.02 816.6,-361.9"/>
<polygon fill="#63b8ff" stroke="#63b8ff" points="817.25,-365.33 826.44,-360.07 815.97,-358.45 817.25,-365.33"/>
</a>
</g>
</g>
<!-- Node17 -->
<g id="Node000017" class="node">
<title>Node17</title>
<g id="a_Node000017"><a xlink:href="ElementShortCuts_8h.html" target="_top" xlink:title=" ">
<polygon fill="white" stroke="#666666" points="1203,-360 1090,-360 1090,-341 1203,-341 1203,-360"/>
<text text-anchor="middle" x="1146.5" y="-348" font-family="Helvetica,sans-Serif" font-size="10.00">ElementShortCuts.h</text>
</a>
</g>
</g>
<!-- Node2&#45;&gt;Node17 -->
<g id="edge17_Node000002_Node000017" class="edge">
<title>Node2&#45;&gt;Node17</title>
<g id="a_edge17_Node000002_Node000017"><a xlink:title=" ">
<path fill="none" stroke="#63b8ff" d="M630.51,-401.21C714.72,-394.64 907.5,-378.99 1079.79,-360.15"/>
<polygon fill="#63b8ff" stroke="#63b8ff" points="1080.24,-363.62 1089.8,-359.05 1079.47,-356.67 1080.24,-363.62"/>
</a>
</g>
</g>
<!-- Node27 -->
<g id="Node000027" class="node">
<title>Node27</title>
<g id="a_Node000027"><a xlink:href="ElementEdit_8h.html" target="_top" xlink:title=" ">
<polygon fill="white" stroke="#666666" points="798,-360 713,-360 713,-341 798,-341 798,-360"/>
<text text-anchor="middle" x="755.5" y="-348" font-family="Helvetica,sans-Serif" font-size="10.00">ElementEdit.h</text>
</a>
</g>
</g>
<!-- Node2&#45;&gt;Node27 -->
<g id="edge37_Node000002_Node000027" class="edge">
<title>Node2&#45;&gt;Node27</title>
<g id="a_edge37_Node000002_Node000027"><a xlink:title=" ">
<path fill="none" stroke="#63b8ff" d="M614.49,-395.98C642.7,-387.09 687.14,-373.07 718.58,-363.15"/>
<polygon fill="#63b8ff" stroke="#63b8ff" points="719.81,-366.43 728.3,-360.08 717.71,-359.75 719.81,-366.43"/>
</a>
</g>
</g>
<!-- Node12 -->
<g id="Node000012" class="node">
<title>Node12</title>
<g id="a_Node000012"><a xlink:title=" ">
<polygon fill="#e0e0e0" stroke="#999999" points="656.5,-305 514.5,-305 514.5,-275 656.5,-275 656.5,-305"/>
<text text-anchor="start" x="522.5" y="-293" font-family="Helvetica,sans-Serif" font-size="10.00">RmlUi/Core/EventListener</text>
<text text-anchor="middle" x="585.5" y="-282" font-family="Helvetica,sans-Serif" font-size="10.00">Instancer.h</text>
</a>
</g>
</g>
<!-- Node11&#45;&gt;Node12 -->
<g id="edge11_Node000011_Node000012" class="edge">
<title>Node11&#45;&gt;Node12</title>
<g id="a_edge11_Node000011_Node000012"><a xlink:title=" ">
<path fill="none" stroke="#63b8ff" d="M587.2,-340.87C586.97,-334.11 586.64,-324.35 586.33,-315.26"/>
<polygon fill="#63b8ff" stroke="#63b8ff" points="589.82,-314.99 585.98,-305.11 582.83,-315.23 589.82,-314.99"/>
</a>
</g>
</g>
<!-- Node14 -->
<g id="Node000014" class="node">
<title>Node14</title>
<g id="a_Node000014"><a xlink:title=" ">
<polygon fill="#e0e0e0" stroke="#999999" points="916,-299.5 791,-299.5 791,-280.5 916,-280.5 916,-299.5"/>
<text text-anchor="middle" x="853.5" y="-287.5" font-family="Helvetica,sans-Serif" font-size="10.00">RmlUi/Core/Element.h</text>
</a>
</g>
</g>
<!-- Node13&#45;&gt;Node14 -->
<g id="edge13_Node000013_Node000014" class="edge">
<title>Node13&#45;&gt;Node14</title>
<g id="a_edge13_Node000013_Node000014"><a xlink:title=" ">
<path fill="none" stroke="#63b8ff" d="M986.82,-340.99C960.24,-331.03 916.02,-314.45 885.86,-303.13"/>
<polygon fill="#63b8ff" stroke="#63b8ff" points="886.8,-299.75 876.21,-299.52 884.35,-306.31 886.8,-299.75"/>
</a>
</g>
</g>
<!-- Node15 -->
<g id="Node000015" class="node">
<title>Node15</title>
<g id="a_Node000015"><a xlink:title=" ">
<polygon fill="#e0e0e0" stroke="#999999" points="1084.5,-299.5 934.5,-299.5 934.5,-280.5 1084.5,-280.5 1084.5,-299.5"/>
<text text-anchor="middle" x="1009.5" y="-287.5" font-family="Helvetica,sans-Serif" font-size="10.00">RmlUi/Core/EventListener.h</text>
</a>
</g>
</g>
<!-- Node13&#45;&gt;Node15 -->
<g id="edge14_Node000013_Node000015" class="edge">
<title>Node13&#45;&gt;Node15</title>
<g id="a_edge14_Node000013_Node000015"><a xlink:title=" ">
<path fill="none" stroke="#63b8ff" d="M1009.5,-340.87C1009.5,-332.75 1009.5,-320.31 1009.5,-309.89"/>
<polygon fill="#63b8ff" stroke="#63b8ff" points="1013,-309.67 1009.5,-299.67 1006,-309.67 1013,-309.67"/>
</a>
</g>
</g>
<!-- Node16&#45;&gt;Node14 -->
<g id="edge16_Node000016_Node000014" class="edge">
<title>Node16&#45;&gt;Node14</title>
<g id="a_edge16_Node000016_Node000014"><a xlink:title=" ">
<path fill="none" stroke="#63b8ff" d="M869.7,-340.87C867,-332.57 862.85,-319.78 859.42,-309.22"/>
<polygon fill="#63b8ff" stroke="#63b8ff" points="862.73,-308.1 856.32,-299.67 856.08,-310.26 862.73,-308.1"/>
</a>
</g>
</g>
<!-- Node17&#45;&gt;Node9 -->
<g id="edge36_Node000017_Node000009" class="edge">
<title>Node17&#45;&gt;Node9</title>
<g id="a_edge36_Node000017_Node000009"><a xlink:title=" ">
<path fill="none" stroke="#63b8ff" d="M1142.03,-340.67C1134.04,-325.59 1116.01,-294.6 1093.5,-275 1045.7,-233.38 977.45,-203.25 936.8,-187.64"/>
<polygon fill="#63b8ff" stroke="#63b8ff" points="937.92,-184.33 927.33,-184.08 935.46,-190.88 937.92,-184.33"/>
</a>
</g>
</g>
<!-- Node17&#45;&gt;Node14 -->
<g id="edge18_Node000017_Node000014" class="edge">
<title>Node17&#45;&gt;Node14</title>
<g id="a_edge18_Node000017_Node000014"><a xlink:title=" ">
<path fill="none" stroke="#63b8ff" d="M1103.9,-340.99C1051.49,-330.53 962.54,-312.77 905.98,-301.48"/>
<polygon fill="#63b8ff" stroke="#63b8ff" points="906.65,-298.04 896.16,-299.52 905.28,-304.91 906.65,-298.04"/>
</a>
</g>
</g>
<!-- Node17&#45;&gt;Node15 -->
<g id="edge19_Node000017_Node000015" class="edge">
<title>Node17&#45;&gt;Node15</title>
<g id="a_edge19_Node000017_Node000015"><a xlink:title=" ">
<path fill="none" stroke="#63b8ff" d="M1126.58,-340.99C1103.55,-331.16 1065.42,-314.88 1038.96,-303.58"/>
<polygon fill="#63b8ff" stroke="#63b8ff" points="1040.02,-300.22 1029.45,-299.52 1037.27,-306.66 1040.02,-300.22"/>
</a>
</g>
</g>
<!-- Node18 -->
<g id="Node000018" class="node">
<title>Node18</title>
<g id="a_Node000018"><a xlink:href="ShortCutsViewModel_8h.html" target="_top" xlink:title=" ">
<polygon fill="white" stroke="#666666" points="1268,-299.5 1141,-299.5 1141,-280.5 1268,-280.5 1268,-299.5"/>
<text text-anchor="middle" x="1204.5" y="-287.5" font-family="Helvetica,sans-Serif" font-size="10.00">ShortCutsViewModel.h</text>
</a>
</g>
</g>
<!-- Node17&#45;&gt;Node18 -->
<g id="edge20_Node000017_Node000018" class="edge">
<title>Node17&#45;&gt;Node18</title>
<g id="a_edge20_Node000017_Node000018"><a xlink:title=" ">
<path fill="none" stroke="#63b8ff" d="M1155.06,-340.87C1163.88,-331.97 1177.84,-317.89 1188.68,-306.95"/>
<polygon fill="#63b8ff" stroke="#63b8ff" points="1191.35,-309.23 1195.91,-299.67 1186.38,-304.3 1191.35,-309.23"/>
</a>
</g>
</g>
<!-- Node19 -->
<g id="Node000019" class="node">
<title>Node19</title>
<g id="a_Node000019"><a xlink:href="ClipboardInterface_8h.html" target="_top" xlink:title=" ">
<polygon fill="white" stroke="#666666" points="1169.5,-129 1053.5,-129 1053.5,-110 1169.5,-110 1169.5,-129"/>
<text text-anchor="middle" x="1111.5" y="-117" font-family="Helvetica,sans-Serif" font-size="10.00">ClipboardInterface.h</text>
</a>
</g>
</g>
<!-- Node18&#45;&gt;Node19 -->
<g id="edge21_Node000018_Node000019" class="edge">
<title>Node18&#45;&gt;Node19</title>
<g id="a_edge21_Node000018_Node000019"><a xlink:title=" ">
<path fill="none" stroke="#63b8ff" d="M1161.96,-280.5C1138.95,-273.5 1112.45,-261 1098.5,-239 1078.82,-207.95 1092.71,-162.94 1103.06,-138.29"/>
<polygon fill="#63b8ff" stroke="#63b8ff" points="1106.29,-139.63 1107.17,-129.07 1099.9,-136.78 1106.29,-139.63"/>
</a>
</g>
</g>
<!-- Node22 -->
<g id="Node000022" class="node">
<title>Node22</title>
<g id="a_Node000022"><a xlink:title=" ">
<polygon fill="#e0e0e0" stroke="#999999" points="1265,-19 1218,-19 1218,0 1265,0 1265,-19"/>
<text text-anchor="middle" x="1241.5" y="-7" font-family="Helvetica,sans-Serif" font-size="10.00">vector</text>
</a>
</g>
</g>
<!-- Node18&#45;&gt;Node22 -->
<g id="edge35_Node000018_Node000022" class="edge">
<title>Node18&#45;&gt;Node22</title>
<g id="a_edge35_Node000018_Node000022"><a xlink:title=" ">
<path fill="none" stroke="#63b8ff" d="M1239.63,-280.49C1262.82,-273.15 1292.19,-260.29 1310.5,-239 1329.71,-216.67 1329.5,-204.96 1329.5,-175.5 1329.5,-175.5 1329.5,-175.5 1329.5,-118.5 1329.5,-77.39 1290.71,-43.26 1264.64,-24.97"/>
<polygon fill="#63b8ff" stroke="#63b8ff" points="1266.28,-21.85 1256.03,-19.17 1262.37,-27.66 1266.28,-21.85"/>
</a>
</g>
</g>
<!-- Node24 -->
<g id="Node000024" class="node">
<title>Node24</title>
<g id="a_Node000024"><a xlink:href="MemoryCellManager_8h.html" target="_top" xlink:title=" ">
<polygon fill="white" stroke="#666666" points="1301.5,-239 1107.5,-239 1107.5,-220 1301.5,-220 1301.5,-239"/>
<text text-anchor="middle" x="1204.5" y="-227" font-family="Helvetica,sans-Serif" font-size="10.00">MemoryCells/MemoryCellManager.h</text>
</a>
</g>
</g>
<!-- Node18&#45;&gt;Node24 -->
<g id="edge27_Node000018_Node000024" class="edge">
<title>Node18&#45;&gt;Node24</title>
<g id="a_edge27_Node000018_Node000024"><a xlink:title=" ">
<path fill="none" stroke="#63b8ff" d="M1204.5,-280.37C1204.5,-272.25 1204.5,-259.81 1204.5,-249.39"/>
<polygon fill="#63b8ff" stroke="#63b8ff" points="1208,-249.17 1204.5,-239.17 1201,-249.17 1208,-249.17"/>
</a>
</g>
</g>
<!-- Node20 -->
<g id="Node000020" class="node">
<title>Node20</title>
<g id="a_Node000020"><a xlink:title=" ">
<polygon fill="#e0e0e0" stroke="#999999" points="1133.5,-19 1089.5,-19 1089.5,0 1133.5,0 1133.5,-19"/>
<text text-anchor="middle" x="1111.5" y="-7" font-family="Helvetica,sans-Serif" font-size="10.00">string</text>
</a>
</g>
</g>
<!-- Node19&#45;&gt;Node20 -->
<g id="edge22_Node000019_Node000020" class="edge">
<title>Node19&#45;&gt;Node20</title>
<g id="a_edge22_Node000019_Node000020"><a xlink:title=" ">
<path fill="none" stroke="#63b8ff" d="M1133.14,-109.9C1156.92,-99.04 1190.19,-78.87 1177.5,-55 1170.01,-40.92 1155.87,-30.5 1142.59,-23.29"/>
<polygon fill="#63b8ff" stroke="#63b8ff" points="1144.14,-20.15 1133.63,-18.81 1141.01,-26.41 1144.14,-20.15"/>
</a>
</g>
</g>
<!-- Node21 -->
<g id="Node000021" class="node">
<title>Node21</title>
<g id="a_Node000021"><a xlink:href="KeyShortCut_8h.html" target="_top" xlink:title=" ">
<polygon fill="white" stroke="#666666" points="1168.5,-74 1014.5,-74 1014.5,-55 1168.5,-55 1168.5,-74"/>
<text text-anchor="middle" x="1091.5" y="-62" font-family="Helvetica,sans-Serif" font-size="10.00">KeyShortCuts/KeyShortCut.h</text>
</a>
</g>
</g>
<!-- Node19&#45;&gt;Node21 -->
<g id="edge23_Node000019_Node000021" class="edge">
<title>Node19&#45;&gt;Node21</title>
<g id="a_edge23_Node000019_Node000021"><a xlink:title=" ">
<path fill="none" stroke="#63b8ff" d="M1108.2,-109.75C1105.52,-102.65 1101.65,-92.4 1098.31,-83.56"/>
<polygon fill="#63b8ff" stroke="#63b8ff" points="1101.55,-82.21 1094.74,-74.09 1095,-84.68 1101.55,-82.21"/>
</a>
</g>
</g>
<!-- Node21&#45;&gt;Node20 -->
<g id="edge25_Node000021_Node000020" class="edge">
<title>Node21&#45;&gt;Node20</title>
<g id="a_edge25_Node000021_Node000020"><a xlink:title=" ">
<path fill="none" stroke="#63b8ff" d="M1094.8,-54.75C1097.48,-47.65 1101.35,-37.4 1104.69,-28.56"/>
<polygon fill="#63b8ff" stroke="#63b8ff" points="1108,-29.68 1108.26,-19.09 1101.45,-27.21 1108,-29.68"/>
</a>
</g>
</g>
<!-- Node21&#45;&gt;Node22 -->
<g id="edge24_Node000021_Node000022" class="edge">
<title>Node21&#45;&gt;Node22</title>
<g id="a_edge24_Node000021_Node000022"><a xlink:title=" ">
<path fill="none" stroke="#63b8ff" d="M1115.6,-54.98C1140.68,-46.12 1180.13,-32.18 1208.18,-22.27"/>
<polygon fill="#63b8ff" stroke="#63b8ff" points="1209.69,-25.45 1217.95,-18.82 1207.36,-18.85 1209.69,-25.45"/>
</a>
</g>
</g>
<!-- Node23 -->
<g id="Node000023" class="node">
<title>Node23</title>
<g id="a_Node000023"><a xlink:title=" ">
<polygon fill="#e0e0e0" stroke="#999999" points="1066,-19 957,-19 957,0 1066,0 1066,-19"/>
<text text-anchor="middle" x="1011.5" y="-7" font-family="Helvetica,sans-Serif" font-size="10.00">RmlUi/Core/Input.h</text>
</a>
</g>
</g>
<!-- Node21&#45;&gt;Node23 -->
<g id="edge26_Node000021_Node000023" class="edge">
<title>Node21&#45;&gt;Node23</title>
<g id="a_edge26_Node000021_Node000023"><a xlink:title=" ">
<path fill="none" stroke="#63b8ff" d="M1078.65,-54.98C1066.36,-46.84 1047.59,-34.41 1033.02,-24.76"/>
<polygon fill="#63b8ff" stroke="#63b8ff" points="1034.86,-21.78 1024.59,-19.17 1030.99,-27.61 1034.86,-21.78"/>
</a>
</g>
</g>
<!-- Node24&#45;&gt;Node9 -->
<g id="edge34_Node000024_Node000009" class="edge">
<title>Node24&#45;&gt;Node9</title>
<g id="a_edge34_Node000024_Node000009"><a xlink:title=" ">
<path fill="none" stroke="#63b8ff" d="M1155.98,-219.98C1096.46,-209.54 996.71,-192.03 941.76,-182.39"/>
<polygon fill="#63b8ff" stroke="#63b8ff" points="942.18,-178.91 931.72,-180.63 940.97,-185.8 942.18,-178.91"/>
</a>
</g>
</g>
<!-- Node24&#45;&gt;Node19 -->
<g id="edge28_Node000024_Node000019" class="edge">
<title>Node24&#45;&gt;Node19</title>
<g id="a_edge28_Node000024_Node000019"><a xlink:title=" ">
<path fill="none" stroke="#63b8ff" d="M1187.36,-219.94C1173.25,-212.18 1153.51,-199.58 1140.5,-184 1129.34,-170.64 1121.58,-152.29 1116.91,-138.75"/>
<polygon fill="#63b8ff" stroke="#63b8ff" points="1120.21,-137.56 1113.82,-129.11 1113.54,-139.7 1120.21,-137.56"/>
</a>
</g>
</g>
<!-- Node24&#45;&gt;Node22 -->
<g id="edge33_Node000024_Node000022" class="edge">
<title>Node24&#45;&gt;Node22</title>
<g id="a_edge33_Node000024_Node000022"><a xlink:title=" ">
<path fill="none" stroke="#63b8ff" d="M1226.29,-219.87C1241.14,-212.69 1259.66,-200.91 1268.5,-184 1295.51,-132.32 1267.08,-60.99 1250.98,-28.24"/>
<polygon fill="#63b8ff" stroke="#63b8ff" points="1253.94,-26.35 1246.27,-19.04 1247.71,-29.54 1253.94,-26.35"/>
</a>
</g>
</g>
<!-- Node25 -->
<g id="Node000025" class="node">
<title>Node25</title>
<g id="a_Node000025"><a xlink:href="ClipboardAdapter_8h.html" target="_top" xlink:title=" ">
<polygon fill="white" stroke="#666666" points="1259.5,-184 1149.5,-184 1149.5,-165 1259.5,-165 1259.5,-184"/>
<text text-anchor="middle" x="1204.5" y="-172" font-family="Helvetica,sans-Serif" font-size="10.00">ClipboardAdapter.h</text>
</a>
</g>
</g>
<!-- Node24&#45;&gt;Node25 -->
<g id="edge29_Node000024_Node000025" class="edge">
<title>Node24&#45;&gt;Node25</title>
<g id="a_edge29_Node000024_Node000025"><a xlink:title=" ">
<path fill="none" stroke="#63b8ff" d="M1204.5,-219.75C1204.5,-212.8 1204.5,-202.85 1204.5,-194.13"/>
<polygon fill="#63b8ff" stroke="#63b8ff" points="1208,-194.09 1204.5,-184.09 1201,-194.09 1208,-194.09"/>
</a>
</g>
</g>
<!-- Node25&#45;&gt;Node10 -->
<g id="edge32_Node000025_Node000010" class="edge">
<title>Node25&#45;&gt;Node10</title>
<g id="a_edge32_Node000025_Node000010"><a xlink:title=" ">
<path fill="none" stroke="#63b8ff" d="M1233.58,-164.98C1264.46,-155.94 1313.41,-141.61 1347.37,-131.67"/>
<polygon fill="#63b8ff" stroke="#63b8ff" points="1348.77,-134.9 1357.38,-128.73 1346.8,-128.18 1348.77,-134.9"/>
</a>
</g>
</g>
<!-- Node25&#45;&gt;Node19 -->
<g id="edge30_Node000025_Node000019" class="edge">
<title>Node25&#45;&gt;Node19</title>
<g id="a_edge30_Node000025_Node000019"><a xlink:title=" ">
<path fill="none" stroke="#63b8ff" d="M1189.56,-164.98C1175,-156.69 1152.63,-143.94 1135.57,-134.22"/>
<polygon fill="#63b8ff" stroke="#63b8ff" points="1137.14,-131.08 1126.71,-129.17 1133.67,-137.16 1137.14,-131.08"/>
</a>
</g>
</g>
<!-- Node26 -->
<g id="Node000026" class="node">
<title>Node26</title>
<g id="a_Node000026"><a xlink:title=" ">
<polygon fill="#e0e0e0" stroke="#999999" points="1259,-129 1188,-129 1188,-110 1259,-110 1259,-129"/>
<text text-anchor="middle" x="1223.5" y="-117" font-family="Helvetica,sans-Serif" font-size="10.00">QClipboard</text>
</a>
</g>
</g>
<!-- Node25&#45;&gt;Node26 -->
<g id="edge31_Node000025_Node000026" class="edge">
<title>Node25&#45;&gt;Node26</title>
<g id="a_edge31_Node000025_Node000026"><a xlink:title=" ">
<path fill="none" stroke="#63b8ff" d="M1207.64,-164.75C1210.18,-157.65 1213.86,-147.4 1217.03,-138.56"/>
<polygon fill="#63b8ff" stroke="#63b8ff" points="1220.34,-139.68 1220.42,-129.09 1213.75,-137.32 1220.34,-139.68"/>
</a>
</g>
</g>
<!-- Node27&#45;&gt;Node9 -->
<g id="edge44_Node000027_Node000009" class="edge">
<title>Node27&#45;&gt;Node9</title>
<g id="a_edge44_Node000027_Node000009"><a xlink:title=" ">
<path fill="none" stroke="#63b8ff" d="M756.91,-340.99C759.65,-326.4 766.76,-296.12 781.5,-275 807.53,-237.69 851.21,-206.65 878.35,-189.63"/>
<polygon fill="#63b8ff" stroke="#63b8ff" points="880.51,-192.41 887.21,-184.2 876.85,-186.44 880.51,-192.41"/>
</a>
</g>
</g>
<!-- Node27&#45;&gt;Node14 -->
<g id="edge38_Node000027_Node000014" class="edge">
<title>Node27&#45;&gt;Node14</title>
<g id="a_edge38_Node000027_Node000014"><a xlink:title=" ">
<path fill="none" stroke="#63b8ff" d="M769.96,-340.87C785.81,-331.41 811.47,-316.09 830.18,-304.92"/>
<polygon fill="#63b8ff" stroke="#63b8ff" points="832.19,-307.8 838.98,-299.67 828.6,-301.79 832.19,-307.8"/>
</a>
</g>
</g>
<!-- Node27&#45;&gt;Node15 -->
<g id="edge39_Node000027_Node000015" class="edge">
<title>Node27&#45;&gt;Node15</title>
<g id="a_edge39_Node000027_Node000015"><a xlink:title=" ">
<path fill="none" stroke="#63b8ff" d="M792.43,-340.99C837.39,-330.64 913.38,-313.14 962.47,-301.83"/>
<polygon fill="#63b8ff" stroke="#63b8ff" points="963.56,-305.17 972.52,-299.52 961.99,-298.35 963.56,-305.17"/>
</a>
</g>
</g>
<!-- Node28 -->
<g id="Node000028" class="node">
<title>Node28</title>
<g id="a_Node000028"><a xlink:href="EditViewModel_8h.html" target="_top" xlink:title=" ">
<polygon fill="white" stroke="#666666" points="1035.5,-129 937.5,-129 937.5,-110 1035.5,-110 1035.5,-129"/>
<text text-anchor="middle" x="986.5" y="-117" font-family="Helvetica,sans-Serif" font-size="10.00">EditViewModel.h</text>
</a>
</g>
</g>
<!-- Node27&#45;&gt;Node28 -->
<g id="edge40_Node000027_Node000028" class="edge">
<title>Node27&#45;&gt;Node28</title>
<g id="a_edge40_Node000027_Node000028"><a xlink:title=" ">
<path fill="none" stroke="#63b8ff" d="M754.82,-340.82C754.04,-326.48 753.92,-297.22 763.5,-275 789.78,-214.05 808.7,-200.94 864.5,-165 887.8,-149.99 916.86,-139.14 940.77,-131.91"/>
<polygon fill="#63b8ff" stroke="#63b8ff" points="942.04,-135.18 950.67,-129.03 940.09,-128.46 942.04,-135.18"/>
</a>
</g>
</g>
<!-- Node28&#45;&gt;Node21 -->
<g id="edge41_Node000028_Node000021" class="edge">
<title>Node28&#45;&gt;Node21</title>
<g id="a_edge41_Node000028_Node000021"><a xlink:title=" ">
<path fill="none" stroke="#63b8ff" d="M1003.37,-109.98C1020.11,-101.54 1046,-88.47 1065.39,-78.68"/>
<polygon fill="#63b8ff" stroke="#63b8ff" points="1066.97,-81.8 1074.32,-74.17 1063.82,-75.55 1066.97,-81.8"/>
</a>
</g>
</g>
<!-- Node28&#45;&gt;Node22 -->
<g id="edge43_Node000028_Node000022" class="edge">
<title>Node28&#45;&gt;Node22</title>
<g id="a_edge43_Node000028_Node000022"><a xlink:title=" ">
<path fill="none" stroke="#63b8ff" d="M1035.53,-110.22C1083.72,-101.53 1153.44,-87.31 1177.5,-74 1198.37,-62.46 1217.07,-42.16 1228.79,-27.62"/>
<polygon fill="#63b8ff" stroke="#63b8ff" points="1231.77,-29.48 1235.14,-19.44 1226.24,-25.19 1231.77,-29.48"/>
</a>
</g>
</g>
<!-- Node28&#45;&gt;Node23 -->
<g id="edge42_Node000028_Node000023" class="edge">
<title>Node28&#45;&gt;Node23</title>
<g id="a_edge42_Node000028_Node000023"><a xlink:title=" ">
<path fill="none" stroke="#63b8ff" d="M988.55,-109.66C992.61,-92.09 1001.79,-52.45 1007.23,-28.95"/>
<polygon fill="#63b8ff" stroke="#63b8ff" points="1010.65,-29.69 1009.5,-19.16 1003.83,-28.11 1010.65,-29.69"/>
</a>
</g>
</g>
</g>
</svg>
