<?xml version="1.0" encoding="UTF-8" standalone="no"?>
<!DOCTYPE svg PUBLIC "-//W3C//DTD SVG 1.1//EN"
 "http://www.w3.org/Graphics/SVG/1.1/DTD/svg11.dtd">
<!-- Generated by graphviz version 2.43.0 (0)
 -->
<!-- Title: Clipboard++/QClipboard/ClipboardListener.h Pages: 1 -->
<svg width="1007pt" height="115pt"
 viewBox="0.00 0.00 1007.00 115.00" xmlns="http://www.w3.org/2000/svg" xmlns:xlink="http://www.w3.org/1999/xlink">
<g id="graph0" class="graph" transform="scale(1 1) rotate(0) translate(4 111)">
<title>Clipboard++/QClipboard/ClipboardListener.h</title>
<!-- Node1 -->
<g id="Node000001" class="node">
<title>Node1</title>
<g id="a_Node000001"><a xlink:title=" ">
<polygon fill="#999999" stroke="#666666" points="525,-107 388,-107 388,-77 525,-77 525,-107"/>
<text text-anchor="start" x="396" y="-95" font-family="Helvetica,sans-Serif" font-size="10.00">Clipboard++/QClipboard</text>
<text text-anchor="middle" x="456.5" y="-84" font-family="Helvetica,sans-Serif" font-size="10.00">/ClipboardListener.h</text>
</a>
</g>
</g>
<!-- Node2 -->
<g id="Node000002" class="node">
<title>Node2</title>
<g id="a_Node000002"><a xlink:href="ClipboardXX_8cpp.html" target="_top" xlink:title=" ">
<polygon fill="white" stroke="#666666" points="163,-30 0,-30 0,-11 163,-11 163,-30"/>
<text text-anchor="middle" x="81.5" y="-18" font-family="Helvetica,sans-Serif" font-size="10.00">Clipboard++/ClipboardXX.cpp</text>
</a>
</g>
</g>
<!-- Node1&#45;&gt;Node2 -->
<g id="edge1_Node000001_Node000002" class="edge">
<title>Node1&#45;&gt;Node2</title>
<g id="a_edge1_Node000001_Node000002"><a xlink:title=" ">
<path fill="none" stroke="#63b8ff" d="M377.75,-78.05C320.44,-68.41 241.02,-54.62 171.5,-41 154.4,-37.65 135.54,-33.62 119.53,-30.09"/>
<polygon fill="#63b8ff" stroke="#63b8ff" points="377.39,-81.54 387.83,-79.74 378.55,-74.63 377.39,-81.54"/>
</a>
</g>
</g>
<!-- Node3 -->
<g id="Node000003" class="node">
<title>Node3</title>
<g id="a_Node000003"><a xlink:href="ClipboardListener_8cpp.html" target="_top" xlink:title=" ">
<polygon fill="white" stroke="#666666" points="318,-35.5 181,-35.5 181,-5.5 318,-5.5 318,-35.5"/>
<text text-anchor="start" x="189" y="-23.5" font-family="Helvetica,sans-Serif" font-size="10.00">Clipboard++/QClipboard</text>
<text text-anchor="middle" x="249.5" y="-12.5" font-family="Helvetica,sans-Serif" font-size="10.00">/ClipboardListener.cpp</text>
</a>
</g>
</g>
<!-- Node1&#45;&gt;Node3 -->
<g id="edge2_Node000001_Node000003" class="edge">
<title>Node1&#45;&gt;Node3</title>
<g id="a_edge2_Node000001_Node000003"><a xlink:title=" ">
<path fill="none" stroke="#63b8ff" d="M405.03,-73.72C369.96,-61.95 324.14,-46.56 291.33,-35.54"/>
<polygon fill="#63b8ff" stroke="#63b8ff" points="404.02,-77.07 414.61,-76.94 406.24,-70.43 404.02,-77.07"/>
</a>
</g>
</g>
<!-- Node4 -->
<g id="Node000004" class="node">
<title>Node4</title>
<g id="a_Node000004"><a xlink:href="AutoCopyEvent_8cpp.html" target="_top" xlink:title=" ">
<polygon fill="white" stroke="#666666" points="577,-35.5 336,-35.5 336,-5.5 577,-5.5 577,-35.5"/>
<text text-anchor="start" x="344" y="-23.5" font-family="Helvetica,sans-Serif" font-size="10.00">Clipboard++/RmlUI/EventHandlers</text>
<text text-anchor="middle" x="456.5" y="-12.5" font-family="Helvetica,sans-Serif" font-size="10.00">/Clipboard++Events/Main/AutoCopyEvent.cpp</text>
</a>
</g>
</g>
<!-- Node1&#45;&gt;Node4 -->
<g id="edge3_Node000001_Node000004" class="edge">
<title>Node1&#45;&gt;Node4</title>
<g id="a_edge3_Node000001_Node000004"><a xlink:title=" ">
<path fill="none" stroke="#63b8ff" d="M456.5,-66.75C456.5,-56.31 456.5,-44.49 456.5,-35.54"/>
<polygon fill="#63b8ff" stroke="#63b8ff" points="453,-66.94 456.5,-76.94 460,-66.94 453,-66.94"/>
</a>
</g>
</g>
<!-- Node5 -->
<g id="Node000005" class="node">
<title>Node5</title>
<g id="a_Node000005"><a xlink:href="CopyEvent_8cpp.html" target="_top" xlink:title=" ">
<polygon fill="white" stroke="#666666" points="788,-41 595,-41 595,0 788,0 788,-41"/>
<text text-anchor="start" x="603" y="-29" font-family="Helvetica,sans-Serif" font-size="10.00">Clipboard++/RmlUI/EventHandlers</text>
<text text-anchor="start" x="603" y="-18" font-family="Helvetica,sans-Serif" font-size="10.00">/Clipboard++Events/ShortCutsMenu</text>
<text text-anchor="middle" x="691.5" y="-7" font-family="Helvetica,sans-Serif" font-size="10.00">/CopyEvent.cpp</text>
</a>
</g>
</g>
<!-- Node1&#45;&gt;Node5 -->
<g id="edge4_Node000001_Node000005" class="edge">
<title>Node1&#45;&gt;Node5</title>
<g id="a_edge4_Node000001_Node000005"><a xlink:title=" ">
<path fill="none" stroke="#63b8ff" d="M513.75,-74.07C547.44,-64.11 590.19,-51.46 625.32,-41.07"/>
<polygon fill="#63b8ff" stroke="#63b8ff" points="512.65,-70.74 504.06,-76.94 514.64,-77.46 512.65,-70.74"/>
</a>
</g>
</g>
<!-- Node6 -->
<g id="Node000006" class="node">
<title>Node6</title>
<g id="a_Node000006"><a xlink:href="PasteEvent_8cpp.html" target="_top" xlink:title=" ">
<polygon fill="white" stroke="#666666" points="999,-41 806,-41 806,0 999,0 999,-41"/>
<text text-anchor="start" x="814" y="-29" font-family="Helvetica,sans-Serif" font-size="10.00">Clipboard++/RmlUI/EventHandlers</text>
<text text-anchor="start" x="814" y="-18" font-family="Helvetica,sans-Serif" font-size="10.00">/Clipboard++Events/ShortCutsMenu</text>
<text text-anchor="middle" x="902.5" y="-7" font-family="Helvetica,sans-Serif" font-size="10.00">/PasteEvent.cpp</text>
</a>
</g>
</g>
<!-- Node1&#45;&gt;Node6 -->
<g id="edge5_Node000001_Node000006" class="edge">
<title>Node1&#45;&gt;Node6</title>
<g id="a_edge5_Node000001_Node000006"><a xlink:title=" ">
<path fill="none" stroke="#63b8ff" d="M535.16,-80.33C604.36,-70.74 707.77,-55.91 797.5,-41 800.24,-40.54 803.03,-40.08 805.83,-39.6"/>
<polygon fill="#63b8ff" stroke="#63b8ff" points="534.63,-76.87 525.2,-81.71 535.58,-83.81 534.63,-76.87"/>
</a>
</g>
</g>
</g>
</svg>
