<?xml version="1.0" encoding="UTF-8" standalone="no"?>
<!DOCTYPE svg PUBLIC "-//W3C//DTD SVG 1.1//EN"
 "http://www.w3.org/Graphics/SVG/1.1/DTD/svg11.dtd">
<!-- Generated by graphviz version 2.43.0 (0)
 -->
<!-- Title: Clipboard++/RmlUI/EventHandlers/Clipboard++Events/ShortCutsMenu/CopyEvent.h Pages: 1 -->
<!--zoomable 335 -->

<svg id="main" version="1.1" xmlns="http://www.w3.org/2000/svg" xmlns:xlink="http://www.w3.org/1999/xlink" xml:space="preserve" onload="init(evt)">
<style type="text/css"><![CDATA[
.node, .edge {opacity: 0.7;}
.node.selected, .edge.selected {opacity: 1;}
.edge:hover path { stroke: red; }
.edge:hover polygon { stroke: red; fill: red; }
]]></style>

<defs>
  <circle id="rim" cx="0" cy="0" r="7"/>
  <circle id="rim2" cx="0" cy="0" r="3.5"/>
  <g id="zoomPlus">
    <use xlink:href="#rim" fill="#404040"><set attributeName="fill" to="#808080" begin="zoomplus.mouseover" end="zoomplus.mouseout"/></use>
    <path d="M-4,0h8M0,-4v8" fill="none" stroke="white" stroke-width="1.5" pointer-events="none"/>
  </g>
  <g id="zoomMin">
    <use xlink:href="#rim" fill="#404040"><set attributeName="fill" to="#808080" begin="zoomminus.mouseover" end="zoomminus.mouseout"/></use>
    <path d="M-4,0h8" fill="none" stroke="white" stroke-width="1.5" pointer-events="none"/>
  </g>
  <g id="arrowUp" transform="translate(30 24)">
    <use xlink:href="#rim"/>
    <path pointer-events="none" fill="none" stroke="white" stroke-width="1.5" d="M0,-3.0v7 M-2.5,-0.5L0,-3.0L2.5,-0.5"/>
  </g>
  <g id="arrowRight" transform="rotate(90) translate(36 -43)">
    <use xlink:href="#rim"/>
    <path pointer-events="none" fill="none" stroke="white" stroke-width="1.5" d="M0,-3.0v7 M-2.5,-0.5L0,-3.0L2.5,-0.5"/>
  </g>
  <g id="arrowDown" transform="rotate(180) translate(-30 -48)">
    <use xlink:href="#rim"/>
    <path pointer-events="none" fill="none" stroke="white" stroke-width="1.5" d="M0,-3.0v7 M-2.5,-0.5L0,-3.0L2.5,-0.5"/>
  </g>
  <g id="arrowLeft" transform="rotate(270) translate(-36 17)">
    <use xlink:href="#rim"/>
    <path pointer-events="none" fill="none" stroke="white" stroke-width="1.5" d="M0,-3.0v7 M-2.5,-0.5L0,-3.0L2.5,-0.5"/>
  </g>
  <g id="resetDef">
    <use xlink:href="#rim2" fill="#404040"><set attributeName="fill" to="#808080" begin="reset.mouseover" end="reset.mouseout"/></use>
  </g>
</defs>
<script type="application/ecmascript">
var viewWidth = 638;
var viewHeight = 335;
var sectionId = 'dynsection-0';
</script>
<script type="application/ecmascript" xlink:href="svg.min.js"/>
<svg id="graph" class="graph">
<g id="viewport">
<title>Clipboard++/RmlUI/EventHandlers/Clipboard++Events/ShortCutsMenu/CopyEvent.h</title>
<!-- Node1 -->
<g id="Node000001" class="node">
<title>Node1</title>
<g id="a_Node000001"><a xlink:title=" ">
<polygon fill="#999999" stroke="#666666" points="466,-327 273,-327 273,-286 466,-286 466,-327"/>
<text text-anchor="start" x="281" y="-315" font-family="Helvetica,sans-Serif" font-size="10.00">Clipboard++/RmlUI/EventHandlers</text>
<text text-anchor="start" x="281" y="-304" font-family="Helvetica,sans-Serif" font-size="10.00">/Clipboard++Events/ShortCutsMenu</text>
<text text-anchor="middle" x="369.5" y="-293" font-family="Helvetica,sans-Serif" font-size="10.00">/CopyEvent.h</text>
</a>
</g>
</g>
<!-- Node2 -->
<g id="Node000002" class="node">
<title>Node2</title>
<g id="a_Node000002"><a xlink:href="MemoryCellManager_8h.html" target="_top" xlink:title=" ">
<polygon fill="white" stroke="#666666" points="270.5,-250 132.5,-250 132.5,-220 270.5,-220 270.5,-250"/>
<text text-anchor="start" x="140.5" y="-238" font-family="Helvetica,sans-Serif" font-size="10.00">QClipboard/MemoryCells</text>
<text text-anchor="middle" x="201.5" y="-227" font-family="Helvetica,sans-Serif" font-size="10.00">/MemoryCellManager.h</text>
</a>
</g>
</g>
<!-- Node1&#45;&gt;Node2 -->
<g id="edge1_Node000001_Node000002" class="edge">
<title>Node1&#45;&gt;Node2</title>
<g id="a_edge1_Node000001_Node000002"><a xlink:title=" ">
<path fill="none" stroke="#63b8ff" d="M322.26,-285.96C297.95,-275.9 268.52,-263.73 244.8,-253.91"/>
<polygon fill="#63b8ff" stroke="#63b8ff" points="245.93,-250.59 235.35,-250 243.25,-257.06 245.93,-250.59"/>
</a>
</g>
</g>
<!-- Node12 -->
<g id="Node000012" class="node">
<title>Node12</title>
<g id="a_Node000012"><a xlink:href="WindowFocusEvent_8h.html" target="_top" xlink:title=" ">
<polygon fill="white" stroke="#666666" points="429.5,-244.5 309.5,-244.5 309.5,-225.5 429.5,-225.5 429.5,-244.5"/>
<text text-anchor="middle" x="369.5" y="-232.5" font-family="Helvetica,sans-Serif" font-size="10.00">WindowFocusEvent.h</text>
</a>
</g>
</g>
<!-- Node1&#45;&gt;Node12 -->
<g id="edge14_Node000001_Node000012" class="edge">
<title>Node1&#45;&gt;Node12</title>
<g id="a_edge14_Node000001_Node000012"><a xlink:title=" ">
<path fill="none" stroke="#63b8ff" d="M369.5,-285.77C369.5,-276.08 369.5,-264.46 369.5,-254.88"/>
<polygon fill="#63b8ff" stroke="#63b8ff" points="373,-254.82 369.5,-244.82 366,-254.82 373,-254.82"/>
</a>
</g>
</g>
<!-- Node16 -->
<g id="Node000016" class="node">
<title>Node16</title>
<g id="a_Node000016"><a xlink:title=" ">
<polygon fill="#e0e0e0" stroke="#999999" points="515.5,-244.5 447.5,-244.5 447.5,-225.5 515.5,-225.5 515.5,-244.5"/>
<text text-anchor="middle" x="481.5" y="-232.5" font-family="Helvetica,sans-Serif" font-size="10.00">windows.h</text>
</a>
</g>
</g>
<!-- Node1&#45;&gt;Node16 -->
<g id="edge18_Node000001_Node000016" class="edge">
<title>Node1&#45;&gt;Node16</title>
<g id="a_edge18_Node000001_Node000016"><a xlink:title=" ">
<path fill="none" stroke="#63b8ff" d="M401,-285.96C419.56,-274.44 442.59,-260.14 459.26,-249.8"/>
<polygon fill="#63b8ff" stroke="#63b8ff" points="461.14,-252.75 467.8,-244.5 457.45,-246.8 461.14,-252.75"/>
</a>
</g>
</g>
<!-- Node3 -->
<g id="Node000003" class="node">
<title>Node3</title>
<g id="a_Node000003"><a xlink:href="ClipboardInterface_8h.html" target="_top" xlink:title=" ">
<polygon fill="white" stroke="#666666" points="306.5,-129 190.5,-129 190.5,-110 306.5,-110 306.5,-129"/>
<text text-anchor="middle" x="248.5" y="-117" font-family="Helvetica,sans-Serif" font-size="10.00">ClipboardInterface.h</text>
</a>
</g>
</g>
<!-- Node2&#45;&gt;Node3 -->
<g id="edge2_Node000002_Node000003" class="edge">
<title>Node2&#45;&gt;Node3</title>
<g id="a_edge2_Node000002_Node000003"><a xlink:title=" ">
<path fill="none" stroke="#63b8ff" d="M215.33,-219.94C223.73,-210.55 233.87,-197.48 239.5,-184 245.47,-169.69 247.61,-152.17 248.32,-139.16"/>
<polygon fill="#63b8ff" stroke="#63b8ff" points="251.82,-139.18 248.63,-129.08 244.82,-138.96 251.82,-139.18"/>
</a>
</g>
</g>
<!-- Node6 -->
<g id="Node000006" class="node">
<title>Node6</title>
<g id="a_Node000006"><a xlink:title=" ">
<polygon fill="#e0e0e0" stroke="#999999" points="47,-19 0,-19 0,0 47,0 47,-19"/>
<text text-anchor="middle" x="23.5" y="-7" font-family="Helvetica,sans-Serif" font-size="10.00">vector</text>
</a>
</g>
</g>
<!-- Node2&#45;&gt;Node6 -->
<g id="edge12_Node000002_Node000006" class="edge">
<title>Node2&#45;&gt;Node6</title>
<g id="a_edge12_Node000002_Node000006"><a xlink:title=" ">
<path fill="none" stroke="#63b8ff" d="M132.19,-227.95C99.11,-221.69 61.23,-209.13 35.5,-184 -6.21,-143.26 8.17,-65.27 17.76,-29.4"/>
<polygon fill="#63b8ff" stroke="#63b8ff" points="21.26,-29.91 20.63,-19.33 14.52,-27.99 21.26,-29.91"/>
</a>
</g>
</g>
<!-- Node8 -->
<g id="Node000008" class="node">
<title>Node8</title>
<g id="a_Node000008"><a xlink:href="ClipboardAdapter_8h.html" target="_top" xlink:title=" ">
<polygon fill="white" stroke="#666666" points="154.5,-184 44.5,-184 44.5,-165 154.5,-165 154.5,-184"/>
<text text-anchor="middle" x="99.5" y="-172" font-family="Helvetica,sans-Serif" font-size="10.00">ClipboardAdapter.h</text>
</a>
</g>
</g>
<!-- Node2&#45;&gt;Node8 -->
<g id="edge8_Node000002_Node000008" class="edge">
<title>Node2&#45;&gt;Node8</title>
<g id="a_edge8_Node000002_Node000008"><a xlink:title=" ">
<path fill="none" stroke="#63b8ff" d="M177.07,-219.99C160.81,-210.66 139.55,-198.47 123.4,-189.21"/>
<polygon fill="#63b8ff" stroke="#63b8ff" points="124.98,-186.08 114.56,-184.14 121.5,-192.15 124.98,-186.08"/>
</a>
</g>
</g>
<!-- Node11 -->
<g id="Node000011" class="node">
<title>Node11</title>
<g id="a_Node000011"><a xlink:title=" ">
<polygon fill="#e0e0e0" stroke="#999999" points="230.5,-184 172.5,-184 172.5,-165 230.5,-165 230.5,-184"/>
<text text-anchor="middle" x="201.5" y="-172" font-family="Helvetica,sans-Serif" font-size="10.00">memory</text>
</a>
</g>
</g>
<!-- Node2&#45;&gt;Node11 -->
<g id="edge13_Node000002_Node000011" class="edge">
<title>Node2&#45;&gt;Node11</title>
<g id="a_edge13_Node000002_Node000011"><a xlink:title=" ">
<path fill="none" stroke="#63b8ff" d="M201.5,-219.84C201.5,-212.21 201.5,-202.7 201.5,-194.45"/>
<polygon fill="#63b8ff" stroke="#63b8ff" points="205,-194.27 201.5,-184.27 198,-194.27 205,-194.27"/>
</a>
</g>
</g>
<!-- Node4 -->
<g id="Node000004" class="node">
<title>Node4</title>
<g id="a_Node000004"><a xlink:title=" ">
<polygon fill="#e0e0e0" stroke="#999999" points="265.5,-19 221.5,-19 221.5,0 265.5,0 265.5,-19"/>
<text text-anchor="middle" x="243.5" y="-7" font-family="Helvetica,sans-Serif" font-size="10.00">string</text>
</a>
</g>
</g>
<!-- Node3&#45;&gt;Node4 -->
<g id="edge3_Node000003_Node000004" class="edge">
<title>Node3&#45;&gt;Node4</title>
<g id="a_edge3_Node000003_Node000004"><a xlink:title=" ">
<path fill="none" stroke="#63b8ff" d="M248.09,-109.66C247.28,-92.17 245.46,-52.8 244.37,-29.27"/>
<polygon fill="#63b8ff" stroke="#63b8ff" points="247.86,-28.99 243.9,-19.16 240.87,-29.31 247.86,-28.99"/>
</a>
</g>
</g>
<!-- Node5 -->
<g id="Node000005" class="node">
<title>Node5</title>
<g id="a_Node000005"><a xlink:href="KeyShortCut_8h.html" target="_top" xlink:title=" ">
<polygon fill="white" stroke="#666666" points="220.5,-74 66.5,-74 66.5,-55 220.5,-55 220.5,-74"/>
<text text-anchor="middle" x="143.5" y="-62" font-family="Helvetica,sans-Serif" font-size="10.00">KeyShortCuts/KeyShortCut.h</text>
</a>
</g>
</g>
<!-- Node3&#45;&gt;Node5 -->
<g id="edge4_Node000003_Node000005" class="edge">
<title>Node3&#45;&gt;Node5</title>
<g id="a_edge4_Node000003_Node000005"><a xlink:title=" ">
<path fill="none" stroke="#63b8ff" d="M231.63,-109.98C214.89,-101.54 189,-88.47 169.61,-78.68"/>
<polygon fill="#63b8ff" stroke="#63b8ff" points="171.18,-75.55 160.68,-74.17 168.03,-81.8 171.18,-75.55"/>
</a>
</g>
</g>
<!-- Node5&#45;&gt;Node4 -->
<g id="edge6_Node000005_Node000004" class="edge">
<title>Node5&#45;&gt;Node4</title>
<g id="a_edge6_Node000005_Node000004"><a xlink:title=" ">
<path fill="none" stroke="#63b8ff" d="M159.57,-54.98C175.36,-46.61 199.72,-33.7 218.13,-23.95"/>
<polygon fill="#63b8ff" stroke="#63b8ff" points="219.94,-26.95 227.14,-19.17 216.67,-20.76 219.94,-26.95"/>
</a>
</g>
</g>
<!-- Node5&#45;&gt;Node6 -->
<g id="edge5_Node000005_Node000006" class="edge">
<title>Node5&#45;&gt;Node6</title>
<g id="a_edge5_Node000005_Node000006"><a xlink:title=" ">
<path fill="none" stroke="#63b8ff" d="M124.22,-54.98C104.83,-46.42 74.69,-33.11 52.43,-23.28"/>
<polygon fill="#63b8ff" stroke="#63b8ff" points="53.69,-20.01 43.13,-19.17 50.86,-26.41 53.69,-20.01"/>
</a>
</g>
</g>
<!-- Node7 -->
<g id="Node000007" class="node">
<title>Node7</title>
<g id="a_Node000007"><a xlink:title=" ">
<polygon fill="#e0e0e0" stroke="#999999" points="198,-19 89,-19 89,0 198,0 198,-19"/>
<text text-anchor="middle" x="143.5" y="-7" font-family="Helvetica,sans-Serif" font-size="10.00">RmlUi/Core/Input.h</text>
</a>
</g>
</g>
<!-- Node5&#45;&gt;Node7 -->
<g id="edge7_Node000005_Node000007" class="edge">
<title>Node5&#45;&gt;Node7</title>
<g id="a_edge7_Node000005_Node000007"><a xlink:title=" ">
<path fill="none" stroke="#63b8ff" d="M143.5,-54.75C143.5,-47.8 143.5,-37.85 143.5,-29.13"/>
<polygon fill="#63b8ff" stroke="#63b8ff" points="147,-29.09 143.5,-19.09 140,-29.09 147,-29.09"/>
</a>
</g>
</g>
<!-- Node8&#45;&gt;Node3 -->
<g id="edge9_Node000008_Node000003" class="edge">
<title>Node8&#45;&gt;Node3</title>
<g id="a_edge9_Node000008_Node000003"><a xlink:title=" ">
<path fill="none" stroke="#63b8ff" d="M123.44,-164.98C148.06,-156.23 186.62,-142.51 214.42,-132.62"/>
<polygon fill="#63b8ff" stroke="#63b8ff" points="215.88,-135.82 224.12,-129.17 213.53,-129.22 215.88,-135.82"/>
</a>
</g>
</g>
<!-- Node9 -->
<g id="Node000009" class="node">
<title>Node9</title>
<g id="a_Node000009"><a xlink:title=" ">
<polygon fill="#e0e0e0" stroke="#999999" points="172,-129 101,-129 101,-110 172,-110 172,-129"/>
<text text-anchor="middle" x="136.5" y="-117" font-family="Helvetica,sans-Serif" font-size="10.00">QClipboard</text>
</a>
</g>
</g>
<!-- Node8&#45;&gt;Node9 -->
<g id="edge10_Node000008_Node000009" class="edge">
<title>Node8&#45;&gt;Node9</title>
<g id="a_edge10_Node000008_Node000009"><a xlink:title=" ">
<path fill="none" stroke="#63b8ff" d="M105.61,-164.75C110.78,-157.34 118.35,-146.5 124.69,-137.41"/>
<polygon fill="#63b8ff" stroke="#63b8ff" points="127.65,-139.29 130.5,-129.09 121.91,-135.29 127.65,-139.29"/>
</a>
</g>
</g>
<!-- Node10 -->
<g id="Node000010" class="node">
<title>Node10</title>
<g id="a_Node000010"><a xlink:title=" ">
<polygon fill="#e0e0e0" stroke="#999999" points="82.5,-129 26.5,-129 26.5,-110 82.5,-110 82.5,-129"/>
<text text-anchor="middle" x="54.5" y="-117" font-family="Helvetica,sans-Serif" font-size="10.00">QObject</text>
</a>
</g>
</g>
<!-- Node8&#45;&gt;Node10 -->
<g id="edge11_Node000008_Node000010" class="edge">
<title>Node8&#45;&gt;Node10</title>
<g id="a_edge11_Node000008_Node000010"><a xlink:title=" ">
<path fill="none" stroke="#63b8ff" d="M92.07,-164.75C85.65,-157.18 76.19,-146.05 68.38,-136.84"/>
<polygon fill="#63b8ff" stroke="#63b8ff" points="70.93,-134.45 61.79,-129.09 65.6,-138.98 70.93,-134.45"/>
</a>
</g>
</g>
<!-- Node13 -->
<g id="Node000013" class="node">
<title>Node13</title>
<g id="a_Node000013"><a xlink:href="Clipboard_09_09Event_8h.html" target="_top" xlink:title=" ">
<polygon fill="white" stroke="#666666" points="438.5,-184 322.5,-184 322.5,-165 438.5,-165 438.5,-184"/>
<text text-anchor="middle" x="380.5" y="-172" font-family="Helvetica,sans-Serif" font-size="10.00">Clipboard++Event.h</text>
</a>
</g>
</g>
<!-- Node12&#45;&gt;Node13 -->
<g id="edge15_Node000012_Node000013" class="edge">
<title>Node12&#45;&gt;Node13</title>
<g id="a_edge15_Node000012_Node000013"><a xlink:title=" ">
<path fill="none" stroke="#63b8ff" d="M371.12,-225.37C372.67,-217.16 375.04,-204.54 377.01,-194.05"/>
<polygon fill="#63b8ff" stroke="#63b8ff" points="380.46,-194.64 378.87,-184.17 373.58,-193.35 380.46,-194.64"/>
</a>
</g>
</g>
<!-- Node14 -->
<g id="Node000014" class="node">
<title>Node14</title>
<g id="a_Node000014"><a xlink:title=" ">
<polygon fill="#e0e0e0" stroke="#999999" points="436.5,-129 324.5,-129 324.5,-110 436.5,-110 436.5,-129"/>
<text text-anchor="middle" x="380.5" y="-117" font-family="Helvetica,sans-Serif" font-size="10.00">RmlUi/Core/Types.h</text>
</a>
</g>
</g>
<!-- Node13&#45;&gt;Node14 -->
<g id="edge16_Node000013_Node000014" class="edge">
<title>Node13&#45;&gt;Node14</title>
<g id="a_edge16_Node000013_Node000014"><a xlink:title=" ">
<path fill="none" stroke="#63b8ff" d="M380.5,-164.75C380.5,-157.8 380.5,-147.85 380.5,-139.13"/>
<polygon fill="#63b8ff" stroke="#63b8ff" points="384,-139.09 380.5,-129.09 377,-139.09 384,-139.09"/>
</a>
</g>
</g>
<!-- Node15 -->
<g id="Node000015" class="node">
<title>Node15</title>
<g id="a_Node000015"><a xlink:title=" ">
<polygon fill="#e0e0e0" stroke="#999999" points="630,-129 455,-129 455,-110 630,-110 630,-129"/>
<text text-anchor="middle" x="542.5" y="-117" font-family="Helvetica,sans-Serif" font-size="10.00">RmlUi/Core/ElementDocument.h</text>
</a>
</g>
</g>
<!-- Node13&#45;&gt;Node15 -->
<g id="edge17_Node000013_Node000015" class="edge">
<title>Node13&#45;&gt;Node15</title>
<g id="a_edge17_Node000013_Node000015"><a xlink:title=" ">
<path fill="none" stroke="#63b8ff" d="M406.53,-164.98C433.61,-156.13 476.21,-142.19 506.51,-132.28"/>
<polygon fill="#63b8ff" stroke="#63b8ff" points="507.85,-135.52 516.27,-129.08 505.68,-128.87 507.85,-135.52"/>
</a>
</g>
</g>
</g>
</svg>

<g id="navigator" transform="translate(0 0)" fill="#404254">
  <rect fill="#f2f5e9" fill-opacity="0.5" stroke="#606060" stroke-width=".5" x="0" y="0" width="60" height="60"/>
  <use id="zoomplus" xlink:href="#zoomPlus" x="17" y="9" onmousedown="handleZoom(evt,'in')"/>
  <use id="zoomminus" xlink:href="#zoomMin" x="42" y="9" onmousedown="handleZoom(evt,'out')"/>
  <use id="reset" xlink:href="#resetDef" x="30" y="36" onmousedown="handleReset()"/>
   <use id="arrowup" xlink:href="#arrowUp" x="0" y="0" onmousedown="handlePan(0,-1)"/>
  <use id="arrowright" xlink:href="#arrowRight" x="0" y="0" onmousedown="handlePan(1,0)"/>
  <use id="arrowdown" xlink:href="#arrowDown" x="0" y="0" onmousedown="handlePan(0,1)"/>
  <use id="arrowleft" xlink:href="#arrowLeft" x="0" y="0" onmousedown="handlePan(-1,0)"/>
</g>
<svg viewBox="0 0 15 15" width="100%" height="30px" preserveAspectRatio="xMaxYMin meet">
 <g id="arrow_out" transform="scale(0.3 0.3)">
  <a xlink:href="CopyEvent_8h__incl_org.svg" target="_base">
   <rect id="button" ry="5" rx="5" y="6" x="6" height="38" width="38"
        fill="#f2f5e9" fill-opacity="0.5" stroke="#606060" stroke-width="1.0"/>
   <path id="arrow"
     d="M 11.500037,31.436501 C 11.940474,20.09759 22.043105,11.32322 32.158766,21.979434 L 37.068811,17.246167 C 37.068811,17.246167 37.088388,32 37.088388,32 L 22.160133,31.978069 C 22.160133,31.978069 26.997745,27.140456 26.997745,27.140456 C 18.528582,18.264221 13.291696,25.230495 11.500037,31.436501 z"
     style="fill:#404040;"/>
  </a>
 </g>
</svg>

<style type='text/css'>
<![CDATA[
[data-mouse-over-selected='false'] { opacity: 0.7; }
[data-mouse-over-selected='true']  { opacity: 1.0; }
]]>
</style>
<script type="application/ecmascript"><![CDATA[
document.addEventListener('DOMContentLoaded', (event) => {
  highlightEdges();
  highlightAdjacentNodes();
});
]]></script>
</svg>
