<?xml version="1.0" encoding="UTF-8" standalone="no"?>
<!DOCTYPE svg PUBLIC "-//W3C//DTD SVG 1.1//EN"
 "http://www.w3.org/Graphics/SVG/1.1/DTD/svg11.dtd">
<!-- Generated by graphviz version 2.43.0 (0)
 -->
<!-- Title: Clipboard++/RmlUI/EventHandlers/Clipboard++Events Pages: 1 -->
<svg width="525pt" height="125pt"
 viewBox="0.00 0.00 525.00 125.00" xmlns="http://www.w3.org/2000/svg" xmlns:xlink="http://www.w3.org/1999/xlink">
<g id="graph0" class="graph" transform="scale(1 1) rotate(0) translate(4 121)">
<title>Clipboard++/RmlUI/EventHandlers/Clipboard++Events</title>
<g id="clust1" class="cluster">
<title>clusterdir_46a321a3e6535e2a38773c44e65bb94a</title>
<g id="a_clust1"><a xlink:href="dir_46a321a3e6535e2a38773c44e65bb94a.html" target="_top" xlink:title="EventHandlers">
<polygon fill="#edf0f7" stroke="#7f7f7f" stroke-dasharray="5,2" points="8,-39 8,-109 509,-109 509,-39 8,-39"/>
<text text-anchor="middle" x="258.5" y="-97" font-family="Helvetica,sans-Serif" font-size="10.00">EventHandlers</text>
</a>
</g>
</g>
<g id="clust2" class="cluster">
<title>clusterdir_48e93611974c9ac0d48c6bd3a13b1806</title>
<g id="a_clust2"><a xlink:href="dir_48e93611974c9ac0d48c6bd3a13b1806.html" target="_top">
<polygon fill="#edf0f7" stroke="#404040" stroke-width="2" points="16,-47 16,-82 501,-82 501,-47 16,-47"/>
</a>
</g>
</g>
<!-- dir_48e93611974c9ac0d48c6bd3a13b1806 -->
<g id="node1" class="node">
<title>dir_48e93611974c9ac0d48c6bd3a13b1806</title>
<text text-anchor="middle" x="436" y="-62" font-family="Helvetica,sans-Serif" font-size="10.00">Clipboard++Events</text>
</g>
<!-- dir_dcac548670306a081e6bca009dc4d6c8 -->
<g id="node2" class="node">
<title>dir_dcac548670306a081e6bca009dc4d6c8</title>
<g id="a_node2"><a xlink:href="dir_dcac548670306a081e6bca009dc4d6c8.html" target="_top" xlink:title="Edit">
<polygon fill="#e6eaf4" stroke="#404040" points="252.5,-74 217.5,-74 217.5,-55 252.5,-55 252.5,-74"/>
<text text-anchor="middle" x="235" y="-62" font-family="Helvetica,sans-Serif" font-size="10.00">Edit</text>
</a>
</g>
</g>
<!-- dir_6f29a4b32d9057ae4debdc4b5d0901fc -->
<g id="node7" class="node">
<title>dir_6f29a4b32d9057ae4debdc4b5d0901fc</title>
<g id="a_node7"><a xlink:href="dir_6f29a4b32d9057ae4debdc4b5d0901fc.html" target="_top" xlink:title="QClipboard">
<polygon fill="#edf0f7" stroke="red" stroke-dasharray="5,2" points="219.5,-19 148.5,-19 148.5,0 219.5,0 219.5,-19"/>
<text text-anchor="middle" x="184" y="-7" font-family="Helvetica,sans-Serif" font-size="10.00">QClipboard</text>
</a>
</g>
</g>
<!-- dir_dcac548670306a081e6bca009dc4d6c8&#45;&gt;dir_6f29a4b32d9057ae4debdc4b5d0901fc -->
<g id="edge2" class="edge">
<title>dir_dcac548670306a081e6bca009dc4d6c8&#45;&gt;dir_6f29a4b32d9057ae4debdc4b5d0901fc</title>
<g id="a_edge2"><a xlink:href="dir_000003_000013.html" target="_top">
<path fill="none" stroke="#63b8ff" d="M226.58,-54.75C219.23,-47.11 208.37,-35.82 199.46,-26.56"/>
<polygon fill="#63b8ff" stroke="#63b8ff" points="201.72,-23.87 192.26,-19.09 196.68,-28.72 201.72,-23.87"/>
</a>
</g>
<g id="a_edge2&#45;headlabel"><a xlink:href="dir_000003_000013.html" target="_top" xlink:title="3">
<text text-anchor="middle" x="206.26" y="-21.99" font-family="Helvetica,sans-Serif" font-size="10.00" fill="#63b8ff">3</text>
</a>
</g>
</g>
<!-- dir_618b8582e55c59a9f1a21aa204c6b424 -->
<g id="node8" class="node">
<title>dir_618b8582e55c59a9f1a21aa204c6b424</title>
<g id="a_node8"><a xlink:href="dir_618b8582e55c59a9f1a21aa204c6b424.html" target="_top" xlink:title="ViewModels">
<polygon fill="#edf0f7" stroke="#7f7f7f" points="314,-19 238,-19 238,0 314,0 314,-19"/>
<text text-anchor="middle" x="276" y="-7" font-family="Helvetica,sans-Serif" font-size="10.00">ViewModels</text>
</a>
</g>
</g>
<!-- dir_dcac548670306a081e6bca009dc4d6c8&#45;&gt;dir_618b8582e55c59a9f1a21aa204c6b424 -->
<g id="edge1" class="edge">
<title>dir_dcac548670306a081e6bca009dc4d6c8&#45;&gt;dir_618b8582e55c59a9f1a21aa204c6b424</title>
<g id="a_edge1"><a xlink:href="dir_000003_000019.html" target="_top">
<path fill="none" stroke="#63b8ff" d="M241.77,-54.75C247.56,-47.26 256.06,-36.28 263.14,-27.13"/>
<polygon fill="#63b8ff" stroke="#63b8ff" points="266.01,-29.14 269.36,-19.09 260.47,-24.86 266.01,-29.14"/>
</a>
</g>
<g id="a_edge1&#45;headlabel"><a xlink:href="dir_000003_000019.html" target="_top" xlink:title="3">
<text text-anchor="middle" x="266.05" y="-31.22" font-family="Helvetica,sans-Serif" font-size="10.00" fill="#63b8ff">3</text>
</a>
</g>
</g>
<!-- dir_7bd88421239db40e627c58863c626314 -->
<g id="node9" class="node">
<title>dir_7bd88421239db40e627c58863c626314</title>
<g id="a_node9"><a xlink:href="dir_7bd88421239db40e627c58863c626314.html" target="_top" xlink:title="Utils">
<polygon fill="#edf0f7" stroke="#7f7f7f" points="130.5,-19 91.5,-19 91.5,0 130.5,0 130.5,-19"/>
<text text-anchor="middle" x="111" y="-7" font-family="Helvetica,sans-Serif" font-size="10.00">Utils</text>
</a>
</g>
</g>
<!-- dir_dcac548670306a081e6bca009dc4d6c8&#45;&gt;dir_7bd88421239db40e627c58863c626314 -->
<g id="edge3" class="edge">
<title>dir_dcac548670306a081e6bca009dc4d6c8&#45;&gt;dir_7bd88421239db40e627c58863c626314</title>
<g id="a_edge3"><a xlink:href="dir_000003_000018.html" target="_top">
<path fill="none" stroke="#63b8ff" d="M227.27,-54.69C222.24,-49.46 215.29,-43.08 208,-39 182.63,-24.83 171.64,-27.41 140.44,-19.24"/>
<polygon fill="#63b8ff" stroke="#63b8ff" points="141.15,-15.8 130.57,-16.48 139.26,-22.54 141.15,-15.8"/>
</a>
</g>
<g id="a_edge3&#45;headlabel"><a xlink:href="dir_000003_000018.html" target="_top" xlink:title="2">
<text text-anchor="middle" x="145.37" y="-11.54" font-family="Helvetica,sans-Serif" font-size="10.00" fill="#63b8ff">2</text>
</a>
</g>
</g>
<!-- dir_b35abc2667a853eec39e3ef2ebdbaa6c -->
<g id="node3" class="node">
<title>dir_b35abc2667a853eec39e3ef2ebdbaa6c</title>
<g id="a_node3"><a xlink:href="dir_b35abc2667a853eec39e3ef2ebdbaa6c.html" target="_top" xlink:title="Export">
<polygon fill="#e6eaf4" stroke="#404040" points="140,-74 92,-74 92,-55 140,-55 140,-74"/>
<text text-anchor="middle" x="116" y="-62" font-family="Helvetica,sans-Serif" font-size="10.00">Export</text>
</a>
</g>
</g>
<!-- dir_b35abc2667a853eec39e3ef2ebdbaa6c&#45;&gt;dir_6f29a4b32d9057ae4debdc4b5d0901fc -->
<g id="edge4" class="edge">
<title>dir_b35abc2667a853eec39e3ef2ebdbaa6c&#45;&gt;dir_6f29a4b32d9057ae4debdc4b5d0901fc</title>
<g id="a_edge4"><a xlink:href="dir_000006_000013.html" target="_top">
<path fill="none" stroke="#63b8ff" d="M126.93,-54.98C137.08,-47.07 152.42,-35.11 164.65,-25.58"/>
<polygon fill="#63b8ff" stroke="#63b8ff" points="167.14,-28.08 172.88,-19.17 162.84,-22.56 167.14,-28.08"/>
</a>
</g>
<g id="a_edge4&#45;headlabel"><a xlink:href="dir_000006_000013.html" target="_top" xlink:title="1">
<text text-anchor="middle" x="166.05" y="-30.03" font-family="Helvetica,sans-Serif" font-size="10.00" fill="#63b8ff">1</text>
</a>
</g>
</g>
<!-- dir_b35abc2667a853eec39e3ef2ebdbaa6c&#45;&gt;dir_7bd88421239db40e627c58863c626314 -->
<g id="edge5" class="edge">
<title>dir_b35abc2667a853eec39e3ef2ebdbaa6c&#45;&gt;dir_7bd88421239db40e627c58863c626314</title>
<g id="a_edge5"><a xlink:href="dir_000006_000018.html" target="_top">
<path fill="none" stroke="#63b8ff" d="M115.17,-54.75C114.52,-47.8 113.58,-37.85 112.76,-29.13"/>
<polygon fill="#63b8ff" stroke="#63b8ff" points="116.23,-28.72 111.81,-19.09 109.27,-29.37 116.23,-28.72"/>
</a>
</g>
<g id="a_edge5&#45;headlabel"><a xlink:href="dir_000006_000018.html" target="_top" xlink:title="6">
<text text-anchor="middle" x="119.4" y="-29.53" font-family="Helvetica,sans-Serif" font-size="10.00" fill="#63b8ff">6</text>
</a>
</g>
</g>
<!-- dir_9824bf167b80be7f252573457e89ec80 -->
<g id="node4" class="node">
<title>dir_9824bf167b80be7f252573457e89ec80</title>
<g id="a_node4"><a xlink:href="dir_9824bf167b80be7f252573457e89ec80.html" target="_top" xlink:title="Import">
<polygon fill="#e6eaf4" stroke="#404040" points="73.5,-74 24.5,-74 24.5,-55 73.5,-55 73.5,-74"/>
<text text-anchor="middle" x="49" y="-62" font-family="Helvetica,sans-Serif" font-size="10.00">Import</text>
</a>
</g>
</g>
<!-- dir_9824bf167b80be7f252573457e89ec80&#45;&gt;dir_6f29a4b32d9057ae4debdc4b5d0901fc -->
<g id="edge6" class="edge">
<title>dir_9824bf167b80be7f252573457e89ec80&#45;&gt;dir_6f29a4b32d9057ae4debdc4b5d0901fc</title>
<g id="a_edge6"><a xlink:href="dir_000008_000013.html" target="_top">
<path fill="none" stroke="#63b8ff" d="M58.82,-55C65.32,-49.75 74.22,-43.24 83,-39 100.28,-30.66 120.44,-24.36 138.18,-19.83"/>
<polygon fill="#63b8ff" stroke="#63b8ff" points="139.42,-23.13 148.31,-17.36 137.77,-16.33 139.42,-23.13"/>
</a>
</g>
<g id="a_edge6&#45;headlabel"><a xlink:href="dir_000008_000013.html" target="_top" xlink:title="1">
<text text-anchor="middle" x="136.6" y="-24.24" font-family="Helvetica,sans-Serif" font-size="10.00" fill="#63b8ff">1</text>
</a>
</g>
</g>
<!-- dir_9824bf167b80be7f252573457e89ec80&#45;&gt;dir_7bd88421239db40e627c58863c626314 -->
<g id="edge7" class="edge">
<title>dir_9824bf167b80be7f252573457e89ec80&#45;&gt;dir_7bd88421239db40e627c58863c626314</title>
<g id="a_edge7"><a xlink:href="dir_000008_000018.html" target="_top">
<path fill="none" stroke="#63b8ff" d="M58.96,-54.98C68.13,-47.15 81.94,-35.34 93.03,-25.86"/>
<polygon fill="#63b8ff" stroke="#63b8ff" points="95.53,-28.33 100.86,-19.17 90.98,-23.01 95.53,-28.33"/>
</a>
</g>
<g id="a_edge7&#45;headlabel"><a xlink:href="dir_000008_000018.html" target="_top" xlink:title="6">
<text text-anchor="middle" x="94.64" y="-30.32" font-family="Helvetica,sans-Serif" font-size="10.00" fill="#63b8ff">6</text>
</a>
</g>
</g>
<!-- dir_68e71d09a89b7c1604c2fedae08a7a48 -->
<g id="node5" class="node">
<title>dir_68e71d09a89b7c1604c2fedae08a7a48</title>
<g id="a_node5"><a xlink:href="dir_68e71d09a89b7c1604c2fedae08a7a48.html" target="_top" xlink:title="Main">
<polygon fill="#e6eaf4" stroke="#404040" points="199.5,-74 158.5,-74 158.5,-55 199.5,-55 199.5,-74"/>
<text text-anchor="middle" x="179" y="-62" font-family="Helvetica,sans-Serif" font-size="10.00">Main</text>
</a>
</g>
</g>
<!-- dir_68e71d09a89b7c1604c2fedae08a7a48&#45;&gt;dir_6f29a4b32d9057ae4debdc4b5d0901fc -->
<g id="edge8" class="edge">
<title>dir_68e71d09a89b7c1604c2fedae08a7a48&#45;&gt;dir_6f29a4b32d9057ae4debdc4b5d0901fc</title>
<g id="a_edge8"><a xlink:href="dir_000011_000013.html" target="_top">
<path fill="none" stroke="#63b8ff" d="M179.83,-54.75C180.48,-47.8 181.42,-37.85 182.24,-29.13"/>
<polygon fill="#63b8ff" stroke="#63b8ff" points="185.73,-29.37 183.19,-19.09 178.77,-28.72 185.73,-29.37"/>
</a>
</g>
<g id="a_edge8&#45;headlabel"><a xlink:href="dir_000011_000013.html" target="_top" xlink:title="7">
<text text-anchor="middle" x="188.22" y="-30.72" font-family="Helvetica,sans-Serif" font-size="10.00" fill="#63b8ff">7</text>
</a>
</g>
</g>
<!-- dir_68e71d09a89b7c1604c2fedae08a7a48&#45;&gt;dir_7bd88421239db40e627c58863c626314 -->
<g id="edge9" class="edge">
<title>dir_68e71d09a89b7c1604c2fedae08a7a48&#45;&gt;dir_7bd88421239db40e627c58863c626314</title>
<g id="a_edge9"><a xlink:href="dir_000011_000018.html" target="_top">
<path fill="none" stroke="#63b8ff" d="M168.53,-54.78C162.81,-50.05 155.57,-44.14 149,-39 143.15,-34.42 136.72,-29.54 130.83,-25.13"/>
<polygon fill="#63b8ff" stroke="#63b8ff" points="132.85,-22.27 122.74,-19.11 128.67,-27.89 132.85,-22.27"/>
</a>
</g>
<g id="a_edge9&#45;headlabel"><a xlink:href="dir_000011_000018.html" target="_top" xlink:title="1">
<text text-anchor="middle" x="137.43" y="-19.64" font-family="Helvetica,sans-Serif" font-size="10.00" fill="#63b8ff">1</text>
</a>
</g>
</g>
<!-- dir_71c21a2808e4788c2b301d032d602215 -->
<g id="node6" class="node">
<title>dir_71c21a2808e4788c2b301d032d602215</title>
<g id="a_node6"><a xlink:href="dir_71c21a2808e4788c2b301d032d602215.html" target="_top" xlink:title="ShortCutsMenu">
<polygon fill="#e6eaf4" stroke="#404040" points="361.5,-74 270.5,-74 270.5,-55 361.5,-55 361.5,-74"/>
<text text-anchor="middle" x="316" y="-62" font-family="Helvetica,sans-Serif" font-size="10.00">ShortCutsMenu</text>
</a>
</g>
</g>
<!-- dir_71c21a2808e4788c2b301d032d602215&#45;&gt;dir_6f29a4b32d9057ae4debdc4b5d0901fc -->
<g id="edge12" class="edge">
<title>dir_71c21a2808e4788c2b301d032d602215&#45;&gt;dir_6f29a4b32d9057ae4debdc4b5d0901fc</title>
<g id="a_edge12"><a xlink:href="dir_000016_000013.html" target="_top">
<path fill="none" stroke="#63b8ff" d="M297.54,-54.92C286.93,-50.08 273.29,-44.01 261,-39 247.11,-33.34 231.64,-27.52 218.23,-22.63"/>
<polygon fill="#63b8ff" stroke="#63b8ff" points="219.02,-19.2 208.43,-19.09 216.64,-25.78 219.02,-19.2"/>
</a>
</g>
<g id="a_edge12&#45;headlabel"><a xlink:href="dir_000016_000013.html" target="_top" xlink:title="6">
<text text-anchor="middle" x="223.37" y="-15.25" font-family="Helvetica,sans-Serif" font-size="10.00" fill="#63b8ff">6</text>
</a>
</g>
</g>
<!-- dir_71c21a2808e4788c2b301d032d602215&#45;&gt;dir_618b8582e55c59a9f1a21aa204c6b424 -->
<g id="edge11" class="edge">
<title>dir_71c21a2808e4788c2b301d032d602215&#45;&gt;dir_618b8582e55c59a9f1a21aa204c6b424</title>
<g id="a_edge11"><a xlink:href="dir_000016_000019.html" target="_top">
<path fill="none" stroke="#63b8ff" d="M309.39,-54.75C303.74,-47.26 295.46,-36.28 288.55,-27.13"/>
<polygon fill="#63b8ff" stroke="#63b8ff" points="291.3,-24.96 282.48,-19.09 285.71,-29.18 291.3,-24.96"/>
</a>
</g>
<g id="a_edge11&#45;headlabel"><a xlink:href="dir_000016_000019.html" target="_top" xlink:title="2">
<text text-anchor="middle" x="295.73" y="-23.62" font-family="Helvetica,sans-Serif" font-size="10.00" fill="#63b8ff">2</text>
</a>
</g>
</g>
<!-- dir_365ffe00187863cbd8563d272a399d2a -->
<g id="node10" class="node">
<title>dir_365ffe00187863cbd8563d272a399d2a</title>
<g id="a_node10"><a xlink:href="dir_365ffe00187863cbd8563d272a399d2a.html" target="_top" xlink:title="Backends">
<polygon fill="#edf0f7" stroke="#7f7f7f" points="395.5,-19 332.5,-19 332.5,0 395.5,0 395.5,-19"/>
<text text-anchor="middle" x="364" y="-7" font-family="Helvetica,sans-Serif" font-size="10.00">Backends</text>
</a>
</g>
</g>
<!-- dir_71c21a2808e4788c2b301d032d602215&#45;&gt;dir_365ffe00187863cbd8563d272a399d2a -->
<g id="edge10" class="edge">
<title>dir_71c21a2808e4788c2b301d032d602215&#45;&gt;dir_365ffe00187863cbd8563d272a399d2a</title>
<g id="a_edge10"><a xlink:href="dir_000016_000000.html" target="_top">
<path fill="none" stroke="#63b8ff" d="M323.93,-54.75C330.85,-47.11 341.07,-35.82 349.45,-26.56"/>
<polygon fill="#63b8ff" stroke="#63b8ff" points="352.1,-28.85 356.22,-19.09 346.91,-24.15 352.1,-28.85"/>
</a>
</g>
<g id="a_edge10&#45;headlabel"><a xlink:href="dir_000016_000000.html" target="_top" xlink:title="1">
<text text-anchor="middle" x="351.79" y="-30.92" font-family="Helvetica,sans-Serif" font-size="10.00" fill="#63b8ff">1</text>
</a>
</g>
</g>
</g>
</svg>
