<?xml version="1.0" encoding="UTF-8" standalone="no"?>
<!DOCTYPE svg PUBLIC "-//W3C//DTD SVG 1.1//EN"
 "http://www.w3.org/Graphics/SVG/1.1/DTD/svg11.dtd">
<!-- Generated by graphviz version 2.43.0 (0)
 -->
<!-- Title: Clipboard++/RmlUI Pages: 1 -->
<svg width="720pt" height="314pt"
 viewBox="0.00 0.00 720.00 314.00" xmlns="http://www.w3.org/2000/svg" xmlns:xlink="http://www.w3.org/1999/xlink">
<g id="graph0" class="graph" transform="scale(1 1) rotate(0) translate(4 310)">
<title>Clipboard++/RmlUI</title>
<g id="clust1" class="cluster">
<title>clusterdir_6c509b302056eafb8526bf2ee94991a5</title>
<g id="a_clust1"><a xlink:href="dir_6c509b302056eafb8526bf2ee94991a5.html" target="_top" xlink:title="Clipboard++">
<polygon fill="#edf0f7" stroke="#404040" stroke-dasharray="5,2" points="8,-8 8,-298 704,-298 704,-8 8,-8"/>
<text text-anchor="middle" x="356" y="-286" font-family="Helvetica,sans-Serif" font-size="10.00">Clipboard++</text>
</a>
</g>
</g>
<g id="clust2" class="cluster">
<title>clusterdir_452c8ca0414517ab591b54c0054948c3</title>
<g id="a_clust2"><a xlink:href="dir_452c8ca0414517ab591b54c0054948c3.html" target="_top">
<polygon fill="#edf0f7" stroke="#404040" stroke-width="2" points="32,-63 32,-271 674,-271 674,-63 32,-63"/>
</a>
</g>
</g>
<g id="clust3" class="cluster">
<title>clusterdir_46a321a3e6535e2a38773c44e65bb94a</title>
<g id="a_clust3"><a xlink:href="dir_46a321a3e6535e2a38773c44e65bb94a.html" target="_top">
<polygon fill="#e6eaf4" stroke="#404040" points="40,-110 40,-208 541,-208 541,-110 40,-110"/>
</a>
</g>
</g>
<g id="clust4" class="cluster">
<title>clusterdir_48e93611974c9ac0d48c6bd3a13b1806</title>
<g id="a_clust4"><a xlink:href="dir_48e93611974c9ac0d48c6bd3a13b1806.html" target="_top">
<polygon fill="#dfe5f1" stroke="#404040" points="48,-118 48,-153 533,-153 533,-118 48,-118"/>
</a>
</g>
</g>
<g id="clust5" class="cluster">
<title>clusterdir_3d74b765182fe5c2a6b341583e01620d</title>
<g id="a_clust5"><a xlink:href="dir_3d74b765182fe5c2a6b341583e01620d.html" target="_top">
<polygon fill="#e6eaf4" stroke="#404040" points="559,-173 559,-263 666,-263 666,-173 559,-173"/>
</a>
</g>
</g>
<!-- dir_6f29a4b32d9057ae4debdc4b5d0901fc -->
<g id="node1" class="node">
<title>dir_6f29a4b32d9057ae4debdc4b5d0901fc</title>
<g id="a_node1"><a xlink:href="dir_6f29a4b32d9057ae4debdc4b5d0901fc.html" target="_top" xlink:title="QClipboard">
<polygon fill="#e6eaf4" stroke="red" points="142.5,-35 71.5,-35 71.5,-16 142.5,-16 142.5,-35"/>
<text text-anchor="middle" x="107" y="-23" font-family="Helvetica,sans-Serif" font-size="10.00">QClipboard</text>
</a>
</g>
</g>
<!-- dir_7bd88421239db40e627c58863c626314 -->
<g id="node2" class="node">
<title>dir_7bd88421239db40e627c58863c626314</title>
<g id="a_node2"><a xlink:href="dir_7bd88421239db40e627c58863c626314.html" target="_top" xlink:title="Utils">
<polygon fill="#e6eaf4" stroke="#404040" points="422.5,-35 383.5,-35 383.5,-16 422.5,-16 422.5,-35"/>
<text text-anchor="middle" x="403" y="-23" font-family="Helvetica,sans-Serif" font-size="10.00">Utils</text>
</a>
</g>
</g>
<!-- dir_452c8ca0414517ab591b54c0054948c3 -->
<g id="node3" class="node">
<title>dir_452c8ca0414517ab591b54c0054948c3</title>
<text text-anchor="middle" x="450" y="-243" font-family="Helvetica,sans-Serif" font-size="10.00">RmlUI</text>
</g>
<!-- dir_365ffe00187863cbd8563d272a399d2a -->
<g id="node4" class="node">
<title>dir_365ffe00187863cbd8563d272a399d2a</title>
<g id="a_node4"><a xlink:href="dir_365ffe00187863cbd8563d272a399d2a.html" target="_top" xlink:title="Backends">
<polygon fill="#e6eaf4" stroke="#404040" points="239.5,-90 176.5,-90 176.5,-71 239.5,-71 239.5,-90"/>
<text text-anchor="middle" x="208" y="-78" font-family="Helvetica,sans-Serif" font-size="10.00">Backends</text>
</a>
</g>
</g>
<!-- dir_365ffe00187863cbd8563d272a399d2a&#45;&gt;dir_7bd88421239db40e627c58863c626314 -->
<g id="edge1" class="edge">
<title>dir_365ffe00187863cbd8563d272a399d2a&#45;&gt;dir_7bd88421239db40e627c58863c626314</title>
<g id="a_edge1"><a xlink:href="dir_000000_000018.html" target="_top">
<path fill="none" stroke="#63b8ff" d="M227.8,-70.83C234.46,-68.11 241.98,-65.23 249,-63 291.58,-49.47 342.21,-38.4 373.47,-32.13"/>
<polygon fill="#63b8ff" stroke="#63b8ff" points="374.16,-35.56 383.3,-30.18 372.81,-28.69 374.16,-35.56"/>
</a>
</g>
<g id="a_edge1&#45;headlabel"><a xlink:href="dir_000000_000018.html" target="_top" xlink:title="1">
<text text-anchor="middle" x="371.19" y="-36.54" font-family="Helvetica,sans-Serif" font-size="10.00" fill="#63b8ff">1</text>
</a>
</g>
</g>
<!-- dir_db6d828284d48dab0506427d5ac03f15 -->
<g id="node5" class="node">
<title>dir_db6d828284d48dab0506427d5ac03f15</title>
<g id="a_node5"><a xlink:href="dir_db6d828284d48dab0506427d5ac03f15.html" target="_top" xlink:title="Elements">
<polygon fill="#e6eaf4" stroke="#404040" points="333,-255 271,-255 271,-236 333,-236 333,-255"/>
<text text-anchor="middle" x="302" y="-243" font-family="Helvetica,sans-Serif" font-size="10.00">Elements</text>
</a>
</g>
</g>
<!-- dir_db6d828284d48dab0506427d5ac03f15&#45;&gt;dir_6f29a4b32d9057ae4debdc4b5d0901fc -->
<g id="edge5" class="edge">
<title>dir_db6d828284d48dab0506427d5ac03f15&#45;&gt;dir_6f29a4b32d9057ae4debdc4b5d0901fc</title>
<g id="a_edge5"><a xlink:href="dir_000004_000013.html" target="_top">
<path fill="none" stroke="#63b8ff" d="M270.57,-245.32C210.76,-244.93 81.94,-234.22 30,-153 8.23,-118.95 18.18,-94.9 43,-63 50.85,-52.9 62.34,-45.13 73.42,-39.4"/>
<polygon fill="#63b8ff" stroke="#63b8ff" points="75.01,-42.51 82.54,-35.06 72.01,-36.19 75.01,-42.51"/>
</a>
</g>
<g id="a_edge5&#45;headlabel"><a xlink:href="dir_000004_000013.html" target="_top" xlink:title="3">
<text text-anchor="middle" x="72.98" y="-44.12" font-family="Helvetica,sans-Serif" font-size="10.00" fill="#63b8ff">3</text>
</a>
</g>
</g>
<!-- dir_db6d828284d48dab0506427d5ac03f15&#45;&gt;dir_7bd88421239db40e627c58863c626314 -->
<g id="edge6" class="edge">
<title>dir_db6d828284d48dab0506427d5ac03f15&#45;&gt;dir_7bd88421239db40e627c58863c626314</title>
<g id="a_edge6"><a xlink:href="dir_000004_000018.html" target="_top">
<path fill="none" stroke="#63b8ff" d="M333.14,-241.97C420.92,-234.76 664.35,-214.24 670,-208 702.92,-171.66 612.42,-98.67 545,-63 509.13,-44.02 462.87,-34.53 433.07,-30.06"/>
<polygon fill="#63b8ff" stroke="#63b8ff" points="433.27,-26.56 422.88,-28.64 432.3,-33.49 433.27,-26.56"/>
</a>
</g>
<g id="a_edge6&#45;headlabel"><a xlink:href="dir_000004_000018.html" target="_top" xlink:title="8">
<text text-anchor="middle" x="437.22" y="-21.74" font-family="Helvetica,sans-Serif" font-size="10.00" fill="#63b8ff">8</text>
</a>
</g>
</g>
<!-- dir_46a321a3e6535e2a38773c44e65bb94a -->
<g id="node6" class="node">
<title>dir_46a321a3e6535e2a38773c44e65bb94a</title>
<text text-anchor="middle" x="302" y="-188" font-family="Helvetica,sans-Serif" font-size="10.00">EventHandlers</text>
</g>
<!-- dir_db6d828284d48dab0506427d5ac03f15&#45;&gt;dir_46a321a3e6535e2a38773c44e65bb94a -->
<g id="edge2" class="edge">
<title>dir_db6d828284d48dab0506427d5ac03f15&#45;&gt;dir_46a321a3e6535e2a38773c44e65bb94a</title>
<g id="a_edge2"><a xlink:href="dir_000004_000005.html" target="_top">
<path fill="none" stroke="#63b8ff" d="M302,-235.75C302,-228.8 302,-218.85 302,-210.13"/>
<polygon fill="#63b8ff" stroke="#63b8ff" points="305.5,-210.09 302,-200.09 298.5,-210.09 305.5,-210.09"/>
</a>
</g>
<g id="a_edge2&#45;headlabel"><a xlink:href="dir_000004_000005.html" target="_top" xlink:title="3">
<text text-anchor="middle" x="308.34" y="-211.18" font-family="Helvetica,sans-Serif" font-size="10.00" fill="#63b8ff">3</text>
</a>
</g>
</g>
<!-- dir_68e71d09a89b7c1604c2fedae08a7a48 -->
<g id="node11" class="node">
<title>dir_68e71d09a89b7c1604c2fedae08a7a48</title>
<g id="a_node11"><a xlink:href="dir_68e71d09a89b7c1604c2fedae08a7a48.html" target="_top" xlink:title="Main">
<polygon fill="#d7deed" stroke="#404040" points="97.5,-145 56.5,-145 56.5,-126 97.5,-126 97.5,-145"/>
<text text-anchor="middle" x="77" y="-133" font-family="Helvetica,sans-Serif" font-size="10.00">Main</text>
</a>
</g>
</g>
<!-- dir_db6d828284d48dab0506427d5ac03f15&#45;&gt;dir_68e71d09a89b7c1604c2fedae08a7a48 -->
<g id="edge4" class="edge">
<title>dir_db6d828284d48dab0506427d5ac03f15&#45;&gt;dir_68e71d09a89b7c1604c2fedae08a7a48</title>
<g id="a_edge4"><a xlink:href="dir_000004_000011.html" target="_top">
<path fill="none" stroke="#63b8ff" d="M270.93,-244.77C239.58,-243.33 191.8,-236.18 163,-208 151.44,-196.68 163.66,-185.17 153,-173 138.31,-156.23 127.01,-162.83 107,-153 104.96,-152 102.87,-150.93 100.77,-149.84"/>
<polygon fill="#63b8ff" stroke="#63b8ff" points="102.27,-146.67 91.81,-145 98.95,-152.83 102.27,-146.67"/>
</a>
</g>
<g id="a_edge4&#45;headlabel"><a xlink:href="dir_000004_000011.html" target="_top" xlink:title="1">
<text text-anchor="middle" x="106.79" y="-143.38" font-family="Helvetica,sans-Serif" font-size="10.00" fill="#63b8ff">1</text>
</a>
</g>
</g>
<!-- dir_618b8582e55c59a9f1a21aa204c6b424 -->
<g id="node16" class="node">
<title>dir_618b8582e55c59a9f1a21aa204c6b424</title>
<g id="a_node16"><a xlink:href="dir_618b8582e55c59a9f1a21aa204c6b424.html" target="_top" xlink:title="ViewModels">
<polygon fill="#e6eaf4" stroke="#404040" points="334,-90 258,-90 258,-71 334,-71 334,-90"/>
<text text-anchor="middle" x="296" y="-78" font-family="Helvetica,sans-Serif" font-size="10.00">ViewModels</text>
</a>
</g>
</g>
<!-- dir_db6d828284d48dab0506427d5ac03f15&#45;&gt;dir_618b8582e55c59a9f1a21aa204c6b424 -->
<g id="edge3" class="edge">
<title>dir_db6d828284d48dab0506427d5ac03f15&#45;&gt;dir_618b8582e55c59a9f1a21aa204c6b424</title>
<g id="a_edge3"><a xlink:href="dir_000004_000019.html" target="_top">
<path fill="none" stroke="#63b8ff" d="M333.06,-242.08C395.47,-236.89 531.33,-223.88 545,-208 552.1,-199.75 552.32,-118.06 545,-110 530.83,-94.4 389.31,-93.45 344.49,-90.4"/>
<polygon fill="#63b8ff" stroke="#63b8ff" points="344.71,-86.9 334.42,-89.44 344.05,-93.87 344.71,-86.9"/>
</a>
</g>
<g id="a_edge3&#45;headlabel"><a xlink:href="dir_000004_000019.html" target="_top" xlink:title="2">
<text text-anchor="middle" x="348.56" y="-81.92" font-family="Helvetica,sans-Serif" font-size="10.00" fill="#63b8ff">2</text>
</a>
</g>
</g>
<!-- dir_46a321a3e6535e2a38773c44e65bb94a&#45;&gt;dir_6f29a4b32d9057ae4debdc4b5d0901fc -->
<g id="edge10" class="edge">
<title>dir_46a321a3e6535e2a38773c44e65bb94a&#45;&gt;dir_6f29a4b32d9057ae4debdc4b5d0901fc</title>
<g id="a_edge10"><a xlink:href="dir_000005_000013.html" target="_top">
<path fill="none" stroke="#63b8ff" d="M280.33,-180.83C272.19,-177.91 262.79,-174.9 254,-173 208.18,-163.09 75.54,-187.68 44,-153 13.2,-119.13 60.76,-67.43 88.82,-41.89"/>
<polygon fill="#63b8ff" stroke="#63b8ff" points="91.29,-44.38 96.47,-35.13 86.66,-39.13 91.29,-44.38"/>
</a>
</g>
<g id="a_edge10&#45;headlabel"><a xlink:href="dir_000005_000013.html" target="_top" xlink:title="20">
<text text-anchor="middle" x="90.48" y="-46.38" font-family="Helvetica,sans-Serif" font-size="10.00" fill="#63b8ff">20</text>
</a>
</g>
</g>
<!-- dir_46a321a3e6535e2a38773c44e65bb94a&#45;&gt;dir_7bd88421239db40e627c58863c626314 -->
<g id="edge12" class="edge">
<title>dir_46a321a3e6535e2a38773c44e65bb94a&#45;&gt;dir_7bd88421239db40e627c58863c626314</title>
<g id="a_edge12"><a xlink:href="dir_000005_000018.html" target="_top">
<path fill="none" stroke="#63b8ff" d="M346.13,-190.41C416.51,-190.82 549.26,-186.92 579,-153 628.37,-96.7 494.65,-51.49 432.64,-34.15"/>
<polygon fill="#63b8ff" stroke="#63b8ff" points="433.22,-30.68 422.65,-31.42 431.38,-37.43 433.22,-30.68"/>
</a>
</g>
<g id="a_edge12&#45;headlabel"><a xlink:href="dir_000005_000018.html" target="_top" xlink:title="18">
<text text-anchor="middle" x="437.44" y="-26.39" font-family="Helvetica,sans-Serif" font-size="10.00" fill="#63b8ff">18</text>
</a>
</g>
</g>
<!-- dir_48e93611974c9ac0d48c6bd3a13b1806 -->
<g id="node7" class="node">
<title>dir_48e93611974c9ac0d48c6bd3a13b1806</title>
<text text-anchor="middle" x="468" y="-133" font-family="Helvetica,sans-Serif" font-size="10.00">Clipboard++Events</text>
</g>
<!-- dir_46a321a3e6535e2a38773c44e65bb94a&#45;&gt;dir_48e93611974c9ac0d48c6bd3a13b1806 -->
<g id="edge7" class="edge">
<title>dir_46a321a3e6535e2a38773c44e65bb94a&#45;&gt;dir_48e93611974c9ac0d48c6bd3a13b1806</title>
<g id="a_edge7"><a xlink:href="dir_000005_000002.html" target="_top">
<path fill="none" stroke="#63b8ff" d="M326.37,-180.96C333.93,-178.35 342.29,-175.52 350,-173 376.46,-164.36 406.42,-155.1 429.53,-148.07"/>
<polygon fill="#63b8ff" stroke="#63b8ff" points="430.75,-151.36 439.31,-145.1 428.72,-144.66 430.75,-151.36"/>
</a>
</g>
<g id="a_edge7&#45;headlabel"><a xlink:href="dir_000005_000002.html" target="_top" xlink:title="21">
<text text-anchor="middle" x="428.14" y="-152.62" font-family="Helvetica,sans-Serif" font-size="10.00" fill="#63b8ff">21</text>
</a>
</g>
</g>
<!-- dir_dcac548670306a081e6bca009dc4d6c8 -->
<g id="node8" class="node">
<title>dir_dcac548670306a081e6bca009dc4d6c8</title>
<g id="a_node8"><a xlink:href="dir_dcac548670306a081e6bca009dc4d6c8.html" target="_top" xlink:title="Edit">
<polygon fill="#d7deed" stroke="#404040" points="259.5,-145 224.5,-145 224.5,-126 259.5,-126 259.5,-145"/>
<text text-anchor="middle" x="242" y="-133" font-family="Helvetica,sans-Serif" font-size="10.00">Edit</text>
</a>
</g>
</g>
<!-- dir_46a321a3e6535e2a38773c44e65bb94a&#45;&gt;dir_dcac548670306a081e6bca009dc4d6c8 -->
<g id="edge15" class="edge">
<title>dir_46a321a3e6535e2a38773c44e65bb94a&#45;&gt;dir_dcac548670306a081e6bca009dc4d6c8</title>
<g id="a_edge15"><a xlink:href="dir_000005_000003.html" target="_top">
<path fill="none" stroke="#63b8ff" d="M292.36,-180.98C283.49,-173.15 270.13,-161.34 259.39,-151.86"/>
<polygon fill="#63b8ff" stroke="#63b8ff" points="261.63,-149.17 251.82,-145.17 256.99,-154.41 261.63,-149.17"/>
</a>
</g>
<g id="a_edge15&#45;headlabel"><a xlink:href="dir_000005_000003.html" target="_top" xlink:title="4">
<text text-anchor="middle" x="266.2" y="-146.92" font-family="Helvetica,sans-Serif" font-size="10.00" fill="#63b8ff">4</text>
</a>
</g>
</g>
<!-- dir_b35abc2667a853eec39e3ef2ebdbaa6c -->
<g id="node9" class="node">
<title>dir_b35abc2667a853eec39e3ef2ebdbaa6c</title>
<g id="a_node9"><a xlink:href="dir_b35abc2667a853eec39e3ef2ebdbaa6c.html" target="_top" xlink:title="Export">
<polygon fill="#d7deed" stroke="#404040" points="326,-145 278,-145 278,-126 326,-126 326,-145"/>
<text text-anchor="middle" x="302" y="-133" font-family="Helvetica,sans-Serif" font-size="10.00">Export</text>
</a>
</g>
</g>
<!-- dir_46a321a3e6535e2a38773c44e65bb94a&#45;&gt;dir_b35abc2667a853eec39e3ef2ebdbaa6c -->
<g id="edge14" class="edge">
<title>dir_46a321a3e6535e2a38773c44e65bb94a&#45;&gt;dir_b35abc2667a853eec39e3ef2ebdbaa6c</title>
<g id="a_edge14"><a xlink:href="dir_000005_000006.html" target="_top">
<path fill="none" stroke="#63b8ff" d="M302,-180.75C302,-173.8 302,-163.85 302,-155.13"/>
<polygon fill="#63b8ff" stroke="#63b8ff" points="305.5,-155.09 302,-145.09 298.5,-155.09 305.5,-155.09"/>
</a>
</g>
<g id="a_edge14&#45;headlabel"><a xlink:href="dir_000005_000006.html" target="_top" xlink:title="4">
<text text-anchor="middle" x="308.34" y="-156.18" font-family="Helvetica,sans-Serif" font-size="10.00" fill="#63b8ff">4</text>
</a>
</g>
</g>
<!-- dir_9824bf167b80be7f252573457e89ec80 -->
<g id="node10" class="node">
<title>dir_9824bf167b80be7f252573457e89ec80</title>
<g id="a_node10"><a xlink:href="dir_9824bf167b80be7f252573457e89ec80.html" target="_top" xlink:title="Import">
<polygon fill="#d7deed" stroke="#404040" points="393.5,-145 344.5,-145 344.5,-126 393.5,-126 393.5,-145"/>
<text text-anchor="middle" x="369" y="-133" font-family="Helvetica,sans-Serif" font-size="10.00">Import</text>
</a>
</g>
</g>
<!-- dir_46a321a3e6535e2a38773c44e65bb94a&#45;&gt;dir_9824bf167b80be7f252573457e89ec80 -->
<g id="edge13" class="edge">
<title>dir_46a321a3e6535e2a38773c44e65bb94a&#45;&gt;dir_9824bf167b80be7f252573457e89ec80</title>
<g id="a_edge13"><a xlink:href="dir_000005_000008.html" target="_top">
<path fill="none" stroke="#63b8ff" d="M312.76,-180.98C322.77,-173.07 337.89,-161.11 349.93,-151.58"/>
<polygon fill="#63b8ff" stroke="#63b8ff" points="352.37,-154.12 358.04,-145.17 348.03,-148.63 352.37,-154.12"/>
</a>
</g>
<g id="a_edge13&#45;headlabel"><a xlink:href="dir_000005_000008.html" target="_top" xlink:title="4">
<text text-anchor="middle" x="351.31" y="-156.08" font-family="Helvetica,sans-Serif" font-size="10.00" fill="#63b8ff">4</text>
</a>
</g>
</g>
<!-- dir_46a321a3e6535e2a38773c44e65bb94a&#45;&gt;dir_68e71d09a89b7c1604c2fedae08a7a48 -->
<g id="edge9" class="edge">
<title>dir_46a321a3e6535e2a38773c44e65bb94a&#45;&gt;dir_68e71d09a89b7c1604c2fedae08a7a48</title>
<g id="a_edge9"><a xlink:href="dir_000005_000011.html" target="_top">
<path fill="none" stroke="#63b8ff" d="M279.8,-180.85C271.77,-178 262.57,-175.04 254,-173 189.85,-157.77 169.61,-173.68 107,-153 104.39,-152.14 101.75,-151.05 99.16,-149.84"/>
<polygon fill="#63b8ff" stroke="#63b8ff" points="100.74,-146.72 90.26,-145.16 97.48,-152.91 100.74,-146.72"/>
</a>
</g>
<g id="a_edge9&#45;headlabel"><a xlink:href="dir_000005_000011.html" target="_top" xlink:title="6">
<text text-anchor="middle" x="105.24" y="-143.38" font-family="Helvetica,sans-Serif" font-size="10.00" fill="#63b8ff">6</text>
</a>
</g>
</g>
<!-- dir_71c21a2808e4788c2b301d032d602215 -->
<g id="node12" class="node">
<title>dir_71c21a2808e4788c2b301d032d602215</title>
<g id="a_node12"><a xlink:href="dir_71c21a2808e4788c2b301d032d602215.html" target="_top" xlink:title="ShortCutsMenu">
<polygon fill="#d7deed" stroke="#404040" points="206.5,-145 115.5,-145 115.5,-126 206.5,-126 206.5,-145"/>
<text text-anchor="middle" x="161" y="-133" font-family="Helvetica,sans-Serif" font-size="10.00">ShortCutsMenu</text>
</a>
</g>
</g>
<!-- dir_46a321a3e6535e2a38773c44e65bb94a&#45;&gt;dir_71c21a2808e4788c2b301d032d602215 -->
<g id="edge11" class="edge">
<title>dir_46a321a3e6535e2a38773c44e65bb94a&#45;&gt;dir_71c21a2808e4788c2b301d032d602215</title>
<g id="a_edge11"><a xlink:href="dir_000005_000016.html" target="_top">
<path fill="none" stroke="#63b8ff" d="M279.35,-180.98C256.15,-172.27 219.88,-158.63 193.6,-148.75"/>
<polygon fill="#63b8ff" stroke="#63b8ff" points="194.66,-145.41 184.07,-145.17 192.2,-151.97 194.66,-145.41"/>
</a>
</g>
<g id="a_edge11&#45;headlabel"><a xlink:href="dir_000005_000016.html" target="_top" xlink:title="2">
<text text-anchor="middle" x="199.02" y="-141.52" font-family="Helvetica,sans-Serif" font-size="10.00" fill="#63b8ff">2</text>
</a>
</g>
</g>
<!-- dir_46a321a3e6535e2a38773c44e65bb94a&#45;&gt;dir_618b8582e55c59a9f1a21aa204c6b424 -->
<g id="edge8" class="edge">
<title>dir_46a321a3e6535e2a38773c44e65bb94a&#45;&gt;dir_618b8582e55c59a9f1a21aa204c6b424</title>
<g id="a_edge8"><a xlink:href="dir_000005_000019.html" target="_top">
<path fill="none" stroke="#63b8ff" d="M323.69,-180.89C331.82,-177.97 341.23,-174.95 350,-173 390.8,-163.93 509.06,-184.08 537,-153 549.77,-138.79 549.82,-124.17 537,-110 509.11,-79.16 397.69,-94.33 344.54,-90.52"/>
<polygon fill="#63b8ff" stroke="#63b8ff" points="344.74,-87.02 334.42,-89.44 344,-93.98 344.74,-87.02"/>
</a>
</g>
<g id="a_edge8&#45;headlabel"><a xlink:href="dir_000005_000019.html" target="_top" xlink:title="7">
<text text-anchor="middle" x="348.62" y="-82.08" font-family="Helvetica,sans-Serif" font-size="10.00" fill="#63b8ff">7</text>
</a>
</g>
</g>
<!-- dir_dcac548670306a081e6bca009dc4d6c8&#45;&gt;dir_6f29a4b32d9057ae4debdc4b5d0901fc -->
<g id="edge17" class="edge">
<title>dir_dcac548670306a081e6bca009dc4d6c8&#45;&gt;dir_6f29a4b32d9057ae4debdc4b5d0901fc</title>
<g id="a_edge17"><a xlink:href="dir_000003_000013.html" target="_top">
<path fill="none" stroke="#63b8ff" d="M234.68,-125.56C229.89,-120.28 223.21,-113.89 216,-110 182.22,-91.78 160.98,-115.15 132,-90 119.01,-78.73 112.71,-59.82 109.69,-45.56"/>
<polygon fill="#63b8ff" stroke="#63b8ff" points="113.08,-44.6 107.91,-35.35 106.19,-45.81 113.08,-44.6"/>
</a>
</g>
<g id="a_edge17&#45;headlabel"><a xlink:href="dir_000003_000013.html" target="_top" xlink:title="3">
<text text-anchor="middle" x="116.5" y="-45.15" font-family="Helvetica,sans-Serif" font-size="10.00" fill="#63b8ff">3</text>
</a>
</g>
</g>
<!-- dir_dcac548670306a081e6bca009dc4d6c8&#45;&gt;dir_7bd88421239db40e627c58863c626314 -->
<g id="edge18" class="edge">
<title>dir_dcac548670306a081e6bca009dc4d6c8&#45;&gt;dir_7bd88421239db40e627c58863c626314</title>
<g id="a_edge18"><a xlink:href="dir_000003_000018.html" target="_top">
<path fill="none" stroke="#63b8ff" d="M249.65,-125.53C254.64,-120.24 261.59,-113.85 269,-110 304.98,-91.32 324.26,-112.48 358,-90 360.36,-88.43 378.93,-61.68 391.47,-43.4"/>
<polygon fill="#63b8ff" stroke="#63b8ff" points="394.44,-45.26 397.2,-35.03 388.66,-41.3 394.44,-45.26"/>
</a>
</g>
<g id="a_edge18&#45;headlabel"><a xlink:href="dir_000003_000018.html" target="_top" xlink:title="2">
<text text-anchor="middle" x="394.75" y="-47.33" font-family="Helvetica,sans-Serif" font-size="10.00" fill="#63b8ff">2</text>
</a>
</g>
</g>
<!-- dir_dcac548670306a081e6bca009dc4d6c8&#45;&gt;dir_618b8582e55c59a9f1a21aa204c6b424 -->
<g id="edge16" class="edge">
<title>dir_dcac548670306a081e6bca009dc4d6c8&#45;&gt;dir_618b8582e55c59a9f1a21aa204c6b424</title>
<g id="a_edge16"><a xlink:href="dir_000003_000019.html" target="_top">
<path fill="none" stroke="#63b8ff" d="M250.92,-125.75C258.78,-118.03 270.43,-106.6 279.92,-97.28"/>
<polygon fill="#63b8ff" stroke="#63b8ff" points="282.56,-99.59 287.25,-90.09 277.66,-94.6 282.56,-99.59"/>
</a>
</g>
<g id="a_edge16&#45;headlabel"><a xlink:href="dir_000003_000019.html" target="_top" xlink:title="3">
<text text-anchor="middle" x="281.99" y="-101.64" font-family="Helvetica,sans-Serif" font-size="10.00" fill="#63b8ff">3</text>
</a>
</g>
</g>
<!-- dir_b35abc2667a853eec39e3ef2ebdbaa6c&#45;&gt;dir_6f29a4b32d9057ae4debdc4b5d0901fc -->
<g id="edge19" class="edge">
<title>dir_b35abc2667a853eec39e3ef2ebdbaa6c&#45;&gt;dir_6f29a4b32d9057ae4debdc4b5d0901fc</title>
<g id="a_edge19"><a xlink:href="dir_000006_000013.html" target="_top">
<path fill="none" stroke="#63b8ff" d="M292.93,-125.91C286.68,-120.49 277.92,-113.81 269,-110 220.49,-89.26 196.65,-118.1 152,-90 142.82,-84.22 127.47,-60.73 117.28,-44.01"/>
<polygon fill="#63b8ff" stroke="#63b8ff" points="120.11,-41.91 111.97,-35.13 114.1,-45.51 120.11,-41.91"/>
</a>
</g>
<g id="a_edge19&#45;headlabel"><a xlink:href="dir_000006_000013.html" target="_top" xlink:title="1">
<text text-anchor="middle" x="124.39" y="-41.04" font-family="Helvetica,sans-Serif" font-size="10.00" fill="#63b8ff">1</text>
</a>
</g>
</g>
<!-- dir_b35abc2667a853eec39e3ef2ebdbaa6c&#45;&gt;dir_7bd88421239db40e627c58863c626314 -->
<g id="edge20" class="edge">
<title>dir_b35abc2667a853eec39e3ef2ebdbaa6c&#45;&gt;dir_7bd88421239db40e627c58863c626314</title>
<g id="a_edge20"><a xlink:href="dir_000006_000018.html" target="_top">
<path fill="none" stroke="#63b8ff" d="M312.99,-125.81C319.49,-120.87 327.99,-114.74 336,-110 353.79,-99.47 363.9,-105.12 378,-90 389.61,-77.56 396.06,-59.09 399.49,-45.28"/>
<polygon fill="#63b8ff" stroke="#63b8ff" points="402.93,-45.91 401.63,-35.4 396.09,-44.43 402.93,-45.91"/>
</a>
</g>
<g id="a_edge20&#45;headlabel"><a xlink:href="dir_000006_000018.html" target="_top" xlink:title="6">
<text text-anchor="middle" x="404.94" y="-47.53" font-family="Helvetica,sans-Serif" font-size="10.00" fill="#63b8ff">6</text>
</a>
</g>
</g>
<!-- dir_9824bf167b80be7f252573457e89ec80&#45;&gt;dir_6f29a4b32d9057ae4debdc4b5d0901fc -->
<g id="edge21" class="edge">
<title>dir_9824bf167b80be7f252573457e89ec80&#45;&gt;dir_6f29a4b32d9057ae4debdc4b5d0901fc</title>
<g id="a_edge21"><a xlink:href="dir_000008_000013.html" target="_top">
<path fill="none" stroke="#63b8ff" d="M359.96,-126C353.51,-120.46 344.36,-113.63 335,-110 262.83,-82.03 227.5,-131.24 162,-90 150,-82.44 153.96,-73.99 145,-63 139.07,-55.72 131.78,-48.41 125.18,-42.26"/>
<polygon fill="#63b8ff" stroke="#63b8ff" points="127.11,-39.29 117.35,-35.19 122.43,-44.49 127.11,-39.29"/>
</a>
</g>
<g id="a_edge21&#45;headlabel"><a xlink:href="dir_000008_000013.html" target="_top" xlink:title="1">
<text text-anchor="middle" x="131.69" y="-37.09" font-family="Helvetica,sans-Serif" font-size="10.00" fill="#63b8ff">1</text>
</a>
</g>
</g>
<!-- dir_9824bf167b80be7f252573457e89ec80&#45;&gt;dir_7bd88421239db40e627c58863c626314 -->
<g id="edge22" class="edge">
<title>dir_9824bf167b80be7f252573457e89ec80&#45;&gt;dir_7bd88421239db40e627c58863c626314</title>
<g id="a_edge22"><a xlink:href="dir_000008_000018.html" target="_top">
<path fill="none" stroke="#63b8ff" d="M376.43,-125.99C383.36,-117.51 393.31,-103.79 398,-90 402.91,-75.59 403.98,-58.31 403.93,-45.42"/>
<polygon fill="#63b8ff" stroke="#63b8ff" points="407.43,-45.3 403.66,-35.4 400.43,-45.49 407.43,-45.3"/>
</a>
</g>
<g id="a_edge22&#45;headlabel"><a xlink:href="dir_000008_000018.html" target="_top" xlink:title="6">
<text text-anchor="middle" x="410.36" y="-46.32" font-family="Helvetica,sans-Serif" font-size="10.00" fill="#63b8ff">6</text>
</a>
</g>
</g>
<!-- dir_68e71d09a89b7c1604c2fedae08a7a48&#45;&gt;dir_6f29a4b32d9057ae4debdc4b5d0901fc -->
<g id="edge23" class="edge">
<title>dir_68e71d09a89b7c1604c2fedae08a7a48&#45;&gt;dir_6f29a4b32d9057ae4debdc4b5d0901fc</title>
<g id="a_edge23"><a xlink:href="dir_000011_000013.html" target="_top">
<path fill="none" stroke="#63b8ff" d="M78.33,-125.56C80.5,-111.89 85.21,-85.06 92,-63 93.89,-56.86 96.4,-50.32 98.84,-44.5"/>
<polygon fill="#63b8ff" stroke="#63b8ff" points="102.17,-45.6 102.97,-35.04 95.76,-42.8 102.17,-45.6"/>
</a>
</g>
<g id="a_edge23&#45;headlabel"><a xlink:href="dir_000011_000013.html" target="_top" xlink:title="7">
<text text-anchor="middle" x="103.34" y="-47.53" font-family="Helvetica,sans-Serif" font-size="10.00" fill="#63b8ff">7</text>
</a>
</g>
</g>
<!-- dir_68e71d09a89b7c1604c2fedae08a7a48&#45;&gt;dir_7bd88421239db40e627c58863c626314 -->
<g id="edge24" class="edge">
<title>dir_68e71d09a89b7c1604c2fedae08a7a48&#45;&gt;dir_7bd88421239db40e627c58863c626314</title>
<g id="a_edge24"><a xlink:href="dir_000011_000018.html" target="_top">
<path fill="none" stroke="#63b8ff" d="M85.01,-125.65C90.58,-120.13 98.52,-113.42 107,-110 156.83,-89.88 305.2,-122.5 348,-90 358.19,-82.26 350.54,-73.4 358,-63 364.03,-54.59 372.47,-47.05 380.42,-41.04"/>
<polygon fill="#63b8ff" stroke="#63b8ff" points="382.59,-43.79 388.71,-35.14 378.53,-38.08 382.59,-43.79"/>
</a>
</g>
<g id="a_edge24&#45;headlabel"><a xlink:href="dir_000011_000018.html" target="_top" xlink:title="1">
<text text-anchor="middle" x="381.31" y="-45.69" font-family="Helvetica,sans-Serif" font-size="10.00" fill="#63b8ff">1</text>
</a>
</g>
</g>
<!-- dir_71c21a2808e4788c2b301d032d602215&#45;&gt;dir_6f29a4b32d9057ae4debdc4b5d0901fc -->
<g id="edge27" class="edge">
<title>dir_71c21a2808e4788c2b301d032d602215&#45;&gt;dir_6f29a4b32d9057ae4debdc4b5d0901fc</title>
<g id="a_edge27"><a xlink:href="dir_000016_000013.html" target="_top">
<path fill="none" stroke="#63b8ff" d="M146.66,-125.89C135.11,-118.09 119.59,-105.48 112,-90 105.22,-76.18 104.34,-58.61 104.94,-45.46"/>
<polygon fill="#63b8ff" stroke="#63b8ff" points="108.45,-45.49 105.74,-35.24 101.47,-44.94 108.45,-45.49"/>
</a>
</g>
<g id="a_edge27&#45;headlabel"><a xlink:href="dir_000016_000013.html" target="_top" xlink:title="6">
<text text-anchor="middle" x="111" y="-46.79" font-family="Helvetica,sans-Serif" font-size="10.00" fill="#63b8ff">6</text>
</a>
</g>
</g>
<!-- dir_71c21a2808e4788c2b301d032d602215&#45;&gt;dir_365ffe00187863cbd8563d272a399d2a -->
<g id="edge25" class="edge">
<title>dir_71c21a2808e4788c2b301d032d602215&#45;&gt;dir_365ffe00187863cbd8563d272a399d2a</title>
<g id="a_edge25"><a xlink:href="dir_000016_000000.html" target="_top">
<path fill="none" stroke="#63b8ff" d="M168.76,-125.75C175.47,-118.18 185.34,-107.05 193.51,-97.84"/>
<polygon fill="#63b8ff" stroke="#63b8ff" points="196.37,-99.89 200.38,-90.09 191.13,-95.25 196.37,-99.89"/>
</a>
</g>
<g id="a_edge25&#45;headlabel"><a xlink:href="dir_000016_000000.html" target="_top" xlink:title="1">
<text text-anchor="middle" x="196.11" y="-101.97" font-family="Helvetica,sans-Serif" font-size="10.00" fill="#63b8ff">1</text>
</a>
</g>
</g>
<!-- dir_71c21a2808e4788c2b301d032d602215&#45;&gt;dir_618b8582e55c59a9f1a21aa204c6b424 -->
<g id="edge26" class="edge">
<title>dir_71c21a2808e4788c2b301d032d602215&#45;&gt;dir_618b8582e55c59a9f1a21aa204c6b424</title>
<g id="a_edge26"><a xlink:href="dir_000016_000019.html" target="_top">
<path fill="none" stroke="#63b8ff" d="M179.18,-125.98C189.83,-121.1 203.58,-114.97 216,-110 230.43,-104.23 246.54,-98.37 260.5,-93.49"/>
<polygon fill="#63b8ff" stroke="#63b8ff" points="261.93,-96.7 270.23,-90.12 259.64,-90.08 261.93,-96.7"/>
</a>
</g>
<g id="a_edge26&#45;headlabel"><a xlink:href="dir_000016_000019.html" target="_top" xlink:title="2">
<text text-anchor="middle" x="259.46" y="-98.06" font-family="Helvetica,sans-Serif" font-size="10.00" fill="#63b8ff">2</text>
</a>
</g>
</g>
<!-- dir_3d74b765182fe5c2a6b341583e01620d -->
<g id="node13" class="node">
<title>dir_3d74b765182fe5c2a6b341583e01620d</title>
<text text-anchor="middle" x="637" y="-243" font-family="Helvetica,sans-Serif" font-size="10.00">Shell</text>
</g>
<!-- dir_40f3cb1a2ec698157fc9a9f899a0aeb8 -->
<g id="node14" class="node">
<title>dir_40f3cb1a2ec698157fc9a9f899a0aeb8</title>
<g id="a_node14"><a xlink:href="dir_40f3cb1a2ec698157fc9a9f899a0aeb8.html" target="_top" xlink:title="include">
<polygon fill="#dfe5f1" stroke="#404040" points="621,-200 569,-200 569,-181 621,-181 621,-200"/>
<text text-anchor="middle" x="595" y="-188" font-family="Helvetica,sans-Serif" font-size="10.00">include</text>
</a>
</g>
</g>
<!-- dir_cb31e7344ac625c7efe23984a74c1293 -->
<g id="node15" class="node">
<title>dir_cb31e7344ac625c7efe23984a74c1293</title>
<g id="a_node15"><a xlink:href="dir_cb31e7344ac625c7efe23984a74c1293.html" target="_top" xlink:title="src">
<polygon fill="#dfe5f1" stroke="#404040" points="598.5,-255 567.5,-255 567.5,-236 598.5,-236 598.5,-255"/>
<text text-anchor="middle" x="583" y="-243" font-family="Helvetica,sans-Serif" font-size="10.00">src</text>
</a>
</g>
</g>
<!-- dir_cb31e7344ac625c7efe23984a74c1293&#45;&gt;dir_7bd88421239db40e627c58863c626314 -->
<g id="edge29" class="edge">
<title>dir_cb31e7344ac625c7efe23984a74c1293&#45;&gt;dir_7bd88421239db40e627c58863c626314</title>
<g id="a_edge29"><a xlink:href="dir_000017_000018.html" target="_top">
<path fill="none" stroke="#63b8ff" d="M598.63,-239.02C624.98,-229.7 675.64,-211.44 678,-208 714.49,-154.88 720.47,-111.47 678,-63 646.42,-26.96 497.78,-24.89 433.14,-25.76"/>
<polygon fill="#63b8ff" stroke="#63b8ff" points="432.75,-22.27 422.81,-25.94 432.87,-29.27 432.75,-22.27"/>
</a>
</g>
<g id="a_edge29&#45;headlabel"><a xlink:href="dir_000017_000018.html" target="_top" xlink:title="1">
<text text-anchor="middle" x="436.29" y="-16.87" font-family="Helvetica,sans-Serif" font-size="10.00" fill="#63b8ff">1</text>
</a>
</g>
</g>
<!-- dir_cb31e7344ac625c7efe23984a74c1293&#45;&gt;dir_40f3cb1a2ec698157fc9a9f899a0aeb8 -->
<g id="edge28" class="edge">
<title>dir_cb31e7344ac625c7efe23984a74c1293&#45;&gt;dir_40f3cb1a2ec698157fc9a9f899a0aeb8</title>
<g id="a_edge28"><a xlink:href="dir_000017_000009.html" target="_top">
<path fill="none" stroke="#63b8ff" d="M584.98,-235.75C586.57,-228.72 588.86,-218.62 590.85,-209.84"/>
<polygon fill="#63b8ff" stroke="#63b8ff" points="594.26,-210.62 593.06,-200.09 587.43,-209.07 594.26,-210.62"/>
</a>
</g>
<g id="a_edge28&#45;headlabel"><a xlink:href="dir_000017_000009.html" target="_top" xlink:title="6">
<text text-anchor="middle" x="596.24" y="-212.25" font-family="Helvetica,sans-Serif" font-size="10.00" fill="#63b8ff">6</text>
</a>
</g>
</g>
<!-- dir_618b8582e55c59a9f1a21aa204c6b424&#45;&gt;dir_6f29a4b32d9057ae4debdc4b5d0901fc -->
<g id="edge30" class="edge">
<title>dir_618b8582e55c59a9f1a21aa204c6b424&#45;&gt;dir_6f29a4b32d9057ae4debdc4b5d0901fc</title>
<g id="a_edge30"><a xlink:href="dir_000019_000013.html" target="_top">
<path fill="none" stroke="#63b8ff" d="M272.7,-70.88C265.18,-68.21 256.78,-65.36 249,-63 217,-53.29 180.45,-43.93 152.45,-37.13"/>
<polygon fill="#63b8ff" stroke="#63b8ff" points="153.08,-33.68 142.54,-34.74 151.44,-40.48 153.08,-33.68"/>
</a>
</g>
<g id="a_edge30&#45;headlabel"><a xlink:href="dir_000019_000013.html" target="_top" xlink:title="3">
<text text-anchor="middle" x="157.24" y="-29.26" font-family="Helvetica,sans-Serif" font-size="10.00" fill="#63b8ff">3</text>
</a>
</g>
</g>
</g>
</svg>
