<?xml version="1.0" encoding="UTF-8" standalone="no"?>
<!DOCTYPE svg PUBLIC "-//W3C//DTD SVG 1.1//EN"
 "http://www.w3.org/Graphics/SVG/1.1/DTD/svg11.dtd">
<!-- Generated by graphviz version 2.43.0 (0)
 -->
<!-- Title: Clipboard++/RmlUI/EventHandlers Pages: 1 -->
<!--zoomable 196 -->

<svg id="main" version="1.1" xmlns="http://www.w3.org/2000/svg" xmlns:xlink="http://www.w3.org/1999/xlink" xml:space="preserve" onload="init(evt)">
<style type="text/css"><![CDATA[
.node, .edge {opacity: 0.7;}
.node.selected, .edge.selected {opacity: 1;}
.edge:hover path { stroke: red; }
.edge:hover polygon { stroke: red; fill: red; }
]]></style>

<defs>
  <circle id="rim" cx="0" cy="0" r="7"/>
  <circle id="rim2" cx="0" cy="0" r="3.5"/>
  <g id="zoomPlus">
    <use xlink:href="#rim" fill="#404040"><set attributeName="fill" to="#808080" begin="zoomplus.mouseover" end="zoomplus.mouseout"/></use>
    <path d="M-4,0h8M0,-4v8" fill="none" stroke="white" stroke-width="1.5" pointer-events="none"/>
  </g>
  <g id="zoomMin">
    <use xlink:href="#rim" fill="#404040"><set attributeName="fill" to="#808080" begin="zoomminus.mouseover" end="zoomminus.mouseout"/></use>
    <path d="M-4,0h8" fill="none" stroke="white" stroke-width="1.5" pointer-events="none"/>
  </g>
  <g id="arrowUp" transform="translate(30 24)">
    <use xlink:href="#rim"/>
    <path pointer-events="none" fill="none" stroke="white" stroke-width="1.5" d="M0,-3.0v7 M-2.5,-0.5L0,-3.0L2.5,-0.5"/>
  </g>
  <g id="arrowRight" transform="rotate(90) translate(36 -43)">
    <use xlink:href="#rim"/>
    <path pointer-events="none" fill="none" stroke="white" stroke-width="1.5" d="M0,-3.0v7 M-2.5,-0.5L0,-3.0L2.5,-0.5"/>
  </g>
  <g id="arrowDown" transform="rotate(180) translate(-30 -48)">
    <use xlink:href="#rim"/>
    <path pointer-events="none" fill="none" stroke="white" stroke-width="1.5" d="M0,-3.0v7 M-2.5,-0.5L0,-3.0L2.5,-0.5"/>
  </g>
  <g id="arrowLeft" transform="rotate(270) translate(-36 17)">
    <use xlink:href="#rim"/>
    <path pointer-events="none" fill="none" stroke="white" stroke-width="1.5" d="M0,-3.0v7 M-2.5,-0.5L0,-3.0L2.5,-0.5"/>
  </g>
  <g id="resetDef">
    <use xlink:href="#rim2" fill="#404040"><set attributeName="fill" to="#808080" begin="reset.mouseover" end="reset.mouseout"/></use>
  </g>
</defs>
<script type="application/ecmascript">
var viewWidth = 674;
var viewHeight = 196;
var sectionId = 'dynsection-0';
</script>
<script type="application/ecmascript" xlink:href="svg.min.js"/>
<svg id="graph" class="graph">
<g id="viewport">
<title>Clipboard++/RmlUI/EventHandlers</title>
<g id="clust1" class="cluster">
<title>clusterdir_452c8ca0414517ab591b54c0054948c3</title>
<g id="a_clust1"><a xlink:href="dir_452c8ca0414517ab591b54c0054948c3.html" target="_top" xlink:title="RmlUI">
<polygon fill="#edf0f7" stroke="#7f7f7f" stroke-dasharray="5,2" points="8,-8 8,-180 529,-180 529,-8 8,-8"/>
<text text-anchor="middle" x="268.5" y="-168" font-family="Helvetica,sans-Serif" font-size="10.00">RmlUI</text>
</a>
</g>
</g>
<g id="clust2" class="cluster">
<title>clusterdir_46a321a3e6535e2a38773c44e65bb94a</title>
<g id="a_clust2"><a xlink:href="dir_46a321a3e6535e2a38773c44e65bb94a.html" target="_top">
<polygon fill="#edf0f7" stroke="#404040" stroke-width="2" points="20,-55 20,-153 521,-153 521,-55 20,-55"/>
</a>
</g>
</g>
<g id="clust3" class="cluster">
<title>clusterdir_48e93611974c9ac0d48c6bd3a13b1806</title>
<g id="a_clust3"><a xlink:href="dir_48e93611974c9ac0d48c6bd3a13b1806.html" target="_top">
<polygon fill="#e6eaf4" stroke="#404040" points="28,-63 28,-98 513,-98 513,-63 28,-63"/>
</a>
</g>
</g>
<!-- dir_618b8582e55c59a9f1a21aa204c6b424 -->
<g id="node1" class="node">
<title>dir_618b8582e55c59a9f1a21aa204c6b424</title>
<g id="a_node1"><a xlink:href="dir_618b8582e55c59a9f1a21aa204c6b424.html" target="_top" xlink:title="ViewModels">
<polygon fill="#e6eaf4" stroke="#404040" points="106,-35 30,-35 30,-16 106,-16 106,-35"/>
<text text-anchor="middle" x="68" y="-23" font-family="Helvetica,sans-Serif" font-size="10.00">ViewModels</text>
</a>
</g>
</g>
<!-- dir_365ffe00187863cbd8563d272a399d2a -->
<g id="node2" class="node">
<title>dir_365ffe00187863cbd8563d272a399d2a</title>
<g id="a_node2"><a xlink:href="dir_365ffe00187863cbd8563d272a399d2a.html" target="_top" xlink:title="Backends">
<polygon fill="#e6eaf4" stroke="#404040" points="187.5,-35 124.5,-35 124.5,-16 187.5,-16 187.5,-35"/>
<text text-anchor="middle" x="156" y="-23" font-family="Helvetica,sans-Serif" font-size="10.00">Backends</text>
</a>
</g>
</g>
<!-- dir_46a321a3e6535e2a38773c44e65bb94a -->
<g id="node3" class="node">
<title>dir_46a321a3e6535e2a38773c44e65bb94a</title>
<text text-anchor="middle" x="286" y="-133" font-family="Helvetica,sans-Serif" font-size="10.00">EventHandlers</text>
</g>
<!-- dir_46a321a3e6535e2a38773c44e65bb94a&#45;&gt;dir_618b8582e55c59a9f1a21aa204c6b424 -->
<g id="edge2" class="edge">
<title>dir_46a321a3e6535e2a38773c44e65bb94a&#45;&gt;dir_618b8582e55c59a9f1a21aa204c6b424</title>
<g id="a_edge2"><a xlink:href="dir_000005_000019.html" target="_top">
<path fill="none" stroke="#63b8ff" d="M241.79,-135.02C174.62,-134.77 51.7,-129.83 24,-98 11.45,-83.58 14.87,-71.79 24,-55 27.14,-49.23 32.01,-44.45 37.38,-40.55"/>
<polygon fill="#63b8ff" stroke="#63b8ff" points="39.41,-43.41 46.06,-35.15 35.72,-37.46 39.41,-43.41"/>
</a>
</g>
<g id="a_edge2&#45;headlabel"><a xlink:href="dir_000005_000019.html" target="_top" xlink:title="7">
<text text-anchor="middle" x="37.86" y="-45.22" font-family="Helvetica,sans-Serif" font-size="10.00" fill="#63b8ff">7</text>
</a>
</g>
</g>
<!-- dir_48e93611974c9ac0d48c6bd3a13b1806 -->
<g id="node4" class="node">
<title>dir_48e93611974c9ac0d48c6bd3a13b1806</title>
<text text-anchor="middle" x="448" y="-78" font-family="Helvetica,sans-Serif" font-size="10.00">Clipboard++Events</text>
</g>
<!-- dir_46a321a3e6535e2a38773c44e65bb94a&#45;&gt;dir_48e93611974c9ac0d48c6bd3a13b1806 -->
<g id="edge1" class="edge">
<title>dir_46a321a3e6535e2a38773c44e65bb94a&#45;&gt;dir_48e93611974c9ac0d48c6bd3a13b1806</title>
<g id="a_edge1"><a xlink:href="dir_000005_000002.html" target="_top">
<path fill="none" stroke="#63b8ff" d="M312.03,-125.98C339.11,-117.13 381.71,-103.19 412.01,-93.28"/>
<polygon fill="#63b8ff" stroke="#63b8ff" points="413.35,-96.52 421.77,-90.08 411.18,-89.87 413.35,-96.52"/>
</a>
</g>
<g id="a_edge1&#45;headlabel"><a xlink:href="dir_000005_000002.html" target="_top" xlink:title="21">
<text text-anchor="middle" x="410.82" y="-97.83" font-family="Helvetica,sans-Serif" font-size="10.00" fill="#63b8ff">21</text>
</a>
</g>
</g>
<!-- dir_dcac548670306a081e6bca009dc4d6c8 -->
<g id="node5" class="node">
<title>dir_dcac548670306a081e6bca009dc4d6c8</title>
<g id="a_node5"><a xlink:href="dir_dcac548670306a081e6bca009dc4d6c8.html" target="_top" xlink:title="Edit">
<polygon fill="#dfe5f1" stroke="#404040" points="180.5,-90 145.5,-90 145.5,-71 180.5,-71 180.5,-90"/>
<text text-anchor="middle" x="163" y="-78" font-family="Helvetica,sans-Serif" font-size="10.00">Edit</text>
</a>
</g>
</g>
<!-- dir_46a321a3e6535e2a38773c44e65bb94a&#45;&gt;dir_dcac548670306a081e6bca009dc4d6c8 -->
<g id="edge9" class="edge">
<title>dir_46a321a3e6535e2a38773c44e65bb94a&#45;&gt;dir_dcac548670306a081e6bca009dc4d6c8</title>
<g id="a_edge9"><a xlink:href="dir_000005_000003.html" target="_top">
<path fill="none" stroke="#63b8ff" d="M258.61,-125.88C238.82,-119.25 211.7,-109.32 189,-98 187.42,-97.21 185.82,-96.35 184.22,-95.46"/>
<polygon fill="#63b8ff" stroke="#63b8ff" points="185.76,-92.29 175.39,-90.09 182.12,-98.28 185.76,-92.29"/>
</a>
</g>
<g id="a_edge9&#45;headlabel"><a xlink:href="dir_000005_000003.html" target="_top" xlink:title="4">
<text text-anchor="middle" x="190.3" y="-89.23" font-family="Helvetica,sans-Serif" font-size="10.00" fill="#63b8ff">4</text>
</a>
</g>
</g>
<!-- dir_b35abc2667a853eec39e3ef2ebdbaa6c -->
<g id="node6" class="node">
<title>dir_b35abc2667a853eec39e3ef2ebdbaa6c</title>
<g id="a_node6"><a xlink:href="dir_b35abc2667a853eec39e3ef2ebdbaa6c.html" target="_top" xlink:title="Export">
<polygon fill="#dfe5f1" stroke="#404040" points="373,-90 325,-90 325,-71 373,-71 373,-90"/>
<text text-anchor="middle" x="349" y="-78" font-family="Helvetica,sans-Serif" font-size="10.00">Export</text>
</a>
</g>
</g>
<!-- dir_46a321a3e6535e2a38773c44e65bb94a&#45;&gt;dir_b35abc2667a853eec39e3ef2ebdbaa6c -->
<g id="edge8" class="edge">
<title>dir_46a321a3e6535e2a38773c44e65bb94a&#45;&gt;dir_b35abc2667a853eec39e3ef2ebdbaa6c</title>
<g id="a_edge8"><a xlink:href="dir_000005_000006.html" target="_top">
<path fill="none" stroke="#63b8ff" d="M296.12,-125.98C305.44,-118.15 319.47,-106.34 330.74,-96.86"/>
<polygon fill="#63b8ff" stroke="#63b8ff" points="333.29,-99.29 338.69,-90.17 328.79,-93.93 333.29,-99.29"/>
</a>
</g>
<g id="a_edge8&#45;headlabel"><a xlink:href="dir_000005_000006.html" target="_top" xlink:title="4">
<text text-anchor="middle" x="332.37" y="-101.27" font-family="Helvetica,sans-Serif" font-size="10.00" fill="#63b8ff">4</text>
</a>
</g>
</g>
<!-- dir_9824bf167b80be7f252573457e89ec80 -->
<g id="node7" class="node">
<title>dir_9824bf167b80be7f252573457e89ec80</title>
<g id="a_node7"><a xlink:href="dir_9824bf167b80be7f252573457e89ec80.html" target="_top" xlink:title="Import">
<polygon fill="#dfe5f1" stroke="#404040" points="247.5,-90 198.5,-90 198.5,-71 247.5,-71 247.5,-90"/>
<text text-anchor="middle" x="223" y="-78" font-family="Helvetica,sans-Serif" font-size="10.00">Import</text>
</a>
</g>
</g>
<!-- dir_46a321a3e6535e2a38773c44e65bb94a&#45;&gt;dir_9824bf167b80be7f252573457e89ec80 -->
<g id="edge7" class="edge">
<title>dir_46a321a3e6535e2a38773c44e65bb94a&#45;&gt;dir_9824bf167b80be7f252573457e89ec80</title>
<g id="a_edge7"><a xlink:href="dir_000005_000008.html" target="_top">
<path fill="none" stroke="#63b8ff" d="M275.88,-125.98C266.56,-118.15 252.53,-106.34 241.26,-96.86"/>
<polygon fill="#63b8ff" stroke="#63b8ff" points="243.21,-93.93 233.31,-90.17 238.71,-99.29 243.21,-93.93"/>
</a>
</g>
<g id="a_edge7&#45;headlabel"><a xlink:href="dir_000005_000008.html" target="_top" xlink:title="4">
<text text-anchor="middle" x="247.79" y="-91.57" font-family="Helvetica,sans-Serif" font-size="10.00" fill="#63b8ff">4</text>
</a>
</g>
</g>
<!-- dir_68e71d09a89b7c1604c2fedae08a7a48 -->
<g id="node8" class="node">
<title>dir_68e71d09a89b7c1604c2fedae08a7a48</title>
<g id="a_node8"><a xlink:href="dir_68e71d09a89b7c1604c2fedae08a7a48.html" target="_top" xlink:title="Main">
<polygon fill="#dfe5f1" stroke="#404040" points="306.5,-90 265.5,-90 265.5,-71 306.5,-71 306.5,-90"/>
<text text-anchor="middle" x="286" y="-78" font-family="Helvetica,sans-Serif" font-size="10.00">Main</text>
</a>
</g>
</g>
<!-- dir_46a321a3e6535e2a38773c44e65bb94a&#45;&gt;dir_68e71d09a89b7c1604c2fedae08a7a48 -->
<g id="edge3" class="edge">
<title>dir_46a321a3e6535e2a38773c44e65bb94a&#45;&gt;dir_68e71d09a89b7c1604c2fedae08a7a48</title>
<g id="a_edge3"><a xlink:href="dir_000005_000011.html" target="_top">
<path fill="none" stroke="#63b8ff" d="M286,-125.75C286,-118.8 286,-108.85 286,-100.13"/>
<polygon fill="#63b8ff" stroke="#63b8ff" points="289.5,-100.09 286,-90.09 282.5,-100.09 289.5,-100.09"/>
</a>
</g>
<g id="a_edge3&#45;headlabel"><a xlink:href="dir_000005_000011.html" target="_top" xlink:title="6">
<text text-anchor="middle" x="292.34" y="-101.18" font-family="Helvetica,sans-Serif" font-size="10.00" fill="#63b8ff">6</text>
</a>
</g>
</g>
<!-- dir_71c21a2808e4788c2b301d032d602215 -->
<g id="node9" class="node">
<title>dir_71c21a2808e4788c2b301d032d602215</title>
<g id="a_node9"><a xlink:href="dir_71c21a2808e4788c2b301d032d602215.html" target="_top" xlink:title="ShortCutsMenu">
<polygon fill="#dfe5f1" stroke="#404040" points="127.5,-90 36.5,-90 36.5,-71 127.5,-71 127.5,-90"/>
<text text-anchor="middle" x="82" y="-78" font-family="Helvetica,sans-Serif" font-size="10.00">ShortCutsMenu</text>
</a>
</g>
</g>
<!-- dir_46a321a3e6535e2a38773c44e65bb94a&#45;&gt;dir_71c21a2808e4788c2b301d032d602215 -->
<g id="edge5" class="edge">
<title>dir_46a321a3e6535e2a38773c44e65bb94a&#45;&gt;dir_71c21a2808e4788c2b301d032d602215</title>
<g id="a_edge5"><a xlink:href="dir_000005_000016.html" target="_top">
<path fill="none" stroke="#63b8ff" d="M248.24,-125.95C217.81,-118.91 174,-108.42 136,-98 130.31,-96.44 124.3,-94.7 118.45,-92.95"/>
<polygon fill="#63b8ff" stroke="#63b8ff" points="119.41,-89.59 108.83,-90.03 117.38,-96.28 119.41,-89.59"/>
</a>
</g>
<g id="a_edge5&#45;headlabel"><a xlink:href="dir_000005_000016.html" target="_top" xlink:title="2">
<text text-anchor="middle" x="123.68" y="-85.41" font-family="Helvetica,sans-Serif" font-size="10.00" fill="#63b8ff">2</text>
</a>
</g>
</g>
<!-- dir_6f29a4b32d9057ae4debdc4b5d0901fc -->
<g id="node10" class="node">
<title>dir_6f29a4b32d9057ae4debdc4b5d0901fc</title>
<g id="a_node10"><a xlink:href="dir_6f29a4b32d9057ae4debdc4b5d0901fc.html" target="_top" xlink:title="QClipboard">
<polygon fill="#edf0f7" stroke="red" stroke-dasharray="5,2" points="608.5,-35 537.5,-35 537.5,-16 608.5,-16 608.5,-35"/>
<text text-anchor="middle" x="573" y="-23" font-family="Helvetica,sans-Serif" font-size="10.00">QClipboard</text>
</a>
</g>
</g>
<!-- dir_46a321a3e6535e2a38773c44e65bb94a&#45;&gt;dir_6f29a4b32d9057ae4debdc4b5d0901fc -->
<g id="edge4" class="edge">
<title>dir_46a321a3e6535e2a38773c44e65bb94a&#45;&gt;dir_6f29a4b32d9057ae4debdc4b5d0901fc</title>
<g id="a_edge4"><a xlink:href="dir_000005_000013.html" target="_top">
<path fill="none" stroke="#63b8ff" d="M330.06,-131.38C388.01,-126.63 486.11,-116.16 517,-98 538.39,-85.43 554.64,-61.3 563.99,-44.57"/>
<polygon fill="#63b8ff" stroke="#63b8ff" points="567.32,-45.76 568.9,-35.28 561.13,-42.48 567.32,-45.76"/>
</a>
</g>
<g id="a_edge4&#45;headlabel"><a xlink:href="dir_000005_000013.html" target="_top" xlink:title="20">
<text text-anchor="middle" x="568.15" y="-47.76" font-family="Helvetica,sans-Serif" font-size="10.00" fill="#63b8ff">20</text>
</a>
</g>
</g>
<!-- dir_7bd88421239db40e627c58863c626314 -->
<g id="node11" class="node">
<title>dir_7bd88421239db40e627c58863c626314</title>
<g id="a_node11"><a xlink:href="dir_7bd88421239db40e627c58863c626314.html" target="_top" xlink:title="Utils">
<polygon fill="#edf0f7" stroke="#7f7f7f" points="665.5,-35 626.5,-35 626.5,-16 665.5,-16 665.5,-35"/>
<text text-anchor="middle" x="646" y="-23" font-family="Helvetica,sans-Serif" font-size="10.00">Utils</text>
</a>
</g>
</g>
<!-- dir_46a321a3e6535e2a38773c44e65bb94a&#45;&gt;dir_7bd88421239db40e627c58863c626314 -->
<g id="edge6" class="edge">
<title>dir_46a321a3e6535e2a38773c44e65bb94a&#45;&gt;dir_7bd88421239db40e627c58863c626314</title>
<g id="a_edge6"><a xlink:href="dir_000005_000018.html" target="_top">
<path fill="none" stroke="#63b8ff" d="M330.44,-135.1C384.55,-134.35 477.79,-128.18 551,-98 582.44,-85.04 612.77,-59.14 630.38,-42.33"/>
<polygon fill="#63b8ff" stroke="#63b8ff" points="632.84,-44.82 637.54,-35.33 627.95,-39.82 632.84,-44.82"/>
</a>
</g>
<g id="a_edge6&#45;headlabel"><a xlink:href="dir_000005_000018.html" target="_top" xlink:title="18">
<text text-anchor="middle" x="632.26" y="-46.86" font-family="Helvetica,sans-Serif" font-size="10.00" fill="#63b8ff">18</text>
</a>
</g>
</g>
<!-- dir_dcac548670306a081e6bca009dc4d6c8&#45;&gt;dir_618b8582e55c59a9f1a21aa204c6b424 -->
<g id="edge10" class="edge">
<title>dir_dcac548670306a081e6bca009dc4d6c8&#45;&gt;dir_618b8582e55c59a9f1a21aa204c6b424</title>
<g id="a_edge10"><a xlink:href="dir_000003_000019.html" target="_top">
<path fill="none" stroke="#63b8ff" d="M155.09,-70.98C150.01,-65.86 143.05,-59.49 136,-55 126.08,-48.68 114.52,-43.23 103.78,-38.83"/>
<polygon fill="#63b8ff" stroke="#63b8ff" points="104.8,-35.48 94.21,-35.1 102.25,-42 104.8,-35.48"/>
</a>
</g>
<g id="a_edge10&#45;headlabel"><a xlink:href="dir_000003_000019.html" target="_top" xlink:title="3">
<text text-anchor="middle" x="109.18" y="-31.64" font-family="Helvetica,sans-Serif" font-size="10.00" fill="#63b8ff">3</text>
</a>
</g>
</g>
<!-- dir_dcac548670306a081e6bca009dc4d6c8&#45;&gt;dir_6f29a4b32d9057ae4debdc4b5d0901fc -->
<g id="edge11" class="edge">
<title>dir_dcac548670306a081e6bca009dc4d6c8&#45;&gt;dir_6f29a4b32d9057ae4debdc4b5d0901fc</title>
<g id="a_edge11"><a xlink:href="dir_000003_000013.html" target="_top">
<path fill="none" stroke="#63b8ff" d="M169.68,-70.6C174.4,-65.04 181.25,-58.34 189,-55 256.51,-25.91 441.48,-43.65 527.1,-35.53"/>
<polygon fill="#63b8ff" stroke="#63b8ff" points="527.74,-38.98 537.28,-34.37 526.95,-32.02 527.74,-38.98"/>
</a>
</g>
<g id="a_edge11&#45;headlabel"><a xlink:href="dir_000003_000013.html" target="_top" xlink:title="3">
<text text-anchor="middle" x="524.49" y="-39.7" font-family="Helvetica,sans-Serif" font-size="10.00" fill="#63b8ff">3</text>
</a>
</g>
</g>
<!-- dir_dcac548670306a081e6bca009dc4d6c8&#45;&gt;dir_7bd88421239db40e627c58863c626314 -->
<g id="edge12" class="edge">
<title>dir_dcac548670306a081e6bca009dc4d6c8&#45;&gt;dir_7bd88421239db40e627c58863c626314</title>
<g id="a_edge12"><a xlink:href="dir_000003_000018.html" target="_top">
<path fill="none" stroke="#63b8ff" d="M169.66,-70.57C174.38,-65 181.23,-58.29 189,-55 274.11,-18.9 508.66,-49.19 616.25,-34.7"/>
<polygon fill="#63b8ff" stroke="#63b8ff" points="616.91,-38.14 626.26,-33.15 615.84,-31.22 616.91,-38.14"/>
</a>
</g>
<g id="a_edge12&#45;headlabel"><a xlink:href="dir_000003_000018.html" target="_top" xlink:title="2">
<text text-anchor="middle" x="613.79" y="-38.99" font-family="Helvetica,sans-Serif" font-size="10.00" fill="#63b8ff">2</text>
</a>
</g>
</g>
<!-- dir_b35abc2667a853eec39e3ef2ebdbaa6c&#45;&gt;dir_6f29a4b32d9057ae4debdc4b5d0901fc -->
<g id="edge13" class="edge">
<title>dir_b35abc2667a853eec39e3ef2ebdbaa6c&#45;&gt;dir_6f29a4b32d9057ae4debdc4b5d0901fc</title>
<g id="a_edge13"><a xlink:href="dir_000006_000013.html" target="_top">
<path fill="none" stroke="#63b8ff" d="M358.03,-70.8C364.26,-65.33 373.01,-58.65 382,-55 441.67,-30.81 464.08,-44.94 527.21,-35.83"/>
<polygon fill="#63b8ff" stroke="#63b8ff" points="527.93,-39.26 537.26,-34.24 526.84,-32.35 527.93,-39.26"/>
</a>
</g>
<g id="a_edge13&#45;headlabel"><a xlink:href="dir_000006_000013.html" target="_top" xlink:title="1">
<text text-anchor="middle" x="524.83" y="-40.13" font-family="Helvetica,sans-Serif" font-size="10.00" fill="#63b8ff">1</text>
</a>
</g>
</g>
<!-- dir_b35abc2667a853eec39e3ef2ebdbaa6c&#45;&gt;dir_7bd88421239db40e627c58863c626314 -->
<g id="edge14" class="edge">
<title>dir_b35abc2667a853eec39e3ef2ebdbaa6c&#45;&gt;dir_7bd88421239db40e627c58863c626314</title>
<g id="a_edge14"><a xlink:href="dir_000006_000018.html" target="_top">
<path fill="none" stroke="#63b8ff" d="M357.7,-70.9C363.92,-65.33 372.79,-58.48 382,-55 477.48,-18.89 512.49,-52.67 616.32,-34.88"/>
<polygon fill="#63b8ff" stroke="#63b8ff" points="617.04,-38.31 626.24,-33.06 615.78,-31.42 617.04,-38.31"/>
</a>
</g>
<g id="a_edge14&#45;headlabel"><a xlink:href="dir_000006_000018.html" target="_top" xlink:title="6">
<text text-anchor="middle" x="614.02" y="-39.25" font-family="Helvetica,sans-Serif" font-size="10.00" fill="#63b8ff">6</text>
</a>
</g>
</g>
<!-- dir_9824bf167b80be7f252573457e89ec80&#45;&gt;dir_6f29a4b32d9057ae4debdc4b5d0901fc -->
<g id="edge15" class="edge">
<title>dir_9824bf167b80be7f252573457e89ec80&#45;&gt;dir_6f29a4b32d9057ae4debdc4b5d0901fc</title>
<g id="a_edge15"><a xlink:href="dir_000008_000013.html" target="_top">
<path fill="none" stroke="#63b8ff" d="M231.69,-70.87C237.9,-65.28 246.77,-58.43 256,-55 311.03,-34.58 456.7,-42.74 527.06,-35.58"/>
<polygon fill="#63b8ff" stroke="#63b8ff" points="527.77,-39.02 537.28,-34.34 526.93,-32.07 527.77,-39.02"/>
</a>
</g>
<g id="a_edge15&#45;headlabel"><a xlink:href="dir_000008_000013.html" target="_top" xlink:title="1">
<text text-anchor="middle" x="524.54" y="-39.76" font-family="Helvetica,sans-Serif" font-size="10.00" fill="#63b8ff">1</text>
</a>
</g>
</g>
<!-- dir_9824bf167b80be7f252573457e89ec80&#45;&gt;dir_7bd88421239db40e627c58863c626314 -->
<g id="edge16" class="edge">
<title>dir_9824bf167b80be7f252573457e89ec80&#45;&gt;dir_7bd88421239db40e627c58863c626314</title>
<g id="a_edge16"><a xlink:href="dir_000008_000018.html" target="_top">
<path fill="none" stroke="#63b8ff" d="M231.67,-70.82C237.87,-65.21 246.74,-58.35 256,-55 329.03,-28.6 523.88,-47.54 616.31,-34.71"/>
<polygon fill="#63b8ff" stroke="#63b8ff" points="616.93,-38.16 626.26,-33.13 615.83,-31.25 616.93,-38.16"/>
</a>
</g>
<g id="a_edge16&#45;headlabel"><a xlink:href="dir_000008_000018.html" target="_top" xlink:title="6">
<text text-anchor="middle" x="613.83" y="-39.03" font-family="Helvetica,sans-Serif" font-size="10.00" fill="#63b8ff">6</text>
</a>
</g>
</g>
<!-- dir_68e71d09a89b7c1604c2fedae08a7a48&#45;&gt;dir_6f29a4b32d9057ae4debdc4b5d0901fc -->
<g id="edge17" class="edge">
<title>dir_68e71d09a89b7c1604c2fedae08a7a48&#45;&gt;dir_6f29a4b32d9057ae4debdc4b5d0901fc</title>
<g id="a_edge17"><a xlink:href="dir_000011_000013.html" target="_top">
<path fill="none" stroke="#63b8ff" d="M294.02,-70.68C299.6,-65.16 307.54,-58.46 316,-55 402.58,-19.58 435.02,-47.48 527.25,-35.71"/>
<polygon fill="#63b8ff" stroke="#63b8ff" points="527.86,-39.16 537.27,-34.31 526.88,-32.23 527.86,-39.16"/>
</a>
</g>
<g id="a_edge17&#45;headlabel"><a xlink:href="dir_000011_000013.html" target="_top" xlink:title="7">
<text text-anchor="middle" x="524.69" y="-39.97" font-family="Helvetica,sans-Serif" font-size="10.00" fill="#63b8ff">7</text>
</a>
</g>
</g>
<!-- dir_68e71d09a89b7c1604c2fedae08a7a48&#45;&gt;dir_7bd88421239db40e627c58863c626314 -->
<g id="edge18" class="edge">
<title>dir_68e71d09a89b7c1604c2fedae08a7a48&#45;&gt;dir_7bd88421239db40e627c58863c626314</title>
<g id="a_edge18"><a xlink:href="dir_000011_000018.html" target="_top">
<path fill="none" stroke="#63b8ff" d="M293.99,-70.61C299.56,-65.06 307.49,-58.35 316,-55 375.88,-31.4 537.15,-45.71 616.13,-34.74"/>
<polygon fill="#63b8ff" stroke="#63b8ff" points="616.94,-38.16 626.25,-33.11 615.82,-31.25 616.94,-38.16"/>
</a>
</g>
<g id="a_edge18&#45;headlabel"><a xlink:href="dir_000011_000018.html" target="_top" xlink:title="1">
<text text-anchor="middle" x="613.84" y="-39.03" font-family="Helvetica,sans-Serif" font-size="10.00" fill="#63b8ff">1</text>
</a>
</g>
</g>
<!-- dir_71c21a2808e4788c2b301d032d602215&#45;&gt;dir_618b8582e55c59a9f1a21aa204c6b424 -->
<g id="edge20" class="edge">
<title>dir_71c21a2808e4788c2b301d032d602215&#45;&gt;dir_618b8582e55c59a9f1a21aa204c6b424</title>
<g id="a_edge20"><a xlink:href="dir_000016_000019.html" target="_top">
<path fill="none" stroke="#63b8ff" d="M79.69,-70.75C77.83,-63.72 75.16,-53.62 72.85,-44.84"/>
<polygon fill="#63b8ff" stroke="#63b8ff" points="76.21,-43.86 70.27,-35.09 69.44,-45.65 76.21,-43.86"/>
</a>
</g>
<g id="a_edge20&#45;headlabel"><a xlink:href="dir_000016_000019.html" target="_top" xlink:title="2">
<text text-anchor="middle" x="79.87" y="-44.11" font-family="Helvetica,sans-Serif" font-size="10.00" fill="#63b8ff">2</text>
</a>
</g>
</g>
<!-- dir_71c21a2808e4788c2b301d032d602215&#45;&gt;dir_365ffe00187863cbd8563d272a399d2a -->
<g id="edge19" class="edge">
<title>dir_71c21a2808e4788c2b301d032d602215&#45;&gt;dir_365ffe00187863cbd8563d272a399d2a</title>
<g id="a_edge19"><a xlink:href="dir_000016_000000.html" target="_top">
<path fill="none" stroke="#63b8ff" d="M93.89,-70.98C105.15,-62.92 122.29,-50.65 135.71,-41.03"/>
<polygon fill="#63b8ff" stroke="#63b8ff" points="137.8,-43.84 143.89,-35.17 133.73,-38.15 137.8,-43.84"/>
</a>
</g>
<g id="a_edge19&#45;headlabel"><a xlink:href="dir_000016_000000.html" target="_top" xlink:title="1">
<text text-anchor="middle" x="136.53" y="-45.74" font-family="Helvetica,sans-Serif" font-size="10.00" fill="#63b8ff">1</text>
</a>
</g>
</g>
<!-- dir_71c21a2808e4788c2b301d032d602215&#45;&gt;dir_6f29a4b32d9057ae4debdc4b5d0901fc -->
<g id="edge21" class="edge">
<title>dir_71c21a2808e4788c2b301d032d602215&#45;&gt;dir_6f29a4b32d9057ae4debdc4b5d0901fc</title>
<g id="a_edge21"><a xlink:href="dir_000016_000013.html" target="_top">
<path fill="none" stroke="#63b8ff" d="M97.04,-70.82C107.58,-65.21 122.19,-58.35 136,-55 304.41,-14.12 355.87,-56.21 527.17,-35.65"/>
<polygon fill="#63b8ff" stroke="#63b8ff" points="527.8,-39.1 537.28,-34.38 526.93,-32.16 527.8,-39.1"/>
</a>
</g>
<g id="a_edge21&#45;headlabel"><a xlink:href="dir_000016_000013.html" target="_top" xlink:title="6">
<text text-anchor="middle" x="524.58" y="-39.87" font-family="Helvetica,sans-Serif" font-size="10.00" fill="#63b8ff">6</text>
</a>
</g>
</g>
</g>
</svg>

<g id="navigator" transform="translate(0 0)" fill="#404254">
  <rect fill="#f2f5e9" fill-opacity="0.5" stroke="#606060" stroke-width=".5" x="0" y="0" width="60" height="60"/>
  <use id="zoomplus" xlink:href="#zoomPlus" x="17" y="9" onmousedown="handleZoom(evt,'in')"/>
  <use id="zoomminus" xlink:href="#zoomMin" x="42" y="9" onmousedown="handleZoom(evt,'out')"/>
  <use id="reset" xlink:href="#resetDef" x="30" y="36" onmousedown="handleReset()"/>
   <use id="arrowup" xlink:href="#arrowUp" x="0" y="0" onmousedown="handlePan(0,-1)"/>
  <use id="arrowright" xlink:href="#arrowRight" x="0" y="0" onmousedown="handlePan(1,0)"/>
  <use id="arrowdown" xlink:href="#arrowDown" x="0" y="0" onmousedown="handlePan(0,1)"/>
  <use id="arrowleft" xlink:href="#arrowLeft" x="0" y="0" onmousedown="handlePan(-1,0)"/>
</g>
<svg viewBox="0 0 15 15" width="100%" height="30px" preserveAspectRatio="xMaxYMin meet">
 <g id="arrow_out" transform="scale(0.3 0.3)">
  <a xlink:href="dir_46a321a3e6535e2a38773c44e65bb94a_dep_org.svg" target="_base">
   <rect id="button" ry="5" rx="5" y="6" x="6" height="38" width="38"
        fill="#f2f5e9" fill-opacity="0.5" stroke="#606060" stroke-width="1.0"/>
   <path id="arrow"
     d="M 11.500037,31.436501 C 11.940474,20.09759 22.043105,11.32322 32.158766,21.979434 L 37.068811,17.246167 C 37.068811,17.246167 37.088388,32 37.088388,32 L 22.160133,31.978069 C 22.160133,31.978069 26.997745,27.140456 26.997745,27.140456 C 18.528582,18.264221 13.291696,25.230495 11.500037,31.436501 z"
     style="fill:#404040;"/>
  </a>
 </g>
</svg>

<style type='text/css'>
<![CDATA[
[data-mouse-over-selected='false'] { opacity: 0.7; }
[data-mouse-over-selected='true']  { opacity: 1.0; }
]]>
</style>
<script type="application/ecmascript"><![CDATA[
document.addEventListener('DOMContentLoaded', (event) => {
  highlightEdges();
  highlightAdjacentNodes();
});
]]></script>
</svg>
