<?xml version="1.0" encoding="UTF-8" standalone="no"?>
<!DOCTYPE svg PUBLIC "-//W3C//DTD SVG 1.1//EN"
 "http://www.w3.org/Graphics/SVG/1.1/DTD/svg11.dtd">
<!-- Generated by graphviz version 2.43.0 (0)
 -->
<!-- Title: Clipboard++/RmlUI/EventHandlers/Clipboard++Events/Edit/EditDoneEvent.cpp Pages: 1 -->
<!--zoomable 445 -->

<svg id="main" version="1.1" xmlns="http://www.w3.org/2000/svg" xmlns:xlink="http://www.w3.org/1999/xlink" xml:space="preserve" onload="init(evt)">
<style type="text/css"><![CDATA[
.node, .edge {opacity: 0.7;}
.node.selected, .edge.selected {opacity: 1;}
.edge:hover path { stroke: red; }
.edge:hover polygon { stroke: red; fill: red; }
]]></style>

<defs>
  <circle id="rim" cx="0" cy="0" r="7"/>
  <circle id="rim2" cx="0" cy="0" r="3.5"/>
  <g id="zoomPlus">
    <use xlink:href="#rim" fill="#404040"><set attributeName="fill" to="#808080" begin="zoomplus.mouseover" end="zoomplus.mouseout"/></use>
    <path d="M-4,0h8M0,-4v8" fill="none" stroke="white" stroke-width="1.5" pointer-events="none"/>
  </g>
  <g id="zoomMin">
    <use xlink:href="#rim" fill="#404040"><set attributeName="fill" to="#808080" begin="zoomminus.mouseover" end="zoomminus.mouseout"/></use>
    <path d="M-4,0h8" fill="none" stroke="white" stroke-width="1.5" pointer-events="none"/>
  </g>
  <g id="arrowUp" transform="translate(30 24)">
    <use xlink:href="#rim"/>
    <path pointer-events="none" fill="none" stroke="white" stroke-width="1.5" d="M0,-3.0v7 M-2.5,-0.5L0,-3.0L2.5,-0.5"/>
  </g>
  <g id="arrowRight" transform="rotate(90) translate(36 -43)">
    <use xlink:href="#rim"/>
    <path pointer-events="none" fill="none" stroke="white" stroke-width="1.5" d="M0,-3.0v7 M-2.5,-0.5L0,-3.0L2.5,-0.5"/>
  </g>
  <g id="arrowDown" transform="rotate(180) translate(-30 -48)">
    <use xlink:href="#rim"/>
    <path pointer-events="none" fill="none" stroke="white" stroke-width="1.5" d="M0,-3.0v7 M-2.5,-0.5L0,-3.0L2.5,-0.5"/>
  </g>
  <g id="arrowLeft" transform="rotate(270) translate(-36 17)">
    <use xlink:href="#rim"/>
    <path pointer-events="none" fill="none" stroke="white" stroke-width="1.5" d="M0,-3.0v7 M-2.5,-0.5L0,-3.0L2.5,-0.5"/>
  </g>
  <g id="resetDef">
    <use xlink:href="#rim2" fill="#404040"><set attributeName="fill" to="#808080" begin="reset.mouseover" end="reset.mouseout"/></use>
  </g>
</defs>
<script type="application/ecmascript">
var viewWidth = 936;
var viewHeight = 445;
var sectionId = 'dynsection-0';
</script>
<script type="application/ecmascript" xlink:href="svg.min.js"/>
<svg id="graph" class="graph">
<g id="viewport">
<title>Clipboard++/RmlUI/EventHandlers/Clipboard++Events/Edit/EditDoneEvent.cpp</title>
<!-- Node1 -->
<g id="Node000001" class="node">
<title>Node1</title>
<g id="a_Node000001"><a xlink:title=" ">
<polygon fill="#999999" stroke="#666666" points="661,-437 428,-437 428,-407 661,-407 661,-437"/>
<text text-anchor="start" x="436" y="-425" font-family="Helvetica,sans-Serif" font-size="10.00">Clipboard++/RmlUI/EventHandlers</text>
<text text-anchor="middle" x="544.5" y="-414" font-family="Helvetica,sans-Serif" font-size="10.00">/Clipboard++Events/Edit/EditDoneEvent.cpp</text>
</a>
</g>
</g>
<!-- Node2 -->
<g id="Node000002" class="node">
<title>Node2</title>
<g id="a_Node000002"><a xlink:href="EditDoneEvent_8h.html" target="_top" xlink:title=" ">
<polygon fill="white" stroke="#666666" points="534.5,-371 436.5,-371 436.5,-352 534.5,-352 534.5,-371"/>
<text text-anchor="middle" x="485.5" y="-359" font-family="Helvetica,sans-Serif" font-size="10.00">EditDoneEvent.h</text>
</a>
</g>
</g>
<!-- Node1&#45;&gt;Node2 -->
<g id="edge1_Node000001_Node000002" class="edge">
<title>Node1&#45;&gt;Node2</title>
<g id="a_edge1_Node000001_Node000002"><a xlink:title=" ">
<path fill="none" stroke="#63b8ff" d="M530.22,-406.84C521.57,-398.26 510.51,-387.3 501.56,-378.42"/>
<polygon fill="#63b8ff" stroke="#63b8ff" points="503.91,-375.82 494.34,-371.27 498.98,-380.79 503.91,-375.82"/>
</a>
</g>
</g>
<!-- Node21 -->
<g id="Node000021" class="node">
<title>Node21</title>
<g id="a_Node000021"><a xlink:title=" ">
<polygon fill="#e0e0e0" stroke="#999999" points="656.5,-371 552.5,-371 552.5,-352 656.5,-352 656.5,-371"/>
<text text-anchor="middle" x="604.5" y="-359" font-family="Helvetica,sans-Serif" font-size="10.00">../EventManager.h</text>
</a>
</g>
</g>
<!-- Node1&#45;&gt;Node21 -->
<g id="edge32_Node000001_Node000021" class="edge">
<title>Node1&#45;&gt;Node21</title>
<g id="a_edge32_Node000001_Node000021"><a xlink:title=" ">
<path fill="none" stroke="#63b8ff" d="M559.02,-406.84C567.82,-398.26 579.07,-387.3 588.17,-378.42"/>
<polygon fill="#63b8ff" stroke="#63b8ff" points="590.79,-380.75 595.51,-371.27 585.91,-375.74 590.79,-380.75"/>
</a>
</g>
</g>
<!-- Node3 -->
<g id="Node000003" class="node">
<title>Node3</title>
<g id="a_Node000003"><a xlink:href="Clipboard_09_09Event_8h.html" target="_top" xlink:title=" ">
<polygon fill="white" stroke="#666666" points="306.5,-310.5 190.5,-310.5 190.5,-291.5 306.5,-291.5 306.5,-310.5"/>
<text text-anchor="middle" x="248.5" y="-298.5" font-family="Helvetica,sans-Serif" font-size="10.00">Clipboard++Event.h</text>
</a>
</g>
</g>
<!-- Node2&#45;&gt;Node3 -->
<g id="edge2_Node000002_Node000003" class="edge">
<title>Node2&#45;&gt;Node3</title>
<g id="a_edge2_Node000002_Node000003"><a xlink:title=" ">
<path fill="none" stroke="#63b8ff" d="M451.04,-351.99C409.26,-341.68 338.78,-324.28 292.96,-312.97"/>
<polygon fill="#63b8ff" stroke="#63b8ff" points="293.55,-309.52 283,-310.52 291.87,-316.31 293.55,-309.52"/>
</a>
</g>
</g>
<!-- Node6 -->
<g id="Node000006" class="node">
<title>Node6</title>
<g id="a_Node000006"><a xlink:href="MemoryCellManager_8h.html" target="_top" xlink:title=" ">
<polygon fill="white" stroke="#666666" points="596.5,-250 458.5,-250 458.5,-220 596.5,-220 596.5,-250"/>
<text text-anchor="start" x="466.5" y="-238" font-family="Helvetica,sans-Serif" font-size="10.00">QClipboard/MemoryCells</text>
<text text-anchor="middle" x="527.5" y="-227" font-family="Helvetica,sans-Serif" font-size="10.00">/MemoryCellManager.h</text>
</a>
</g>
</g>
<!-- Node2&#45;&gt;Node6 -->
<g id="edge5_Node000002_Node000006" class="edge">
<title>Node2&#45;&gt;Node6</title>
<g id="a_edge5_Node000002_Node000006"><a xlink:title=" ">
<path fill="none" stroke="#63b8ff" d="M493.55,-351.7C500.81,-343.21 511.15,-329.68 516.5,-316 523.47,-298.18 526.13,-276.62 527.1,-260.37"/>
<polygon fill="#63b8ff" stroke="#63b8ff" points="530.61,-260.22 527.53,-250.08 523.62,-259.93 530.61,-260.22"/>
</a>
</g>
</g>
<!-- Node16 -->
<g id="Node000016" class="node">
<title>Node16</title>
<g id="a_Node000016"><a xlink:href="EditViewModel_8h.html" target="_top" xlink:title=" ">
<polygon fill="white" stroke="#666666" points="347.5,-129 249.5,-129 249.5,-110 347.5,-110 347.5,-129"/>
<text text-anchor="middle" x="298.5" y="-117" font-family="Helvetica,sans-Serif" font-size="10.00">EditViewModel.h</text>
</a>
</g>
</g>
<!-- Node2&#45;&gt;Node16 -->
<g id="edge18_Node000002_Node000016" class="edge">
<title>Node2&#45;&gt;Node16</title>
<g id="a_edge18_Node000002_Node000016"><a xlink:title=" ">
<path fill="none" stroke="#63b8ff" d="M436.46,-355.27C408.6,-349.82 375.07,-338.7 353.5,-316 328.92,-290.14 308.83,-182.98 301.49,-139.23"/>
<polygon fill="#63b8ff" stroke="#63b8ff" points="304.94,-138.65 299.87,-129.34 298.04,-139.78 304.94,-138.65"/>
</a>
</g>
</g>
<!-- Node17 -->
<g id="Node000017" class="node">
<title>Node17</title>
<g id="a_Node000017"><a xlink:href="KeyShortCutManager_8h.html" target="_top" xlink:title=" ">
<polygon fill="white" stroke="#666666" points="508,-316 363,-316 363,-286 508,-286 508,-316"/>
<text text-anchor="start" x="371" y="-304" font-family="Helvetica,sans-Serif" font-size="10.00">KeyShortCuts/KeyShortCut</text>
<text text-anchor="middle" x="435.5" y="-293" font-family="Helvetica,sans-Serif" font-size="10.00">Manager.h</text>
</a>
</g>
</g>
<!-- Node2&#45;&gt;Node17 -->
<g id="edge22_Node000002_Node000017" class="edge">
<title>Node2&#45;&gt;Node17</title>
<g id="a_edge22_Node000002_Node000017"><a xlink:title=" ">
<path fill="none" stroke="#63b8ff" d="M478.12,-351.87C471.84,-344.52 462.54,-333.63 454.23,-323.91"/>
<polygon fill="#63b8ff" stroke="#63b8ff" points="456.72,-321.44 447.56,-316.11 451.4,-325.99 456.72,-321.44"/>
</a>
</g>
</g>
<!-- Node18 -->
<g id="Node000018" class="node">
<title>Node18</title>
<g id="a_Node000018"><a xlink:href="TranslationManager_8h.html" target="_top" xlink:title=" ">
<polygon fill="white" stroke="#666666" points="927.5,-74 781.5,-74 781.5,-55 927.5,-55 927.5,-74"/>
<text text-anchor="middle" x="854.5" y="-62" font-family="Helvetica,sans-Serif" font-size="10.00">Utils/TranslationManager.h</text>
</a>
</g>
</g>
<!-- Node2&#45;&gt;Node18 -->
<g id="edge25_Node000002_Node000018" class="edge">
<title>Node2&#45;&gt;Node18</title>
<g id="a_edge25_Node000002_Node000018"><a xlink:title=" ">
<path fill="none" stroke="#63b8ff" d="M528.18,-351.99C632.42,-330.61 891.5,-273.69 891.5,-236 891.5,-236 891.5,-236 891.5,-173.5 891.5,-140.12 875.48,-103.91 864.52,-83.04"/>
<polygon fill="#63b8ff" stroke="#63b8ff" points="867.51,-81.21 859.64,-74.12 861.37,-84.57 867.51,-81.21"/>
</a>
</g>
</g>
<!-- Node20 -->
<g id="Node000020" class="node">
<title>Node20</title>
<g id="a_Node000020"><a xlink:href="FileManager_8h.html" target="_top" xlink:title=" ">
<polygon fill="white" stroke="#666666" points="863.5,-129 753.5,-129 753.5,-110 863.5,-110 863.5,-129"/>
<text text-anchor="middle" x="808.5" y="-117" font-family="Helvetica,sans-Serif" font-size="10.00">Utils/FileManager.h</text>
</a>
</g>
</g>
<!-- Node2&#45;&gt;Node20 -->
<g id="edge28_Node000002_Node000020" class="edge">
<title>Node2&#45;&gt;Node20</title>
<g id="a_edge28_Node000002_Node000020"><a xlink:title=" ">
<path fill="none" stroke="#63b8ff" d="M497,-351.96C544.77,-316.46 727.94,-180.36 788.75,-135.17"/>
<polygon fill="#63b8ff" stroke="#63b8ff" points="790.87,-137.96 796.8,-129.19 786.69,-132.35 790.87,-137.96"/>
</a>
</g>
</g>
<!-- Node4 -->
<g id="Node000004" class="node">
<title>Node4</title>
<g id="a_Node000004"><a xlink:title=" ">
<polygon fill="#e0e0e0" stroke="#999999" points="305.5,-244.5 193.5,-244.5 193.5,-225.5 305.5,-225.5 305.5,-244.5"/>
<text text-anchor="middle" x="249.5" y="-232.5" font-family="Helvetica,sans-Serif" font-size="10.00">RmlUi/Core/Types.h</text>
</a>
</g>
</g>
<!-- Node3&#45;&gt;Node4 -->
<g id="edge3_Node000003_Node000004" class="edge">
<title>Node3&#45;&gt;Node4</title>
<g id="a_edge3_Node000003_Node000004"><a xlink:title=" ">
<path fill="none" stroke="#63b8ff" d="M248.63,-291.37C248.78,-282.16 249.01,-267.29 249.2,-255.27"/>
<polygon fill="#63b8ff" stroke="#63b8ff" points="252.7,-254.96 249.36,-244.91 245.7,-254.85 252.7,-254.96"/>
</a>
</g>
</g>
<!-- Node5 -->
<g id="Node000005" class="node">
<title>Node5</title>
<g id="a_Node000005"><a xlink:title=" ">
<polygon fill="#e0e0e0" stroke="#999999" points="175,-244.5 0,-244.5 0,-225.5 175,-225.5 175,-244.5"/>
<text text-anchor="middle" x="87.5" y="-232.5" font-family="Helvetica,sans-Serif" font-size="10.00">RmlUi/Core/ElementDocument.h</text>
</a>
</g>
</g>
<!-- Node3&#45;&gt;Node5 -->
<g id="edge4_Node000003_Node000005" class="edge">
<title>Node3&#45;&gt;Node5</title>
<g id="a_edge4_Node000003_Node000005"><a xlink:title=" ">
<path fill="none" stroke="#63b8ff" d="M226.79,-291.37C198.98,-280.32 150.6,-261.08 118.82,-248.45"/>
<polygon fill="#63b8ff" stroke="#63b8ff" points="119.71,-245.04 109.13,-244.6 117.13,-251.54 119.71,-245.04"/>
</a>
</g>
</g>
<!-- Node7 -->
<g id="Node000007" class="node">
<title>Node7</title>
<g id="a_Node000007"><a xlink:href="ClipboardInterface_8h.html" target="_top" xlink:title=" ">
<polygon fill="white" stroke="#666666" points="735.5,-129 619.5,-129 619.5,-110 735.5,-110 735.5,-129"/>
<text text-anchor="middle" x="677.5" y="-117" font-family="Helvetica,sans-Serif" font-size="10.00">ClipboardInterface.h</text>
</a>
</g>
</g>
<!-- Node6&#45;&gt;Node7 -->
<g id="edge6_Node000006_Node000007" class="edge">
<title>Node6&#45;&gt;Node7</title>
<g id="a_edge6_Node000006_Node000007"><a xlink:title=" ">
<path fill="none" stroke="#63b8ff" d="M596.71,-220.46C619.03,-213.02 642.18,-201.57 658.5,-184 669.76,-171.88 674.36,-153.35 676.24,-139.43"/>
<polygon fill="#63b8ff" stroke="#63b8ff" points="679.76,-139.36 677.26,-129.06 672.79,-138.67 679.76,-139.36"/>
</a>
</g>
</g>
<!-- Node10 -->
<g id="Node000010" class="node">
<title>Node10</title>
<g id="a_Node000010"><a xlink:title=" ">
<polygon fill="#e0e0e0" stroke="#999999" points="465,-19 418,-19 418,0 465,0 465,-19"/>
<text text-anchor="middle" x="441.5" y="-7" font-family="Helvetica,sans-Serif" font-size="10.00">vector</text>
</a>
</g>
</g>
<!-- Node6&#45;&gt;Node10 -->
<g id="edge16_Node000006_Node000010" class="edge">
<title>Node6&#45;&gt;Node10</title>
<g id="a_edge16_Node000006_Node000010"><a xlink:title=" ">
<path fill="none" stroke="#63b8ff" d="M495.84,-219.9C480.9,-211.61 464.25,-199.64 454.5,-184 437,-155.93 435.5,-141.2 446.5,-110 453.33,-90.62 468.67,-93.38 475.5,-74 478.31,-66.04 478.21,-63 475.5,-55 471.94,-44.47 464.78,-34.48 457.95,-26.63"/>
<polygon fill="#63b8ff" stroke="#63b8ff" points="460.49,-24.23 451.11,-19.31 455.37,-29.01 460.49,-24.23"/>
</a>
</g>
</g>
<!-- Node12 -->
<g id="Node000012" class="node">
<title>Node12</title>
<g id="a_Node000012"><a xlink:href="ClipboardAdapter_8h.html" target="_top" xlink:title=" ">
<polygon fill="white" stroke="#666666" points="573.5,-184 463.5,-184 463.5,-165 573.5,-165 573.5,-184"/>
<text text-anchor="middle" x="518.5" y="-172" font-family="Helvetica,sans-Serif" font-size="10.00">ClipboardAdapter.h</text>
</a>
</g>
</g>
<!-- Node6&#45;&gt;Node12 -->
<g id="edge12_Node000006_Node000012" class="edge">
<title>Node6&#45;&gt;Node12</title>
<g id="a_edge12_Node000006_Node000012"><a xlink:title=" ">
<path fill="none" stroke="#63b8ff" d="M525.32,-219.84C524.13,-212.13 522.65,-202.49 521.37,-194.17"/>
<polygon fill="#63b8ff" stroke="#63b8ff" points="524.83,-193.62 519.85,-184.27 517.91,-194.68 524.83,-193.62"/>
</a>
</g>
</g>
<!-- Node15 -->
<g id="Node000015" class="node">
<title>Node15</title>
<g id="a_Node000015"><a xlink:title=" ">
<polygon fill="#e0e0e0" stroke="#999999" points="649.5,-184 591.5,-184 591.5,-165 649.5,-165 649.5,-184"/>
<text text-anchor="middle" x="620.5" y="-172" font-family="Helvetica,sans-Serif" font-size="10.00">memory</text>
</a>
</g>
</g>
<!-- Node6&#45;&gt;Node15 -->
<g id="edge17_Node000006_Node000015" class="edge">
<title>Node6&#45;&gt;Node15</title>
<g id="a_edge17_Node000006_Node000015"><a xlink:title=" ">
<path fill="none" stroke="#63b8ff" d="M550.01,-219.84C564.56,-210.68 583.43,-198.82 597.99,-189.66"/>
<polygon fill="#63b8ff" stroke="#63b8ff" points="600.24,-192.38 606.84,-184.09 596.51,-186.46 600.24,-192.38"/>
</a>
</g>
</g>
<!-- Node8 -->
<g id="Node000008" class="node">
<title>Node8</title>
<g id="a_Node000008"><a xlink:title=" ">
<polygon fill="#e0e0e0" stroke="#999999" points="737.5,-19 693.5,-19 693.5,0 737.5,0 737.5,-19"/>
<text text-anchor="middle" x="715.5" y="-7" font-family="Helvetica,sans-Serif" font-size="10.00">string</text>
</a>
</g>
</g>
<!-- Node7&#45;&gt;Node8 -->
<g id="edge7_Node000007_Node000008" class="edge">
<title>Node7&#45;&gt;Node8</title>
<g id="a_edge7_Node000007_Node000008"><a xlink:title=" ">
<path fill="none" stroke="#63b8ff" d="M680.61,-109.66C686.82,-92.01 700.87,-52.09 709.12,-28.64"/>
<polygon fill="#63b8ff" stroke="#63b8ff" points="712.44,-29.75 712.45,-19.16 705.83,-27.43 712.44,-29.75"/>
</a>
</g>
</g>
<!-- Node9 -->
<g id="Node000009" class="node">
<title>Node9</title>
<g id="a_Node000009"><a xlink:href="KeyShortCut_8h.html" target="_top" xlink:title=" ">
<polygon fill="white" stroke="#666666" points="466.5,-74 312.5,-74 312.5,-55 466.5,-55 466.5,-74"/>
<text text-anchor="middle" x="389.5" y="-62" font-family="Helvetica,sans-Serif" font-size="10.00">KeyShortCuts/KeyShortCut.h</text>
</a>
</g>
</g>
<!-- Node7&#45;&gt;Node9 -->
<g id="edge8_Node000007_Node000009" class="edge">
<title>Node7&#45;&gt;Node9</title>
<g id="a_edge8_Node000007_Node000009"><a xlink:title=" ">
<path fill="none" stroke="#63b8ff" d="M631.23,-109.98C580.89,-100.72 500.38,-85.9 446.26,-75.94"/>
<polygon fill="#63b8ff" stroke="#63b8ff" points="446.6,-72.45 436.13,-74.08 445.34,-79.33 446.6,-72.45"/>
</a>
</g>
</g>
<!-- Node9&#45;&gt;Node8 -->
<g id="edge10_Node000009_Node000008" class="edge">
<title>Node9&#45;&gt;Node8</title>
<g id="a_edge10_Node000009_Node000008"><a xlink:title=" ">
<path fill="none" stroke="#63b8ff" d="M441.88,-54.98C510.02,-43.91 627,-24.89 683.33,-15.73"/>
<polygon fill="#63b8ff" stroke="#63b8ff" points="684.13,-19.15 693.44,-14.09 683.01,-12.24 684.13,-19.15"/>
</a>
</g>
</g>
<!-- Node9&#45;&gt;Node10 -->
<g id="edge9_Node000009_Node000010" class="edge">
<title>Node9&#45;&gt;Node10</title>
<g id="a_edge9_Node000009_Node000010"><a xlink:title=" ">
<path fill="none" stroke="#63b8ff" d="M398.09,-54.75C405.66,-47.03 416.88,-35.6 426.01,-26.28"/>
<polygon fill="#63b8ff" stroke="#63b8ff" points="428.57,-28.68 433.07,-19.09 423.57,-23.78 428.57,-28.68"/>
</a>
</g>
</g>
<!-- Node11 -->
<g id="Node000011" class="node">
<title>Node11</title>
<g id="a_Node000011"><a xlink:title=" ">
<polygon fill="#e0e0e0" stroke="#999999" points="377,-19 268,-19 268,0 377,0 377,-19"/>
<text text-anchor="middle" x="322.5" y="-7" font-family="Helvetica,sans-Serif" font-size="10.00">RmlUi/Core/Input.h</text>
</a>
</g>
</g>
<!-- Node9&#45;&gt;Node11 -->
<g id="edge11_Node000009_Node000011" class="edge">
<title>Node9&#45;&gt;Node11</title>
<g id="a_edge11_Node000009_Node000011"><a xlink:title=" ">
<path fill="none" stroke="#63b8ff" d="M378.74,-54.98C368.73,-47.07 353.61,-35.11 341.57,-25.58"/>
<polygon fill="#63b8ff" stroke="#63b8ff" points="343.47,-22.63 333.46,-19.17 339.13,-28.12 343.47,-22.63"/>
</a>
</g>
</g>
<!-- Node12&#45;&gt;Node7 -->
<g id="edge13_Node000012_Node000007" class="edge">
<title>Node12&#45;&gt;Node7</title>
<g id="a_edge13_Node000012_Node000007"><a xlink:title=" ">
<path fill="none" stroke="#63b8ff" d="M544.05,-164.98C570.62,-156.13 612.44,-142.19 642.17,-132.28"/>
<polygon fill="#63b8ff" stroke="#63b8ff" points="643.37,-135.56 651.75,-129.08 641.16,-128.92 643.37,-135.56"/>
</a>
</g>
</g>
<!-- Node13 -->
<g id="Node000013" class="node">
<title>Node13</title>
<g id="a_Node000013"><a xlink:title=" ">
<polygon fill="#e0e0e0" stroke="#999999" points="527,-129 456,-129 456,-110 527,-110 527,-129"/>
<text text-anchor="middle" x="491.5" y="-117" font-family="Helvetica,sans-Serif" font-size="10.00">QClipboard</text>
</a>
</g>
</g>
<!-- Node12&#45;&gt;Node13 -->
<g id="edge14_Node000012_Node000013" class="edge">
<title>Node12&#45;&gt;Node13</title>
<g id="a_edge14_Node000012_Node000013"><a xlink:title=" ">
<path fill="none" stroke="#63b8ff" d="M514.04,-164.75C510.38,-157.57 505.09,-147.18 500.55,-138.27"/>
<polygon fill="#63b8ff" stroke="#63b8ff" points="503.53,-136.41 495.88,-129.09 497.3,-139.59 503.53,-136.41"/>
</a>
</g>
</g>
<!-- Node14 -->
<g id="Node000014" class="node">
<title>Node14</title>
<g id="a_Node000014"><a xlink:title=" ">
<polygon fill="#e0e0e0" stroke="#999999" points="601.5,-129 545.5,-129 545.5,-110 601.5,-110 601.5,-129"/>
<text text-anchor="middle" x="573.5" y="-117" font-family="Helvetica,sans-Serif" font-size="10.00">QObject</text>
</a>
</g>
</g>
<!-- Node12&#45;&gt;Node14 -->
<g id="edge15_Node000012_Node000014" class="edge">
<title>Node12&#45;&gt;Node14</title>
<g id="a_edge15_Node000012_Node000014"><a xlink:title=" ">
<path fill="none" stroke="#63b8ff" d="M527.58,-164.75C535.59,-157.03 547.46,-145.6 557.12,-136.28"/>
<polygon fill="#63b8ff" stroke="#63b8ff" points="559.81,-138.55 564.59,-129.09 554.96,-133.51 559.81,-138.55"/>
</a>
</g>
</g>
<!-- Node16&#45;&gt;Node9 -->
<g id="edge19_Node000016_Node000009" class="edge">
<title>Node16&#45;&gt;Node9</title>
<g id="a_edge19_Node000016_Node000009"><a xlink:title=" ">
<path fill="none" stroke="#63b8ff" d="M313.12,-109.98C327.36,-101.69 349.25,-88.94 365.95,-79.22"/>
<polygon fill="#63b8ff" stroke="#63b8ff" points="367.73,-82.23 374.61,-74.17 364.21,-76.18 367.73,-82.23"/>
</a>
</g>
</g>
<!-- Node16&#45;&gt;Node10 -->
<g id="edge21_Node000016_Node000010" class="edge">
<title>Node16&#45;&gt;Node10</title>
<g id="a_edge21_Node000016_Node000010"><a xlink:title=" ">
<path fill="none" stroke="#63b8ff" d="M296.38,-109.61C293.76,-96.22 291.02,-70.79 303.5,-55 316.5,-38.55 371,-24.67 407.49,-16.98"/>
<polygon fill="#63b8ff" stroke="#63b8ff" points="408.62,-20.32 417.72,-14.88 407.22,-13.46 408.62,-20.32"/>
</a>
</g>
</g>
<!-- Node16&#45;&gt;Node11 -->
<g id="edge20_Node000016_Node000011" class="edge">
<title>Node16&#45;&gt;Node11</title>
<g id="a_edge20_Node000016_Node000011"><a xlink:title=" ">
<path fill="none" stroke="#63b8ff" d="M289.79,-109.83C278.57,-97.57 261.53,-74.48 270.5,-55 276.25,-42.52 287.41,-32.24 297.92,-24.71"/>
<polygon fill="#63b8ff" stroke="#63b8ff" points="300.07,-27.49 306.47,-19.05 296.2,-21.65 300.07,-27.49"/>
</a>
</g>
</g>
<!-- Node17&#45;&gt;Node6 -->
<g id="edge24_Node000017_Node000006" class="edge">
<title>Node17&#45;&gt;Node6</title>
<g id="a_edge24_Node000017_Node000006"><a xlink:title=" ">
<path fill="none" stroke="#63b8ff" d="M455.92,-285.8C468.54,-277.01 484.94,-265.61 498.85,-255.93"/>
<polygon fill="#63b8ff" stroke="#63b8ff" points="500.93,-258.75 507.14,-250.16 496.93,-253 500.93,-258.75"/>
</a>
</g>
</g>
<!-- Node17&#45;&gt;Node9 -->
<g id="edge23_Node000017_Node000009" class="edge">
<title>Node17&#45;&gt;Node9</title>
<g id="a_edge23_Node000017_Node000009"><a xlink:title=" ">
<path fill="none" stroke="#63b8ff" d="M432.69,-285.68C424.74,-245.17 402.09,-129.68 393.17,-84.22"/>
<polygon fill="#63b8ff" stroke="#63b8ff" points="396.58,-83.4 391.22,-74.26 389.71,-84.74 396.58,-83.4"/>
</a>
</g>
</g>
<!-- Node18&#45;&gt;Node8 -->
<g id="edge26_Node000018_Node000008" class="edge">
<title>Node18&#45;&gt;Node8</title>
<g id="a_edge26_Node000018_Node000008"><a xlink:title=" ">
<path fill="none" stroke="#63b8ff" d="M832.17,-54.98C809.17,-46.21 773.12,-32.47 747.18,-22.58"/>
<polygon fill="#63b8ff" stroke="#63b8ff" points="748.37,-19.29 737.78,-18.99 745.87,-25.83 748.37,-19.29"/>
</a>
</g>
</g>
<!-- Node19 -->
<g id="Node000019" class="node">
<title>Node19</title>
<g id="a_Node000019"><a xlink:title=" ">
<polygon fill="#e0e0e0" stroke="#999999" points="873.5,-19 835.5,-19 835.5,0 873.5,0 873.5,-19"/>
<text text-anchor="middle" x="854.5" y="-7" font-family="Helvetica,sans-Serif" font-size="10.00">map</text>
</a>
</g>
</g>
<!-- Node18&#45;&gt;Node19 -->
<g id="edge27_Node000018_Node000019" class="edge">
<title>Node18&#45;&gt;Node19</title>
<g id="a_edge27_Node000018_Node000019"><a xlink:title=" ">
<path fill="none" stroke="#63b8ff" d="M854.5,-54.75C854.5,-47.8 854.5,-37.85 854.5,-29.13"/>
<polygon fill="#63b8ff" stroke="#63b8ff" points="858,-29.09 854.5,-19.09 851,-29.09 858,-29.09"/>
</a>
</g>
</g>
<!-- Node20&#45;&gt;Node8 -->
<g id="edge29_Node000020_Node000008" class="edge">
<title>Node20&#45;&gt;Node8</title>
<g id="a_edge29_Node000020_Node000008"><a xlink:title=" ">
<path fill="none" stroke="#63b8ff" d="M800.89,-109.66C785.28,-91.54 749.44,-49.91 729.51,-26.77"/>
<polygon fill="#63b8ff" stroke="#63b8ff" points="732.13,-24.45 722.96,-19.16 726.83,-29.02 732.13,-24.45"/>
</a>
</g>
</g>
<!-- Node20&#45;&gt;Node10 -->
<g id="edge30_Node000020_Node000010" class="edge">
<title>Node20&#45;&gt;Node10</title>
<g id="a_edge30_Node000020_Node000010"><a xlink:title=" ">
<path fill="none" stroke="#63b8ff" d="M779.4,-109.94C712.17,-90.15 546.43,-41.38 475.06,-20.38"/>
<polygon fill="#63b8ff" stroke="#63b8ff" points="475.83,-16.95 465.24,-17.49 473.85,-23.67 475.83,-16.95"/>
</a>
</g>
</g>
<!-- Node20&#45;&gt;Node18 -->
<g id="edge31_Node000020_Node000018" class="edge">
<title>Node20&#45;&gt;Node18</title>
<g id="a_edge31_Node000020_Node000018"><a xlink:title=" ">
<path fill="none" stroke="#63b8ff" d="M816.1,-109.75C822.66,-102.18 832.32,-91.05 840.31,-81.84"/>
<polygon fill="#63b8ff" stroke="#63b8ff" points="843.13,-83.94 847.05,-74.09 837.85,-79.35 843.13,-83.94"/>
</a>
</g>
</g>
</g>
</svg>

<g id="navigator" transform="translate(0 0)" fill="#404254">
  <rect fill="#f2f5e9" fill-opacity="0.5" stroke="#606060" stroke-width=".5" x="0" y="0" width="60" height="60"/>
  <use id="zoomplus" xlink:href="#zoomPlus" x="17" y="9" onmousedown="handleZoom(evt,'in')"/>
  <use id="zoomminus" xlink:href="#zoomMin" x="42" y="9" onmousedown="handleZoom(evt,'out')"/>
  <use id="reset" xlink:href="#resetDef" x="30" y="36" onmousedown="handleReset()"/>
   <use id="arrowup" xlink:href="#arrowUp" x="0" y="0" onmousedown="handlePan(0,-1)"/>
  <use id="arrowright" xlink:href="#arrowRight" x="0" y="0" onmousedown="handlePan(1,0)"/>
  <use id="arrowdown" xlink:href="#arrowDown" x="0" y="0" onmousedown="handlePan(0,1)"/>
  <use id="arrowleft" xlink:href="#arrowLeft" x="0" y="0" onmousedown="handlePan(-1,0)"/>
</g>
<svg viewBox="0 0 15 15" width="100%" height="30px" preserveAspectRatio="xMaxYMin meet">
 <g id="arrow_out" transform="scale(0.3 0.3)">
  <a xlink:href="EditDoneEvent_8cpp__incl_org.svg" target="_base">
   <rect id="button" ry="5" rx="5" y="6" x="6" height="38" width="38"
        fill="#f2f5e9" fill-opacity="0.5" stroke="#606060" stroke-width="1.0"/>
   <path id="arrow"
     d="M 11.500037,31.436501 C 11.940474,20.09759 22.043105,11.32322 32.158766,21.979434 L 37.068811,17.246167 C 37.068811,17.246167 37.088388,32 37.088388,32 L 22.160133,31.978069 C 22.160133,31.978069 26.997745,27.140456 26.997745,27.140456 C 18.528582,18.264221 13.291696,25.230495 11.500037,31.436501 z"
     style="fill:#404040;"/>
  </a>
 </g>
</svg>

<style type='text/css'>
<![CDATA[
[data-mouse-over-selected='false'] { opacity: 0.7; }
[data-mouse-over-selected='true']  { opacity: 1.0; }
]]>
</style>
<script type="application/ecmascript"><![CDATA[
document.addEventListener('DOMContentLoaded', (event) => {
  highlightEdges();
  highlightAdjacentNodes();
});
]]></script>
</svg>
