<?xml version="1.0" encoding="UTF-8" standalone="no"?>
<!DOCTYPE svg PUBLIC "-//W3C//DTD SVG 1.1//EN"
 "http://www.w3.org/Graphics/SVG/1.1/DTD/svg11.dtd">
<!-- Generated by graphviz version 2.43.0 (0)
 -->
<!-- Title: Clipboard++/RmlUI/ViewModels/EditViewModel.h Pages: 1 -->
<svg width="1357pt" height="258pt"
 viewBox="0.00 0.00 1357.00 258.00" xmlns="http://www.w3.org/2000/svg" xmlns:xlink="http://www.w3.org/1999/xlink">
<g id="graph0" class="graph" transform="scale(1 1) rotate(0) translate(4 254)">
<title>Clipboard++/RmlUI/ViewModels/EditViewModel.h</title>
<!-- Node1 -->
<g id="Node000001" class="node">
<title>Node1</title>
<g id="a_Node000001"><a xlink:title=" ">
<polygon fill="#999999" stroke="#666666" points="870,-250 695,-250 695,-220 870,-220 870,-250"/>
<text text-anchor="start" x="703" y="-238" font-family="Helvetica,sans-Serif" font-size="10.00">Clipboard++/RmlUI/ViewModels</text>
<text text-anchor="middle" x="782.5" y="-227" font-family="Helvetica,sans-Serif" font-size="10.00">/EditViewModel.h</text>
</a>
</g>
</g>
<!-- Node2 -->
<g id="Node000002" class="node">
<title>Node2</title>
<g id="a_Node000002"><a xlink:href="ElementEdit_8h.html" target="_top" xlink:title=" ">
<polygon fill="white" stroke="#666666" points="402,-178.5 241,-178.5 241,-148.5 402,-148.5 402,-178.5"/>
<text text-anchor="start" x="249" y="-166.5" font-family="Helvetica,sans-Serif" font-size="10.00">Clipboard++/RmlUI/Elements</text>
<text text-anchor="middle" x="321.5" y="-155.5" font-family="Helvetica,sans-Serif" font-size="10.00">/ElementEdit.h</text>
</a>
</g>
</g>
<!-- Node1&#45;&gt;Node2 -->
<g id="edge1_Node000001_Node000002" class="edge">
<title>Node1&#45;&gt;Node2</title>
<g id="a_edge1_Node000001_Node000002"><a xlink:title=" ">
<path fill="none" stroke="#63b8ff" d="M684.9,-219.29C600.81,-206.61 480.87,-188.53 402.12,-176.65"/>
<polygon fill="#63b8ff" stroke="#63b8ff" points="684.57,-222.78 694.98,-220.8 685.61,-215.85 684.57,-222.78"/>
</a>
</g>
</g>
<!-- Node7 -->
<g id="Node000007" class="node">
<title>Node7</title>
<g id="a_Node000007"><a xlink:href="EditDoneEvent_8h.html" target="_top" xlink:title=" ">
<polygon fill="white" stroke="#666666" points="691,-178.5 470,-178.5 470,-148.5 691,-148.5 691,-178.5"/>
<text text-anchor="start" x="478" y="-166.5" font-family="Helvetica,sans-Serif" font-size="10.00">Clipboard++/RmlUI/EventHandlers</text>
<text text-anchor="middle" x="580.5" y="-155.5" font-family="Helvetica,sans-Serif" font-size="10.00">/Clipboard++Events/Edit/EditDoneEvent.h</text>
</a>
</g>
</g>
<!-- Node1&#45;&gt;Node7 -->
<g id="edge6_Node000001_Node000007" class="edge">
<title>Node1&#45;&gt;Node7</title>
<g id="a_edge6_Node000001_Node000007"><a xlink:title=" ">
<path fill="none" stroke="#63b8ff" d="M731.83,-216.57C697.67,-204.81 653.2,-189.51 621.32,-178.54"/>
<polygon fill="#63b8ff" stroke="#63b8ff" points="731.03,-219.99 741.62,-219.94 733.31,-213.37 731.03,-219.99"/>
</a>
</g>
</g>
<!-- Node9 -->
<g id="Node000009" class="node">
<title>Node9</title>
<g id="a_Node000009"><a xlink:href="EventManager_8cpp.html" target="_top" xlink:title=" ">
<polygon fill="white" stroke="#666666" points="858,-101.5 671,-101.5 671,-71.5 858,-71.5 858,-101.5"/>
<text text-anchor="start" x="679" y="-89.5" font-family="Helvetica,sans-Serif" font-size="10.00">Clipboard++/RmlUI/EventHandlers</text>
<text text-anchor="middle" x="764.5" y="-78.5" font-family="Helvetica,sans-Serif" font-size="10.00">/EventManager.cpp</text>
</a>
</g>
</g>
<!-- Node1&#45;&gt;Node9 -->
<g id="edge15_Node000001_Node000009" class="edge">
<title>Node1&#45;&gt;Node9</title>
<g id="a_edge15_Node000001_Node000009"><a xlink:title=" ">
<path fill="none" stroke="#63b8ff" d="M757.36,-212.36C749.81,-204.31 742.48,-194.55 738.5,-184 727.72,-155.43 744.05,-120.53 755.31,-101.51"/>
<polygon fill="#63b8ff" stroke="#63b8ff" points="755.31,-215.25 764.87,-219.81 760.23,-210.28 755.31,-215.25"/>
</a>
</g>
</g>
<!-- Node10 -->
<g id="Node000010" class="node">
<title>Node10</title>
<g id="a_Node000010"><a xlink:href="EditEvent_8h.html" target="_top" xlink:title=" ">
<polygon fill="white" stroke="#666666" points="943.5,-178.5 747.5,-178.5 747.5,-148.5 943.5,-148.5 943.5,-178.5"/>
<text text-anchor="start" x="755.5" y="-166.5" font-family="Helvetica,sans-Serif" font-size="10.00">Clipboard++/RmlUI/EventHandlers</text>
<text text-anchor="middle" x="845.5" y="-155.5" font-family="Helvetica,sans-Serif" font-size="10.00">/Clipboard++Events/Edit/EditEvent.h</text>
</a>
</g>
</g>
<!-- Node1&#45;&gt;Node10 -->
<g id="edge9_Node000001_Node000010" class="edge">
<title>Node1&#45;&gt;Node10</title>
<g id="a_edge9_Node000001_Node000010"><a xlink:title=" ">
<path fill="none" stroke="#63b8ff" d="M802.12,-212.35C812.12,-201.33 823.98,-188.24 832.77,-178.54"/>
<polygon fill="#63b8ff" stroke="#63b8ff" points="799.37,-210.18 795.25,-219.94 804.56,-214.88 799.37,-210.18"/>
</a>
</g>
</g>
<!-- Node12 -->
<g id="Node000012" class="node">
<title>Node12</title>
<g id="a_Node000012"><a xlink:href="ResetShortCutEvent_8h.html" target="_top" xlink:title=" ">
<polygon fill="white" stroke="#666666" points="1155.5,-184 961.5,-184 961.5,-143 1155.5,-143 1155.5,-184"/>
<text text-anchor="start" x="969.5" y="-172" font-family="Helvetica,sans-Serif" font-size="10.00">Clipboard++/RmlUI/EventHandlers</text>
<text text-anchor="start" x="969.5" y="-161" font-family="Helvetica,sans-Serif" font-size="10.00">/Clipboard++Events/Edit/ResetShort</text>
<text text-anchor="middle" x="1058.5" y="-150" font-family="Helvetica,sans-Serif" font-size="10.00">CutEvent.h</text>
</a>
</g>
</g>
<!-- Node1&#45;&gt;Node12 -->
<g id="edge12_Node000001_Node000012" class="edge">
<title>Node1&#45;&gt;Node12</title>
<g id="a_edge12_Node000001_Node000012"><a xlink:title=" ">
<path fill="none" stroke="#63b8ff" d="M848.24,-217.45C888.11,-207.41 939.2,-194.54 981.03,-184.01"/>
<polygon fill="#63b8ff" stroke="#63b8ff" points="847.2,-214.1 838.35,-219.94 848.9,-220.89 847.2,-214.1"/>
</a>
</g>
</g>
<!-- Node14 -->
<g id="Node000014" class="node">
<title>Node14</title>
<g id="a_Node000014"><a xlink:href="EditViewModel_8cpp.html" target="_top" xlink:title=" ">
<polygon fill="white" stroke="#666666" points="1349,-178.5 1174,-178.5 1174,-148.5 1349,-148.5 1349,-178.5"/>
<text text-anchor="start" x="1182" y="-166.5" font-family="Helvetica,sans-Serif" font-size="10.00">Clipboard++/RmlUI/ViewModels</text>
<text text-anchor="middle" x="1261.5" y="-155.5" font-family="Helvetica,sans-Serif" font-size="10.00">/EditViewModel.cpp</text>
</a>
</g>
</g>
<!-- Node1&#45;&gt;Node14 -->
<g id="edge16_Node000001_Node000014" class="edge">
<title>Node1&#45;&gt;Node14</title>
<g id="a_edge16_Node000001_Node000014"><a xlink:title=" ">
<path fill="none" stroke="#63b8ff" d="M880.58,-223.03C957.9,-213.93 1068.35,-199.94 1164.5,-184 1174.33,-182.37 1184.68,-180.48 1194.82,-178.53"/>
<polygon fill="#63b8ff" stroke="#63b8ff" points="879.89,-219.59 870.37,-224.22 880.71,-226.54 879.89,-219.59"/>
</a>
</g>
</g>
<!-- Node3 -->
<g id="Node000003" class="node">
<title>Node3</title>
<g id="a_Node000003"><a xlink:href="ClipboardXX_8h.html" target="_top" xlink:title=" ">
<polygon fill="white" stroke="#666666" points="222.5,-96 70.5,-96 70.5,-77 222.5,-77 222.5,-96"/>
<text text-anchor="middle" x="146.5" y="-84" font-family="Helvetica,sans-Serif" font-size="10.00">Clipboard++/ClipboardXX.h</text>
</a>
</g>
</g>
<!-- Node2&#45;&gt;Node3 -->
<g id="edge2_Node000002_Node000003" class="edge">
<title>Node2&#45;&gt;Node3</title>
<g id="a_edge2_Node000002_Node000003"><a xlink:title=" ">
<path fill="none" stroke="#63b8ff" d="M279.38,-144.45C243.7,-129.16 194.11,-107.9 166.71,-96.16"/>
<polygon fill="#63b8ff" stroke="#63b8ff" points="278.01,-147.67 288.58,-148.39 280.77,-141.24 278.01,-147.67"/>
</a>
</g>
</g>
<!-- Node6 -->
<g id="Node000006" class="node">
<title>Node6</title>
<g id="a_Node000006"><a xlink:href="ElementEdit_8cpp.html" target="_top" xlink:title=" ">
<polygon fill="white" stroke="#666666" points="402,-101.5 241,-101.5 241,-71.5 402,-71.5 402,-101.5"/>
<text text-anchor="start" x="249" y="-89.5" font-family="Helvetica,sans-Serif" font-size="10.00">Clipboard++/RmlUI/Elements</text>
<text text-anchor="middle" x="321.5" y="-78.5" font-family="Helvetica,sans-Serif" font-size="10.00">/ElementEdit.cpp</text>
</a>
</g>
</g>
<!-- Node2&#45;&gt;Node6 -->
<g id="edge5_Node000002_Node000006" class="edge">
<title>Node2&#45;&gt;Node6</title>
<g id="a_edge5_Node000002_Node000006"><a xlink:title=" ">
<path fill="none" stroke="#63b8ff" d="M321.5,-138.04C321.5,-125.95 321.5,-111.79 321.5,-101.54"/>
<polygon fill="#63b8ff" stroke="#63b8ff" points="318,-138.39 321.5,-148.39 325,-138.39 318,-138.39"/>
</a>
</g>
</g>
<!-- Node4 -->
<g id="Node000004" class="node">
<title>Node4</title>
<g id="a_Node000004"><a xlink:href="Clipboard_09_09_8cpp.html" target="_top" xlink:title=" ">
<polygon fill="white" stroke="#666666" points="129,-30 0,-30 0,0 129,0 129,-30"/>
<text text-anchor="start" x="8" y="-18" font-family="Helvetica,sans-Serif" font-size="10.00">Clipboard++/Clipboard</text>
<text text-anchor="middle" x="64.5" y="-7" font-family="Helvetica,sans-Serif" font-size="10.00">++.cpp</text>
</a>
</g>
</g>
<!-- Node3&#45;&gt;Node4 -->
<g id="edge3_Node000003_Node000004" class="edge">
<title>Node3&#45;&gt;Node4</title>
<g id="a_edge3_Node000003_Node000004"><a xlink:title=" ">
<path fill="none" stroke="#63b8ff" d="M128.46,-70.21C114.36,-58.26 94.92,-41.78 81.18,-30.14"/>
<polygon fill="#63b8ff" stroke="#63b8ff" points="126.55,-73.18 136.45,-76.98 131.08,-67.84 126.55,-73.18"/>
</a>
</g>
</g>
<!-- Node5 -->
<g id="Node000005" class="node">
<title>Node5</title>
<g id="a_Node000005"><a xlink:href="ClipboardXX_8cpp.html" target="_top" xlink:title=" ">
<polygon fill="white" stroke="#666666" points="310,-24.5 147,-24.5 147,-5.5 310,-5.5 310,-24.5"/>
<text text-anchor="middle" x="228.5" y="-12.5" font-family="Helvetica,sans-Serif" font-size="10.00">Clipboard++/ClipboardXX.cpp</text>
</a>
</g>
</g>
<!-- Node3&#45;&gt;Node5 -->
<g id="edge4_Node000003_Node000005" class="edge">
<title>Node3&#45;&gt;Node5</title>
<g id="a_edge4_Node000003_Node000005"><a xlink:title=" ">
<path fill="none" stroke="#63b8ff" d="M164.43,-70.3C180.96,-56.29 204.92,-35.99 218.36,-24.59"/>
<polygon fill="#63b8ff" stroke="#63b8ff" points="161.92,-67.84 156.55,-76.98 166.45,-73.18 161.92,-67.84"/>
</a>
</g>
</g>
<!-- Node8 -->
<g id="Node000008" class="node">
<title>Node8</title>
<g id="a_Node000008"><a xlink:href="EditDoneEvent_8cpp.html" target="_top" xlink:title=" ">
<polygon fill="white" stroke="#666666" points="653,-101.5 420,-101.5 420,-71.5 653,-71.5 653,-101.5"/>
<text text-anchor="start" x="428" y="-89.5" font-family="Helvetica,sans-Serif" font-size="10.00">Clipboard++/RmlUI/EventHandlers</text>
<text text-anchor="middle" x="536.5" y="-78.5" font-family="Helvetica,sans-Serif" font-size="10.00">/Clipboard++Events/Edit/EditDoneEvent.cpp</text>
</a>
</g>
</g>
<!-- Node7&#45;&gt;Node8 -->
<g id="edge7_Node000007_Node000008" class="edge">
<title>Node7&#45;&gt;Node8</title>
<g id="a_edge7_Node000007_Node000008"><a xlink:title=" ">
<path fill="none" stroke="#63b8ff" d="M567.01,-139.51C559.74,-127.11 551,-112.21 544.74,-101.54"/>
<polygon fill="#63b8ff" stroke="#63b8ff" points="564.14,-141.54 572.22,-148.39 570.18,-138 564.14,-141.54"/>
</a>
</g>
</g>
<!-- Node7&#45;&gt;Node9 -->
<g id="edge8_Node000007_Node000009" class="edge">
<title>Node7&#45;&gt;Node9</title>
<g id="a_edge8_Node000007_Node000009"><a xlink:title=" ">
<path fill="none" stroke="#63b8ff" d="M624.76,-144.46C657.09,-131.28 700.28,-113.68 730.05,-101.54"/>
<polygon fill="#63b8ff" stroke="#63b8ff" points="623.05,-141.38 615.11,-148.39 625.69,-147.86 623.05,-141.38"/>
</a>
</g>
</g>
<!-- Node10&#45;&gt;Node9 -->
<g id="edge11_Node000010_Node000009" class="edge">
<title>Node10&#45;&gt;Node9</title>
<g id="a_edge11_Node000010_Node000009"><a xlink:title=" ">
<path fill="none" stroke="#63b8ff" d="M822.62,-141.32C808.87,-128.58 791.75,-112.74 779.67,-101.54"/>
<polygon fill="#63b8ff" stroke="#63b8ff" points="820.55,-144.17 830.26,-148.39 825.3,-139.03 820.55,-144.17"/>
</a>
</g>
</g>
<!-- Node11 -->
<g id="Node000011" class="node">
<title>Node11</title>
<g id="a_Node000011"><a xlink:href="EditEvent_8cpp.html" target="_top" xlink:title=" ">
<polygon fill="white" stroke="#666666" points="1083,-101.5 876,-101.5 876,-71.5 1083,-71.5 1083,-101.5"/>
<text text-anchor="start" x="884" y="-89.5" font-family="Helvetica,sans-Serif" font-size="10.00">Clipboard++/RmlUI/EventHandlers</text>
<text text-anchor="middle" x="979.5" y="-78.5" font-family="Helvetica,sans-Serif" font-size="10.00">/Clipboard++Events/Edit/EditEvent.cpp</text>
</a>
</g>
</g>
<!-- Node10&#45;&gt;Node11 -->
<g id="edge10_Node000010_Node000011" class="edge">
<title>Node10&#45;&gt;Node11</title>
<g id="a_edge10_Node000010_Node000011"><a xlink:title=" ">
<path fill="none" stroke="#63b8ff" d="M879.58,-143.43C902.9,-130.38 933.29,-113.36 954.41,-101.54"/>
<polygon fill="#63b8ff" stroke="#63b8ff" points="877.72,-140.45 870.7,-148.39 881.14,-146.56 877.72,-140.45"/>
</a>
</g>
</g>
<!-- Node12&#45;&gt;Node9 -->
<g id="edge14_Node000012_Node000009" class="edge">
<title>Node12&#45;&gt;Node9</title>
<g id="a_edge14_Node000012_Node000009"><a xlink:title=" ">
<path fill="none" stroke="#63b8ff" d="M972.32,-140.52C923.02,-127.94 862.65,-112.54 819.7,-101.58"/>
<polygon fill="#63b8ff" stroke="#63b8ff" points="971.47,-143.91 982.02,-142.99 973.2,-137.13 971.47,-143.91"/>
</a>
</g>
</g>
<!-- Node13 -->
<g id="Node000013" class="node">
<title>Node13</title>
<g id="a_Node000013"><a xlink:href="ResetShortCutEvent_8cpp.html" target="_top" xlink:title=" ">
<polygon fill="white" stroke="#666666" points="1295.5,-107 1101.5,-107 1101.5,-66 1295.5,-66 1295.5,-107"/>
<text text-anchor="start" x="1109.5" y="-95" font-family="Helvetica,sans-Serif" font-size="10.00">Clipboard++/RmlUI/EventHandlers</text>
<text text-anchor="start" x="1109.5" y="-84" font-family="Helvetica,sans-Serif" font-size="10.00">/Clipboard++Events/Edit/ResetShort</text>
<text text-anchor="middle" x="1198.5" y="-73" font-family="Helvetica,sans-Serif" font-size="10.00">CutEvent.cpp</text>
</a>
</g>
</g>
<!-- Node12&#45;&gt;Node13 -->
<g id="edge13_Node000012_Node000013" class="edge">
<title>Node12&#45;&gt;Node13</title>
<g id="a_edge13_Node000012_Node000013"><a xlink:title=" ">
<path fill="none" stroke="#63b8ff" d="M1103.87,-138.19C1122.61,-128.15 1144.05,-116.67 1161.78,-107.17"/>
<polygon fill="#63b8ff" stroke="#63b8ff" points="1102.08,-135.18 1094.92,-142.99 1105.39,-141.35 1102.08,-135.18"/>
</a>
</g>
</g>
</g>
</svg>
