<?xml version="1.0" encoding="UTF-8" standalone="no"?>
<!DOCTYPE svg PUBLIC "-//W3C//DTD SVG 1.1//EN"
 "http://www.w3.org/Graphics/SVG/1.1/DTD/svg11.dtd">
<!-- Generated by graphviz version 2.43.0 (0)
 -->
<!-- Title: Clipboard++/RmlUI/EventHandlers/Clipboard++Events/Edit/EditEvent.cpp Pages: 1 -->
<svg width="662pt" height="379pt"
 viewBox="0.00 0.00 661.78 379.00" xmlns="http://www.w3.org/2000/svg" xmlns:xlink="http://www.w3.org/1999/xlink">
<g id="graph0" class="graph" transform="scale(1 1) rotate(0) translate(4 375)">
<title>Clipboard++/RmlUI/EventHandlers/Clipboard++Events/Edit/EditEvent.cpp</title>
<!-- Node1 -->
<g id="Node000001" class="node">
<title>Node1</title>
<g id="a_Node000001"><a xlink:title=" ">
<polygon fill="#999999" stroke="#666666" points="491,-371 284,-371 284,-341 491,-341 491,-371"/>
<text text-anchor="start" x="292" y="-359" font-family="Helvetica,sans-Serif" font-size="10.00">Clipboard++/RmlUI/EventHandlers</text>
<text text-anchor="middle" x="387.5" y="-348" font-family="Helvetica,sans-Serif" font-size="10.00">/Clipboard++Events/Edit/EditEvent.cpp</text>
</a>
</g>
</g>
<!-- Node2 -->
<g id="Node000002" class="node">
<title>Node2</title>
<g id="a_Node000002"><a xlink:href="EditEvent_8h.html" target="_top" xlink:title=" ">
<polygon fill="white" stroke="#666666" points="370.5,-305 298.5,-305 298.5,-286 370.5,-286 370.5,-305"/>
<text text-anchor="middle" x="334.5" y="-293" font-family="Helvetica,sans-Serif" font-size="10.00">EditEvent.h</text>
</a>
</g>
</g>
<!-- Node1&#45;&gt;Node2 -->
<g id="edge1_Node000001_Node000002" class="edge">
<title>Node1&#45;&gt;Node2</title>
<g id="a_edge1_Node000001_Node000002"><a xlink:title=" ">
<path fill="none" stroke="#63b8ff" d="M374.67,-340.84C366.98,-332.35 357.17,-321.52 349.17,-312.69"/>
<polygon fill="#63b8ff" stroke="#63b8ff" points="351.75,-310.33 342.44,-305.27 346.56,-315.03 351.75,-310.33"/>
</a>
</g>
</g>
<!-- Node17 -->
<g id="Node000017" class="node">
<title>Node17</title>
<g id="a_Node000017"><a xlink:title=" ">
<polygon fill="#e0e0e0" stroke="#999999" points="492.5,-305 388.5,-305 388.5,-286 492.5,-286 492.5,-305"/>
<text text-anchor="middle" x="440.5" y="-293" font-family="Helvetica,sans-Serif" font-size="10.00">../EventManager.h</text>
</a>
</g>
</g>
<!-- Node1&#45;&gt;Node17 -->
<g id="edge22_Node000001_Node000017" class="edge">
<title>Node1&#45;&gt;Node17</title>
<g id="a_edge22_Node000001_Node000017"><a xlink:title=" ">
<path fill="none" stroke="#63b8ff" d="M400.33,-340.84C408.02,-332.35 417.83,-321.52 425.83,-312.69"/>
<polygon fill="#63b8ff" stroke="#63b8ff" points="428.44,-315.03 432.56,-305.27 423.25,-310.33 428.44,-315.03"/>
</a>
</g>
</g>
<!-- Node3 -->
<g id="Node000003" class="node">
<title>Node3</title>
<g id="a_Node000003"><a xlink:href="Clipboard_09_09Event_8h.html" target="_top" xlink:title=" ">
<polygon fill="white" stroke="#666666" points="306.5,-244.5 190.5,-244.5 190.5,-225.5 306.5,-225.5 306.5,-244.5"/>
<text text-anchor="middle" x="248.5" y="-232.5" font-family="Helvetica,sans-Serif" font-size="10.00">Clipboard++Event.h</text>
</a>
</g>
</g>
<!-- Node2&#45;&gt;Node3 -->
<g id="edge2_Node000002_Node000003" class="edge">
<title>Node2&#45;&gt;Node3</title>
<g id="a_edge2_Node000002_Node000003"><a xlink:title=" ">
<path fill="none" stroke="#63b8ff" d="M321.81,-285.87C308.09,-276.54 286,-261.51 269.65,-250.38"/>
<polygon fill="#63b8ff" stroke="#63b8ff" points="271.48,-247.4 261.24,-244.67 267.54,-253.19 271.48,-247.4"/>
</a>
</g>
</g>
<!-- Node6 -->
<g id="Node000006" class="node">
<title>Node6</title>
<g id="a_Node000006"><a xlink:href="MemoryCellManager_8h.html" target="_top" xlink:title=" ">
<polygon fill="white" stroke="#666666" points="620.5,-250 482.5,-250 482.5,-220 620.5,-220 620.5,-250"/>
<text text-anchor="start" x="490.5" y="-238" font-family="Helvetica,sans-Serif" font-size="10.00">QClipboard/MemoryCells</text>
<text text-anchor="middle" x="551.5" y="-227" font-family="Helvetica,sans-Serif" font-size="10.00">/MemoryCellManager.h</text>
</a>
</g>
</g>
<!-- Node2&#45;&gt;Node6 -->
<g id="edge5_Node000002_Node000006" class="edge">
<title>Node2&#45;&gt;Node6</title>
<g id="a_edge5_Node000002_Node000006"><a xlink:title=" ">
<path fill="none" stroke="#63b8ff" d="M366.05,-285.99C398.31,-277.3 449.25,-263.57 489.58,-252.69"/>
<polygon fill="#63b8ff" stroke="#63b8ff" points="490.59,-256.05 499.33,-250.06 488.76,-249.29 490.59,-256.05"/>
</a>
</g>
</g>
<!-- Node16 -->
<g id="Node000016" class="node">
<title>Node16</title>
<g id="a_Node000016"><a xlink:href="EditViewModel_8h.html" target="_top" xlink:title=" ">
<polygon fill="white" stroke="#666666" points="335.5,-129 237.5,-129 237.5,-110 335.5,-110 335.5,-129"/>
<text text-anchor="middle" x="286.5" y="-117" font-family="Helvetica,sans-Serif" font-size="10.00">EditViewModel.h</text>
</a>
</g>
</g>
<!-- Node2&#45;&gt;Node16 -->
<g id="edge18_Node000002_Node000016" class="edge">
<title>Node2&#45;&gt;Node16</title>
<g id="a_edge18_Node000002_Node000016"><a xlink:title=" ">
<path fill="none" stroke="#63b8ff" d="M334.36,-285.71C333.77,-264.34 330.66,-208.26 314.5,-165 310.87,-155.29 304.95,-145.44 299.49,-137.48"/>
<polygon fill="#63b8ff" stroke="#63b8ff" points="302.15,-135.18 293.45,-129.13 296.48,-139.28 302.15,-135.18"/>
</a>
</g>
</g>
<!-- Node4 -->
<g id="Node000004" class="node">
<title>Node4</title>
<g id="a_Node000004"><a xlink:title=" ">
<polygon fill="#e0e0e0" stroke="#999999" points="305.5,-184 193.5,-184 193.5,-165 305.5,-165 305.5,-184"/>
<text text-anchor="middle" x="249.5" y="-172" font-family="Helvetica,sans-Serif" font-size="10.00">RmlUi/Core/Types.h</text>
</a>
</g>
</g>
<!-- Node3&#45;&gt;Node4 -->
<g id="edge3_Node000003_Node000004" class="edge">
<title>Node3&#45;&gt;Node4</title>
<g id="a_edge3_Node000003_Node000004"><a xlink:title=" ">
<path fill="none" stroke="#63b8ff" d="M248.65,-225.37C248.79,-217.25 249,-204.81 249.18,-194.39"/>
<polygon fill="#63b8ff" stroke="#63b8ff" points="252.68,-194.23 249.35,-184.17 245.68,-194.11 252.68,-194.23"/>
</a>
</g>
</g>
<!-- Node5 -->
<g id="Node000005" class="node">
<title>Node5</title>
<g id="a_Node000005"><a xlink:title=" ">
<polygon fill="#e0e0e0" stroke="#999999" points="175,-184 0,-184 0,-165 175,-165 175,-184"/>
<text text-anchor="middle" x="87.5" y="-172" font-family="Helvetica,sans-Serif" font-size="10.00">RmlUi/Core/ElementDocument.h</text>
</a>
</g>
</g>
<!-- Node3&#45;&gt;Node5 -->
<g id="edge4_Node000003_Node000005" class="edge">
<title>Node3&#45;&gt;Node5</title>
<g id="a_edge4_Node000003_Node000005"><a xlink:title=" ">
<path fill="none" stroke="#63b8ff" d="M225.09,-225.49C197.55,-215.49 151.63,-198.8 120.49,-187.49"/>
<polygon fill="#63b8ff" stroke="#63b8ff" points="121.53,-184.14 110.94,-184.02 119.14,-190.72 121.53,-184.14"/>
</a>
</g>
</g>
<!-- Node7 -->
<g id="Node000007" class="node">
<title>Node7</title>
<g id="a_Node000007"><a xlink:href="ClipboardInterface_8h.html" target="_top" xlink:title=" ">
<polygon fill="white" stroke="#666666" points="633.5,-129 517.5,-129 517.5,-110 633.5,-110 633.5,-129"/>
<text text-anchor="middle" x="575.5" y="-117" font-family="Helvetica,sans-Serif" font-size="10.00">ClipboardInterface.h</text>
</a>
</g>
</g>
<!-- Node6&#45;&gt;Node7 -->
<g id="edge6_Node000006_Node000007" class="edge">
<title>Node6&#45;&gt;Node7</title>
<g id="a_edge6_Node000006_Node000007"><a xlink:title=" ">
<path fill="none" stroke="#63b8ff" d="M554.54,-219.63C558.86,-199.21 566.77,-161.81 571.54,-139.24"/>
<polygon fill="#63b8ff" stroke="#63b8ff" points="575.01,-139.74 573.65,-129.23 568.16,-138.29 575.01,-139.74"/>
</a>
</g>
</g>
<!-- Node10 -->
<g id="Node000010" class="node">
<title>Node10</title>
<g id="a_Node000010"><a xlink:title=" ">
<polygon fill="#e0e0e0" stroke="#999999" points="471,-19 424,-19 424,0 471,0 471,-19"/>
<text text-anchor="middle" x="447.5" y="-7" font-family="Helvetica,sans-Serif" font-size="10.00">vector</text>
</a>
</g>
</g>
<!-- Node6&#45;&gt;Node10 -->
<g id="edge16_Node000006_Node000010" class="edge">
<title>Node6&#45;&gt;Node10</title>
<g id="a_edge16_Node000006_Node000010"><a xlink:title=" ">
<path fill="none" stroke="#63b8ff" d="M601.11,-219.82C618.59,-212.18 636.39,-200.75 646.5,-184 654.33,-171.04 659.27,-135.28 642.5,-110 605.27,-53.88 526.15,-27.78 480.97,-17.03"/>
<polygon fill="#63b8ff" stroke="#63b8ff" points="481.59,-13.58 471.07,-14.79 480.05,-20.41 481.59,-13.58"/>
</a>
</g>
</g>
<!-- Node12 -->
<g id="Node000012" class="node">
<title>Node12</title>
<g id="a_Node000012"><a xlink:href="ClipboardAdapter_8h.html" target="_top" xlink:title=" ">
<polygon fill="white" stroke="#666666" points="523.5,-184 413.5,-184 413.5,-165 523.5,-165 523.5,-184"/>
<text text-anchor="middle" x="468.5" y="-172" font-family="Helvetica,sans-Serif" font-size="10.00">ClipboardAdapter.h</text>
</a>
</g>
</g>
<!-- Node6&#45;&gt;Node12 -->
<g id="edge12_Node000006_Node000012" class="edge">
<title>Node6&#45;&gt;Node12</title>
<g id="a_edge12_Node000006_Node000012"><a xlink:title=" ">
<path fill="none" stroke="#63b8ff" d="M531.41,-219.84C518.62,-210.83 502.1,-199.18 489.2,-190.09"/>
<polygon fill="#63b8ff" stroke="#63b8ff" points="491.13,-187.17 480.94,-184.27 487.09,-192.89 491.13,-187.17"/>
</a>
</g>
</g>
<!-- Node15 -->
<g id="Node000015" class="node">
<title>Node15</title>
<g id="a_Node000015"><a xlink:title=" ">
<polygon fill="#e0e0e0" stroke="#999999" points="637.5,-184 579.5,-184 579.5,-165 637.5,-165 637.5,-184"/>
<text text-anchor="middle" x="608.5" y="-172" font-family="Helvetica,sans-Serif" font-size="10.00">memory</text>
</a>
</g>
</g>
<!-- Node6&#45;&gt;Node15 -->
<g id="edge17_Node000006_Node000015" class="edge">
<title>Node6&#45;&gt;Node15</title>
<g id="a_edge17_Node000006_Node000015"><a xlink:title=" ">
<path fill="none" stroke="#63b8ff" d="M565.3,-219.84C573.57,-211.35 584.12,-200.52 592.73,-191.69"/>
<polygon fill="#63b8ff" stroke="#63b8ff" points="595.49,-193.87 599.96,-184.27 590.47,-188.99 595.49,-193.87"/>
</a>
</g>
</g>
<!-- Node8 -->
<g id="Node000008" class="node">
<title>Node8</title>
<g id="a_Node000008"><a xlink:title=" ">
<polygon fill="#e0e0e0" stroke="#999999" points="553.5,-19 509.5,-19 509.5,0 553.5,0 553.5,-19"/>
<text text-anchor="middle" x="531.5" y="-7" font-family="Helvetica,sans-Serif" font-size="10.00">string</text>
</a>
</g>
</g>
<!-- Node7&#45;&gt;Node8 -->
<g id="edge7_Node000007_Node000008" class="edge">
<title>Node7&#45;&gt;Node8</title>
<g id="a_edge7_Node000007_Node000008"><a xlink:title=" ">
<path fill="none" stroke="#63b8ff" d="M571.9,-109.66C564.71,-92.01 548.44,-52.09 538.89,-28.64"/>
<polygon fill="#63b8ff" stroke="#63b8ff" points="542.04,-27.1 535.03,-19.16 535.56,-29.74 542.04,-27.1"/>
</a>
</g>
</g>
<!-- Node9 -->
<g id="Node000009" class="node">
<title>Node9</title>
<g id="a_Node000009"><a xlink:href="KeyShortCut_8h.html" target="_top" xlink:title=" ">
<polygon fill="white" stroke="#666666" points="524.5,-74 370.5,-74 370.5,-55 524.5,-55 524.5,-74"/>
<text text-anchor="middle" x="447.5" y="-62" font-family="Helvetica,sans-Serif" font-size="10.00">KeyShortCuts/KeyShortCut.h</text>
</a>
</g>
</g>
<!-- Node7&#45;&gt;Node9 -->
<g id="edge8_Node000007_Node000009" class="edge">
<title>Node7&#45;&gt;Node9</title>
<g id="a_edge8_Node000007_Node000009"><a xlink:title=" ">
<path fill="none" stroke="#63b8ff" d="M554.93,-109.98C534.07,-101.34 501.53,-87.87 477.73,-78.02"/>
<polygon fill="#63b8ff" stroke="#63b8ff" points="479.02,-74.76 468.44,-74.17 476.34,-81.23 479.02,-74.76"/>
</a>
</g>
</g>
<!-- Node9&#45;&gt;Node8 -->
<g id="edge10_Node000009_Node000008" class="edge">
<title>Node9&#45;&gt;Node8</title>
<g id="a_edge10_Node000009_Node000008"><a xlink:title=" ">
<path fill="none" stroke="#63b8ff" d="M461,-54.98C473.9,-46.84 493.6,-34.41 508.9,-24.76"/>
<polygon fill="#63b8ff" stroke="#63b8ff" points="511.17,-27.47 517.76,-19.17 507.43,-21.55 511.17,-27.47"/>
</a>
</g>
</g>
<!-- Node9&#45;&gt;Node10 -->
<g id="edge9_Node000009_Node000010" class="edge">
<title>Node9&#45;&gt;Node10</title>
<g id="a_edge9_Node000009_Node000010"><a xlink:title=" ">
<path fill="none" stroke="#63b8ff" d="M447.5,-54.75C447.5,-47.8 447.5,-37.85 447.5,-29.13"/>
<polygon fill="#63b8ff" stroke="#63b8ff" points="451,-29.09 447.5,-19.09 444,-29.09 451,-29.09"/>
</a>
</g>
</g>
<!-- Node11 -->
<g id="Node000011" class="node">
<title>Node11</title>
<g id="a_Node000011"><a xlink:title=" ">
<polygon fill="#e0e0e0" stroke="#999999" points="383,-19 274,-19 274,0 383,0 383,-19"/>
<text text-anchor="middle" x="328.5" y="-7" font-family="Helvetica,sans-Serif" font-size="10.00">RmlUi/Core/Input.h</text>
</a>
</g>
</g>
<!-- Node9&#45;&gt;Node11 -->
<g id="edge11_Node000009_Node000011" class="edge">
<title>Node9&#45;&gt;Node11</title>
<g id="a_edge11_Node000009_Node000011"><a xlink:title=" ">
<path fill="none" stroke="#63b8ff" d="M428.38,-54.98C409.15,-46.42 379.27,-33.11 357.19,-23.28"/>
<polygon fill="#63b8ff" stroke="#63b8ff" points="358.53,-20.04 347.97,-19.17 355.68,-26.44 358.53,-20.04"/>
</a>
</g>
</g>
<!-- Node12&#45;&gt;Node7 -->
<g id="edge13_Node000012_Node000007" class="edge">
<title>Node12&#45;&gt;Node7</title>
<g id="a_edge13_Node000012_Node000007"><a xlink:title=" ">
<path fill="none" stroke="#63b8ff" d="M485.69,-164.98C502.75,-156.54 529.13,-143.47 548.9,-133.68"/>
<polygon fill="#63b8ff" stroke="#63b8ff" points="550.59,-136.75 558,-129.17 547.48,-130.47 550.59,-136.75"/>
</a>
</g>
</g>
<!-- Node13 -->
<g id="Node000013" class="node">
<title>Node13</title>
<g id="a_Node000013"><a xlink:title=" ">
<polygon fill="#e0e0e0" stroke="#999999" points="425,-129 354,-129 354,-110 425,-110 425,-129"/>
<text text-anchor="middle" x="389.5" y="-117" font-family="Helvetica,sans-Serif" font-size="10.00">QClipboard</text>
</a>
</g>
</g>
<!-- Node12&#45;&gt;Node13 -->
<g id="edge14_Node000012_Node000013" class="edge">
<title>Node12&#45;&gt;Node13</title>
<g id="a_edge14_Node000012_Node000013"><a xlink:title=" ">
<path fill="none" stroke="#63b8ff" d="M455.81,-164.98C443.67,-156.84 425.14,-144.41 410.75,-134.76"/>
<polygon fill="#63b8ff" stroke="#63b8ff" points="412.68,-131.84 402.42,-129.17 408.78,-137.65 412.68,-131.84"/>
</a>
</g>
</g>
<!-- Node14 -->
<g id="Node000014" class="node">
<title>Node14</title>
<g id="a_Node000014"><a xlink:title=" ">
<polygon fill="#e0e0e0" stroke="#999999" points="499.5,-129 443.5,-129 443.5,-110 499.5,-110 499.5,-129"/>
<text text-anchor="middle" x="471.5" y="-117" font-family="Helvetica,sans-Serif" font-size="10.00">QObject</text>
</a>
</g>
</g>
<!-- Node12&#45;&gt;Node14 -->
<g id="edge15_Node000012_Node000014" class="edge">
<title>Node12&#45;&gt;Node14</title>
<g id="a_edge15_Node000012_Node000014"><a xlink:title=" ">
<path fill="none" stroke="#63b8ff" d="M469,-164.75C469.39,-157.8 469.95,-147.85 470.45,-139.13"/>
<polygon fill="#63b8ff" stroke="#63b8ff" points="473.94,-139.27 471.01,-129.09 466.95,-138.88 473.94,-139.27"/>
</a>
</g>
</g>
<!-- Node16&#45;&gt;Node9 -->
<g id="edge19_Node000016_Node000009" class="edge">
<title>Node16&#45;&gt;Node9</title>
<g id="a_edge19_Node000016_Node000009"><a xlink:title=" ">
<path fill="none" stroke="#63b8ff" d="M312.37,-109.98C339.28,-101.13 381.62,-87.19 411.73,-77.28"/>
<polygon fill="#63b8ff" stroke="#63b8ff" points="413.03,-80.53 421.43,-74.08 410.84,-73.88 413.03,-80.53"/>
</a>
</g>
</g>
<!-- Node16&#45;&gt;Node10 -->
<g id="edge21_Node000016_Node000010" class="edge">
<title>Node16&#45;&gt;Node10</title>
<g id="a_edge21_Node000016_Node000010"><a xlink:title=" ">
<path fill="none" stroke="#63b8ff" d="M295.21,-109.98C308.68,-97.08 335.7,-72.28 361.5,-55 379.6,-42.88 401.41,-31.63 418.53,-23.47"/>
<polygon fill="#63b8ff" stroke="#63b8ff" points="420.44,-26.45 428.01,-19.04 417.47,-20.11 420.44,-26.45"/>
</a>
</g>
</g>
<!-- Node16&#45;&gt;Node11 -->
<g id="edge20_Node000016_Node000011" class="edge">
<title>Node16&#45;&gt;Node11</title>
<g id="a_edge20_Node000016_Node000011"><a xlink:title=" ">
<path fill="none" stroke="#63b8ff" d="M289.94,-109.66C296.8,-92.01 312.33,-52.09 321.45,-28.64"/>
<polygon fill="#63b8ff" stroke="#63b8ff" points="324.77,-29.75 325.13,-19.16 318.25,-27.21 324.77,-29.75"/>
</a>
</g>
</g>
</g>
</svg>
