<?xml version="1.0" encoding="UTF-8" standalone="no"?>
<!DOCTYPE svg PUBLIC "-//W3C//DTD SVG 1.1//EN"
 "http://www.w3.org/Graphics/SVG/1.1/DTD/svg11.dtd">
<!-- Generated by graphviz version 2.43.0 (0)
 -->
<!-- Title: Clipboard++/RmlUI/Elements/ElementClipboard.cpp Pages: 1 -->
<svg width="1231pt" height="390pt"
 viewBox="0.00 0.00 1230.50 390.00" xmlns="http://www.w3.org/2000/svg" xmlns:xlink="http://www.w3.org/1999/xlink">
<g id="graph0" class="graph" transform="scale(1 1) rotate(0) translate(4 386)">
<title>Clipboard++/RmlUI/Elements/ElementClipboard.cpp</title>
<!-- Node1 -->
<g id="Node000001" class="node">
<title>Node1</title>
<g id="a_Node000001"><a xlink:title=" ">
<polygon fill="#999999" stroke="#666666" points="642,-382 481,-382 481,-352 642,-352 642,-382"/>
<text text-anchor="start" x="489" y="-370" font-family="Helvetica,sans-Serif" font-size="10.00">Clipboard++/RmlUI/Elements</text>
<text text-anchor="middle" x="561.5" y="-359" font-family="Helvetica,sans-Serif" font-size="10.00">/ElementClipboard.cpp</text>
</a>
</g>
</g>
<!-- Node2 -->
<g id="Node000002" class="node">
<title>Node2</title>
<g id="a_Node000002"><a xlink:href="ElementClipboard_8h.html" target="_top" xlink:title=" ">
<polygon fill="white" stroke="#666666" points="119,-310.5 6,-310.5 6,-291.5 119,-291.5 119,-310.5"/>
<text text-anchor="middle" x="62.5" y="-298.5" font-family="Helvetica,sans-Serif" font-size="10.00">ElementClipboard.h</text>
</a>
</g>
</g>
<!-- Node1&#45;&gt;Node2 -->
<g id="edge1_Node000001_Node000002" class="edge">
<title>Node1&#45;&gt;Node2</title>
<g id="a_edge1_Node000001_Node000002"><a xlink:title=" ">
<path fill="none" stroke="#63b8ff" d="M480.98,-358.99C393.8,-350.86 250.79,-335.99 128.5,-316 122.36,-315 115.92,-313.8 109.57,-312.55"/>
<polygon fill="#63b8ff" stroke="#63b8ff" points="110.23,-309.11 99.73,-310.54 108.83,-315.97 110.23,-309.11"/>
</a>
</g>
</g>
<!-- Node4 -->
<g id="Node000004" class="node">
<title>Node4</title>
<g id="a_Node000004"><a xlink:title=" ">
<polygon fill="#e0e0e0" stroke="#999999" points="259.5,-310.5 137.5,-310.5 137.5,-291.5 259.5,-291.5 259.5,-310.5"/>
<text text-anchor="middle" x="198.5" y="-298.5" font-family="Helvetica,sans-Serif" font-size="10.00">RmlUi/Core/Context.h</text>
</a>
</g>
</g>
<!-- Node1&#45;&gt;Node4 -->
<g id="edge3_Node000001_Node000004" class="edge">
<title>Node1&#45;&gt;Node4</title>
<g id="a_edge3_Node000001_Node000004"><a xlink:title=" ">
<path fill="none" stroke="#63b8ff" d="M480.87,-352.87C421.95,-343.13 340.17,-329.28 268.5,-316 262.64,-314.92 256.52,-313.74 250.44,-312.56"/>
<polygon fill="#63b8ff" stroke="#63b8ff" points="250.78,-309.06 240.29,-310.56 249.42,-315.93 250.78,-309.06"/>
</a>
</g>
</g>
<!-- Node5 -->
<g id="Node000005" class="node">
<title>Node5</title>
<g id="a_Node000005"><a xlink:title=" ">
<polygon fill="#e0e0e0" stroke="#999999" points="385,-310.5 278,-310.5 278,-291.5 385,-291.5 385,-310.5"/>
<text text-anchor="middle" x="331.5" y="-298.5" font-family="Helvetica,sans-Serif" font-size="10.00">RmlUi/Core/Core.h</text>
</a>
</g>
</g>
<!-- Node1&#45;&gt;Node5 -->
<g id="edge4_Node000001_Node000005" class="edge">
<title>Node1&#45;&gt;Node5</title>
<g id="a_edge4_Node000001_Node000005"><a xlink:title=" ">
<path fill="none" stroke="#63b8ff" d="M511.03,-351.95C469.27,-340.34 410.73,-324.05 371.99,-313.27"/>
<polygon fill="#63b8ff" stroke="#63b8ff" points="372.68,-309.83 362.11,-310.52 370.8,-316.57 372.68,-309.83"/>
</a>
</g>
</g>
<!-- Node6 -->
<g id="Node000006" class="node">
<title>Node6</title>
<g id="a_Node000006"><a xlink:title=" ">
<polygon fill="#e0e0e0" stroke="#999999" points="942,-184 767,-184 767,-165 942,-165 942,-184"/>
<text text-anchor="middle" x="854.5" y="-172" font-family="Helvetica,sans-Serif" font-size="10.00">RmlUi/Core/ElementDocument.h</text>
</a>
</g>
</g>
<!-- Node1&#45;&gt;Node6 -->
<g id="edge5_Node000001_Node000006" class="edge">
<title>Node1&#45;&gt;Node6</title>
<g id="a_edge5_Node000001_Node000006"><a xlink:title=" ">
<path fill="none" stroke="#63b8ff" d="M642.26,-361.24C750.24,-354.04 930.49,-338.75 950.5,-316 972.91,-290.52 931.33,-231.68 921.5,-220 910.69,-207.15 895.25,-196.55 881.92,-188.93"/>
<polygon fill="#63b8ff" stroke="#63b8ff" points="883.57,-185.84 873.11,-184.13 880.22,-191.99 883.57,-185.84"/>
</a>
</g>
</g>
<!-- Node7 -->
<g id="Node000007" class="node">
<title>Node7</title>
<g id="a_Node000007"><a xlink:title=" ">
<polygon fill="#e0e0e0" stroke="#999999" points="587,-19 478,-19 478,0 587,0 587,-19"/>
<text text-anchor="middle" x="532.5" y="-7" font-family="Helvetica,sans-Serif" font-size="10.00">RmlUi/Core/Input.h</text>
</a>
</g>
</g>
<!-- Node1&#45;&gt;Node7 -->
<g id="edge6_Node000001_Node000007" class="edge">
<title>Node1&#45;&gt;Node7</title>
<g id="a_edge6_Node000001_Node000007"><a xlink:title=" ">
<path fill="none" stroke="#63b8ff" d="M523.39,-351.86C479.53,-332.84 413.5,-294.48 413.5,-236 413.5,-236 413.5,-236 413.5,-118.5 413.5,-71.45 465.14,-39.52 500.39,-23.21"/>
<polygon fill="#63b8ff" stroke="#63b8ff" points="502.11,-26.27 509.84,-19.02 499.28,-19.87 502.11,-26.27"/>
</a>
</g>
</g>
<!-- Node8 -->
<g id="Node000008" class="node">
<title>Node8</title>
<g id="a_Node000008"><a xlink:title=" ">
<polygon fill="#e0e0e0" stroke="#999999" points="643.5,-310.5 479.5,-310.5 479.5,-291.5 643.5,-291.5 643.5,-310.5"/>
<text text-anchor="middle" x="561.5" y="-298.5" font-family="Helvetica,sans-Serif" font-size="10.00">RmlUi/Core/SystemInterface.h</text>
</a>
</g>
</g>
<!-- Node1&#45;&gt;Node8 -->
<g id="edge7_Node000001_Node000008" class="edge">
<title>Node1&#45;&gt;Node8</title>
<g id="a_edge7_Node000001_Node000008"><a xlink:title=" ">
<path fill="none" stroke="#63b8ff" d="M561.5,-351.8C561.5,-342.7 561.5,-330.79 561.5,-320.9"/>
<polygon fill="#63b8ff" stroke="#63b8ff" points="565,-320.84 561.5,-310.84 558,-320.84 565,-320.84"/>
</a>
</g>
</g>
<!-- Node9 -->
<g id="Node000009" class="node">
<title>Node9</title>
<g id="a_Node000009"><a xlink:href="MemoryCellManager_8h.html" target="_top" xlink:title=" ">
<polygon fill="white" stroke="#666666" points="1139.5,-250 1001.5,-250 1001.5,-220 1139.5,-220 1139.5,-250"/>
<text text-anchor="start" x="1009.5" y="-238" font-family="Helvetica,sans-Serif" font-size="10.00">QClipboard/MemoryCells</text>
<text text-anchor="middle" x="1070.5" y="-227" font-family="Helvetica,sans-Serif" font-size="10.00">/MemoryCellManager.h</text>
</a>
</g>
</g>
<!-- Node1&#45;&gt;Node9 -->
<g id="edge8_Node000001_Node000009" class="edge">
<title>Node1&#45;&gt;Node9</title>
<g id="a_edge8_Node000001_Node000009"><a xlink:title=" ">
<path fill="none" stroke="#63b8ff" d="M642.22,-363.11C774.76,-357.6 1026.83,-343.59 1056.5,-316 1071.45,-302.1 1073.97,-278.34 1073.33,-260.31"/>
<polygon fill="#63b8ff" stroke="#63b8ff" points="1076.82,-259.96 1072.64,-250.22 1069.83,-260.44 1076.82,-259.96"/>
</a>
</g>
</g>
<!-- Node18 -->
<g id="Node000018" class="node">
<title>Node18</title>
<g id="a_Node000018"><a xlink:href="StringUtils_8h.html" target="_top" xlink:title=" ">
<polygon fill="white" stroke="#666666" points="590,-244.5 513,-244.5 513,-225.5 590,-225.5 590,-244.5"/>
<text text-anchor="middle" x="551.5" y="-232.5" font-family="Helvetica,sans-Serif" font-size="10.00">StringUtils.h</text>
</a>
</g>
</g>
<!-- Node1&#45;&gt;Node18 -->
<g id="edge21_Node000001_Node000018" class="edge">
<title>Node1&#45;&gt;Node18</title>
<g id="a_edge21_Node000001_Node000018"><a xlink:title=" ">
<path fill="none" stroke="#63b8ff" d="M515.36,-351.99C498.16,-344.27 480.41,-332.76 470.5,-316 463.71,-304.52 464,-297.64 470.5,-286 480.12,-268.75 498.42,-256.71 515.19,-248.77"/>
<polygon fill="#63b8ff" stroke="#63b8ff" points="517.06,-251.78 524.82,-244.56 514.25,-245.36 517.06,-251.78"/>
</a>
</g>
</g>
<!-- Node20 -->
<g id="Node000020" class="node">
<title>Node20</title>
<g id="a_Node000020"><a xlink:href="TranslationManager_8h.html" target="_top" xlink:title=" ">
<polygon fill="white" stroke="#666666" points="783,-310.5 662,-310.5 662,-291.5 783,-291.5 783,-310.5"/>
<text text-anchor="middle" x="722.5" y="-298.5" font-family="Helvetica,sans-Serif" font-size="10.00">TranslationManager.h</text>
</a>
</g>
</g>
<!-- Node1&#45;&gt;Node20 -->
<g id="edge25_Node000001_Node000020" class="edge">
<title>Node1&#45;&gt;Node20</title>
<g id="a_edge25_Node000001_Node000020"><a xlink:title=" ">
<path fill="none" stroke="#63b8ff" d="M596.83,-351.95C625.19,-340.68 664.61,-325.01 691.7,-314.25"/>
<polygon fill="#63b8ff" stroke="#63b8ff" points="693.07,-317.46 701.07,-310.52 690.49,-310.96 693.07,-317.46"/>
</a>
</g>
</g>
<!-- Node22 -->
<g id="Node000022" class="node">
<title>Node22</title>
<g id="a_Node000022"><a xlink:title=" ">
<polygon fill="#e0e0e0" stroke="#999999" points="1047.5,-310.5 997.5,-310.5 997.5,-291.5 1047.5,-291.5 1047.5,-310.5"/>
<text text-anchor="middle" x="1022.5" y="-298.5" font-family="Helvetica,sans-Serif" font-size="10.00">format</text>
</a>
</g>
</g>
<!-- Node1&#45;&gt;Node22 -->
<g id="edge28_Node000001_Node000022" class="edge">
<title>Node1&#45;&gt;Node22</title>
<g id="a_edge28_Node000001_Node000022"><a xlink:title=" ">
<path fill="none" stroke="#63b8ff" d="M642.16,-361.89C727.8,-356.26 866.63,-343.52 983.5,-316 986.17,-315.37 988.9,-314.62 991.62,-313.8"/>
<polygon fill="#63b8ff" stroke="#63b8ff" points="992.92,-317.06 1001.31,-310.59 990.71,-310.41 992.92,-317.06"/>
</a>
</g>
</g>
<!-- Node23 -->
<g id="Node000023" class="node">
<title>Node23</title>
<g id="a_Node000023"><a xlink:href="AutoCopyEvent_8h.html" target="_top" xlink:title=" ">
<polygon fill="white" stroke="#666666" points="941.5,-316 801.5,-316 801.5,-286 941.5,-286 941.5,-316"/>
<text text-anchor="start" x="809.5" y="-304" font-family="Helvetica,sans-Serif" font-size="10.00">Clipboard++Events/Main</text>
<text text-anchor="middle" x="871.5" y="-293" font-family="Helvetica,sans-Serif" font-size="10.00">/AutoCopyEvent.h</text>
</a>
</g>
</g>
<!-- Node1&#45;&gt;Node23 -->
<g id="edge29_Node000001_Node000023" class="edge">
<title>Node1&#45;&gt;Node23</title>
<g id="a_edge29_Node000001_Node000023"><a xlink:title=" ">
<path fill="none" stroke="#63b8ff" d="M629.53,-351.95C677.99,-341.95 743.21,-328.49 793.73,-318.06"/>
<polygon fill="#63b8ff" stroke="#63b8ff" points="794.54,-321.46 803.63,-316.01 793.13,-314.61 794.54,-321.46"/>
</a>
</g>
</g>
<!-- Node3 -->
<g id="Node000003" class="node">
<title>Node3</title>
<g id="a_Node000003"><a xlink:title=" ">
<polygon fill="#e0e0e0" stroke="#999999" points="125,-244.5 0,-244.5 0,-225.5 125,-225.5 125,-244.5"/>
<text text-anchor="middle" x="62.5" y="-232.5" font-family="Helvetica,sans-Serif" font-size="10.00">RmlUi/Core/Element.h</text>
</a>
</g>
</g>
<!-- Node2&#45;&gt;Node3 -->
<g id="edge2_Node000002_Node000003" class="edge">
<title>Node2&#45;&gt;Node3</title>
<g id="a_edge2_Node000002_Node000003"><a xlink:title=" ">
<path fill="none" stroke="#63b8ff" d="M62.5,-291.37C62.5,-282.16 62.5,-267.29 62.5,-255.27"/>
<polygon fill="#63b8ff" stroke="#63b8ff" points="66,-254.91 62.5,-244.91 59,-254.91 66,-254.91"/>
</a>
</g>
</g>
<!-- Node10 -->
<g id="Node000010" class="node">
<title>Node10</title>
<g id="a_Node000010"><a xlink:href="ClipboardInterface_8h.html" target="_top" xlink:title=" ">
<polygon fill="white" stroke="#666666" points="941.5,-129 825.5,-129 825.5,-110 941.5,-110 941.5,-129"/>
<text text-anchor="middle" x="883.5" y="-117" font-family="Helvetica,sans-Serif" font-size="10.00">ClipboardInterface.h</text>
</a>
</g>
</g>
<!-- Node9&#45;&gt;Node10 -->
<g id="edge9_Node000009_Node000010" class="edge">
<title>Node9&#45;&gt;Node10</title>
<g id="a_edge9_Node000009_Node000010"><a xlink:title=" ">
<path fill="none" stroke="#63b8ff" d="M1047.19,-219.85C1011.24,-198.03 942.67,-156.41 906.75,-134.61"/>
<polygon fill="#63b8ff" stroke="#63b8ff" points="908.31,-131.47 897.95,-129.27 904.68,-137.45 908.31,-131.47"/>
</a>
</g>
</g>
<!-- Node13 -->
<g id="Node000013" class="node">
<title>Node13</title>
<g id="a_Node000013"><a xlink:title=" ">
<polygon fill="#e0e0e0" stroke="#999999" points="1033,-19 986,-19 986,0 1033,0 1033,-19"/>
<text text-anchor="middle" x="1009.5" y="-7" font-family="Helvetica,sans-Serif" font-size="10.00">vector</text>
</a>
</g>
</g>
<!-- Node9&#45;&gt;Node13 -->
<g id="edge19_Node000009_Node000013" class="edge">
<title>Node9&#45;&gt;Node13</title>
<g id="a_edge19_Node000009_Node000013"><a xlink:title=" ">
<path fill="none" stroke="#63b8ff" d="M1089.79,-219.63C1100.13,-210.68 1111.88,-198.18 1117.5,-184 1122.54,-171.27 1127.14,-135.59 1115.5,-110 1098.2,-71.94 1058.9,-41.47 1033.32,-24.71"/>
<polygon fill="#63b8ff" stroke="#63b8ff" points="1034.9,-21.57 1024.58,-19.16 1031.15,-27.48 1034.9,-21.57"/>
</a>
</g>
</g>
<!-- Node14 -->
<g id="Node000014" class="node">
<title>Node14</title>
<g id="a_Node000014"><a xlink:href="ClipboardAdapter_8h.html" target="_top" xlink:title=" ">
<polygon fill="white" stroke="#666666" points="1108.5,-184 998.5,-184 998.5,-165 1108.5,-165 1108.5,-184"/>
<text text-anchor="middle" x="1053.5" y="-172" font-family="Helvetica,sans-Serif" font-size="10.00">ClipboardAdapter.h</text>
</a>
</g>
</g>
<!-- Node9&#45;&gt;Node14 -->
<g id="edge15_Node000009_Node000014" class="edge">
<title>Node9&#45;&gt;Node14</title>
<g id="a_edge15_Node000009_Node000014"><a xlink:title=" ">
<path fill="none" stroke="#63b8ff" d="M1066.38,-219.84C1064.12,-212.04 1061.28,-202.27 1058.84,-193.89"/>
<polygon fill="#63b8ff" stroke="#63b8ff" points="1062.2,-192.89 1056.05,-184.27 1055.48,-194.85 1062.2,-192.89"/>
</a>
</g>
</g>
<!-- Node17 -->
<g id="Node000017" class="node">
<title>Node17</title>
<g id="a_Node000017"><a xlink:title=" ">
<polygon fill="#e0e0e0" stroke="#999999" points="1222.5,-184 1164.5,-184 1164.5,-165 1222.5,-165 1222.5,-184"/>
<text text-anchor="middle" x="1193.5" y="-172" font-family="Helvetica,sans-Serif" font-size="10.00">memory</text>
</a>
</g>
</g>
<!-- Node9&#45;&gt;Node17 -->
<g id="edge20_Node000009_Node000017" class="edge">
<title>Node9&#45;&gt;Node17</title>
<g id="a_edge20_Node000009_Node000017"><a xlink:title=" ">
<path fill="none" stroke="#63b8ff" d="M1099.96,-219.99C1120.12,-210.4 1146.64,-197.79 1166.3,-188.44"/>
<polygon fill="#63b8ff" stroke="#63b8ff" points="1167.81,-191.6 1175.34,-184.14 1164.8,-185.27 1167.81,-191.6"/>
</a>
</g>
</g>
<!-- Node11 -->
<g id="Node000011" class="node">
<title>Node11</title>
<g id="a_Node000011"><a xlink:title=" ">
<polygon fill="#e0e0e0" stroke="#999999" points="779.5,-19 735.5,-19 735.5,0 779.5,0 779.5,-19"/>
<text text-anchor="middle" x="757.5" y="-7" font-family="Helvetica,sans-Serif" font-size="10.00">string</text>
</a>
</g>
</g>
<!-- Node10&#45;&gt;Node11 -->
<g id="edge10_Node000010_Node000011" class="edge">
<title>Node10&#45;&gt;Node11</title>
<g id="a_edge10_Node000010_Node000011"><a xlink:title=" ">
<path fill="none" stroke="#63b8ff" d="M859.14,-109.96C840.66,-102.58 815.45,-90.49 797.5,-74 783.58,-61.22 772.6,-42.54 765.69,-28.74"/>
<polygon fill="#63b8ff" stroke="#63b8ff" points="768.67,-26.86 761.22,-19.33 762.34,-29.86 768.67,-26.86"/>
</a>
</g>
</g>
<!-- Node12 -->
<g id="Node000012" class="node">
<title>Node12</title>
<g id="a_Node000012"><a xlink:href="KeyShortCut_8h.html" target="_top" xlink:title=" ">
<polygon fill="white" stroke="#666666" points="960.5,-74 806.5,-74 806.5,-55 960.5,-55 960.5,-74"/>
<text text-anchor="middle" x="883.5" y="-62" font-family="Helvetica,sans-Serif" font-size="10.00">KeyShortCuts/KeyShortCut.h</text>
</a>
</g>
</g>
<!-- Node10&#45;&gt;Node12 -->
<g id="edge11_Node000010_Node000012" class="edge">
<title>Node10&#45;&gt;Node12</title>
<g id="a_edge11_Node000010_Node000012"><a xlink:title=" ">
<path fill="none" stroke="#63b8ff" d="M883.5,-109.75C883.5,-102.8 883.5,-92.85 883.5,-84.13"/>
<polygon fill="#63b8ff" stroke="#63b8ff" points="887,-84.09 883.5,-74.09 880,-84.09 887,-84.09"/>
</a>
</g>
</g>
<!-- Node12&#45;&gt;Node7 -->
<g id="edge14_Node000012_Node000007" class="edge">
<title>Node12&#45;&gt;Node7</title>
<g id="a_edge14_Node000012_Node000007"><a xlink:title=" ">
<path fill="none" stroke="#63b8ff" d="M827.11,-54.98C764.38,-45.51 663.22,-30.24 597.29,-20.28"/>
<polygon fill="#63b8ff" stroke="#63b8ff" points="597.43,-16.76 587.02,-18.73 596.39,-23.69 597.43,-16.76"/>
</a>
</g>
</g>
<!-- Node12&#45;&gt;Node11 -->
<g id="edge13_Node000012_Node000011" class="edge">
<title>Node12&#45;&gt;Node11</title>
<g id="a_edge13_Node000012_Node000011"><a xlink:title=" ">
<path fill="none" stroke="#63b8ff" d="M863.26,-54.98C842.8,-46.38 810.97,-32.99 787.57,-23.15"/>
<polygon fill="#63b8ff" stroke="#63b8ff" points="788.69,-19.82 778.11,-19.17 785.97,-26.27 788.69,-19.82"/>
</a>
</g>
</g>
<!-- Node12&#45;&gt;Node13 -->
<g id="edge12_Node000012_Node000013" class="edge">
<title>Node12&#45;&gt;Node13</title>
<g id="a_edge12_Node000012_Node000013"><a xlink:title=" ">
<path fill="none" stroke="#63b8ff" d="M903.74,-54.98C924.2,-46.38 956.03,-32.99 979.43,-23.15"/>
<polygon fill="#63b8ff" stroke="#63b8ff" points="981.03,-26.27 988.89,-19.17 978.31,-19.82 981.03,-26.27"/>
</a>
</g>
</g>
<!-- Node14&#45;&gt;Node10 -->
<g id="edge16_Node000014_Node000010" class="edge">
<title>Node14&#45;&gt;Node10</title>
<g id="a_edge16_Node000014_Node000010"><a xlink:title=" ">
<path fill="none" stroke="#63b8ff" d="M1026.19,-164.98C997.65,-156.09 952.67,-142.07 920.86,-132.15"/>
<polygon fill="#63b8ff" stroke="#63b8ff" points="921.62,-128.72 911.03,-129.08 919.53,-135.4 921.62,-128.72"/>
</a>
</g>
</g>
<!-- Node15 -->
<g id="Node000015" class="node">
<title>Node15</title>
<g id="a_Node000015"><a xlink:title=" ">
<polygon fill="#e0e0e0" stroke="#999999" points="1106,-129 1035,-129 1035,-110 1106,-110 1106,-129"/>
<text text-anchor="middle" x="1070.5" y="-117" font-family="Helvetica,sans-Serif" font-size="10.00">QClipboard</text>
</a>
</g>
</g>
<!-- Node14&#45;&gt;Node15 -->
<g id="edge17_Node000014_Node000015" class="edge">
<title>Node14&#45;&gt;Node15</title>
<g id="a_edge17_Node000014_Node000015"><a xlink:title=" ">
<path fill="none" stroke="#63b8ff" d="M1056.31,-164.75C1058.56,-157.72 1061.8,-147.62 1064.62,-138.84"/>
<polygon fill="#63b8ff" stroke="#63b8ff" points="1068.02,-139.68 1067.75,-129.09 1061.36,-137.54 1068.02,-139.68"/>
</a>
</g>
</g>
<!-- Node16 -->
<g id="Node000016" class="node">
<title>Node16</title>
<g id="a_Node000016"><a xlink:title=" ">
<polygon fill="#e0e0e0" stroke="#999999" points="1016.5,-129 960.5,-129 960.5,-110 1016.5,-110 1016.5,-129"/>
<text text-anchor="middle" x="988.5" y="-117" font-family="Helvetica,sans-Serif" font-size="10.00">QObject</text>
</a>
</g>
</g>
<!-- Node14&#45;&gt;Node16 -->
<g id="edge18_Node000014_Node000016" class="edge">
<title>Node14&#45;&gt;Node16</title>
<g id="a_edge18_Node000014_Node000016"><a xlink:title=" ">
<path fill="none" stroke="#63b8ff" d="M1043.06,-164.98C1033.35,-157.07 1018.68,-145.11 1007,-135.58"/>
<polygon fill="#63b8ff" stroke="#63b8ff" points="1009.1,-132.78 999.13,-129.17 1004.67,-138.2 1009.1,-132.78"/>
</a>
</g>
</g>
<!-- Node18&#45;&gt;Node7 -->
<g id="edge24_Node000018_Node000007" class="edge">
<title>Node18&#45;&gt;Node7</title>
<g id="a_edge24_Node000018_Node000007"><a xlink:title=" ">
<path fill="none" stroke="#63b8ff" d="M550.76,-225.24C547.96,-192.35 538.05,-75.8 534.12,-29.59"/>
<polygon fill="#63b8ff" stroke="#63b8ff" points="537.59,-29.11 533.26,-19.44 530.62,-29.7 537.59,-29.11"/>
</a>
</g>
</g>
<!-- Node18&#45;&gt;Node11 -->
<g id="edge22_Node000018_Node000011" class="edge">
<title>Node18&#45;&gt;Node11</title>
<g id="a_edge22_Node000018_Node000011"><a xlink:title=" ">
<path fill="none" stroke="#63b8ff" d="M555.14,-225.39C561.13,-211.78 573.97,-184.8 589.5,-165 635.31,-106.62 703.99,-50.98 737.58,-25.31"/>
<polygon fill="#63b8ff" stroke="#63b8ff" points="739.84,-27.99 745.7,-19.16 735.61,-22.41 739.84,-27.99"/>
</a>
</g>
</g>
<!-- Node19 -->
<g id="Node000019" class="node">
<title>Node19</title>
<g id="a_Node000019"><a xlink:title=" ">
<polygon fill="#e0e0e0" stroke="#999999" points="710.5,-184 598.5,-184 598.5,-165 710.5,-165 710.5,-184"/>
<text text-anchor="middle" x="654.5" y="-172" font-family="Helvetica,sans-Serif" font-size="10.00">RmlUi/Core/Types.h</text>
</a>
</g>
</g>
<!-- Node18&#45;&gt;Node19 -->
<g id="edge23_Node000018_Node000019" class="edge">
<title>Node18&#45;&gt;Node19</title>
<g id="a_edge23_Node000018_Node000019"><a xlink:title=" ">
<path fill="none" stroke="#63b8ff" d="M566.7,-225.37C583.51,-215.82 610.82,-200.31 630.52,-189.12"/>
<polygon fill="#63b8ff" stroke="#63b8ff" points="632.27,-192.15 639.24,-184.17 628.82,-186.06 632.27,-192.15"/>
</a>
</g>
</g>
<!-- Node20&#45;&gt;Node11 -->
<g id="edge26_Node000020_Node000011" class="edge">
<title>Node20&#45;&gt;Node11</title>
<g id="a_edge26_Node000020_Node000011"><a xlink:title=" ">
<path fill="none" stroke="#63b8ff" d="M724.4,-291.29C728.64,-271.07 738.5,-219.3 738.5,-175.5 738.5,-175.5 738.5,-175.5 738.5,-118.5 738.5,-86.56 746.66,-50.1 752.28,-28.77"/>
<polygon fill="#63b8ff" stroke="#63b8ff" points="755.67,-29.66 754.94,-19.09 748.92,-27.81 755.67,-29.66"/>
</a>
</g>
</g>
<!-- Node21 -->
<g id="Node000021" class="node">
<title>Node21</title>
<g id="a_Node000021"><a xlink:title=" ">
<polygon fill="#e0e0e0" stroke="#999999" points="710.5,-244.5 672.5,-244.5 672.5,-225.5 710.5,-225.5 710.5,-244.5"/>
<text text-anchor="middle" x="691.5" y="-232.5" font-family="Helvetica,sans-Serif" font-size="10.00">map</text>
</a>
</g>
</g>
<!-- Node20&#45;&gt;Node21 -->
<g id="edge27_Node000020_Node000021" class="edge">
<title>Node20&#45;&gt;Node21</title>
<g id="a_edge27_Node000020_Node000021"><a xlink:title=" ">
<path fill="none" stroke="#63b8ff" d="M718.32,-291.37C713.72,-281.88 706.21,-266.36 700.3,-254.16"/>
<polygon fill="#63b8ff" stroke="#63b8ff" points="703.32,-252.38 695.81,-244.91 697.02,-255.43 703.32,-252.38"/>
</a>
</g>
</g>
<!-- Node23&#45;&gt;Node9 -->
<g id="edge33_Node000023_Node000009" class="edge">
<title>Node23&#45;&gt;Node9</title>
<g id="a_edge33_Node000023_Node000009"><a xlink:title=" ">
<path fill="none" stroke="#63b8ff" d="M915.17,-285.95C945.24,-276.28 985.37,-263.38 1017.3,-253.11"/>
<polygon fill="#63b8ff" stroke="#63b8ff" points="1018.48,-256.41 1026.93,-250.01 1016.34,-249.74 1018.48,-256.41"/>
</a>
</g>
</g>
<!-- Node24 -->
<g id="Node000024" class="node">
<title>Node24</title>
<g id="a_Node000024"><a xlink:href="Clipboard_09_09Event_8h.html" target="_top" xlink:title=" ">
<polygon fill="white" stroke="#666666" points="912.5,-244.5 796.5,-244.5 796.5,-225.5 912.5,-225.5 912.5,-244.5"/>
<text text-anchor="middle" x="854.5" y="-232.5" font-family="Helvetica,sans-Serif" font-size="10.00">Clipboard++Event.h</text>
</a>
</g>
</g>
<!-- Node23&#45;&gt;Node24 -->
<g id="edge30_Node000023_Node000024" class="edge">
<title>Node23&#45;&gt;Node24</title>
<g id="a_edge30_Node000023_Node000024"><a xlink:title=" ">
<path fill="none" stroke="#63b8ff" d="M867.73,-285.8C865.28,-276.6 862.08,-264.53 859.43,-254.58"/>
<polygon fill="#63b8ff" stroke="#63b8ff" points="862.8,-253.61 856.85,-244.84 856.03,-255.41 862.8,-253.61"/>
</a>
</g>
</g>
<!-- Node24&#45;&gt;Node6 -->
<g id="edge32_Node000024_Node000006" class="edge">
<title>Node24&#45;&gt;Node6</title>
<g id="a_edge32_Node000024_Node000006"><a xlink:title=" ">
<path fill="none" stroke="#63b8ff" d="M854.5,-225.37C854.5,-217.25 854.5,-204.81 854.5,-194.39"/>
<polygon fill="#63b8ff" stroke="#63b8ff" points="858,-194.17 854.5,-184.17 851,-194.17 858,-194.17"/>
</a>
</g>
</g>
<!-- Node24&#45;&gt;Node19 -->
<g id="edge31_Node000024_Node000019" class="edge">
<title>Node24&#45;&gt;Node19</title>
<g id="a_edge31_Node000024_Node000019"><a xlink:title=" ">
<path fill="none" stroke="#63b8ff" d="M825.42,-225.49C790.61,-215.31 732.18,-198.22 693.49,-186.9"/>
<polygon fill="#63b8ff" stroke="#63b8ff" points="694.2,-183.46 683.62,-184.02 692.23,-190.18 694.2,-183.46"/>
</a>
</g>
</g>
</g>
</svg>
