<?xml version="1.0" encoding="UTF-8" standalone="no"?>
<!DOCTYPE svg PUBLIC "-//W3C//DTD SVG 1.1//EN"
 "http://www.w3.org/Graphics/SVG/1.1/DTD/svg11.dtd">
<!-- Generated by graphviz version 2.43.0 (0)
 -->
<!-- Title: Clipboard++/RmlUI/Elements/ElementFileManager.cpp Pages: 1 -->
<!--zoomable 324 -->

<svg id="main" version="1.1" xmlns="http://www.w3.org/2000/svg" xmlns:xlink="http://www.w3.org/1999/xlink" xml:space="preserve" onload="init(evt)">
<style type="text/css"><![CDATA[
.node, .edge {opacity: 0.7;}
.node.selected, .edge.selected {opacity: 1;}
.edge:hover path { stroke: red; }
.edge:hover polygon { stroke: red; fill: red; }
]]></style>

<defs>
  <circle id="rim" cx="0" cy="0" r="7"/>
  <circle id="rim2" cx="0" cy="0" r="3.5"/>
  <g id="zoomPlus">
    <use xlink:href="#rim" fill="#404040"><set attributeName="fill" to="#808080" begin="zoomplus.mouseover" end="zoomplus.mouseout"/></use>
    <path d="M-4,0h8M0,-4v8" fill="none" stroke="white" stroke-width="1.5" pointer-events="none"/>
  </g>
  <g id="zoomMin">
    <use xlink:href="#rim" fill="#404040"><set attributeName="fill" to="#808080" begin="zoomminus.mouseover" end="zoomminus.mouseout"/></use>
    <path d="M-4,0h8" fill="none" stroke="white" stroke-width="1.5" pointer-events="none"/>
  </g>
  <g id="arrowUp" transform="translate(30 24)">
    <use xlink:href="#rim"/>
    <path pointer-events="none" fill="none" stroke="white" stroke-width="1.5" d="M0,-3.0v7 M-2.5,-0.5L0,-3.0L2.5,-0.5"/>
  </g>
  <g id="arrowRight" transform="rotate(90) translate(36 -43)">
    <use xlink:href="#rim"/>
    <path pointer-events="none" fill="none" stroke="white" stroke-width="1.5" d="M0,-3.0v7 M-2.5,-0.5L0,-3.0L2.5,-0.5"/>
  </g>
  <g id="arrowDown" transform="rotate(180) translate(-30 -48)">
    <use xlink:href="#rim"/>
    <path pointer-events="none" fill="none" stroke="white" stroke-width="1.5" d="M0,-3.0v7 M-2.5,-0.5L0,-3.0L2.5,-0.5"/>
  </g>
  <g id="arrowLeft" transform="rotate(270) translate(-36 17)">
    <use xlink:href="#rim"/>
    <path pointer-events="none" fill="none" stroke="white" stroke-width="1.5" d="M0,-3.0v7 M-2.5,-0.5L0,-3.0L2.5,-0.5"/>
  </g>
  <g id="resetDef">
    <use xlink:href="#rim2" fill="#404040"><set attributeName="fill" to="#808080" begin="reset.mouseover" end="reset.mouseout"/></use>
  </g>
</defs>
<script type="application/ecmascript">
var viewWidth = 1315;
var viewHeight = 324;
var sectionId = 'dynsection-0';
</script>
<script type="application/ecmascript" xlink:href="svg.min.js"/>
<svg id="graph" class="graph">
<g id="viewport">
<title>Clipboard++/RmlUI/Elements/ElementFileManager.cpp</title>
<!-- Node1 -->
<g id="Node000001" class="node">
<title>Node1</title>
<g id="a_Node000001"><a xlink:title=" ">
<polygon fill="#999999" stroke="#666666" points="782.5,-316 621.5,-316 621.5,-286 782.5,-286 782.5,-316"/>
<text text-anchor="start" x="629.5" y="-304" font-family="Helvetica,sans-Serif" font-size="10.00">Clipboard++/RmlUI/Elements</text>
<text text-anchor="middle" x="702" y="-293" font-family="Helvetica,sans-Serif" font-size="10.00">/ElementFileManager.cpp</text>
</a>
</g>
</g>
<!-- Node2 -->
<g id="Node000002" class="node">
<title>Node2</title>
<g id="a_Node000002"><a xlink:href="ElementFileManager_8h.html" target="_top" xlink:title=" ">
<polygon fill="white" stroke="#666666" points="214.5,-244.5 89.5,-244.5 89.5,-225.5 214.5,-225.5 214.5,-244.5"/>
<text text-anchor="middle" x="152" y="-232.5" font-family="Helvetica,sans-Serif" font-size="10.00">ElementFileManager.h</text>
</a>
</g>
</g>
<!-- Node1&#45;&gt;Node2 -->
<g id="edge1_Node000001_Node000002" class="edge">
<title>Node1&#45;&gt;Node2</title>
<g id="a_edge1_Node000001_Node000002"><a xlink:title=" ">
<path fill="none" stroke="#63b8ff" d="M621.38,-293.74C526.14,-285.85 363.05,-270.75 224,-250 217.15,-248.98 209.95,-247.76 202.87,-246.47"/>
<polygon fill="#63b8ff" stroke="#63b8ff" points="203.11,-242.95 192.64,-244.55 201.82,-249.83 203.11,-242.95"/>
</a>
</g>
</g>
<!-- Node5 -->
<g id="Node000005" class="node">
<title>Node5</title>
<g id="a_Node000005"><a xlink:title=" ">
<polygon fill="#e0e0e0" stroke="#999999" points="355,-244.5 233,-244.5 233,-225.5 355,-225.5 355,-244.5"/>
<text text-anchor="middle" x="294" y="-232.5" font-family="Helvetica,sans-Serif" font-size="10.00">RmlUi/Core/Context.h</text>
</a>
</g>
</g>
<!-- Node1&#45;&gt;Node5 -->
<g id="edge4_Node000001_Node000005" class="edge">
<title>Node1&#45;&gt;Node5</title>
<g id="a_edge4_Node000001_Node000005"><a xlink:title=" ">
<path fill="none" stroke="#63b8ff" d="M621.23,-289.22C552.64,-279.79 451.66,-265.24 364,-250 357.83,-248.93 351.37,-247.73 344.97,-246.51"/>
<polygon fill="#63b8ff" stroke="#63b8ff" points="345.51,-243.04 335.02,-244.56 344.17,-249.91 345.51,-243.04"/>
</a>
</g>
</g>
<!-- Node6 -->
<g id="Node000006" class="node">
<title>Node6</title>
<g id="a_Node000006"><a xlink:title=" ">
<polygon fill="#e0e0e0" stroke="#999999" points="480.5,-244.5 373.5,-244.5 373.5,-225.5 480.5,-225.5 480.5,-244.5"/>
<text text-anchor="middle" x="427" y="-232.5" font-family="Helvetica,sans-Serif" font-size="10.00">RmlUi/Core/Core.h</text>
</a>
</g>
</g>
<!-- Node1&#45;&gt;Node6 -->
<g id="edge5_Node000001_Node000006" class="edge">
<title>Node1&#45;&gt;Node6</title>
<g id="a_edge5_Node000001_Node000006"><a xlink:title=" ">
<path fill="none" stroke="#63b8ff" d="M641.65,-285.95C590.98,-274.16 519.64,-257.56 473.36,-246.79"/>
<polygon fill="#63b8ff" stroke="#63b8ff" points="474.13,-243.38 463.6,-244.52 472.54,-250.19 474.13,-243.38"/>
</a>
</g>
</g>
<!-- Node7 -->
<g id="Node000007" class="node">
<title>Node7</title>
<g id="a_Node000007"><a xlink:title=" ">
<polygon fill="#e0e0e0" stroke="#999999" points="673.5,-244.5 498.5,-244.5 498.5,-225.5 673.5,-225.5 673.5,-244.5"/>
<text text-anchor="middle" x="586" y="-232.5" font-family="Helvetica,sans-Serif" font-size="10.00">RmlUi/Core/ElementDocument.h</text>
</a>
</g>
</g>
<!-- Node1&#45;&gt;Node7 -->
<g id="edge6_Node000001_Node000007" class="edge">
<title>Node1&#45;&gt;Node7</title>
<g id="a_edge6_Node000001_Node000007"><a xlink:title=" ">
<path fill="none" stroke="#63b8ff" d="M676.54,-285.95C656.83,-275.08 629.69,-260.11 610.28,-249.4"/>
<polygon fill="#63b8ff" stroke="#63b8ff" points="611.88,-246.28 601.44,-244.52 608.5,-252.41 611.88,-246.28"/>
</a>
</g>
</g>
<!-- Node8 -->
<g id="Node000008" class="node">
<title>Node8</title>
<g id="a_Node000008"><a xlink:title=" ">
<polygon fill="#e0e0e0" stroke="#999999" points="972.5,-19 863.5,-19 863.5,0 972.5,0 972.5,-19"/>
<text text-anchor="middle" x="918" y="-7" font-family="Helvetica,sans-Serif" font-size="10.00">RmlUi/Core/Input.h</text>
</a>
</g>
</g>
<!-- Node1&#45;&gt;Node8 -->
<g id="edge7_Node000001_Node000008" class="edge">
<title>Node1&#45;&gt;Node8</title>
<g id="a_edge7_Node000001_Node000008"><a xlink:title=" ">
<path fill="none" stroke="#63b8ff" d="M703.18,-285.72C706.58,-252.05 718.98,-166.31 760,-110 791.49,-66.77 848.02,-37.93 884.23,-22.89"/>
<polygon fill="#63b8ff" stroke="#63b8ff" points="885.9,-26 893.87,-19.02 883.28,-19.5 885.9,-26"/>
</a>
</g>
</g>
<!-- Node9 -->
<g id="Node000009" class="node">
<title>Node9</title>
<g id="a_Node000009"><a xlink:title=" ">
<polygon fill="#e0e0e0" stroke="#999999" points="894,-244.5 730,-244.5 730,-225.5 894,-225.5 894,-244.5"/>
<text text-anchor="middle" x="812" y="-232.5" font-family="Helvetica,sans-Serif" font-size="10.00">RmlUi/Core/SystemInterface.h</text>
</a>
</g>
</g>
<!-- Node1&#45;&gt;Node9 -->
<g id="edge8_Node000001_Node000009" class="edge">
<title>Node1&#45;&gt;Node9</title>
<g id="a_edge8_Node000001_Node000009"><a xlink:title=" ">
<path fill="none" stroke="#63b8ff" d="M726.14,-285.95C744.67,-275.18 770.1,-260.38 788.47,-249.69"/>
<polygon fill="#63b8ff" stroke="#63b8ff" points="790.48,-252.57 797.36,-244.52 786.96,-246.52 790.48,-252.57"/>
</a>
</g>
</g>
<!-- Node10 -->
<g id="Node000010" class="node">
<title>Node10</title>
<g id="a_Node000010"><a xlink:href="MemoryCellManager_8h.html" target="_top" xlink:title=" ">
<polygon fill="white" stroke="#666666" points="1050,-250 912,-250 912,-220 1050,-220 1050,-250"/>
<text text-anchor="start" x="920" y="-238" font-family="Helvetica,sans-Serif" font-size="10.00">QClipboard/MemoryCells</text>
<text text-anchor="middle" x="981" y="-227" font-family="Helvetica,sans-Serif" font-size="10.00">/MemoryCellManager.h</text>
</a>
</g>
</g>
<!-- Node1&#45;&gt;Node10 -->
<g id="edge9_Node000001_Node000010" class="edge">
<title>Node1&#45;&gt;Node10</title>
<g id="a_edge9_Node000001_Node000010"><a xlink:title=" ">
<path fill="none" stroke="#63b8ff" d="M763.23,-285.95C806.57,-276.01 864.81,-262.65 910.15,-252.25"/>
<polygon fill="#63b8ff" stroke="#63b8ff" points="910.95,-255.66 919.92,-250.01 909.39,-248.84 910.95,-255.66"/>
</a>
</g>
</g>
<!-- Node19 -->
<g id="Node000019" class="node">
<title>Node19</title>
<g id="a_Node000019"><a xlink:href="StringUtils_8h.html" target="_top" xlink:title=" ">
<polygon fill="white" stroke="#666666" points="1090.5,-74 1013.5,-74 1013.5,-55 1090.5,-55 1090.5,-74"/>
<text text-anchor="middle" x="1052" y="-62" font-family="Helvetica,sans-Serif" font-size="10.00">StringUtils.h</text>
</a>
</g>
</g>
<!-- Node1&#45;&gt;Node19 -->
<g id="edge22_Node000001_Node000019" class="edge">
<title>Node1&#45;&gt;Node19</title>
<g id="a_edge22_Node000001_Node000019"><a xlink:title=" ">
<path fill="none" stroke="#63b8ff" d="M782.74,-300.47C876.83,-299.1 1023.94,-290.32 1059,-250 1100.16,-202.67 1074.31,-119.9 1059.84,-83.52"/>
<polygon fill="#63b8ff" stroke="#63b8ff" points="1063.03,-82.07 1055.96,-74.18 1056.56,-84.76 1063.03,-82.07"/>
</a>
</g>
</g>
<!-- Node21 -->
<g id="Node000021" class="node">
<title>Node21</title>
<g id="a_Node000021"><a xlink:href="FileManager_8h.html" target="_top" xlink:title=" ">
<polygon fill="white" stroke="#666666" points="1196.5,-129 1111.5,-129 1111.5,-110 1196.5,-110 1196.5,-129"/>
<text text-anchor="middle" x="1154" y="-117" font-family="Helvetica,sans-Serif" font-size="10.00">FileManager.h</text>
</a>
</g>
</g>
<!-- Node1&#45;&gt;Node21 -->
<g id="edge26_Node000001_Node000021" class="edge">
<title>Node1&#45;&gt;Node21</title>
<g id="a_edge26_Node000001_Node000021"><a xlink:title=" ">
<path fill="none" stroke="#63b8ff" d="M782.88,-298.56C882.4,-295.3 1044.08,-284.64 1092,-250 1129.09,-223.19 1144.87,-168.21 1150.83,-139.27"/>
<polygon fill="#63b8ff" stroke="#63b8ff" points="1154.31,-139.72 1152.71,-129.25 1147.43,-138.43 1154.31,-139.72"/>
</a>
</g>
</g>
<!-- Node3 -->
<g id="Node000003" class="node">
<title>Node3</title>
<g id="a_Node000003"><a xlink:title=" ">
<polygon fill="#e0e0e0" stroke="#999999" points="292.5,-184 167.5,-184 167.5,-165 292.5,-165 292.5,-184"/>
<text text-anchor="middle" x="230" y="-172" font-family="Helvetica,sans-Serif" font-size="10.00">RmlUi/Core/Element.h</text>
</a>
</g>
</g>
<!-- Node2&#45;&gt;Node3 -->
<g id="edge2_Node000002_Node000003" class="edge">
<title>Node2&#45;&gt;Node3</title>
<g id="a_edge2_Node000002_Node000003"><a xlink:title=" ">
<path fill="none" stroke="#63b8ff" d="M163.51,-225.37C175.84,-216.12 195.62,-201.28 210.41,-190.19"/>
<polygon fill="#63b8ff" stroke="#63b8ff" points="212.54,-192.97 218.44,-184.17 208.34,-187.37 212.54,-192.97"/>
</a>
</g>
</g>
<!-- Node4 -->
<g id="Node000004" class="node">
<title>Node4</title>
<g id="a_Node000004"><a xlink:title=" ">
<polygon fill="#e0e0e0" stroke="#999999" points="150,-184 0,-184 0,-165 150,-165 150,-184"/>
<text text-anchor="middle" x="75" y="-172" font-family="Helvetica,sans-Serif" font-size="10.00">RmlUi/Core/EventListener.h</text>
</a>
</g>
</g>
<!-- Node2&#45;&gt;Node4 -->
<g id="edge3_Node000002_Node000004" class="edge">
<title>Node2&#45;&gt;Node4</title>
<g id="a_edge3_Node000002_Node000004"><a xlink:title=" ">
<path fill="none" stroke="#63b8ff" d="M140.64,-225.37C128.58,-216.21 109.3,-201.56 94.75,-190.51"/>
<polygon fill="#63b8ff" stroke="#63b8ff" points="96.49,-187.43 86.41,-184.17 92.25,-193 96.49,-187.43"/>
</a>
</g>
</g>
<!-- Node11 -->
<g id="Node000011" class="node">
<title>Node11</title>
<g id="a_Node000011"><a xlink:href="ClipboardInterface_8h.html" target="_top" xlink:title=" ">
<polygon fill="white" stroke="#666666" points="1050,-129 934,-129 934,-110 1050,-110 1050,-129"/>
<text text-anchor="middle" x="992" y="-117" font-family="Helvetica,sans-Serif" font-size="10.00">ClipboardInterface.h</text>
</a>
</g>
</g>
<!-- Node10&#45;&gt;Node11 -->
<g id="edge10_Node000010_Node000011" class="edge">
<title>Node10&#45;&gt;Node11</title>
<g id="a_edge10_Node000010_Node000011"><a xlink:title=" ">
<path fill="none" stroke="#63b8ff" d="M995.88,-219.77C1004.45,-210.51 1014.41,-197.64 1019,-184 1024.42,-167.92 1015.58,-150.2 1006.6,-137.57"/>
<polygon fill="#63b8ff" stroke="#63b8ff" points="1009.13,-135.13 1000.23,-129.37 1003.6,-139.42 1009.13,-135.13"/>
</a>
</g>
</g>
<!-- Node14 -->
<g id="Node000014" class="node">
<title>Node14</title>
<g id="a_Node000014"><a xlink:title=" ">
<polygon fill="#e0e0e0" stroke="#999999" points="836.5,-19 789.5,-19 789.5,0 836.5,0 836.5,-19"/>
<text text-anchor="middle" x="813" y="-7" font-family="Helvetica,sans-Serif" font-size="10.00">vector</text>
</a>
</g>
</g>
<!-- Node10&#45;&gt;Node14 -->
<g id="edge20_Node000010_Node000014" class="edge">
<title>Node10&#45;&gt;Node14</title>
<g id="a_edge20_Node000010_Node000014"><a xlink:title=" ">
<path fill="none" stroke="#63b8ff" d="M911.62,-221.17C880.59,-213.45 844.45,-201.61 815,-184 785.33,-166.26 773.23,-160.94 760,-129 744.64,-91.91 776.31,-49.07 797.01,-26.43"/>
<polygon fill="#63b8ff" stroke="#63b8ff" points="799.67,-28.71 804.02,-19.05 794.6,-23.88 799.67,-28.71"/>
</a>
</g>
</g>
<!-- Node15 -->
<g id="Node000015" class="node">
<title>Node15</title>
<g id="a_Node000015"><a xlink:href="ClipboardAdapter_8h.html" target="_top" xlink:title=" ">
<polygon fill="white" stroke="#666666" points="934,-184 824,-184 824,-165 934,-165 934,-184"/>
<text text-anchor="middle" x="879" y="-172" font-family="Helvetica,sans-Serif" font-size="10.00">ClipboardAdapter.h</text>
</a>
</g>
</g>
<!-- Node10&#45;&gt;Node15 -->
<g id="edge16_Node000010_Node000015" class="edge">
<title>Node10&#45;&gt;Node15</title>
<g id="a_edge16_Node000010_Node000015"><a xlink:title=" ">
<path fill="none" stroke="#63b8ff" d="M956.57,-219.99C940.31,-210.66 919.05,-198.47 902.9,-189.21"/>
<polygon fill="#63b8ff" stroke="#63b8ff" points="904.48,-186.08 894.06,-184.14 901,-192.15 904.48,-186.08"/>
</a>
</g>
</g>
<!-- Node18 -->
<g id="Node000018" class="node">
<title>Node18</title>
<g id="a_Node000018"><a xlink:title=" ">
<polygon fill="#e0e0e0" stroke="#999999" points="1010,-184 952,-184 952,-165 1010,-165 1010,-184"/>
<text text-anchor="middle" x="981" y="-172" font-family="Helvetica,sans-Serif" font-size="10.00">memory</text>
</a>
</g>
</g>
<!-- Node10&#45;&gt;Node18 -->
<g id="edge21_Node000010_Node000018" class="edge">
<title>Node10&#45;&gt;Node18</title>
<g id="a_edge21_Node000010_Node000018"><a xlink:title=" ">
<path fill="none" stroke="#63b8ff" d="M981,-219.84C981,-212.21 981,-202.7 981,-194.45"/>
<polygon fill="#63b8ff" stroke="#63b8ff" points="984.5,-194.27 981,-184.27 977.5,-194.27 984.5,-194.27"/>
</a>
</g>
</g>
<!-- Node12 -->
<g id="Node000012" class="node">
<title>Node12</title>
<g id="a_Node000012"><a xlink:title=" ">
<polygon fill="#e0e0e0" stroke="#999999" points="1168,-19 1124,-19 1124,0 1168,0 1168,-19"/>
<text text-anchor="middle" x="1146" y="-7" font-family="Helvetica,sans-Serif" font-size="10.00">string</text>
</a>
</g>
</g>
<!-- Node11&#45;&gt;Node12 -->
<g id="edge11_Node000011_Node000012" class="edge">
<title>Node11&#45;&gt;Node12</title>
<g id="a_edge11_Node000011_Node000012"><a xlink:title=" ">
<path fill="none" stroke="#63b8ff" d="M1025.67,-109.89C1048.35,-102.9 1078.02,-91.32 1100,-74 1115.83,-61.53 1128.74,-42.24 1136.81,-28.19"/>
<polygon fill="#63b8ff" stroke="#63b8ff" points="1140.07,-29.52 1141.8,-19.06 1133.93,-26.16 1140.07,-29.52"/>
</a>
</g>
</g>
<!-- Node13 -->
<g id="Node000013" class="node">
<title>Node13</title>
<g id="a_Node000013"><a xlink:href="KeyShortCut_8h.html" target="_top" xlink:title=" ">
<polygon fill="white" stroke="#666666" points="995,-74 841,-74 841,-55 995,-55 995,-74"/>
<text text-anchor="middle" x="918" y="-62" font-family="Helvetica,sans-Serif" font-size="10.00">KeyShortCuts/KeyShortCut.h</text>
</a>
</g>
</g>
<!-- Node11&#45;&gt;Node13 -->
<g id="edge12_Node000011_Node000013" class="edge">
<title>Node11&#45;&gt;Node13</title>
<g id="a_edge12_Node000011_Node000013"><a xlink:title=" ">
<path fill="none" stroke="#63b8ff" d="M980.11,-109.98C968.85,-101.92 951.71,-89.65 938.29,-80.03"/>
<polygon fill="#63b8ff" stroke="#63b8ff" points="940.27,-77.15 930.11,-74.17 936.2,-82.84 940.27,-77.15"/>
</a>
</g>
</g>
<!-- Node13&#45;&gt;Node8 -->
<g id="edge15_Node000013_Node000008" class="edge">
<title>Node13&#45;&gt;Node8</title>
<g id="a_edge15_Node000013_Node000008"><a xlink:title=" ">
<path fill="none" stroke="#63b8ff" d="M918,-54.75C918,-47.8 918,-37.85 918,-29.13"/>
<polygon fill="#63b8ff" stroke="#63b8ff" points="921.5,-29.09 918,-19.09 914.5,-29.09 921.5,-29.09"/>
</a>
</g>
</g>
<!-- Node13&#45;&gt;Node12 -->
<g id="edge14_Node000013_Node000012" class="edge">
<title>Node13&#45;&gt;Node12</title>
<g id="a_edge14_Node000013_Node000012"><a xlink:title=" ">
<path fill="none" stroke="#63b8ff" d="M958.12,-55C995.91,-46.86 1054.34,-33.97 1113.75,-19.23"/>
<polygon fill="#63b8ff" stroke="#63b8ff" points="1114.83,-22.57 1123.68,-16.75 1113.13,-15.78 1114.83,-22.57"/>
</a>
</g>
</g>
<!-- Node13&#45;&gt;Node14 -->
<g id="edge13_Node000013_Node000014" class="edge">
<title>Node13&#45;&gt;Node14</title>
<g id="a_edge13_Node000013_Node000014"><a xlink:title=" ">
<path fill="none" stroke="#63b8ff" d="M901.13,-54.98C884.39,-46.54 858.5,-33.47 839.11,-23.68"/>
<polygon fill="#63b8ff" stroke="#63b8ff" points="840.68,-20.55 830.18,-19.17 837.53,-26.8 840.68,-20.55"/>
</a>
</g>
</g>
<!-- Node15&#45;&gt;Node11 -->
<g id="edge17_Node000015_Node000011" class="edge">
<title>Node15&#45;&gt;Node11</title>
<g id="a_edge17_Node000015_Node000011"><a xlink:title=" ">
<path fill="none" stroke="#63b8ff" d="M897.16,-164.98C915.25,-156.5 943.28,-143.35 964.19,-133.54"/>
<polygon fill="#63b8ff" stroke="#63b8ff" points="965.95,-136.59 973.51,-129.17 962.97,-130.25 965.95,-136.59"/>
</a>
</g>
</g>
<!-- Node16 -->
<g id="Node000016" class="node">
<title>Node16</title>
<g id="a_Node000016"><a xlink:title=" ">
<polygon fill="#e0e0e0" stroke="#999999" points="840.5,-129 769.5,-129 769.5,-110 840.5,-110 840.5,-129"/>
<text text-anchor="middle" x="805" y="-117" font-family="Helvetica,sans-Serif" font-size="10.00">QClipboard</text>
</a>
</g>
</g>
<!-- Node15&#45;&gt;Node16 -->
<g id="edge18_Node000015_Node000016" class="edge">
<title>Node15&#45;&gt;Node16</title>
<g id="a_edge18_Node000015_Node000016"><a xlink:title=" ">
<path fill="none" stroke="#63b8ff" d="M867.11,-164.98C855.85,-156.92 838.71,-144.65 825.29,-135.03"/>
<polygon fill="#63b8ff" stroke="#63b8ff" points="827.27,-132.15 817.11,-129.17 823.2,-137.84 827.27,-132.15"/>
</a>
</g>
</g>
<!-- Node17 -->
<g id="Node000017" class="node">
<title>Node17</title>
<g id="a_Node000017"><a xlink:title=" ">
<polygon fill="#e0e0e0" stroke="#999999" points="915,-129 859,-129 859,-110 915,-110 915,-129"/>
<text text-anchor="middle" x="887" y="-117" font-family="Helvetica,sans-Serif" font-size="10.00">QObject</text>
</a>
</g>
</g>
<!-- Node15&#45;&gt;Node17 -->
<g id="edge19_Node000015_Node000017" class="edge">
<title>Node15&#45;&gt;Node17</title>
<g id="a_edge19_Node000015_Node000017"><a xlink:title=" ">
<path fill="none" stroke="#63b8ff" d="M880.32,-164.75C881.37,-157.8 882.87,-147.85 884.19,-139.13"/>
<polygon fill="#63b8ff" stroke="#63b8ff" points="887.67,-139.5 885.7,-129.09 880.75,-138.45 887.67,-139.5"/>
</a>
</g>
</g>
<!-- Node19&#45;&gt;Node8 -->
<g id="edge25_Node000019_Node000008" class="edge">
<title>Node19&#45;&gt;Node8</title>
<g id="a_edge25_Node000019_Node000008"><a xlink:title=" ">
<path fill="none" stroke="#63b8ff" d="M1030.47,-54.98C1008.53,-46.3 974.26,-32.75 949.31,-22.88"/>
<polygon fill="#63b8ff" stroke="#63b8ff" points="950.51,-19.59 939.92,-19.17 947.93,-26.1 950.51,-19.59"/>
</a>
</g>
</g>
<!-- Node19&#45;&gt;Node12 -->
<g id="edge23_Node000019_Node000012" class="edge">
<title>Node19&#45;&gt;Node12</title>
<g id="a_edge23_Node000019_Node000012"><a xlink:title=" ">
<path fill="none" stroke="#63b8ff" d="M1067.1,-54.98C1081.82,-46.69 1104.42,-33.94 1121.67,-24.22"/>
<polygon fill="#63b8ff" stroke="#63b8ff" points="1123.63,-27.13 1130.62,-19.17 1120.19,-21.03 1123.63,-27.13"/>
</a>
</g>
</g>
<!-- Node20 -->
<g id="Node000020" class="node">
<title>Node20</title>
<g id="a_Node000020"><a xlink:title=" ">
<polygon fill="#e0e0e0" stroke="#999999" points="1106,-19 994,-19 994,0 1106,0 1106,-19"/>
<text text-anchor="middle" x="1050" y="-7" font-family="Helvetica,sans-Serif" font-size="10.00">RmlUi/Core/Types.h</text>
</a>
</g>
</g>
<!-- Node19&#45;&gt;Node20 -->
<g id="edge24_Node000019_Node000020" class="edge">
<title>Node19&#45;&gt;Node20</title>
<g id="a_edge24_Node000019_Node000020"><a xlink:title=" ">
<path fill="none" stroke="#63b8ff" d="M1051.67,-54.75C1051.41,-47.8 1051.03,-37.85 1050.7,-29.13"/>
<polygon fill="#63b8ff" stroke="#63b8ff" points="1054.2,-28.95 1050.32,-19.09 1047.2,-29.21 1054.2,-28.95"/>
</a>
</g>
</g>
<!-- Node21&#45;&gt;Node12 -->
<g id="edge27_Node000021_Node000012" class="edge">
<title>Node21&#45;&gt;Node12</title>
<g id="a_edge27_Node000021_Node000012"><a xlink:title=" ">
<path fill="none" stroke="#63b8ff" d="M1153.35,-109.66C1152.05,-92.17 1149.13,-52.8 1147.39,-29.27"/>
<polygon fill="#63b8ff" stroke="#63b8ff" points="1150.87,-28.87 1146.64,-19.16 1143.89,-29.39 1150.87,-28.87"/>
</a>
</g>
</g>
<!-- Node21&#45;&gt;Node14 -->
<g id="edge28_Node000021_Node000014" class="edge">
<title>Node21&#45;&gt;Node14</title>
<g id="a_edge28_Node000021_Node000014"><a xlink:title=" ">
<path fill="none" stroke="#63b8ff" d="M1111.28,-113.83C1026.14,-104.36 842.51,-83.01 832,-74 819.18,-63.01 814.81,-43.75 813.42,-29.31"/>
<polygon fill="#63b8ff" stroke="#63b8ff" points="816.9,-28.81 812.84,-19.02 809.91,-29.2 816.9,-28.81"/>
</a>
</g>
</g>
<!-- Node22 -->
<g id="Node000022" class="node">
<title>Node22</title>
<g id="a_Node000022"><a xlink:href="TranslationManager_8h.html" target="_top" xlink:title=" ">
<polygon fill="white" stroke="#666666" points="1306.5,-74 1185.5,-74 1185.5,-55 1306.5,-55 1306.5,-74"/>
<text text-anchor="middle" x="1246" y="-62" font-family="Helvetica,sans-Serif" font-size="10.00">TranslationManager.h</text>
</a>
</g>
</g>
<!-- Node21&#45;&gt;Node22 -->
<g id="edge29_Node000021_Node000022" class="edge">
<title>Node21&#45;&gt;Node22</title>
<g id="a_edge29_Node000021_Node000022"><a xlink:title=" ">
<path fill="none" stroke="#63b8ff" d="M1168.78,-109.98C1183.18,-101.69 1205.31,-88.94 1222.19,-79.22"/>
<polygon fill="#63b8ff" stroke="#63b8ff" points="1224.03,-82.19 1230.95,-74.17 1220.54,-76.13 1224.03,-82.19"/>
</a>
</g>
</g>
<!-- Node22&#45;&gt;Node12 -->
<g id="edge30_Node000022_Node000012" class="edge">
<title>Node22&#45;&gt;Node12</title>
<g id="a_edge30_Node000022_Node000012"><a xlink:title=" ">
<path fill="none" stroke="#63b8ff" d="M1229.93,-54.98C1214.14,-46.61 1189.78,-33.7 1171.37,-23.95"/>
<polygon fill="#63b8ff" stroke="#63b8ff" points="1172.83,-20.76 1162.36,-19.17 1169.56,-26.95 1172.83,-20.76"/>
</a>
</g>
</g>
<!-- Node23 -->
<g id="Node000023" class="node">
<title>Node23</title>
<g id="a_Node000023"><a xlink:title=" ">
<polygon fill="#e0e0e0" stroke="#999999" points="1265,-19 1227,-19 1227,0 1265,0 1265,-19"/>
<text text-anchor="middle" x="1246" y="-7" font-family="Helvetica,sans-Serif" font-size="10.00">map</text>
</a>
</g>
</g>
<!-- Node22&#45;&gt;Node23 -->
<g id="edge31_Node000022_Node000023" class="edge">
<title>Node22&#45;&gt;Node23</title>
<g id="a_edge31_Node000022_Node000023"><a xlink:title=" ">
<path fill="none" stroke="#63b8ff" d="M1246,-54.75C1246,-47.8 1246,-37.85 1246,-29.13"/>
<polygon fill="#63b8ff" stroke="#63b8ff" points="1249.5,-29.09 1246,-19.09 1242.5,-29.09 1249.5,-29.09"/>
</a>
</g>
</g>
</g>
</svg>

<g id="navigator" transform="translate(0 0)" fill="#404254">
  <rect fill="#f2f5e9" fill-opacity="0.5" stroke="#606060" stroke-width=".5" x="0" y="0" width="60" height="60"/>
  <use id="zoomplus" xlink:href="#zoomPlus" x="17" y="9" onmousedown="handleZoom(evt,'in')"/>
  <use id="zoomminus" xlink:href="#zoomMin" x="42" y="9" onmousedown="handleZoom(evt,'out')"/>
  <use id="reset" xlink:href="#resetDef" x="30" y="36" onmousedown="handleReset()"/>
   <use id="arrowup" xlink:href="#arrowUp" x="0" y="0" onmousedown="handlePan(0,-1)"/>
  <use id="arrowright" xlink:href="#arrowRight" x="0" y="0" onmousedown="handlePan(1,0)"/>
  <use id="arrowdown" xlink:href="#arrowDown" x="0" y="0" onmousedown="handlePan(0,1)"/>
  <use id="arrowleft" xlink:href="#arrowLeft" x="0" y="0" onmousedown="handlePan(-1,0)"/>
</g>
<svg viewBox="0 0 15 15" width="100%" height="30px" preserveAspectRatio="xMaxYMin meet">
 <g id="arrow_out" transform="scale(0.3 0.3)">
  <a xlink:href="ElementFileManager_8cpp__incl_org.svg" target="_base">
   <rect id="button" ry="5" rx="5" y="6" x="6" height="38" width="38"
        fill="#f2f5e9" fill-opacity="0.5" stroke="#606060" stroke-width="1.0"/>
   <path id="arrow"
     d="M 11.500037,31.436501 C 11.940474,20.09759 22.043105,11.32322 32.158766,21.979434 L 37.068811,17.246167 C 37.068811,17.246167 37.088388,32 37.088388,32 L 22.160133,31.978069 C 22.160133,31.978069 26.997745,27.140456 26.997745,27.140456 C 18.528582,18.264221 13.291696,25.230495 11.500037,31.436501 z"
     style="fill:#404040;"/>
  </a>
 </g>
</svg>

<style type='text/css'>
<![CDATA[
[data-mouse-over-selected='false'] { opacity: 0.7; }
[data-mouse-over-selected='true']  { opacity: 1.0; }
]]>
</style>
<script type="application/ecmascript"><![CDATA[
document.addEventListener('DOMContentLoaded', (event) => {
  highlightEdges();
  highlightAdjacentNodes();
});
]]></script>
</svg>
