<?xml version="1.0" encoding="UTF-8" standalone="no"?>
<!DOCTYPE svg PUBLIC "-//W3C//DTD SVG 1.1//EN"
 "http://www.w3.org/Graphics/SVG/1.1/DTD/svg11.dtd">
<!-- Generated by graphviz version 2.43.0 (0)
 -->
<!-- Title: Clipboard++/RmlUI/Elements/ElementEdit.h Pages: 1 -->
<svg width="523pt" height="203pt"
 viewBox="0.00 0.00 523.00 203.00" xmlns="http://www.w3.org/2000/svg" xmlns:xlink="http://www.w3.org/1999/xlink">
<g id="graph0" class="graph" transform="scale(1 1) rotate(0) translate(4 199)">
<title>Clipboard++/RmlUI/Elements/ElementEdit.h</title>
<!-- Node1 -->
<g id="Node000001" class="node">
<title>Node1</title>
<g id="a_Node000001"><a xlink:title=" ">
<polygon fill="#999999" stroke="#666666" points="370,-195 209,-195 209,-165 370,-165 370,-195"/>
<text text-anchor="start" x="217" y="-183" font-family="Helvetica,sans-Serif" font-size="10.00">Clipboard++/RmlUI/Elements</text>
<text text-anchor="middle" x="289.5" y="-172" font-family="Helvetica,sans-Serif" font-size="10.00">/ElementEdit.h</text>
</a>
</g>
</g>
<!-- Node2 -->
<g id="Node000002" class="node">
<title>Node2</title>
<g id="a_Node000002"><a xlink:title=" ">
<polygon fill="#e0e0e0" stroke="#999999" points="125,-129 0,-129 0,-110 125,-110 125,-129"/>
<text text-anchor="middle" x="62.5" y="-117" font-family="Helvetica,sans-Serif" font-size="10.00">RmlUi/Core/Element.h</text>
</a>
</g>
</g>
<!-- Node1&#45;&gt;Node2 -->
<g id="edge1_Node000001_Node000002" class="edge">
<title>Node1&#45;&gt;Node2</title>
<g id="a_edge1_Node000001_Node000002"><a xlink:title=" ">
<path fill="none" stroke="#63b8ff" d="M235.13,-164.99C195.44,-154.76 142.38,-141.09 105.61,-131.61"/>
<polygon fill="#63b8ff" stroke="#63b8ff" points="106.25,-128.16 95.69,-129.05 104.5,-134.94 106.25,-128.16"/>
</a>
</g>
</g>
<!-- Node3 -->
<g id="Node000003" class="node">
<title>Node3</title>
<g id="a_Node000003"><a xlink:title=" ">
<polygon fill="#e0e0e0" stroke="#999999" points="293.5,-129 143.5,-129 143.5,-110 293.5,-110 293.5,-129"/>
<text text-anchor="middle" x="218.5" y="-117" font-family="Helvetica,sans-Serif" font-size="10.00">RmlUi/Core/EventListener.h</text>
</a>
</g>
</g>
<!-- Node1&#45;&gt;Node3 -->
<g id="edge2_Node000001_Node000003" class="edge">
<title>Node1&#45;&gt;Node3</title>
<g id="a_edge2_Node000001_Node000003"><a xlink:title=" ">
<path fill="none" stroke="#63b8ff" d="M272.31,-164.84C261.69,-156.09 248.06,-144.85 237.17,-135.88"/>
<polygon fill="#63b8ff" stroke="#63b8ff" points="239.08,-132.92 229.14,-129.27 234.63,-138.33 239.08,-132.92"/>
</a>
</g>
</g>
<!-- Node4 -->
<g id="Node000004" class="node">
<title>Node4</title>
<g id="a_Node000004"><a xlink:href="EditViewModel_8h.html" target="_top" xlink:title=" ">
<polygon fill="white" stroke="#666666" points="409.5,-129 311.5,-129 311.5,-110 409.5,-110 409.5,-129"/>
<text text-anchor="middle" x="360.5" y="-117" font-family="Helvetica,sans-Serif" font-size="10.00">EditViewModel.h</text>
</a>
</g>
</g>
<!-- Node1&#45;&gt;Node4 -->
<g id="edge3_Node000001_Node000004" class="edge">
<title>Node1&#45;&gt;Node4</title>
<g id="a_edge3_Node000001_Node000004"><a xlink:title=" ">
<path fill="none" stroke="#63b8ff" d="M306.69,-164.84C317.31,-156.09 330.94,-144.85 341.83,-135.88"/>
<polygon fill="#63b8ff" stroke="#63b8ff" points="344.37,-138.33 349.86,-129.27 339.92,-132.92 344.37,-138.33"/>
</a>
</g>
</g>
<!-- Node9 -->
<g id="Node000009" class="node">
<title>Node9</title>
<g id="a_Node000009"><a xlink:title=" ">
<polygon fill="#e0e0e0" stroke="#999999" points="485.5,-129 427.5,-129 427.5,-110 485.5,-110 485.5,-129"/>
<text text-anchor="middle" x="456.5" y="-117" font-family="Helvetica,sans-Serif" font-size="10.00">memory</text>
</a>
</g>
</g>
<!-- Node1&#45;&gt;Node9 -->
<g id="edge10_Node000001_Node000009" class="edge">
<title>Node1&#45;&gt;Node9</title>
<g id="a_edge10_Node000001_Node000009"><a xlink:title=" ">
<path fill="none" stroke="#63b8ff" d="M329.5,-164.99C357.74,-155.1 395.18,-141.98 422.08,-132.56"/>
<polygon fill="#63b8ff" stroke="#63b8ff" points="423.56,-135.75 431.84,-129.14 421.24,-129.14 423.56,-135.75"/>
</a>
</g>
</g>
<!-- Node5 -->
<g id="Node000005" class="node">
<title>Node5</title>
<g id="a_Node000005"><a xlink:href="KeyShortCut_8h.html" target="_top" xlink:title=" ">
<polygon fill="white" stroke="#666666" points="437.5,-74 283.5,-74 283.5,-55 437.5,-55 437.5,-74"/>
<text text-anchor="middle" x="360.5" y="-62" font-family="Helvetica,sans-Serif" font-size="10.00">KeyShortCuts/KeyShortCut.h</text>
</a>
</g>
</g>
<!-- Node4&#45;&gt;Node5 -->
<g id="edge4_Node000004_Node000005" class="edge">
<title>Node4&#45;&gt;Node5</title>
<g id="a_edge4_Node000004_Node000005"><a xlink:title=" ">
<path fill="none" stroke="#63b8ff" d="M360.5,-109.75C360.5,-102.8 360.5,-92.85 360.5,-84.13"/>
<polygon fill="#63b8ff" stroke="#63b8ff" points="364,-84.09 360.5,-74.09 357,-84.09 364,-84.09"/>
</a>
</g>
</g>
<!-- Node6 -->
<g id="Node000006" class="node">
<title>Node6</title>
<g id="a_Node000006"><a xlink:title=" ">
<polygon fill="#e0e0e0" stroke="#999999" points="300,-19 253,-19 253,0 300,0 300,-19"/>
<text text-anchor="middle" x="276.5" y="-7" font-family="Helvetica,sans-Serif" font-size="10.00">vector</text>
</a>
</g>
</g>
<!-- Node4&#45;&gt;Node6 -->
<g id="edge9_Node000004_Node000006" class="edge">
<title>Node4&#45;&gt;Node6</title>
<g id="a_edge9_Node000004_Node000006"><a xlink:title=" ">
<path fill="none" stroke="#63b8ff" d="M325.45,-109.88C306.85,-103.33 285.6,-92.24 274.5,-74 266.35,-60.6 267.87,-42.5 270.83,-29.05"/>
<polygon fill="#63b8ff" stroke="#63b8ff" points="274.3,-29.61 273.48,-19.05 267.54,-27.82 274.3,-29.61"/>
</a>
</g>
</g>
<!-- Node8 -->
<g id="Node000008" class="node">
<title>Node8</title>
<g id="a_Node000008"><a xlink:title=" ">
<polygon fill="#e0e0e0" stroke="#999999" points="515,-19 406,-19 406,0 515,0 515,-19"/>
<text text-anchor="middle" x="460.5" y="-7" font-family="Helvetica,sans-Serif" font-size="10.00">RmlUi/Core/Input.h</text>
</a>
</g>
</g>
<!-- Node4&#45;&gt;Node8 -->
<g id="edge8_Node000004_Node000008" class="edge">
<title>Node4&#45;&gt;Node8</title>
<g id="a_edge8_Node000004_Node000008"><a xlink:title=" ">
<path fill="none" stroke="#63b8ff" d="M391.13,-109.98C409.86,-103.22 432.78,-91.86 446.5,-74 456.28,-61.27 459.51,-43.09 460.46,-29.45"/>
<polygon fill="#63b8ff" stroke="#63b8ff" points="463.96,-29.38 460.8,-19.27 456.97,-29.14 463.96,-29.38"/>
</a>
</g>
</g>
<!-- Node5&#45;&gt;Node6 -->
<g id="edge5_Node000005_Node000006" class="edge">
<title>Node5&#45;&gt;Node6</title>
<g id="a_edge5_Node000005_Node000006"><a xlink:title=" ">
<path fill="none" stroke="#63b8ff" d="M347,-54.98C334.1,-46.84 314.4,-34.41 299.1,-24.76"/>
<polygon fill="#63b8ff" stroke="#63b8ff" points="300.57,-21.55 290.24,-19.17 296.83,-27.47 300.57,-21.55"/>
</a>
</g>
</g>
<!-- Node7 -->
<g id="Node000007" class="node">
<title>Node7</title>
<g id="a_Node000007"><a xlink:title=" ">
<polygon fill="#e0e0e0" stroke="#999999" points="382.5,-19 338.5,-19 338.5,0 382.5,0 382.5,-19"/>
<text text-anchor="middle" x="360.5" y="-7" font-family="Helvetica,sans-Serif" font-size="10.00">string</text>
</a>
</g>
</g>
<!-- Node5&#45;&gt;Node7 -->
<g id="edge6_Node000005_Node000007" class="edge">
<title>Node5&#45;&gt;Node7</title>
<g id="a_edge6_Node000005_Node000007"><a xlink:title=" ">
<path fill="none" stroke="#63b8ff" d="M360.5,-54.75C360.5,-47.8 360.5,-37.85 360.5,-29.13"/>
<polygon fill="#63b8ff" stroke="#63b8ff" points="364,-29.09 360.5,-19.09 357,-29.09 364,-29.09"/>
</a>
</g>
</g>
<!-- Node5&#45;&gt;Node8 -->
<g id="edge7_Node000005_Node000008" class="edge">
<title>Node5&#45;&gt;Node8</title>
<g id="a_edge7_Node000005_Node000008"><a xlink:title=" ">
<path fill="none" stroke="#63b8ff" d="M376.57,-54.98C392.36,-46.61 416.72,-33.7 435.13,-23.95"/>
<polygon fill="#63b8ff" stroke="#63b8ff" points="436.94,-26.95 444.14,-19.17 433.67,-20.76 436.94,-26.95"/>
</a>
</g>
</g>
</g>
</svg>
