<?xml version="1.0" encoding="UTF-8" standalone="no"?>
<!DOCTYPE svg PUBLIC "-//W3C//DTD SVG 1.1//EN"
 "http://www.w3.org/Graphics/SVG/1.1/DTD/svg11.dtd">
<!-- Generated by graphviz version 2.43.0 (0)
 -->
<!-- Title: Clipboard++/RmlUI/Elements/ElementShortCuts.cpp Pages: 1 -->
<svg width="1396pt" height="390pt"
 viewBox="0.00 0.00 1396.00 390.00" xmlns="http://www.w3.org/2000/svg" xmlns:xlink="http://www.w3.org/1999/xlink">
<g id="graph0" class="graph" transform="scale(1 1) rotate(0) translate(4 386)">
<title>Clipboard++/RmlUI/Elements/ElementShortCuts.cpp</title>
<!-- Node1 -->
<g id="Node000001" class="node">
<title>Node1</title>
<g id="a_Node000001"><a xlink:title=" ">
<polygon fill="#999999" stroke="#666666" points="832.5,-382 671.5,-382 671.5,-352 832.5,-352 832.5,-382"/>
<text text-anchor="start" x="679.5" y="-370" font-family="Helvetica,sans-Serif" font-size="10.00">Clipboard++/RmlUI/Elements</text>
<text text-anchor="middle" x="752" y="-359" font-family="Helvetica,sans-Serif" font-size="10.00">/ElementShortCuts.cpp</text>
</a>
</g>
</g>
<!-- Node2 -->
<g id="Node000002" class="node">
<title>Node2</title>
<g id="a_Node000002"><a xlink:title=" ">
<polygon fill="#e0e0e0" stroke="#999999" points="112,-310.5 0,-310.5 0,-291.5 112,-291.5 112,-310.5"/>
<text text-anchor="middle" x="56" y="-298.5" font-family="Helvetica,sans-Serif" font-size="10.00">ElementShortcuts.h</text>
</a>
</g>
</g>
<!-- Node1&#45;&gt;Node2 -->
<g id="edge1_Node000001_Node000002" class="edge">
<title>Node1&#45;&gt;Node2</title>
<g id="a_edge1_Node000001_Node000002"><a xlink:title=" ">
<path fill="none" stroke="#63b8ff" d="M671.43,-363.05C551.1,-357.87 317.53,-344.82 121,-316 114.7,-315.08 108.11,-313.9 101.63,-312.63"/>
<polygon fill="#63b8ff" stroke="#63b8ff" points="102.11,-309.15 91.61,-310.56 100.69,-316.01 102.11,-309.15"/>
</a>
</g>
</g>
<!-- Node3 -->
<g id="Node000003" class="node">
<title>Node3</title>
<g id="a_Node000003"><a xlink:title=" ">
<polygon fill="#e0e0e0" stroke="#999999" points="252,-310.5 130,-310.5 130,-291.5 252,-291.5 252,-310.5"/>
<text text-anchor="middle" x="191" y="-298.5" font-family="Helvetica,sans-Serif" font-size="10.00">RmlUi/Core/Context.h</text>
</a>
</g>
</g>
<!-- Node1&#45;&gt;Node3 -->
<g id="edge2_Node000001_Node000003" class="edge">
<title>Node1&#45;&gt;Node3</title>
<g id="a_edge2_Node000001_Node000003"><a xlink:title=" ">
<path fill="none" stroke="#63b8ff" d="M671.33,-360.17C573.8,-352.58 404.83,-337.65 261,-316 254.25,-314.98 247.16,-313.76 240.19,-312.46"/>
<polygon fill="#63b8ff" stroke="#63b8ff" points="240.61,-308.97 230.13,-310.51 239.28,-315.84 240.61,-308.97"/>
</a>
</g>
</g>
<!-- Node4 -->
<g id="Node000004" class="node">
<title>Node4</title>
<g id="a_Node000004"><a xlink:title=" ">
<polygon fill="#e0e0e0" stroke="#999999" points="377.5,-310.5 270.5,-310.5 270.5,-291.5 377.5,-291.5 377.5,-310.5"/>
<text text-anchor="middle" x="324" y="-298.5" font-family="Helvetica,sans-Serif" font-size="10.00">RmlUi/Core/Core.h</text>
</a>
</g>
</g>
<!-- Node1&#45;&gt;Node4 -->
<g id="edge3_Node000001_Node000004" class="edge">
<title>Node1&#45;&gt;Node4</title>
<g id="a_edge3_Node000001_Node000004"><a xlink:title=" ">
<path fill="none" stroke="#63b8ff" d="M671.34,-356.32C598.23,-347.19 487.61,-332.46 392,-316 385.84,-314.94 379.39,-313.73 373.01,-312.49"/>
<polygon fill="#63b8ff" stroke="#63b8ff" points="373.6,-309.04 363.11,-310.51 372.23,-315.9 373.6,-309.04"/>
</a>
</g>
</g>
<!-- Node5 -->
<g id="Node000005" class="node">
<title>Node5</title>
<g id="a_Node000005"><a xlink:title=" ">
<polygon fill="#e0e0e0" stroke="#999999" points="430.5,-184 255.5,-184 255.5,-165 430.5,-165 430.5,-184"/>
<text text-anchor="middle" x="343" y="-172" font-family="Helvetica,sans-Serif" font-size="10.00">RmlUi/Core/ElementDocument.h</text>
</a>
</g>
</g>
<!-- Node1&#45;&gt;Node5 -->
<g id="edge4_Node000001_Node000005" class="edge">
<title>Node1&#45;&gt;Node5</title>
<g id="a_edge4_Node000001_Node000005"><a xlink:title=" ">
<path fill="none" stroke="#63b8ff" d="M671.29,-355.16C563.23,-338.74 380.7,-303.68 343,-250 331.64,-233.83 333.84,-210.43 337.46,-194.19"/>
<polygon fill="#63b8ff" stroke="#63b8ff" points="340.91,-194.82 340.04,-184.27 334.14,-193.06 340.91,-194.82"/>
</a>
</g>
</g>
<!-- Node6 -->
<g id="Node000006" class="node">
<title>Node6</title>
<g id="a_Node000006"><a xlink:title=" ">
<polygon fill="#e0e0e0" stroke="#999999" points="879.5,-19 770.5,-19 770.5,0 879.5,0 879.5,-19"/>
<text text-anchor="middle" x="825" y="-7" font-family="Helvetica,sans-Serif" font-size="10.00">RmlUi/Core/Input.h</text>
</a>
</g>
</g>
<!-- Node1&#45;&gt;Node6 -->
<g id="edge5_Node000001_Node000006" class="edge">
<title>Node1&#45;&gt;Node6</title>
<g id="a_edge5_Node000001_Node000006"><a xlink:title=" ">
<path fill="none" stroke="#63b8ff" d="M761.54,-351.89C781.33,-321.23 825,-245.63 825,-175.5 825,-175.5 825,-175.5 825,-118.5 825,-87.19 825,-50.77 825,-29.23"/>
<polygon fill="#63b8ff" stroke="#63b8ff" points="828.5,-29.18 825,-19.18 821.5,-29.18 828.5,-29.18"/>
</a>
</g>
</g>
<!-- Node7 -->
<g id="Node000007" class="node">
<title>Node7</title>
<g id="a_Node000007"><a xlink:title=" ">
<polygon fill="#e0e0e0" stroke="#999999" points="1279,-310.5 1115,-310.5 1115,-291.5 1279,-291.5 1279,-310.5"/>
<text text-anchor="middle" x="1197" y="-298.5" font-family="Helvetica,sans-Serif" font-size="10.00">RmlUi/Core/SystemInterface.h</text>
</a>
</g>
</g>
<!-- Node1&#45;&gt;Node7 -->
<g id="edge6_Node000001_Node000007" class="edge">
<title>Node1&#45;&gt;Node7</title>
<g id="a_edge6_Node000001_Node000007"><a xlink:title=" ">
<path fill="none" stroke="#63b8ff" d="M832.53,-354.91C904.31,-344.96 1012.21,-329.84 1106,-316 1114.41,-314.76 1123.25,-313.43 1131.99,-312.1"/>
<polygon fill="#63b8ff" stroke="#63b8ff" points="1132.8,-315.52 1142.16,-310.55 1131.74,-308.6 1132.8,-315.52"/>
</a>
</g>
</g>
<!-- Node8 -->
<g id="Node000008" class="node">
<title>Node8</title>
<g id="a_Node000008"><a xlink:href="StringUtils_8h.html" target="_top" xlink:title=" ">
<polygon fill="white" stroke="#666666" points="796.5,-244.5 719.5,-244.5 719.5,-225.5 796.5,-225.5 796.5,-244.5"/>
<text text-anchor="middle" x="758" y="-232.5" font-family="Helvetica,sans-Serif" font-size="10.00">StringUtils.h</text>
</a>
</g>
</g>
<!-- Node1&#45;&gt;Node8 -->
<g id="edge7_Node000001_Node000008" class="edge">
<title>Node1&#45;&gt;Node8</title>
<g id="a_edge7_Node000001_Node000008"><a xlink:title=" ">
<path fill="none" stroke="#63b8ff" d="M752.65,-351.84C753.74,-328.34 755.91,-281.26 757.13,-254.93"/>
<polygon fill="#63b8ff" stroke="#63b8ff" points="760.63,-254.9 757.6,-244.75 753.64,-254.58 760.63,-254.9"/>
</a>
</g>
</g>
<!-- Node11 -->
<g id="Node000011" class="node">
<title>Node11</title>
<g id="a_Node000011"><a xlink:href="TranslationManager_8h.html" target="_top" xlink:title=" ">
<polygon fill="white" stroke="#666666" points="939.5,-310.5 818.5,-310.5 818.5,-291.5 939.5,-291.5 939.5,-310.5"/>
<text text-anchor="middle" x="879" y="-298.5" font-family="Helvetica,sans-Serif" font-size="10.00">TranslationManager.h</text>
</a>
</g>
</g>
<!-- Node1&#45;&gt;Node11 -->
<g id="edge11_Node000001_Node000011" class="edge">
<title>Node1&#45;&gt;Node11</title>
<g id="a_edge11_Node000001_Node000011"><a xlink:title=" ">
<path fill="none" stroke="#63b8ff" d="M779.87,-351.95C801.65,-340.98 831.7,-325.83 852.99,-315.11"/>
<polygon fill="#63b8ff" stroke="#63b8ff" points="854.74,-318.14 862.1,-310.52 851.59,-311.89 854.74,-318.14"/>
</a>
</g>
</g>
<!-- Node13 -->
<g id="Node000013" class="node">
<title>Node13</title>
<g id="a_Node000013"><a xlink:title=" ">
<polygon fill="#e0e0e0" stroke="#999999" points="1347,-310.5 1297,-310.5 1297,-291.5 1347,-291.5 1347,-310.5"/>
<text text-anchor="middle" x="1322" y="-298.5" font-family="Helvetica,sans-Serif" font-size="10.00">format</text>
</a>
</g>
</g>
<!-- Node1&#45;&gt;Node13 -->
<g id="edge14_Node000001_Node000013" class="edge">
<title>Node1&#45;&gt;Node13</title>
<g id="a_edge14_Node000001_Node000013"><a xlink:title=" ">
<path fill="none" stroke="#63b8ff" d="M832.7,-365.89C938.69,-364.07 1129.88,-355 1288,-316 1290.17,-315.47 1292.37,-314.82 1294.57,-314.09"/>
<polygon fill="#63b8ff" stroke="#63b8ff" points="1295.84,-317.36 1303.98,-310.58 1293.39,-310.8 1295.84,-317.36"/>
</a>
</g>
</g>
<!-- Node14 -->
<g id="Node000014" class="node">
<title>Node14</title>
<g id="a_Node000014"><a xlink:href="KeyShortCutManager_8h.html" target="_top" xlink:title=" ">
<polygon fill="white" stroke="#666666" points="1096.5,-316 957.5,-316 957.5,-286 1096.5,-286 1096.5,-316"/>
<text text-anchor="start" x="965.5" y="-304" font-family="Helvetica,sans-Serif" font-size="10.00">QClipboard/KeyShortCuts</text>
<text text-anchor="middle" x="1027" y="-293" font-family="Helvetica,sans-Serif" font-size="10.00">/KeyShortCutManager.h</text>
</a>
</g>
</g>
<!-- Node1&#45;&gt;Node14 -->
<g id="edge15_Node000001_Node000014" class="edge">
<title>Node1&#45;&gt;Node14</title>
<g id="a_edge15_Node000001_Node000014"><a xlink:title=" ">
<path fill="none" stroke="#63b8ff" d="M812.35,-351.95C854.98,-342.03 912.23,-328.71 956.89,-318.32"/>
<polygon fill="#63b8ff" stroke="#63b8ff" points="957.84,-321.69 966.79,-316.01 956.26,-314.87 957.84,-321.69"/>
</a>
</g>
</g>
<!-- Node23 -->
<g id="Node000023" class="node">
<title>Node23</title>
<g id="a_Node000023"><a xlink:href="EventManager_8h.html" target="_top" xlink:title=" ">
<polygon fill="white" stroke="#666666" points="629.5,-310.5 534.5,-310.5 534.5,-291.5 629.5,-291.5 629.5,-310.5"/>
<text text-anchor="middle" x="582" y="-298.5" font-family="Helvetica,sans-Serif" font-size="10.00">EventManager.h</text>
</a>
</g>
</g>
<!-- Node1&#45;&gt;Node23 -->
<g id="edge30_Node000001_Node000023" class="edge">
<title>Node1&#45;&gt;Node23</title>
<g id="a_edge30_Node000001_Node000023"><a xlink:title=" ">
<path fill="none" stroke="#63b8ff" d="M714.69,-351.95C684.62,-340.63 642.76,-324.88 614.15,-314.1"/>
<polygon fill="#63b8ff" stroke="#63b8ff" points="615.22,-310.77 604.62,-310.52 612.75,-317.32 615.22,-310.77"/>
</a>
</g>
</g>
<!-- Node8&#45;&gt;Node6 -->
<g id="edge10_Node000008_Node000006" class="edge">
<title>Node8&#45;&gt;Node6</title>
<g id="a_edge10_Node000008_Node000006"><a xlink:title=" ">
<path fill="none" stroke="#63b8ff" d="M759.55,-225.43C761.99,-212.31 767.06,-186.51 773,-165 786.82,-114.93 807.56,-57.23 818.18,-28.59"/>
<polygon fill="#63b8ff" stroke="#63b8ff" points="821.51,-29.7 821.73,-19.11 814.95,-27.25 821.51,-29.7"/>
</a>
</g>
</g>
<!-- Node9 -->
<g id="Node000009" class="node">
<title>Node9</title>
<g id="a_Node000009"><a xlink:title=" ">
<polygon fill="#e0e0e0" stroke="#999999" points="978,-19 934,-19 934,0 978,0 978,-19"/>
<text text-anchor="middle" x="956" y="-7" font-family="Helvetica,sans-Serif" font-size="10.00">string</text>
</a>
</g>
</g>
<!-- Node8&#45;&gt;Node9 -->
<g id="edge8_Node000008_Node000009" class="edge">
<title>Node8&#45;&gt;Node9</title>
<g id="a_edge8_Node000008_Node000009"><a xlink:title=" ">
<path fill="none" stroke="#63b8ff" d="M764.27,-225.38C783.78,-198.79 845.63,-116.18 905,-55 915,-44.7 927.08,-34.09 936.96,-25.82"/>
<polygon fill="#63b8ff" stroke="#63b8ff" points="939.49,-28.27 944.99,-19.21 935.04,-22.87 939.49,-28.27"/>
</a>
</g>
</g>
<!-- Node10 -->
<g id="Node000010" class="node">
<title>Node10</title>
<g id="a_Node000010"><a xlink:title=" ">
<polygon fill="#e0e0e0" stroke="#999999" points="721,-184 609,-184 609,-165 721,-165 721,-184"/>
<text text-anchor="middle" x="665" y="-172" font-family="Helvetica,sans-Serif" font-size="10.00">RmlUi/Core/Types.h</text>
</a>
</g>
</g>
<!-- Node8&#45;&gt;Node10 -->
<g id="edge9_Node000008_Node000010" class="edge">
<title>Node8&#45;&gt;Node10</title>
<g id="a_edge9_Node000008_Node000010"><a xlink:title=" ">
<path fill="none" stroke="#63b8ff" d="M744.28,-225.37C729.3,-215.95 705.11,-200.73 687.38,-189.58"/>
<polygon fill="#63b8ff" stroke="#63b8ff" points="689.11,-186.53 678.78,-184.17 685.38,-192.45 689.11,-186.53"/>
</a>
</g>
</g>
<!-- Node11&#45;&gt;Node9 -->
<g id="edge12_Node000011_Node000009" class="edge">
<title>Node11&#45;&gt;Node9</title>
<g id="a_edge12_Node000011_Node000009"><a xlink:title=" ">
<path fill="none" stroke="#63b8ff" d="M883.9,-291.25C894.59,-271.35 919,-220.91 919,-175.5 919,-175.5 919,-175.5 919,-118.5 919,-85.12 935.02,-48.91 945.98,-28.04"/>
<polygon fill="#63b8ff" stroke="#63b8ff" points="949.13,-29.57 950.86,-19.12 942.99,-26.21 949.13,-29.57"/>
</a>
</g>
</g>
<!-- Node12 -->
<g id="Node000012" class="node">
<title>Node12</title>
<g id="a_Node000012"><a xlink:title=" ">
<polygon fill="#e0e0e0" stroke="#999999" points="891,-244.5 853,-244.5 853,-225.5 891,-225.5 891,-244.5"/>
<text text-anchor="middle" x="872" y="-232.5" font-family="Helvetica,sans-Serif" font-size="10.00">map</text>
</a>
</g>
</g>
<!-- Node11&#45;&gt;Node12 -->
<g id="edge13_Node000011_Node000012" class="edge">
<title>Node11&#45;&gt;Node12</title>
<g id="a_edge13_Node000011_Node000012"><a xlink:title=" ">
<path fill="none" stroke="#63b8ff" d="M878.06,-291.37C877.04,-282.07 875.39,-266.98 874.07,-254.9"/>
<polygon fill="#63b8ff" stroke="#63b8ff" points="877.54,-254.47 872.97,-244.91 870.58,-255.23 877.54,-254.47"/>
</a>
</g>
</g>
<!-- Node15 -->
<g id="Node000015" class="node">
<title>Node15</title>
<g id="a_Node000015"><a xlink:href="KeyShortCut_8h.html" target="_top" xlink:title=" ">
<polygon fill="white" stroke="#666666" points="1033,-74 947,-74 947,-55 1033,-55 1033,-74"/>
<text text-anchor="middle" x="990" y="-62" font-family="Helvetica,sans-Serif" font-size="10.00">KeyShortCut.h</text>
</a>
</g>
</g>
<!-- Node14&#45;&gt;Node15 -->
<g id="edge16_Node000014_Node000015" class="edge">
<title>Node14&#45;&gt;Node15</title>
<g id="a_edge16_Node000014_Node000015"><a xlink:title=" ">
<path fill="none" stroke="#63b8ff" d="M1022.2,-285.58C1012.78,-256.42 992.16,-188.18 985,-129 983.19,-114.04 984.72,-97.01 986.55,-84.36"/>
<polygon fill="#63b8ff" stroke="#63b8ff" points="990.06,-84.59 988.23,-74.15 983.16,-83.45 990.06,-84.59"/>
</a>
</g>
</g>
<!-- Node17 -->
<g id="Node000017" class="node">
<title>Node17</title>
<g id="a_Node000017"><a xlink:href="MemoryCellManager_8h.html" target="_top" xlink:title=" ">
<polygon fill="white" stroke="#666666" points="1261,-244.5 1067,-244.5 1067,-225.5 1261,-225.5 1261,-244.5"/>
<text text-anchor="middle" x="1164" y="-232.5" font-family="Helvetica,sans-Serif" font-size="10.00">MemoryCells/MemoryCellManager.h</text>
</a>
</g>
</g>
<!-- Node14&#45;&gt;Node17 -->
<g id="edge20_Node000014_Node000017" class="edge">
<title>Node14&#45;&gt;Node17</title>
<g id="a_edge20_Node000014_Node000017"><a xlink:title=" ">
<path fill="none" stroke="#63b8ff" d="M1057.07,-285.95C1080.77,-274.88 1113.56,-259.56 1136.56,-248.82"/>
<polygon fill="#63b8ff" stroke="#63b8ff" points="1138.19,-251.92 1145.77,-244.52 1135.23,-245.58 1138.19,-251.92"/>
</a>
</g>
</g>
<!-- Node15&#45;&gt;Node6 -->
<g id="edge19_Node000015_Node000006" class="edge">
<title>Node15&#45;&gt;Node6</title>
<g id="a_edge19_Node000015_Node000006"><a xlink:title=" ">
<path fill="none" stroke="#63b8ff" d="M963.49,-54.98C935.79,-46.09 892.14,-32.07 861.26,-22.15"/>
<polygon fill="#63b8ff" stroke="#63b8ff" points="862.31,-18.81 851.72,-19.08 860.17,-25.47 862.31,-18.81"/>
</a>
</g>
</g>
<!-- Node15&#45;&gt;Node9 -->
<g id="edge18_Node000015_Node000009" class="edge">
<title>Node15&#45;&gt;Node9</title>
<g id="a_edge18_Node000015_Node000009"><a xlink:title=" ">
<path fill="none" stroke="#63b8ff" d="M984.39,-54.75C979.68,-47.42 972.83,-36.73 967.03,-27.7"/>
<polygon fill="#63b8ff" stroke="#63b8ff" points="969.86,-25.62 961.51,-19.09 963.96,-29.4 969.86,-25.62"/>
</a>
</g>
</g>
<!-- Node16 -->
<g id="Node000016" class="node">
<title>Node16</title>
<g id="a_Node000016"><a xlink:title=" ">
<polygon fill="#e0e0e0" stroke="#999999" points="1046.5,-19 999.5,-19 999.5,0 1046.5,0 1046.5,-19"/>
<text text-anchor="middle" x="1023" y="-7" font-family="Helvetica,sans-Serif" font-size="10.00">vector</text>
</a>
</g>
</g>
<!-- Node15&#45;&gt;Node16 -->
<g id="edge17_Node000015_Node000016" class="edge">
<title>Node15&#45;&gt;Node16</title>
<g id="a_edge17_Node000015_Node000016"><a xlink:title=" ">
<path fill="none" stroke="#63b8ff" d="M995.45,-54.75C1000.01,-47.42 1006.67,-36.73 1012.29,-27.7"/>
<polygon fill="#63b8ff" stroke="#63b8ff" points="1015.34,-29.43 1017.65,-19.09 1009.4,-25.73 1015.34,-29.43"/>
</a>
</g>
</g>
<!-- Node17&#45;&gt;Node16 -->
<g id="edge28_Node000017_Node000016" class="edge">
<title>Node17&#45;&gt;Node16</title>
<g id="a_edge28_Node000017_Node000016"><a xlink:title=" ">
<path fill="none" stroke="#63b8ff" d="M1184.39,-225.43C1226.53,-206.47 1316.57,-158.79 1283,-110 1231.29,-34.84 1114.49,-16.42 1056.69,-11.93"/>
<polygon fill="#63b8ff" stroke="#63b8ff" points="1056.83,-8.43 1046.62,-11.25 1056.36,-15.42 1056.83,-8.43"/>
</a>
</g>
</g>
<!-- Node18 -->
<g id="Node000018" class="node">
<title>Node18</title>
<g id="a_Node000018"><a xlink:href="ClipboardInterface_8h.html" target="_top" xlink:title=" ">
<polygon fill="white" stroke="#666666" points="1110,-129 994,-129 994,-110 1110,-110 1110,-129"/>
<text text-anchor="middle" x="1052" y="-117" font-family="Helvetica,sans-Serif" font-size="10.00">ClipboardInterface.h</text>
</a>
</g>
</g>
<!-- Node17&#45;&gt;Node18 -->
<g id="edge21_Node000017_Node000018" class="edge">
<title>Node17&#45;&gt;Node18</title>
<g id="a_edge21_Node000017_Node000018"><a xlink:title=" ">
<path fill="none" stroke="#63b8ff" d="M1150.93,-225.31C1137.4,-215.98 1116.02,-200.28 1100,-184 1085.96,-169.73 1072.44,-151.28 1063.35,-137.95"/>
<polygon fill="#63b8ff" stroke="#63b8ff" points="1066.03,-135.66 1057.57,-129.28 1060.2,-139.54 1066.03,-135.66"/>
</a>
</g>
</g>
<!-- Node19 -->
<g id="Node000019" class="node">
<title>Node19</title>
<g id="a_Node000019"><a xlink:href="ClipboardAdapter_8h.html" target="_top" xlink:title=" ">
<polygon fill="white" stroke="#666666" points="1219,-184 1109,-184 1109,-165 1219,-165 1219,-184"/>
<text text-anchor="middle" x="1164" y="-172" font-family="Helvetica,sans-Serif" font-size="10.00">ClipboardAdapter.h</text>
</a>
</g>
</g>
<!-- Node17&#45;&gt;Node19 -->
<g id="edge24_Node000017_Node000019" class="edge">
<title>Node17&#45;&gt;Node19</title>
<g id="a_edge24_Node000017_Node000019"><a xlink:title=" ">
<path fill="none" stroke="#63b8ff" d="M1164,-225.37C1164,-217.25 1164,-204.81 1164,-194.39"/>
<polygon fill="#63b8ff" stroke="#63b8ff" points="1167.5,-194.17 1164,-184.17 1160.5,-194.17 1167.5,-194.17"/>
</a>
</g>
</g>
<!-- Node22 -->
<g id="Node000022" class="node">
<title>Node22</title>
<g id="a_Node000022"><a xlink:title=" ">
<polygon fill="#e0e0e0" stroke="#999999" points="1388,-184 1330,-184 1330,-165 1388,-165 1388,-184"/>
<text text-anchor="middle" x="1359" y="-172" font-family="Helvetica,sans-Serif" font-size="10.00">memory</text>
</a>
</g>
</g>
<!-- Node17&#45;&gt;Node22 -->
<g id="edge29_Node000017_Node000022" class="edge">
<title>Node17&#45;&gt;Node22</title>
<g id="a_edge29_Node000017_Node000022"><a xlink:title=" ">
<path fill="none" stroke="#63b8ff" d="M1192.35,-225.49C1226.29,-215.31 1283.26,-198.22 1320.99,-186.9"/>
<polygon fill="#63b8ff" stroke="#63b8ff" points="1322.04,-190.24 1330.61,-184.02 1320.03,-183.54 1322.04,-190.24"/>
</a>
</g>
</g>
<!-- Node18&#45;&gt;Node9 -->
<g id="edge22_Node000018_Node000009" class="edge">
<title>Node18&#45;&gt;Node9</title>
<g id="a_edge22_Node000018_Node000009"><a xlink:title=" ">
<path fill="none" stroke="#63b8ff" d="M1052.95,-109.78C1053.92,-96.62 1053.88,-71.47 1042,-55 1029,-36.97 1006.48,-25.69 987.75,-19"/>
<polygon fill="#63b8ff" stroke="#63b8ff" points="988.69,-15.63 978.09,-15.83 986.5,-22.28 988.69,-15.63"/>
</a>
</g>
</g>
<!-- Node18&#45;&gt;Node15 -->
<g id="edge23_Node000018_Node000015" class="edge">
<title>Node18&#45;&gt;Node15</title>
<g id="a_edge23_Node000018_Node000015"><a xlink:title=" ">
<path fill="none" stroke="#63b8ff" d="M1042.04,-109.98C1032.87,-102.15 1019.06,-90.34 1007.97,-80.86"/>
<polygon fill="#63b8ff" stroke="#63b8ff" points="1010.02,-78.01 1000.14,-74.17 1005.47,-83.33 1010.02,-78.01"/>
</a>
</g>
</g>
<!-- Node19&#45;&gt;Node18 -->
<g id="edge25_Node000019_Node000018" class="edge">
<title>Node19&#45;&gt;Node18</title>
<g id="a_edge25_Node000019_Node000018"><a xlink:title=" ">
<path fill="none" stroke="#63b8ff" d="M1146.01,-164.98C1128.07,-156.5 1100.28,-143.35 1079.57,-133.54"/>
<polygon fill="#63b8ff" stroke="#63b8ff" points="1080.86,-130.28 1070.32,-129.17 1077.86,-136.61 1080.86,-130.28"/>
</a>
</g>
</g>
<!-- Node20 -->
<g id="Node000020" class="node">
<title>Node20</title>
<g id="a_Node000020"><a xlink:title=" ">
<polygon fill="#e0e0e0" stroke="#999999" points="1199.5,-129 1128.5,-129 1128.5,-110 1199.5,-110 1199.5,-129"/>
<text text-anchor="middle" x="1164" y="-117" font-family="Helvetica,sans-Serif" font-size="10.00">QClipboard</text>
</a>
</g>
</g>
<!-- Node19&#45;&gt;Node20 -->
<g id="edge26_Node000019_Node000020" class="edge">
<title>Node19&#45;&gt;Node20</title>
<g id="a_edge26_Node000019_Node000020"><a xlink:title=" ">
<path fill="none" stroke="#63b8ff" d="M1164,-164.75C1164,-157.8 1164,-147.85 1164,-139.13"/>
<polygon fill="#63b8ff" stroke="#63b8ff" points="1167.5,-139.09 1164,-129.09 1160.5,-139.09 1167.5,-139.09"/>
</a>
</g>
</g>
<!-- Node21 -->
<g id="Node000021" class="node">
<title>Node21</title>
<g id="a_Node000021"><a xlink:title=" ">
<polygon fill="#e0e0e0" stroke="#999999" points="1274,-129 1218,-129 1218,-110 1274,-110 1274,-129"/>
<text text-anchor="middle" x="1246" y="-117" font-family="Helvetica,sans-Serif" font-size="10.00">QObject</text>
</a>
</g>
</g>
<!-- Node19&#45;&gt;Node21 -->
<g id="edge27_Node000019_Node000021" class="edge">
<title>Node19&#45;&gt;Node21</title>
<g id="a_edge27_Node000019_Node000021"><a xlink:title=" ">
<path fill="none" stroke="#63b8ff" d="M1177.17,-164.98C1189.77,-156.84 1209,-144.41 1223.94,-134.76"/>
<polygon fill="#63b8ff" stroke="#63b8ff" points="1226.09,-137.54 1232.59,-129.17 1222.29,-131.66 1226.09,-137.54"/>
</a>
</g>
</g>
<!-- Node23&#45;&gt;Node5 -->
<g id="edge31_Node000023_Node000005" class="edge">
<title>Node23&#45;&gt;Node5</title>
<g id="a_edge31_Node000023_Node000005"><a xlink:title=" ">
<path fill="none" stroke="#63b8ff" d="M534.28,-294.97C477.15,-288 386.13,-273.5 362,-250 347.24,-235.62 343.37,-211.49 342.63,-194.6"/>
<polygon fill="#63b8ff" stroke="#63b8ff" points="346.12,-194.23 342.51,-184.27 339.12,-194.31 346.12,-194.23"/>
</a>
</g>
</g>
<!-- Node23&#45;&gt;Node10 -->
<g id="edge33_Node000023_Node000010" class="edge">
<title>Node23&#45;&gt;Node10</title>
<g id="a_edge33_Node000023_Node000010"><a xlink:title=" ">
<path fill="none" stroke="#63b8ff" d="M613.76,-291.47C634.32,-284.13 659.49,-271.26 672,-250 682.06,-232.9 677.63,-209.68 672.41,-193.73"/>
<polygon fill="#63b8ff" stroke="#63b8ff" points="675.57,-192.2 668.84,-184.02 669,-194.61 675.57,-192.2"/>
</a>
</g>
</g>
<!-- Node24 -->
<g id="Node000024" class="node">
<title>Node24</title>
<g id="a_Node000024"><a xlink:title=" ">
<polygon fill="#e0e0e0" stroke="#999999" points="483,-244.5 371,-244.5 371,-225.5 483,-225.5 483,-244.5"/>
<text text-anchor="middle" x="427" y="-232.5" font-family="Helvetica,sans-Serif" font-size="10.00">RmlUi/Core/Event.h</text>
</a>
</g>
</g>
<!-- Node23&#45;&gt;Node24 -->
<g id="edge32_Node000023_Node000024" class="edge">
<title>Node23&#45;&gt;Node24</title>
<g id="a_edge32_Node000023_Node000024"><a xlink:title=" ">
<path fill="none" stroke="#63b8ff" d="M561.1,-291.37C534.4,-280.35 488.01,-261.19 457.41,-248.55"/>
<polygon fill="#63b8ff" stroke="#63b8ff" points="458.65,-245.28 448.07,-244.7 455.98,-251.75 458.65,-245.28"/>
</a>
</g>
</g>
<!-- Node25 -->
<g id="Node000025" class="node">
<title>Node25</title>
<g id="a_Node000025"><a xlink:href="Clipboard_09_09Event_8h.html" target="_top" xlink:title=" ">
<polygon fill="white" stroke="#666666" points="663,-250 501,-250 501,-220 663,-220 663,-250"/>
<text text-anchor="start" x="509" y="-238" font-family="Helvetica,sans-Serif" font-size="10.00">Clipboard++Events/Clipboard</text>
<text text-anchor="middle" x="582" y="-227" font-family="Helvetica,sans-Serif" font-size="10.00">++Event.h</text>
</a>
</g>
</g>
<!-- Node23&#45;&gt;Node25 -->
<g id="edge34_Node000023_Node000025" class="edge">
<title>Node23&#45;&gt;Node25</title>
<g id="a_edge34_Node000023_Node000025"><a xlink:title=" ">
<path fill="none" stroke="#63b8ff" d="M582,-291.37C582,-283.49 582,-271.45 582,-260.6"/>
<polygon fill="#63b8ff" stroke="#63b8ff" points="585.5,-260.36 582,-250.36 578.5,-260.36 585.5,-260.36"/>
</a>
</g>
</g>
<!-- Node25&#45;&gt;Node5 -->
<g id="edge36_Node000025_Node000005" class="edge">
<title>Node25&#45;&gt;Node5</title>
<g id="a_edge36_Node000025_Node000005"><a xlink:title=" ">
<path fill="none" stroke="#63b8ff" d="M524.75,-219.99C482.79,-209.72 426.62,-195.97 387.89,-186.49"/>
<polygon fill="#63b8ff" stroke="#63b8ff" points="388.49,-183.03 377.95,-184.05 386.83,-189.83 388.49,-183.03"/>
</a>
</g>
</g>
<!-- Node25&#45;&gt;Node10 -->
<g id="edge35_Node000025_Node000010" class="edge">
<title>Node25&#45;&gt;Node10</title>
<g id="a_edge35_Node000025_Node000010"><a xlink:title=" ">
<path fill="none" stroke="#63b8ff" d="M602.09,-219.84C614.88,-210.83 631.4,-199.18 644.3,-190.09"/>
<polygon fill="#63b8ff" stroke="#63b8ff" points="646.41,-192.89 652.56,-184.27 642.37,-187.17 646.41,-192.89"/>
</a>
</g>
</g>
</g>
</svg>
