<?xml version="1.0" encoding="UTF-8" standalone="no"?>
<!DOCTYPE svg PUBLIC "-//W3C//DTD SVG 1.1//EN"
 "http://www.w3.org/Graphics/SVG/1.1/DTD/svg11.dtd">
<!-- Generated by graphviz version 2.43.0 (0)
 -->
<!-- Title: Clipboard++/RmlUI/Elements/ElementShortCuts.h Pages: 1 -->
<svg width="555pt" height="368pt"
 viewBox="0.00 0.00 554.50 368.00" xmlns="http://www.w3.org/2000/svg" xmlns:xlink="http://www.w3.org/1999/xlink">
<g id="graph0" class="graph" transform="scale(1 1) rotate(0) translate(4 364)">
<title>Clipboard++/RmlUI/Elements/ElementShortCuts.h</title>
<!-- Node1 -->
<g id="Node000001" class="node">
<title>Node1</title>
<g id="a_Node000001"><a xlink:title=" ">
<polygon fill="#999999" stroke="#666666" points="377,-360 216,-360 216,-330 377,-330 377,-360"/>
<text text-anchor="start" x="224" y="-348" font-family="Helvetica,sans-Serif" font-size="10.00">Clipboard++/RmlUI/Elements</text>
<text text-anchor="middle" x="296.5" y="-337" font-family="Helvetica,sans-Serif" font-size="10.00">/ElementShortCuts.h</text>
</a>
</g>
</g>
<!-- Node2 -->
<g id="Node000002" class="node">
<title>Node2</title>
<g id="a_Node000002"><a xlink:title=" ">
<polygon fill="#e0e0e0" stroke="#999999" points="125,-294 0,-294 0,-275 125,-275 125,-294"/>
<text text-anchor="middle" x="62.5" y="-282" font-family="Helvetica,sans-Serif" font-size="10.00">RmlUi/Core/Element.h</text>
</a>
</g>
</g>
<!-- Node1&#45;&gt;Node2 -->
<g id="edge1_Node000001_Node000002" class="edge">
<title>Node1&#45;&gt;Node2</title>
<g id="a_edge1_Node000001_Node000002"><a xlink:title=" ">
<path fill="none" stroke="#63b8ff" d="M240.45,-329.99C199.37,-319.72 144.38,-305.97 106.45,-296.49"/>
<polygon fill="#63b8ff" stroke="#63b8ff" points="107.26,-293.08 96.71,-294.05 105.57,-299.87 107.26,-293.08"/>
</a>
</g>
</g>
<!-- Node3 -->
<g id="Node000003" class="node">
<title>Node3</title>
<g id="a_Node000003"><a xlink:title=" ">
<polygon fill="#e0e0e0" stroke="#999999" points="293.5,-294 143.5,-294 143.5,-275 293.5,-275 293.5,-294"/>
<text text-anchor="middle" x="218.5" y="-282" font-family="Helvetica,sans-Serif" font-size="10.00">RmlUi/Core/EventListener.h</text>
</a>
</g>
</g>
<!-- Node1&#45;&gt;Node3 -->
<g id="edge2_Node000001_Node000003" class="edge">
<title>Node1&#45;&gt;Node3</title>
<g id="a_edge2_Node000001_Node000003"><a xlink:title=" ">
<path fill="none" stroke="#63b8ff" d="M277.62,-329.84C265.72,-320.91 250.38,-309.41 238.3,-300.35"/>
<polygon fill="#63b8ff" stroke="#63b8ff" points="240.29,-297.47 230.19,-294.27 236.09,-303.07 240.29,-297.47"/>
</a>
</g>
</g>
<!-- Node4 -->
<g id="Node000004" class="node">
<title>Node4</title>
<g id="a_Node000004"><a xlink:href="ShortCutsViewModel_8h.html" target="_top" xlink:title=" ">
<polygon fill="white" stroke="#666666" points="439,-294 312,-294 312,-275 439,-275 439,-294"/>
<text text-anchor="middle" x="375.5" y="-282" font-family="Helvetica,sans-Serif" font-size="10.00">ShortCutsViewModel.h</text>
</a>
</g>
</g>
<!-- Node1&#45;&gt;Node4 -->
<g id="edge3_Node000001_Node000004" class="edge">
<title>Node1&#45;&gt;Node4</title>
<g id="a_edge3_Node000001_Node000004"><a xlink:title=" ">
<path fill="none" stroke="#63b8ff" d="M315.62,-329.84C327.68,-320.91 343.21,-309.41 355.44,-300.35"/>
<polygon fill="#63b8ff" stroke="#63b8ff" points="357.71,-303.03 363.66,-294.27 353.54,-297.4 357.71,-303.03"/>
</a>
</g>
</g>
<!-- Node14 -->
<g id="Node000014" class="node">
<title>Node14</title>
<g id="a_Node000014"><a xlink:title=" ">
<polygon fill="#e0e0e0" stroke="#999999" points="546.5,-184 488.5,-184 488.5,-165 546.5,-165 546.5,-184"/>
<text text-anchor="middle" x="517.5" y="-172" font-family="Helvetica,sans-Serif" font-size="10.00">memory</text>
</a>
</g>
</g>
<!-- Node1&#45;&gt;Node14 -->
<g id="edge19_Node000001_Node000014" class="edge">
<title>Node1&#45;&gt;Node14</title>
<g id="a_edge19_Node000001_Node000014"><a xlink:title=" ">
<path fill="none" stroke="#63b8ff" d="M373.59,-329.9C399.09,-322.41 426.32,-311.07 447.5,-294 480.87,-267.1 501.84,-219.72 511.41,-193.76"/>
<polygon fill="#63b8ff" stroke="#63b8ff" points="514.8,-194.67 514.81,-184.07 508.2,-192.35 514.8,-194.67"/>
</a>
</g>
</g>
<!-- Node5 -->
<g id="Node000005" class="node">
<title>Node5</title>
<g id="a_Node000005"><a xlink:href="ClipboardInterface_8h.html" target="_top" xlink:title=" ">
<polygon fill="white" stroke="#666666" points="230.5,-129 114.5,-129 114.5,-110 230.5,-110 230.5,-129"/>
<text text-anchor="middle" x="172.5" y="-117" font-family="Helvetica,sans-Serif" font-size="10.00">ClipboardInterface.h</text>
</a>
</g>
</g>
<!-- Node4&#45;&gt;Node5 -->
<g id="edge4_Node000004_Node000005" class="edge">
<title>Node4&#45;&gt;Node5</title>
<g id="a_edge4_Node000004_Node000005"><a xlink:title=" ">
<path fill="none" stroke="#63b8ff" d="M311.73,-275.77C283.89,-269.65 252.43,-258.67 229.5,-239 198.56,-212.45 183.05,-165.28 176.5,-139.18"/>
<polygon fill="#63b8ff" stroke="#63b8ff" points="179.83,-138.05 174.16,-129.11 173.01,-139.64 179.83,-138.05"/>
</a>
</g>
</g>
<!-- Node8 -->
<g id="Node000008" class="node">
<title>Node8</title>
<g id="a_Node000008"><a xlink:title=" ">
<polygon fill="#e0e0e0" stroke="#999999" points="446,-19 399,-19 399,0 446,0 446,-19"/>
<text text-anchor="middle" x="422.5" y="-7" font-family="Helvetica,sans-Serif" font-size="10.00">vector</text>
</a>
</g>
</g>
<!-- Node4&#45;&gt;Node8 -->
<g id="edge18_Node000004_Node000008" class="edge">
<title>Node4&#45;&gt;Node8</title>
<g id="a_edge18_Node000004_Node000008"><a xlink:title=" ">
<path fill="none" stroke="#63b8ff" d="M394.96,-274.92C409.76,-267.44 429.55,-255.25 441.5,-239 458.95,-215.27 460.5,-204.96 460.5,-175.5 460.5,-175.5 460.5,-175.5 460.5,-118.5 460.5,-85.02 444.05,-48.84 432.8,-28.01"/>
<polygon fill="#63b8ff" stroke="#63b8ff" points="435.74,-26.1 427.78,-19.1 429.63,-29.53 435.74,-26.1"/>
</a>
</g>
</g>
<!-- Node10 -->
<g id="Node000010" class="node">
<title>Node10</title>
<g id="a_Node000010"><a xlink:href="MemoryCellManager_8h.html" target="_top" xlink:title=" ">
<polygon fill="white" stroke="#666666" points="432.5,-239 238.5,-239 238.5,-220 432.5,-220 432.5,-239"/>
<text text-anchor="middle" x="335.5" y="-227" font-family="Helvetica,sans-Serif" font-size="10.00">MemoryCells/MemoryCellManager.h</text>
</a>
</g>
</g>
<!-- Node4&#45;&gt;Node10 -->
<g id="edge10_Node000004_Node000010" class="edge">
<title>Node4&#45;&gt;Node10</title>
<g id="a_edge10_Node000004_Node000010"><a xlink:title=" ">
<path fill="none" stroke="#63b8ff" d="M368.89,-274.75C363.24,-267.26 354.96,-256.28 348.05,-247.13"/>
<polygon fill="#63b8ff" stroke="#63b8ff" points="350.8,-244.96 341.98,-239.09 345.21,-249.18 350.8,-244.96"/>
</a>
</g>
</g>
<!-- Node6 -->
<g id="Node000006" class="node">
<title>Node6</title>
<g id="a_Node000006"><a xlink:title=" ">
<polygon fill="#e0e0e0" stroke="#999999" points="199.5,-19 155.5,-19 155.5,0 199.5,0 199.5,-19"/>
<text text-anchor="middle" x="177.5" y="-7" font-family="Helvetica,sans-Serif" font-size="10.00">string</text>
</a>
</g>
</g>
<!-- Node5&#45;&gt;Node6 -->
<g id="edge5_Node000005_Node000006" class="edge">
<title>Node5&#45;&gt;Node6</title>
<g id="a_edge5_Node000005_Node000006"><a xlink:title=" ">
<path fill="none" stroke="#63b8ff" d="M172.91,-109.66C173.72,-92.17 175.54,-52.8 176.63,-29.27"/>
<polygon fill="#63b8ff" stroke="#63b8ff" points="180.13,-29.31 177.1,-19.16 173.14,-28.99 180.13,-29.31"/>
</a>
</g>
</g>
<!-- Node7 -->
<g id="Node000007" class="node">
<title>Node7</title>
<g id="a_Node000007"><a xlink:href="KeyShortCut_8h.html" target="_top" xlink:title=" ">
<polygon fill="white" stroke="#666666" points="354.5,-74 200.5,-74 200.5,-55 354.5,-55 354.5,-74"/>
<text text-anchor="middle" x="277.5" y="-62" font-family="Helvetica,sans-Serif" font-size="10.00">KeyShortCuts/KeyShortCut.h</text>
</a>
</g>
</g>
<!-- Node5&#45;&gt;Node7 -->
<g id="edge6_Node000005_Node000007" class="edge">
<title>Node5&#45;&gt;Node7</title>
<g id="a_edge6_Node000005_Node000007"><a xlink:title=" ">
<path fill="none" stroke="#63b8ff" d="M189.37,-109.98C206.11,-101.54 232,-88.47 251.39,-78.68"/>
<polygon fill="#63b8ff" stroke="#63b8ff" points="252.97,-81.8 260.32,-74.17 249.82,-75.55 252.97,-81.8"/>
</a>
</g>
</g>
<!-- Node7&#45;&gt;Node6 -->
<g id="edge8_Node000007_Node000006" class="edge">
<title>Node7&#45;&gt;Node6</title>
<g id="a_edge8_Node000007_Node000006"><a xlink:title=" ">
<path fill="none" stroke="#63b8ff" d="M261.43,-54.98C245.64,-46.61 221.28,-33.7 202.87,-23.95"/>
<polygon fill="#63b8ff" stroke="#63b8ff" points="204.33,-20.76 193.86,-19.17 201.06,-26.95 204.33,-20.76"/>
</a>
</g>
</g>
<!-- Node7&#45;&gt;Node8 -->
<g id="edge7_Node000007_Node000008" class="edge">
<title>Node7&#45;&gt;Node8</title>
<g id="a_edge7_Node000007_Node000008"><a xlink:title=" ">
<path fill="none" stroke="#63b8ff" d="M300.8,-54.98C324.75,-46.23 362.28,-32.51 389.33,-22.62"/>
<polygon fill="#63b8ff" stroke="#63b8ff" points="390.59,-25.89 398.78,-19.17 388.19,-19.32 390.59,-25.89"/>
</a>
</g>
</g>
<!-- Node9 -->
<g id="Node000009" class="node">
<title>Node9</title>
<g id="a_Node000009"><a xlink:title=" ">
<polygon fill="#e0e0e0" stroke="#999999" points="332,-19 223,-19 223,0 332,0 332,-19"/>
<text text-anchor="middle" x="277.5" y="-7" font-family="Helvetica,sans-Serif" font-size="10.00">RmlUi/Core/Input.h</text>
</a>
</g>
</g>
<!-- Node7&#45;&gt;Node9 -->
<g id="edge9_Node000007_Node000009" class="edge">
<title>Node7&#45;&gt;Node9</title>
<g id="a_edge9_Node000007_Node000009"><a xlink:title=" ">
<path fill="none" stroke="#63b8ff" d="M277.5,-54.75C277.5,-47.8 277.5,-37.85 277.5,-29.13"/>
<polygon fill="#63b8ff" stroke="#63b8ff" points="281,-29.09 277.5,-19.09 274,-29.09 281,-29.09"/>
</a>
</g>
</g>
<!-- Node10&#45;&gt;Node5 -->
<g id="edge11_Node000010_Node000005" class="edge">
<title>Node10&#45;&gt;Node5</title>
<g id="a_edge11_Node000010_Node000005"><a xlink:title=" ">
<path fill="none" stroke="#63b8ff" d="M320.03,-219.86C304.69,-211.17 280.63,-197.2 260.5,-184 236.35,-168.17 209.57,-148.53 191.97,-135.32"/>
<polygon fill="#63b8ff" stroke="#63b8ff" points="193.75,-132.28 183.66,-129.05 189.54,-137.87 193.75,-132.28"/>
</a>
</g>
</g>
<!-- Node10&#45;&gt;Node8 -->
<g id="edge16_Node000010_Node000008" class="edge">
<title>Node10&#45;&gt;Node8</title>
<g id="a_edge16_Node000010_Node000008"><a xlink:title=" ">
<path fill="none" stroke="#63b8ff" d="M350.31,-219.78C362.37,-211.92 378.91,-199.26 388.5,-184 419.46,-134.71 423.21,-63.23 423.07,-29.49"/>
<polygon fill="#63b8ff" stroke="#63b8ff" points="426.57,-29.17 422.9,-19.23 419.57,-29.29 426.57,-29.17"/>
</a>
</g>
</g>
<!-- Node11 -->
<g id="Node000011" class="node">
<title>Node11</title>
<g id="a_Node000011"><a xlink:href="ClipboardAdapter_8h.html" target="_top" xlink:title=" ">
<polygon fill="white" stroke="#666666" points="379.5,-184 269.5,-184 269.5,-165 379.5,-165 379.5,-184"/>
<text text-anchor="middle" x="324.5" y="-172" font-family="Helvetica,sans-Serif" font-size="10.00">ClipboardAdapter.h</text>
</a>
</g>
</g>
<!-- Node10&#45;&gt;Node11 -->
<g id="edge12_Node000010_Node000011" class="edge">
<title>Node10&#45;&gt;Node11</title>
<g id="a_edge12_Node000010_Node000011"><a xlink:title=" ">
<path fill="none" stroke="#63b8ff" d="M333.68,-219.75C332.24,-212.8 330.18,-202.85 328.37,-194.13"/>
<polygon fill="#63b8ff" stroke="#63b8ff" points="331.74,-193.17 326.28,-184.09 324.89,-194.59 331.74,-193.17"/>
</a>
</g>
</g>
<!-- Node10&#45;&gt;Node14 -->
<g id="edge17_Node000010_Node000014" class="edge">
<title>Node10&#45;&gt;Node14</title>
<g id="a_edge17_Node000010_Node000014"><a xlink:title=" ">
<path fill="none" stroke="#63b8ff" d="M364.74,-219.98C395.65,-210.98 444.57,-196.74 478.69,-186.8"/>
<polygon fill="#63b8ff" stroke="#63b8ff" points="479.71,-190.15 488.33,-183.99 477.75,-183.43 479.71,-190.15"/>
</a>
</g>
</g>
<!-- Node11&#45;&gt;Node5 -->
<g id="edge13_Node000011_Node000005" class="edge">
<title>Node11&#45;&gt;Node5</title>
<g id="a_edge13_Node000011_Node000005"><a xlink:title=" ">
<path fill="none" stroke="#63b8ff" d="M300.08,-164.98C274.78,-156.16 235.05,-142.31 206.64,-132.41"/>
<polygon fill="#63b8ff" stroke="#63b8ff" points="207.71,-129.07 197.11,-129.08 205.4,-135.68 207.71,-129.07"/>
</a>
</g>
</g>
<!-- Node12 -->
<g id="Node000012" class="node">
<title>Node12</title>
<g id="a_Node000012"><a xlink:title=" ">
<polygon fill="#e0e0e0" stroke="#999999" points="394,-129 323,-129 323,-110 394,-110 394,-129"/>
<text text-anchor="middle" x="358.5" y="-117" font-family="Helvetica,sans-Serif" font-size="10.00">QClipboard</text>
</a>
</g>
</g>
<!-- Node11&#45;&gt;Node12 -->
<g id="edge14_Node000011_Node000012" class="edge">
<title>Node11&#45;&gt;Node12</title>
<g id="a_edge14_Node000011_Node000012"><a xlink:title=" ">
<path fill="none" stroke="#63b8ff" d="M330.11,-164.75C334.82,-157.42 341.67,-146.73 347.47,-137.7"/>
<polygon fill="#63b8ff" stroke="#63b8ff" points="350.54,-139.4 352.99,-129.09 344.64,-135.62 350.54,-139.4"/>
</a>
</g>
</g>
<!-- Node13 -->
<g id="Node000013" class="node">
<title>Node13</title>
<g id="a_Node000013"><a xlink:title=" ">
<polygon fill="#e0e0e0" stroke="#999999" points="304.5,-129 248.5,-129 248.5,-110 304.5,-110 304.5,-129"/>
<text text-anchor="middle" x="276.5" y="-117" font-family="Helvetica,sans-Serif" font-size="10.00">QObject</text>
</a>
</g>
</g>
<!-- Node11&#45;&gt;Node13 -->
<g id="edge15_Node000011_Node000013" class="edge">
<title>Node11&#45;&gt;Node13</title>
<g id="a_edge15_Node000011_Node000013"><a xlink:title=" ">
<path fill="none" stroke="#63b8ff" d="M316.57,-164.75C309.65,-157.11 299.43,-145.82 291.05,-136.56"/>
<polygon fill="#63b8ff" stroke="#63b8ff" points="293.59,-134.15 284.28,-129.09 288.4,-138.85 293.59,-134.15"/>
</a>
</g>
</g>
</g>
</svg>
