<?xml version="1.0" encoding="UTF-8" standalone="no"?>
<!DOCTYPE svg PUBLIC "-//W3C//DTD SVG 1.1//EN"
 "http://www.w3.org/Graphics/SVG/1.1/DTD/svg11.dtd">
<!-- Generated by graphviz version 2.43.0 (0)
 -->
<!-- Title: Clipboard++/RmlUI/Elements/ElementEdit.cpp Pages: 1 -->
<svg width="1501pt" height="269pt"
 viewBox="0.00 0.00 1500.50 269.00" xmlns="http://www.w3.org/2000/svg" xmlns:xlink="http://www.w3.org/1999/xlink">
<g id="graph0" class="graph" transform="scale(1 1) rotate(0) translate(4 265)">
<title>Clipboard++/RmlUI/Elements/ElementEdit.cpp</title>
<!-- Node1 -->
<g id="Node000001" class="node">
<title>Node1</title>
<g id="a_Node000001"><a xlink:title=" ">
<polygon fill="#999999" stroke="#666666" points="1033.5,-261 872.5,-261 872.5,-231 1033.5,-231 1033.5,-261"/>
<text text-anchor="start" x="880.5" y="-249" font-family="Helvetica,sans-Serif" font-size="10.00">Clipboard++/RmlUI/Elements</text>
<text text-anchor="middle" x="953" y="-238" font-family="Helvetica,sans-Serif" font-size="10.00">/ElementEdit.cpp</text>
</a>
</g>
</g>
<!-- Node2 -->
<g id="Node000002" class="node">
<title>Node2</title>
<g id="a_Node000002"><a xlink:href="ElementEdit_8h.html" target="_top" xlink:title=" ">
<polygon fill="white" stroke="#666666" points="337.5,-195 252.5,-195 252.5,-176 337.5,-176 337.5,-195"/>
<text text-anchor="middle" x="295" y="-183" font-family="Helvetica,sans-Serif" font-size="10.00">ElementEdit.h</text>
</a>
</g>
</g>
<!-- Node1&#45;&gt;Node2 -->
<g id="edge1_Node000001_Node000002" class="edge">
<title>Node1&#45;&gt;Node2</title>
<g id="a_edge1_Node000001_Node000002"><a xlink:title=" ">
<path fill="none" stroke="#63b8ff" d="M872.32,-237.83C735.87,-225.7 463.21,-201.45 348.16,-191.23"/>
<polygon fill="#63b8ff" stroke="#63b8ff" points="348.13,-187.71 337.86,-190.31 347.51,-194.68 348.13,-187.71"/>
</a>
</g>
</g>
<!-- Node9 -->
<g id="Node000009" class="node">
<title>Node9</title>
<g id="a_Node000009"><a xlink:title=" ">
<polygon fill="#e0e0e0" stroke="#999999" points="595.5,-19 486.5,-19 486.5,0 595.5,0 595.5,-19"/>
<text text-anchor="middle" x="541" y="-7" font-family="Helvetica,sans-Serif" font-size="10.00">RmlUi/Core/Input.h</text>
</a>
</g>
</g>
<!-- Node1&#45;&gt;Node9 -->
<g id="edge15_Node000001_Node000009" class="edge">
<title>Node1&#45;&gt;Node9</title>
<g id="a_edge15_Node000001_Node000009"><a xlink:title=" ">
<path fill="none" stroke="#63b8ff" d="M872.2,-243.08C783.99,-239.3 650.32,-228.12 613,-195 564.78,-152.2 603.55,-112.81 575,-55 570,-44.89 562.55,-34.8 555.9,-26.79"/>
<polygon fill="#63b8ff" stroke="#63b8ff" points="558.34,-24.27 549.14,-19.02 553.06,-28.86 558.34,-24.27"/>
</a>
</g>
</g>
<!-- Node11 -->
<g id="Node000011" class="node">
<title>Node11</title>
<g id="a_Node000011"><a xlink:title=" ">
<polygon fill="#e0e0e0" stroke="#999999" points="744,-195 622,-195 622,-176 744,-176 744,-195"/>
<text text-anchor="middle" x="683" y="-183" font-family="Helvetica,sans-Serif" font-size="10.00">RmlUi/Core/Context.h</text>
</a>
</g>
</g>
<!-- Node1&#45;&gt;Node11 -->
<g id="edge12_Node000001_Node000011" class="edge">
<title>Node1&#45;&gt;Node11</title>
<g id="a_edge12_Node000001_Node000011"><a xlink:title=" ">
<path fill="none" stroke="#63b8ff" d="M888.33,-230.99C840.42,-220.61 776.12,-206.68 732.32,-197.19"/>
<polygon fill="#63b8ff" stroke="#63b8ff" points="732.99,-193.75 722.48,-195.05 731.51,-200.59 732.99,-193.75"/>
</a>
</g>
</g>
<!-- Node12 -->
<g id="Node000012" class="node">
<title>Node12</title>
<g id="a_Node000012"><a xlink:title=" ">
<polygon fill="#e0e0e0" stroke="#999999" points="869.5,-195 762.5,-195 762.5,-176 869.5,-176 869.5,-195"/>
<text text-anchor="middle" x="816" y="-183" font-family="Helvetica,sans-Serif" font-size="10.00">RmlUi/Core/Core.h</text>
</a>
</g>
</g>
<!-- Node1&#45;&gt;Node12 -->
<g id="edge13_Node000001_Node000012" class="edge">
<title>Node1&#45;&gt;Node12</title>
<g id="a_edge13_Node000001_Node000012"><a xlink:title=" ">
<path fill="none" stroke="#63b8ff" d="M920.19,-230.99C897.53,-221.31 867.65,-208.56 845.7,-199.18"/>
<polygon fill="#63b8ff" stroke="#63b8ff" points="846.8,-195.85 836.23,-195.14 844.05,-202.29 846.8,-195.85"/>
</a>
</g>
</g>
<!-- Node13 -->
<g id="Node000013" class="node">
<title>Node13</title>
<g id="a_Node000013"><a xlink:title=" ">
<polygon fill="#e0e0e0" stroke="#999999" points="1492.5,-74 1317.5,-74 1317.5,-55 1492.5,-55 1492.5,-74"/>
<text text-anchor="middle" x="1405" y="-62" font-family="Helvetica,sans-Serif" font-size="10.00">RmlUi/Core/ElementDocument.h</text>
</a>
</g>
</g>
<!-- Node1&#45;&gt;Node13 -->
<g id="edge14_Node000001_Node000013" class="edge">
<title>Node1&#45;&gt;Node13</title>
<g id="a_edge14_Node000001_Node000013"><a xlink:title=" ">
<path fill="none" stroke="#63b8ff" d="M1033.74,-242.12C1160.56,-236.76 1394.71,-223.14 1420,-195 1447.77,-164.1 1428.01,-110.94 1414.6,-83.32"/>
<polygon fill="#63b8ff" stroke="#63b8ff" points="1417.55,-81.4 1409.88,-74.09 1411.31,-84.58 1417.55,-81.4"/>
</a>
</g>
</g>
<!-- Node14 -->
<g id="Node000014" class="node">
<title>Node14</title>
<g id="a_Node000014"><a xlink:title=" ">
<polygon fill="#e0e0e0" stroke="#999999" points="1090,-195 926,-195 926,-176 1090,-176 1090,-195"/>
<text text-anchor="middle" x="1008" y="-183" font-family="Helvetica,sans-Serif" font-size="10.00">RmlUi/Core/SystemInterface.h</text>
</a>
</g>
</g>
<!-- Node1&#45;&gt;Node14 -->
<g id="edge16_Node000001_Node000014" class="edge">
<title>Node1&#45;&gt;Node14</title>
<g id="a_edge16_Node000001_Node000014"><a xlink:title=" ">
<path fill="none" stroke="#63b8ff" d="M966.31,-230.84C974.3,-222.35 984.48,-211.52 992.78,-202.69"/>
<polygon fill="#63b8ff" stroke="#63b8ff" points="995.46,-204.95 999.76,-195.27 990.36,-200.15 995.46,-204.95"/>
</a>
</g>
</g>
<!-- Node15 -->
<g id="Node000015" class="node">
<title>Node15</title>
<g id="a_Node000015"><a xlink:href="StringUtils_8h.html" target="_top" xlink:title=" ">
<polygon fill="white" stroke="#666666" points="934.5,-134.5 857.5,-134.5 857.5,-115.5 934.5,-115.5 934.5,-134.5"/>
<text text-anchor="middle" x="896" y="-122.5" font-family="Helvetica,sans-Serif" font-size="10.00">StringUtils.h</text>
</a>
</g>
</g>
<!-- Node1&#45;&gt;Node15 -->
<g id="edge17_Node000001_Node000015" class="edge">
<title>Node1&#45;&gt;Node15</title>
<g id="a_edge17_Node000001_Node000015"><a xlink:title=" ">
<path fill="none" stroke="#63b8ff" d="M940.94,-230.93C933.21,-221.33 923.45,-208.04 917,-195 909.02,-178.88 903.39,-159.14 899.98,-144.9"/>
<polygon fill="#63b8ff" stroke="#63b8ff" points="903.32,-143.83 897.71,-134.84 896.49,-145.37 903.32,-143.83"/>
</a>
</g>
</g>
<!-- Node17 -->
<g id="Node000017" class="node">
<title>Node17</title>
<g id="a_Node000017"><a xlink:href="TranslationManager_8h.html" target="_top" xlink:title=" ">
<polygon fill="white" stroke="#666666" points="1229.5,-195 1108.5,-195 1108.5,-176 1229.5,-176 1229.5,-195"/>
<text text-anchor="middle" x="1169" y="-183" font-family="Helvetica,sans-Serif" font-size="10.00">TranslationManager.h</text>
</a>
</g>
</g>
<!-- Node1&#45;&gt;Node17 -->
<g id="edge21_Node000001_Node000017" class="edge">
<title>Node1&#45;&gt;Node17</title>
<g id="a_edge21_Node000001_Node000017"><a xlink:title=" ">
<path fill="none" stroke="#63b8ff" d="M1004.74,-230.99C1042.34,-220.8 1092.56,-207.2 1127.53,-197.73"/>
<polygon fill="#63b8ff" stroke="#63b8ff" points="1128.68,-201.05 1137.42,-195.05 1126.85,-194.29 1128.68,-201.05"/>
</a>
</g>
</g>
<!-- Node19 -->
<g id="Node000019" class="node">
<title>Node19</title>
<g id="a_Node000019"><a xlink:title=" ">
<polygon fill="#e0e0e0" stroke="#999999" points="1411,-195 1361,-195 1361,-176 1411,-176 1411,-195"/>
<text text-anchor="middle" x="1386" y="-183" font-family="Helvetica,sans-Serif" font-size="10.00">format</text>
</a>
</g>
</g>
<!-- Node1&#45;&gt;Node19 -->
<g id="edge24_Node000001_Node000019" class="edge">
<title>Node1&#45;&gt;Node19</title>
<g id="a_edge24_Node000001_Node000019"><a xlink:title=" ">
<path fill="none" stroke="#63b8ff" d="M1033.68,-237.77C1112.3,-230.06 1235.34,-216.27 1350.75,-195.03"/>
<polygon fill="#63b8ff" stroke="#63b8ff" points="1351.63,-198.43 1360.82,-193.15 1350.35,-191.54 1351.63,-198.43"/>
</a>
</g>
</g>
<!-- Node20 -->
<g id="Node000020" class="node">
<title>Node20</title>
<g id="a_Node000020"><a xlink:href="EventManager_8h.html" target="_top" xlink:title=" ">
<polygon fill="white" stroke="#666666" points="1342.5,-195 1247.5,-195 1247.5,-176 1342.5,-176 1342.5,-195"/>
<text text-anchor="middle" x="1295" y="-183" font-family="Helvetica,sans-Serif" font-size="10.00">EventManager.h</text>
</a>
</g>
</g>
<!-- Node1&#45;&gt;Node20 -->
<g id="edge25_Node000001_Node000020" class="edge">
<title>Node1&#45;&gt;Node20</title>
<g id="a_edge25_Node000001_Node000020"><a xlink:title=" ">
<path fill="none" stroke="#63b8ff" d="M1033.62,-231.21C1096.08,-220.53 1181.13,-205.98 1237.01,-196.42"/>
<polygon fill="#63b8ff" stroke="#63b8ff" points="1237.83,-199.83 1247.1,-194.69 1236.65,-192.93 1237.83,-199.83"/>
</a>
</g>
</g>
<!-- Node3 -->
<g id="Node000003" class="node">
<title>Node3</title>
<g id="a_Node000003"><a xlink:title=" ">
<polygon fill="#e0e0e0" stroke="#999999" points="201.5,-134.5 76.5,-134.5 76.5,-115.5 201.5,-115.5 201.5,-134.5"/>
<text text-anchor="middle" x="139" y="-122.5" font-family="Helvetica,sans-Serif" font-size="10.00">RmlUi/Core/Element.h</text>
</a>
</g>
</g>
<!-- Node2&#45;&gt;Node3 -->
<g id="edge2_Node000002_Node000003" class="edge">
<title>Node2&#45;&gt;Node3</title>
<g id="a_edge2_Node000002_Node000003"><a xlink:title=" ">
<path fill="none" stroke="#63b8ff" d="M272.32,-175.99C245.74,-166.03 201.52,-149.45 171.36,-138.13"/>
<polygon fill="#63b8ff" stroke="#63b8ff" points="172.3,-134.75 161.71,-134.52 169.85,-141.31 172.3,-134.75"/>
</a>
</g>
</g>
<!-- Node4 -->
<g id="Node000004" class="node">
<title>Node4</title>
<g id="a_Node000004"><a xlink:title=" ">
<polygon fill="#e0e0e0" stroke="#999999" points="370,-134.5 220,-134.5 220,-115.5 370,-115.5 370,-134.5"/>
<text text-anchor="middle" x="295" y="-122.5" font-family="Helvetica,sans-Serif" font-size="10.00">RmlUi/Core/EventListener.h</text>
</a>
</g>
</g>
<!-- Node2&#45;&gt;Node4 -->
<g id="edge3_Node000002_Node000004" class="edge">
<title>Node2&#45;&gt;Node4</title>
<g id="a_edge3_Node000002_Node000004"><a xlink:title=" ">
<path fill="none" stroke="#63b8ff" d="M295,-175.87C295,-167.75 295,-155.31 295,-144.89"/>
<polygon fill="#63b8ff" stroke="#63b8ff" points="298.5,-144.67 295,-134.67 291.5,-144.67 298.5,-144.67"/>
</a>
</g>
</g>
<!-- Node5 -->
<g id="Node000005" class="node">
<title>Node5</title>
<g id="a_Node000005"><a xlink:href="EditViewModel_8h.html" target="_top" xlink:title=" ">
<polygon fill="white" stroke="#666666" points="486,-134.5 388,-134.5 388,-115.5 486,-115.5 486,-134.5"/>
<text text-anchor="middle" x="437" y="-122.5" font-family="Helvetica,sans-Serif" font-size="10.00">EditViewModel.h</text>
</a>
</g>
</g>
<!-- Node2&#45;&gt;Node5 -->
<g id="edge4_Node000002_Node000005" class="edge">
<title>Node2&#45;&gt;Node5</title>
<g id="a_edge4_Node000002_Node000005"><a xlink:title=" ">
<path fill="none" stroke="#63b8ff" d="M315.65,-175.99C339.63,-166.12 379.39,-149.73 406.83,-138.43"/>
<polygon fill="#63b8ff" stroke="#63b8ff" points="408.41,-141.56 416.33,-134.52 405.75,-135.09 408.41,-141.56"/>
</a>
</g>
</g>
<!-- Node10 -->
<g id="Node000010" class="node">
<title>Node10</title>
<g id="a_Node000010"><a xlink:title=" ">
<polygon fill="#e0e0e0" stroke="#999999" points="58,-134.5 0,-134.5 0,-115.5 58,-115.5 58,-134.5"/>
<text text-anchor="middle" x="29" y="-122.5" font-family="Helvetica,sans-Serif" font-size="10.00">memory</text>
</a>
</g>
</g>
<!-- Node2&#45;&gt;Node10 -->
<g id="edge11_Node000002_Node000010" class="edge">
<title>Node2&#45;&gt;Node10</title>
<g id="a_edge11_Node000002_Node000010"><a xlink:title=" ">
<path fill="none" stroke="#63b8ff" d="M252.08,-178.23C205.89,-170.99 130.5,-157.77 67,-140 64.71,-139.36 62.37,-138.65 60.03,-137.89"/>
<polygon fill="#63b8ff" stroke="#63b8ff" points="61.1,-134.56 50.51,-134.6 58.82,-141.17 61.1,-134.56"/>
</a>
</g>
</g>
<!-- Node6 -->
<g id="Node000006" class="node">
<title>Node6</title>
<g id="a_Node000006"><a xlink:href="KeyShortCut_8h.html" target="_top" xlink:title=" ">
<polygon fill="white" stroke="#666666" points="566,-74 412,-74 412,-55 566,-55 566,-74"/>
<text text-anchor="middle" x="489" y="-62" font-family="Helvetica,sans-Serif" font-size="10.00">KeyShortCuts/KeyShortCut.h</text>
</a>
</g>
</g>
<!-- Node5&#45;&gt;Node6 -->
<g id="edge5_Node000005_Node000006" class="edge">
<title>Node5&#45;&gt;Node6</title>
<g id="a_edge5_Node000005_Node000006"><a xlink:title=" ">
<path fill="none" stroke="#63b8ff" d="M444.67,-115.37C452.51,-106.55 464.86,-92.66 474.54,-81.77"/>
<polygon fill="#63b8ff" stroke="#63b8ff" points="477.27,-83.97 481.3,-74.17 472.04,-79.32 477.27,-83.97"/>
</a>
</g>
</g>
<!-- Node7 -->
<g id="Node000007" class="node">
<title>Node7</title>
<g id="a_Node000007"><a xlink:title=" ">
<polygon fill="#e0e0e0" stroke="#999999" points="445.5,-19 398.5,-19 398.5,0 445.5,0 445.5,-19"/>
<text text-anchor="middle" x="422" y="-7" font-family="Helvetica,sans-Serif" font-size="10.00">vector</text>
</a>
</g>
</g>
<!-- Node5&#45;&gt;Node7 -->
<g id="edge10_Node000005_Node000007" class="edge">
<title>Node5&#45;&gt;Node7</title>
<g id="a_edge10_Node000005_Node000007"><a xlink:title=" ">
<path fill="none" stroke="#63b8ff" d="M417.07,-115.39C401.08,-107.28 379.76,-93.46 370,-74 360.45,-54.95 379.8,-36.49 397.54,-24.43"/>
<polygon fill="#63b8ff" stroke="#63b8ff" points="399.44,-27.37 405.99,-19.05 395.68,-21.47 399.44,-27.37"/>
</a>
</g>
</g>
<!-- Node5&#45;&gt;Node9 -->
<g id="edge9_Node000005_Node000009" class="edge">
<title>Node5&#45;&gt;Node9</title>
<g id="a_edge9_Node000005_Node000009"><a xlink:title=" ">
<path fill="none" stroke="#63b8ff" d="M427.01,-115.41C412.43,-101.82 388.53,-74.86 403,-55 419.89,-31.8 449.11,-20.44 476.32,-14.97"/>
<polygon fill="#63b8ff" stroke="#63b8ff" points="476.99,-18.41 486.23,-13.21 475.77,-11.52 476.99,-18.41"/>
</a>
</g>
</g>
<!-- Node6&#45;&gt;Node7 -->
<g id="edge6_Node000006_Node000007" class="edge">
<title>Node6&#45;&gt;Node7</title>
<g id="a_edge6_Node000006_Node000007"><a xlink:title=" ">
<path fill="none" stroke="#63b8ff" d="M478.24,-54.98C468.23,-47.07 453.11,-35.11 441.07,-25.58"/>
<polygon fill="#63b8ff" stroke="#63b8ff" points="442.97,-22.63 432.96,-19.17 438.63,-28.12 442.97,-22.63"/>
</a>
</g>
</g>
<!-- Node8 -->
<g id="Node000008" class="node">
<title>Node8</title>
<g id="a_Node000008"><a xlink:title=" ">
<polygon fill="#e0e0e0" stroke="#999999" points="918,-19 874,-19 874,0 918,0 918,-19"/>
<text text-anchor="middle" x="896" y="-7" font-family="Helvetica,sans-Serif" font-size="10.00">string</text>
</a>
</g>
</g>
<!-- Node6&#45;&gt;Node8 -->
<g id="edge7_Node000006_Node000008" class="edge">
<title>Node6&#45;&gt;Node8</title>
<g id="a_edge7_Node000006_Node000008"><a xlink:title=" ">
<path fill="none" stroke="#63b8ff" d="M554.39,-54.98C642.73,-43.48 796.8,-23.42 863.59,-14.72"/>
<polygon fill="#63b8ff" stroke="#63b8ff" points="864.44,-18.14 873.9,-13.38 863.54,-11.2 864.44,-18.14"/>
</a>
</g>
</g>
<!-- Node6&#45;&gt;Node9 -->
<g id="edge8_Node000006_Node000009" class="edge">
<title>Node6&#45;&gt;Node9</title>
<g id="a_edge8_Node000006_Node000009"><a xlink:title=" ">
<path fill="none" stroke="#63b8ff" d="M497.59,-54.75C505.16,-47.03 516.38,-35.6 525.51,-26.28"/>
<polygon fill="#63b8ff" stroke="#63b8ff" points="528.07,-28.68 532.57,-19.09 523.07,-23.78 528.07,-28.68"/>
</a>
</g>
</g>
<!-- Node15&#45;&gt;Node8 -->
<g id="edge18_Node000015_Node000008" class="edge">
<title>Node15&#45;&gt;Node8</title>
<g id="a_edge18_Node000015_Node000008"><a xlink:title=" ">
<path fill="none" stroke="#63b8ff" d="M896,-115.47C896,-97.23 896,-54.07 896,-29.14"/>
<polygon fill="#63b8ff" stroke="#63b8ff" points="899.5,-29.13 896,-19.13 892.5,-29.13 899.5,-29.13"/>
</a>
</g>
</g>
<!-- Node15&#45;&gt;Node9 -->
<g id="edge20_Node000015_Node000009" class="edge">
<title>Node15&#45;&gt;Node9</title>
<g id="a_edge20_Node000015_Node000009"><a xlink:title=" ">
<path fill="none" stroke="#63b8ff" d="M869.32,-115.47C806.61,-95.42 649.76,-45.27 577.95,-22.31"/>
<polygon fill="#63b8ff" stroke="#63b8ff" points="578.58,-18.84 567.99,-19.13 576.45,-25.51 578.58,-18.84"/>
</a>
</g>
</g>
<!-- Node16 -->
<g id="Node000016" class="node">
<title>Node16</title>
<g id="a_Node000016"><a xlink:title=" ">
<polygon fill="#e0e0e0" stroke="#999999" points="1243,-74 1131,-74 1131,-55 1243,-55 1243,-74"/>
<text text-anchor="middle" x="1187" y="-62" font-family="Helvetica,sans-Serif" font-size="10.00">RmlUi/Core/Types.h</text>
</a>
</g>
</g>
<!-- Node15&#45;&gt;Node16 -->
<g id="edge19_Node000015_Node000016" class="edge">
<title>Node15&#45;&gt;Node16</title>
<g id="a_edge19_Node000015_Node000016"><a xlink:title=" ">
<path fill="none" stroke="#63b8ff" d="M923.54,-115.44C930.2,-113.52 937.33,-111.58 944,-110 1003.42,-95.93 1071.91,-83.75 1121,-75.7"/>
<polygon fill="#63b8ff" stroke="#63b8ff" points="1121.86,-79.11 1131.17,-74.05 1120.74,-72.2 1121.86,-79.11"/>
</a>
</g>
</g>
<!-- Node17&#45;&gt;Node8 -->
<g id="edge22_Node000017_Node000008" class="edge">
<title>Node17&#45;&gt;Node8</title>
<g id="a_edge22_Node000017_Node000008"><a xlink:title=" ">
<path fill="none" stroke="#63b8ff" d="M1130.81,-175.98C1103.68,-168.89 1067.06,-157.16 1038,-140 1023.77,-131.6 946.52,-58.64 912.31,-26.08"/>
<polygon fill="#63b8ff" stroke="#63b8ff" points="914.62,-23.45 904.97,-19.08 909.79,-28.51 914.62,-23.45"/>
</a>
</g>
</g>
<!-- Node18 -->
<g id="Node000018" class="node">
<title>Node18</title>
<g id="a_Node000018"><a xlink:title=" ">
<polygon fill="#e0e0e0" stroke="#999999" points="991,-134.5 953,-134.5 953,-115.5 991,-115.5 991,-134.5"/>
<text text-anchor="middle" x="972" y="-122.5" font-family="Helvetica,sans-Serif" font-size="10.00">map</text>
</a>
</g>
</g>
<!-- Node17&#45;&gt;Node18 -->
<g id="edge23_Node000017_Node000018" class="edge">
<title>Node17&#45;&gt;Node18</title>
<g id="a_edge23_Node000017_Node000018"><a xlink:title=" ">
<path fill="none" stroke="#63b8ff" d="M1131.76,-175.93C1098.23,-167.86 1047.8,-154.81 1005,-140 1003.57,-139.5 1002.11,-138.98 1000.64,-138.43"/>
<polygon fill="#63b8ff" stroke="#63b8ff" points="1001.61,-135.04 991.02,-134.59 999.02,-141.55 1001.61,-135.04"/>
</a>
</g>
</g>
<!-- Node20&#45;&gt;Node13 -->
<g id="edge26_Node000020_Node000013" class="edge">
<title>Node20&#45;&gt;Node13</title>
<g id="a_edge26_Node000020_Node000013"><a xlink:title=" ">
<path fill="none" stroke="#63b8ff" d="M1328.06,-175.97C1347.62,-169.28 1371.35,-158.01 1386,-140 1398.87,-124.18 1403.14,-100.72 1404.5,-84.36"/>
<polygon fill="#63b8ff" stroke="#63b8ff" points="1408,-84.53 1405.04,-74.36 1401.01,-84.15 1408,-84.53"/>
</a>
</g>
</g>
<!-- Node20&#45;&gt;Node16 -->
<g id="edge28_Node000020_Node000016" class="edge">
<title>Node20&#45;&gt;Node16</title>
<g id="a_edge28_Node000020_Node000016"><a xlink:title=" ">
<path fill="none" stroke="#63b8ff" d="M1263.09,-175.94C1243.88,-169.2 1220.42,-157.89 1206,-140 1193.2,-124.13 1188.91,-100.67 1187.53,-84.33"/>
<polygon fill="#63b8ff" stroke="#63b8ff" points="1191.03,-84.13 1186.98,-74.34 1184.04,-84.52 1191.03,-84.13"/>
</a>
</g>
</g>
<!-- Node21 -->
<g id="Node000021" class="node">
<title>Node21</title>
<g id="a_Node000021"><a xlink:title=" ">
<polygon fill="#e0e0e0" stroke="#999999" points="1159,-134.5 1047,-134.5 1047,-115.5 1159,-115.5 1159,-134.5"/>
<text text-anchor="middle" x="1103" y="-122.5" font-family="Helvetica,sans-Serif" font-size="10.00">RmlUi/Core/Event.h</text>
</a>
</g>
</g>
<!-- Node20&#45;&gt;Node21 -->
<g id="edge27_Node000020_Node000021" class="edge">
<title>Node20&#45;&gt;Node21</title>
<g id="a_edge27_Node000020_Node000021"><a xlink:title=" ">
<path fill="none" stroke="#63b8ff" d="M1267.08,-175.99C1233.81,-165.86 1178.05,-148.87 1140.9,-137.55"/>
<polygon fill="#63b8ff" stroke="#63b8ff" points="1141.54,-134.08 1130.95,-134.52 1139.5,-140.78 1141.54,-134.08"/>
</a>
</g>
</g>
<!-- Node22 -->
<g id="Node000022" class="node">
<title>Node22</title>
<g id="a_Node000022"><a xlink:href="Clipboard_09_09Event_8h.html" target="_top" xlink:title=" ">
<polygon fill="white" stroke="#666666" points="1377,-140 1215,-140 1215,-110 1377,-110 1377,-140"/>
<text text-anchor="start" x="1223" y="-128" font-family="Helvetica,sans-Serif" font-size="10.00">Clipboard++Events/Clipboard</text>
<text text-anchor="middle" x="1296" y="-117" font-family="Helvetica,sans-Serif" font-size="10.00">++Event.h</text>
</a>
</g>
</g>
<!-- Node20&#45;&gt;Node22 -->
<g id="edge29_Node000020_Node000022" class="edge">
<title>Node20&#45;&gt;Node22</title>
<g id="a_edge29_Node000020_Node000022"><a xlink:title=" ">
<path fill="none" stroke="#63b8ff" d="M1295.15,-175.87C1295.26,-169.11 1295.43,-159.35 1295.59,-150.26"/>
<polygon fill="#63b8ff" stroke="#63b8ff" points="1299.09,-150.17 1295.76,-140.11 1292.09,-150.05 1299.09,-150.17"/>
</a>
</g>
</g>
<!-- Node22&#45;&gt;Node13 -->
<g id="edge31_Node000022_Node000013" class="edge">
<title>Node22&#45;&gt;Node13</title>
<g id="a_edge31_Node000022_Node000013"><a xlink:title=" ">
<path fill="none" stroke="#63b8ff" d="M1322.11,-109.99C1339.64,-100.58 1362.62,-88.24 1379.94,-78.95"/>
<polygon fill="#63b8ff" stroke="#63b8ff" points="1381.75,-81.95 1388.9,-74.14 1378.44,-75.78 1381.75,-81.95"/>
</a>
</g>
</g>
<!-- Node22&#45;&gt;Node16 -->
<g id="edge30_Node000022_Node000016" class="edge">
<title>Node22&#45;&gt;Node16</title>
<g id="a_edge30_Node000022_Node000016"><a xlink:title=" ">
<path fill="none" stroke="#63b8ff" d="M1269.89,-109.99C1252.36,-100.58 1229.38,-88.24 1212.06,-78.95"/>
<polygon fill="#63b8ff" stroke="#63b8ff" points="1213.56,-75.78 1203.1,-74.14 1210.25,-81.95 1213.56,-75.78"/>
</a>
</g>
</g>
</g>
</svg>
