<?xml version="1.0" encoding="UTF-8" standalone="no"?>
<!DOCTYPE svg PUBLIC "-//W3C//DTD SVG 1.1//EN"
 "http://www.w3.org/Graphics/SVG/1.1/DTD/svg11.dtd">
<!-- Generated by graphviz version 2.43.0 (0)
 -->
<!-- Title: Clipboard++/RmlUI/EventHandlers/EventListener.cpp Pages: 1 -->
<svg width="535pt" height="214pt"
 viewBox="0.00 0.00 535.00 214.00" xmlns="http://www.w3.org/2000/svg" xmlns:xlink="http://www.w3.org/1999/xlink">
<g id="graph0" class="graph" transform="scale(1 1) rotate(0) translate(4 210)">
<title>Clipboard++/RmlUI/EventHandlers/EventListener.cpp</title>
<!-- Node1 -->
<g id="Node000001" class="node">
<title>Node1</title>
<g id="a_Node000001"><a xlink:title=" ">
<polygon fill="#999999" stroke="#666666" points="262.5,-206 75.5,-206 75.5,-176 262.5,-176 262.5,-206"/>
<text text-anchor="start" x="83.5" y="-194" font-family="Helvetica,sans-Serif" font-size="10.00">Clipboard++/RmlUI/EventHandlers</text>
<text text-anchor="middle" x="169" y="-183" font-family="Helvetica,sans-Serif" font-size="10.00">/EventListener.cpp</text>
</a>
</g>
</g>
<!-- Node2 -->
<g id="Node000002" class="node">
<title>Node2</title>
<g id="a_Node000002"><a xlink:href="EventListener_8h.html" target="_top" xlink:title=" ">
<polygon fill="white" stroke="#666666" points="159,-140 67,-140 67,-121 159,-121 159,-140"/>
<text text-anchor="middle" x="113" y="-128" font-family="Helvetica,sans-Serif" font-size="10.00">EventListener.h</text>
</a>
</g>
</g>
<!-- Node1&#45;&gt;Node2 -->
<g id="edge1_Node000001_Node000002" class="edge">
<title>Node1&#45;&gt;Node2</title>
<g id="a_edge1_Node000001_Node000002"><a xlink:title=" ">
<path fill="none" stroke="#63b8ff" d="M155.44,-175.84C147.32,-167.35 136.95,-156.52 128.5,-147.69"/>
<polygon fill="#63b8ff" stroke="#63b8ff" points="130.83,-145.07 121.39,-140.27 125.78,-149.91 130.83,-145.07"/>
</a>
</g>
</g>
<!-- Node4 -->
<g id="Node000004" class="node">
<title>Node4</title>
<g id="a_Node000004"><a xlink:href="EventManager_8h.html" target="_top" xlink:title=" ">
<polygon fill="white" stroke="#666666" points="309.5,-140 214.5,-140 214.5,-121 309.5,-121 309.5,-140"/>
<text text-anchor="middle" x="262" y="-128" font-family="Helvetica,sans-Serif" font-size="10.00">EventManager.h</text>
</a>
</g>
</g>
<!-- Node1&#45;&gt;Node4 -->
<g id="edge3_Node000001_Node000004" class="edge">
<title>Node1&#45;&gt;Node4</title>
<g id="a_edge3_Node000001_Node000004"><a xlink:title=" ">
<path fill="none" stroke="#63b8ff" d="M191.51,-175.84C206.06,-166.68 224.93,-154.82 239.49,-145.66"/>
<polygon fill="#63b8ff" stroke="#63b8ff" points="241.74,-148.38 248.34,-140.09 238.01,-142.46 241.74,-148.38"/>
</a>
</g>
</g>
<!-- Node3 -->
<g id="Node000003" class="node">
<title>Node3</title>
<g id="a_Node000003"><a xlink:title=" ">
<polygon fill="#e0e0e0" stroke="#999999" points="150,-79.5 0,-79.5 0,-60.5 150,-60.5 150,-79.5"/>
<text text-anchor="middle" x="75" y="-67.5" font-family="Helvetica,sans-Serif" font-size="10.00">RmlUi/Core/EventListener.h</text>
</a>
</g>
</g>
<!-- Node2&#45;&gt;Node3 -->
<g id="edge2_Node000002_Node000003" class="edge">
<title>Node2&#45;&gt;Node3</title>
<g id="a_edge2_Node000002_Node000003"><a xlink:title=" ">
<path fill="none" stroke="#63b8ff" d="M107.39,-120.87C101.84,-112.31 93.17,-98.97 86.2,-88.24"/>
<polygon fill="#63b8ff" stroke="#63b8ff" points="89.01,-86.15 80.63,-79.67 83.14,-89.96 89.01,-86.15"/>
</a>
</g>
</g>
<!-- Node5 -->
<g id="Node000005" class="node">
<title>Node5</title>
<g id="a_Node000005"><a xlink:title=" ">
<polygon fill="#e0e0e0" stroke="#999999" points="358.5,-19 183.5,-19 183.5,0 358.5,0 358.5,-19"/>
<text text-anchor="middle" x="271" y="-7" font-family="Helvetica,sans-Serif" font-size="10.00">RmlUi/Core/ElementDocument.h</text>
</a>
</g>
</g>
<!-- Node4&#45;&gt;Node5 -->
<g id="edge4_Node000004_Node000005" class="edge">
<title>Node4&#45;&gt;Node5</title>
<g id="a_edge4_Node000004_Node000005"><a xlink:title=" ">
<path fill="none" stroke="#63b8ff" d="M239.88,-120.95C224.8,-113.82 205.99,-102.06 197,-85 190.78,-73.21 190.44,-66.61 197,-55 205.17,-40.55 220.12,-30.27 234.46,-23.26"/>
<polygon fill="#63b8ff" stroke="#63b8ff" points="236.01,-26.4 243.71,-19.12 233.15,-20.01 236.01,-26.4"/>
</a>
</g>
</g>
<!-- Node6 -->
<g id="Node000006" class="node">
<title>Node6</title>
<g id="a_Node000006"><a xlink:title=" ">
<polygon fill="#e0e0e0" stroke="#999999" points="318,-79.5 206,-79.5 206,-60.5 318,-60.5 318,-79.5"/>
<text text-anchor="middle" x="262" y="-67.5" font-family="Helvetica,sans-Serif" font-size="10.00">RmlUi/Core/Event.h</text>
</a>
</g>
</g>
<!-- Node4&#45;&gt;Node6 -->
<g id="edge5_Node000004_Node000006" class="edge">
<title>Node4&#45;&gt;Node6</title>
<g id="a_edge5_Node000004_Node000006"><a xlink:title=" ">
<path fill="none" stroke="#63b8ff" d="M262,-120.87C262,-112.75 262,-100.31 262,-89.89"/>
<polygon fill="#63b8ff" stroke="#63b8ff" points="265.5,-89.67 262,-79.67 258.5,-89.67 265.5,-89.67"/>
</a>
</g>
</g>
<!-- Node7 -->
<g id="Node000007" class="node">
<title>Node7</title>
<g id="a_Node000007"><a xlink:title=" ">
<polygon fill="#e0e0e0" stroke="#999999" points="527,-19 415,-19 415,0 527,0 527,-19"/>
<text text-anchor="middle" x="471" y="-7" font-family="Helvetica,sans-Serif" font-size="10.00">RmlUi/Core/Types.h</text>
</a>
</g>
</g>
<!-- Node4&#45;&gt;Node7 -->
<g id="edge6_Node000004_Node000007" class="edge">
<title>Node4&#45;&gt;Node7</title>
<g id="a_edge6_Node000004_Node000007"><a xlink:title=" ">
<path fill="none" stroke="#63b8ff" d="M309.51,-127.85C373.53,-124.51 482.34,-114.54 507,-85 521.87,-67.18 503.63,-42.18 488.15,-26.16"/>
<polygon fill="#63b8ff" stroke="#63b8ff" points="490.53,-23.59 480.93,-19.09 485.63,-28.59 490.53,-23.59"/>
</a>
</g>
</g>
<!-- Node8 -->
<g id="Node000008" class="node">
<title>Node8</title>
<g id="a_Node000008"><a xlink:href="Clipboard_09_09Event_8h.html" target="_top" xlink:title=" ">
<polygon fill="white" stroke="#666666" points="498,-85 336,-85 336,-55 498,-55 498,-85"/>
<text text-anchor="start" x="344" y="-73" font-family="Helvetica,sans-Serif" font-size="10.00">Clipboard++Events/Clipboard</text>
<text text-anchor="middle" x="417" y="-62" font-family="Helvetica,sans-Serif" font-size="10.00">++Event.h</text>
</a>
</g>
</g>
<!-- Node4&#45;&gt;Node8 -->
<g id="edge7_Node000004_Node000008" class="edge">
<title>Node4&#45;&gt;Node8</title>
<g id="a_edge7_Node000004_Node000008"><a xlink:title=" ">
<path fill="none" stroke="#63b8ff" d="M284.54,-120.99C306.85,-112.57 341.67,-99.43 370.01,-88.73"/>
<polygon fill="#63b8ff" stroke="#63b8ff" points="371.62,-91.87 379.74,-85.06 369.14,-85.32 371.62,-91.87"/>
</a>
</g>
</g>
<!-- Node8&#45;&gt;Node5 -->
<g id="edge9_Node000008_Node000005" class="edge">
<title>Node8&#45;&gt;Node5</title>
<g id="a_edge9_Node000008_Node000005"><a xlink:title=" ">
<path fill="none" stroke="#63b8ff" d="M382.03,-54.99C357.67,-45.23 325.47,-32.33 302.03,-22.93"/>
<polygon fill="#63b8ff" stroke="#63b8ff" points="303.15,-19.61 292.56,-19.14 300.54,-26.11 303.15,-19.61"/>
</a>
</g>
</g>
<!-- Node8&#45;&gt;Node7 -->
<g id="edge8_Node000008_Node000007" class="edge">
<title>Node8&#45;&gt;Node7</title>
<g id="a_edge8_Node000008_Node000007"><a xlink:title=" ">
<path fill="none" stroke="#63b8ff" d="M430.07,-54.84C437.91,-46.35 447.91,-35.52 456.06,-26.69"/>
<polygon fill="#63b8ff" stroke="#63b8ff" points="458.7,-28.99 462.91,-19.27 453.55,-24.24 458.7,-28.99"/>
</a>
</g>
</g>
</g>
</svg>
