<?xml version="1.0" encoding="UTF-8" standalone="no"?>
<!DOCTYPE svg PUBLIC "-//W3C//DTD SVG 1.1//EN"
 "http://www.w3.org/Graphics/SVG/1.1/DTD/svg11.dtd">
<!-- Generated by graphviz version 2.43.0 (0)
 -->
<!-- Title: Clipboard++/RmlUI/EventHandlers/EventManager.h Pages: 1 -->
<svg width="352pt" height="159pt"
 viewBox="0.00 0.00 351.50 159.00" xmlns="http://www.w3.org/2000/svg" xmlns:xlink="http://www.w3.org/1999/xlink">

<svg id="main" version="1.1" xmlns="http://www.w3.org/2000/svg" xmlns:xlink="http://www.w3.org/1999/xlink" xml:space="preserve" onload="init(evt)">
<style type="text/css"><![CDATA[
.node, .edge {opacity: 0.7;}
.node.selected, .edge.selected {opacity: 1;}
.edge:hover path { stroke: red; }
.edge:hover polygon { stroke: red; fill: red; }
]]></style>
<script type="application/ecmascript" xlink:href="svg.min.js"/>
<svg id="graph" class="graph">
<g id="graph0" class="graph" transform="scale(1 1) rotate(0) translate(4 155)">
<title>Clipboard++/RmlUI/EventHandlers/EventManager.h</title>
<!-- Node1 -->
<g id="Node000001" class="node">
<title>Node1</title>
<g id="a_Node000001"><a xlink:title=" ">
<polygon fill="#999999" stroke="#666666" points="249,-151 62,-151 62,-121 249,-121 249,-151"/>
<text text-anchor="start" x="70" y="-139" font-family="Helvetica,sans-Serif" font-size="10.00">Clipboard++/RmlUI/EventHandlers</text>
<text text-anchor="middle" x="155.5" y="-128" font-family="Helvetica,sans-Serif" font-size="10.00">/EventManager.h</text>
</a>
</g>
</g>
<!-- Node2 -->
<g id="Node000002" class="node">
<title>Node2</title>
<g id="a_Node000002"><a xlink:title=" ">
<polygon fill="#e0e0e0" stroke="#999999" points="175,-19 0,-19 0,0 175,0 175,-19"/>
<text text-anchor="middle" x="87.5" y="-7" font-family="Helvetica,sans-Serif" font-size="10.00">RmlUi/Core/ElementDocument.h</text>
</a>
</g>
</g>
<!-- Node1&#45;&gt;Node2 -->
<g id="edge1_Node000001_Node000002" class="edge">
<title>Node1&#45;&gt;Node2</title>
<g id="a_edge1_Node000001_Node000002"><a xlink:title=" ">
<path fill="none" stroke="#63b8ff" d="M63.94,-120.93C44.21,-113.49 25.66,-102.17 13.5,-85 5.8,-74.12 6.94,-66.61 13.5,-55 21.67,-40.55 36.62,-30.27 50.96,-23.26"/>
<polygon fill="#63b8ff" stroke="#63b8ff" points="52.51,-26.4 60.21,-19.12 49.65,-20.01 52.51,-26.4"/>
</a>
</g>
</g>
<!-- Node3 -->
<g id="Node000003" class="node">
<title>Node3</title>
<g id="a_Node000003"><a xlink:title=" ">
<polygon fill="#e0e0e0" stroke="#999999" points="134.5,-79.5 22.5,-79.5 22.5,-60.5 134.5,-60.5 134.5,-79.5"/>
<text text-anchor="middle" x="78.5" y="-67.5" font-family="Helvetica,sans-Serif" font-size="10.00">RmlUi/Core/Event.h</text>
</a>
</g>
</g>
<!-- Node1&#45;&gt;Node3 -->
<g id="edge2_Node000001_Node000003" class="edge">
<title>Node1&#45;&gt;Node3</title>
<g id="a_edge2_Node000001_Node000003"><a xlink:title=" ">
<path fill="none" stroke="#63b8ff" d="M138.41,-120.8C126.17,-110.62 109.7,-96.93 97.12,-86.48"/>
<polygon fill="#63b8ff" stroke="#63b8ff" points="99.07,-83.54 89.14,-79.84 94.59,-88.93 99.07,-83.54"/>
</a>
</g>
</g>
<!-- Node4 -->
<g id="Node000004" class="node">
<title>Node4</title>
<g id="a_Node000004"><a xlink:title=" ">
<polygon fill="#e0e0e0" stroke="#999999" points="343.5,-19 231.5,-19 231.5,0 343.5,0 343.5,-19"/>
<text text-anchor="middle" x="287.5" y="-7" font-family="Helvetica,sans-Serif" font-size="10.00">RmlUi/Core/Types.h</text>
</a>
</g>
</g>
<!-- Node1&#45;&gt;Node4 -->
<g id="edge3_Node000001_Node000004" class="edge">
<title>Node1&#45;&gt;Node4</title>
<g id="a_edge3_Node000001_Node000004"><a xlink:title=" ">
<path fill="none" stroke="#63b8ff" d="M233.98,-121C272.13,-112.43 312.18,-100.19 323.5,-85 337.1,-66.76 320.09,-42.57 305.14,-26.78"/>
<polygon fill="#63b8ff" stroke="#63b8ff" points="307.24,-23.93 297.69,-19.36 302.31,-28.89 307.24,-23.93"/>
</a>
</g>
</g>
<!-- Node5 -->
<g id="Node000005" class="node">
<title>Node5</title>
<g id="a_Node000005"><a xlink:href="Clipboard_09_09Event_8h.html" target="_top" xlink:title=" ">
<polygon fill="white" stroke="#666666" points="314.5,-85 152.5,-85 152.5,-55 314.5,-55 314.5,-85"/>
<text text-anchor="start" x="160.5" y="-73" font-family="Helvetica,sans-Serif" font-size="10.00">Clipboard++Events/Clipboard</text>
<text text-anchor="middle" x="233.5" y="-62" font-family="Helvetica,sans-Serif" font-size="10.00">++Event.h</text>
</a>
</g>
</g>
<!-- Node1&#45;&gt;Node5 -->
<g id="edge4_Node000001_Node000005" class="edge">
<title>Node1&#45;&gt;Node5</title>
<g id="a_edge4_Node000001_Node000005"><a xlink:title=" ">
<path fill="none" stroke="#63b8ff" d="M172.81,-120.8C183.21,-112.26 196.63,-101.25 208.21,-91.75"/>
<polygon fill="#63b8ff" stroke="#63b8ff" points="210.73,-94.21 216.24,-85.16 206.29,-88.8 210.73,-94.21"/>
</a>
</g>
</g>
<!-- Node5&#45;&gt;Node2 -->
<g id="edge6_Node000005_Node000002" class="edge">
<title>Node5&#45;&gt;Node2</title>
<g id="a_edge6_Node000005_Node000002"><a xlink:title=" ">
<path fill="none" stroke="#63b8ff" d="M198.53,-54.99C174.17,-45.23 141.97,-32.33 118.53,-22.93"/>
<polygon fill="#63b8ff" stroke="#63b8ff" points="119.65,-19.61 109.06,-19.14 117.04,-26.11 119.65,-19.61"/>
</a>
</g>
</g>
<!-- Node5&#45;&gt;Node4 -->
<g id="edge5_Node000005_Node000004" class="edge">
<title>Node5&#45;&gt;Node4</title>
<g id="a_edge5_Node000005_Node000004"><a xlink:title=" ">
<path fill="none" stroke="#63b8ff" d="M246.57,-54.84C254.41,-46.35 264.41,-35.52 272.56,-26.69"/>
<polygon fill="#63b8ff" stroke="#63b8ff" points="275.2,-28.99 279.41,-19.27 270.05,-24.24 275.2,-28.99"/>
</a>
</g>
</g>
</g>
</svg>
</svg>

<style type='text/css'>
<![CDATA[
[data-mouse-over-selected='false'] { opacity: 0.7; }
[data-mouse-over-selected='true']  { opacity: 1.0; }
]]>
</style>
<script type="application/ecmascript"><![CDATA[
document.addEventListener('DOMContentLoaded', (event) => {
  highlightEdges();
  highlightAdjacentNodes();
});
]]></script>
</svg>
