<?xml version="1.0" encoding="UTF-8" standalone="no"?>
<!DOCTYPE svg PUBLIC "-//W3C//DTD SVG 1.1//EN"
 "http://www.w3.org/Graphics/SVG/1.1/DTD/svg11.dtd">
<!-- Generated by graphviz version 2.43.0 (0)
 -->
<!-- Title: Clipboard++/RmlUI/EventHandlers/EventListenerInstancer.h Pages: 1 -->
<svg width="436pt" height="170pt"
 viewBox="0.00 0.00 436.00 170.00" xmlns="http://www.w3.org/2000/svg" xmlns:xlink="http://www.w3.org/1999/xlink">
<g id="graph0" class="graph" transform="scale(1 1) rotate(0) translate(4 166)">
<title>Clipboard++/RmlUI/EventHandlers/EventListenerInstancer.h</title>
<!-- Node1 -->
<g id="Node000001" class="node">
<title>Node1</title>
<g id="a_Node000001"><a xlink:title=" ">
<polygon fill="#999999" stroke="#666666" points="334,-162 147,-162 147,-132 334,-132 334,-162"/>
<text text-anchor="start" x="155" y="-150" font-family="Helvetica,sans-Serif" font-size="10.00">Clipboard++/RmlUI/EventHandlers</text>
<text text-anchor="middle" x="240.5" y="-139" font-family="Helvetica,sans-Serif" font-size="10.00">/EventListenerInstancer.h</text>
</a>
</g>
</g>
<!-- Node2 -->
<g id="Node000002" class="node">
<title>Node2</title>
<g id="a_Node000002"><a xlink:href="ClipboardXX_8h.html" target="_top" xlink:title=" ">
<polygon fill="white" stroke="#666666" points="222.5,-90.5 70.5,-90.5 70.5,-71.5 222.5,-71.5 222.5,-90.5"/>
<text text-anchor="middle" x="146.5" y="-78.5" font-family="Helvetica,sans-Serif" font-size="10.00">Clipboard++/ClipboardXX.h</text>
</a>
</g>
</g>
<!-- Node1&#45;&gt;Node2 -->
<g id="edge1_Node000001_Node000002" class="edge">
<title>Node1&#45;&gt;Node2</title>
<g id="a_edge1_Node000001_Node000002"><a xlink:title=" ">
<path fill="none" stroke="#63b8ff" d="M210.94,-125.87C193.54,-114.03 172.42,-99.65 159.22,-90.66"/>
<polygon fill="#63b8ff" stroke="#63b8ff" points="209.4,-129.06 219.64,-131.8 213.34,-123.28 209.4,-129.06"/>
</a>
</g>
</g>
<!-- Node5 -->
<g id="Node000005" class="node">
<title>Node5</title>
<g id="a_Node000005"><a xlink:href="EventListenerInstancer_8cpp.html" target="_top" xlink:title=" ">
<polygon fill="white" stroke="#666666" points="428,-96 241,-96 241,-66 428,-66 428,-96"/>
<text text-anchor="start" x="249" y="-84" font-family="Helvetica,sans-Serif" font-size="10.00">Clipboard++/RmlUI/EventHandlers</text>
<text text-anchor="middle" x="334.5" y="-73" font-family="Helvetica,sans-Serif" font-size="10.00">/EventListenerInstancer.cpp</text>
</a>
</g>
</g>
<!-- Node1&#45;&gt;Node5 -->
<g id="edge4_Node000001_Node000005" class="edge">
<title>Node1&#45;&gt;Node5</title>
<g id="a_edge4_Node000001_Node000005"><a xlink:title=" ">
<path fill="none" stroke="#63b8ff" d="M269.83,-126.03C284.06,-116.34 300.81,-104.94 313.7,-96.16"/>
<polygon fill="#63b8ff" stroke="#63b8ff" points="267.66,-123.28 261.36,-131.8 271.6,-129.06 267.66,-123.28"/>
</a>
</g>
</g>
<!-- Node3 -->
<g id="Node000003" class="node">
<title>Node3</title>
<g id="a_Node000003"><a xlink:href="Clipboard_09_09_8cpp.html" target="_top" xlink:title=" ">
<polygon fill="white" stroke="#666666" points="129,-30 0,-30 0,0 129,0 129,-30"/>
<text text-anchor="start" x="8" y="-18" font-family="Helvetica,sans-Serif" font-size="10.00">Clipboard++/Clipboard</text>
<text text-anchor="middle" x="64.5" y="-7" font-family="Helvetica,sans-Serif" font-size="10.00">++.cpp</text>
</a>
</g>
</g>
<!-- Node2&#45;&gt;Node3 -->
<g id="edge2_Node000002_Node000003" class="edge">
<title>Node2&#45;&gt;Node3</title>
<g id="a_edge2_Node000002_Node000003"><a xlink:title=" ">
<path fill="none" stroke="#63b8ff" d="M127.3,-65.02C113.8,-54.48 95.84,-40.46 82.59,-30.12"/>
<polygon fill="#63b8ff" stroke="#63b8ff" points="125.4,-67.98 135.44,-71.37 129.71,-62.46 125.4,-67.98"/>
</a>
</g>
</g>
<!-- Node4 -->
<g id="Node000004" class="node">
<title>Node4</title>
<g id="a_Node000004"><a xlink:href="ClipboardXX_8cpp.html" target="_top" xlink:title=" ">
<polygon fill="white" stroke="#666666" points="310,-24.5 147,-24.5 147,-5.5 310,-5.5 310,-24.5"/>
<text text-anchor="middle" x="228.5" y="-12.5" font-family="Helvetica,sans-Serif" font-size="10.00">Clipboard++/ClipboardXX.cpp</text>
</a>
</g>
</g>
<!-- Node2&#45;&gt;Node4 -->
<g id="edge3_Node000002_Node000004" class="edge">
<title>Node2&#45;&gt;Node4</title>
<g id="a_edge3_Node000002_Node000004"><a xlink:title=" ">
<path fill="none" stroke="#63b8ff" d="M165.73,-64.99C181.79,-52.46 204.11,-35.04 217.35,-24.7"/>
<polygon fill="#63b8ff" stroke="#63b8ff" points="163.29,-62.46 157.56,-71.37 167.6,-67.98 163.29,-62.46"/>
</a>
</g>
</g>
</g>
</svg>
