<?xml version="1.0" encoding="UTF-8" standalone="no"?>
<!DOCTYPE svg PUBLIC "-//W3C//DTD SVG 1.1//EN"
 "http://www.w3.org/Graphics/SVG/1.1/DTD/svg11.dtd">
<!-- Generated by graphviz version 2.43.0 (0)
 -->
<!-- Title: Clipboard++/RmlUI/EventHandlers/EventManager.h Pages: 1 -->
<svg width="758pt" height="104pt"
 viewBox="0.00 0.00 758.00 104.00" xmlns="http://www.w3.org/2000/svg" xmlns:xlink="http://www.w3.org/1999/xlink">
<g id="graph0" class="graph" transform="scale(1 1) rotate(0) translate(4 100)">
<title>Clipboard++/RmlUI/EventHandlers/EventManager.h</title>
<!-- Node1 -->
<g id="Node000001" class="node">
<title>Node1</title>
<g id="a_Node000001"><a xlink:title=" ">
<polygon fill="#999999" stroke="#666666" points="449,-96 262,-96 262,-66 449,-66 449,-96"/>
<text text-anchor="start" x="270" y="-84" font-family="Helvetica,sans-Serif" font-size="10.00">Clipboard++/RmlUI/EventHandlers</text>
<text text-anchor="middle" x="355.5" y="-73" font-family="Helvetica,sans-Serif" font-size="10.00">/EventManager.h</text>
</a>
</g>
</g>
<!-- Node2 -->
<g id="Node000002" class="node">
<title>Node2</title>
<g id="a_Node000002"><a xlink:href="ElementEdit_8cpp.html" target="_top" xlink:title=" ">
<polygon fill="white" stroke="#666666" points="161,-30 0,-30 0,0 161,0 161,-30"/>
<text text-anchor="start" x="8" y="-18" font-family="Helvetica,sans-Serif" font-size="10.00">Clipboard++/RmlUI/Elements</text>
<text text-anchor="middle" x="80.5" y="-7" font-family="Helvetica,sans-Serif" font-size="10.00">/ElementEdit.cpp</text>
</a>
</g>
</g>
<!-- Node1&#45;&gt;Node2 -->
<g id="edge1_Node000001_Node000002" class="edge">
<title>Node1&#45;&gt;Node2</title>
<g id="a_edge1_Node000001_Node000002"><a xlink:title=" ">
<path fill="none" stroke="#63b8ff" d="M285.24,-63.65C240.56,-53.25 183.3,-39.93 140.71,-30.01"/>
<polygon fill="#63b8ff" stroke="#63b8ff" points="284.62,-67.1 295.15,-65.95 286.2,-60.28 284.62,-67.1"/>
</a>
</g>
</g>
<!-- Node3 -->
<g id="Node000003" class="node">
<title>Node3</title>
<g id="a_Node000003"><a xlink:href="ElementShortCuts_8cpp.html" target="_top" xlink:title=" ">
<polygon fill="white" stroke="#666666" points="340,-30 179,-30 179,0 340,0 340,-30"/>
<text text-anchor="start" x="187" y="-18" font-family="Helvetica,sans-Serif" font-size="10.00">Clipboard++/RmlUI/Elements</text>
<text text-anchor="middle" x="259.5" y="-7" font-family="Helvetica,sans-Serif" font-size="10.00">/ElementShortCuts.cpp</text>
</a>
</g>
</g>
<!-- Node1&#45;&gt;Node3 -->
<g id="edge2_Node000001_Node000003" class="edge">
<title>Node1&#45;&gt;Node3</title>
<g id="a_edge2_Node000001_Node000003"><a xlink:title=" ">
<path fill="none" stroke="#63b8ff" d="M325.54,-60.03C311.01,-50.34 293.91,-38.94 280.75,-30.16"/>
<polygon fill="#63b8ff" stroke="#63b8ff" points="323.93,-63.16 334.19,-65.8 327.82,-57.34 323.93,-63.16"/>
</a>
</g>
</g>
<!-- Node4 -->
<g id="Node000004" class="node">
<title>Node4</title>
<g id="a_Node000004"><a xlink:href="EventListener_8cpp.html" target="_top" xlink:title=" ">
<polygon fill="white" stroke="#666666" points="545,-30 358,-30 358,0 545,0 545,-30"/>
<text text-anchor="start" x="366" y="-18" font-family="Helvetica,sans-Serif" font-size="10.00">Clipboard++/RmlUI/EventHandlers</text>
<text text-anchor="middle" x="451.5" y="-7" font-family="Helvetica,sans-Serif" font-size="10.00">/EventListener.cpp</text>
</a>
</g>
</g>
<!-- Node1&#45;&gt;Node4 -->
<g id="edge3_Node000001_Node000004" class="edge">
<title>Node1&#45;&gt;Node4</title>
<g id="a_edge3_Node000001_Node000004"><a xlink:title=" ">
<path fill="none" stroke="#63b8ff" d="M385.46,-60.03C399.99,-50.34 417.09,-38.94 430.25,-30.16"/>
<polygon fill="#63b8ff" stroke="#63b8ff" points="383.18,-57.34 376.81,-65.8 387.07,-63.16 383.18,-57.34"/>
</a>
</g>
</g>
<!-- Node5 -->
<g id="Node000005" class="node">
<title>Node5</title>
<g id="a_Node000005"><a xlink:href="EventManager_8cpp.html" target="_top" xlink:title=" ">
<polygon fill="white" stroke="#666666" points="750,-30 563,-30 563,0 750,0 750,-30"/>
<text text-anchor="start" x="571" y="-18" font-family="Helvetica,sans-Serif" font-size="10.00">Clipboard++/RmlUI/EventHandlers</text>
<text text-anchor="middle" x="656.5" y="-7" font-family="Helvetica,sans-Serif" font-size="10.00">/EventManager.cpp</text>
</a>
</g>
</g>
<!-- Node1&#45;&gt;Node5 -->
<g id="edge4_Node000001_Node000005" class="edge">
<title>Node1&#45;&gt;Node5</title>
<g id="a_edge4_Node000001_Node000005"><a xlink:title=" ">
<path fill="none" stroke="#63b8ff" d="M431.48,-63.84C480.52,-53.42 543.68,-39.99 590.6,-30.01"/>
<polygon fill="#63b8ff" stroke="#63b8ff" points="430.61,-60.45 421.56,-65.95 432.07,-67.3 430.61,-60.45"/>
</a>
</g>
</g>
</g>
</svg>
