<?xml version="1.0" encoding="UTF-8" standalone="no"?>
<!DOCTYPE svg PUBLIC "-//W3C//DTD SVG 1.1//EN"
 "http://www.w3.org/Graphics/SVG/1.1/DTD/svg11.dtd">
<!-- Generated by graphviz version 2.43.0 (0)
 -->
<!-- Title: Clipboard++/RmlUI/EventHandlers/EventListenerInstancer.cpp Pages: 1 -->
<svg width="318pt" height="159pt"
 viewBox="0.00 0.00 318.00 159.00" xmlns="http://www.w3.org/2000/svg" xmlns:xlink="http://www.w3.org/1999/xlink">
<g id="graph0" class="graph" transform="scale(1 1) rotate(0) translate(4 155)">
<title>Clipboard++/RmlUI/EventHandlers/EventListenerInstancer.cpp</title>
<!-- Node1 -->
<g id="Node000001" class="node">
<title>Node1</title>
<g id="a_Node000001"><a xlink:title=" ">
<polygon fill="#999999" stroke="#666666" points="245.5,-151 58.5,-151 58.5,-121 245.5,-121 245.5,-151"/>
<text text-anchor="start" x="66.5" y="-139" font-family="Helvetica,sans-Serif" font-size="10.00">Clipboard++/RmlUI/EventHandlers</text>
<text text-anchor="middle" x="152" y="-128" font-family="Helvetica,sans-Serif" font-size="10.00">/EventListenerInstancer.cpp</text>
</a>
</g>
</g>
<!-- Node2 -->
<g id="Node000002" class="node">
<title>Node2</title>
<g id="a_Node000002"><a xlink:href="EventListenerInstancer_8h.html" target="_top" xlink:title=" ">
<polygon fill="white" stroke="#666666" points="154.5,-85 17.5,-85 17.5,-66 154.5,-66 154.5,-85"/>
<text text-anchor="middle" x="86" y="-73" font-family="Helvetica,sans-Serif" font-size="10.00">EventListenerInstancer.h</text>
</a>
</g>
</g>
<!-- Node1&#45;&gt;Node2 -->
<g id="edge1_Node000001_Node000002" class="edge">
<title>Node1&#45;&gt;Node2</title>
<g id="a_edge1_Node000001_Node000002"><a xlink:title=" ">
<path fill="none" stroke="#63b8ff" d="M136.02,-120.84C126.25,-112.17 113.73,-101.08 103.66,-92.15"/>
<polygon fill="#63b8ff" stroke="#63b8ff" points="105.69,-89.28 95.89,-85.27 101.05,-94.52 105.69,-89.28"/>
</a>
</g>
</g>
<!-- Node4 -->
<g id="Node000004" class="node">
<title>Node4</title>
<g id="a_Node000004"><a xlink:href="EventListener_8h.html" target="_top" xlink:title=" ">
<polygon fill="white" stroke="#666666" points="273,-85 181,-85 181,-66 273,-66 273,-85"/>
<text text-anchor="middle" x="227" y="-73" font-family="Helvetica,sans-Serif" font-size="10.00">EventListener.h</text>
</a>
</g>
</g>
<!-- Node1&#45;&gt;Node4 -->
<g id="edge3_Node000001_Node000004" class="edge">
<title>Node1&#45;&gt;Node4</title>
<g id="a_edge3_Node000001_Node000004"><a xlink:title=" ">
<path fill="none" stroke="#63b8ff" d="M170.16,-120.84C181.49,-112 196.06,-100.63 207.62,-91.62"/>
<polygon fill="#63b8ff" stroke="#63b8ff" points="210.03,-94.18 215.76,-85.27 205.72,-88.66 210.03,-94.18"/>
</a>
</g>
</g>
<!-- Node3 -->
<g id="Node000003" class="node">
<title>Node3</title>
<g id="a_Node000003"><a xlink:title=" ">
<polygon fill="#e0e0e0" stroke="#999999" points="142,-30 0,-30 0,0 142,0 142,-30"/>
<text text-anchor="start" x="8" y="-18" font-family="Helvetica,sans-Serif" font-size="10.00">RmlUi/Core/EventListener</text>
<text text-anchor="middle" x="71" y="-7" font-family="Helvetica,sans-Serif" font-size="10.00">Instancer.h</text>
</a>
</g>
</g>
<!-- Node2&#45;&gt;Node3 -->
<g id="edge2_Node000002_Node000003" class="edge">
<title>Node2&#45;&gt;Node3</title>
<g id="a_edge2_Node000002_Node000003"><a xlink:title=" ">
<path fill="none" stroke="#63b8ff" d="M83.79,-65.87C82.03,-59.03 79.5,-49.14 77.15,-39.97"/>
<polygon fill="#63b8ff" stroke="#63b8ff" points="80.49,-38.93 74.62,-30.11 73.71,-40.67 80.49,-38.93"/>
</a>
</g>
</g>
<!-- Node5 -->
<g id="Node000005" class="node">
<title>Node5</title>
<g id="a_Node000005"><a xlink:title=" ">
<polygon fill="#e0e0e0" stroke="#999999" points="310,-24.5 160,-24.5 160,-5.5 310,-5.5 310,-24.5"/>
<text text-anchor="middle" x="235" y="-12.5" font-family="Helvetica,sans-Serif" font-size="10.00">RmlUi/Core/EventListener.h</text>
</a>
</g>
</g>
<!-- Node4&#45;&gt;Node5 -->
<g id="edge4_Node000004_Node000005" class="edge">
<title>Node4&#45;&gt;Node5</title>
<g id="a_edge4_Node000004_Node000005"><a xlink:title=" ">
<path fill="none" stroke="#63b8ff" d="M228.18,-65.87C229.29,-57.75 230.99,-45.31 232.42,-34.89"/>
<polygon fill="#63b8ff" stroke="#63b8ff" points="235.93,-35.05 233.81,-24.67 228.99,-34.1 235.93,-35.05"/>
</a>
</g>
</g>
</g>
</svg>
