<?xml version="1.0" encoding="UTF-8" standalone="no"?>
<!DOCTYPE svg PUBLIC "-//W3C//DTD SVG 1.1//EN"
 "http://www.w3.org/Graphics/SVG/1.1/DTD/svg11.dtd">
<!-- Generated by graphviz version 2.43.0 (0)
 -->
<!-- Title: Clipboard++/RmlUI/EventHandlers/Clipboard++Events/ShortCutsMenu/ExpandEvent.h Pages: 1 -->
<svg width="630pt" height="379pt"
 viewBox="0.00 0.00 629.50 379.00" xmlns="http://www.w3.org/2000/svg" xmlns:xlink="http://www.w3.org/1999/xlink">
<g id="graph0" class="graph" transform="scale(1 1) rotate(0) translate(4 375)">
<title>Clipboard++/RmlUI/EventHandlers/Clipboard++Events/ShortCutsMenu/ExpandEvent.h</title>
<!-- Node1 -->
<g id="Node000001" class="node">
<title>Node1</title>
<g id="a_Node000001"><a xlink:title=" ">
<polygon fill="#999999" stroke="#666666" points="517,-371 324,-371 324,-330 517,-330 517,-371"/>
<text text-anchor="start" x="332" y="-359" font-family="Helvetica,sans-Serif" font-size="10.00">Clipboard++/RmlUI/EventHandlers</text>
<text text-anchor="start" x="332" y="-348" font-family="Helvetica,sans-Serif" font-size="10.00">/Clipboard++Events/ShortCutsMenu</text>
<text text-anchor="middle" x="420.5" y="-337" font-family="Helvetica,sans-Serif" font-size="10.00">/ExpandEvent.h</text>
</a>
</g>
</g>
<!-- Node2 -->
<g id="Node000002" class="node">
<title>Node2</title>
<g id="a_Node000002"><a xlink:href="Clipboard_09_09Event_8h.html" target="_top" xlink:title=" ">
<polygon fill="white" stroke="#666666" points="307.5,-294 191.5,-294 191.5,-275 307.5,-275 307.5,-294"/>
<text text-anchor="middle" x="249.5" y="-282" font-family="Helvetica,sans-Serif" font-size="10.00">Clipboard++Event.h</text>
</a>
</g>
</g>
<!-- Node1&#45;&gt;Node2 -->
<g id="edge1_Node000001_Node000002" class="edge">
<title>Node1&#45;&gt;Node2</title>
<g id="a_edge1_Node000001_Node000002"><a xlink:title=" ">
<path fill="none" stroke="#63b8ff" d="M368.27,-329.95C340.12,-319.42 306.28,-306.75 281.94,-297.64"/>
<polygon fill="#63b8ff" stroke="#63b8ff" points="283.05,-294.32 272.46,-294.09 280.6,-300.88 283.05,-294.32"/>
</a>
</g>
</g>
<!-- Node5 -->
<g id="Node000005" class="node">
<title>Node5</title>
<g id="a_Node000005"><a xlink:href="MemoryCellManager_8h.html" target="_top" xlink:title=" ">
<polygon fill="white" stroke="#666666" points="517.5,-239 323.5,-239 323.5,-220 517.5,-220 517.5,-239"/>
<text text-anchor="middle" x="420.5" y="-227" font-family="Helvetica,sans-Serif" font-size="10.00">MemoryCells/MemoryCellManager.h</text>
</a>
</g>
</g>
<!-- Node1&#45;&gt;Node5 -->
<g id="edge4_Node000001_Node000005" class="edge">
<title>Node1&#45;&gt;Node5</title>
<g id="a_edge4_Node000001_Node000005"><a xlink:title=" ">
<path fill="none" stroke="#63b8ff" d="M420.5,-329.85C420.5,-307.48 420.5,-271.19 420.5,-249.21"/>
<polygon fill="#63b8ff" stroke="#63b8ff" points="424,-249.18 420.5,-239.18 417,-249.18 424,-249.18"/>
</a>
</g>
</g>
<!-- Node15 -->
<g id="Node000015" class="node">
<title>Node15</title>
<g id="a_Node000015"><a xlink:href="ShortCutsViewModel_8h.html" target="_top" xlink:title=" ">
<polygon fill="white" stroke="#666666" points="592,-294 465,-294 465,-275 592,-275 592,-294"/>
<text text-anchor="middle" x="528.5" y="-282" font-family="Helvetica,sans-Serif" font-size="10.00">ShortCutsViewModel.h</text>
</a>
</g>
</g>
<!-- Node1&#45;&gt;Node15 -->
<g id="edge17_Node000001_Node000015" class="edge">
<title>Node1&#45;&gt;Node15</title>
<g id="a_edge17_Node000001_Node000015"><a xlink:title=" ">
<path fill="none" stroke="#63b8ff" d="M453.49,-329.95C470.24,-320.03 490.18,-308.21 505.29,-299.25"/>
<polygon fill="#63b8ff" stroke="#63b8ff" points="507.18,-302.2 514,-294.09 503.61,-296.18 507.18,-302.2"/>
</a>
</g>
</g>
<!-- Node3 -->
<g id="Node000003" class="node">
<title>Node3</title>
<g id="a_Node000003"><a xlink:title=" ">
<polygon fill="#e0e0e0" stroke="#999999" points="305.5,-239 193.5,-239 193.5,-220 305.5,-220 305.5,-239"/>
<text text-anchor="middle" x="249.5" y="-227" font-family="Helvetica,sans-Serif" font-size="10.00">RmlUi/Core/Types.h</text>
</a>
</g>
</g>
<!-- Node2&#45;&gt;Node3 -->
<g id="edge2_Node000002_Node000003" class="edge">
<title>Node2&#45;&gt;Node3</title>
<g id="a_edge2_Node000002_Node000003"><a xlink:title=" ">
<path fill="none" stroke="#63b8ff" d="M249.5,-274.75C249.5,-267.8 249.5,-257.85 249.5,-249.13"/>
<polygon fill="#63b8ff" stroke="#63b8ff" points="253,-249.09 249.5,-239.09 246,-249.09 253,-249.09"/>
</a>
</g>
</g>
<!-- Node4 -->
<g id="Node000004" class="node">
<title>Node4</title>
<g id="a_Node000004"><a xlink:title=" ">
<polygon fill="#e0e0e0" stroke="#999999" points="175,-239 0,-239 0,-220 175,-220 175,-239"/>
<text text-anchor="middle" x="87.5" y="-227" font-family="Helvetica,sans-Serif" font-size="10.00">RmlUi/Core/ElementDocument.h</text>
</a>
</g>
</g>
<!-- Node2&#45;&gt;Node4 -->
<g id="edge3_Node000002_Node000004" class="edge">
<title>Node2&#45;&gt;Node4</title>
<g id="a_edge3_Node000002_Node000004"><a xlink:title=" ">
<path fill="none" stroke="#63b8ff" d="M223.47,-274.98C196.39,-266.13 153.79,-252.19 123.49,-242.28"/>
<polygon fill="#63b8ff" stroke="#63b8ff" points="124.32,-238.87 113.73,-239.08 122.15,-245.52 124.32,-238.87"/>
</a>
</g>
</g>
<!-- Node6 -->
<g id="Node000006" class="node">
<title>Node6</title>
<g id="a_Node000006"><a xlink:href="ClipboardInterface_8h.html" target="_top" xlink:title=" ">
<polygon fill="white" stroke="#666666" points="505.5,-129 389.5,-129 389.5,-110 505.5,-110 505.5,-129"/>
<text text-anchor="middle" x="447.5" y="-117" font-family="Helvetica,sans-Serif" font-size="10.00">ClipboardInterface.h</text>
</a>
</g>
</g>
<!-- Node5&#45;&gt;Node6 -->
<g id="edge5_Node000005_Node000006" class="edge">
<title>Node5&#45;&gt;Node6</title>
<g id="a_edge5_Node000005_Node000006"><a xlink:title=" ">
<path fill="none" stroke="#63b8ff" d="M422.71,-219.66C427.1,-202.09 437.01,-162.45 442.89,-138.95"/>
<polygon fill="#63b8ff" stroke="#63b8ff" points="446.31,-139.71 445.34,-129.16 439.51,-138.01 446.31,-139.71"/>
</a>
</g>
</g>
<!-- Node9 -->
<g id="Node000009" class="node">
<title>Node9</title>
<g id="a_Node000009"><a xlink:title=" ">
<polygon fill="#e0e0e0" stroke="#999999" points="607,-19 560,-19 560,0 607,0 607,-19"/>
<text text-anchor="middle" x="583.5" y="-7" font-family="Helvetica,sans-Serif" font-size="10.00">vector</text>
</a>
</g>
</g>
<!-- Node5&#45;&gt;Node9 -->
<g id="edge15_Node000005_Node000009" class="edge">
<title>Node5&#45;&gt;Node9</title>
<g id="a_edge15_Node000005_Node000009"><a xlink:title=" ">
<path fill="none" stroke="#63b8ff" d="M456.8,-219.99C478.09,-213.35 504.13,-202.12 521.5,-184 563.86,-139.81 577.53,-64.73 581.74,-29.64"/>
<polygon fill="#63b8ff" stroke="#63b8ff" points="585.25,-29.69 582.83,-19.38 578.29,-28.95 585.25,-29.69"/>
</a>
</g>
</g>
<!-- Node11 -->
<g id="Node000011" class="node">
<title>Node11</title>
<g id="a_Node000011"><a xlink:href="ClipboardAdapter_8h.html" target="_top" xlink:title=" ">
<polygon fill="white" stroke="#666666" points="398.5,-184 288.5,-184 288.5,-165 398.5,-165 398.5,-184"/>
<text text-anchor="middle" x="343.5" y="-172" font-family="Helvetica,sans-Serif" font-size="10.00">ClipboardAdapter.h</text>
</a>
</g>
</g>
<!-- Node5&#45;&gt;Node11 -->
<g id="edge11_Node000005_Node000011" class="edge">
<title>Node5&#45;&gt;Node11</title>
<g id="a_edge11_Node000005_Node000011"><a xlink:title=" ">
<path fill="none" stroke="#63b8ff" d="M408.13,-219.98C396.41,-211.92 378.58,-199.65 364.61,-190.03"/>
<polygon fill="#63b8ff" stroke="#63b8ff" points="366.32,-186.96 356.1,-184.17 362.35,-192.72 366.32,-186.96"/>
</a>
</g>
</g>
<!-- Node14 -->
<g id="Node000014" class="node">
<title>Node14</title>
<g id="a_Node000014"><a xlink:title=" ">
<polygon fill="#e0e0e0" stroke="#999999" points="512.5,-184 454.5,-184 454.5,-165 512.5,-165 512.5,-184"/>
<text text-anchor="middle" x="483.5" y="-172" font-family="Helvetica,sans-Serif" font-size="10.00">memory</text>
</a>
</g>
</g>
<!-- Node5&#45;&gt;Node14 -->
<g id="edge16_Node000005_Node000014" class="edge">
<title>Node5&#45;&gt;Node14</title>
<g id="a_edge16_Node000005_Node000014"><a xlink:title=" ">
<path fill="none" stroke="#63b8ff" d="M430.62,-219.98C439.94,-212.15 453.97,-200.34 465.24,-190.86"/>
<polygon fill="#63b8ff" stroke="#63b8ff" points="467.79,-193.29 473.19,-184.17 463.29,-187.93 467.79,-193.29"/>
</a>
</g>
</g>
<!-- Node7 -->
<g id="Node000007" class="node">
<title>Node7</title>
<g id="a_Node000007"><a xlink:title=" ">
<polygon fill="#e0e0e0" stroke="#999999" points="400.5,-19 356.5,-19 356.5,0 400.5,0 400.5,-19"/>
<text text-anchor="middle" x="378.5" y="-7" font-family="Helvetica,sans-Serif" font-size="10.00">string</text>
</a>
</g>
</g>
<!-- Node6&#45;&gt;Node7 -->
<g id="edge6_Node000006_Node000007" class="edge">
<title>Node6&#45;&gt;Node7</title>
<g id="a_edge6_Node000006_Node000007"><a xlink:title=" ">
<path fill="none" stroke="#63b8ff" d="M432,-109.99C419.41,-102.25 402.19,-89.67 392.5,-74 384.23,-60.63 380.82,-43.02 379.42,-29.74"/>
<polygon fill="#63b8ff" stroke="#63b8ff" points="382.88,-29.11 378.64,-19.4 375.9,-29.63 382.88,-29.11"/>
</a>
</g>
</g>
<!-- Node8 -->
<g id="Node000008" class="node">
<title>Node8</title>
<g id="a_Node000008"><a xlink:href="KeyShortCut_8h.html" target="_top" xlink:title=" ">
<polygon fill="white" stroke="#666666" points="555.5,-74 401.5,-74 401.5,-55 555.5,-55 555.5,-74"/>
<text text-anchor="middle" x="478.5" y="-62" font-family="Helvetica,sans-Serif" font-size="10.00">KeyShortCuts/KeyShortCut.h</text>
</a>
</g>
</g>
<!-- Node6&#45;&gt;Node8 -->
<g id="edge7_Node000006_Node000008" class="edge">
<title>Node6&#45;&gt;Node8</title>
<g id="a_edge7_Node000006_Node000008"><a xlink:title=" ">
<path fill="none" stroke="#63b8ff" d="M452.62,-109.75C456.86,-102.49 463.03,-91.95 468.28,-82.98"/>
<polygon fill="#63b8ff" stroke="#63b8ff" points="471.45,-84.49 473.48,-74.09 465.41,-80.95 471.45,-84.49"/>
</a>
</g>
</g>
<!-- Node8&#45;&gt;Node7 -->
<g id="edge9_Node000008_Node000007" class="edge">
<title>Node8&#45;&gt;Node7</title>
<g id="a_edge9_Node000008_Node000007"><a xlink:title=" ">
<path fill="none" stroke="#63b8ff" d="M462.43,-54.98C446.64,-46.61 422.28,-33.7 403.87,-23.95"/>
<polygon fill="#63b8ff" stroke="#63b8ff" points="405.33,-20.76 394.86,-19.17 402.06,-26.95 405.33,-20.76"/>
</a>
</g>
</g>
<!-- Node8&#45;&gt;Node9 -->
<g id="edge8_Node000008_Node000009" class="edge">
<title>Node8&#45;&gt;Node9</title>
<g id="a_edge8_Node000008_Node000009"><a xlink:title=" ">
<path fill="none" stroke="#63b8ff" d="M495.37,-54.98C512.11,-46.54 538,-33.47 557.39,-23.68"/>
<polygon fill="#63b8ff" stroke="#63b8ff" points="558.97,-26.8 566.32,-19.17 555.82,-20.55 558.97,-26.8"/>
</a>
</g>
</g>
<!-- Node10 -->
<g id="Node000010" class="node">
<title>Node10</title>
<g id="a_Node000010"><a xlink:title=" ">
<polygon fill="#e0e0e0" stroke="#999999" points="533,-19 424,-19 424,0 533,0 533,-19"/>
<text text-anchor="middle" x="478.5" y="-7" font-family="Helvetica,sans-Serif" font-size="10.00">RmlUi/Core/Input.h</text>
</a>
</g>
</g>
<!-- Node8&#45;&gt;Node10 -->
<g id="edge10_Node000008_Node000010" class="edge">
<title>Node8&#45;&gt;Node10</title>
<g id="a_edge10_Node000008_Node000010"><a xlink:title=" ">
<path fill="none" stroke="#63b8ff" d="M478.5,-54.75C478.5,-47.8 478.5,-37.85 478.5,-29.13"/>
<polygon fill="#63b8ff" stroke="#63b8ff" points="482,-29.09 478.5,-19.09 475,-29.09 482,-29.09"/>
</a>
</g>
</g>
<!-- Node11&#45;&gt;Node6 -->
<g id="edge12_Node000011_Node000006" class="edge">
<title>Node11&#45;&gt;Node6</title>
<g id="a_edge12_Node000011_Node000006"><a xlink:title=" ">
<path fill="none" stroke="#63b8ff" d="M360.21,-164.98C376.71,-156.57 402.2,-143.59 421.38,-133.81"/>
<polygon fill="#63b8ff" stroke="#63b8ff" points="423.17,-136.83 430.49,-129.17 419.99,-130.59 423.17,-136.83"/>
</a>
</g>
</g>
<!-- Node12 -->
<g id="Node000012" class="node">
<title>Node12</title>
<g id="a_Node000012"><a xlink:title=" ">
<polygon fill="#e0e0e0" stroke="#999999" points="297,-129 226,-129 226,-110 297,-110 297,-129"/>
<text text-anchor="middle" x="261.5" y="-117" font-family="Helvetica,sans-Serif" font-size="10.00">QClipboard</text>
</a>
</g>
</g>
<!-- Node11&#45;&gt;Node12 -->
<g id="edge13_Node000011_Node000012" class="edge">
<title>Node11&#45;&gt;Node12</title>
<g id="a_edge13_Node000011_Node000012"><a xlink:title=" ">
<path fill="none" stroke="#63b8ff" d="M330.33,-164.98C317.73,-156.84 298.5,-144.41 283.56,-134.76"/>
<polygon fill="#63b8ff" stroke="#63b8ff" points="285.21,-131.66 274.91,-129.17 281.41,-137.54 285.21,-131.66"/>
</a>
</g>
</g>
<!-- Node13 -->
<g id="Node000013" class="node">
<title>Node13</title>
<g id="a_Node000013"><a xlink:title=" ">
<polygon fill="#e0e0e0" stroke="#999999" points="371.5,-129 315.5,-129 315.5,-110 371.5,-110 371.5,-129"/>
<text text-anchor="middle" x="343.5" y="-117" font-family="Helvetica,sans-Serif" font-size="10.00">QObject</text>
</a>
</g>
</g>
<!-- Node11&#45;&gt;Node13 -->
<g id="edge14_Node000011_Node000013" class="edge">
<title>Node11&#45;&gt;Node13</title>
<g id="a_edge14_Node000011_Node000013"><a xlink:title=" ">
<path fill="none" stroke="#63b8ff" d="M343.5,-164.75C343.5,-157.8 343.5,-147.85 343.5,-139.13"/>
<polygon fill="#63b8ff" stroke="#63b8ff" points="347,-139.09 343.5,-129.09 340,-139.09 347,-139.09"/>
</a>
</g>
</g>
<!-- Node15&#45;&gt;Node5 -->
<g id="edge19_Node000015_Node000005" class="edge">
<title>Node15&#45;&gt;Node5</title>
<g id="a_edge19_Node000015_Node000005"><a xlink:title=" ">
<path fill="none" stroke="#63b8ff" d="M511.15,-274.98C493.93,-266.54 467.3,-253.47 447.35,-243.68"/>
<polygon fill="#63b8ff" stroke="#63b8ff" points="448.69,-240.43 438.17,-239.17 445.6,-246.72 448.69,-240.43"/>
</a>
</g>
</g>
<!-- Node15&#45;&gt;Node6 -->
<g id="edge18_Node000015_Node000006" class="edge">
<title>Node15&#45;&gt;Node6</title>
<g id="a_edge18_Node000015_Node000006"><a xlink:title=" ">
<path fill="none" stroke="#63b8ff" d="M530.58,-274.92C535.1,-254.19 543.72,-200.45 521.5,-165 512.55,-150.73 497.2,-140.41 482.79,-133.32"/>
<polygon fill="#63b8ff" stroke="#63b8ff" points="484.08,-130.07 473.53,-129.13 481.19,-136.44 484.08,-130.07"/>
</a>
</g>
</g>
<!-- Node15&#45;&gt;Node9 -->
<g id="edge20_Node000015_Node000009" class="edge">
<title>Node15&#45;&gt;Node9</title>
<g id="a_edge20_Node000015_Node000009"><a xlink:title=" ">
<path fill="none" stroke="#63b8ff" d="M544.28,-274.79C570.81,-258.85 621.5,-222.27 621.5,-175.5 621.5,-175.5 621.5,-175.5 621.5,-118.5 621.5,-85.02 605.05,-48.84 593.8,-28.01"/>
<polygon fill="#63b8ff" stroke="#63b8ff" points="596.74,-26.1 588.78,-19.1 590.63,-29.53 596.74,-26.1"/>
</a>
</g>
</g>
</g>
</svg>
