<?xml version="1.0" encoding="UTF-8" standalone="no"?>
<!DOCTYPE svg PUBLIC "-//W3C//DTD SVG 1.1//EN"
 "http://www.w3.org/Graphics/SVG/1.1/DTD/svg11.dtd">
<!-- Generated by graphviz version 2.43.0 (0)
 -->
<!-- Title: Clipboard++/RmlUI/EventHandlers/Clipboard++Events/ShortCutsMenu/ExpandEvent.cpp Pages: 1 -->
<svg width="983pt" height="434pt"
 viewBox="0.00 0.00 982.78 434.00" xmlns="http://www.w3.org/2000/svg" xmlns:xlink="http://www.w3.org/1999/xlink">
<g id="graph0" class="graph" transform="scale(1 1) rotate(0) translate(4 430)">
<title>Clipboard++/RmlUI/EventHandlers/Clipboard++Events/ShortCutsMenu/ExpandEvent.cpp</title>
<!-- Node1 -->
<g id="Node000001" class="node">
<title>Node1</title>
<g id="a_Node000001"><a xlink:title=" ">
<polygon fill="#999999" stroke="#666666" points="754.28,-426 561.28,-426 561.28,-385 754.28,-385 754.28,-426"/>
<text text-anchor="start" x="569.28" y="-414" font-family="Helvetica,sans-Serif" font-size="10.00">Clipboard++/RmlUI/EventHandlers</text>
<text text-anchor="start" x="569.28" y="-403" font-family="Helvetica,sans-Serif" font-size="10.00">/Clipboard++Events/ShortCutsMenu</text>
<text text-anchor="middle" x="657.78" y="-392" font-family="Helvetica,sans-Serif" font-size="10.00">/ExpandEvent.cpp</text>
</a>
</g>
</g>
<!-- Node2 -->
<g id="Node000002" class="node">
<title>Node2</title>
<g id="a_Node000002"><a xlink:href="ExpandEvent_8h.html" target="_top" xlink:title=" ">
<polygon fill="white" stroke="#666666" points="702.28,-349 613.28,-349 613.28,-330 702.28,-330 702.28,-349"/>
<text text-anchor="middle" x="657.78" y="-337" font-family="Helvetica,sans-Serif" font-size="10.00">ExpandEvent.h</text>
</a>
</g>
</g>
<!-- Node1&#45;&gt;Node2 -->
<g id="edge1_Node000001_Node000002" class="edge">
<title>Node1&#45;&gt;Node2</title>
<g id="a_edge1_Node000001_Node000002"><a xlink:title=" ">
<path fill="none" stroke="#63b8ff" d="M657.78,-384.95C657.78,-376.85 657.78,-367.5 657.78,-359.47"/>
<polygon fill="#63b8ff" stroke="#63b8ff" points="661.28,-359.26 657.78,-349.26 654.28,-359.26 661.28,-359.26"/>
</a>
</g>
</g>
<!-- Node17 -->
<g id="Node000017" class="node">
<title>Node17</title>
<g id="a_Node000017"><a xlink:title=" ">
<polygon fill="#e0e0e0" stroke="#999999" points="824.78,-349 720.78,-349 720.78,-330 824.78,-330 824.78,-349"/>
<text text-anchor="middle" x="772.78" y="-337" font-family="Helvetica,sans-Serif" font-size="10.00">../EventManager.h</text>
</a>
</g>
</g>
<!-- Node1&#45;&gt;Node17 -->
<g id="edge22_Node000001_Node000017" class="edge">
<title>Node1&#45;&gt;Node17</title>
<g id="a_edge22_Node000001_Node000017"><a xlink:title=" ">
<path fill="none" stroke="#63b8ff" d="M692.91,-384.95C710.91,-374.93 732.38,-362.99 748.52,-354"/>
<polygon fill="#63b8ff" stroke="#63b8ff" points="750.31,-357.01 757.34,-349.09 746.9,-350.9 750.31,-357.01"/>
</a>
</g>
</g>
<!-- Node18 -->
<g id="Node000018" class="node">
<title>Node18</title>
<g id="a_Node000018"><a xlink:href="RmlUi__Backend_8h.html" target="_top" xlink:title=" ">
<polygon fill="white" stroke="#666666" points="341.78,-294 239.78,-294 239.78,-275 341.78,-275 341.78,-294"/>
<text text-anchor="middle" x="290.78" y="-282" font-family="Helvetica,sans-Serif" font-size="10.00">RmlUi_Backend.h</text>
</a>
</g>
</g>
<!-- Node1&#45;&gt;Node18 -->
<g id="edge23_Node000001_Node000018" class="edge">
<title>Node1&#45;&gt;Node18</title>
<g id="a_edge23_Node000001_Node000018"><a xlink:title=" ">
<path fill="none" stroke="#63b8ff" d="M597.59,-384.98C520.73,-360.06 390.15,-317.72 327.05,-297.26"/>
<polygon fill="#63b8ff" stroke="#63b8ff" points="327.75,-293.81 317.16,-294.05 325.59,-300.47 327.75,-293.81"/>
</a>
</g>
</g>
<!-- Node3 -->
<g id="Node000003" class="node">
<title>Node3</title>
<g id="a_Node000003"><a xlink:href="Clipboard_09_09Event_8h.html" target="_top" xlink:title=" ">
<polygon fill="white" stroke="#666666" points="666.78,-294 550.78,-294 550.78,-275 666.78,-275 666.78,-294"/>
<text text-anchor="middle" x="608.78" y="-282" font-family="Helvetica,sans-Serif" font-size="10.00">Clipboard++Event.h</text>
</a>
</g>
</g>
<!-- Node2&#45;&gt;Node3 -->
<g id="edge2_Node000002_Node000003" class="edge">
<title>Node2&#45;&gt;Node3</title>
<g id="a_edge2_Node000002_Node000003"><a xlink:title=" ">
<path fill="none" stroke="#63b8ff" d="M649.69,-329.75C642.62,-322.11 632.19,-310.82 623.63,-301.56"/>
<polygon fill="#63b8ff" stroke="#63b8ff" points="626.08,-299.06 616.72,-294.09 620.94,-303.81 626.08,-299.06"/>
</a>
</g>
</g>
<!-- Node6 -->
<g id="Node000006" class="node">
<title>Node6</title>
<g id="a_Node000006"><a xlink:href="MemoryCellManager_8h.html" target="_top" xlink:title=" ">
<polygon fill="white" stroke="#666666" points="908.78,-239 714.78,-239 714.78,-220 908.78,-220 908.78,-239"/>
<text text-anchor="middle" x="811.78" y="-227" font-family="Helvetica,sans-Serif" font-size="10.00">MemoryCells/MemoryCellManager.h</text>
</a>
</g>
</g>
<!-- Node2&#45;&gt;Node6 -->
<g id="edge5_Node000002_Node000006" class="edge">
<title>Node2&#45;&gt;Node6</title>
<g id="a_edge5_Node000002_Node000006"><a xlink:title=" ">
<path fill="none" stroke="#63b8ff" d="M670.12,-329.84C696.48,-311.36 758.51,-267.86 791.04,-245.05"/>
<polygon fill="#63b8ff" stroke="#63b8ff" points="793.2,-247.8 799.38,-239.2 789.18,-242.07 793.2,-247.8"/>
</a>
</g>
</g>
<!-- Node16 -->
<g id="Node000016" class="node">
<title>Node16</title>
<g id="a_Node000016"><a xlink:href="ShortCutsViewModel_8h.html" target="_top" xlink:title=" ">
<polygon fill="white" stroke="#666666" points="927.28,-294 800.28,-294 800.28,-275 927.28,-275 927.28,-294"/>
<text text-anchor="middle" x="863.78" y="-282" font-family="Helvetica,sans-Serif" font-size="10.00">ShortCutsViewModel.h</text>
</a>
</g>
</g>
<!-- Node2&#45;&gt;Node16 -->
<g id="edge18_Node000002_Node000016" class="edge">
<title>Node2&#45;&gt;Node16</title>
<g id="a_edge18_Node000002_Node000016"><a xlink:title=" ">
<path fill="none" stroke="#63b8ff" d="M690.88,-329.98C726.06,-320.93 781.85,-306.58 820.5,-296.64"/>
<polygon fill="#63b8ff" stroke="#63b8ff" points="821.61,-299.96 830.42,-294.08 819.87,-293.18 821.61,-299.96"/>
</a>
</g>
</g>
<!-- Node4 -->
<g id="Node000004" class="node">
<title>Node4</title>
<g id="a_Node000004"><a xlink:title=" ">
<polygon fill="#e0e0e0" stroke="#999999" points="502.78,-239 390.78,-239 390.78,-220 502.78,-220 502.78,-239"/>
<text text-anchor="middle" x="446.78" y="-227" font-family="Helvetica,sans-Serif" font-size="10.00">RmlUi/Core/Types.h</text>
</a>
</g>
</g>
<!-- Node3&#45;&gt;Node4 -->
<g id="edge3_Node000003_Node000004" class="edge">
<title>Node3&#45;&gt;Node4</title>
<g id="a_edge3_Node000003_Node000004"><a xlink:title=" ">
<path fill="none" stroke="#63b8ff" d="M582.75,-274.98C555.67,-266.13 513.07,-252.19 482.77,-242.28"/>
<polygon fill="#63b8ff" stroke="#63b8ff" points="483.6,-238.87 473.01,-239.08 481.43,-245.52 483.6,-238.87"/>
</a>
</g>
</g>
<!-- Node5 -->
<g id="Node000005" class="node">
<title>Node5</title>
<g id="a_Node000005"><a xlink:title=" ">
<polygon fill="#e0e0e0" stroke="#999999" points="696.28,-239 521.28,-239 521.28,-220 696.28,-220 696.28,-239"/>
<text text-anchor="middle" x="608.78" y="-227" font-family="Helvetica,sans-Serif" font-size="10.00">RmlUi/Core/ElementDocument.h</text>
</a>
</g>
</g>
<!-- Node3&#45;&gt;Node5 -->
<g id="edge4_Node000003_Node000005" class="edge">
<title>Node3&#45;&gt;Node5</title>
<g id="a_edge4_Node000003_Node000005"><a xlink:title=" ">
<path fill="none" stroke="#63b8ff" d="M608.78,-274.75C608.78,-267.8 608.78,-257.85 608.78,-249.13"/>
<polygon fill="#63b8ff" stroke="#63b8ff" points="612.28,-249.09 608.78,-239.09 605.28,-249.09 612.28,-249.09"/>
</a>
</g>
</g>
<!-- Node7 -->
<g id="Node000007" class="node">
<title>Node7</title>
<g id="a_Node000007"><a xlink:href="ClipboardInterface_8h.html" target="_top" xlink:title=" ">
<polygon fill="white" stroke="#666666" points="870.78,-129 754.78,-129 754.78,-110 870.78,-110 870.78,-129"/>
<text text-anchor="middle" x="812.78" y="-117" font-family="Helvetica,sans-Serif" font-size="10.00">ClipboardInterface.h</text>
</a>
</g>
</g>
<!-- Node6&#45;&gt;Node7 -->
<g id="edge6_Node000006_Node000007" class="edge">
<title>Node6&#45;&gt;Node7</title>
<g id="a_edge6_Node000006_Node000007"><a xlink:title=" ">
<path fill="none" stroke="#63b8ff" d="M819.99,-219.8C827.32,-211.38 837.53,-197.9 841.78,-184 846.85,-167.43 837.2,-149.55 827.7,-137.01"/>
<polygon fill="#63b8ff" stroke="#63b8ff" points="830.38,-134.76 821.33,-129.25 824.98,-139.2 830.38,-134.76"/>
</a>
</g>
</g>
<!-- Node10 -->
<g id="Node000010" class="node">
<title>Node10</title>
<g id="a_Node000010"><a xlink:title=" ">
<polygon fill="#e0e0e0" stroke="#999999" points="922.28,-19 875.28,-19 875.28,0 922.28,0 922.28,-19"/>
<text text-anchor="middle" x="898.78" y="-7" font-family="Helvetica,sans-Serif" font-size="10.00">vector</text>
</a>
</g>
</g>
<!-- Node6&#45;&gt;Node10 -->
<g id="edge16_Node000006_Node000010" class="edge">
<title>Node6&#45;&gt;Node10</title>
<g id="a_edge16_Node000006_Node000010"><a xlink:title=" ">
<path fill="none" stroke="#63b8ff" d="M822.32,-219.86C832.01,-211.49 846.27,-198.03 855.78,-184 888.8,-135.28 896.49,-63.53 898.27,-29.61"/>
<polygon fill="#63b8ff" stroke="#63b8ff" points="901.78,-29.42 898.68,-19.29 894.78,-29.14 901.78,-29.42"/>
</a>
</g>
</g>
<!-- Node12 -->
<g id="Node000012" class="node">
<title>Node12</title>
<g id="a_Node000012"><a xlink:href="ClipboardAdapter_8h.html" target="_top" xlink:title=" ">
<polygon fill="white" stroke="#666666" points="756.78,-184 646.78,-184 646.78,-165 756.78,-165 756.78,-184"/>
<text text-anchor="middle" x="701.78" y="-172" font-family="Helvetica,sans-Serif" font-size="10.00">ClipboardAdapter.h</text>
</a>
</g>
</g>
<!-- Node6&#45;&gt;Node12 -->
<g id="edge12_Node000006_Node000012" class="edge">
<title>Node6&#45;&gt;Node12</title>
<g id="a_edge12_Node000006_Node000012"><a xlink:title=" ">
<path fill="none" stroke="#63b8ff" d="M794.11,-219.98C776.49,-211.5 749.2,-198.35 728.85,-188.54"/>
<polygon fill="#63b8ff" stroke="#63b8ff" points="730.3,-185.36 719.77,-184.17 727.26,-191.66 730.3,-185.36"/>
</a>
</g>
</g>
<!-- Node15 -->
<g id="Node000015" class="node">
<title>Node15</title>
<g id="a_Node000015"><a xlink:title=" ">
<polygon fill="#e0e0e0" stroke="#999999" points="832.78,-184 774.78,-184 774.78,-165 832.78,-165 832.78,-184"/>
<text text-anchor="middle" x="803.78" y="-172" font-family="Helvetica,sans-Serif" font-size="10.00">memory</text>
</a>
</g>
</g>
<!-- Node6&#45;&gt;Node15 -->
<g id="edge17_Node000006_Node000015" class="edge">
<title>Node6&#45;&gt;Node15</title>
<g id="a_edge17_Node000006_Node000015"><a xlink:title=" ">
<path fill="none" stroke="#63b8ff" d="M810.46,-219.75C809.41,-212.8 807.91,-202.85 806.59,-194.13"/>
<polygon fill="#63b8ff" stroke="#63b8ff" points="810.03,-193.45 805.08,-184.09 803.11,-194.5 810.03,-193.45"/>
</a>
</g>
</g>
<!-- Node8 -->
<g id="Node000008" class="node">
<title>Node8</title>
<g id="a_Node000008"><a xlink:title=" ">
<polygon fill="#e0e0e0" stroke="#999999" points="805.78,-19 761.78,-19 761.78,0 805.78,0 805.78,-19"/>
<text text-anchor="middle" x="783.78" y="-7" font-family="Helvetica,sans-Serif" font-size="10.00">string</text>
</a>
</g>
</g>
<!-- Node7&#45;&gt;Node8 -->
<g id="edge7_Node000007_Node000008" class="edge">
<title>Node7&#45;&gt;Node8</title>
<g id="a_edge7_Node000007_Node000008"><a xlink:title=" ">
<path fill="none" stroke="#63b8ff" d="M815.65,-109.6C819.21,-97.06 824.09,-73.65 817.78,-55 814.22,-44.47 807.06,-34.48 800.23,-26.63"/>
<polygon fill="#63b8ff" stroke="#63b8ff" points="802.77,-24.23 793.39,-19.31 797.65,-29.01 802.77,-24.23"/>
</a>
</g>
</g>
<!-- Node9 -->
<g id="Node000009" class="node">
<title>Node9</title>
<g id="a_Node000009"><a xlink:href="KeyShortCut_8h.html" target="_top" xlink:title=" ">
<polygon fill="white" stroke="#666666" points="808.78,-74 654.78,-74 654.78,-55 808.78,-55 808.78,-74"/>
<text text-anchor="middle" x="731.78" y="-62" font-family="Helvetica,sans-Serif" font-size="10.00">KeyShortCuts/KeyShortCut.h</text>
</a>
</g>
</g>
<!-- Node7&#45;&gt;Node9 -->
<g id="edge8_Node000007_Node000009" class="edge">
<title>Node7&#45;&gt;Node9</title>
<g id="a_edge8_Node000007_Node000009"><a xlink:title=" ">
<path fill="none" stroke="#63b8ff" d="M799.77,-109.98C787.32,-101.84 768.32,-89.41 753.57,-79.76"/>
<polygon fill="#63b8ff" stroke="#63b8ff" points="755.32,-76.72 745.03,-74.17 751.48,-82.57 755.32,-76.72"/>
</a>
</g>
</g>
<!-- Node9&#45;&gt;Node8 -->
<g id="edge10_Node000009_Node000008" class="edge">
<title>Node9&#45;&gt;Node8</title>
<g id="a_edge10_Node000009_Node000008"><a xlink:title=" ">
<path fill="none" stroke="#63b8ff" d="M740.37,-54.75C747.94,-47.03 759.16,-35.6 768.29,-26.28"/>
<polygon fill="#63b8ff" stroke="#63b8ff" points="770.85,-28.68 775.35,-19.09 765.85,-23.78 770.85,-28.68"/>
</a>
</g>
</g>
<!-- Node9&#45;&gt;Node10 -->
<g id="edge9_Node000009_Node000010" class="edge">
<title>Node9&#45;&gt;Node10</title>
<g id="a_edge9_Node000009_Node000010"><a xlink:title=" ">
<path fill="none" stroke="#63b8ff" d="M758.61,-54.98C787.73,-45.74 834.26,-30.98 865.64,-21.02"/>
<polygon fill="#63b8ff" stroke="#63b8ff" points="866.78,-24.33 875.25,-17.97 864.66,-17.66 866.78,-24.33"/>
</a>
</g>
</g>
<!-- Node11 -->
<g id="Node000011" class="node">
<title>Node11</title>
<g id="a_Node000011"><a xlink:title=" ">
<polygon fill="#e0e0e0" stroke="#999999" points="437.28,-19 328.28,-19 328.28,0 437.28,0 437.28,-19"/>
<text text-anchor="middle" x="382.78" y="-7" font-family="Helvetica,sans-Serif" font-size="10.00">RmlUi/Core/Input.h</text>
</a>
</g>
</g>
<!-- Node9&#45;&gt;Node11 -->
<g id="edge11_Node000009_Node000011" class="edge">
<title>Node9&#45;&gt;Node11</title>
<g id="a_edge11_Node000009_Node000011"><a xlink:title=" ">
<path fill="none" stroke="#63b8ff" d="M675.71,-54.98C613.52,-45.54 513.34,-30.33 447.78,-20.37"/>
<polygon fill="#63b8ff" stroke="#63b8ff" points="447.98,-16.86 437.56,-18.82 446.92,-23.78 447.98,-16.86"/>
</a>
</g>
</g>
<!-- Node12&#45;&gt;Node7 -->
<g id="edge13_Node000012_Node000007" class="edge">
<title>Node12&#45;&gt;Node7</title>
<g id="a_edge13_Node000012_Node000007"><a xlink:title=" ">
<path fill="none" stroke="#63b8ff" d="M719.61,-164.98C737.39,-156.5 764.93,-143.35 785.46,-133.54"/>
<polygon fill="#63b8ff" stroke="#63b8ff" points="787.11,-136.64 794.62,-129.17 784.09,-130.32 787.11,-136.64"/>
</a>
</g>
</g>
<!-- Node13 -->
<g id="Node000013" class="node">
<title>Node13</title>
<g id="a_Node000013"><a xlink:title=" ">
<polygon fill="#e0e0e0" stroke="#999999" points="659.28,-129 588.28,-129 588.28,-110 659.28,-110 659.28,-129"/>
<text text-anchor="middle" x="623.78" y="-117" font-family="Helvetica,sans-Serif" font-size="10.00">QClipboard</text>
</a>
</g>
</g>
<!-- Node12&#45;&gt;Node13 -->
<g id="edge14_Node000012_Node000013" class="edge">
<title>Node12&#45;&gt;Node13</title>
<g id="a_edge14_Node000012_Node000013"><a xlink:title=" ">
<path fill="none" stroke="#63b8ff" d="M689.25,-164.98C677.38,-156.92 659.32,-144.65 645.17,-135.03"/>
<polygon fill="#63b8ff" stroke="#63b8ff" points="646.78,-131.9 636.54,-129.17 642.84,-137.69 646.78,-131.9"/>
</a>
</g>
</g>
<!-- Node14 -->
<g id="Node000014" class="node">
<title>Node14</title>
<g id="a_Node000014"><a xlink:title=" ">
<polygon fill="#e0e0e0" stroke="#999999" points="733.78,-129 677.78,-129 677.78,-110 733.78,-110 733.78,-129"/>
<text text-anchor="middle" x="705.78" y="-117" font-family="Helvetica,sans-Serif" font-size="10.00">QObject</text>
</a>
</g>
</g>
<!-- Node12&#45;&gt;Node14 -->
<g id="edge15_Node000012_Node000014" class="edge">
<title>Node12&#45;&gt;Node14</title>
<g id="a_edge15_Node000012_Node000014"><a xlink:title=" ">
<path fill="none" stroke="#63b8ff" d="M702.44,-164.75C702.96,-157.8 703.72,-147.85 704.37,-139.13"/>
<polygon fill="#63b8ff" stroke="#63b8ff" points="707.87,-139.32 705.13,-129.09 700.89,-138.8 707.87,-139.32"/>
</a>
</g>
</g>
<!-- Node16&#45;&gt;Node6 -->
<g id="edge20_Node000016_Node000006" class="edge">
<title>Node16&#45;&gt;Node6</title>
<g id="a_edge20_Node000016_Node000006"><a xlink:title=" ">
<path fill="none" stroke="#63b8ff" d="M855.19,-274.75C847.62,-267.03 836.4,-255.6 827.27,-246.28"/>
<polygon fill="#63b8ff" stroke="#63b8ff" points="829.71,-243.78 820.21,-239.09 824.71,-248.68 829.71,-243.78"/>
</a>
</g>
</g>
<!-- Node16&#45;&gt;Node7 -->
<g id="edge19_Node000016_Node000007" class="edge">
<title>Node16&#45;&gt;Node7</title>
<g id="a_edge19_Node000016_Node000007"><a xlink:title=" ">
<path fill="none" stroke="#63b8ff" d="M880.58,-274.86C899.86,-263.67 927.61,-242.87 917.78,-220 901.34,-181.78 862.21,-151.36 836.64,-134.65"/>
<polygon fill="#63b8ff" stroke="#63b8ff" points="838.22,-131.51 827.9,-129.12 834.48,-137.43 838.22,-131.51"/>
</a>
</g>
</g>
<!-- Node16&#45;&gt;Node10 -->
<g id="edge21_Node000016_Node000010" class="edge">
<title>Node16&#45;&gt;Node10</title>
<g id="a_edge21_Node000016_Node000010"><a xlink:title=" ">
<path fill="none" stroke="#63b8ff" d="M884.14,-274.91C916.18,-259.86 974.78,-225.51 974.78,-175.5 974.78,-175.5 974.78,-175.5 974.78,-118.5 974.78,-79.47 941.17,-44.58 918.65,-25.6"/>
<polygon fill="#63b8ff" stroke="#63b8ff" points="920.63,-22.7 910.65,-19.12 916.22,-28.14 920.63,-22.7"/>
</a>
</g>
</g>
<!-- Node18&#45;&gt;Node4 -->
<g id="edge27_Node000018_Node000004" class="edge">
<title>Node18&#45;&gt;Node4</title>
<g id="a_edge27_Node000018_Node000004"><a xlink:title=" ">
<path fill="none" stroke="#63b8ff" d="M315.84,-274.98C341.81,-266.16 382.59,-252.31 411.74,-242.41"/>
<polygon fill="#63b8ff" stroke="#63b8ff" points="413.18,-245.61 421.52,-239.08 410.92,-238.99 413.18,-245.61"/>
</a>
</g>
</g>
<!-- Node18&#45;&gt;Node11 -->
<g id="edge24_Node000018_Node000011" class="edge">
<title>Node18&#45;&gt;Node11</title>
<g id="a_edge24_Node000018_Node000011"><a xlink:title=" ">
<path fill="none" stroke="#63b8ff" d="M239.51,-281.43C170.21,-277.59 51.64,-267.03 19.78,-239 -2.34,-219.54 0.78,-204.96 0.78,-175.5 0.78,-175.5 0.78,-175.5 0.78,-118.5 0.78,-53.4 208.79,-25.57 317.82,-15.45"/>
<polygon fill="#63b8ff" stroke="#63b8ff" points="318.4,-18.91 328.05,-14.53 317.77,-11.94 318.4,-18.91"/>
</a>
</g>
</g>
<!-- Node19 -->
<g id="Node000019" class="node">
<title>Node19</title>
<g id="a_Node000019"><a xlink:title=" ">
<polygon fill="#e0e0e0" stroke="#999999" points="190.78,-239 28.78,-239 28.78,-220 190.78,-220 190.78,-239"/>
<text text-anchor="middle" x="109.78" y="-227" font-family="Helvetica,sans-Serif" font-size="10.00">RmlUi/Core/RenderInterface.h</text>
</a>
</g>
</g>
<!-- Node18&#45;&gt;Node19 -->
<g id="edge25_Node000018_Node000019" class="edge">
<title>Node18&#45;&gt;Node19</title>
<g id="a_edge25_Node000018_Node000019"><a xlink:title=" ">
<path fill="none" stroke="#63b8ff" d="M261.7,-274.98C231.18,-266.05 183.02,-251.94 149.12,-242.02"/>
<polygon fill="#63b8ff" stroke="#63b8ff" points="149.67,-238.53 139.09,-239.08 147.7,-245.25 149.67,-238.53"/>
</a>
</g>
</g>
<!-- Node20 -->
<g id="Node000020" class="node">
<title>Node20</title>
<g id="a_Node000020"><a xlink:title=" ">
<polygon fill="#e0e0e0" stroke="#999999" points="372.78,-239 208.78,-239 208.78,-220 372.78,-220 372.78,-239"/>
<text text-anchor="middle" x="290.78" y="-227" font-family="Helvetica,sans-Serif" font-size="10.00">RmlUi/Core/SystemInterface.h</text>
</a>
</g>
</g>
<!-- Node18&#45;&gt;Node20 -->
<g id="edge26_Node000018_Node000020" class="edge">
<title>Node18&#45;&gt;Node20</title>
<g id="a_edge26_Node000018_Node000020"><a xlink:title=" ">
<path fill="none" stroke="#63b8ff" d="M290.78,-274.75C290.78,-267.8 290.78,-257.85 290.78,-249.13"/>
<polygon fill="#63b8ff" stroke="#63b8ff" points="294.28,-249.09 290.78,-239.09 287.28,-249.09 294.28,-249.09"/>
</a>
</g>
</g>
</g>
</svg>
