<?xml version="1.0" encoding="UTF-8" standalone="no"?>
<!DOCTYPE svg PUBLIC "-//W3C//DTD SVG 1.1//EN"
 "http://www.w3.org/Graphics/SVG/1.1/DTD/svg11.dtd">
<!-- Generated by graphviz version 2.43.0 (0)
 -->
<!-- Title: Clipboard++/RmlUI/EventHandlers/Clipboard++Events/Export/ExportFileEvent.h Pages: 1 -->
<svg width="1004pt" height="335pt"
 viewBox="0.00 0.00 1003.50 335.00" xmlns="http://www.w3.org/2000/svg" xmlns:xlink="http://www.w3.org/1999/xlink">
<g id="graph0" class="graph" transform="scale(1 1) rotate(0) translate(4 331)">
<title>Clipboard++/RmlUI/EventHandlers/Clipboard++Events/Export/ExportFileEvent.h</title>
<!-- Node1 -->
<g id="Node000001" class="node">
<title>Node1</title>
<g id="a_Node000001"><a xlink:title=" ">
<polygon fill="#999999" stroke="#666666" points="643.5,-327 456.5,-327 456.5,-286 643.5,-286 643.5,-327"/>
<text text-anchor="start" x="464.5" y="-315" font-family="Helvetica,sans-Serif" font-size="10.00">Clipboard++/RmlUI/EventHandlers</text>
<text text-anchor="start" x="464.5" y="-304" font-family="Helvetica,sans-Serif" font-size="10.00">/Clipboard++Events/Export</text>
<text text-anchor="middle" x="550" y="-293" font-family="Helvetica,sans-Serif" font-size="10.00">/ExportFileEvent.h</text>
</a>
</g>
</g>
<!-- Node2 -->
<g id="Node000002" class="node">
<title>Node2</title>
<g id="a_Node000002"><a xlink:href="MemoryCellManager_8h.html" target="_top" xlink:title=" ">
<polygon fill="white" stroke="#666666" points="301,-250 163,-250 163,-220 301,-220 301,-250"/>
<text text-anchor="start" x="171" y="-238" font-family="Helvetica,sans-Serif" font-size="10.00">QClipboard/MemoryCells</text>
<text text-anchor="middle" x="232" y="-227" font-family="Helvetica,sans-Serif" font-size="10.00">/MemoryCellManager.h</text>
</a>
</g>
</g>
<!-- Node1&#45;&gt;Node2 -->
<g id="edge1_Node000001_Node000002" class="edge">
<title>Node1&#45;&gt;Node2</title>
<g id="a_edge1_Node000001_Node000002"><a xlink:title=" ">
<path fill="none" stroke="#63b8ff" d="M460.57,-285.96C411.8,-275.3 352.14,-262.26 306,-252.17"/>
<polygon fill="#63b8ff" stroke="#63b8ff" points="306.59,-248.72 296.08,-250 305.1,-255.56 306.59,-248.72"/>
</a>
</g>
</g>
<!-- Node12 -->
<g id="Node000012" class="node">
<title>Node12</title>
<g id="a_Node000012"><a xlink:href="FileManager_8h.html" target="_top" xlink:title=" ">
<polygon fill="white" stroke="#666666" points="522,-129 412,-129 412,-110 522,-110 522,-129"/>
<text text-anchor="middle" x="467" y="-117" font-family="Helvetica,sans-Serif" font-size="10.00">Utils/FileManager.h</text>
</a>
</g>
</g>
<!-- Node1&#45;&gt;Node12 -->
<g id="edge14_Node000001_Node000012" class="edge">
<title>Node1&#45;&gt;Node12</title>
<g id="a_edge14_Node000001_Node000012"><a xlink:title=" ">
<path fill="none" stroke="#63b8ff" d="M541.12,-285.7C524.9,-249.55 490.72,-173.36 475.1,-138.55"/>
<polygon fill="#63b8ff" stroke="#63b8ff" points="478.17,-136.85 470.89,-129.16 471.79,-139.72 478.17,-136.85"/>
</a>
</g>
</g>
<!-- Node13 -->
<g id="Node000013" class="node">
<title>Node13</title>
<g id="a_Node000013"><a xlink:href="TranslationManager_8h.html" target="_top" xlink:title=" ">
<polygon fill="white" stroke="#666666" points="595.5,-74 474.5,-74 474.5,-55 595.5,-55 595.5,-74"/>
<text text-anchor="middle" x="535" y="-62" font-family="Helvetica,sans-Serif" font-size="10.00">TranslationManager.h</text>
</a>
</g>
</g>
<!-- Node1&#45;&gt;Node13 -->
<g id="edge20_Node000001_Node000013" class="edge">
<title>Node1&#45;&gt;Node13</title>
<g id="a_edge20_Node000001_Node000013"><a xlink:title=" ">
<path fill="none" stroke="#63b8ff" d="M548.77,-285.86C545.94,-240.55 538.98,-129.16 536.19,-84.49"/>
<polygon fill="#63b8ff" stroke="#63b8ff" points="539.67,-84.19 535.56,-74.43 532.69,-84.62 539.67,-84.19"/>
</a>
</g>
</g>
<!-- Node15 -->
<g id="Node000015" class="node">
<title>Node15</title>
<g id="a_Node000015"><a xlink:href="StringUtils_8h.html" target="_top" xlink:title=" ">
<polygon fill="white" stroke="#666666" points="680,-244.5 578,-244.5 578,-225.5 680,-225.5 680,-244.5"/>
<text text-anchor="middle" x="629" y="-232.5" font-family="Helvetica,sans-Serif" font-size="10.00">Utils/StringUtils.h</text>
</a>
</g>
</g>
<!-- Node1&#45;&gt;Node15 -->
<g id="edge21_Node000001_Node000015" class="edge">
<title>Node1&#45;&gt;Node15</title>
<g id="a_edge21_Node000001_Node000015"><a xlink:title=" ">
<path fill="none" stroke="#63b8ff" d="M572.43,-285.77C584.76,-274.92 599.84,-261.65 611.33,-251.54"/>
<polygon fill="#63b8ff" stroke="#63b8ff" points="613.78,-254.05 618.97,-244.82 609.15,-248.8 613.78,-254.05"/>
</a>
</g>
</g>
<!-- Node17 -->
<g id="Node000017" class="node">
<title>Node17</title>
<g id="a_Node000017"><a xlink:href="Clipboard_09_09Event_8h.html" target="_top" xlink:title=" ">
<polygon fill="white" stroke="#666666" points="814,-244.5 698,-244.5 698,-225.5 814,-225.5 814,-244.5"/>
<text text-anchor="middle" x="756" y="-232.5" font-family="Helvetica,sans-Serif" font-size="10.00">Clipboard++Event.h</text>
</a>
</g>
</g>
<!-- Node1&#45;&gt;Node17 -->
<g id="edge25_Node000001_Node000017" class="edge">
<title>Node1&#45;&gt;Node17</title>
<g id="a_edge25_Node000001_Node000017"><a xlink:title=" ">
<path fill="none" stroke="#63b8ff" d="M607.93,-285.96C644.44,-273.64 690.36,-258.15 721.31,-247.71"/>
<polygon fill="#63b8ff" stroke="#63b8ff" points="722.44,-251.02 730.8,-244.5 720.2,-244.38 722.44,-251.02"/>
</a>
</g>
</g>
<!-- Node3 -->
<g id="Node000003" class="node">
<title>Node3</title>
<g id="a_Node000003"><a xlink:href="ClipboardInterface_8h.html" target="_top" xlink:title=" ">
<polygon fill="white" stroke="#666666" points="394,-129 278,-129 278,-110 394,-110 394,-129"/>
<text text-anchor="middle" x="336" y="-117" font-family="Helvetica,sans-Serif" font-size="10.00">ClipboardInterface.h</text>
</a>
</g>
</g>
<!-- Node2&#45;&gt;Node3 -->
<g id="edge2_Node000002_Node000003" class="edge">
<title>Node2&#45;&gt;Node3</title>
<g id="a_edge2_Node000002_Node000003"><a xlink:title=" ">
<path fill="none" stroke="#63b8ff" d="M253.72,-219.89C266.9,-210.67 283.52,-197.81 296,-184 308.53,-170.13 319.58,-151.87 326.87,-138.49"/>
<polygon fill="#63b8ff" stroke="#63b8ff" points="330.11,-139.84 331.67,-129.37 323.92,-136.58 330.11,-139.84"/>
</a>
</g>
</g>
<!-- Node6 -->
<g id="Node000006" class="node">
<title>Node6</title>
<g id="a_Node000006"><a xlink:title=" ">
<polygon fill="#e0e0e0" stroke="#999999" points="259.5,-19 212.5,-19 212.5,0 259.5,0 259.5,-19"/>
<text text-anchor="middle" x="236" y="-7" font-family="Helvetica,sans-Serif" font-size="10.00">vector</text>
</a>
</g>
</g>
<!-- Node2&#45;&gt;Node6 -->
<g id="edge12_Node000002_Node000006" class="edge">
<title>Node2&#45;&gt;Node6</title>
<g id="a_edge12_Node000002_Node000006"><a xlink:title=" ">
<path fill="none" stroke="#63b8ff" d="M196.64,-219.99C151.14,-199.66 80.69,-159 105,-110 125.88,-67.92 174.01,-38.84 205.75,-23.42"/>
<polygon fill="#63b8ff" stroke="#63b8ff" points="207.46,-26.49 215.03,-19.08 204.49,-20.15 207.46,-26.49"/>
</a>
</g>
</g>
<!-- Node8 -->
<g id="Node000008" class="node">
<title>Node8</title>
<g id="a_Node000008"><a xlink:href="ClipboardAdapter_8h.html" target="_top" xlink:title=" ">
<polygon fill="white" stroke="#666666" points="287,-184 177,-184 177,-165 287,-165 287,-184"/>
<text text-anchor="middle" x="232" y="-172" font-family="Helvetica,sans-Serif" font-size="10.00">ClipboardAdapter.h</text>
</a>
</g>
</g>
<!-- Node2&#45;&gt;Node8 -->
<g id="edge8_Node000002_Node000008" class="edge">
<title>Node2&#45;&gt;Node8</title>
<g id="a_edge8_Node000002_Node000008"><a xlink:title=" ">
<path fill="none" stroke="#63b8ff" d="M232,-219.84C232,-212.21 232,-202.7 232,-194.45"/>
<polygon fill="#63b8ff" stroke="#63b8ff" points="235.5,-194.27 232,-184.27 228.5,-194.27 235.5,-194.27"/>
</a>
</g>
</g>
<!-- Node11 -->
<g id="Node000011" class="node">
<title>Node11</title>
<g id="a_Node000011"><a xlink:title=" ">
<polygon fill="#e0e0e0" stroke="#999999" points="58,-184 0,-184 0,-165 58,-165 58,-184"/>
<text text-anchor="middle" x="29" y="-172" font-family="Helvetica,sans-Serif" font-size="10.00">memory</text>
</a>
</g>
</g>
<!-- Node2&#45;&gt;Node11 -->
<g id="edge13_Node000002_Node000011" class="edge">
<title>Node2&#45;&gt;Node11</title>
<g id="a_edge13_Node000002_Node000011"><a xlink:title=" ">
<path fill="none" stroke="#63b8ff" d="M183.38,-219.99C147.98,-209.79 100.68,-196.16 67.8,-186.68"/>
<polygon fill="#63b8ff" stroke="#63b8ff" points="68.67,-183.29 58.09,-183.88 66.73,-190.02 68.67,-183.29"/>
</a>
</g>
</g>
<!-- Node4 -->
<g id="Node000004" class="node">
<title>Node4</title>
<g id="a_Node000004"><a xlink:title=" ">
<polygon fill="#e0e0e0" stroke="#999999" points="468,-19 424,-19 424,0 468,0 468,-19"/>
<text text-anchor="middle" x="446" y="-7" font-family="Helvetica,sans-Serif" font-size="10.00">string</text>
</a>
</g>
</g>
<!-- Node3&#45;&gt;Node4 -->
<g id="edge3_Node000003_Node000004" class="edge">
<title>Node3&#45;&gt;Node4</title>
<g id="a_edge3_Node000003_Node000004"><a xlink:title=" ">
<path fill="none" stroke="#63b8ff" d="M308.59,-109.97C278.28,-99.11 236.06,-78.86 255,-55 274.47,-30.47 364.62,-18.21 413.79,-13.26"/>
<polygon fill="#63b8ff" stroke="#63b8ff" points="414.29,-16.73 423.91,-12.28 413.62,-9.76 414.29,-16.73"/>
</a>
</g>
</g>
<!-- Node5 -->
<g id="Node000005" class="node">
<title>Node5</title>
<g id="a_Node000005"><a xlink:href="KeyShortCut_8h.html" target="_top" xlink:title=" ">
<polygon fill="white" stroke="#666666" points="418,-74 264,-74 264,-55 418,-55 418,-74"/>
<text text-anchor="middle" x="341" y="-62" font-family="Helvetica,sans-Serif" font-size="10.00">KeyShortCuts/KeyShortCut.h</text>
</a>
</g>
</g>
<!-- Node3&#45;&gt;Node5 -->
<g id="edge4_Node000003_Node000005" class="edge">
<title>Node3&#45;&gt;Node5</title>
<g id="a_edge4_Node000003_Node000005"><a xlink:title=" ">
<path fill="none" stroke="#63b8ff" d="M336.83,-109.75C337.48,-102.8 338.42,-92.85 339.24,-84.13"/>
<polygon fill="#63b8ff" stroke="#63b8ff" points="342.73,-84.37 340.19,-74.09 335.77,-83.72 342.73,-84.37"/>
</a>
</g>
</g>
<!-- Node5&#45;&gt;Node4 -->
<g id="edge6_Node000005_Node000004" class="edge">
<title>Node5&#45;&gt;Node4</title>
<g id="a_edge6_Node000005_Node000004"><a xlink:title=" ">
<path fill="none" stroke="#63b8ff" d="M357.87,-54.98C374.61,-46.54 400.5,-33.47 419.89,-23.68"/>
<polygon fill="#63b8ff" stroke="#63b8ff" points="421.47,-26.8 428.82,-19.17 418.32,-20.55 421.47,-26.8"/>
</a>
</g>
</g>
<!-- Node5&#45;&gt;Node6 -->
<g id="edge5_Node000005_Node000006" class="edge">
<title>Node5&#45;&gt;Node6</title>
<g id="a_edge5_Node000005_Node000006"><a xlink:title=" ">
<path fill="none" stroke="#63b8ff" d="M324.13,-54.98C307.39,-46.54 281.5,-33.47 262.11,-23.68"/>
<polygon fill="#63b8ff" stroke="#63b8ff" points="263.68,-20.55 253.18,-19.17 260.53,-26.8 263.68,-20.55"/>
</a>
</g>
</g>
<!-- Node7 -->
<g id="Node000007" class="node">
<title>Node7</title>
<g id="a_Node000007"><a xlink:title=" ">
<polygon fill="#e0e0e0" stroke="#999999" points="698.5,-19 589.5,-19 589.5,0 698.5,0 698.5,-19"/>
<text text-anchor="middle" x="644" y="-7" font-family="Helvetica,sans-Serif" font-size="10.00">RmlUi/Core/Input.h</text>
</a>
</g>
</g>
<!-- Node5&#45;&gt;Node7 -->
<g id="edge7_Node000005_Node000007" class="edge">
<title>Node5&#45;&gt;Node7</title>
<g id="a_edge7_Node000005_Node000007"><a xlink:title=" ">
<path fill="none" stroke="#63b8ff" d="M389.68,-54.98C442.94,-45.67 528.31,-30.74 585.25,-20.78"/>
<polygon fill="#63b8ff" stroke="#63b8ff" points="585.94,-24.21 595.19,-19.04 584.73,-17.31 585.94,-24.21"/>
</a>
</g>
</g>
<!-- Node8&#45;&gt;Node3 -->
<g id="edge9_Node000008_Node000003" class="edge">
<title>Node8&#45;&gt;Node3</title>
<g id="a_edge9_Node000008_Node000003"><a xlink:title=" ">
<path fill="none" stroke="#63b8ff" d="M248.71,-164.98C265.21,-156.57 290.7,-143.59 309.88,-133.81"/>
<polygon fill="#63b8ff" stroke="#63b8ff" points="311.67,-136.83 318.99,-129.17 308.49,-130.59 311.67,-136.83"/>
</a>
</g>
</g>
<!-- Node9 -->
<g id="Node000009" class="node">
<title>Node9</title>
<g id="a_Node000009"><a xlink:title=" ">
<polygon fill="#e0e0e0" stroke="#999999" points="185.5,-129 114.5,-129 114.5,-110 185.5,-110 185.5,-129"/>
<text text-anchor="middle" x="150" y="-117" font-family="Helvetica,sans-Serif" font-size="10.00">QClipboard</text>
</a>
</g>
</g>
<!-- Node8&#45;&gt;Node9 -->
<g id="edge10_Node000008_Node000009" class="edge">
<title>Node8&#45;&gt;Node9</title>
<g id="a_edge10_Node000008_Node000009"><a xlink:title=" ">
<path fill="none" stroke="#63b8ff" d="M218.83,-164.98C206.23,-156.84 187,-144.41 172.06,-134.76"/>
<polygon fill="#63b8ff" stroke="#63b8ff" points="173.71,-131.66 163.41,-129.17 169.91,-137.54 173.71,-131.66"/>
</a>
</g>
</g>
<!-- Node10 -->
<g id="Node000010" class="node">
<title>Node10</title>
<g id="a_Node000010"><a xlink:title=" ">
<polygon fill="#e0e0e0" stroke="#999999" points="260,-129 204,-129 204,-110 260,-110 260,-129"/>
<text text-anchor="middle" x="232" y="-117" font-family="Helvetica,sans-Serif" font-size="10.00">QObject</text>
</a>
</g>
</g>
<!-- Node8&#45;&gt;Node10 -->
<g id="edge11_Node000008_Node000010" class="edge">
<title>Node8&#45;&gt;Node10</title>
<g id="a_edge11_Node000008_Node000010"><a xlink:title=" ">
<path fill="none" stroke="#63b8ff" d="M232,-164.75C232,-157.8 232,-147.85 232,-139.13"/>
<polygon fill="#63b8ff" stroke="#63b8ff" points="235.5,-139.09 232,-129.09 228.5,-139.09 235.5,-139.09"/>
</a>
</g>
</g>
<!-- Node12&#45;&gt;Node4 -->
<g id="edge15_Node000012_Node000004" class="edge">
<title>Node12&#45;&gt;Node4</title>
<g id="a_edge15_Node000012_Node000004"><a xlink:title=" ">
<path fill="none" stroke="#63b8ff" d="M465.28,-109.66C461.88,-92.17 454.23,-52.8 449.65,-29.27"/>
<polygon fill="#63b8ff" stroke="#63b8ff" points="453.03,-28.31 447.68,-19.16 446.16,-29.64 453.03,-28.31"/>
</a>
</g>
</g>
<!-- Node12&#45;&gt;Node6 -->
<g id="edge16_Node000012_Node000006" class="edge">
<title>Node12&#45;&gt;Node6</title>
<g id="a_edge16_Node000012_Node000006"><a xlink:title=" ">
<path fill="none" stroke="#63b8ff" d="M412.14,-109.96C353.25,-100.33 266.56,-84.63 255,-74 242.7,-62.69 238.24,-43.79 236.69,-29.54"/>
<polygon fill="#63b8ff" stroke="#63b8ff" points="240.16,-29.07 235.96,-19.34 233.18,-29.56 240.16,-29.07"/>
</a>
</g>
</g>
<!-- Node12&#45;&gt;Node13 -->
<g id="edge17_Node000012_Node000013" class="edge">
<title>Node12&#45;&gt;Node13</title>
<g id="a_edge17_Node000012_Node000013"><a xlink:title=" ">
<path fill="none" stroke="#63b8ff" d="M477.93,-109.98C488.08,-102.07 503.42,-90.11 515.65,-80.58"/>
<polygon fill="#63b8ff" stroke="#63b8ff" points="518.14,-83.08 523.88,-74.17 513.84,-77.56 518.14,-83.08"/>
</a>
</g>
</g>
<!-- Node13&#45;&gt;Node4 -->
<g id="edge18_Node000013_Node000004" class="edge">
<title>Node13&#45;&gt;Node4</title>
<g id="a_edge18_Node000013_Node000004"><a xlink:title=" ">
<path fill="none" stroke="#63b8ff" d="M520.7,-54.98C506.9,-46.77 485.76,-34.18 469.49,-24.49"/>
<polygon fill="#63b8ff" stroke="#63b8ff" points="470.94,-21.28 460.56,-19.17 467.36,-27.29 470.94,-21.28"/>
</a>
</g>
</g>
<!-- Node14 -->
<g id="Node000014" class="node">
<title>Node14</title>
<g id="a_Node000014"><a xlink:title=" ">
<polygon fill="#e0e0e0" stroke="#999999" points="554,-19 516,-19 516,0 554,0 554,-19"/>
<text text-anchor="middle" x="535" y="-7" font-family="Helvetica,sans-Serif" font-size="10.00">map</text>
</a>
</g>
</g>
<!-- Node13&#45;&gt;Node14 -->
<g id="edge19_Node000013_Node000014" class="edge">
<title>Node13&#45;&gt;Node14</title>
<g id="a_edge19_Node000013_Node000014"><a xlink:title=" ">
<path fill="none" stroke="#63b8ff" d="M535,-54.75C535,-47.8 535,-37.85 535,-29.13"/>
<polygon fill="#63b8ff" stroke="#63b8ff" points="538.5,-29.09 535,-19.09 531.5,-29.09 538.5,-29.09"/>
</a>
</g>
</g>
<!-- Node15&#45;&gt;Node4 -->
<g id="edge22_Node000015_Node000004" class="edge">
<title>Node15&#45;&gt;Node4</title>
<g id="a_edge22_Node000015_Node000004"><a xlink:title=" ">
<path fill="none" stroke="#63b8ff" d="M630.83,-225.22C636.22,-196.7 649.02,-105.64 605,-55 588.44,-35.95 519.44,-22.06 477.97,-15.23"/>
<polygon fill="#63b8ff" stroke="#63b8ff" points="478.5,-11.77 468.07,-13.65 477.4,-18.69 478.5,-11.77"/>
</a>
</g>
</g>
<!-- Node15&#45;&gt;Node7 -->
<g id="edge24_Node000015_Node000007" class="edge">
<title>Node15&#45;&gt;Node7</title>
<g id="a_edge24_Node000015_Node000007"><a xlink:title=" ">
<path fill="none" stroke="#63b8ff" d="M630.98,-225.2C633.12,-215.26 636.45,-198.56 638,-184 643.98,-127.95 644.43,-61.19 644.23,-29.29"/>
<polygon fill="#63b8ff" stroke="#63b8ff" points="647.73,-29.16 644.14,-19.2 640.73,-29.23 647.73,-29.16"/>
</a>
</g>
</g>
<!-- Node16 -->
<g id="Node000016" class="node">
<title>Node16</title>
<g id="a_Node000016"><a xlink:title=" ">
<polygon fill="#e0e0e0" stroke="#999999" points="802,-184 690,-184 690,-165 802,-165 802,-184"/>
<text text-anchor="middle" x="746" y="-172" font-family="Helvetica,sans-Serif" font-size="10.00">RmlUi/Core/Types.h</text>
</a>
</g>
</g>
<!-- Node15&#45;&gt;Node16 -->
<g id="edge23_Node000015_Node000016" class="edge">
<title>Node15&#45;&gt;Node16</title>
<g id="a_edge23_Node000015_Node000016"><a xlink:title=" ">
<path fill="none" stroke="#63b8ff" d="M646.01,-225.49C665.42,-215.79 697.39,-199.81 719.94,-188.53"/>
<polygon fill="#63b8ff" stroke="#63b8ff" points="721.59,-191.62 728.97,-184.02 718.46,-185.36 721.59,-191.62"/>
</a>
</g>
</g>
<!-- Node17&#45;&gt;Node16 -->
<g id="edge26_Node000017_Node000016" class="edge">
<title>Node17&#45;&gt;Node16</title>
<g id="a_edge26_Node000017_Node000016"><a xlink:title=" ">
<path fill="none" stroke="#63b8ff" d="M754.52,-225.37C753.12,-217.16 750.96,-204.54 749.17,-194.05"/>
<polygon fill="#63b8ff" stroke="#63b8ff" points="752.62,-193.43 747.48,-184.17 745.72,-194.61 752.62,-193.43"/>
</a>
</g>
</g>
<!-- Node18 -->
<g id="Node000018" class="node">
<title>Node18</title>
<g id="a_Node000018"><a xlink:title=" ">
<polygon fill="#e0e0e0" stroke="#999999" points="995.5,-184 820.5,-184 820.5,-165 995.5,-165 995.5,-184"/>
<text text-anchor="middle" x="908" y="-172" font-family="Helvetica,sans-Serif" font-size="10.00">RmlUi/Core/ElementDocument.h</text>
</a>
</g>
</g>
<!-- Node17&#45;&gt;Node18 -->
<g id="edge27_Node000017_Node000018" class="edge">
<title>Node17&#45;&gt;Node18</title>
<g id="a_edge27_Node000017_Node000018"><a xlink:title=" ">
<path fill="none" stroke="#63b8ff" d="M778.1,-225.49C803.99,-215.53 847.08,-198.95 876.47,-187.63"/>
<polygon fill="#63b8ff" stroke="#63b8ff" points="877.8,-190.88 885.87,-184.02 875.28,-184.34 877.8,-190.88"/>
</a>
</g>
</g>
</g>
</svg>
