<?xml version="1.0" encoding="UTF-8" standalone="no"?>
<!DOCTYPE svg PUBLIC "-//W3C//DTD SVG 1.1//EN"
 "http://www.w3.org/Graphics/SVG/1.1/DTD/svg11.dtd">
<!-- Generated by graphviz version 2.43.0 (0)
 -->
<!-- Title: Clipboard++/Utils/FileManager.cpp Pages: 1 -->
<svg width="412pt" height="192pt"
 viewBox="0.00 0.00 412.43 192.00" xmlns="http://www.w3.org/2000/svg" xmlns:xlink="http://www.w3.org/1999/xlink">
<g id="graph0" class="graph" transform="scale(1 1) rotate(0) translate(4 188)">
<title>Clipboard++/Utils/FileManager.cpp</title>
<!-- Node1 -->
<g id="Node000001" class="node">
<title>Node1</title>
<g id="a_Node000001"><a xlink:title=" ">
<polygon fill="#999999" stroke="#666666" points="299.43,-184 111.43,-184 111.43,-165 299.43,-165 299.43,-184"/>
<text text-anchor="middle" x="205.43" y="-172" font-family="Helvetica,sans-Serif" font-size="10.00">Clipboard++/Utils/FileManager.cpp</text>
</a>
</g>
</g>
<!-- Node2 -->
<g id="Node000002" class="node">
<title>Node2</title>
<g id="a_Node000002"><a xlink:href="FileManager_8h.html" target="_top" xlink:title=" ">
<polygon fill="white" stroke="#666666" points="92.93,-129 7.93,-129 7.93,-110 92.93,-110 92.93,-129"/>
<text text-anchor="middle" x="50.43" y="-117" font-family="Helvetica,sans-Serif" font-size="10.00">FileManager.h</text>
</a>
</g>
</g>
<!-- Node1&#45;&gt;Node2 -->
<g id="edge1_Node000001_Node000002" class="edge">
<title>Node1&#45;&gt;Node2</title>
<g id="a_edge1_Node000001_Node000002"><a xlink:title=" ">
<path fill="none" stroke="#63b8ff" d="M180.53,-164.98C154.73,-156.16 114.21,-142.31 85.25,-132.41"/>
<polygon fill="#63b8ff" stroke="#63b8ff" points="86.13,-129.01 75.53,-129.08 83.86,-135.63 86.13,-129.01"/>
</a>
</g>
</g>
<!-- Node5 -->
<g id="Node000005" class="node">
<title>Node5</title>
<g id="a_Node000005"><a xlink:href="TranslationManager_8h.html" target="_top" xlink:title=" ">
<polygon fill="white" stroke="#666666" points="197.93,-74 76.93,-74 76.93,-55 197.93,-55 197.93,-74"/>
<text text-anchor="middle" x="137.43" y="-62" font-family="Helvetica,sans-Serif" font-size="10.00">TranslationManager.h</text>
</a>
</g>
</g>
<!-- Node1&#45;&gt;Node5 -->
<g id="edge10_Node000001_Node000005" class="edge">
<title>Node1&#45;&gt;Node5</title>
<g id="a_edge10_Node000001_Node000005"><a xlink:title=" ">
<path fill="none" stroke="#63b8ff" d="M189.27,-164.98C176.4,-157.32 158.99,-144.84 149.43,-129 141.36,-115.63 138.52,-98.02 137.61,-84.74"/>
<polygon fill="#63b8ff" stroke="#63b8ff" points="141.09,-84.26 137.22,-74.4 134.1,-84.52 141.09,-84.26"/>
</a>
</g>
</g>
<!-- Node7 -->
<g id="Node000007" class="node">
<title>Node7</title>
<g id="a_Node000007"><a xlink:title=" ">
<polygon fill="#e0e0e0" stroke="#999999" points="252.93,-129 157.93,-129 157.93,-110 252.93,-110 252.93,-129"/>
<text text-anchor="middle" x="205.43" y="-117" font-family="Helvetica,sans-Serif" font-size="10.00">tinyfiledialogs.h</text>
</a>
</g>
</g>
<!-- Node1&#45;&gt;Node7 -->
<g id="edge7_Node000001_Node000007" class="edge">
<title>Node1&#45;&gt;Node7</title>
<g id="a_edge7_Node000001_Node000007"><a xlink:title=" ">
<path fill="none" stroke="#63b8ff" d="M205.43,-164.75C205.43,-157.8 205.43,-147.85 205.43,-139.13"/>
<polygon fill="#63b8ff" stroke="#63b8ff" points="208.93,-139.09 205.43,-129.09 201.93,-139.09 208.93,-139.09"/>
</a>
</g>
</g>
<!-- Node8 -->
<g id="Node000008" class="node">
<title>Node8</title>
<g id="a_Node000008"><a xlink:title=" ">
<polygon fill="#e0e0e0" stroke="#999999" points="325.93,-129 270.93,-129 270.93,-110 325.93,-110 325.93,-129"/>
<text text-anchor="middle" x="298.43" y="-117" font-family="Helvetica,sans-Serif" font-size="10.00">fstream</text>
</a>
</g>
</g>
<!-- Node1&#45;&gt;Node8 -->
<g id="edge8_Node000001_Node000008" class="edge">
<title>Node1&#45;&gt;Node8</title>
<g id="a_edge8_Node000001_Node000008"><a xlink:title=" ">
<path fill="none" stroke="#63b8ff" d="M220.37,-164.98C234.93,-156.69 257.3,-143.94 274.37,-134.22"/>
<polygon fill="#63b8ff" stroke="#63b8ff" points="276.26,-137.16 283.22,-129.17 272.8,-131.08 276.26,-137.16"/>
</a>
</g>
</g>
<!-- Node9 -->
<g id="Node000009" class="node">
<title>Node9</title>
<g id="a_Node000009"><a xlink:title=" ">
<polygon fill="#e0e0e0" stroke="#999999" points="404.43,-129 344.43,-129 344.43,-110 404.43,-110 404.43,-129"/>
<text text-anchor="middle" x="374.43" y="-117" font-family="Helvetica,sans-Serif" font-size="10.00">iostream</text>
</a>
</g>
</g>
<!-- Node1&#45;&gt;Node9 -->
<g id="edge9_Node000001_Node000009" class="edge">
<title>Node1&#45;&gt;Node9</title>
<g id="a_edge9_Node000001_Node000009"><a xlink:title=" ">
<path fill="none" stroke="#63b8ff" d="M232.59,-164.98C260.96,-156.09 305.66,-142.07 337.29,-132.15"/>
<polygon fill="#63b8ff" stroke="#63b8ff" points="338.57,-135.41 347.07,-129.08 336.48,-128.73 338.57,-135.41"/>
</a>
</g>
</g>
<!-- Node3 -->
<g id="Node000003" class="node">
<title>Node3</title>
<g id="a_Node000003"><a xlink:title=" ">
<polygon fill="#e0e0e0" stroke="#999999" points="53.43,-19 9.43,-19 9.43,0 53.43,0 53.43,-19"/>
<text text-anchor="middle" x="31.43" y="-7" font-family="Helvetica,sans-Serif" font-size="10.00">string</text>
</a>
</g>
</g>
<!-- Node2&#45;&gt;Node3 -->
<g id="edge2_Node000002_Node000003" class="edge">
<title>Node2&#45;&gt;Node3</title>
<g id="a_edge2_Node000002_Node000003"><a xlink:title=" ">
<path fill="none" stroke="#63b8ff" d="M36.07,-109.96C24.56,-102.21 9.25,-89.62 2.43,-74 -4.58,-57.94 5.59,-39.76 15.76,-26.98"/>
<polygon fill="#63b8ff" stroke="#63b8ff" points="18.69,-28.94 22.59,-19.09 13.4,-24.35 18.69,-28.94"/>
</a>
</g>
</g>
<!-- Node4 -->
<g id="Node000004" class="node">
<title>Node4</title>
<g id="a_Node000004"><a xlink:title=" ">
<polygon fill="#e0e0e0" stroke="#999999" points="58.93,-74 11.93,-74 11.93,-55 58.93,-55 58.93,-74"/>
<text text-anchor="middle" x="35.43" y="-62" font-family="Helvetica,sans-Serif" font-size="10.00">vector</text>
</a>
</g>
</g>
<!-- Node2&#45;&gt;Node4 -->
<g id="edge3_Node000002_Node000004" class="edge">
<title>Node2&#45;&gt;Node4</title>
<g id="a_edge3_Node000002_Node000004"><a xlink:title=" ">
<path fill="none" stroke="#63b8ff" d="M47.96,-109.75C45.97,-102.72 43.11,-92.62 40.62,-83.84"/>
<polygon fill="#63b8ff" stroke="#63b8ff" points="43.95,-82.76 37.86,-74.09 37.22,-84.66 43.95,-82.76"/>
</a>
</g>
</g>
<!-- Node2&#45;&gt;Node5 -->
<g id="edge4_Node000002_Node000005" class="edge">
<title>Node2&#45;&gt;Node5</title>
<g id="a_edge4_Node000002_Node000005"><a xlink:title=" ">
<path fill="none" stroke="#63b8ff" d="M64.41,-109.98C77.9,-101.77 98.57,-89.18 114.47,-79.49"/>
<polygon fill="#63b8ff" stroke="#63b8ff" points="116.48,-82.36 123.2,-74.17 112.84,-76.38 116.48,-82.36"/>
</a>
</g>
</g>
<!-- Node5&#45;&gt;Node3 -->
<g id="edge5_Node000005_Node000003" class="edge">
<title>Node5&#45;&gt;Node3</title>
<g id="a_edge5_Node000005_Node000003"><a xlink:title=" ">
<path fill="none" stroke="#63b8ff" d="M120.4,-54.98C103.5,-46.54 77.37,-33.47 57.79,-23.68"/>
<polygon fill="#63b8ff" stroke="#63b8ff" points="59.28,-20.51 48.77,-19.17 56.15,-26.77 59.28,-20.51"/>
</a>
</g>
</g>
<!-- Node6 -->
<g id="Node000006" class="node">
<title>Node6</title>
<g id="a_Node000006"><a xlink:title=" ">
<polygon fill="#e0e0e0" stroke="#999999" points="156.43,-19 118.43,-19 118.43,0 156.43,0 156.43,-19"/>
<text text-anchor="middle" x="137.43" y="-7" font-family="Helvetica,sans-Serif" font-size="10.00">map</text>
</a>
</g>
</g>
<!-- Node5&#45;&gt;Node6 -->
<g id="edge6_Node000005_Node000006" class="edge">
<title>Node5&#45;&gt;Node6</title>
<g id="a_edge6_Node000005_Node000006"><a xlink:title=" ">
<path fill="none" stroke="#63b8ff" d="M137.43,-54.75C137.43,-47.8 137.43,-37.85 137.43,-29.13"/>
<polygon fill="#63b8ff" stroke="#63b8ff" points="140.93,-29.09 137.43,-19.09 133.93,-29.09 140.93,-29.09"/>
</a>
</g>
</g>
</g>
</svg>
