<?xml version="1.0" encoding="UTF-8" standalone="no"?>
<!DOCTYPE svg PUBLIC "-//W3C//DTD SVG 1.1//EN"
 "http://www.w3.org/Graphics/SVG/1.1/DTD/svg11.dtd">
<!-- Generated by graphviz version 2.43.0 (0)
 -->
<!-- Title: Clipboard++/Utils/FileManager.h Pages: 1 -->
<!--zoomable 181 -->

<svg id="main" version="1.1" xmlns="http://www.w3.org/2000/svg" xmlns:xlink="http://www.w3.org/1999/xlink" xml:space="preserve" onload="init(evt)">
<style type="text/css"><![CDATA[
.node, .edge {opacity: 0.7;}
.node.selected, .edge.selected {opacity: 1;}
.edge:hover path { stroke: red; }
.edge:hover polygon { stroke: red; fill: red; }
]]></style>

<defs>
  <circle id="rim" cx="0" cy="0" r="7"/>
  <circle id="rim2" cx="0" cy="0" r="3.5"/>
  <g id="zoomPlus">
    <use xlink:href="#rim" fill="#404040"><set attributeName="fill" to="#808080" begin="zoomplus.mouseover" end="zoomplus.mouseout"/></use>
    <path d="M-4,0h8M0,-4v8" fill="none" stroke="white" stroke-width="1.5" pointer-events="none"/>
  </g>
  <g id="zoomMin">
    <use xlink:href="#rim" fill="#404040"><set attributeName="fill" to="#808080" begin="zoomminus.mouseover" end="zoomminus.mouseout"/></use>
    <path d="M-4,0h8" fill="none" stroke="white" stroke-width="1.5" pointer-events="none"/>
  </g>
  <g id="arrowUp" transform="translate(30 24)">
    <use xlink:href="#rim"/>
    <path pointer-events="none" fill="none" stroke="white" stroke-width="1.5" d="M0,-3.0v7 M-2.5,-0.5L0,-3.0L2.5,-0.5"/>
  </g>
  <g id="arrowRight" transform="rotate(90) translate(36 -43)">
    <use xlink:href="#rim"/>
    <path pointer-events="none" fill="none" stroke="white" stroke-width="1.5" d="M0,-3.0v7 M-2.5,-0.5L0,-3.0L2.5,-0.5"/>
  </g>
  <g id="arrowDown" transform="rotate(180) translate(-30 -48)">
    <use xlink:href="#rim"/>
    <path pointer-events="none" fill="none" stroke="white" stroke-width="1.5" d="M0,-3.0v7 M-2.5,-0.5L0,-3.0L2.5,-0.5"/>
  </g>
  <g id="arrowLeft" transform="rotate(270) translate(-36 17)">
    <use xlink:href="#rim"/>
    <path pointer-events="none" fill="none" stroke="white" stroke-width="1.5" d="M0,-3.0v7 M-2.5,-0.5L0,-3.0L2.5,-0.5"/>
  </g>
  <g id="resetDef">
    <use xlink:href="#rim2" fill="#404040"><set attributeName="fill" to="#808080" begin="reset.mouseover" end="reset.mouseout"/></use>
  </g>
</defs>
<script type="application/ecmascript">
var viewWidth = 1700;
var viewHeight = 181;
var sectionId = 'dynsection-1';
</script>
<script type="application/ecmascript" xlink:href="svg.min.js"/>
<svg id="graph" class="graph">
<g id="viewport">
<title>Clipboard++/Utils/FileManager.h</title>
<!-- Node1 -->
<g id="Node000001" class="node">
<title>Node1</title>
<g id="a_Node000001"><a xlink:title=" ">
<polygon fill="#999999" stroke="#666666" points="949,-173 773,-173 773,-154 949,-154 949,-173"/>
<text text-anchor="middle" x="861" y="-161" font-family="Helvetica,sans-Serif" font-size="10.00">Clipboard++/Utils/FileManager.h</text>
</a>
</g>
</g>
<!-- Node2 -->
<g id="Node000002" class="node">
<title>Node2</title>
<g id="a_Node000002"><a xlink:href="KeyShortCutManager_8cpp.html" target="_top" xlink:title=" ">
<polygon fill="white" stroke="#666666" points="210,-112.5 0,-112.5 0,-82.5 210,-82.5 210,-112.5"/>
<text text-anchor="start" x="8" y="-100.5" font-family="Helvetica,sans-Serif" font-size="10.00">Clipboard++/QClipboard</text>
<text text-anchor="middle" x="105" y="-89.5" font-family="Helvetica,sans-Serif" font-size="10.00">/KeyShortCuts/KeyShortCutManager.cpp</text>
</a>
</g>
</g>
<!-- Node1&#45;&gt;Node2 -->
<g id="edge1_Node000001_Node000002" class="edge">
<title>Node1&#45;&gt;Node2</title>
<g id="a_edge1_Node000001_Node000002"><a xlink:title=" ">
<path fill="none" stroke="#63b8ff" d="M762.96,-158.76C636.8,-153.25 410.98,-141.01 219,-118 206.54,-116.51 193.37,-114.58 180.58,-112.52"/>
<polygon fill="#63b8ff" stroke="#63b8ff" points="762.85,-162.26 772.99,-159.19 763.15,-155.27 762.85,-162.26"/>
</a>
</g>
</g>
<!-- Node3 -->
<g id="Node000003" class="node">
<title>Node3</title>
<g id="a_Node000003"><a xlink:href="ElementFileManager_8cpp.html" target="_top" xlink:title=" ">
<polygon fill="white" stroke="#666666" points="389.5,-112.5 228.5,-112.5 228.5,-82.5 389.5,-82.5 389.5,-112.5"/>
<text text-anchor="start" x="236.5" y="-100.5" font-family="Helvetica,sans-Serif" font-size="10.00">Clipboard++/RmlUI/Elements</text>
<text text-anchor="middle" x="309" y="-89.5" font-family="Helvetica,sans-Serif" font-size="10.00">/ElementFileManager.cpp</text>
</a>
</g>
</g>
<!-- Node1&#45;&gt;Node3 -->
<g id="edge2_Node000001_Node000003" class="edge">
<title>Node1&#45;&gt;Node3</title>
<g id="a_edge2_Node000001_Node000003"><a xlink:title=" ">
<path fill="none" stroke="#63b8ff" d="M762.64,-156.48C668.62,-149.92 523.08,-137.64 398,-118 388.31,-116.48 378.1,-114.55 368.18,-112.5"/>
<polygon fill="#63b8ff" stroke="#63b8ff" points="762.49,-159.98 772.71,-157.17 762.97,-152.99 762.49,-159.98"/>
</a>
</g>
</g>
<!-- Node4 -->
<g id="Node000004" class="node">
<title>Node4</title>
<g id="a_Node000004"><a xlink:href="EditDoneEvent_8h.html" target="_top" xlink:title=" ">
<polygon fill="white" stroke="#666666" points="628.5,-112.5 407.5,-112.5 407.5,-82.5 628.5,-82.5 628.5,-112.5"/>
<text text-anchor="start" x="415.5" y="-100.5" font-family="Helvetica,sans-Serif" font-size="10.00">Clipboard++/RmlUI/EventHandlers</text>
<text text-anchor="middle" x="518" y="-89.5" font-family="Helvetica,sans-Serif" font-size="10.00">/Clipboard++Events/Edit/EditDoneEvent.h</text>
</a>
</g>
</g>
<!-- Node1&#45;&gt;Node4 -->
<g id="edge3_Node000001_Node000004" class="edge">
<title>Node1&#45;&gt;Node4</title>
<g id="a_edge3_Node000001_Node000004"><a xlink:title=" ">
<path fill="none" stroke="#63b8ff" d="M805.07,-152.06C747.38,-141.3 657.07,-124.45 593.16,-112.52"/>
<polygon fill="#63b8ff" stroke="#63b8ff" points="804.63,-155.54 815.1,-153.94 805.91,-148.66 804.63,-155.54"/>
</a>
</g>
</g>
<!-- Node6 -->
<g id="Node000006" class="node">
<title>Node6</title>
<g id="a_Node000006"><a xlink:href="EventManager_8cpp.html" target="_top" xlink:title=" ">
<polygon fill="white" stroke="#666666" points="954.5,-35.5 767.5,-35.5 767.5,-5.5 954.5,-5.5 954.5,-35.5"/>
<text text-anchor="start" x="775.5" y="-23.5" font-family="Helvetica,sans-Serif" font-size="10.00">Clipboard++/RmlUI/EventHandlers</text>
<text text-anchor="middle" x="861" y="-12.5" font-family="Helvetica,sans-Serif" font-size="10.00">/EventManager.cpp</text>
</a>
</g>
</g>
<!-- Node1&#45;&gt;Node6 -->
<g id="edge18_Node000001_Node000006" class="edge">
<title>Node1&#45;&gt;Node6</title>
<g id="a_edge18_Node000001_Node000006"><a xlink:title=" ">
<path fill="none" stroke="#63b8ff" d="M861,-143.35C861,-114.61 861,-60.96 861,-35.54"/>
<polygon fill="#63b8ff" stroke="#63b8ff" points="857.5,-143.68 861,-153.68 864.5,-143.68 857.5,-143.68"/>
</a>
</g>
</g>
<!-- Node7 -->
<g id="Node000007" class="node">
<title>Node7</title>
<g id="a_Node000007"><a xlink:href="ExportFileEvent_8h.html" target="_top" xlink:title=" ">
<polygon fill="white" stroke="#666666" points="833.5,-118 646.5,-118 646.5,-77 833.5,-77 833.5,-118"/>
<text text-anchor="start" x="654.5" y="-106" font-family="Helvetica,sans-Serif" font-size="10.00">Clipboard++/RmlUI/EventHandlers</text>
<text text-anchor="start" x="654.5" y="-95" font-family="Helvetica,sans-Serif" font-size="10.00">/Clipboard++Events/Export</text>
<text text-anchor="middle" x="740" y="-84" font-family="Helvetica,sans-Serif" font-size="10.00">/ExportFileEvent.h</text>
</a>
</g>
</g>
<!-- Node1&#45;&gt;Node7 -->
<g id="edge6_Node000001_Node000007" class="edge">
<title>Node1&#45;&gt;Node7</title>
<g id="a_edge6_Node000001_Node000007"><a xlink:title=" ">
<path fill="none" stroke="#63b8ff" d="M835.39,-148.95C818.39,-139.96 795.81,-128.02 776.88,-118.01"/>
<polygon fill="#63b8ff" stroke="#63b8ff" points="834.21,-152.29 844.68,-153.87 837.48,-146.1 834.21,-152.29"/>
</a>
</g>
</g>
<!-- Node9 -->
<g id="Node000009" class="node">
<title>Node9</title>
<g id="a_Node000009"><a xlink:href="ExportSearchEvent_8h.html" target="_top" xlink:title=" ">
<polygon fill="white" stroke="#666666" points="1075.5,-118 888.5,-118 888.5,-77 1075.5,-77 1075.5,-118"/>
<text text-anchor="start" x="896.5" y="-106" font-family="Helvetica,sans-Serif" font-size="10.00">Clipboard++/RmlUI/EventHandlers</text>
<text text-anchor="start" x="896.5" y="-95" font-family="Helvetica,sans-Serif" font-size="10.00">/Clipboard++Events/Export</text>
<text text-anchor="middle" x="982" y="-84" font-family="Helvetica,sans-Serif" font-size="10.00">/ExportSearchEvent.h</text>
</a>
</g>
</g>
<!-- Node1&#45;&gt;Node9 -->
<g id="edge9_Node000001_Node000009" class="edge">
<title>Node1&#45;&gt;Node9</title>
<g id="a_edge9_Node000001_Node000009"><a xlink:title=" ">
<path fill="none" stroke="#63b8ff" d="M886.61,-148.95C903.61,-139.96 926.19,-128.02 945.12,-118.01"/>
<polygon fill="#63b8ff" stroke="#63b8ff" points="884.52,-146.1 877.32,-153.87 887.79,-152.29 884.52,-146.1"/>
</a>
</g>
</g>
<!-- Node11 -->
<g id="Node000011" class="node">
<title>Node11</title>
<g id="a_Node000011"><a xlink:href="ImportFileEvent_8h.html" target="_top" xlink:title=" ">
<polygon fill="white" stroke="#666666" points="1280.5,-118 1093.5,-118 1093.5,-77 1280.5,-77 1280.5,-118"/>
<text text-anchor="start" x="1101.5" y="-106" font-family="Helvetica,sans-Serif" font-size="10.00">Clipboard++/RmlUI/EventHandlers</text>
<text text-anchor="start" x="1101.5" y="-95" font-family="Helvetica,sans-Serif" font-size="10.00">/Clipboard++Events/Import</text>
<text text-anchor="middle" x="1187" y="-84" font-family="Helvetica,sans-Serif" font-size="10.00">/ImportFileEvent.h</text>
</a>
</g>
</g>
<!-- Node1&#45;&gt;Node11 -->
<g id="edge12_Node000001_Node000011" class="edge">
<title>Node1&#45;&gt;Node11</title>
<g id="a_edge12_Node000001_Node000011"><a xlink:title=" ">
<path fill="none" stroke="#63b8ff" d="M914.57,-151.98C962.95,-142.48 1035.23,-128.29 1093.18,-116.92"/>
<polygon fill="#63b8ff" stroke="#63b8ff" points="913.77,-148.57 904.63,-153.94 915.11,-155.44 913.77,-148.57"/>
</a>
</g>
</g>
<!-- Node13 -->
<g id="Node000013" class="node">
<title>Node13</title>
<g id="a_Node000013"><a xlink:href="ImportSearchEvent_8h.html" target="_top" xlink:title=" ">
<polygon fill="white" stroke="#666666" points="1485.5,-118 1298.5,-118 1298.5,-77 1485.5,-77 1485.5,-118"/>
<text text-anchor="start" x="1306.5" y="-106" font-family="Helvetica,sans-Serif" font-size="10.00">Clipboard++/RmlUI/EventHandlers</text>
<text text-anchor="start" x="1306.5" y="-95" font-family="Helvetica,sans-Serif" font-size="10.00">/Clipboard++Events/Import</text>
<text text-anchor="middle" x="1392" y="-84" font-family="Helvetica,sans-Serif" font-size="10.00">/ImportSearchEvent.h</text>
</a>
</g>
</g>
<!-- Node1&#45;&gt;Node13 -->
<g id="edge15_Node000001_Node000013" class="edge">
<title>Node1&#45;&gt;Node13</title>
<g id="a_edge15_Node000001_Node000013"><a xlink:title=" ">
<path fill="none" stroke="#63b8ff" d="M959.33,-154.71C1046.48,-147.23 1177.05,-134.62 1290,-118 1292.76,-117.59 1295.57,-117.16 1298.4,-116.72"/>
<polygon fill="#63b8ff" stroke="#63b8ff" points="958.86,-151.24 949.19,-155.57 959.45,-158.21 958.86,-151.24"/>
</a>
</g>
</g>
<!-- Node15 -->
<g id="Node000015" class="node">
<title>Node15</title>
<g id="a_Node000015"><a xlink:href="FileManager_8cpp.html" target="_top" xlink:title=" ">
<polygon fill="white" stroke="#666666" points="1692,-107 1504,-107 1504,-88 1692,-88 1692,-107"/>
<text text-anchor="middle" x="1598" y="-95" font-family="Helvetica,sans-Serif" font-size="10.00">Clipboard++/Utils/FileManager.cpp</text>
</a>
</g>
</g>
<!-- Node1&#45;&gt;Node15 -->
<g id="edge19_Node000001_Node000015" class="edge">
<title>Node1&#45;&gt;Node15</title>
<g id="a_edge19_Node000001_Node000015"><a xlink:title=" ">
<path fill="none" stroke="#63b8ff" d="M959.31,-159.17C1084.25,-154.11 1306.34,-142.39 1495,-118 1516.12,-115.27 1539.45,-110.96 1558.56,-107.09"/>
<polygon fill="#63b8ff" stroke="#63b8ff" points="958.86,-155.68 949.01,-159.58 959.14,-162.68 958.86,-155.68"/>
</a>
</g>
</g>
<!-- Node5 -->
<g id="Node000005" class="node">
<title>Node5</title>
<g id="a_Node000005"><a xlink:href="EditDoneEvent_8cpp.html" target="_top" xlink:title=" ">
<polygon fill="white" stroke="#666666" points="544.5,-35.5 311.5,-35.5 311.5,-5.5 544.5,-5.5 544.5,-35.5"/>
<text text-anchor="start" x="319.5" y="-23.5" font-family="Helvetica,sans-Serif" font-size="10.00">Clipboard++/RmlUI/EventHandlers</text>
<text text-anchor="middle" x="428" y="-12.5" font-family="Helvetica,sans-Serif" font-size="10.00">/Clipboard++Events/Edit/EditDoneEvent.cpp</text>
</a>
</g>
</g>
<!-- Node4&#45;&gt;Node5 -->
<g id="edge4_Node000004_Node000005" class="edge">
<title>Node4&#45;&gt;Node5</title>
<g id="a_edge4_Node000004_Node000005"><a xlink:title=" ">
<path fill="none" stroke="#63b8ff" d="M493.01,-75.67C477.66,-62.88 458.41,-46.84 444.85,-35.54"/>
<polygon fill="#63b8ff" stroke="#63b8ff" points="491.15,-78.68 501.07,-82.39 495.63,-73.3 491.15,-78.68"/>
</a>
</g>
</g>
<!-- Node4&#45;&gt;Node6 -->
<g id="edge5_Node000004_Node000006" class="edge">
<title>Node4&#45;&gt;Node6</title>
<g id="a_edge5_Node000004_Node000006"><a xlink:title=" ">
<path fill="none" stroke="#63b8ff" d="M592.07,-80.3C653.11,-66.96 738.79,-48.22 796.91,-35.51"/>
<polygon fill="#63b8ff" stroke="#63b8ff" points="591.13,-76.93 582.11,-82.48 592.63,-83.76 591.13,-76.93"/>
</a>
</g>
</g>
<!-- Node7&#45;&gt;Node6 -->
<g id="edge8_Node000007_Node000006" class="edge">
<title>Node7&#45;&gt;Node6</title>
<g id="a_edge8_Node000007_Node000006"><a xlink:title=" ">
<path fill="none" stroke="#63b8ff" d="M780.08,-71.66C799.35,-59.71 821.75,-45.83 838.09,-35.7"/>
<polygon fill="#63b8ff" stroke="#63b8ff" points="778.13,-68.75 771.48,-76.99 781.82,-74.7 778.13,-68.75"/>
</a>
</g>
</g>
<!-- Node8 -->
<g id="Node000008" class="node">
<title>Node8</title>
<g id="a_Node000008"><a xlink:href="ExportFileEvent_8cpp.html" target="_top" xlink:title=" ">
<polygon fill="white" stroke="#666666" points="749.5,-41 562.5,-41 562.5,0 749.5,0 749.5,-41"/>
<text text-anchor="start" x="570.5" y="-29" font-family="Helvetica,sans-Serif" font-size="10.00">Clipboard++/RmlUI/EventHandlers</text>
<text text-anchor="start" x="570.5" y="-18" font-family="Helvetica,sans-Serif" font-size="10.00">/Clipboard++Events/Export</text>
<text text-anchor="middle" x="656" y="-7" font-family="Helvetica,sans-Serif" font-size="10.00">/ExportFileEvent.cpp</text>
</a>
</g>
</g>
<!-- Node7&#45;&gt;Node8 -->
<g id="edge7_Node000007_Node000008" class="edge">
<title>Node7&#45;&gt;Node8</title>
<g id="a_edge7_Node000007_Node000008"><a xlink:title=" ">
<path fill="none" stroke="#63b8ff" d="M710.4,-70.07C699.71,-60.52 687.84,-49.93 677.92,-41.07"/>
<polygon fill="#63b8ff" stroke="#63b8ff" points="708.14,-72.75 717.93,-76.79 712.8,-67.52 708.14,-72.75"/>
</a>
</g>
</g>
<!-- Node9&#45;&gt;Node6 -->
<g id="edge11_Node000009_Node000006" class="edge">
<title>Node9&#45;&gt;Node6</title>
<g id="a_edge11_Node000009_Node000006"><a xlink:title=" ">
<path fill="none" stroke="#63b8ff" d="M941.92,-71.66C922.65,-59.71 900.25,-45.83 883.91,-35.7"/>
<polygon fill="#63b8ff" stroke="#63b8ff" points="940.18,-74.7 950.52,-76.99 943.87,-68.75 940.18,-74.7"/>
</a>
</g>
</g>
<!-- Node10 -->
<g id="Node000010" class="node">
<title>Node10</title>
<g id="a_Node000010"><a xlink:href="ExportSearchEvent_8cpp.html" target="_top" xlink:title=" ">
<polygon fill="white" stroke="#666666" points="1159.5,-41 972.5,-41 972.5,0 1159.5,0 1159.5,-41"/>
<text text-anchor="start" x="980.5" y="-29" font-family="Helvetica,sans-Serif" font-size="10.00">Clipboard++/RmlUI/EventHandlers</text>
<text text-anchor="start" x="980.5" y="-18" font-family="Helvetica,sans-Serif" font-size="10.00">/Clipboard++Events/Export</text>
<text text-anchor="middle" x="1066" y="-7" font-family="Helvetica,sans-Serif" font-size="10.00">/ExportSearchEvent.cpp</text>
</a>
</g>
</g>
<!-- Node9&#45;&gt;Node10 -->
<g id="edge10_Node000009_Node000010" class="edge">
<title>Node9&#45;&gt;Node10</title>
<g id="a_edge10_Node000009_Node000010"><a xlink:title=" ">
<path fill="none" stroke="#63b8ff" d="M1011.6,-70.07C1022.29,-60.52 1034.16,-49.93 1044.08,-41.07"/>
<polygon fill="#63b8ff" stroke="#63b8ff" points="1009.2,-67.52 1004.07,-76.79 1013.86,-72.75 1009.2,-67.52"/>
</a>
</g>
</g>
<!-- Node11&#45;&gt;Node6 -->
<g id="edge14_Node000011_Node000006" class="edge">
<title>Node11&#45;&gt;Node6</title>
<g id="a_edge14_Node000011_Node000006"><a xlink:title=" ">
<path fill="none" stroke="#63b8ff" d="M1092.45,-74.75C1037.5,-62.11 969.89,-46.55 921.96,-35.52"/>
<polygon fill="#63b8ff" stroke="#63b8ff" points="1091.67,-78.16 1102.2,-76.99 1093.24,-71.34 1091.67,-78.16"/>
</a>
</g>
</g>
<!-- Node12 -->
<g id="Node000012" class="node">
<title>Node12</title>
<g id="a_Node000012"><a xlink:href="ImportFileEvent_8cpp.html" target="_top" xlink:title=" ">
<polygon fill="white" stroke="#666666" points="1364.5,-41 1177.5,-41 1177.5,0 1364.5,0 1364.5,-41"/>
<text text-anchor="start" x="1185.5" y="-29" font-family="Helvetica,sans-Serif" font-size="10.00">Clipboard++/RmlUI/EventHandlers</text>
<text text-anchor="start" x="1185.5" y="-18" font-family="Helvetica,sans-Serif" font-size="10.00">/Clipboard++Events/Import</text>
<text text-anchor="middle" x="1271" y="-7" font-family="Helvetica,sans-Serif" font-size="10.00">/ImportFileEvent.cpp</text>
</a>
</g>
</g>
<!-- Node11&#45;&gt;Node12 -->
<g id="edge13_Node000011_Node000012" class="edge">
<title>Node11&#45;&gt;Node12</title>
<g id="a_edge13_Node000011_Node000012"><a xlink:title=" ">
<path fill="none" stroke="#63b8ff" d="M1216.6,-70.07C1227.29,-60.52 1239.16,-49.93 1249.08,-41.07"/>
<polygon fill="#63b8ff" stroke="#63b8ff" points="1214.2,-67.52 1209.07,-76.79 1218.86,-72.75 1214.2,-67.52"/>
</a>
</g>
</g>
<!-- Node13&#45;&gt;Node6 -->
<g id="edge17_Node000013_Node000006" class="edge">
<title>Node13&#45;&gt;Node6</title>
<g id="a_edge17_Node000013_Node000006"><a xlink:title=" ">
<path fill="none" stroke="#63b8ff" d="M1288.29,-76.8C1144.11,-55.61 1104.93,-62.09 964,-41 953.38,-39.41 942.18,-37.52 931.24,-35.55"/>
<polygon fill="#63b8ff" stroke="#63b8ff" points="1287.99,-80.3 1298.39,-78.31 1289.02,-73.37 1287.99,-80.3"/>
</a>
</g>
</g>
<!-- Node14 -->
<g id="Node000014" class="node">
<title>Node14</title>
<g id="a_Node000014"><a xlink:href="ImportSearchEvent_8cpp.html" target="_top" xlink:title=" ">
<polygon fill="white" stroke="#666666" points="1569.5,-41 1382.5,-41 1382.5,0 1569.5,0 1569.5,-41"/>
<text text-anchor="start" x="1390.5" y="-29" font-family="Helvetica,sans-Serif" font-size="10.00">Clipboard++/RmlUI/EventHandlers</text>
<text text-anchor="start" x="1390.5" y="-18" font-family="Helvetica,sans-Serif" font-size="10.00">/Clipboard++Events/Import</text>
<text text-anchor="middle" x="1476" y="-7" font-family="Helvetica,sans-Serif" font-size="10.00">/ImportSearchEvent.cpp</text>
</a>
</g>
</g>
<!-- Node13&#45;&gt;Node14 -->
<g id="edge16_Node000013_Node000014" class="edge">
<title>Node13&#45;&gt;Node14</title>
<g id="a_edge16_Node000013_Node000014"><a xlink:title=" ">
<path fill="none" stroke="#63b8ff" d="M1421.6,-70.07C1432.29,-60.52 1444.16,-49.93 1454.08,-41.07"/>
<polygon fill="#63b8ff" stroke="#63b8ff" points="1419.2,-67.52 1414.07,-76.79 1423.86,-72.75 1419.2,-67.52"/>
</a>
</g>
</g>
</g>
</svg>

<g id="navigator" transform="translate(0 0)" fill="#404254">
  <rect fill="#f2f5e9" fill-opacity="0.5" stroke="#606060" stroke-width=".5" x="0" y="0" width="60" height="60"/>
  <use id="zoomplus" xlink:href="#zoomPlus" x="17" y="9" onmousedown="handleZoom(evt,'in')"/>
  <use id="zoomminus" xlink:href="#zoomMin" x="42" y="9" onmousedown="handleZoom(evt,'out')"/>
  <use id="reset" xlink:href="#resetDef" x="30" y="36" onmousedown="handleReset()"/>
   <use id="arrowup" xlink:href="#arrowUp" x="0" y="0" onmousedown="handlePan(0,-1)"/>
  <use id="arrowright" xlink:href="#arrowRight" x="0" y="0" onmousedown="handlePan(1,0)"/>
  <use id="arrowdown" xlink:href="#arrowDown" x="0" y="0" onmousedown="handlePan(0,1)"/>
  <use id="arrowleft" xlink:href="#arrowLeft" x="0" y="0" onmousedown="handlePan(-1,0)"/>
</g>
<svg viewBox="0 0 15 15" width="100%" height="30px" preserveAspectRatio="xMaxYMin meet">
 <g id="arrow_out" transform="scale(0.3 0.3)">
  <a xlink:href="FileManager_8h__dep__incl_org.svg" target="_base">
   <rect id="button" ry="5" rx="5" y="6" x="6" height="38" width="38"
        fill="#f2f5e9" fill-opacity="0.5" stroke="#606060" stroke-width="1.0"/>
   <path id="arrow"
     d="M 11.500037,31.436501 C 11.940474,20.09759 22.043105,11.32322 32.158766,21.979434 L 37.068811,17.246167 C 37.068811,17.246167 37.088388,32 37.088388,32 L 22.160133,31.978069 C 22.160133,31.978069 26.997745,27.140456 26.997745,27.140456 C 18.528582,18.264221 13.291696,25.230495 11.500037,31.436501 z"
     style="fill:#404040;"/>
  </a>
 </g>
</svg>

<style type='text/css'>
<![CDATA[
[data-mouse-over-selected='false'] { opacity: 0.7; }
[data-mouse-over-selected='true']  { opacity: 1.0; }
]]>
</style>
<script type="application/ecmascript"><![CDATA[
document.addEventListener('DOMContentLoaded', (event) => {
  highlightEdges();
  highlightAdjacentNodes();
});
]]></script>
</svg>
