<?xml version="1.0" encoding="UTF-8" standalone="no"?>
<!DOCTYPE svg PUBLIC "-//W3C//DTD SVG 1.1//EN"
 "http://www.w3.org/Graphics/SVG/1.1/DTD/svg11.dtd">
<!-- Generated by graphviz version 2.43.0 (0)
 -->
<!-- Title: Clipboard++/RmlUI/EventHandlers/Clipboard++Events/Import/ImportFileEvent.cpp Pages: 1 -->
<svg width="876pt" height="390pt"
 viewBox="0.00 0.00 876.34 390.00" xmlns="http://www.w3.org/2000/svg" xmlns:xlink="http://www.w3.org/1999/xlink">
<g id="graph0" class="graph" transform="scale(1 1) rotate(0) translate(4 386)">
<title>Clipboard++/RmlUI/EventHandlers/Clipboard++Events/Import/ImportFileEvent.cpp</title>
<!-- Node1 -->
<g id="Node000001" class="node">
<title>Node1</title>
<g id="a_Node000001"><a xlink:title=" ">
<polygon fill="#999999" stroke="#666666" points="732,-382 545,-382 545,-341 732,-341 732,-382"/>
<text text-anchor="start" x="553" y="-370" font-family="Helvetica,sans-Serif" font-size="10.00">Clipboard++/RmlUI/EventHandlers</text>
<text text-anchor="start" x="553" y="-359" font-family="Helvetica,sans-Serif" font-size="10.00">/Clipboard++Events/Import</text>
<text text-anchor="middle" x="638.5" y="-348" font-family="Helvetica,sans-Serif" font-size="10.00">/ImportFileEvent.cpp</text>
</a>
</g>
</g>
<!-- Node2 -->
<g id="Node000002" class="node">
<title>Node2</title>
<g id="a_Node000002"><a xlink:href="ImportFileEvent_8h.html" target="_top" xlink:title=" ">
<polygon fill="white" stroke="#666666" points="503,-305 400,-305 400,-286 503,-286 503,-305"/>
<text text-anchor="middle" x="451.5" y="-293" font-family="Helvetica,sans-Serif" font-size="10.00">ImportFileEvent.h</text>
</a>
</g>
</g>
<!-- Node1&#45;&gt;Node2 -->
<g id="edge1_Node000001_Node000002" class="edge">
<title>Node1&#45;&gt;Node2</title>
<g id="a_edge1_Node000001_Node000002"><a xlink:title=" ">
<path fill="none" stroke="#63b8ff" d="M581.38,-340.95C550.33,-330.32 512.94,-317.53 486.27,-308.4"/>
<polygon fill="#63b8ff" stroke="#63b8ff" points="487.2,-305.02 476.6,-305.09 484.93,-311.64 487.2,-305.02"/>
</a>
</g>
</g>
<!-- Node16 -->
<g id="Node000016" class="node">
<title>Node16</title>
<g id="a_Node000016"><a xlink:href="StringUtils_8h.html" target="_top" xlink:title=" ">
<polygon fill="white" stroke="#666666" points="796.5,-244.5 694.5,-244.5 694.5,-225.5 796.5,-225.5 796.5,-244.5"/>
<text text-anchor="middle" x="745.5" y="-232.5" font-family="Helvetica,sans-Serif" font-size="10.00">Utils/StringUtils.h</text>
</a>
</g>
</g>
<!-- Node1&#45;&gt;Node16 -->
<g id="edge30_Node000001_Node000016" class="edge">
<title>Node1&#45;&gt;Node16</title>
<g id="a_edge30_Node000001_Node000016"><a xlink:title=" ">
<path fill="none" stroke="#63b8ff" d="M639.33,-340.95C640.92,-324.76 645.35,-301.92 657.5,-286 670.54,-268.91 691.22,-256.74 709.25,-248.68"/>
<polygon fill="#63b8ff" stroke="#63b8ff" points="711.06,-251.72 718.93,-244.63 708.36,-245.26 711.06,-251.72"/>
</a>
</g>
</g>
<!-- Node20 -->
<g id="Node000020" class="node">
<title>Node20</title>
<g id="a_Node000020"><a xlink:title=" ">
<polygon fill="#e0e0e0" stroke="#999999" points="770.5,-305 666.5,-305 666.5,-286 770.5,-286 770.5,-305"/>
<text text-anchor="middle" x="718.5" y="-293" font-family="Helvetica,sans-Serif" font-size="10.00">../EventManager.h</text>
</a>
</g>
</g>
<!-- Node1&#45;&gt;Node20 -->
<g id="edge29_Node000001_Node000020" class="edge">
<title>Node1&#45;&gt;Node20</title>
<g id="a_edge29_Node000001_Node000020"><a xlink:title=" ">
<path fill="none" stroke="#63b8ff" d="M662.94,-340.95C674.68,-331.55 688.55,-320.46 699.5,-311.7"/>
<polygon fill="#63b8ff" stroke="#63b8ff" points="701.93,-314.24 707.55,-305.26 697.55,-308.77 701.93,-314.24"/>
</a>
</g>
</g>
<!-- Node3 -->
<g id="Node000003" class="node">
<title>Node3</title>
<g id="a_Node000003"><a xlink:href="MemoryCellManager_8h.html" target="_top" xlink:title=" ">
<polygon fill="white" stroke="#666666" points="389.5,-250 251.5,-250 251.5,-220 389.5,-220 389.5,-250"/>
<text text-anchor="start" x="259.5" y="-238" font-family="Helvetica,sans-Serif" font-size="10.00">QClipboard/MemoryCells</text>
<text text-anchor="middle" x="320.5" y="-227" font-family="Helvetica,sans-Serif" font-size="10.00">/MemoryCellManager.h</text>
</a>
</g>
</g>
<!-- Node2&#45;&gt;Node3 -->
<g id="edge2_Node000002_Node000003" class="edge">
<title>Node2&#45;&gt;Node3</title>
<g id="a_edge2_Node000002_Node000003"><a xlink:title=" ">
<path fill="none" stroke="#63b8ff" d="M432.45,-285.99C413.85,-277.68 384.94,-264.78 361.16,-254.16"/>
<polygon fill="#63b8ff" stroke="#63b8ff" points="362.55,-250.95 351.99,-250.06 359.7,-257.34 362.55,-250.95"/>
</a>
</g>
</g>
<!-- Node13 -->
<g id="Node000013" class="node">
<title>Node13</title>
<g id="a_Node000013"><a xlink:href="FileManager_8h.html" target="_top" xlink:title=" ">
<polygon fill="white" stroke="#666666" points="197.5,-129 87.5,-129 87.5,-110 197.5,-110 197.5,-129"/>
<text text-anchor="middle" x="142.5" y="-117" font-family="Helvetica,sans-Serif" font-size="10.00">Utils/FileManager.h</text>
</a>
</g>
</g>
<!-- Node2&#45;&gt;Node13 -->
<g id="edge15_Node000002_Node000013" class="edge">
<title>Node2&#45;&gt;Node13</title>
<g id="a_edge15_Node000002_Node000013"><a xlink:title=" ">
<path fill="none" stroke="#63b8ff" d="M399.68,-293.3C354.96,-290.08 290.23,-280.03 242.5,-250 197.96,-221.98 165.52,-166.7 150.99,-138.29"/>
<polygon fill="#63b8ff" stroke="#63b8ff" points="154.03,-136.54 146.45,-129.13 147.75,-139.65 154.03,-136.54"/>
</a>
</g>
</g>
<!-- Node14 -->
<g id="Node000014" class="node">
<title>Node14</title>
<g id="a_Node000014"><a xlink:href="TranslationManager_8h.html" target="_top" xlink:title=" ">
<polygon fill="white" stroke="#666666" points="121,-74 0,-74 0,-55 121,-55 121,-74"/>
<text text-anchor="middle" x="60.5" y="-62" font-family="Helvetica,sans-Serif" font-size="10.00">TranslationManager.h</text>
</a>
</g>
</g>
<!-- Node2&#45;&gt;Node14 -->
<g id="edge21_Node000002_Node000014" class="edge">
<title>Node2&#45;&gt;Node14</title>
<g id="a_edge21_Node000002_Node000014"><a xlink:title=" ">
<path fill="none" stroke="#63b8ff" d="M399.55,-293.78C347.56,-291.14 266.6,-281.68 204.5,-250 135.34,-214.72 118.48,-195.56 78.5,-129 70.29,-115.32 65.68,-97.74 63.19,-84.55"/>
<polygon fill="#63b8ff" stroke="#63b8ff" points="66.58,-83.59 61.51,-74.29 59.67,-84.73 66.58,-83.59"/>
</a>
</g>
</g>
<!-- Node2&#45;&gt;Node16 -->
<g id="edge22_Node000002_Node000016" class="edge">
<title>Node2&#45;&gt;Node16</title>
<g id="a_edge22_Node000002_Node000016"><a xlink:title=" ">
<path fill="none" stroke="#63b8ff" d="M494.25,-285.99C546.83,-275.53 636.08,-257.77 692.84,-246.48"/>
<polygon fill="#63b8ff" stroke="#63b8ff" points="693.57,-249.9 702.7,-244.52 692.21,-243.04 693.57,-249.9"/>
</a>
</g>
</g>
<!-- Node18 -->
<g id="Node000018" class="node">
<title>Node18</title>
<g id="a_Node000018"><a xlink:href="Clipboard_09_09Event_8h.html" target="_top" xlink:title=" ">
<polygon fill="white" stroke="#666666" points="641.5,-244.5 525.5,-244.5 525.5,-225.5 641.5,-225.5 641.5,-244.5"/>
<text text-anchor="middle" x="583.5" y="-232.5" font-family="Helvetica,sans-Serif" font-size="10.00">Clipboard++Event.h</text>
</a>
</g>
</g>
<!-- Node2&#45;&gt;Node18 -->
<g id="edge26_Node000002_Node000018" class="edge">
<title>Node2&#45;&gt;Node18</title>
<g id="a_edge26_Node000002_Node000018"><a xlink:title=" ">
<path fill="none" stroke="#63b8ff" d="M470.69,-285.99C492.89,-276.16 529.62,-259.88 555.12,-248.58"/>
<polygon fill="#63b8ff" stroke="#63b8ff" points="556.56,-251.77 564.28,-244.52 553.72,-245.37 556.56,-251.77"/>
</a>
</g>
</g>
<!-- Node4 -->
<g id="Node000004" class="node">
<title>Node4</title>
<g id="a_Node000004"><a xlink:href="ClipboardInterface_8h.html" target="_top" xlink:title=" ">
<polygon fill="white" stroke="#666666" points="379.5,-129 263.5,-129 263.5,-110 379.5,-110 379.5,-129"/>
<text text-anchor="middle" x="321.5" y="-117" font-family="Helvetica,sans-Serif" font-size="10.00">ClipboardInterface.h</text>
</a>
</g>
</g>
<!-- Node3&#45;&gt;Node4 -->
<g id="edge3_Node000003_Node000004" class="edge">
<title>Node3&#45;&gt;Node4</title>
<g id="a_edge3_Node000003_Node000004"><a xlink:title=" ">
<path fill="none" stroke="#63b8ff" d="M304.2,-219.78C290.74,-206.22 274.99,-184.97 282.5,-165 286.68,-153.89 295.02,-143.75 302.93,-135.96"/>
<polygon fill="#63b8ff" stroke="#63b8ff" points="305.51,-138.35 310.51,-129.01 300.78,-133.19 305.51,-138.35"/>
</a>
</g>
</g>
<!-- Node7 -->
<g id="Node000007" class="node">
<title>Node7</title>
<g id="a_Node000007"><a xlink:title=" ">
<polygon fill="#e0e0e0" stroke="#999999" points="249,-19 202,-19 202,0 249,0 249,-19"/>
<text text-anchor="middle" x="225.5" y="-7" font-family="Helvetica,sans-Serif" font-size="10.00">vector</text>
</a>
</g>
</g>
<!-- Node3&#45;&gt;Node7 -->
<g id="edge13_Node000003_Node000007" class="edge">
<title>Node3&#45;&gt;Node7</title>
<g id="a_edge13_Node000003_Node000007"><a xlink:title=" ">
<path fill="none" stroke="#63b8ff" d="M306,-219.65C296.96,-210.14 285.56,-197.05 277.5,-184 246.17,-133.26 232.72,-62.49 227.86,-29.2"/>
<polygon fill="#63b8ff" stroke="#63b8ff" points="231.29,-28.52 226.48,-19.09 224.36,-29.47 231.29,-28.52"/>
</a>
</g>
</g>
<!-- Node9 -->
<g id="Node000009" class="node">
<title>Node9</title>
<g id="a_Node000009"><a xlink:href="ClipboardAdapter_8h.html" target="_top" xlink:title=" ">
<polygon fill="white" stroke="#666666" points="477.5,-184 367.5,-184 367.5,-165 477.5,-165 477.5,-184"/>
<text text-anchor="middle" x="422.5" y="-172" font-family="Helvetica,sans-Serif" font-size="10.00">ClipboardAdapter.h</text>
</a>
</g>
</g>
<!-- Node3&#45;&gt;Node9 -->
<g id="edge9_Node000003_Node000009" class="edge">
<title>Node3&#45;&gt;Node9</title>
<g id="a_edge9_Node000003_Node000009"><a xlink:title=" ">
<path fill="none" stroke="#63b8ff" d="M344.93,-219.99C361.19,-210.66 382.45,-198.47 398.6,-189.21"/>
<polygon fill="#63b8ff" stroke="#63b8ff" points="400.5,-192.15 407.44,-184.14 397.02,-186.08 400.5,-192.15"/>
</a>
</g>
</g>
<!-- Node12 -->
<g id="Node000012" class="node">
<title>Node12</title>
<g id="a_Node000012"><a xlink:title=" ">
<polygon fill="#e0e0e0" stroke="#999999" points="349.5,-184 291.5,-184 291.5,-165 349.5,-165 349.5,-184"/>
<text text-anchor="middle" x="320.5" y="-172" font-family="Helvetica,sans-Serif" font-size="10.00">memory</text>
</a>
</g>
</g>
<!-- Node3&#45;&gt;Node12 -->
<g id="edge14_Node000003_Node000012" class="edge">
<title>Node3&#45;&gt;Node12</title>
<g id="a_edge14_Node000003_Node000012"><a xlink:title=" ">
<path fill="none" stroke="#63b8ff" d="M320.5,-219.84C320.5,-212.21 320.5,-202.7 320.5,-194.45"/>
<polygon fill="#63b8ff" stroke="#63b8ff" points="324,-194.27 320.5,-184.27 317,-194.27 324,-194.27"/>
</a>
</g>
</g>
<!-- Node5 -->
<g id="Node000005" class="node">
<title>Node5</title>
<g id="a_Node000005"><a xlink:title=" ">
<polygon fill="#e0e0e0" stroke="#999999" points="352.5,-19 308.5,-19 308.5,0 352.5,0 352.5,-19"/>
<text text-anchor="middle" x="330.5" y="-7" font-family="Helvetica,sans-Serif" font-size="10.00">string</text>
</a>
</g>
</g>
<!-- Node4&#45;&gt;Node5 -->
<g id="edge4_Node000004_Node000005" class="edge">
<title>Node4&#45;&gt;Node5</title>
<g id="a_edge4_Node000004_Node000005"><a xlink:title=" ">
<path fill="none" stroke="#63b8ff" d="M363.03,-109.94C382.81,-103.55 404.68,-92.6 416.5,-74 432.81,-48.35 393.05,-29.53 362.29,-19.3"/>
<polygon fill="#63b8ff" stroke="#63b8ff" points="363.29,-15.94 352.7,-16.28 361.19,-22.62 363.29,-15.94"/>
</a>
</g>
</g>
<!-- Node6 -->
<g id="Node000006" class="node">
<title>Node6</title>
<g id="a_Node000006"><a xlink:href="KeyShortCut_8h.html" target="_top" xlink:title=" ">
<polygon fill="white" stroke="#666666" points="407.5,-74 253.5,-74 253.5,-55 407.5,-55 407.5,-74"/>
<text text-anchor="middle" x="330.5" y="-62" font-family="Helvetica,sans-Serif" font-size="10.00">KeyShortCuts/KeyShortCut.h</text>
</a>
</g>
</g>
<!-- Node4&#45;&gt;Node6 -->
<g id="edge5_Node000004_Node000006" class="edge">
<title>Node4&#45;&gt;Node6</title>
<g id="a_edge5_Node000004_Node000006"><a xlink:title=" ">
<path fill="none" stroke="#63b8ff" d="M322.99,-109.75C324.17,-102.8 325.86,-92.85 327.34,-84.13"/>
<polygon fill="#63b8ff" stroke="#63b8ff" points="330.82,-84.53 329.04,-74.09 323.92,-83.36 330.82,-84.53"/>
</a>
</g>
</g>
<!-- Node6&#45;&gt;Node5 -->
<g id="edge7_Node000006_Node000005" class="edge">
<title>Node6&#45;&gt;Node5</title>
<g id="a_edge7_Node000006_Node000005"><a xlink:title=" ">
<path fill="none" stroke="#63b8ff" d="M330.5,-54.75C330.5,-47.8 330.5,-37.85 330.5,-29.13"/>
<polygon fill="#63b8ff" stroke="#63b8ff" points="334,-29.09 330.5,-19.09 327,-29.09 334,-29.09"/>
</a>
</g>
</g>
<!-- Node6&#45;&gt;Node7 -->
<g id="edge6_Node000006_Node000007" class="edge">
<title>Node6&#45;&gt;Node7</title>
<g id="a_edge6_Node000006_Node000007"><a xlink:title=" ">
<path fill="none" stroke="#63b8ff" d="M313.63,-54.98C296.89,-46.54 271,-33.47 251.61,-23.68"/>
<polygon fill="#63b8ff" stroke="#63b8ff" points="253.18,-20.55 242.68,-19.17 250.03,-26.8 253.18,-20.55"/>
</a>
</g>
</g>
<!-- Node8 -->
<g id="Node000008" class="node">
<title>Node8</title>
<g id="a_Node000008"><a xlink:title=" ">
<polygon fill="#e0e0e0" stroke="#999999" points="701,-19 592,-19 592,0 701,0 701,-19"/>
<text text-anchor="middle" x="646.5" y="-7" font-family="Helvetica,sans-Serif" font-size="10.00">RmlUi/Core/Input.h</text>
</a>
</g>
</g>
<!-- Node6&#45;&gt;Node8 -->
<g id="edge8_Node000006_Node000008" class="edge">
<title>Node6&#45;&gt;Node8</title>
<g id="a_edge8_Node000006_Node000008"><a xlink:title=" ">
<path fill="none" stroke="#63b8ff" d="M381.27,-54.98C436.93,-45.65 526.21,-30.67 585.6,-20.71"/>
<polygon fill="#63b8ff" stroke="#63b8ff" points="586.31,-24.14 595.59,-19.04 585.15,-17.24 586.31,-24.14"/>
</a>
</g>
</g>
<!-- Node9&#45;&gt;Node4 -->
<g id="edge10_Node000009_Node000004" class="edge">
<title>Node9&#45;&gt;Node4</title>
<g id="a_edge10_Node000009_Node000004"><a xlink:title=" ">
<path fill="none" stroke="#63b8ff" d="M406.27,-164.98C390.32,-156.61 365.72,-143.7 347.12,-133.95"/>
<polygon fill="#63b8ff" stroke="#63b8ff" points="348.5,-130.72 338.02,-129.17 345.25,-136.92 348.5,-130.72"/>
</a>
</g>
</g>
<!-- Node10 -->
<g id="Node000010" class="node">
<title>Node10</title>
<g id="a_Node000010"><a xlink:title=" ">
<polygon fill="#e0e0e0" stroke="#999999" points="469,-129 398,-129 398,-110 469,-110 469,-129"/>
<text text-anchor="middle" x="433.5" y="-117" font-family="Helvetica,sans-Serif" font-size="10.00">QClipboard</text>
</a>
</g>
</g>
<!-- Node9&#45;&gt;Node10 -->
<g id="edge11_Node000009_Node000010" class="edge">
<title>Node9&#45;&gt;Node10</title>
<g id="a_edge11_Node000009_Node000010"><a xlink:title=" ">
<path fill="none" stroke="#63b8ff" d="M424.32,-164.75C425.76,-157.8 427.82,-147.85 429.63,-139.13"/>
<polygon fill="#63b8ff" stroke="#63b8ff" points="433.11,-139.59 431.72,-129.09 426.26,-138.17 433.11,-139.59"/>
</a>
</g>
</g>
<!-- Node11 -->
<g id="Node000011" class="node">
<title>Node11</title>
<g id="a_Node000011"><a xlink:title=" ">
<polygon fill="#e0e0e0" stroke="#999999" points="543.5,-129 487.5,-129 487.5,-110 543.5,-110 543.5,-129"/>
<text text-anchor="middle" x="515.5" y="-117" font-family="Helvetica,sans-Serif" font-size="10.00">QObject</text>
</a>
</g>
</g>
<!-- Node9&#45;&gt;Node11 -->
<g id="edge12_Node000009_Node000011" class="edge">
<title>Node9&#45;&gt;Node11</title>
<g id="a_edge12_Node000009_Node000011"><a xlink:title=" ">
<path fill="none" stroke="#63b8ff" d="M437.44,-164.98C452,-156.69 474.37,-143.94 491.43,-134.22"/>
<polygon fill="#63b8ff" stroke="#63b8ff" points="493.33,-137.16 500.29,-129.17 489.86,-131.08 493.33,-137.16"/>
</a>
</g>
</g>
<!-- Node13&#45;&gt;Node5 -->
<g id="edge16_Node000013_Node000005" class="edge">
<title>Node13&#45;&gt;Node5</title>
<g id="a_edge16_Node000013_Node000005"><a xlink:title=" ">
<path fill="none" stroke="#63b8ff" d="M155.5,-109.94C174.69,-97.42 211.86,-73.56 244.5,-55 263.92,-43.95 286.36,-32.38 303.44,-23.81"/>
<polygon fill="#63b8ff" stroke="#63b8ff" points="305.43,-26.73 312.82,-19.13 302.31,-20.46 305.43,-26.73"/>
</a>
</g>
</g>
<!-- Node13&#45;&gt;Node7 -->
<g id="edge17_Node000013_Node000007" class="edge">
<title>Node13&#45;&gt;Node7</title>
<g id="a_edge17_Node000013_Node000007"><a xlink:title=" ">
<path fill="none" stroke="#63b8ff" d="M145.5,-109.65C150.15,-96.76 159.99,-72.46 173.5,-55 182.25,-43.69 194.26,-33.19 204.53,-25.22"/>
<polygon fill="#63b8ff" stroke="#63b8ff" points="206.72,-27.96 212.65,-19.17 202.54,-22.35 206.72,-27.96"/>
</a>
</g>
</g>
<!-- Node13&#45;&gt;Node14 -->
<g id="edge18_Node000013_Node000014" class="edge">
<title>Node13&#45;&gt;Node14</title>
<g id="a_edge18_Node000013_Node000014"><a xlink:title=" ">
<path fill="none" stroke="#63b8ff" d="M129.33,-109.98C116.73,-101.84 97.5,-89.41 82.56,-79.76"/>
<polygon fill="#63b8ff" stroke="#63b8ff" points="84.21,-76.66 73.91,-74.17 80.41,-82.54 84.21,-76.66"/>
</a>
</g>
</g>
<!-- Node14&#45;&gt;Node5 -->
<g id="edge19_Node000014_Node000005" class="edge">
<title>Node14&#45;&gt;Node5</title>
<g id="a_edge19_Node000014_Node000005"><a xlink:title=" ">
<path fill="none" stroke="#63b8ff" d="M103.88,-54.98C158.18,-44.33 249.93,-26.32 298.35,-16.81"/>
<polygon fill="#63b8ff" stroke="#63b8ff" points="299.14,-20.22 308.28,-14.86 297.79,-13.35 299.14,-20.22"/>
</a>
</g>
</g>
<!-- Node15 -->
<g id="Node000015" class="node">
<title>Node15</title>
<g id="a_Node000015"><a xlink:title=" ">
<polygon fill="#e0e0e0" stroke="#999999" points="79.5,-19 41.5,-19 41.5,0 79.5,0 79.5,-19"/>
<text text-anchor="middle" x="60.5" y="-7" font-family="Helvetica,sans-Serif" font-size="10.00">map</text>
</a>
</g>
</g>
<!-- Node14&#45;&gt;Node15 -->
<g id="edge20_Node000014_Node000015" class="edge">
<title>Node14&#45;&gt;Node15</title>
<g id="a_edge20_Node000014_Node000015"><a xlink:title=" ">
<path fill="none" stroke="#63b8ff" d="M60.5,-54.75C60.5,-47.8 60.5,-37.85 60.5,-29.13"/>
<polygon fill="#63b8ff" stroke="#63b8ff" points="64,-29.09 60.5,-19.09 57,-29.09 64,-29.09"/>
</a>
</g>
</g>
<!-- Node16&#45;&gt;Node5 -->
<g id="edge23_Node000016_Node000005" class="edge">
<title>Node16&#45;&gt;Node5</title>
<g id="a_edge23_Node000016_Node000005"><a xlink:title=" ">
<path fill="none" stroke="#63b8ff" d="M764.31,-225.49C789.16,-213.06 827.85,-188.81 810.5,-165 755.72,-89.82 461.13,-32.99 362.61,-15.85"/>
<polygon fill="#63b8ff" stroke="#63b8ff" points="363.1,-12.38 352.65,-14.14 361.91,-19.28 363.1,-12.38"/>
</a>
</g>
</g>
<!-- Node16&#45;&gt;Node8 -->
<g id="edge25_Node000016_Node000008" class="edge">
<title>Node16&#45;&gt;Node8</title>
<g id="a_edge25_Node000016_Node000008"><a xlink:title=" ">
<path fill="none" stroke="#63b8ff" d="M782.44,-225.47C804.3,-218.31 830.23,-205.66 843.5,-184 873.44,-135.11 879.3,-99.78 843.5,-55 827.08,-34.46 762.27,-22.71 711.41,-16.5"/>
<polygon fill="#63b8ff" stroke="#63b8ff" points="711.78,-13.02 701.44,-15.34 710.97,-19.98 711.78,-13.02"/>
</a>
</g>
</g>
<!-- Node17 -->
<g id="Node000017" class="node">
<title>Node17</title>
<g id="a_Node000017"><a xlink:title=" ">
<polygon fill="#e0e0e0" stroke="#999999" points="801.5,-184 689.5,-184 689.5,-165 801.5,-165 801.5,-184"/>
<text text-anchor="middle" x="745.5" y="-172" font-family="Helvetica,sans-Serif" font-size="10.00">RmlUi/Core/Types.h</text>
</a>
</g>
</g>
<!-- Node16&#45;&gt;Node17 -->
<g id="edge24_Node000016_Node000017" class="edge">
<title>Node16&#45;&gt;Node17</title>
<g id="a_edge24_Node000016_Node000017"><a xlink:title=" ">
<path fill="none" stroke="#63b8ff" d="M745.5,-225.37C745.5,-217.25 745.5,-204.81 745.5,-194.39"/>
<polygon fill="#63b8ff" stroke="#63b8ff" points="749,-194.17 745.5,-184.17 742,-194.17 749,-194.17"/>
</a>
</g>
</g>
<!-- Node18&#45;&gt;Node17 -->
<g id="edge27_Node000018_Node000017" class="edge">
<title>Node18&#45;&gt;Node17</title>
<g id="a_edge27_Node000018_Node000017"><a xlink:title=" ">
<path fill="none" stroke="#63b8ff" d="M607.06,-225.49C634.77,-215.49 680.97,-198.8 712.31,-187.49"/>
<polygon fill="#63b8ff" stroke="#63b8ff" points="713.7,-190.71 721.92,-184.02 711.32,-184.12 713.7,-190.71"/>
</a>
</g>
</g>
<!-- Node19 -->
<g id="Node000019" class="node">
<title>Node19</title>
<g id="a_Node000019"><a xlink:title=" ">
<polygon fill="#e0e0e0" stroke="#999999" points="671,-184 496,-184 496,-165 671,-165 671,-184"/>
<text text-anchor="middle" x="583.5" y="-172" font-family="Helvetica,sans-Serif" font-size="10.00">RmlUi/Core/ElementDocument.h</text>
</a>
</g>
</g>
<!-- Node18&#45;&gt;Node19 -->
<g id="edge28_Node000018_Node000019" class="edge">
<title>Node18&#45;&gt;Node19</title>
<g id="a_edge28_Node000018_Node000019"><a xlink:title=" ">
<path fill="none" stroke="#63b8ff" d="M583.5,-225.37C583.5,-217.25 583.5,-204.81 583.5,-194.39"/>
<polygon fill="#63b8ff" stroke="#63b8ff" points="587,-194.17 583.5,-184.17 580,-194.17 587,-194.17"/>
</a>
</g>
</g>
</g>
</svg>
