<?xml version="1.0" encoding="UTF-8" standalone="no"?>
<!DOCTYPE svg PUBLIC "-//W3C//DTD SVG 1.1//EN"
 "http://www.w3.org/Graphics/SVG/1.1/DTD/svg11.dtd">
<!-- Generated by graphviz version 2.43.0 (0)
 -->
<!-- Title: Clipboard++/RmlUI/EventHandlers/Clipboard++Events/Import/ImportCloseEvent.cpp Pages: 1 -->
<svg width="324pt" height="214pt"
 viewBox="0.00 0.00 324.00 214.00" xmlns="http://www.w3.org/2000/svg" xmlns:xlink="http://www.w3.org/1999/xlink">

<svg id="main" version="1.1" xmlns="http://www.w3.org/2000/svg" xmlns:xlink="http://www.w3.org/1999/xlink" xml:space="preserve" onload="init(evt)">
<style type="text/css"><![CDATA[
.node, .edge {opacity: 0.7;}
.node.selected, .edge.selected {opacity: 1;}
.edge:hover path { stroke: red; }
.edge:hover polygon { stroke: red; fill: red; }
]]></style>
<script type="application/ecmascript" xlink:href="svg.min.js"/>
<svg id="graph" class="graph">
<g id="graph0" class="graph" transform="scale(1 1) rotate(0) translate(4 210)">
<title>Clipboard++/RmlUI/EventHandlers/Clipboard++Events/Import/ImportCloseEvent.cpp</title>
<!-- Node1 -->
<g id="Node000001" class="node">
<title>Node1</title>
<g id="a_Node000001"><a xlink:title=" ">
<polygon fill="#999999" stroke="#666666" points="293.5,-206 106.5,-206 106.5,-165 293.5,-165 293.5,-206"/>
<text text-anchor="start" x="114.5" y="-194" font-family="Helvetica,sans-Serif" font-size="10.00">Clipboard++/RmlUI/EventHandlers</text>
<text text-anchor="start" x="114.5" y="-183" font-family="Helvetica,sans-Serif" font-size="10.00">/Clipboard++Events/Import</text>
<text text-anchor="middle" x="200" y="-172" font-family="Helvetica,sans-Serif" font-size="10.00">/ImportCloseEvent.cpp</text>
</a>
</g>
</g>
<!-- Node2 -->
<g id="Node000002" class="node">
<title>Node2</title>
<g id="a_Node000002"><a xlink:href="ImportCloseEvent_8h.html" target="_top" xlink:title=" ">
<polygon fill="white" stroke="#666666" points="193.5,-129 80.5,-129 80.5,-110 193.5,-110 193.5,-129"/>
<text text-anchor="middle" x="137" y="-117" font-family="Helvetica,sans-Serif" font-size="10.00">ImportCloseEvent.h</text>
</a>
</g>
</g>
<!-- Node1&#45;&gt;Node2 -->
<g id="edge1_Node000001_Node000002" class="edge">
<title>Node1&#45;&gt;Node2</title>
<g id="a_edge1_Node000001_Node000002"><a xlink:title=" ">
<path fill="none" stroke="#63b8ff" d="M180.76,-164.95C171.78,-155.83 161.23,-145.11 152.74,-136.49"/>
<polygon fill="#63b8ff" stroke="#63b8ff" points="155.13,-133.93 145.62,-129.26 150.14,-138.84 155.13,-133.93"/>
</a>
</g>
</g>
<!-- Node6 -->
<g id="Node000006" class="node">
<title>Node6</title>
<g id="a_Node000006"><a xlink:title=" ">
<polygon fill="#e0e0e0" stroke="#999999" points="316,-129 212,-129 212,-110 316,-110 316,-129"/>
<text text-anchor="middle" x="264" y="-117" font-family="Helvetica,sans-Serif" font-size="10.00">../EventManager.h</text>
</a>
</g>
</g>
<!-- Node1&#45;&gt;Node6 -->
<g id="edge5_Node000001_Node000006" class="edge">
<title>Node1&#45;&gt;Node6</title>
<g id="a_edge5_Node000001_Node000006"><a xlink:title=" ">
<path fill="none" stroke="#63b8ff" d="M219.55,-164.95C228.67,-155.83 239.39,-145.11 248.01,-136.49"/>
<polygon fill="#63b8ff" stroke="#63b8ff" points="250.64,-138.81 255.24,-129.26 245.69,-133.86 250.64,-138.81"/>
</a>
</g>
</g>
<!-- Node3 -->
<g id="Node000003" class="node">
<title>Node3</title>
<g id="a_Node000003"><a xlink:href="Clipboard_09_09Event_8h.html" target="_top" xlink:title=" ">
<polygon fill="white" stroke="#666666" points="195,-74 79,-74 79,-55 195,-55 195,-74"/>
<text text-anchor="middle" x="137" y="-62" font-family="Helvetica,sans-Serif" font-size="10.00">Clipboard++Event.h</text>
</a>
</g>
</g>
<!-- Node2&#45;&gt;Node3 -->
<g id="edge2_Node000002_Node000003" class="edge">
<title>Node2&#45;&gt;Node3</title>
<g id="a_edge2_Node000002_Node000003"><a xlink:title=" ">
<path fill="none" stroke="#63b8ff" d="M137,-109.75C137,-102.8 137,-92.85 137,-84.13"/>
<polygon fill="#63b8ff" stroke="#63b8ff" points="140.5,-84.09 137,-74.09 133.5,-84.09 140.5,-84.09"/>
</a>
</g>
</g>
<!-- Node4 -->
<g id="Node000004" class="node">
<title>Node4</title>
<g id="a_Node000004"><a xlink:title=" ">
<polygon fill="#e0e0e0" stroke="#999999" points="112,-19 0,-19 0,0 112,0 112,-19"/>
<text text-anchor="middle" x="56" y="-7" font-family="Helvetica,sans-Serif" font-size="10.00">RmlUi/Core/Types.h</text>
</a>
</g>
</g>
<!-- Node3&#45;&gt;Node4 -->
<g id="edge3_Node000003_Node000004" class="edge">
<title>Node3&#45;&gt;Node4</title>
<g id="a_edge3_Node000003_Node000004"><a xlink:title=" ">
<path fill="none" stroke="#63b8ff" d="M123.99,-54.98C111.54,-46.84 92.54,-34.41 77.79,-24.76"/>
<polygon fill="#63b8ff" stroke="#63b8ff" points="79.54,-21.72 69.25,-19.17 75.7,-27.57 79.54,-21.72"/>
</a>
</g>
</g>
<!-- Node5 -->
<g id="Node000005" class="node">
<title>Node5</title>
<g id="a_Node000005"><a xlink:title=" ">
<polygon fill="#e0e0e0" stroke="#999999" points="305.5,-19 130.5,-19 130.5,0 305.5,0 305.5,-19"/>
<text text-anchor="middle" x="218" y="-7" font-family="Helvetica,sans-Serif" font-size="10.00">RmlUi/Core/ElementDocument.h</text>
</a>
</g>
</g>
<!-- Node3&#45;&gt;Node5 -->
<g id="edge4_Node000003_Node000005" class="edge">
<title>Node3&#45;&gt;Node5</title>
<g id="a_edge4_Node000003_Node000005"><a xlink:title=" ">
<path fill="none" stroke="#63b8ff" d="M150.01,-54.98C162.46,-46.84 181.46,-34.41 196.21,-24.76"/>
<polygon fill="#63b8ff" stroke="#63b8ff" points="198.3,-27.57 204.75,-19.17 194.46,-21.72 198.3,-27.57"/>
</a>
</g>
</g>
</g>
</svg>
</svg>

<style type='text/css'>
<![CDATA[
[data-mouse-over-selected='false'] { opacity: 0.7; }
[data-mouse-over-selected='true']  { opacity: 1.0; }
]]>
</style>
<script type="application/ecmascript"><![CDATA[
document.addEventListener('DOMContentLoaded', (event) => {
  highlightEdges();
  highlightAdjacentNodes();
});
]]></script>
</svg>
