<?xml version="1.0" encoding="UTF-8" standalone="no"?>
<!DOCTYPE svg PUBLIC "-//W3C//DTD SVG 1.1//EN"
 "http://www.w3.org/Graphics/SVG/1.1/DTD/svg11.dtd">
<!-- Generated by graphviz version 2.43.0 (0)
 -->
<!-- Title: Clipboard++/QClipboard/KeyShortCuts/KeyShortCutManager.cpp Pages: 1 -->
<!--zoomable 379 -->

<svg id="main" version="1.1" xmlns="http://www.w3.org/2000/svg" xmlns:xlink="http://www.w3.org/1999/xlink" xml:space="preserve" onload="init(evt)">
<style type="text/css"><![CDATA[
.node, .edge {opacity: 0.7;}
.node.selected, .edge.selected {opacity: 1;}
.edge:hover path { stroke: red; }
.edge:hover polygon { stroke: red; fill: red; }
]]></style>

<defs>
  <circle id="rim" cx="0" cy="0" r="7"/>
  <circle id="rim2" cx="0" cy="0" r="3.5"/>
  <g id="zoomPlus">
    <use xlink:href="#rim" fill="#404040"><set attributeName="fill" to="#808080" begin="zoomplus.mouseover" end="zoomplus.mouseout"/></use>
    <path d="M-4,0h8M0,-4v8" fill="none" stroke="white" stroke-width="1.5" pointer-events="none"/>
  </g>
  <g id="zoomMin">
    <use xlink:href="#rim" fill="#404040"><set attributeName="fill" to="#808080" begin="zoomminus.mouseover" end="zoomminus.mouseout"/></use>
    <path d="M-4,0h8" fill="none" stroke="white" stroke-width="1.5" pointer-events="none"/>
  </g>
  <g id="arrowUp" transform="translate(30 24)">
    <use xlink:href="#rim"/>
    <path pointer-events="none" fill="none" stroke="white" stroke-width="1.5" d="M0,-3.0v7 M-2.5,-0.5L0,-3.0L2.5,-0.5"/>
  </g>
  <g id="arrowRight" transform="rotate(90) translate(36 -43)">
    <use xlink:href="#rim"/>
    <path pointer-events="none" fill="none" stroke="white" stroke-width="1.5" d="M0,-3.0v7 M-2.5,-0.5L0,-3.0L2.5,-0.5"/>
  </g>
  <g id="arrowDown" transform="rotate(180) translate(-30 -48)">
    <use xlink:href="#rim"/>
    <path pointer-events="none" fill="none" stroke="white" stroke-width="1.5" d="M0,-3.0v7 M-2.5,-0.5L0,-3.0L2.5,-0.5"/>
  </g>
  <g id="arrowLeft" transform="rotate(270) translate(-36 17)">
    <use xlink:href="#rim"/>
    <path pointer-events="none" fill="none" stroke="white" stroke-width="1.5" d="M0,-3.0v7 M-2.5,-0.5L0,-3.0L2.5,-0.5"/>
  </g>
  <g id="resetDef">
    <use xlink:href="#rim2" fill="#404040"><set attributeName="fill" to="#808080" begin="reset.mouseover" end="reset.mouseout"/></use>
  </g>
</defs>
<script type="application/ecmascript">
var viewWidth = 863;
var viewHeight = 379;
var sectionId = 'dynsection-0';
</script>
<script type="application/ecmascript" xlink:href="svg.min.js"/>
<svg id="graph" class="graph">
<g id="viewport">
<title>Clipboard++/QClipboard/KeyShortCuts/KeyShortCutManager.cpp</title>
<!-- Node1 -->
<g id="Node000001" class="node">
<title>Node1</title>
<g id="a_Node000001"><a xlink:title=" ">
<polygon fill="#999999" stroke="#666666" points="672.41,-371 462.41,-371 462.41,-341 672.41,-341 672.41,-371"/>
<text text-anchor="start" x="470.41" y="-359" font-family="Helvetica,sans-Serif" font-size="10.00">Clipboard++/QClipboard</text>
<text text-anchor="middle" x="567.41" y="-348" font-family="Helvetica,sans-Serif" font-size="10.00">/KeyShortCuts/KeyShortCutManager.cpp</text>
</a>
</g>
</g>
<!-- Node2 -->
<g id="Node000002" class="node">
<title>Node2</title>
<g id="a_Node000002"><a xlink:href="KeyShortCutManager_8h.html" target="_top" xlink:title=" ">
<polygon fill="white" stroke="#666666" points="458.91,-305 313.91,-305 313.91,-275 458.91,-275 458.91,-305"/>
<text text-anchor="start" x="321.91" y="-293" font-family="Helvetica,sans-Serif" font-size="10.00">KeyShortCuts/KeyShortCut</text>
<text text-anchor="middle" x="386.41" y="-282" font-family="Helvetica,sans-Serif" font-size="10.00">Manager.h</text>
</a>
</g>
</g>
<!-- Node1&#45;&gt;Node2 -->
<g id="edge1_Node000001_Node000002" class="edge">
<title>Node1&#45;&gt;Node2</title>
<g id="a_edge1_Node000001_Node000002"><a xlink:title=" ">
<path fill="none" stroke="#63b8ff" d="M527.69,-340.95C500.58,-331.37 464.48,-318.6 435.55,-308.37"/>
<polygon fill="#63b8ff" stroke="#63b8ff" points="436.64,-305.05 426.04,-305.01 434.3,-311.65 436.64,-305.05"/>
</a>
</g>
</g>
<!-- Node13 -->
<g id="Node000013" class="node">
<title>Node13</title>
<g id="a_Node000013"><a xlink:href="FileManager_8h.html" target="_top" xlink:title=" ">
<polygon fill="white" stroke="#666666" points="126.41,-129 16.41,-129 16.41,-110 126.41,-110 126.41,-129"/>
<text text-anchor="middle" x="71.41" y="-117" font-family="Helvetica,sans-Serif" font-size="10.00">Utils/FileManager.h</text>
</a>
</g>
</g>
<!-- Node1&#45;&gt;Node13 -->
<g id="edge16_Node000001_Node000013" class="edge">
<title>Node1&#45;&gt;Node13</title>
<g id="a_edge16_Node000001_Node000013"><a xlink:title=" ">
<path fill="none" stroke="#63b8ff" d="M462.38,-345.39C413.26,-338.3 354.83,-326.06 305.41,-305 209.84,-264.27 120.22,-173.91 86.03,-136.85"/>
<polygon fill="#63b8ff" stroke="#63b8ff" points="88.56,-134.43 79.24,-129.4 83.39,-139.15 88.56,-134.43"/>
</a>
</g>
</g>
<!-- Node16 -->
<g id="Node000016" class="node">
<title>Node16</title>
<g id="a_Node000016"><a xlink:href="StringUtils_8h.html" target="_top" xlink:title=" ">
<polygon fill="white" stroke="#666666" points="579.41,-299.5 477.41,-299.5 477.41,-280.5 579.41,-280.5 579.41,-299.5"/>
<text text-anchor="middle" x="528.41" y="-287.5" font-family="Helvetica,sans-Serif" font-size="10.00">Utils/StringUtils.h</text>
</a>
</g>
</g>
<!-- Node1&#45;&gt;Node16 -->
<g id="edge22_Node000001_Node000016" class="edge">
<title>Node1&#45;&gt;Node16</title>
<g id="a_edge22_Node000001_Node000016"><a xlink:title=" ">
<path fill="none" stroke="#63b8ff" d="M558.76,-340.8C552.98,-331.31 545.33,-318.76 539.16,-308.63"/>
<polygon fill="#63b8ff" stroke="#63b8ff" points="542,-306.56 533.8,-299.84 536.02,-310.21 542,-306.56"/>
</a>
</g>
</g>
<!-- Node17 -->
<g id="Node000017" class="node">
<title>Node17</title>
<g id="a_Node000017"><a xlink:title=" ">
<polygon fill="#e0e0e0" stroke="#999999" points="668.41,-239 556.41,-239 556.41,-220 668.41,-220 668.41,-239"/>
<text text-anchor="middle" x="612.41" y="-227" font-family="Helvetica,sans-Serif" font-size="10.00">RmlUi/Core/Types.h</text>
</a>
</g>
</g>
<!-- Node1&#45;&gt;Node17 -->
<g id="edge26_Node000001_Node000017" class="edge">
<title>Node1&#45;&gt;Node17</title>
<g id="a_edge26_Node000001_Node000017"><a xlink:title=" ">
<path fill="none" stroke="#63b8ff" d="M573.81,-340.69C578.15,-330.76 583.9,-317.18 588.41,-305 595.4,-286.13 602.33,-264.17 606.94,-249"/>
<polygon fill="#63b8ff" stroke="#63b8ff" points="610.33,-249.88 609.85,-239.3 603.62,-247.87 610.33,-249.88"/>
</a>
</g>
</g>
<!-- Node18 -->
<g id="Node000018" class="node">
<title>Node18</title>
<g id="a_Node000018"><a xlink:title=" ">
<polygon fill="#e0e0e0" stroke="#999999" points="786.91,-299.5 635.91,-299.5 635.91,-280.5 786.91,-280.5 786.91,-299.5"/>
<text text-anchor="middle" x="711.41" y="-287.5" font-family="Helvetica,sans-Serif" font-size="10.00">RmlUi/Core/StringUtilities.h</text>
</a>
</g>
</g>
<!-- Node1&#45;&gt;Node18 -->
<g id="edge27_Node000001_Node000018" class="edge">
<title>Node1&#45;&gt;Node18</title>
<g id="a_edge27_Node000001_Node000018"><a xlink:title=" ">
<path fill="none" stroke="#63b8ff" d="M599.02,-340.95C624.05,-329.83 658.71,-314.42 682.9,-303.67"/>
<polygon fill="#63b8ff" stroke="#63b8ff" points="684.53,-306.78 692.25,-299.52 681.69,-300.38 684.53,-306.78"/>
</a>
</g>
</g>
<!-- Node19 -->
<g id="Node000019" class="node">
<title>Node19</title>
<g id="a_Node000019"><a xlink:title=" ">
<polygon fill="#e0e0e0" stroke="#999999" points="855.41,-299.5 805.41,-299.5 805.41,-280.5 855.41,-280.5 855.41,-299.5"/>
<text text-anchor="middle" x="830.41" y="-287.5" font-family="Helvetica,sans-Serif" font-size="10.00">format</text>
</a>
</g>
</g>
<!-- Node1&#45;&gt;Node19 -->
<g id="edge28_Node000001_Node000019" class="edge">
<title>Node1&#45;&gt;Node19</title>
<g id="a_edge28_Node000001_Node000019"><a xlink:title=" ">
<path fill="none" stroke="#63b8ff" d="M648.06,-340.98C692.35,-332.39 747.96,-320.14 796.41,-305 798.09,-304.48 799.8,-303.9 801.51,-303.3"/>
<polygon fill="#63b8ff" stroke="#63b8ff" points="803.12,-306.43 811.21,-299.59 800.62,-299.89 803.12,-306.43"/>
</a>
</g>
</g>
<!-- Node3 -->
<g id="Node000003" class="node">
<title>Node3</title>
<g id="a_Node000003"><a xlink:href="KeyShortCut_8h.html" target="_top" xlink:title=" ">
<polygon fill="white" stroke="#666666" points="435.41,-74 349.41,-74 349.41,-55 435.41,-55 435.41,-74"/>
<text text-anchor="middle" x="392.41" y="-62" font-family="Helvetica,sans-Serif" font-size="10.00">KeyShortCut.h</text>
</a>
</g>
</g>
<!-- Node2&#45;&gt;Node3 -->
<g id="edge2_Node000002_Node000003" class="edge">
<title>Node2&#45;&gt;Node3</title>
<g id="a_edge2_Node000002_Node000003"><a xlink:title=" ">
<path fill="none" stroke="#63b8ff" d="M400.9,-274.63C409.32,-265.31 419.27,-252.44 424.41,-239 441.96,-193.19 431.41,-178.01 433.41,-129 433.76,-120.56 436.49,-117.87 433.41,-110 429.01,-98.73 420.27,-88.59 411.99,-80.85"/>
<polygon fill="#63b8ff" stroke="#63b8ff" points="414.18,-78.12 404.34,-74.2 409.59,-83.4 414.18,-78.12"/>
</a>
</g>
</g>
<!-- Node7 -->
<g id="Node000007" class="node">
<title>Node7</title>
<g id="a_Node000007"><a xlink:href="MemoryCellManager_8h.html" target="_top" xlink:title=" ">
<polygon fill="white" stroke="#666666" points="415.41,-239 221.41,-239 221.41,-220 415.41,-220 415.41,-239"/>
<text text-anchor="middle" x="318.41" y="-227" font-family="Helvetica,sans-Serif" font-size="10.00">MemoryCells/MemoryCellManager.h</text>
</a>
</g>
</g>
<!-- Node2&#45;&gt;Node7 -->
<g id="edge6_Node000002_Node000007" class="edge">
<title>Node2&#45;&gt;Node7</title>
<g id="a_edge6_Node000002_Node000007"><a xlink:title=" ">
<path fill="none" stroke="#63b8ff" d="M369.95,-274.84C359.78,-266.09 346.72,-254.85 336.3,-245.88"/>
<polygon fill="#63b8ff" stroke="#63b8ff" points="338.47,-243.13 328.6,-239.27 333.9,-248.44 338.47,-243.13"/>
</a>
</g>
</g>
<!-- Node4 -->
<g id="Node000004" class="node">
<title>Node4</title>
<g id="a_Node000004"><a xlink:title=" ">
<polygon fill="#e0e0e0" stroke="#999999" points="94.91,-19 47.91,-19 47.91,0 94.91,0 94.91,-19"/>
<text text-anchor="middle" x="71.41" y="-7" font-family="Helvetica,sans-Serif" font-size="10.00">vector</text>
</a>
</g>
</g>
<!-- Node3&#45;&gt;Node4 -->
<g id="edge3_Node000003_Node000004" class="edge">
<title>Node3&#45;&gt;Node4</title>
<g id="a_edge3_Node000003_Node000004"><a xlink:title=" ">
<path fill="none" stroke="#63b8ff" d="M349.12,-56.35C284.52,-45.69 164.21,-25.82 105.46,-16.12"/>
<polygon fill="#63b8ff" stroke="#63b8ff" points="105.67,-12.61 95.24,-14.43 104.53,-19.52 105.67,-12.61"/>
</a>
</g>
</g>
<!-- Node5 -->
<g id="Node000005" class="node">
<title>Node5</title>
<g id="a_Node000005"><a xlink:title=" ">
<polygon fill="#e0e0e0" stroke="#999999" points="343.41,-19 299.41,-19 299.41,0 343.41,0 343.41,-19"/>
<text text-anchor="middle" x="321.41" y="-7" font-family="Helvetica,sans-Serif" font-size="10.00">string</text>
</a>
</g>
</g>
<!-- Node3&#45;&gt;Node5 -->
<g id="edge4_Node000003_Node000005" class="edge">
<title>Node3&#45;&gt;Node5</title>
<g id="a_edge4_Node000003_Node000005"><a xlink:title=" ">
<path fill="none" stroke="#63b8ff" d="M381.01,-54.98C370.31,-47 354.07,-34.88 341.25,-25.31"/>
<polygon fill="#63b8ff" stroke="#63b8ff" points="343.14,-22.35 333.03,-19.17 338.95,-27.96 343.14,-22.35"/>
</a>
</g>
</g>
<!-- Node6 -->
<g id="Node000006" class="node">
<title>Node6</title>
<g id="a_Node000006"><a xlink:title=" ">
<polygon fill="#e0e0e0" stroke="#999999" points="539.91,-19 430.91,-19 430.91,0 539.91,0 539.91,-19"/>
<text text-anchor="middle" x="485.41" y="-7" font-family="Helvetica,sans-Serif" font-size="10.00">RmlUi/Core/Input.h</text>
</a>
</g>
</g>
<!-- Node3&#45;&gt;Node6 -->
<g id="edge5_Node000003_Node000006" class="edge">
<title>Node3&#45;&gt;Node6</title>
<g id="a_edge5_Node000003_Node000006"><a xlink:title=" ">
<path fill="none" stroke="#63b8ff" d="M407.36,-54.98C421.91,-46.69 444.28,-33.94 461.35,-24.22"/>
<polygon fill="#63b8ff" stroke="#63b8ff" points="463.25,-27.16 470.2,-19.17 459.78,-21.08 463.25,-27.16"/>
</a>
</g>
</g>
<!-- Node7&#45;&gt;Node4 -->
<g id="edge14_Node000007_Node000004" class="edge">
<title>Node7&#45;&gt;Node4</title>
<g id="a_edge14_Node000007_Node000004"><a xlink:title=" ">
<path fill="none" stroke="#63b8ff" d="M268.09,-219.98C187.97,-205.25 37.36,-172.39 7.41,-129 -16.78,-93.95 25.86,-48.78 52.47,-25.64"/>
<polygon fill="#63b8ff" stroke="#63b8ff" points="54.73,-28.32 60.12,-19.2 50.22,-22.96 54.73,-28.32"/>
</a>
</g>
</g>
<!-- Node8 -->
<g id="Node000008" class="node">
<title>Node8</title>
<g id="a_Node000008"><a xlink:href="ClipboardInterface_8h.html" target="_top" xlink:title=" ">
<polygon fill="white" stroke="#666666" points="424.41,-129 308.41,-129 308.41,-110 424.41,-110 424.41,-129"/>
<text text-anchor="middle" x="366.41" y="-117" font-family="Helvetica,sans-Serif" font-size="10.00">ClipboardInterface.h</text>
</a>
</g>
</g>
<!-- Node7&#45;&gt;Node8 -->
<g id="edge7_Node000007_Node000008" class="edge">
<title>Node7&#45;&gt;Node8</title>
<g id="a_edge7_Node000007_Node000008"><a xlink:title=" ">
<path fill="none" stroke="#63b8ff" d="M328.59,-219.7C337.45,-211.43 349.87,-198.21 356.41,-184 362.91,-169.89 365.3,-152.34 366.13,-139.28"/>
<polygon fill="#63b8ff" stroke="#63b8ff" points="369.63,-139.27 366.51,-129.14 362.63,-139 369.63,-139.27"/>
</a>
</g>
</g>
<!-- Node9 -->
<g id="Node000009" class="node">
<title>Node9</title>
<g id="a_Node000009"><a xlink:href="ClipboardAdapter_8h.html" target="_top" xlink:title=" ">
<polygon fill="white" stroke="#666666" points="271.41,-184 161.41,-184 161.41,-165 271.41,-165 271.41,-184"/>
<text text-anchor="middle" x="216.41" y="-172" font-family="Helvetica,sans-Serif" font-size="10.00">ClipboardAdapter.h</text>
</a>
</g>
</g>
<!-- Node7&#45;&gt;Node9 -->
<g id="edge10_Node000007_Node000009" class="edge">
<title>Node7&#45;&gt;Node9</title>
<g id="a_edge10_Node000007_Node000009"><a xlink:title=" ">
<path fill="none" stroke="#63b8ff" d="M302.03,-219.98C285.84,-211.57 260.84,-198.59 242.03,-188.81"/>
<polygon fill="#63b8ff" stroke="#63b8ff" points="243.59,-185.68 233.1,-184.17 240.36,-191.89 243.59,-185.68"/>
</a>
</g>
</g>
<!-- Node12 -->
<g id="Node000012" class="node">
<title>Node12</title>
<g id="a_Node000012"><a xlink:title=" ">
<polygon fill="#e0e0e0" stroke="#999999" points="347.41,-184 289.41,-184 289.41,-165 347.41,-165 347.41,-184"/>
<text text-anchor="middle" x="318.41" y="-172" font-family="Helvetica,sans-Serif" font-size="10.00">memory</text>
</a>
</g>
</g>
<!-- Node7&#45;&gt;Node12 -->
<g id="edge15_Node000007_Node000012" class="edge">
<title>Node7&#45;&gt;Node12</title>
<g id="a_edge15_Node000007_Node000012"><a xlink:title=" ">
<path fill="none" stroke="#63b8ff" d="M318.41,-219.75C318.41,-212.8 318.41,-202.85 318.41,-194.13"/>
<polygon fill="#63b8ff" stroke="#63b8ff" points="321.91,-194.09 318.41,-184.09 314.91,-194.09 321.91,-194.09"/>
</a>
</g>
</g>
<!-- Node8&#45;&gt;Node3 -->
<g id="edge9_Node000008_Node000003" class="edge">
<title>Node8&#45;&gt;Node3</title>
<g id="a_edge9_Node000008_Node000003"><a xlink:title=" ">
<path fill="none" stroke="#63b8ff" d="M370.71,-109.75C374.23,-102.57 379.33,-92.18 383.7,-83.27"/>
<polygon fill="#63b8ff" stroke="#63b8ff" points="386.94,-84.61 388.2,-74.09 380.65,-81.53 386.94,-84.61"/>
</a>
</g>
</g>
<!-- Node8&#45;&gt;Node5 -->
<g id="edge8_Node000008_Node000005" class="edge">
<title>Node8&#45;&gt;Node5</title>
<g id="a_edge8_Node000008_Node000005"><a xlink:title=" ">
<path fill="none" stroke="#63b8ff" d="M360.59,-109.96C354.85,-101.23 346.12,-87.13 340.41,-74 334.1,-59.47 329.08,-42.2 325.79,-29.34"/>
<polygon fill="#63b8ff" stroke="#63b8ff" points="329.13,-28.25 323.36,-19.36 322.33,-29.91 329.13,-28.25"/>
</a>
</g>
</g>
<!-- Node9&#45;&gt;Node8 -->
<g id="edge11_Node000009_Node000008" class="edge">
<title>Node9&#45;&gt;Node8</title>
<g id="a_edge11_Node000009_Node000008"><a xlink:title=" ">
<path fill="none" stroke="#63b8ff" d="M240.51,-164.98C265.3,-156.23 304.12,-142.51 332.1,-132.62"/>
<polygon fill="#63b8ff" stroke="#63b8ff" points="333.61,-135.8 341.88,-129.17 331.28,-129.2 333.61,-135.8"/>
</a>
</g>
</g>
<!-- Node10 -->
<g id="Node000010" class="node">
<title>Node10</title>
<g id="a_Node000010"><a xlink:title=" ">
<polygon fill="#e0e0e0" stroke="#999999" points="215.91,-129 144.91,-129 144.91,-110 215.91,-110 215.91,-129"/>
<text text-anchor="middle" x="180.41" y="-117" font-family="Helvetica,sans-Serif" font-size="10.00">QClipboard</text>
</a>
</g>
</g>
<!-- Node9&#45;&gt;Node10 -->
<g id="edge12_Node000009_Node000010" class="edge">
<title>Node9&#45;&gt;Node10</title>
<g id="a_edge12_Node000009_Node000010"><a xlink:title=" ">
<path fill="none" stroke="#63b8ff" d="M210.47,-164.75C205.44,-157.34 198.08,-146.5 191.9,-137.41"/>
<polygon fill="#63b8ff" stroke="#63b8ff" points="194.76,-135.39 186.25,-129.09 188.97,-139.33 194.76,-135.39"/>
</a>
</g>
</g>
<!-- Node11 -->
<g id="Node000011" class="node">
<title>Node11</title>
<g id="a_Node000011"><a xlink:title=" ">
<polygon fill="#e0e0e0" stroke="#999999" points="290.41,-129 234.41,-129 234.41,-110 290.41,-110 290.41,-129"/>
<text text-anchor="middle" x="262.41" y="-117" font-family="Helvetica,sans-Serif" font-size="10.00">QObject</text>
</a>
</g>
</g>
<!-- Node9&#45;&gt;Node11 -->
<g id="edge13_Node000009_Node000011" class="edge">
<title>Node9&#45;&gt;Node11</title>
<g id="a_edge13_Node000009_Node000011"><a xlink:title=" ">
<path fill="none" stroke="#63b8ff" d="M224.01,-164.75C230.57,-157.18 240.24,-146.05 248.23,-136.84"/>
<polygon fill="#63b8ff" stroke="#63b8ff" points="251.05,-138.94 254.96,-129.09 245.76,-134.35 251.05,-138.94"/>
</a>
</g>
</g>
<!-- Node13&#45;&gt;Node4 -->
<g id="edge18_Node000013_Node000004" class="edge">
<title>Node13&#45;&gt;Node4</title>
<g id="a_edge18_Node000013_Node000004"><a xlink:title=" ">
<path fill="none" stroke="#63b8ff" d="M71.41,-109.66C71.41,-92.17 71.41,-52.8 71.41,-29.27"/>
<polygon fill="#63b8ff" stroke="#63b8ff" points="74.91,-29.16 71.41,-19.16 67.91,-29.16 74.91,-29.16"/>
</a>
</g>
</g>
<!-- Node13&#45;&gt;Node5 -->
<g id="edge17_Node000013_Node000005" class="edge">
<title>Node13&#45;&gt;Node5</title>
<g id="a_edge17_Node000013_Node000005"><a xlink:title=" ">
<path fill="none" stroke="#63b8ff" d="M120.04,-109.95C166.94,-101.16 234.14,-86.96 257.41,-74 278.25,-62.4 296.96,-42.11 308.69,-27.59"/>
<polygon fill="#63b8ff" stroke="#63b8ff" points="311.66,-29.46 315.05,-19.42 306.14,-25.16 311.66,-29.46"/>
</a>
</g>
</g>
<!-- Node14 -->
<g id="Node000014" class="node">
<title>Node14</title>
<g id="a_Node000014"><a xlink:href="TranslationManager_8h.html" target="_top" xlink:title=" ">
<polygon fill="white" stroke="#666666" points="248.91,-74 127.91,-74 127.91,-55 248.91,-55 248.91,-74"/>
<text text-anchor="middle" x="188.41" y="-62" font-family="Helvetica,sans-Serif" font-size="10.00">TranslationManager.h</text>
</a>
</g>
</g>
<!-- Node13&#45;&gt;Node14 -->
<g id="edge19_Node000013_Node000014" class="edge">
<title>Node13&#45;&gt;Node14</title>
<g id="a_edge19_Node000013_Node000014"><a xlink:title=" ">
<path fill="none" stroke="#63b8ff" d="M90.21,-109.98C109.03,-101.46 138.24,-88.23 159.91,-78.41"/>
<polygon fill="#63b8ff" stroke="#63b8ff" points="161.61,-81.48 169.27,-74.17 158.72,-75.11 161.61,-81.48"/>
</a>
</g>
</g>
<!-- Node14&#45;&gt;Node5 -->
<g id="edge20_Node000014_Node000005" class="edge">
<title>Node14&#45;&gt;Node5</title>
<g id="a_edge20_Node000014_Node000005"><a xlink:title=" ">
<path fill="none" stroke="#63b8ff" d="M209.78,-54.98C231.56,-46.3 265.58,-32.75 290.34,-22.88"/>
<polygon fill="#63b8ff" stroke="#63b8ff" points="291.66,-26.12 299.66,-19.17 289.07,-19.62 291.66,-26.12"/>
</a>
</g>
</g>
<!-- Node15 -->
<g id="Node000015" class="node">
<title>Node15</title>
<g id="a_Node000015"><a xlink:title=" ">
<polygon fill="#e0e0e0" stroke="#999999" points="207.41,-19 169.41,-19 169.41,0 207.41,0 207.41,-19"/>
<text text-anchor="middle" x="188.41" y="-7" font-family="Helvetica,sans-Serif" font-size="10.00">map</text>
</a>
</g>
</g>
<!-- Node14&#45;&gt;Node15 -->
<g id="edge21_Node000014_Node000015" class="edge">
<title>Node14&#45;&gt;Node15</title>
<g id="a_edge21_Node000014_Node000015"><a xlink:title=" ">
<path fill="none" stroke="#63b8ff" d="M188.41,-54.75C188.41,-47.8 188.41,-37.85 188.41,-29.13"/>
<polygon fill="#63b8ff" stroke="#63b8ff" points="191.91,-29.09 188.41,-19.09 184.91,-29.09 191.91,-29.09"/>
</a>
</g>
</g>
<!-- Node16&#45;&gt;Node5 -->
<g id="edge23_Node000016_Node000005" class="edge">
<title>Node16&#45;&gt;Node5</title>
<g id="a_edge23_Node000016_Node000005"><a xlink:title=" ">
<path fill="none" stroke="#63b8ff" d="M523.45,-280.5C513.15,-262.04 490.41,-216.64 490.41,-175.5 490.41,-175.5 490.41,-175.5 490.41,-118.5 490.41,-54.14 402.3,-26.41 353.32,-15.97"/>
<polygon fill="#63b8ff" stroke="#63b8ff" points="354,-12.54 343.51,-14 352.62,-19.4 354,-12.54"/>
</a>
</g>
</g>
<!-- Node16&#45;&gt;Node6 -->
<g id="edge25_Node000016_Node000006" class="edge">
<title>Node16&#45;&gt;Node6</title>
<g id="a_edge25_Node000016_Node000006"><a xlink:title=" ">
<path fill="none" stroke="#63b8ff" d="M528.41,-280.46C528.41,-261.55 528.41,-214.71 528.41,-175.5 528.41,-175.5 528.41,-175.5 528.41,-118.5 528.41,-84.53 509.82,-48.53 497.09,-27.87"/>
<polygon fill="#63b8ff" stroke="#63b8ff" points="499.92,-25.8 491.58,-19.27 494.03,-29.58 499.92,-25.8"/>
</a>
</g>
</g>
<!-- Node16&#45;&gt;Node17 -->
<g id="edge24_Node000016_Node000017" class="edge">
<title>Node16&#45;&gt;Node17</title>
<g id="a_edge24_Node000016_Node000017"><a xlink:title=" ">
<path fill="none" stroke="#63b8ff" d="M540.81,-280.37C554.21,-271.04 575.79,-256.01 591.76,-244.88"/>
<polygon fill="#63b8ff" stroke="#63b8ff" points="593.76,-247.75 599.97,-239.17 589.76,-242.01 593.76,-247.75"/>
</a>
</g>
</g>
</g>
</svg>

<g id="navigator" transform="translate(0 0)" fill="#404254">
  <rect fill="#f2f5e9" fill-opacity="0.5" stroke="#606060" stroke-width=".5" x="0" y="0" width="60" height="60"/>
  <use id="zoomplus" xlink:href="#zoomPlus" x="17" y="9" onmousedown="handleZoom(evt,'in')"/>
  <use id="zoomminus" xlink:href="#zoomMin" x="42" y="9" onmousedown="handleZoom(evt,'out')"/>
  <use id="reset" xlink:href="#resetDef" x="30" y="36" onmousedown="handleReset()"/>
   <use id="arrowup" xlink:href="#arrowUp" x="0" y="0" onmousedown="handlePan(0,-1)"/>
  <use id="arrowright" xlink:href="#arrowRight" x="0" y="0" onmousedown="handlePan(1,0)"/>
  <use id="arrowdown" xlink:href="#arrowDown" x="0" y="0" onmousedown="handlePan(0,1)"/>
  <use id="arrowleft" xlink:href="#arrowLeft" x="0" y="0" onmousedown="handlePan(-1,0)"/>
</g>
<svg viewBox="0 0 15 15" width="100%" height="30px" preserveAspectRatio="xMaxYMin meet">
 <g id="arrow_out" transform="scale(0.3 0.3)">
  <a xlink:href="KeyShortCutManager_8cpp__incl_org.svg" target="_base">
   <rect id="button" ry="5" rx="5" y="6" x="6" height="38" width="38"
        fill="#f2f5e9" fill-opacity="0.5" stroke="#606060" stroke-width="1.0"/>
   <path id="arrow"
     d="M 11.500037,31.436501 C 11.940474,20.09759 22.043105,11.32322 32.158766,21.979434 L 37.068811,17.246167 C 37.068811,17.246167 37.088388,32 37.088388,32 L 22.160133,31.978069 C 22.160133,31.978069 26.997745,27.140456 26.997745,27.140456 C 18.528582,18.264221 13.291696,25.230495 11.500037,31.436501 z"
     style="fill:#404040;"/>
  </a>
 </g>
</svg>

<style type='text/css'>
<![CDATA[
[data-mouse-over-selected='false'] { opacity: 0.7; }
[data-mouse-over-selected='true']  { opacity: 1.0; }
]]>
</style>
<script type="application/ecmascript"><![CDATA[
document.addEventListener('DOMContentLoaded', (event) => {
  highlightEdges();
  highlightAdjacentNodes();
});
]]></script>
</svg>
