<?xml version="1.0" encoding="UTF-8" standalone="no"?>
<!DOCTYPE svg PUBLIC "-//W3C//DTD SVG 1.1//EN"
 "http://www.w3.org/Graphics/SVG/1.1/DTD/svg11.dtd">
<!-- Generated by graphviz version 2.43.0 (0)
 -->
<!-- Title: Clipboard++/QClipboard/KeyShortCuts/KeyShortCutManager.h Pages: 1 -->
<svg width="395pt" height="313pt"
 viewBox="0.00 0.00 395.00 313.00" xmlns="http://www.w3.org/2000/svg" xmlns:xlink="http://www.w3.org/1999/xlink">
<g id="graph0" class="graph" transform="scale(1 1) rotate(0) translate(4 309)">
<title>Clipboard++/QClipboard/KeyShortCuts/KeyShortCutManager.h</title>
<!-- Node1 -->
<g id="Node000001" class="node">
<title>Node1</title>
<g id="a_Node000001"><a xlink:title=" ">
<polygon fill="#999999" stroke="#666666" points="387,-305 188,-305 188,-275 387,-275 387,-305"/>
<text text-anchor="start" x="196" y="-293" font-family="Helvetica,sans-Serif" font-size="10.00">Clipboard++/QClipboard</text>
<text text-anchor="middle" x="287.5" y="-282" font-family="Helvetica,sans-Serif" font-size="10.00">/KeyShortCuts/KeyShortCutManager.h</text>
</a>
</g>
</g>
<!-- Node2 -->
<g id="Node000002" class="node">
<title>Node2</title>
<g id="a_Node000002"><a xlink:href="KeyShortCut_8h.html" target="_top" xlink:title=" ">
<polygon fill="white" stroke="#666666" points="275.5,-74 189.5,-74 189.5,-55 275.5,-55 275.5,-74"/>
<text text-anchor="middle" x="232.5" y="-62" font-family="Helvetica,sans-Serif" font-size="10.00">KeyShortCut.h</text>
</a>
</g>
</g>
<!-- Node1&#45;&gt;Node2 -->
<g id="edge1_Node000001_Node000002" class="edge">
<title>Node1&#45;&gt;Node2</title>
<g id="a_edge1_Node000001_Node000002"><a xlink:title=" ">
<path fill="none" stroke="#63b8ff" d="M305.13,-274.81C314.93,-265.74 326.19,-253.06 331.5,-239 334.48,-231.1 332.97,-228.32 331.5,-220 322.47,-168.77 322.43,-151.83 291.5,-110 282.38,-97.67 268.92,-87.15 257.15,-79.44"/>
<polygon fill="#63b8ff" stroke="#63b8ff" points="258.92,-76.42 248.58,-74.11 255.23,-82.37 258.92,-76.42"/>
</a>
</g>
</g>
<!-- Node6 -->
<g id="Node000006" class="node">
<title>Node6</title>
<g id="a_Node000006"><a xlink:href="MemoryCellManager_8h.html" target="_top" xlink:title=" ">
<polygon fill="white" stroke="#666666" points="322.5,-239 128.5,-239 128.5,-220 322.5,-220 322.5,-239"/>
<text text-anchor="middle" x="225.5" y="-227" font-family="Helvetica,sans-Serif" font-size="10.00">MemoryCells/MemoryCellManager.h</text>
</a>
</g>
</g>
<!-- Node1&#45;&gt;Node6 -->
<g id="edge5_Node000001_Node000006" class="edge">
<title>Node1&#45;&gt;Node6</title>
<g id="a_edge5_Node000001_Node000006"><a xlink:title=" ">
<path fill="none" stroke="#63b8ff" d="M272.49,-274.84C263.31,-266.17 251.55,-255.08 242.09,-246.15"/>
<polygon fill="#63b8ff" stroke="#63b8ff" points="244.47,-243.58 234.79,-239.27 239.66,-248.67 244.47,-243.58"/>
</a>
</g>
</g>
<!-- Node3 -->
<g id="Node000003" class="node">
<title>Node3</title>
<g id="a_Node000003"><a xlink:title=" ">
<polygon fill="#e0e0e0" stroke="#999999" points="352,-19 305,-19 305,0 352,0 352,-19"/>
<text text-anchor="middle" x="328.5" y="-7" font-family="Helvetica,sans-Serif" font-size="10.00">vector</text>
</a>
</g>
</g>
<!-- Node2&#45;&gt;Node3 -->
<g id="edge2_Node000002_Node000003" class="edge">
<title>Node2&#45;&gt;Node3</title>
<g id="a_edge2_Node000002_Node000003"><a xlink:title=" ">
<path fill="none" stroke="#63b8ff" d="M247.92,-54.98C262.95,-46.69 286.04,-33.94 303.66,-24.22"/>
<polygon fill="#63b8ff" stroke="#63b8ff" points="305.73,-27.07 312.8,-19.17 302.35,-20.94 305.73,-27.07"/>
</a>
</g>
</g>
<!-- Node4 -->
<g id="Node000004" class="node">
<title>Node4</title>
<g id="a_Node000004"><a xlink:title=" ">
<polygon fill="#e0e0e0" stroke="#999999" points="159.5,-19 115.5,-19 115.5,0 159.5,0 159.5,-19"/>
<text text-anchor="middle" x="137.5" y="-7" font-family="Helvetica,sans-Serif" font-size="10.00">string</text>
</a>
</g>
</g>
<!-- Node2&#45;&gt;Node4 -->
<g id="edge3_Node000002_Node000004" class="edge">
<title>Node2&#45;&gt;Node4</title>
<g id="a_edge3_Node000002_Node000004"><a xlink:title=" ">
<path fill="none" stroke="#63b8ff" d="M217.24,-54.98C202.37,-46.69 179.52,-33.94 162.08,-24.22"/>
<polygon fill="#63b8ff" stroke="#63b8ff" points="163.48,-20.99 153.04,-19.17 160.07,-27.1 163.48,-20.99"/>
</a>
</g>
</g>
<!-- Node5 -->
<g id="Node000005" class="node">
<title>Node5</title>
<g id="a_Node000005"><a xlink:title=" ">
<polygon fill="#e0e0e0" stroke="#999999" points="287,-19 178,-19 178,0 287,0 287,-19"/>
<text text-anchor="middle" x="232.5" y="-7" font-family="Helvetica,sans-Serif" font-size="10.00">RmlUi/Core/Input.h</text>
</a>
</g>
</g>
<!-- Node2&#45;&gt;Node5 -->
<g id="edge4_Node000002_Node000005" class="edge">
<title>Node2&#45;&gt;Node5</title>
<g id="a_edge4_Node000002_Node000005"><a xlink:title=" ">
<path fill="none" stroke="#63b8ff" d="M232.5,-54.75C232.5,-47.8 232.5,-37.85 232.5,-29.13"/>
<polygon fill="#63b8ff" stroke="#63b8ff" points="236,-29.09 232.5,-19.09 229,-29.09 236,-29.09"/>
</a>
</g>
</g>
<!-- Node6&#45;&gt;Node3 -->
<g id="edge13_Node000006_Node000003" class="edge">
<title>Node6&#45;&gt;Node3</title>
<g id="a_edge13_Node000006_Node000003"><a xlink:title=" ">
<path fill="none" stroke="#63b8ff" d="M236.14,-219.92C245.9,-211.6 260.21,-198.18 269.5,-184 302.57,-133.54 319.02,-62.63 325.33,-29.26"/>
<polygon fill="#63b8ff" stroke="#63b8ff" points="328.83,-29.58 327.15,-19.11 321.94,-28.34 328.83,-29.58"/>
</a>
</g>
</g>
<!-- Node7 -->
<g id="Node000007" class="node">
<title>Node7</title>
<g id="a_Node000007"><a xlink:href="ClipboardInterface_8h.html" target="_top" xlink:title=" ">
<polygon fill="white" stroke="#666666" points="282.5,-129 166.5,-129 166.5,-110 282.5,-110 282.5,-129"/>
<text text-anchor="middle" x="224.5" y="-117" font-family="Helvetica,sans-Serif" font-size="10.00">ClipboardInterface.h</text>
</a>
</g>
</g>
<!-- Node6&#45;&gt;Node7 -->
<g id="edge6_Node000006_Node000007" class="edge">
<title>Node6&#45;&gt;Node7</title>
<g id="a_edge6_Node000006_Node000007"><a xlink:title=" ">
<path fill="none" stroke="#63b8ff" d="M234.34,-219.77C245.34,-207.81 261.93,-185.47 255.5,-165 252.27,-154.71 245.72,-144.72 239.47,-136.82"/>
<polygon fill="#63b8ff" stroke="#63b8ff" points="242.11,-134.52 232.98,-129.15 236.77,-139.04 242.11,-134.52"/>
</a>
</g>
</g>
<!-- Node8 -->
<g id="Node000008" class="node">
<title>Node8</title>
<g id="a_Node000008"><a xlink:href="ClipboardAdapter_8h.html" target="_top" xlink:title=" ">
<polygon fill="white" stroke="#666666" points="170.5,-184 60.5,-184 60.5,-165 170.5,-165 170.5,-184"/>
<text text-anchor="middle" x="115.5" y="-172" font-family="Helvetica,sans-Serif" font-size="10.00">ClipboardAdapter.h</text>
</a>
</g>
</g>
<!-- Node6&#45;&gt;Node8 -->
<g id="edge9_Node000006_Node000008" class="edge">
<title>Node6&#45;&gt;Node8</title>
<g id="a_edge9_Node000006_Node000008"><a xlink:title=" ">
<path fill="none" stroke="#63b8ff" d="M207.83,-219.98C190.21,-211.5 162.92,-198.35 142.57,-188.54"/>
<polygon fill="#63b8ff" stroke="#63b8ff" points="144.02,-185.36 133.49,-184.17 140.98,-191.66 144.02,-185.36"/>
</a>
</g>
</g>
<!-- Node11 -->
<g id="Node000011" class="node">
<title>Node11</title>
<g id="a_Node000011"><a xlink:title=" ">
<polygon fill="#e0e0e0" stroke="#999999" points="246.5,-184 188.5,-184 188.5,-165 246.5,-165 246.5,-184"/>
<text text-anchor="middle" x="217.5" y="-172" font-family="Helvetica,sans-Serif" font-size="10.00">memory</text>
</a>
</g>
</g>
<!-- Node6&#45;&gt;Node11 -->
<g id="edge14_Node000006_Node000011" class="edge">
<title>Node6&#45;&gt;Node11</title>
<g id="a_edge14_Node000006_Node000011"><a xlink:title=" ">
<path fill="none" stroke="#63b8ff" d="M224.18,-219.75C223.13,-212.8 221.63,-202.85 220.31,-194.13"/>
<polygon fill="#63b8ff" stroke="#63b8ff" points="223.75,-193.45 218.8,-184.09 216.83,-194.5 223.75,-193.45"/>
</a>
</g>
</g>
<!-- Node7&#45;&gt;Node2 -->
<g id="edge8_Node000007_Node000002" class="edge">
<title>Node7&#45;&gt;Node2</title>
<g id="a_edge8_Node000007_Node000002"><a xlink:title=" ">
<path fill="none" stroke="#63b8ff" d="M225.82,-109.75C226.87,-102.8 228.37,-92.85 229.69,-84.13"/>
<polygon fill="#63b8ff" stroke="#63b8ff" points="233.17,-84.5 231.2,-74.09 226.25,-83.45 233.17,-84.5"/>
</a>
</g>
</g>
<!-- Node7&#45;&gt;Node4 -->
<g id="edge7_Node000007_Node000004" class="edge">
<title>Node7&#45;&gt;Node4</title>
<g id="a_edge7_Node000007_Node000004"><a xlink:title=" ">
<path fill="none" stroke="#63b8ff" d="M214.88,-109.76C205.6,-101.11 191.39,-87.27 180.5,-74 168.26,-59.1 156.11,-40.73 147.86,-27.59"/>
<polygon fill="#63b8ff" stroke="#63b8ff" points="150.83,-25.74 142.6,-19.07 144.87,-29.42 150.83,-25.74"/>
</a>
</g>
</g>
<!-- Node8&#45;&gt;Node7 -->
<g id="edge10_Node000008_Node000007" class="edge">
<title>Node8&#45;&gt;Node7</title>
<g id="a_edge10_Node000008_Node000007"><a xlink:title=" ">
<path fill="none" stroke="#63b8ff" d="M133.01,-164.98C150.47,-156.5 177.51,-143.35 197.67,-133.54"/>
<polygon fill="#63b8ff" stroke="#63b8ff" points="199.21,-136.69 206.67,-129.17 196.14,-130.4 199.21,-136.69"/>
</a>
</g>
</g>
<!-- Node9 -->
<g id="Node000009" class="node">
<title>Node9</title>
<g id="a_Node000009"><a xlink:title=" ">
<polygon fill="#e0e0e0" stroke="#999999" points="71,-129 0,-129 0,-110 71,-110 71,-129"/>
<text text-anchor="middle" x="35.5" y="-117" font-family="Helvetica,sans-Serif" font-size="10.00">QClipboard</text>
</a>
</g>
</g>
<!-- Node8&#45;&gt;Node9 -->
<g id="edge11_Node000008_Node000009" class="edge">
<title>Node8&#45;&gt;Node9</title>
<g id="a_edge11_Node000008_Node000009"><a xlink:title=" ">
<path fill="none" stroke="#63b8ff" d="M102.65,-164.98C90.36,-156.84 71.59,-144.41 57.02,-134.76"/>
<polygon fill="#63b8ff" stroke="#63b8ff" points="58.86,-131.78 48.59,-129.17 54.99,-137.61 58.86,-131.78"/>
</a>
</g>
</g>
<!-- Node10 -->
<g id="Node000010" class="node">
<title>Node10</title>
<g id="a_Node000010"><a xlink:title=" ">
<polygon fill="#e0e0e0" stroke="#999999" points="145.5,-129 89.5,-129 89.5,-110 145.5,-110 145.5,-129"/>
<text text-anchor="middle" x="117.5" y="-117" font-family="Helvetica,sans-Serif" font-size="10.00">QObject</text>
</a>
</g>
</g>
<!-- Node8&#45;&gt;Node10 -->
<g id="edge12_Node000008_Node000010" class="edge">
<title>Node8&#45;&gt;Node10</title>
<g id="a_edge12_Node000008_Node000010"><a xlink:title=" ">
<path fill="none" stroke="#63b8ff" d="M115.83,-164.75C116.09,-157.8 116.47,-147.85 116.8,-139.13"/>
<polygon fill="#63b8ff" stroke="#63b8ff" points="120.3,-139.21 117.18,-129.09 113.3,-138.95 120.3,-139.21"/>
</a>
</g>
</g>
</g>
</svg>
