<?xml version="1.0" encoding="UTF-8" standalone="no"?>
<!DOCTYPE svg PUBLIC "-//W3C//DTD SVG 1.1//EN"
 "http://www.w3.org/Graphics/SVG/1.1/DTD/svg11.dtd">
<!-- Generated by graphviz version 2.43.0 (0)
 -->
<!-- Title: Clipboard++/Utils/LinkManager.h Pages: 1 -->
<svg width="697pt" height="159pt"
 viewBox="0.00 0.00 696.50 159.00" xmlns="http://www.w3.org/2000/svg" xmlns:xlink="http://www.w3.org/1999/xlink">
<g id="graph0" class="graph" transform="scale(1 1) rotate(0) translate(4 155)">
<title>Clipboard++/Utils/LinkManager.h</title>
<!-- Node1 -->
<g id="Node000001" class="node">
<title>Node1</title>
<g id="a_Node000001"><a xlink:title=" ">
<polygon fill="#999999" stroke="#666666" points="498.5,-151 319.5,-151 319.5,-132 498.5,-132 498.5,-151"/>
<text text-anchor="middle" x="409" y="-139" font-family="Helvetica,sans-Serif" font-size="10.00">Clipboard++/Utils/LinkManager.h</text>
</a>
</g>
</g>
<!-- Node2 -->
<g id="Node000002" class="node">
<title>Node2</title>
<g id="a_Node000002"><a xlink:href="HelpEvent_8h.html" target="_top" xlink:title=" ">
<polygon fill="white" stroke="#666666" points="320.5,-96 115.5,-96 115.5,-66 320.5,-66 320.5,-96"/>
<text text-anchor="start" x="123.5" y="-84" font-family="Helvetica,sans-Serif" font-size="10.00">Clipboard++/RmlUI/EventHandlers</text>
<text text-anchor="middle" x="218" y="-73" font-family="Helvetica,sans-Serif" font-size="10.00">/Clipboard++Events/Main/HelpEvent.h</text>
</a>
</g>
</g>
<!-- Node1&#45;&gt;Node2 -->
<g id="edge1_Node000001_Node000002" class="edge">
<title>Node1&#45;&gt;Node2</title>
<g id="a_edge1_Node000001_Node000002"><a xlink:title=" ">
<path fill="none" stroke="#63b8ff" d="M371.3,-128.95C340.48,-119.51 296.78,-106.13 263.92,-96.06"/>
<polygon fill="#63b8ff" stroke="#63b8ff" points="370.64,-132.41 381.23,-131.99 372.69,-125.72 370.64,-132.41"/>
</a>
</g>
</g>
<!-- Node5 -->
<g id="Node000005" class="node">
<title>Node5</title>
<g id="a_Node000005"><a xlink:href="Shell_8cpp.html" target="_top" xlink:title=" ">
<polygon fill="white" stroke="#666666" points="479,-96 339,-96 339,-66 479,-66 479,-96"/>
<text text-anchor="start" x="347" y="-84" font-family="Helvetica,sans-Serif" font-size="10.00">Clipboard++/RmlUI/Shell</text>
<text text-anchor="middle" x="409" y="-73" font-family="Helvetica,sans-Serif" font-size="10.00">/src/Shell.cpp</text>
</a>
</g>
</g>
<!-- Node1&#45;&gt;Node5 -->
<g id="edge4_Node000001_Node000005" class="edge">
<title>Node1&#45;&gt;Node5</title>
<g id="a_edge4_Node000001_Node000005"><a xlink:title=" ">
<path fill="none" stroke="#63b8ff" d="M409,-121.65C409,-113.36 409,-103.78 409,-96.11"/>
<polygon fill="#63b8ff" stroke="#63b8ff" points="405.5,-121.87 409,-131.87 412.5,-121.87 405.5,-121.87"/>
</a>
</g>
</g>
<!-- Node6 -->
<g id="Node000006" class="node">
<title>Node6</title>
<g id="a_Node000006"><a xlink:href="LinkManager_8cpp.html" target="_top" xlink:title=" ">
<polygon fill="white" stroke="#666666" points="688.5,-90.5 497.5,-90.5 497.5,-71.5 688.5,-71.5 688.5,-90.5"/>
<text text-anchor="middle" x="593" y="-78.5" font-family="Helvetica,sans-Serif" font-size="10.00">Clipboard++/Utils/LinkManager.cpp</text>
</a>
</g>
</g>
<!-- Node1&#45;&gt;Node6 -->
<g id="edge5_Node000001_Node000006" class="edge">
<title>Node1&#45;&gt;Node6</title>
<g id="a_edge5_Node000001_Node000006"><a xlink:title=" ">
<path fill="none" stroke="#63b8ff" d="M445.29,-128.96C480.88,-117.65 534.31,-100.66 566.21,-90.52"/>
<polygon fill="#63b8ff" stroke="#63b8ff" points="444.22,-125.63 435.76,-131.99 446.35,-132.3 444.22,-125.63"/>
</a>
</g>
</g>
<!-- Node3 -->
<g id="Node000003" class="node">
<title>Node3</title>
<g id="a_Node000003"><a xlink:href="HelpEvent_8cpp.html" target="_top" xlink:title=" ">
<polygon fill="white" stroke="#666666" points="216,-30 0,-30 0,0 216,0 216,-30"/>
<text text-anchor="start" x="8" y="-18" font-family="Helvetica,sans-Serif" font-size="10.00">Clipboard++/RmlUI/EventHandlers</text>
<text text-anchor="middle" x="108" y="-7" font-family="Helvetica,sans-Serif" font-size="10.00">/Clipboard++Events/Main/HelpEvent.cpp</text>
</a>
</g>
</g>
<!-- Node2&#45;&gt;Node3 -->
<g id="edge2_Node000002_Node000003" class="edge">
<title>Node2&#45;&gt;Node3</title>
<g id="a_edge2_Node000002_Node000003"><a xlink:title=" ">
<path fill="none" stroke="#63b8ff" d="M184.82,-60.69C167.84,-50.82 147.55,-39.01 132.08,-30.01"/>
<polygon fill="#63b8ff" stroke="#63b8ff" points="183.46,-63.95 193.86,-65.95 186.98,-57.9 183.46,-63.95"/>
</a>
</g>
</g>
<!-- Node4 -->
<g id="Node000004" class="node">
<title>Node4</title>
<g id="a_Node000004"><a xlink:href="EventManager_8cpp.html" target="_top" xlink:title=" ">
<polygon fill="white" stroke="#666666" points="421.5,-30 234.5,-30 234.5,0 421.5,0 421.5,-30"/>
<text text-anchor="start" x="242.5" y="-18" font-family="Helvetica,sans-Serif" font-size="10.00">Clipboard++/RmlUI/EventHandlers</text>
<text text-anchor="middle" x="328" y="-7" font-family="Helvetica,sans-Serif" font-size="10.00">/EventManager.cpp</text>
</a>
</g>
</g>
<!-- Node2&#45;&gt;Node4 -->
<g id="edge3_Node000002_Node000004" class="edge">
<title>Node2&#45;&gt;Node4</title>
<g id="a_edge3_Node000002_Node000004"><a xlink:title=" ">
<path fill="none" stroke="#63b8ff" d="M251.18,-60.69C268.16,-50.82 288.45,-39.01 303.92,-30.01"/>
<polygon fill="#63b8ff" stroke="#63b8ff" points="249.02,-57.9 242.14,-65.95 252.54,-63.95 249.02,-57.9"/>
</a>
</g>
</g>
</g>
</svg>
