<?xml version="1.0" encoding="UTF-8" standalone="no"?>
<!DOCTYPE svg PUBLIC "-//W3C//DTD SVG 1.1//EN"
 "http://www.w3.org/Graphics/SVG/1.1/DTD/svg11.dtd">
<!-- Generated by graphviz version 2.43.0 (0)
 -->
<!-- Title: Clipboard++/QClipboard/MemoryCells/MemoryCell.cpp Pages: 1 -->
<svg width="259pt" height="258pt"
 viewBox="0.00 0.00 258.50 258.00" xmlns="http://www.w3.org/2000/svg" xmlns:xlink="http://www.w3.org/1999/xlink">

<svg id="main" version="1.1" xmlns="http://www.w3.org/2000/svg" xmlns:xlink="http://www.w3.org/1999/xlink" xml:space="preserve" onload="init(evt)">
<style type="text/css"><![CDATA[
.node, .edge {opacity: 0.7;}
.node.selected, .edge.selected {opacity: 1;}
.edge:hover path { stroke: red; }
.edge:hover polygon { stroke: red; fill: red; }
]]></style>
<script type="application/ecmascript" xlink:href="svg.min.js"/>
<svg id="graph" class="graph">
<g id="graph0" class="graph" transform="scale(1 1) rotate(0) translate(4 254)">
<title>Clipboard++/QClipboard/MemoryCells/MemoryCell.cpp</title>
<!-- Node1 -->
<g id="Node000001" class="node">
<title>Node1</title>
<g id="a_Node000001"><a xlink:title=" ">
<polygon fill="#999999" stroke="#666666" points="197.5,-250 30.5,-250 30.5,-220 197.5,-220 197.5,-250"/>
<text text-anchor="start" x="38.5" y="-238" font-family="Helvetica,sans-Serif" font-size="10.00">Clipboard++/QClipboard</text>
<text text-anchor="middle" x="114" y="-227" font-family="Helvetica,sans-Serif" font-size="10.00">/MemoryCells/MemoryCell.cpp</text>
</a>
</g>
</g>
<!-- Node2 -->
<g id="Node000002" class="node">
<title>Node2</title>
<g id="a_Node000002"><a xlink:href="MemoryCell_8h.html" target="_top" xlink:title=" ">
<polygon fill="white" stroke="#666666" points="156.5,-184 71.5,-184 71.5,-165 156.5,-165 156.5,-184"/>
<text text-anchor="middle" x="114" y="-172" font-family="Helvetica,sans-Serif" font-size="10.00">MemoryCell.h</text>
</a>
</g>
</g>
<!-- Node1&#45;&gt;Node2 -->
<g id="edge1_Node000001_Node000002" class="edge">
<title>Node1&#45;&gt;Node2</title>
<g id="a_edge1_Node000001_Node000002"><a xlink:title=" ">
<path fill="none" stroke="#63b8ff" d="M114,-219.84C114,-212.21 114,-202.7 114,-194.45"/>
<polygon fill="#63b8ff" stroke="#63b8ff" points="117.5,-194.27 114,-184.27 110.5,-194.27 117.5,-194.27"/>
</a>
</g>
</g>
<!-- Node3 -->
<g id="Node000003" class="node">
<title>Node3</title>
<g id="a_Node000003"><a xlink:href="ClipboardInterface_8h.html" target="_top" xlink:title=" ">
<polygon fill="white" stroke="#666666" points="116,-129 0,-129 0,-110 116,-110 116,-129"/>
<text text-anchor="middle" x="58" y="-117" font-family="Helvetica,sans-Serif" font-size="10.00">ClipboardInterface.h</text>
</a>
</g>
</g>
<!-- Node2&#45;&gt;Node3 -->
<g id="edge2_Node000002_Node000003" class="edge">
<title>Node2&#45;&gt;Node3</title>
<g id="a_edge2_Node000002_Node000003"><a xlink:title=" ">
<path fill="none" stroke="#63b8ff" d="M105,-164.98C96.81,-157.23 84.49,-145.58 74.53,-136.14"/>
<polygon fill="#63b8ff" stroke="#63b8ff" points="76.83,-133.5 67.16,-129.17 72.02,-138.59 76.83,-133.5"/>
</a>
</g>
</g>
<!-- Node8 -->
<g id="Node000008" class="node">
<title>Node8</title>
<g id="a_Node000008"><a xlink:title=" ">
<polygon fill="#e0e0e0" stroke="#999999" points="205.5,-129 134.5,-129 134.5,-110 205.5,-110 205.5,-129"/>
<text text-anchor="middle" x="170" y="-117" font-family="Helvetica,sans-Serif" font-size="10.00">QClipboard</text>
</a>
</g>
</g>
<!-- Node2&#45;&gt;Node8 -->
<g id="edge8_Node000002_Node000008" class="edge">
<title>Node2&#45;&gt;Node8</title>
<g id="a_edge8_Node000002_Node000008"><a xlink:title=" ">
<path fill="none" stroke="#63b8ff" d="M123,-164.98C131.19,-157.23 143.51,-145.58 153.47,-136.14"/>
<polygon fill="#63b8ff" stroke="#63b8ff" points="155.98,-138.59 160.84,-129.17 151.17,-133.5 155.98,-138.59"/>
</a>
</g>
</g>
<!-- Node4 -->
<g id="Node000004" class="node">
<title>Node4</title>
<g id="a_Node000004"><a xlink:title=" ">
<polygon fill="#e0e0e0" stroke="#999999" points="48,-19 4,-19 4,0 48,0 48,-19"/>
<text text-anchor="middle" x="26" y="-7" font-family="Helvetica,sans-Serif" font-size="10.00">string</text>
</a>
</g>
</g>
<!-- Node3&#45;&gt;Node4 -->
<g id="edge3_Node000003_Node000004" class="edge">
<title>Node3&#45;&gt;Node4</title>
<g id="a_edge3_Node000003_Node000004"><a xlink:title=" ">
<path fill="none" stroke="#63b8ff" d="M48.98,-109.96C40.93,-101.66 29.71,-88.25 25,-74 20.24,-59.59 20.89,-42.31 22.5,-29.42"/>
<polygon fill="#63b8ff" stroke="#63b8ff" points="25.98,-29.82 24.06,-19.4 19.07,-28.75 25.98,-29.82"/>
</a>
</g>
</g>
<!-- Node5 -->
<g id="Node000005" class="node">
<title>Node5</title>
<g id="a_Node000005"><a xlink:href="KeyShortCut_8h.html" target="_top" xlink:title=" ">
<polygon fill="white" stroke="#666666" points="188,-74 34,-74 34,-55 188,-55 188,-74"/>
<text text-anchor="middle" x="111" y="-62" font-family="Helvetica,sans-Serif" font-size="10.00">KeyShortCuts/KeyShortCut.h</text>
</a>
</g>
</g>
<!-- Node3&#45;&gt;Node5 -->
<g id="edge4_Node000003_Node000005" class="edge">
<title>Node3&#45;&gt;Node5</title>
<g id="a_edge4_Node000003_Node000005"><a xlink:title=" ">
<path fill="none" stroke="#63b8ff" d="M66.75,-109.75C74.47,-102.03 85.9,-90.6 95.22,-81.28"/>
<polygon fill="#63b8ff" stroke="#63b8ff" points="97.81,-83.64 102.41,-74.09 92.86,-78.69 97.81,-83.64"/>
</a>
</g>
</g>
<!-- Node5&#45;&gt;Node4 -->
<g id="edge6_Node000005_Node000004" class="edge">
<title>Node5&#45;&gt;Node4</title>
<g id="a_edge6_Node000005_Node000004"><a xlink:title=" ">
<path fill="none" stroke="#63b8ff" d="M97.34,-54.98C84.16,-46.77 63.97,-34.18 48.43,-24.49"/>
<polygon fill="#63b8ff" stroke="#63b8ff" points="50.24,-21.49 39.91,-19.17 46.54,-27.43 50.24,-21.49"/>
</a>
</g>
</g>
<!-- Node6 -->
<g id="Node000006" class="node">
<title>Node6</title>
<g id="a_Node000006"><a xlink:title=" ">
<polygon fill="#e0e0e0" stroke="#999999" points="123.5,-19 76.5,-19 76.5,0 123.5,0 123.5,-19"/>
<text text-anchor="middle" x="100" y="-7" font-family="Helvetica,sans-Serif" font-size="10.00">vector</text>
</a>
</g>
</g>
<!-- Node5&#45;&gt;Node6 -->
<g id="edge5_Node000005_Node000006" class="edge">
<title>Node5&#45;&gt;Node6</title>
<g id="a_edge5_Node000005_Node000006"><a xlink:title=" ">
<path fill="none" stroke="#63b8ff" d="M109.18,-54.75C107.74,-47.8 105.68,-37.85 103.87,-29.13"/>
<polygon fill="#63b8ff" stroke="#63b8ff" points="107.24,-28.17 101.78,-19.09 100.39,-29.59 107.24,-28.17"/>
</a>
</g>
</g>
<!-- Node7 -->
<g id="Node000007" class="node">
<title>Node7</title>
<g id="a_Node000007"><a xlink:title=" ">
<polygon fill="#e0e0e0" stroke="#999999" points="250.5,-19 141.5,-19 141.5,0 250.5,0 250.5,-19"/>
<text text-anchor="middle" x="196" y="-7" font-family="Helvetica,sans-Serif" font-size="10.00">RmlUi/Core/Input.h</text>
</a>
</g>
</g>
<!-- Node5&#45;&gt;Node7 -->
<g id="edge7_Node000005_Node000007" class="edge">
<title>Node5&#45;&gt;Node7</title>
<g id="a_edge7_Node000005_Node000007"><a xlink:title=" ">
<path fill="none" stroke="#63b8ff" d="M124.66,-54.98C137.84,-46.77 158.03,-34.18 173.57,-24.49"/>
<polygon fill="#63b8ff" stroke="#63b8ff" points="175.46,-27.43 182.09,-19.17 171.76,-21.49 175.46,-27.43"/>
</a>
</g>
</g>
</g>
</svg>
</svg>

<style type='text/css'>
<![CDATA[
[data-mouse-over-selected='false'] { opacity: 0.7; }
[data-mouse-over-selected='true']  { opacity: 1.0; }
]]>
</style>
<script type="application/ecmascript"><![CDATA[
document.addEventListener('DOMContentLoaded', (event) => {
  highlightEdges();
  highlightAdjacentNodes();
});
]]></script>
</svg>
