<?xml version="1.0" encoding="UTF-8" standalone="no"?>
<!DOCTYPE svg PUBLIC "-//W3C//DTD SVG 1.1//EN"
 "http://www.w3.org/Graphics/SVG/1.1/DTD/svg11.dtd">
<!-- Generated by graphviz version 2.43.0 (0)
 -->
<!-- Title: Clipboard++/RmlUI/EventHandlers/Clipboard++Events/ShortCutsMenu/PasteEvent.cpp Pages: 1 -->
<svg width="807pt" height="390pt"
 viewBox="0.00 0.00 807.00 390.00" xmlns="http://www.w3.org/2000/svg" xmlns:xlink="http://www.w3.org/1999/xlink">
<g id="graph0" class="graph" transform="scale(1 1) rotate(0) translate(4 386)">
<title>Clipboard++/RmlUI/EventHandlers/Clipboard++Events/ShortCutsMenu/PasteEvent.cpp</title>
<!-- Node1 -->
<g id="Node000001" class="node">
<title>Node1</title>
<g id="a_Node000001"><a xlink:title=" ">
<polygon fill="#999999" stroke="#666666" points="453,-382 260,-382 260,-341 453,-341 453,-382"/>
<text text-anchor="start" x="268" y="-370" font-family="Helvetica,sans-Serif" font-size="10.00">Clipboard++/RmlUI/EventHandlers</text>
<text text-anchor="start" x="268" y="-359" font-family="Helvetica,sans-Serif" font-size="10.00">/Clipboard++Events/ShortCutsMenu</text>
<text text-anchor="middle" x="356.5" y="-348" font-family="Helvetica,sans-Serif" font-size="10.00">/PasteEvent.cpp</text>
</a>
</g>
</g>
<!-- Node2 -->
<g id="Node000002" class="node">
<title>Node2</title>
<g id="a_Node000002"><a xlink:href="PasteEvent_8h.html" target="_top" xlink:title=" ">
<polygon fill="white" stroke="#666666" points="314.5,-305 234.5,-305 234.5,-286 314.5,-286 314.5,-305"/>
<text text-anchor="middle" x="274.5" y="-293" font-family="Helvetica,sans-Serif" font-size="10.00">PasteEvent.h</text>
</a>
</g>
</g>
<!-- Node1&#45;&gt;Node2 -->
<g id="edge1_Node000001_Node000002" class="edge">
<title>Node1&#45;&gt;Node2</title>
<g id="a_edge1_Node000001_Node000002"><a xlink:title=" ">
<path fill="none" stroke="#63b8ff" d="M331.45,-340.95C319.29,-331.46 304.91,-320.24 293.65,-311.44"/>
<polygon fill="#63b8ff" stroke="#63b8ff" points="295.76,-308.65 285.72,-305.26 291.45,-314.17 295.76,-308.65"/>
</a>
</g>
</g>
<!-- Node18 -->
<g id="Node000018" class="node">
<title>Node18</title>
<g id="a_Node000018"><a xlink:title=" ">
<polygon fill="#e0e0e0" stroke="#999999" points="380.5,-305 332.5,-305 332.5,-286 380.5,-286 380.5,-305"/>
<text text-anchor="middle" x="356.5" y="-293" font-family="Helvetica,sans-Serif" font-size="10.00">thread</text>
</a>
</g>
</g>
<!-- Node1&#45;&gt;Node18 -->
<g id="edge20_Node000001_Node000018" class="edge">
<title>Node1&#45;&gt;Node18</title>
<g id="a_edge20_Node000001_Node000018"><a xlink:title=" ">
<path fill="none" stroke="#63b8ff" d="M356.5,-340.95C356.5,-332.85 356.5,-323.5 356.5,-315.47"/>
<polygon fill="#63b8ff" stroke="#63b8ff" points="360,-315.26 356.5,-305.26 353,-315.26 360,-315.26"/>
</a>
</g>
</g>
<!-- Node19 -->
<g id="Node000019" class="node">
<title>Node19</title>
<g id="a_Node000019"><a xlink:title=" ">
<polygon fill="#e0e0e0" stroke="#999999" points="448.5,-305 398.5,-305 398.5,-286 448.5,-286 448.5,-305"/>
<text text-anchor="middle" x="423.5" y="-293" font-family="Helvetica,sans-Serif" font-size="10.00">chrono</text>
</a>
</g>
</g>
<!-- Node1&#45;&gt;Node19 -->
<g id="edge21_Node000001_Node000019" class="edge">
<title>Node1&#45;&gt;Node19</title>
<g id="a_edge21_Node000001_Node000019"><a xlink:title=" ">
<path fill="none" stroke="#63b8ff" d="M376.97,-340.95C386.61,-331.74 397.96,-320.9 407.04,-312.23"/>
<polygon fill="#63b8ff" stroke="#63b8ff" points="409.52,-314.7 414.33,-305.26 404.68,-309.64 409.52,-314.7"/>
</a>
</g>
</g>
<!-- Node20 -->
<g id="Node000020" class="node">
<title>Node20</title>
<g id="a_Node000020"><a xlink:title=" ">
<polygon fill="#e0e0e0" stroke="#999999" points="526.5,-305 466.5,-305 466.5,-286 526.5,-286 526.5,-305"/>
<text text-anchor="middle" x="496.5" y="-293" font-family="Helvetica,sans-Serif" font-size="10.00">iostream</text>
</a>
</g>
</g>
<!-- Node1&#45;&gt;Node20 -->
<g id="edge22_Node000001_Node000020" class="edge">
<title>Node1&#45;&gt;Node20</title>
<g id="a_edge22_Node000001_Node000020"><a xlink:title=" ">
<path fill="none" stroke="#63b8ff" d="M399.27,-340.95C421.79,-330.65 448.78,-318.31 468.6,-309.25"/>
<polygon fill="#63b8ff" stroke="#63b8ff" points="470.07,-312.43 477.71,-305.09 467.16,-306.07 470.07,-312.43"/>
</a>
</g>
</g>
<!-- Node21 -->
<g id="Node000021" class="node">
<title>Node21</title>
<g id="a_Node000021"><a xlink:href="ClipboardListener_8h.html" target="_top" xlink:title=" ">
<polygon fill="white" stroke="#666666" points="173.5,-184 63.5,-184 63.5,-165 173.5,-165 173.5,-184"/>
<text text-anchor="middle" x="118.5" y="-172" font-family="Helvetica,sans-Serif" font-size="10.00">ClipboardListener.h</text>
</a>
</g>
</g>
<!-- Node1&#45;&gt;Node21 -->
<g id="edge23_Node000001_Node000021" class="edge">
<title>Node1&#45;&gt;Node21</title>
<g id="a_edge23_Node000001_Node000021"><a xlink:title=" ">
<path fill="none" stroke="#63b8ff" d="M294.38,-340.96C271.48,-332.07 246.12,-320.11 225.5,-305 182.33,-273.38 146.08,-220.57 129.01,-193.18"/>
<polygon fill="#63b8ff" stroke="#63b8ff" points="131.8,-191.04 123.6,-184.33 125.82,-194.69 131.8,-191.04"/>
</a>
</g>
</g>
<!-- Node3 -->
<g id="Node000003" class="node">
<title>Node3</title>
<g id="a_Node000003"><a xlink:href="MemoryCellManager_8h.html" target="_top" xlink:title=" ">
<polygon fill="white" stroke="#666666" points="411.5,-250 273.5,-250 273.5,-220 411.5,-220 411.5,-250"/>
<text text-anchor="start" x="281.5" y="-238" font-family="Helvetica,sans-Serif" font-size="10.00">QClipboard/MemoryCells</text>
<text text-anchor="middle" x="342.5" y="-227" font-family="Helvetica,sans-Serif" font-size="10.00">/MemoryCellManager.h</text>
</a>
</g>
</g>
<!-- Node2&#45;&gt;Node3 -->
<g id="edge2_Node000002_Node000003" class="edge">
<title>Node2&#45;&gt;Node3</title>
<g id="a_edge2_Node000002_Node000003"><a xlink:title=" ">
<path fill="none" stroke="#63b8ff" d="M284.53,-285.87C293.42,-278.22 306.75,-266.76 318.38,-256.75"/>
<polygon fill="#63b8ff" stroke="#63b8ff" points="320.8,-259.29 326.09,-250.11 316.23,-253.98 320.8,-259.29"/>
</a>
</g>
</g>
<!-- Node13 -->
<g id="Node000013" class="node">
<title>Node13</title>
<g id="a_Node000013"><a xlink:href="WindowFocusEvent_8h.html" target="_top" xlink:title=" ">
<polygon fill="white" stroke="#666666" points="589.5,-244.5 469.5,-244.5 469.5,-225.5 589.5,-225.5 589.5,-244.5"/>
<text text-anchor="middle" x="529.5" y="-232.5" font-family="Helvetica,sans-Serif" font-size="10.00">WindowFocusEvent.h</text>
</a>
</g>
</g>
<!-- Node2&#45;&gt;Node13 -->
<g id="edge15_Node000002_Node000013" class="edge">
<title>Node2&#45;&gt;Node13</title>
<g id="a_edge15_Node000002_Node000013"><a xlink:title=" ">
<path fill="none" stroke="#63b8ff" d="M311.58,-285.99C356.81,-275.62 433.32,-258.07 482.6,-246.76"/>
<polygon fill="#63b8ff" stroke="#63b8ff" points="483.41,-250.16 492.38,-244.52 481.85,-243.34 483.41,-250.16"/>
</a>
</g>
</g>
<!-- Node17 -->
<g id="Node000017" class="node">
<title>Node17</title>
<g id="a_Node000017"><a xlink:title=" ">
<polygon fill="#e0e0e0" stroke="#999999" points="255.5,-244.5 187.5,-244.5 187.5,-225.5 255.5,-225.5 255.5,-244.5"/>
<text text-anchor="middle" x="221.5" y="-232.5" font-family="Helvetica,sans-Serif" font-size="10.00">windows.h</text>
</a>
</g>
</g>
<!-- Node2&#45;&gt;Node17 -->
<g id="edge19_Node000002_Node000017" class="edge">
<title>Node2&#45;&gt;Node17</title>
<g id="a_edge19_Node000002_Node000017"><a xlink:title=" ">
<path fill="none" stroke="#63b8ff" d="M266.68,-285.87C258.69,-277.05 246.11,-263.16 236.24,-252.27"/>
<polygon fill="#63b8ff" stroke="#63b8ff" points="238.66,-249.73 229.35,-244.67 233.47,-254.43 238.66,-249.73"/>
</a>
</g>
</g>
<!-- Node4 -->
<g id="Node000004" class="node">
<title>Node4</title>
<g id="a_Node000004"><a xlink:href="ClipboardInterface_8h.html" target="_top" xlink:title=" ">
<polygon fill="white" stroke="#666666" points="427.5,-129 311.5,-129 311.5,-110 427.5,-110 427.5,-129"/>
<text text-anchor="middle" x="369.5" y="-117" font-family="Helvetica,sans-Serif" font-size="10.00">ClipboardInterface.h</text>
</a>
</g>
</g>
<!-- Node3&#45;&gt;Node4 -->
<g id="edge3_Node000003_Node000004" class="edge">
<title>Node3&#45;&gt;Node4</title>
<g id="a_edge3_Node000003_Node000004"><a xlink:title=" ">
<path fill="none" stroke="#63b8ff" d="M360.13,-219.81C369.93,-210.74 381.19,-198.06 386.5,-184 392.16,-169 386.49,-151.35 380.22,-138.47"/>
<polygon fill="#63b8ff" stroke="#63b8ff" points="383.1,-136.43 375.27,-129.3 376.94,-139.76 383.1,-136.43"/>
</a>
</g>
</g>
<!-- Node7 -->
<g id="Node000007" class="node">
<title>Node7</title>
<g id="a_Node000007"><a xlink:title=" ">
<polygon fill="#e0e0e0" stroke="#999999" points="483,-19 436,-19 436,0 483,0 483,-19"/>
<text text-anchor="middle" x="459.5" y="-7" font-family="Helvetica,sans-Serif" font-size="10.00">vector</text>
</a>
</g>
</g>
<!-- Node3&#45;&gt;Node7 -->
<g id="edge13_Node000003_Node000007" class="edge">
<title>Node3&#45;&gt;Node7</title>
<g id="a_edge13_Node000003_Node000007"><a xlink:title=" ">
<path fill="none" stroke="#63b8ff" d="M362.56,-219.9C374.95,-210.58 390.68,-197.62 402.5,-184 421.34,-162.3 426.04,-155.77 436.5,-129 449.68,-95.29 455.55,-53.12 457.97,-29.25"/>
<polygon fill="#63b8ff" stroke="#63b8ff" points="461.47,-29.4 458.9,-19.13 454.5,-28.76 461.47,-29.4"/>
</a>
</g>
</g>
<!-- Node9 -->
<g id="Node000009" class="node">
<title>Node9</title>
<g id="a_Node000009"><a xlink:href="ClipboardAdapter_8h.html" target="_top" xlink:title=" ">
<polygon fill="white" stroke="#666666" points="377.5,-184 267.5,-184 267.5,-165 377.5,-165 377.5,-184"/>
<text text-anchor="middle" x="322.5" y="-172" font-family="Helvetica,sans-Serif" font-size="10.00">ClipboardAdapter.h</text>
</a>
</g>
</g>
<!-- Node3&#45;&gt;Node9 -->
<g id="edge9_Node000003_Node000009" class="edge">
<title>Node3&#45;&gt;Node9</title>
<g id="a_edge9_Node000003_Node000009"><a xlink:title=" ">
<path fill="none" stroke="#63b8ff" d="M337.66,-219.84C334.99,-212.04 331.65,-202.27 328.79,-193.89"/>
<polygon fill="#63b8ff" stroke="#63b8ff" points="332.04,-192.6 325.5,-184.27 325.42,-194.86 332.04,-192.6"/>
</a>
</g>
</g>
<!-- Node12 -->
<g id="Node000012" class="node">
<title>Node12</title>
<g id="a_Node000012"><a xlink:title=" ">
<polygon fill="#e0e0e0" stroke="#999999" points="249.5,-184 191.5,-184 191.5,-165 249.5,-165 249.5,-184"/>
<text text-anchor="middle" x="220.5" y="-172" font-family="Helvetica,sans-Serif" font-size="10.00">memory</text>
</a>
</g>
</g>
<!-- Node3&#45;&gt;Node12 -->
<g id="edge14_Node000003_Node000012" class="edge">
<title>Node3&#45;&gt;Node12</title>
<g id="a_edge14_Node000003_Node000012"><a xlink:title=" ">
<path fill="none" stroke="#63b8ff" d="M313.28,-219.99C293.38,-210.45 267.22,-197.9 247.75,-188.57"/>
<polygon fill="#63b8ff" stroke="#63b8ff" points="249.05,-185.31 238.52,-184.14 246.02,-191.62 249.05,-185.31"/>
</a>
</g>
</g>
<!-- Node5 -->
<g id="Node000005" class="node">
<title>Node5</title>
<g id="a_Node000005"><a xlink:title=" ">
<polygon fill="#e0e0e0" stroke="#999999" points="281.5,-19 237.5,-19 237.5,0 281.5,0 281.5,-19"/>
<text text-anchor="middle" x="259.5" y="-7" font-family="Helvetica,sans-Serif" font-size="10.00">string</text>
</a>
</g>
</g>
<!-- Node4&#45;&gt;Node5 -->
<g id="edge4_Node000004_Node000005" class="edge">
<title>Node4&#45;&gt;Node5</title>
<g id="a_edge4_Node000004_Node000005"><a xlink:title=" ">
<path fill="none" stroke="#63b8ff" d="M332.55,-110C312.23,-103.45 288.23,-92.33 273.5,-74 263.45,-61.49 260.24,-43.28 259.38,-29.57"/>
<polygon fill="#63b8ff" stroke="#63b8ff" points="262.87,-29.24 259.11,-19.34 255.87,-29.42 262.87,-29.24"/>
</a>
</g>
</g>
<!-- Node6 -->
<g id="Node000006" class="node">
<title>Node6</title>
<g id="a_Node000006"><a xlink:href="KeyShortCut_8h.html" target="_top" xlink:title=" ">
<polygon fill="white" stroke="#666666" points="436.5,-74 282.5,-74 282.5,-55 436.5,-55 436.5,-74"/>
<text text-anchor="middle" x="359.5" y="-62" font-family="Helvetica,sans-Serif" font-size="10.00">KeyShortCuts/KeyShortCut.h</text>
</a>
</g>
</g>
<!-- Node4&#45;&gt;Node6 -->
<g id="edge5_Node000004_Node000006" class="edge">
<title>Node4&#45;&gt;Node6</title>
<g id="a_edge5_Node000004_Node000006"><a xlink:title=" ">
<path fill="none" stroke="#63b8ff" d="M367.85,-109.75C366.54,-102.8 364.66,-92.85 363.02,-84.13"/>
<polygon fill="#63b8ff" stroke="#63b8ff" points="366.41,-83.27 361.12,-74.09 359.54,-84.56 366.41,-83.27"/>
</a>
</g>
</g>
<!-- Node6&#45;&gt;Node5 -->
<g id="edge7_Node000006_Node000005" class="edge">
<title>Node6&#45;&gt;Node5</title>
<g id="a_edge7_Node000006_Node000005"><a xlink:title=" ">
<path fill="none" stroke="#63b8ff" d="M343.43,-54.98C327.64,-46.61 303.28,-33.7 284.87,-23.95"/>
<polygon fill="#63b8ff" stroke="#63b8ff" points="286.33,-20.76 275.86,-19.17 283.06,-26.95 286.33,-20.76"/>
</a>
</g>
</g>
<!-- Node6&#45;&gt;Node7 -->
<g id="edge6_Node000006_Node000007" class="edge">
<title>Node6&#45;&gt;Node7</title>
<g id="a_edge6_Node000006_Node000007"><a xlink:title=" ">
<path fill="none" stroke="#63b8ff" d="M375.57,-54.98C391.36,-46.61 415.72,-33.7 434.13,-23.95"/>
<polygon fill="#63b8ff" stroke="#63b8ff" points="435.94,-26.95 443.14,-19.17 432.67,-20.76 435.94,-26.95"/>
</a>
</g>
</g>
<!-- Node8 -->
<g id="Node000008" class="node">
<title>Node8</title>
<g id="a_Node000008"><a xlink:title=" ">
<polygon fill="#e0e0e0" stroke="#999999" points="414,-19 305,-19 305,0 414,0 414,-19"/>
<text text-anchor="middle" x="359.5" y="-7" font-family="Helvetica,sans-Serif" font-size="10.00">RmlUi/Core/Input.h</text>
</a>
</g>
</g>
<!-- Node6&#45;&gt;Node8 -->
<g id="edge8_Node000006_Node000008" class="edge">
<title>Node6&#45;&gt;Node8</title>
<g id="a_edge8_Node000006_Node000008"><a xlink:title=" ">
<path fill="none" stroke="#63b8ff" d="M359.5,-54.75C359.5,-47.8 359.5,-37.85 359.5,-29.13"/>
<polygon fill="#63b8ff" stroke="#63b8ff" points="363,-29.09 359.5,-19.09 356,-29.09 363,-29.09"/>
</a>
</g>
</g>
<!-- Node9&#45;&gt;Node4 -->
<g id="edge10_Node000009_Node000004" class="edge">
<title>Node9&#45;&gt;Node4</title>
<g id="a_edge10_Node000009_Node000004"><a xlink:title=" ">
<path fill="none" stroke="#63b8ff" d="M330.26,-164.75C336.97,-157.18 346.84,-146.05 355.01,-136.84"/>
<polygon fill="#63b8ff" stroke="#63b8ff" points="357.87,-138.89 361.88,-129.09 352.63,-134.25 357.87,-138.89"/>
</a>
</g>
</g>
<!-- Node10 -->
<g id="Node000010" class="node">
<title>Node10</title>
<g id="a_Node000010"><a xlink:title=" ">
<polygon fill="#e0e0e0" stroke="#999999" points="219,-129 148,-129 148,-110 219,-110 219,-129"/>
<text text-anchor="middle" x="183.5" y="-117" font-family="Helvetica,sans-Serif" font-size="10.00">QClipboard</text>
</a>
</g>
</g>
<!-- Node9&#45;&gt;Node10 -->
<g id="edge11_Node000009_Node000010" class="edge">
<title>Node9&#45;&gt;Node10</title>
<g id="a_edge11_Node000009_Node000010"><a xlink:title=" ">
<path fill="none" stroke="#63b8ff" d="M300.17,-164.98C277.3,-156.27 241.54,-142.63 215.64,-132.75"/>
<polygon fill="#63b8ff" stroke="#63b8ff" points="216.83,-129.46 206.24,-129.17 214.34,-136 216.83,-129.46"/>
</a>
</g>
</g>
<!-- Node11 -->
<g id="Node000011" class="node">
<title>Node11</title>
<g id="a_Node000011"><a xlink:title=" ">
<polygon fill="#e0e0e0" stroke="#999999" points="293.5,-129 237.5,-129 237.5,-110 293.5,-110 293.5,-129"/>
<text text-anchor="middle" x="265.5" y="-117" font-family="Helvetica,sans-Serif" font-size="10.00">QObject</text>
</a>
</g>
</g>
<!-- Node9&#45;&gt;Node11 -->
<g id="edge12_Node000009_Node000011" class="edge">
<title>Node9&#45;&gt;Node11</title>
<g id="a_edge12_Node000009_Node000011"><a xlink:title=" ">
<path fill="none" stroke="#63b8ff" d="M313.34,-164.98C305,-157.23 292.47,-145.58 282.32,-136.14"/>
<polygon fill="#63b8ff" stroke="#63b8ff" points="284.53,-133.42 274.82,-129.17 279.76,-138.54 284.53,-133.42"/>
</a>
</g>
</g>
<!-- Node14 -->
<g id="Node000014" class="node">
<title>Node14</title>
<g id="a_Node000014"><a xlink:href="Clipboard_09_09Event_8h.html" target="_top" xlink:title=" ">
<polygon fill="white" stroke="#666666" points="608.5,-184 492.5,-184 492.5,-165 608.5,-165 608.5,-184"/>
<text text-anchor="middle" x="550.5" y="-172" font-family="Helvetica,sans-Serif" font-size="10.00">Clipboard++Event.h</text>
</a>
</g>
</g>
<!-- Node13&#45;&gt;Node14 -->
<g id="edge16_Node000013_Node000014" class="edge">
<title>Node13&#45;&gt;Node14</title>
<g id="a_edge16_Node000013_Node000014"><a xlink:title=" ">
<path fill="none" stroke="#63b8ff" d="M532.6,-225.37C535.58,-217.07 540.17,-204.28 543.96,-193.72"/>
<polygon fill="#63b8ff" stroke="#63b8ff" points="547.3,-194.76 547.39,-184.17 540.72,-192.4 547.3,-194.76"/>
</a>
</g>
</g>
<!-- Node15 -->
<g id="Node000015" class="node">
<title>Node15</title>
<g id="a_Node000015"><a xlink:title=" ">
<polygon fill="#e0e0e0" stroke="#999999" points="605.5,-129 493.5,-129 493.5,-110 605.5,-110 605.5,-129"/>
<text text-anchor="middle" x="549.5" y="-117" font-family="Helvetica,sans-Serif" font-size="10.00">RmlUi/Core/Types.h</text>
</a>
</g>
</g>
<!-- Node14&#45;&gt;Node15 -->
<g id="edge17_Node000014_Node000015" class="edge">
<title>Node14&#45;&gt;Node15</title>
<g id="a_edge17_Node000014_Node000015"><a xlink:title=" ">
<path fill="none" stroke="#63b8ff" d="M550.33,-164.75C550.2,-157.8 550.02,-147.85 549.85,-139.13"/>
<polygon fill="#63b8ff" stroke="#63b8ff" points="553.35,-139.02 549.66,-129.09 546.35,-139.15 553.35,-139.02"/>
</a>
</g>
</g>
<!-- Node16 -->
<g id="Node000016" class="node">
<title>Node16</title>
<g id="a_Node000016"><a xlink:title=" ">
<polygon fill="#e0e0e0" stroke="#999999" points="799,-129 624,-129 624,-110 799,-110 799,-129"/>
<text text-anchor="middle" x="711.5" y="-117" font-family="Helvetica,sans-Serif" font-size="10.00">RmlUi/Core/ElementDocument.h</text>
</a>
</g>
</g>
<!-- Node14&#45;&gt;Node16 -->
<g id="edge18_Node000014_Node000016" class="edge">
<title>Node14&#45;&gt;Node16</title>
<g id="a_edge18_Node000014_Node000016"><a xlink:title=" ">
<path fill="none" stroke="#63b8ff" d="M576.37,-164.98C603.28,-156.13 645.62,-142.19 675.73,-132.28"/>
<polygon fill="#63b8ff" stroke="#63b8ff" points="677.03,-135.53 685.43,-129.08 674.84,-128.88 677.03,-135.53"/>
</a>
</g>
</g>
<!-- Node21&#45;&gt;Node10 -->
<g id="edge25_Node000021_Node000010" class="edge">
<title>Node21&#45;&gt;Node10</title>
<g id="a_edge25_Node000021_Node000010"><a xlink:title=" ">
<path fill="none" stroke="#63b8ff" d="M128.94,-164.98C138.65,-157.07 153.32,-145.11 165,-135.58"/>
<polygon fill="#63b8ff" stroke="#63b8ff" points="167.33,-138.2 172.87,-129.17 162.9,-132.78 167.33,-138.2"/>
</a>
</g>
</g>
<!-- Node21&#45;&gt;Node11 -->
<g id="edge24_Node000021_Node000011" class="edge">
<title>Node21&#45;&gt;Node11</title>
<g id="a_edge24_Node000021_Node000011"><a xlink:title=" ">
<path fill="none" stroke="#63b8ff" d="M142.12,-164.98C166.4,-156.23 204.45,-142.51 231.87,-132.62"/>
<polygon fill="#63b8ff" stroke="#63b8ff" points="233.23,-135.85 241.45,-129.17 230.86,-129.27 233.23,-135.85"/>
</a>
</g>
</g>
<!-- Node22 -->
<g id="Node000022" class="node">
<title>Node22</title>
<g id="a_Node000022"><a xlink:title=" ">
<polygon fill="#e0e0e0" stroke="#999999" points="47,-129 0,-129 0,-110 47,-110 47,-129"/>
<text text-anchor="middle" x="23.5" y="-117" font-family="Helvetica,sans-Serif" font-size="10.00">queue</text>
</a>
</g>
</g>
<!-- Node21&#45;&gt;Node22 -->
<g id="edge26_Node000021_Node000022" class="edge">
<title>Node21&#45;&gt;Node22</title>
<g id="a_edge26_Node000021_Node000022"><a xlink:title=" ">
<path fill="none" stroke="#63b8ff" d="M103.24,-164.98C88.37,-156.69 65.52,-143.94 48.08,-134.22"/>
<polygon fill="#63b8ff" stroke="#63b8ff" points="49.48,-130.99 39.04,-129.17 46.07,-137.1 49.48,-130.99"/>
</a>
</g>
</g>
<!-- Node23 -->
<g id="Node000023" class="node">
<title>Node23</title>
<g id="a_Node000023"><a xlink:title=" ">
<polygon fill="#e0e0e0" stroke="#999999" points="130,-129 65,-129 65,-110 130,-110 130,-129"/>
<text text-anchor="middle" x="97.5" y="-117" font-family="Helvetica,sans-Serif" font-size="10.00">functional</text>
</a>
</g>
</g>
<!-- Node21&#45;&gt;Node23 -->
<g id="edge27_Node000021_Node000023" class="edge">
<title>Node21&#45;&gt;Node23</title>
<g id="a_edge27_Node000021_Node000023"><a xlink:title=" ">
<path fill="none" stroke="#63b8ff" d="M115.03,-164.75C112.22,-157.65 108.16,-147.4 104.65,-138.56"/>
<polygon fill="#63b8ff" stroke="#63b8ff" points="107.84,-137.1 100.9,-129.09 101.33,-139.68 107.84,-137.1"/>
</a>
</g>
</g>
</g>
</svg>
