<?xml version="1.0" encoding="UTF-8" standalone="no"?>
<!DOCTYPE svg PUBLIC "-//W3C//DTD SVG 1.1//EN"
 "http://www.w3.org/Graphics/SVG/1.1/DTD/svg11.dtd">
<!-- Generated by graphviz version 2.43.0 (0)
 -->
<!-- Title: Clipboard++/RmlUI/EventHandlers/Clipboard++Events/Edit/ResetShortCutEvent.cpp Pages: 1 -->
<svg width="602pt" height="269pt"
 viewBox="0.00 0.00 601.50 269.00" xmlns="http://www.w3.org/2000/svg" xmlns:xlink="http://www.w3.org/1999/xlink">
<g id="graph0" class="graph" transform="scale(1 1) rotate(0) translate(4 265)">
<title>Clipboard++/RmlUI/EventHandlers/Clipboard++Events/Edit/ResetShortCutEvent.cpp</title>
<!-- Node1 -->
<g id="Node000001" class="node">
<title>Node1</title>
<g id="a_Node000001"><a xlink:title=" ">
<polygon fill="#999999" stroke="#666666" points="443,-261 249,-261 249,-220 443,-220 443,-261"/>
<text text-anchor="start" x="257" y="-249" font-family="Helvetica,sans-Serif" font-size="10.00">Clipboard++/RmlUI/EventHandlers</text>
<text text-anchor="start" x="257" y="-238" font-family="Helvetica,sans-Serif" font-size="10.00">/Clipboard++Events/Edit/ResetShort</text>
<text text-anchor="middle" x="346" y="-227" font-family="Helvetica,sans-Serif" font-size="10.00">CutEvent.cpp</text>
</a>
</g>
</g>
<!-- Node2 -->
<g id="Node000002" class="node">
<title>Node2</title>
<g id="a_Node000002"><a xlink:href="ResetShortCutEvent_8h.html" target="_top" xlink:title=" ">
<polygon fill="white" stroke="#666666" points="341.5,-184 218.5,-184 218.5,-165 341.5,-165 341.5,-184"/>
<text text-anchor="middle" x="280" y="-172" font-family="Helvetica,sans-Serif" font-size="10.00">ResetShortCutEvent.h</text>
</a>
</g>
</g>
<!-- Node1&#45;&gt;Node2 -->
<g id="edge1_Node000001_Node000002" class="edge">
<title>Node1&#45;&gt;Node2</title>
<g id="a_edge1_Node000001_Node000002"><a xlink:title=" ">
<path fill="none" stroke="#63b8ff" d="M325.84,-219.95C316.34,-210.74 305.16,-199.9 296.22,-191.23"/>
<polygon fill="#63b8ff" stroke="#63b8ff" points="298.65,-188.71 289.03,-184.26 293.78,-193.73 298.65,-188.71"/>
</a>
</g>
</g>
<!-- Node11 -->
<g id="Node000011" class="node">
<title>Node11</title>
<g id="a_Node000011"><a xlink:title=" ">
<polygon fill="#e0e0e0" stroke="#999999" points="464,-184 360,-184 360,-165 464,-165 464,-184"/>
<text text-anchor="middle" x="412" y="-172" font-family="Helvetica,sans-Serif" font-size="10.00">../EventManager.h</text>
</a>
</g>
</g>
<!-- Node1&#45;&gt;Node11 -->
<g id="edge12_Node000001_Node000011" class="edge">
<title>Node1&#45;&gt;Node11</title>
<g id="a_edge12_Node000001_Node000011"><a xlink:title=" ">
<path fill="none" stroke="#63b8ff" d="M366.16,-219.95C375.66,-210.74 386.84,-199.9 395.78,-191.23"/>
<polygon fill="#63b8ff" stroke="#63b8ff" points="398.22,-193.73 402.97,-184.26 393.35,-188.71 398.22,-193.73"/>
</a>
</g>
</g>
<!-- Node3 -->
<g id="Node000003" class="node">
<title>Node3</title>
<g id="a_Node000003"><a xlink:href="Clipboard_09_09Event_8h.html" target="_top" xlink:title=" ">
<polygon fill="white" stroke="#666666" points="276,-129 160,-129 160,-110 276,-110 276,-129"/>
<text text-anchor="middle" x="218" y="-117" font-family="Helvetica,sans-Serif" font-size="10.00">Clipboard++Event.h</text>
</a>
</g>
</g>
<!-- Node2&#45;&gt;Node3 -->
<g id="edge2_Node000002_Node000003" class="edge">
<title>Node2&#45;&gt;Node3</title>
<g id="a_edge2_Node000002_Node000003"><a xlink:title=" ">
<path fill="none" stroke="#63b8ff" d="M270.04,-164.98C260.87,-157.15 247.06,-145.34 235.97,-135.86"/>
<polygon fill="#63b8ff" stroke="#63b8ff" points="238.02,-133.01 228.14,-129.17 233.47,-138.33 238.02,-133.01"/>
</a>
</g>
</g>
<!-- Node6 -->
<g id="Node000006" class="node">
<title>Node6</title>
<g id="a_Node000006"><a xlink:href="EditViewModel_8h.html" target="_top" xlink:title=" ">
<polygon fill="white" stroke="#666666" points="440,-129 342,-129 342,-110 440,-110 440,-129"/>
<text text-anchor="middle" x="391" y="-117" font-family="Helvetica,sans-Serif" font-size="10.00">EditViewModel.h</text>
</a>
</g>
</g>
<!-- Node2&#45;&gt;Node6 -->
<g id="edge5_Node000002_Node000006" class="edge">
<title>Node2&#45;&gt;Node6</title>
<g id="a_edge5_Node000002_Node000006"><a xlink:title=" ">
<path fill="none" stroke="#63b8ff" d="M297.83,-164.98C315.61,-156.5 343.15,-143.35 363.68,-133.54"/>
<polygon fill="#63b8ff" stroke="#63b8ff" points="365.33,-136.64 372.84,-129.17 362.31,-130.32 365.33,-136.64"/>
</a>
</g>
</g>
<!-- Node4 -->
<g id="Node000004" class="node">
<title>Node4</title>
<g id="a_Node000004"><a xlink:title=" ">
<polygon fill="#e0e0e0" stroke="#999999" points="112,-74 0,-74 0,-55 112,-55 112,-74"/>
<text text-anchor="middle" x="56" y="-62" font-family="Helvetica,sans-Serif" font-size="10.00">RmlUi/Core/Types.h</text>
</a>
</g>
</g>
<!-- Node3&#45;&gt;Node4 -->
<g id="edge3_Node000003_Node000004" class="edge">
<title>Node3&#45;&gt;Node4</title>
<g id="a_edge3_Node000003_Node000004"><a xlink:title=" ">
<path fill="none" stroke="#63b8ff" d="M191.97,-109.98C164.89,-101.13 122.29,-87.19 91.99,-77.28"/>
<polygon fill="#63b8ff" stroke="#63b8ff" points="92.82,-73.87 82.23,-74.08 90.65,-80.52 92.82,-73.87"/>
</a>
</g>
</g>
<!-- Node5 -->
<g id="Node000005" class="node">
<title>Node5</title>
<g id="a_Node000005"><a xlink:title=" ">
<polygon fill="#e0e0e0" stroke="#999999" points="305.5,-74 130.5,-74 130.5,-55 305.5,-55 305.5,-74"/>
<text text-anchor="middle" x="218" y="-62" font-family="Helvetica,sans-Serif" font-size="10.00">RmlUi/Core/ElementDocument.h</text>
</a>
</g>
</g>
<!-- Node3&#45;&gt;Node5 -->
<g id="edge4_Node000003_Node000005" class="edge">
<title>Node3&#45;&gt;Node5</title>
<g id="a_edge4_Node000003_Node000005"><a xlink:title=" ">
<path fill="none" stroke="#63b8ff" d="M218,-109.75C218,-102.8 218,-92.85 218,-84.13"/>
<polygon fill="#63b8ff" stroke="#63b8ff" points="221.5,-84.09 218,-74.09 214.5,-84.09 221.5,-84.09"/>
</a>
</g>
</g>
<!-- Node7 -->
<g id="Node000007" class="node">
<title>Node7</title>
<g id="a_Node000007"><a xlink:href="KeyShortCut_8h.html" target="_top" xlink:title=" ">
<polygon fill="white" stroke="#666666" points="516,-74 362,-74 362,-55 516,-55 516,-74"/>
<text text-anchor="middle" x="439" y="-62" font-family="Helvetica,sans-Serif" font-size="10.00">KeyShortCuts/KeyShortCut.h</text>
</a>
</g>
</g>
<!-- Node6&#45;&gt;Node7 -->
<g id="edge6_Node000006_Node000007" class="edge">
<title>Node6&#45;&gt;Node7</title>
<g id="a_edge6_Node000006_Node000007"><a xlink:title=" ">
<path fill="none" stroke="#63b8ff" d="M398.93,-109.75C405.85,-102.11 416.07,-90.82 424.45,-81.56"/>
<polygon fill="#63b8ff" stroke="#63b8ff" points="427.1,-83.85 431.22,-74.09 421.91,-79.15 427.1,-83.85"/>
</a>
</g>
</g>
<!-- Node8 -->
<g id="Node000008" class="node">
<title>Node8</title>
<g id="a_Node000008"><a xlink:title=" ">
<polygon fill="#e0e0e0" stroke="#999999" points="378.5,-19 331.5,-19 331.5,0 378.5,0 378.5,-19"/>
<text text-anchor="middle" x="355" y="-7" font-family="Helvetica,sans-Serif" font-size="10.00">vector</text>
</a>
</g>
</g>
<!-- Node6&#45;&gt;Node8 -->
<g id="edge11_Node000006_Node000008" class="edge">
<title>Node6&#45;&gt;Node8</title>
<g id="a_edge11_Node000006_Node000008"><a xlink:title=" ">
<path fill="none" stroke="#63b8ff" d="M380.29,-109.93C371.07,-101.8 358.41,-88.68 353,-74 347.69,-59.59 348.74,-42.08 350.81,-29.09"/>
<polygon fill="#63b8ff" stroke="#63b8ff" points="354.29,-29.52 352.76,-19.04 347.42,-28.19 354.29,-29.52"/>
</a>
</g>
</g>
<!-- Node10 -->
<g id="Node000010" class="node">
<title>Node10</title>
<g id="a_Node000010"><a xlink:title=" ">
<polygon fill="#e0e0e0" stroke="#999999" points="593.5,-19 484.5,-19 484.5,0 593.5,0 593.5,-19"/>
<text text-anchor="middle" x="539" y="-7" font-family="Helvetica,sans-Serif" font-size="10.00">RmlUi/Core/Input.h</text>
</a>
</g>
</g>
<!-- Node6&#45;&gt;Node10 -->
<g id="edge10_Node000006_Node000010" class="edge">
<title>Node6&#45;&gt;Node10</title>
<g id="a_edge10_Node000006_Node000010"><a xlink:title=" ">
<path fill="none" stroke="#63b8ff" d="M440.27,-114.09C468.91,-108.95 503.5,-97.85 525,-74 535.87,-61.95 538.94,-43.41 539.55,-29.47"/>
<polygon fill="#63b8ff" stroke="#63b8ff" points="543.05,-29.1 539.6,-19.08 536.05,-29.07 543.05,-29.1"/>
</a>
</g>
</g>
<!-- Node7&#45;&gt;Node8 -->
<g id="edge7_Node000007_Node000008" class="edge">
<title>Node7&#45;&gt;Node8</title>
<g id="a_edge7_Node000007_Node000008"><a xlink:title=" ">
<path fill="none" stroke="#63b8ff" d="M425.5,-54.98C412.6,-46.84 392.9,-34.41 377.6,-24.76"/>
<polygon fill="#63b8ff" stroke="#63b8ff" points="379.07,-21.55 368.74,-19.17 375.33,-27.47 379.07,-21.55"/>
</a>
</g>
</g>
<!-- Node9 -->
<g id="Node000009" class="node">
<title>Node9</title>
<g id="a_Node000009"><a xlink:title=" ">
<polygon fill="#e0e0e0" stroke="#999999" points="461,-19 417,-19 417,0 461,0 461,-19"/>
<text text-anchor="middle" x="439" y="-7" font-family="Helvetica,sans-Serif" font-size="10.00">string</text>
</a>
</g>
</g>
<!-- Node7&#45;&gt;Node9 -->
<g id="edge8_Node000007_Node000009" class="edge">
<title>Node7&#45;&gt;Node9</title>
<g id="a_edge8_Node000007_Node000009"><a xlink:title=" ">
<path fill="none" stroke="#63b8ff" d="M439,-54.75C439,-47.8 439,-37.85 439,-29.13"/>
<polygon fill="#63b8ff" stroke="#63b8ff" points="442.5,-29.09 439,-19.09 435.5,-29.09 442.5,-29.09"/>
</a>
</g>
</g>
<!-- Node7&#45;&gt;Node10 -->
<g id="edge9_Node000007_Node000010" class="edge">
<title>Node7&#45;&gt;Node10</title>
<g id="a_edge9_Node000007_Node000010"><a xlink:title=" ">
<path fill="none" stroke="#63b8ff" d="M455.07,-54.98C470.86,-46.61 495.22,-33.7 513.63,-23.95"/>
<polygon fill="#63b8ff" stroke="#63b8ff" points="515.44,-26.95 522.64,-19.17 512.17,-20.76 515.44,-26.95"/>
</a>
</g>
</g>
</g>
</svg>
