<?xml version="1.0" encoding="UTF-8" standalone="no"?>
<!DOCTYPE svg PUBLIC "-//W3C//DTD SVG 1.1//EN"
 "http://www.w3.org/Graphics/SVG/1.1/DTD/svg11.dtd">
<!-- Generated by graphviz version 2.43.0 (0)
 -->
<!-- Title: Clipboard++/RmlUI/Backends/RmlUi_Backend_SDL_GL3.cpp Pages: 1 -->
<svg width="1630pt" height="148pt"
 viewBox="0.00 0.00 1630.00 148.00" xmlns="http://www.w3.org/2000/svg" xmlns:xlink="http://www.w3.org/1999/xlink">
<g id="graph0" class="graph" transform="scale(1 1) rotate(0) translate(4 144)">
<title>Clipboard++/RmlUI/Backends/RmlUi_Backend_SDL_GL3.cpp</title>
<!-- Node1 -->
<g id="Node000001" class="node">
<title>Node1</title>
<g id="a_Node000001"><a xlink:title=" ">
<polygon fill="#999999" stroke="#666666" points="1075,-140 911,-140 911,-110 1075,-110 1075,-140"/>
<text text-anchor="start" x="919" y="-128" font-family="Helvetica,sans-Serif" font-size="10.00">Clipboard++/RmlUI/Backends</text>
<text text-anchor="middle" x="993" y="-117" font-family="Helvetica,sans-Serif" font-size="10.00">/RmlUi_Backend_SDL_GL3.cpp</text>
</a>
</g>
</g>
<!-- Node2 -->
<g id="Node000002" class="node">
<title>Node2</title>
<g id="a_Node000002"><a xlink:href="RmlUi__Backend_8h.html" target="_top" xlink:title=" ">
<polygon fill="white" stroke="#666666" points="419,-74 317,-74 317,-55 419,-55 419,-74"/>
<text text-anchor="middle" x="368" y="-62" font-family="Helvetica,sans-Serif" font-size="10.00">RmlUi_Backend.h</text>
</a>
</g>
</g>
<!-- Node1&#45;&gt;Node2 -->
<g id="edge1_Node000001_Node000002" class="edge">
<title>Node1&#45;&gt;Node2</title>
<g id="a_edge1_Node000001_Node000002"><a xlink:title=" ">
<path fill="none" stroke="#63b8ff" d="M910.99,-118.1C802.98,-110.02 606.89,-94.31 429.1,-74.07"/>
<polygon fill="#63b8ff" stroke="#63b8ff" points="429.37,-70.58 419.04,-72.92 428.58,-77.53 429.37,-70.58"/>
</a>
</g>
</g>
<!-- Node7 -->
<g id="Node000007" class="node">
<title>Node7</title>
<g id="a_Node000007"><a xlink:href="RmlUi__Platform__SDL_8h.html" target="_top" xlink:title=" ">
<polygon fill="white" stroke="#666666" points="298.5,-74 171.5,-74 171.5,-55 298.5,-55 298.5,-74"/>
<text text-anchor="middle" x="235" y="-62" font-family="Helvetica,sans-Serif" font-size="10.00">RmlUi_Platform_SDL.h</text>
</a>
</g>
</g>
<!-- Node1&#45;&gt;Node7 -->
<g id="edge6_Node000001_Node000007" class="edge">
<title>Node1&#45;&gt;Node7</title>
<g id="a_edge6_Node000001_Node000007"><a xlink:title=" ">
<path fill="none" stroke="#63b8ff" d="M910.92,-119.15C784.16,-111.42 532.88,-95.07 308.67,-74.02"/>
<polygon fill="#63b8ff" stroke="#63b8ff" points="308.97,-70.53 298.68,-73.08 308.31,-77.5 308.97,-70.53"/>
</a>
</g>
</g>
<!-- Node8 -->
<g id="Node000008" class="node">
<title>Node8</title>
<g id="a_Node000008"><a xlink:href="RmlUi__Renderer__GL3_8h.html" target="_top" xlink:title=" ">
<polygon fill="white" stroke="#666666" points="566.5,-74 437.5,-74 437.5,-55 566.5,-55 566.5,-74"/>
<text text-anchor="middle" x="502" y="-62" font-family="Helvetica,sans-Serif" font-size="10.00">RmlUi_Renderer_GL3.h</text>
</a>
</g>
</g>
<!-- Node1&#45;&gt;Node8 -->
<g id="edge10_Node000001_Node000008" class="edge">
<title>Node1&#45;&gt;Node8</title>
<g id="a_edge10_Node000001_Node000008"><a xlink:title=" ">
<path fill="none" stroke="#63b8ff" d="M910.82,-114.21C817.63,-103.11 666.99,-85.16 576.92,-74.43"/>
<polygon fill="#63b8ff" stroke="#63b8ff" points="577.13,-70.93 566.78,-73.22 576.3,-77.88 577.13,-70.93"/>
</a>
</g>
</g>
<!-- Node10 -->
<g id="Node000010" class="node">
<title>Node10</title>
<g id="a_Node000010"><a xlink:title=" ">
<polygon fill="#e0e0e0" stroke="#999999" points="707,-74 585,-74 585,-55 707,-55 707,-74"/>
<text text-anchor="middle" x="646" y="-62" font-family="Helvetica,sans-Serif" font-size="10.00">RmlUi/Core/Context.h</text>
</a>
</g>
</g>
<!-- Node1&#45;&gt;Node10 -->
<g id="edge14_Node000001_Node000010" class="edge">
<title>Node1&#45;&gt;Node10</title>
<g id="a_edge14_Node000001_Node000010"><a xlink:title=" ">
<path fill="none" stroke="#63b8ff" d="M910.77,-110.14C848,-99.55 762.95,-85.22 706.36,-75.68"/>
<polygon fill="#63b8ff" stroke="#63b8ff" points="706.93,-72.22 696.49,-74.01 705.77,-79.13 706.93,-72.22"/>
</a>
</g>
</g>
<!-- Node11 -->
<g id="Node000011" class="node">
<title>Node11</title>
<g id="a_Node000011"><a xlink:title=" ">
<polygon fill="#e0e0e0" stroke="#999999" points="832.5,-74 725.5,-74 725.5,-55 832.5,-55 832.5,-74"/>
<text text-anchor="middle" x="779" y="-62" font-family="Helvetica,sans-Serif" font-size="10.00">RmlUi/Core/Core.h</text>
</a>
</g>
</g>
<!-- Node1&#45;&gt;Node11 -->
<g id="edge15_Node000001_Node000011" class="edge">
<title>Node1&#45;&gt;Node11</title>
<g id="a_edge15_Node000001_Node000011"><a xlink:title=" ">
<path fill="none" stroke="#63b8ff" d="M941.74,-109.99C904.49,-99.8 854.73,-86.2 820.08,-76.73"/>
<polygon fill="#63b8ff" stroke="#63b8ff" points="820.86,-73.31 810.29,-74.05 819.01,-80.07 820.86,-73.31"/>
</a>
</g>
</g>
<!-- Node12 -->
<g id="Node000012" class="node">
<title>Node12</title>
<g id="a_Node000012"><a xlink:title=" ">
<polygon fill="#e0e0e0" stroke="#999999" points="995.5,-74 850.5,-74 850.5,-55 995.5,-55 995.5,-74"/>
<text text-anchor="middle" x="923" y="-62" font-family="Helvetica,sans-Serif" font-size="10.00">RmlUi/Core/FileInterface.h</text>
</a>
</g>
</g>
<!-- Node1&#45;&gt;Node12 -->
<g id="edge16_Node000001_Node000012" class="edge">
<title>Node1&#45;&gt;Node12</title>
<g id="a_edge16_Node000001_Node000012"><a xlink:title=" ">
<path fill="none" stroke="#63b8ff" d="M976.05,-109.84C965.58,-101.09 952.14,-89.85 941.41,-80.88"/>
<polygon fill="#63b8ff" stroke="#63b8ff" points="943.41,-77.99 933.49,-74.27 938.92,-83.36 943.41,-77.99"/>
</a>
</g>
</g>
<!-- Node13 -->
<g id="Node000013" class="node">
<title>Node13</title>
<g id="a_Node000013"><a xlink:title=" ">
<polygon fill="#e0e0e0" stroke="#999999" points="1114.5,-74 1013.5,-74 1013.5,-55 1114.5,-55 1114.5,-74"/>
<text text-anchor="middle" x="1064" y="-62" font-family="Helvetica,sans-Serif" font-size="10.00">RmlUi/Core/Log.h</text>
</a>
</g>
</g>
<!-- Node1&#45;&gt;Node13 -->
<g id="edge17_Node000001_Node000013" class="edge">
<title>Node1&#45;&gt;Node13</title>
<g id="a_edge17_Node000001_Node000013"><a xlink:title=" ">
<path fill="none" stroke="#63b8ff" d="M1010.19,-109.84C1020.81,-101.09 1034.44,-89.85 1045.33,-80.88"/>
<polygon fill="#63b8ff" stroke="#63b8ff" points="1047.87,-83.33 1053.36,-74.27 1043.42,-77.92 1047.87,-83.33"/>
</a>
</g>
</g>
<!-- Node14 -->
<g id="Node000014" class="node">
<title>Node14</title>
<g id="a_Node000014"><a xlink:title=" ">
<polygon fill="#e0e0e0" stroke="#999999" points="1257,-74 1133,-74 1133,-55 1257,-55 1257,-74"/>
<text text-anchor="middle" x="1195" y="-62" font-family="Helvetica,sans-Serif" font-size="10.00">RmlUi/Core/Profiling.h</text>
</a>
</g>
</g>
<!-- Node1&#45;&gt;Node14 -->
<g id="edge18_Node000001_Node000014" class="edge">
<title>Node1&#45;&gt;Node14</title>
<g id="a_edge18_Node000001_Node000014"><a xlink:title=" ">
<path fill="none" stroke="#63b8ff" d="M1041.38,-109.99C1076.4,-99.85 1123.11,-86.32 1155.8,-76.85"/>
<polygon fill="#63b8ff" stroke="#63b8ff" points="1156.83,-80.2 1165.46,-74.05 1154.89,-73.47 1156.83,-80.2"/>
</a>
</g>
</g>
<!-- Node15 -->
<g id="Node000015" class="node">
<title>Node15</title>
<g id="a_Node000015"><a xlink:title=" ">
<polygon fill="#e0e0e0" stroke="#999999" points="1370.5,-74 1275.5,-74 1275.5,-55 1370.5,-55 1370.5,-74"/>
<text text-anchor="middle" x="1323" y="-62" font-family="Helvetica,sans-Serif" font-size="10.00">QGuiApplication</text>
</a>
</g>
</g>
<!-- Node1&#45;&gt;Node15 -->
<g id="edge19_Node000001_Node000015" class="edge">
<title>Node1&#45;&gt;Node15</title>
<g id="a_edge19_Node000001_Node000015"><a xlink:title=" ">
<path fill="none" stroke="#63b8ff" d="M1072.04,-109.99C1131.52,-99.44 1211.66,-85.24 1265.22,-75.74"/>
<polygon fill="#63b8ff" stroke="#63b8ff" points="1265.99,-79.16 1275.23,-73.97 1264.77,-72.27 1265.99,-79.16"/>
</a>
</g>
</g>
<!-- Node16 -->
<g id="Node000016" class="node">
<title>Node16</title>
<g id="a_Node000016"><a xlink:title=" ">
<polygon fill="#e0e0e0" stroke="#999999" points="1445.5,-74 1388.5,-74 1388.5,-55 1445.5,-55 1445.5,-74"/>
<text text-anchor="middle" x="1417" y="-62" font-family="Helvetica,sans-Serif" font-size="10.00">QScreen</text>
</a>
</g>
</g>
<!-- Node1&#45;&gt;Node16 -->
<g id="edge20_Node000001_Node000016" class="edge">
<title>Node1&#45;&gt;Node16</title>
<g id="a_edge20_Node000001_Node000016"><a xlink:title=" ">
<path fill="none" stroke="#63b8ff" d="M1075.27,-115.72C1151.55,-107.5 1268.38,-93.56 1378.43,-74.14"/>
<polygon fill="#63b8ff" stroke="#63b8ff" points="1379.14,-77.57 1388.37,-72.37 1377.91,-70.68 1379.14,-77.57"/>
</a>
</g>
</g>
<!-- Node17 -->
<g id="Node000017" class="node">
<title>Node17</title>
<g id="a_Node000017"><a xlink:title=" ">
<polygon fill="#e0e0e0" stroke="#999999" points="1524,-74 1464,-74 1464,-55 1524,-55 1524,-74"/>
<text text-anchor="middle" x="1494" y="-62" font-family="Helvetica,sans-Serif" font-size="10.00">iostream</text>
</a>
</g>
</g>
<!-- Node1&#45;&gt;Node17 -->
<g id="edge21_Node000001_Node000017" class="edge">
<title>Node1&#45;&gt;Node17</title>
<g id="a_edge21_Node000001_Node000017"><a xlink:title=" ">
<path fill="none" stroke="#63b8ff" d="M1075.14,-117.78C1165.63,-110.32 1315.58,-96.18 1453.89,-74.02"/>
<polygon fill="#63b8ff" stroke="#63b8ff" points="1454.52,-77.46 1463.83,-72.41 1453.4,-70.55 1454.52,-77.46"/>
</a>
</g>
</g>
<!-- Node18 -->
<g id="Node000018" class="node">
<title>Node18</title>
<g id="a_Node000018"><a xlink:title=" ">
<polygon fill="#e0e0e0" stroke="#999999" points="1622,-74 1542,-74 1542,-55 1622,-55 1622,-74"/>
<text text-anchor="middle" x="1582" y="-62" font-family="Helvetica,sans-Serif" font-size="10.00">SDL_image.h</text>
</a>
</g>
</g>
<!-- Node1&#45;&gt;Node18 -->
<g id="edge22_Node000001_Node000018" class="edge">
<title>Node1&#45;&gt;Node18</title>
<g id="a_edge22_Node000001_Node000018"><a xlink:title=" ">
<path fill="none" stroke="#63b8ff" d="M1075.11,-118.44C1179.07,-110.93 1363.91,-96.07 1531.91,-74.04"/>
<polygon fill="#63b8ff" stroke="#63b8ff" points="1532.47,-77.5 1541.93,-72.72 1531.56,-70.56 1532.47,-77.5"/>
</a>
</g>
</g>
<!-- Node3 -->
<g id="Node000003" class="node">
<title>Node3</title>
<g id="a_Node000003"><a xlink:title=" ">
<polygon fill="#e0e0e0" stroke="#999999" points="291.5,-19 182.5,-19 182.5,0 291.5,0 291.5,-19"/>
<text text-anchor="middle" x="237" y="-7" font-family="Helvetica,sans-Serif" font-size="10.00">RmlUi/Core/Input.h</text>
</a>
</g>
</g>
<!-- Node2&#45;&gt;Node3 -->
<g id="edge2_Node000002_Node000003" class="edge">
<title>Node2&#45;&gt;Node3</title>
<g id="a_edge2_Node000002_Node000003"><a xlink:title=" ">
<path fill="none" stroke="#63b8ff" d="M346.95,-54.98C325.59,-46.34 292.3,-32.87 267.94,-23.02"/>
<polygon fill="#63b8ff" stroke="#63b8ff" points="269.01,-19.68 258.43,-19.17 266.39,-26.17 269.01,-19.68"/>
</a>
</g>
</g>
<!-- Node4 -->
<g id="Node000004" class="node">
<title>Node4</title>
<g id="a_Node000004"><a xlink:title=" ">
<polygon fill="#e0e0e0" stroke="#999999" points="602,-19 440,-19 440,0 602,0 602,-19"/>
<text text-anchor="middle" x="521" y="-7" font-family="Helvetica,sans-Serif" font-size="10.00">RmlUi/Core/RenderInterface.h</text>
</a>
</g>
</g>
<!-- Node2&#45;&gt;Node4 -->
<g id="edge3_Node000002_Node000004" class="edge">
<title>Node2&#45;&gt;Node4</title>
<g id="a_edge3_Node000002_Node000004"><a xlink:title=" ">
<path fill="none" stroke="#63b8ff" d="M392.58,-54.98C418.05,-46.16 458.04,-32.31 486.63,-22.41"/>
<polygon fill="#63b8ff" stroke="#63b8ff" points="487.92,-25.66 496.23,-19.08 485.63,-19.05 487.92,-25.66"/>
</a>
</g>
</g>
<!-- Node5 -->
<g id="Node000005" class="node">
<title>Node5</title>
<g id="a_Node000005"><a xlink:title=" ">
<polygon fill="#e0e0e0" stroke="#999999" points="164,-19 0,-19 0,0 164,0 164,-19"/>
<text text-anchor="middle" x="82" y="-7" font-family="Helvetica,sans-Serif" font-size="10.00">RmlUi/Core/SystemInterface.h</text>
</a>
</g>
</g>
<!-- Node2&#45;&gt;Node5 -->
<g id="edge4_Node000002_Node000005" class="edge">
<title>Node2&#45;&gt;Node5</title>
<g id="a_edge4_Node000002_Node000005"><a xlink:title=" ">
<path fill="none" stroke="#63b8ff" d="M322.05,-54.98C272.06,-45.72 192.11,-30.9 138.36,-20.94"/>
<polygon fill="#63b8ff" stroke="#63b8ff" points="138.78,-17.46 128.31,-19.08 137.51,-24.35 138.78,-17.46"/>
</a>
</g>
</g>
<!-- Node6 -->
<g id="Node000006" class="node">
<title>Node6</title>
<g id="a_Node000006"><a xlink:title=" ">
<polygon fill="#e0e0e0" stroke="#999999" points="422,-19 310,-19 310,0 422,0 422,-19"/>
<text text-anchor="middle" x="366" y="-7" font-family="Helvetica,sans-Serif" font-size="10.00">RmlUi/Core/Types.h</text>
</a>
</g>
</g>
<!-- Node2&#45;&gt;Node6 -->
<g id="edge5_Node000002_Node000006" class="edge">
<title>Node2&#45;&gt;Node6</title>
<g id="a_edge5_Node000002_Node000006"><a xlink:title=" ">
<path fill="none" stroke="#63b8ff" d="M367.67,-54.75C367.41,-47.8 367.03,-37.85 366.7,-29.13"/>
<polygon fill="#63b8ff" stroke="#63b8ff" points="370.2,-28.95 366.32,-19.09 363.2,-29.21 370.2,-28.95"/>
</a>
</g>
</g>
<!-- Node7&#45;&gt;Node3 -->
<g id="edge7_Node000007_Node000003" class="edge">
<title>Node7&#45;&gt;Node3</title>
<g id="a_edge7_Node000007_Node000003"><a xlink:title=" ">
<path fill="none" stroke="#63b8ff" d="M235.33,-54.75C235.59,-47.8 235.97,-37.85 236.3,-29.13"/>
<polygon fill="#63b8ff" stroke="#63b8ff" points="239.8,-29.21 236.68,-19.09 232.8,-28.95 239.8,-29.21"/>
</a>
</g>
</g>
<!-- Node7&#45;&gt;Node5 -->
<g id="edge8_Node000007_Node000005" class="edge">
<title>Node7&#45;&gt;Node5</title>
<g id="a_edge8_Node000007_Node000005"><a xlink:title=" ">
<path fill="none" stroke="#63b8ff" d="M210.42,-54.98C184.95,-46.16 144.96,-32.31 116.37,-22.41"/>
<polygon fill="#63b8ff" stroke="#63b8ff" points="117.37,-19.05 106.77,-19.08 115.08,-25.66 117.37,-19.05"/>
</a>
</g>
</g>
<!-- Node7&#45;&gt;Node6 -->
<g id="edge9_Node000007_Node000006" class="edge">
<title>Node7&#45;&gt;Node6</title>
<g id="a_edge9_Node000007_Node000006"><a xlink:title=" ">
<path fill="none" stroke="#63b8ff" d="M256.05,-54.98C277.41,-46.34 310.7,-32.87 335.06,-23.02"/>
<polygon fill="#63b8ff" stroke="#63b8ff" points="336.61,-26.17 344.57,-19.17 333.99,-19.68 336.61,-26.17"/>
</a>
</g>
</g>
<!-- Node8&#45;&gt;Node4 -->
<g id="edge11_Node000008_Node000004" class="edge">
<title>Node8&#45;&gt;Node4</title>
<g id="a_edge11_Node000008_Node000004"><a xlink:title=" ">
<path fill="none" stroke="#63b8ff" d="M505.14,-54.75C507.68,-47.65 511.36,-37.4 514.53,-28.56"/>
<polygon fill="#63b8ff" stroke="#63b8ff" points="517.84,-29.68 517.92,-19.09 511.25,-27.32 517.84,-29.68"/>
</a>
</g>
</g>
<!-- Node8&#45;&gt;Node6 -->
<g id="edge12_Node000008_Node000006" class="edge">
<title>Node8&#45;&gt;Node6</title>
<g id="a_edge12_Node000008_Node000006"><a xlink:title=" ">
<path fill="none" stroke="#63b8ff" d="M480.15,-54.98C457.88,-46.3 423.1,-32.75 397.78,-22.88"/>
<polygon fill="#63b8ff" stroke="#63b8ff" points="398.84,-19.54 388.25,-19.17 396.29,-26.06 398.84,-19.54"/>
</a>
</g>
</g>
<!-- Node9 -->
<g id="Node000009" class="node">
<title>Node9</title>
<g id="a_Node000009"><a xlink:title=" ">
<polygon fill="#e0e0e0" stroke="#999999" points="664,-19 620,-19 620,0 664,0 664,-19"/>
<text text-anchor="middle" x="642" y="-7" font-family="Helvetica,sans-Serif" font-size="10.00">bitset</text>
</a>
</g>
</g>
<!-- Node8&#45;&gt;Node9 -->
<g id="edge13_Node000008_Node000009" class="edge">
<title>Node8&#45;&gt;Node9</title>
<g id="a_edge13_Node000008_Node000009"><a xlink:title=" ">
<path fill="none" stroke="#63b8ff" d="M524.49,-54.98C547.66,-46.21 583.97,-32.47 610.1,-22.58"/>
<polygon fill="#63b8ff" stroke="#63b8ff" points="611.45,-25.81 619.56,-18.99 608.97,-19.26 611.45,-25.81"/>
</a>
</g>
</g>
</g>
</svg>
