<?xml version="1.0" encoding="UTF-8" standalone="no"?>
<!DOCTYPE svg PUBLIC "-//W3C//DTD SVG 1.1//EN"
 "http://www.w3.org/Graphics/SVG/1.1/DTD/svg11.dtd">
<!-- Generated by graphviz version 2.43.0 (0)
 -->
<!-- Title: Clipboard++/RmlUI/Backends/RmlUi_Backend.h Pages: 1 -->
<svg width="565pt" height="115pt"
 viewBox="0.00 0.00 565.00 115.00" xmlns="http://www.w3.org/2000/svg" xmlns:xlink="http://www.w3.org/1999/xlink">
<g id="graph0" class="graph" transform="scale(1 1) rotate(0) translate(4 111)">
<title>Clipboard++/RmlUI/Backends/RmlUi_Backend.h</title>
<!-- Node1 -->
<g id="Node000001" class="node">
<title>Node1</title>
<g id="a_Node000001"><a xlink:title=" ">
<polygon fill="#999999" stroke="#666666" points="344.5,-107 182.5,-107 182.5,-77 344.5,-77 344.5,-107"/>
<text text-anchor="start" x="190.5" y="-95" font-family="Helvetica,sans-Serif" font-size="10.00">Clipboard++/RmlUI/Backends</text>
<text text-anchor="middle" x="263.5" y="-84" font-family="Helvetica,sans-Serif" font-size="10.00">/RmlUi_Backend.h</text>
</a>
</g>
</g>
<!-- Node2 -->
<g id="Node000002" class="node">
<title>Node2</title>
<g id="a_Node000002"><a xlink:href="ClipboardXX_8cpp.html" target="_top" xlink:title=" ">
<polygon fill="white" stroke="#666666" points="163,-30 0,-30 0,-11 163,-11 163,-30"/>
<text text-anchor="middle" x="81.5" y="-18" font-family="Helvetica,sans-Serif" font-size="10.00">Clipboard++/ClipboardXX.cpp</text>
</a>
</g>
</g>
<!-- Node1&#45;&gt;Node2 -->
<g id="edge1_Node000001_Node000002" class="edge">
<title>Node1&#45;&gt;Node2</title>
<g id="a_edge1_Node000001_Node000002"><a xlink:title=" ">
<path fill="none" stroke="#63b8ff" d="M217.27,-73.35C180.99,-59.49 132.06,-40.81 103.94,-30.07"/>
<polygon fill="#63b8ff" stroke="#63b8ff" points="216.08,-76.64 226.67,-76.94 218.58,-70.1 216.08,-76.64"/>
</a>
</g>
</g>
<!-- Node3 -->
<g id="Node000003" class="node">
<title>Node3</title>
<g id="a_Node000003"><a xlink:href="RmlUi__Backend__SDL__GL3_8cpp.html" target="_top" xlink:title=" ">
<polygon fill="white" stroke="#666666" points="345.5,-35.5 181.5,-35.5 181.5,-5.5 345.5,-5.5 345.5,-35.5"/>
<text text-anchor="start" x="189.5" y="-23.5" font-family="Helvetica,sans-Serif" font-size="10.00">Clipboard++/RmlUI/Backends</text>
<text text-anchor="middle" x="263.5" y="-12.5" font-family="Helvetica,sans-Serif" font-size="10.00">/RmlUi_Backend_SDL_GL3.cpp</text>
</a>
</g>
</g>
<!-- Node1&#45;&gt;Node3 -->
<g id="edge2_Node000001_Node000003" class="edge">
<title>Node1&#45;&gt;Node3</title>
<g id="a_edge2_Node000001_Node000003"><a xlink:title=" ">
<path fill="none" stroke="#63b8ff" d="M263.5,-66.75C263.5,-56.31 263.5,-44.49 263.5,-35.54"/>
<polygon fill="#63b8ff" stroke="#63b8ff" points="260,-66.94 263.5,-76.94 267,-66.94 260,-66.94"/>
</a>
</g>
</g>
<!-- Node4 -->
<g id="Node000004" class="node">
<title>Node4</title>
<g id="a_Node000004"><a xlink:href="ExpandEvent_8cpp.html" target="_top" xlink:title=" ">
<polygon fill="white" stroke="#666666" points="557,-41 364,-41 364,0 557,0 557,-41"/>
<text text-anchor="start" x="372" y="-29" font-family="Helvetica,sans-Serif" font-size="10.00">Clipboard++/RmlUI/EventHandlers</text>
<text text-anchor="start" x="372" y="-18" font-family="Helvetica,sans-Serif" font-size="10.00">/Clipboard++Events/ShortCutsMenu</text>
<text text-anchor="middle" x="460.5" y="-7" font-family="Helvetica,sans-Serif" font-size="10.00">/ExpandEvent.cpp</text>
</a>
</g>
</g>
<!-- Node1&#45;&gt;Node4 -->
<g id="edge3_Node000001_Node000004" class="edge">
<title>Node1&#45;&gt;Node4</title>
<g id="a_edge3_Node000001_Node000004"><a xlink:title=" ">
<path fill="none" stroke="#63b8ff" d="M312.95,-73.55C340.96,-63.67 376.07,-51.28 405.02,-41.07"/>
<polygon fill="#63b8ff" stroke="#63b8ff" points="311.63,-70.31 303.37,-76.94 313.96,-76.91 311.63,-70.31"/>
</a>
</g>
</g>
</g>
</svg>
