<?xml version="1.0" encoding="UTF-8" standalone="no"?>
<!DOCTYPE svg PUBLIC "-//W3C//DTD SVG 1.1//EN"
 "http://www.w3.org/Graphics/SVG/1.1/DTD/svg11.dtd">
<!-- Generated by graphviz version 2.43.0 (0)
 -->
<!-- Title: Clipboard++/RmlUI/Backends/RmlUi_Renderer_GL3.cpp Pages: 1 -->
<svg width="1833pt" height="148pt"
 viewBox="0.00 0.00 1833.00 148.00" xmlns="http://www.w3.org/2000/svg" xmlns:xlink="http://www.w3.org/1999/xlink">
<g id="graph0" class="graph" transform="scale(1 1) rotate(0) translate(4 144)">
<title>Clipboard++/RmlUI/Backends/RmlUi_Renderer_GL3.cpp</title>
<!-- Node1 -->
<g id="Node000001" class="node">
<title>Node1</title>
<g id="a_Node000001"><a xlink:title=" ">
<polygon fill="#999999" stroke="#666666" points="1141,-140 979,-140 979,-110 1141,-110 1141,-140"/>
<text text-anchor="start" x="987" y="-128" font-family="Helvetica,sans-Serif" font-size="10.00">Clipboard++/RmlUI/Backends</text>
<text text-anchor="middle" x="1060" y="-117" font-family="Helvetica,sans-Serif" font-size="10.00">/RmlUi_Renderer_GL3.cpp</text>
</a>
</g>
</g>
<!-- Node2 -->
<g id="Node000002" class="node">
<title>Node2</title>
<g id="a_Node000002"><a xlink:href="RmlUi__Renderer__GL3_8h.html" target="_top" xlink:title=" ">
<polygon fill="white" stroke="#666666" points="300.5,-74 171.5,-74 171.5,-55 300.5,-55 300.5,-74"/>
<text text-anchor="middle" x="236" y="-62" font-family="Helvetica,sans-Serif" font-size="10.00">RmlUi_Renderer_GL3.h</text>
</a>
</g>
</g>
<!-- Node1&#45;&gt;Node2 -->
<g id="edge1_Node000001_Node000002" class="edge">
<title>Node1&#45;&gt;Node2</title>
<g id="a_edge1_Node000001_Node000002"><a xlink:title=" ">
<path fill="none" stroke="#63b8ff" d="M978.77,-119.91C842.71,-112.77 559.92,-96.69 310.83,-74.13"/>
<polygon fill="#63b8ff" stroke="#63b8ff" points="311.14,-70.64 300.86,-73.22 310.5,-77.61 311.14,-70.64"/>
</a>
</g>
</g>
<!-- Node6 -->
<g id="Node000006" class="node">
<title>Node6</title>
<g id="a_Node000006"><a xlink:title=" ">
<polygon fill="#e0e0e0" stroke="#999999" points="425.5,-74 318.5,-74 318.5,-55 425.5,-55 425.5,-74"/>
<text text-anchor="middle" x="372" y="-62" font-family="Helvetica,sans-Serif" font-size="10.00">RmlUi/Core/Core.h</text>
</a>
</g>
</g>
<!-- Node1&#45;&gt;Node6 -->
<g id="edge5_Node000001_Node000006" class="edge">
<title>Node1&#45;&gt;Node6</title>
<g id="a_edge5_Node000001_Node000006"><a xlink:title=" ">
<path fill="none" stroke="#63b8ff" d="M978.83,-118.99C861.31,-111.4 636.72,-95.68 435.9,-74.15"/>
<polygon fill="#63b8ff" stroke="#63b8ff" points="436.06,-70.65 425.75,-73.06 435.31,-77.61 436.06,-70.65"/>
</a>
</g>
</g>
<!-- Node7 -->
<g id="Node000007" class="node">
<title>Node7</title>
<g id="a_Node000007"><a xlink:title=" ">
<polygon fill="#e0e0e0" stroke="#999999" points="608.5,-74 443.5,-74 443.5,-55 608.5,-55 608.5,-74"/>
<text text-anchor="middle" x="526" y="-62" font-family="Helvetica,sans-Serif" font-size="10.00">RmlUi/Core/DecorationTypes.h</text>
</a>
</g>
</g>
<!-- Node1&#45;&gt;Node7 -->
<g id="edge6_Node000001_Node000007" class="edge">
<title>Node1&#45;&gt;Node7</title>
<g id="a_edge6_Node000001_Node000007"><a xlink:title=" ">
<path fill="none" stroke="#63b8ff" d="M978.9,-115.12C880.59,-104.35 715.54,-86.26 614.16,-75.16"/>
<polygon fill="#63b8ff" stroke="#63b8ff" points="614.27,-71.65 603.95,-74.04 613.51,-78.61 614.27,-71.65"/>
</a>
</g>
</g>
<!-- Node8 -->
<g id="Node000008" class="node">
<title>Node8</title>
<g id="a_Node000008"><a xlink:title=" ">
<polygon fill="#e0e0e0" stroke="#999999" points="771.5,-74 626.5,-74 626.5,-55 771.5,-55 771.5,-74"/>
<text text-anchor="middle" x="699" y="-62" font-family="Helvetica,sans-Serif" font-size="10.00">RmlUi/Core/FileInterface.h</text>
</a>
</g>
</g>
<!-- Node1&#45;&gt;Node8 -->
<g id="edge7_Node000001_Node000008" class="edge">
<title>Node1&#45;&gt;Node8</title>
<g id="a_edge7_Node000001_Node000008"><a xlink:title=" ">
<path fill="none" stroke="#63b8ff" d="M978.98,-110.87C913.25,-100.22 821.92,-85.42 761.68,-75.66"/>
<polygon fill="#63b8ff" stroke="#63b8ff" points="761.98,-72.16 751.55,-74.02 760.86,-79.07 761.98,-72.16"/>
</a>
</g>
</g>
<!-- Node9 -->
<g id="Node000009" class="node">
<title>Node9</title>
<g id="a_Node000009"><a xlink:title=" ">
<polygon fill="#e0e0e0" stroke="#999999" points="920.5,-74 789.5,-74 789.5,-55 920.5,-55 920.5,-74"/>
<text text-anchor="middle" x="855" y="-62" font-family="Helvetica,sans-Serif" font-size="10.00">RmlUi/Core/Geometry.h</text>
</a>
</g>
</g>
<!-- Node1&#45;&gt;Node9 -->
<g id="edge8_Node000001_Node000009" class="edge">
<title>Node1&#45;&gt;Node9</title>
<g id="a_edge8_Node000001_Node000009"><a xlink:title=" ">
<path fill="none" stroke="#63b8ff" d="M1010.9,-109.99C975.37,-99.85 927.96,-86.32 894.78,-76.85"/>
<polygon fill="#63b8ff" stroke="#63b8ff" points="895.55,-73.43 884.97,-74.05 893.63,-80.16 895.55,-73.43"/>
</a>
</g>
</g>
<!-- Node10 -->
<g id="Node000010" class="node">
<title>Node10</title>
<g id="a_Node000010"><a xlink:title=" ">
<polygon fill="#e0e0e0" stroke="#999999" points="1039.5,-74 938.5,-74 938.5,-55 1039.5,-55 1039.5,-74"/>
<text text-anchor="middle" x="989" y="-62" font-family="Helvetica,sans-Serif" font-size="10.00">RmlUi/Core/Log.h</text>
</a>
</g>
</g>
<!-- Node1&#45;&gt;Node10 -->
<g id="edge9_Node000001_Node000010" class="edge">
<title>Node1&#45;&gt;Node10</title>
<g id="a_edge9_Node000001_Node000010"><a xlink:title=" ">
<path fill="none" stroke="#63b8ff" d="M1042.81,-109.84C1032.19,-101.09 1018.56,-89.85 1007.67,-80.88"/>
<polygon fill="#63b8ff" stroke="#63b8ff" points="1009.58,-77.92 999.64,-74.27 1005.13,-83.33 1009.58,-77.92"/>
</a>
</g>
</g>
<!-- Node11 -->
<g id="Node000011" class="node">
<title>Node11</title>
<g id="a_Node000011"><a xlink:title=" ">
<polygon fill="#e0e0e0" stroke="#999999" points="1206.5,-74 1057.5,-74 1057.5,-55 1206.5,-55 1206.5,-74"/>
<text text-anchor="middle" x="1132" y="-62" font-family="Helvetica,sans-Serif" font-size="10.00">RmlUi/Core/MeshUtilities.h</text>
</a>
</g>
</g>
<!-- Node1&#45;&gt;Node11 -->
<g id="edge10_Node000001_Node000011" class="edge">
<title>Node1&#45;&gt;Node11</title>
<g id="a_edge10_Node000001_Node000011"><a xlink:title=" ">
<path fill="none" stroke="#63b8ff" d="M1077.43,-109.84C1088.31,-101 1102.3,-89.63 1113.39,-80.62"/>
<polygon fill="#63b8ff" stroke="#63b8ff" points="1115.66,-83.29 1121.21,-74.27 1111.24,-77.86 1115.66,-83.29"/>
</a>
</g>
</g>
<!-- Node12 -->
<g id="Node000012" class="node">
<title>Node12</title>
<g id="a_Node000012"><a xlink:title=" ">
<polygon fill="#e0e0e0" stroke="#999999" points="1351,-74 1225,-74 1225,-55 1351,-55 1351,-74"/>
<text text-anchor="middle" x="1288" y="-62" font-family="Helvetica,sans-Serif" font-size="10.00">RmlUi/Core/Platform.h</text>
</a>
</g>
</g>
<!-- Node1&#45;&gt;Node12 -->
<g id="edge11_Node000001_Node000012" class="edge">
<title>Node1&#45;&gt;Node12</title>
<g id="a_edge11_Node000001_Node000012"><a xlink:title=" ">
<path fill="none" stroke="#63b8ff" d="M1114.61,-109.99C1154.47,-99.76 1207.77,-86.09 1244.7,-76.61"/>
<polygon fill="#63b8ff" stroke="#63b8ff" points="1245.85,-79.93 1254.66,-74.05 1244.11,-73.15 1245.85,-79.93"/>
</a>
</g>
</g>
<!-- Node13 -->
<g id="Node000013" class="node">
<title>Node13</title>
<g id="a_Node000013"><a xlink:title=" ">
<polygon fill="#e0e0e0" stroke="#999999" points="1533,-74 1369,-74 1369,-55 1533,-55 1533,-74"/>
<text text-anchor="middle" x="1451" y="-62" font-family="Helvetica,sans-Serif" font-size="10.00">RmlUi/Core/SystemInterface.h</text>
</a>
</g>
</g>
<!-- Node1&#45;&gt;Node13 -->
<g id="edge12_Node000001_Node000013" class="edge">
<title>Node1&#45;&gt;Node13</title>
<g id="a_edge12_Node000001_Node000013"><a xlink:title=" ">
<path fill="none" stroke="#63b8ff" d="M1141.02,-111.88C1212.93,-101.12 1316.75,-85.59 1384.06,-75.52"/>
<polygon fill="#63b8ff" stroke="#63b8ff" points="1384.75,-78.95 1394.13,-74.01 1383.72,-72.03 1384.75,-78.95"/>
</a>
</g>
</g>
<!-- Node14 -->
<g id="Node000014" class="node">
<title>Node14</title>
<g id="a_Node000014"><a xlink:title=" ">
<polygon fill="#e0e0e0" stroke="#999999" points="1615,-74 1551,-74 1551,-55 1615,-55 1615,-74"/>
<text text-anchor="middle" x="1583" y="-62" font-family="Helvetica,sans-Serif" font-size="10.00">algorithm</text>
</a>
</g>
</g>
<!-- Node1&#45;&gt;Node14 -->
<g id="edge13_Node000001_Node000014" class="edge">
<title>Node1&#45;&gt;Node14</title>
<g id="a_edge13_Node000001_Node000014"><a xlink:title=" ">
<path fill="none" stroke="#63b8ff" d="M1141.34,-118.08C1235.26,-110.69 1394.56,-96.39 1540.77,-74.04"/>
<polygon fill="#63b8ff" stroke="#63b8ff" points="1541.48,-77.48 1550.83,-72.49 1540.41,-70.56 1541.48,-77.48"/>
</a>
</g>
</g>
<!-- Node15 -->
<g id="Node000015" class="node">
<title>Node15</title>
<g id="a_Node000015"><a xlink:title=" ">
<polygon fill="#e0e0e0" stroke="#999999" points="1686.5,-74 1633.5,-74 1633.5,-55 1686.5,-55 1686.5,-74"/>
<text text-anchor="middle" x="1660" y="-62" font-family="Helvetica,sans-Serif" font-size="10.00">string.h</text>
</a>
</g>
</g>
<!-- Node1&#45;&gt;Node15 -->
<g id="edge14_Node000001_Node000015" class="edge">
<title>Node1&#45;&gt;Node15</title>
<g id="a_edge14_Node000001_Node000015"><a xlink:title=" ">
<path fill="none" stroke="#63b8ff" d="M1141.24,-120.46C1249.21,-114.94 1445.98,-102.04 1623.31,-73.86"/>
<polygon fill="#63b8ff" stroke="#63b8ff" points="1624.03,-77.29 1633.35,-72.24 1622.92,-70.38 1624.03,-77.29"/>
</a>
</g>
</g>
<!-- Node16 -->
<g id="Node000016" class="node">
<title>Node16</title>
<g id="a_Node000016"><a xlink:href="RmlUi__Include__GL3_8h.html" target="_top" xlink:title=" ">
<polygon fill="white" stroke="#666666" points="1825,-74 1705,-74 1705,-55 1825,-55 1825,-74"/>
<text text-anchor="middle" x="1765" y="-62" font-family="Helvetica,sans-Serif" font-size="10.00">RmlUi_Include_GL3.h</text>
</a>
</g>
</g>
<!-- Node1&#45;&gt;Node16 -->
<g id="edge15_Node000001_Node000016" class="edge">
<title>Node1&#45;&gt;Node16</title>
<g id="a_edge15_Node000001_Node000016"><a xlink:title=" ">
<path fill="none" stroke="#63b8ff" d="M1141.17,-118.77C1260.22,-110.84 1489.42,-94.61 1694.74,-74.09"/>
<polygon fill="#63b8ff" stroke="#63b8ff" points="1695.21,-77.56 1704.81,-73.07 1694.51,-70.59 1695.21,-77.56"/>
</a>
</g>
</g>
<!-- Node3 -->
<g id="Node000003" class="node">
<title>Node3</title>
<g id="a_Node000003"><a xlink:title=" ">
<polygon fill="#e0e0e0" stroke="#999999" points="162,-19 0,-19 0,0 162,0 162,-19"/>
<text text-anchor="middle" x="81" y="-7" font-family="Helvetica,sans-Serif" font-size="10.00">RmlUi/Core/RenderInterface.h</text>
</a>
</g>
</g>
<!-- Node2&#45;&gt;Node3 -->
<g id="edge2_Node000002_Node000003" class="edge">
<title>Node2&#45;&gt;Node3</title>
<g id="a_edge2_Node000002_Node000003"><a xlink:title=" ">
<path fill="none" stroke="#63b8ff" d="M211.1,-54.98C185.3,-46.16 144.78,-32.31 115.82,-22.41"/>
<polygon fill="#63b8ff" stroke="#63b8ff" points="116.69,-19.01 106.1,-19.08 114.43,-25.63 116.69,-19.01"/>
</a>
</g>
</g>
<!-- Node4 -->
<g id="Node000004" class="node">
<title>Node4</title>
<g id="a_Node000004"><a xlink:title=" ">
<polygon fill="#e0e0e0" stroke="#999999" points="292,-19 180,-19 180,0 292,0 292,-19"/>
<text text-anchor="middle" x="236" y="-7" font-family="Helvetica,sans-Serif" font-size="10.00">RmlUi/Core/Types.h</text>
</a>
</g>
</g>
<!-- Node2&#45;&gt;Node4 -->
<g id="edge3_Node000002_Node000004" class="edge">
<title>Node2&#45;&gt;Node4</title>
<g id="a_edge3_Node000002_Node000004"><a xlink:title=" ">
<path fill="none" stroke="#63b8ff" d="M236,-54.75C236,-47.8 236,-37.85 236,-29.13"/>
<polygon fill="#63b8ff" stroke="#63b8ff" points="239.5,-29.09 236,-19.09 232.5,-29.09 239.5,-29.09"/>
</a>
</g>
</g>
<!-- Node5 -->
<g id="Node000005" class="node">
<title>Node5</title>
<g id="a_Node000005"><a xlink:title=" ">
<polygon fill="#e0e0e0" stroke="#999999" points="354,-19 310,-19 310,0 354,0 354,-19"/>
<text text-anchor="middle" x="332" y="-7" font-family="Helvetica,sans-Serif" font-size="10.00">bitset</text>
</a>
</g>
</g>
<!-- Node2&#45;&gt;Node5 -->
<g id="edge4_Node000002_Node000005" class="edge">
<title>Node2&#45;&gt;Node5</title>
<g id="a_edge4_Node000002_Node000005"><a xlink:title=" ">
<path fill="none" stroke="#63b8ff" d="M251.42,-54.98C266.45,-46.69 289.54,-33.94 307.16,-24.22"/>
<polygon fill="#63b8ff" stroke="#63b8ff" points="309.23,-27.07 316.3,-19.17 305.85,-20.94 309.23,-27.07"/>
</a>
</g>
</g>
<!-- Node17 -->
<g id="Node000017" class="node">
<title>Node17</title>
<g id="a_Node000017"><a xlink:title=" ">
<polygon fill="#e0e0e0" stroke="#999999" points="1791.5,-19 1738.5,-19 1738.5,0 1791.5,0 1791.5,-19"/>
<text text-anchor="middle" x="1765" y="-7" font-family="Helvetica,sans-Serif" font-size="10.00">stdint.h</text>
</a>
</g>
</g>
<!-- Node16&#45;&gt;Node17 -->
<g id="edge16_Node000016_Node000017" class="edge">
<title>Node16&#45;&gt;Node17</title>
<g id="a_edge16_Node000016_Node000017"><a xlink:title=" ">
<path fill="none" stroke="#63b8ff" d="M1765,-54.75C1765,-47.8 1765,-37.85 1765,-29.13"/>
<polygon fill="#63b8ff" stroke="#63b8ff" points="1768.5,-29.09 1765,-19.09 1761.5,-29.09 1768.5,-29.09"/>
</a>
</g>
</g>
</g>
</svg>
