<?xml version="1.0" encoding="UTF-8" standalone="no"?>
<!DOCTYPE svg PUBLIC "-//W3C//DTD SVG 1.1//EN"
 "http://www.w3.org/Graphics/SVG/1.1/DTD/svg11.dtd">
<!-- Generated by graphviz version 2.43.0 (0)
 -->
<!-- Title: Clipboard++/RmlUI/EventHandlers/Clipboard++Events/ShortCutsMenu/SearchEvent.h Pages: 1 -->
<svg width="574pt" height="390pt"
 viewBox="0.00 0.00 573.50 390.00" xmlns="http://www.w3.org/2000/svg" xmlns:xlink="http://www.w3.org/1999/xlink">
<g id="graph0" class="graph" transform="scale(1 1) rotate(0) translate(4 386)">
<title>Clipboard++/RmlUI/EventHandlers/Clipboard++Events/ShortCutsMenu/SearchEvent.h</title>
<!-- Node1 -->
<g id="Node000001" class="node">
<title>Node1</title>
<g id="a_Node000001"><a xlink:title=" ">
<polygon fill="#999999" stroke="#666666" points="489,-382 296,-382 296,-341 489,-341 489,-382"/>
<text text-anchor="start" x="304" y="-370" font-family="Helvetica,sans-Serif" font-size="10.00">Clipboard++/RmlUI/EventHandlers</text>
<text text-anchor="start" x="304" y="-359" font-family="Helvetica,sans-Serif" font-size="10.00">/Clipboard++Events/ShortCutsMenu</text>
<text text-anchor="middle" x="392.5" y="-348" font-family="Helvetica,sans-Serif" font-size="10.00">/SearchEvent.h</text>
</a>
</g>
</g>
<!-- Node2 -->
<g id="Node000002" class="node">
<title>Node2</title>
<g id="a_Node000002"><a xlink:href="MemoryCellManager_8h.html" target="_top" xlink:title=" ">
<polygon fill="white" stroke="#666666" points="461.5,-250 323.5,-250 323.5,-220 461.5,-220 461.5,-250"/>
<text text-anchor="start" x="331.5" y="-238" font-family="Helvetica,sans-Serif" font-size="10.00">QClipboard/MemoryCells</text>
<text text-anchor="middle" x="392.5" y="-227" font-family="Helvetica,sans-Serif" font-size="10.00">/MemoryCellManager.h</text>
</a>
</g>
</g>
<!-- Node1&#45;&gt;Node2 -->
<g id="edge1_Node000001_Node000002" class="edge">
<title>Node1&#45;&gt;Node2</title>
<g id="a_edge1_Node000001_Node000002"><a xlink:title=" ">
<path fill="none" stroke="#63b8ff" d="M392.5,-340.77C392.5,-318.99 392.5,-283.9 392.5,-260.41"/>
<polygon fill="#63b8ff" stroke="#63b8ff" points="396,-260.21 392.5,-250.21 389,-260.21 396,-260.21"/>
</a>
</g>
</g>
<!-- Node12 -->
<g id="Node000012" class="node">
<title>Node12</title>
<g id="a_Node000012"><a xlink:href="Clipboard_09_09Event_8h.html" target="_top" xlink:title=" ">
<polygon fill="white" stroke="#666666" points="307.5,-305 191.5,-305 191.5,-286 307.5,-286 307.5,-305"/>
<text text-anchor="middle" x="249.5" y="-293" font-family="Helvetica,sans-Serif" font-size="10.00">Clipboard++Event.h</text>
</a>
</g>
</g>
<!-- Node1&#45;&gt;Node12 -->
<g id="edge14_Node000001_Node000012" class="edge">
<title>Node1&#45;&gt;Node12</title>
<g id="a_edge14_Node000001_Node000012"><a xlink:title=" ">
<path fill="none" stroke="#63b8ff" d="M348.82,-340.95C325.81,-330.65 298.24,-318.31 278,-309.25"/>
<polygon fill="#63b8ff" stroke="#63b8ff" points="279.25,-305.98 268.7,-305.09 276.4,-312.37 279.25,-305.98"/>
</a>
</g>
</g>
<!-- Node15 -->
<g id="Node000015" class="node">
<title>Node15</title>
<g id="a_Node000015"><a xlink:href="ShortCutsViewModel_8h.html" target="_top" xlink:title=" ">
<polygon fill="white" stroke="#666666" points="550,-305 423,-305 423,-286 550,-286 550,-305"/>
<text text-anchor="middle" x="486.5" y="-293" font-family="Helvetica,sans-Serif" font-size="10.00">ShortCutsViewModel.h</text>
</a>
</g>
</g>
<!-- Node1&#45;&gt;Node15 -->
<g id="edge17_Node000001_Node000015" class="edge">
<title>Node1&#45;&gt;Node15</title>
<g id="a_edge17_Node000001_Node000015"><a xlink:title=" ">
<path fill="none" stroke="#63b8ff" d="M421.21,-340.95C435.43,-331.27 452.28,-319.8 465.31,-310.93"/>
<polygon fill="#63b8ff" stroke="#63b8ff" points="467.34,-313.78 473.63,-305.26 463.4,-308 467.34,-313.78"/>
</a>
</g>
</g>
<!-- Node3 -->
<g id="Node000003" class="node">
<title>Node3</title>
<g id="a_Node000003"><a xlink:href="ClipboardInterface_8h.html" target="_top" xlink:title=" ">
<polygon fill="white" stroke="#666666" points="454.5,-129 338.5,-129 338.5,-110 454.5,-110 454.5,-129"/>
<text text-anchor="middle" x="396.5" y="-117" font-family="Helvetica,sans-Serif" font-size="10.00">ClipboardInterface.h</text>
</a>
</g>
</g>
<!-- Node2&#45;&gt;Node3 -->
<g id="edge2_Node000002_Node000003" class="edge">
<title>Node2&#45;&gt;Node3</title>
<g id="a_edge2_Node000002_Node000003"><a xlink:title=" ">
<path fill="none" stroke="#63b8ff" d="M392.84,-219.99C393.2,-206.05 393.8,-184.04 394.5,-165 394.81,-156.49 395.23,-147.07 395.6,-139.09"/>
<polygon fill="#63b8ff" stroke="#63b8ff" points="399.1,-139.18 396.08,-129.03 392.11,-138.85 399.1,-139.18"/>
</a>
</g>
</g>
<!-- Node6 -->
<g id="Node000006" class="node">
<title>Node6</title>
<g id="a_Node000006"><a xlink:title=" ">
<polygon fill="#e0e0e0" stroke="#999999" points="551,-19 504,-19 504,0 551,0 551,-19"/>
<text text-anchor="middle" x="527.5" y="-7" font-family="Helvetica,sans-Serif" font-size="10.00">vector</text>
</a>
</g>
</g>
<!-- Node2&#45;&gt;Node6 -->
<g id="edge12_Node000002_Node000006" class="edge">
<title>Node2&#45;&gt;Node6</title>
<g id="a_edge12_Node000002_Node000006"><a xlink:title=" ">
<path fill="none" stroke="#63b8ff" d="M424.27,-219.92C440.08,-211.5 458.36,-199.42 470.5,-184 507.86,-136.53 521.18,-63.61 525.55,-29.42"/>
<polygon fill="#63b8ff" stroke="#63b8ff" points="529.08,-29.38 526.75,-19.05 522.13,-28.58 529.08,-29.38"/>
</a>
</g>
</g>
<!-- Node8 -->
<g id="Node000008" class="node">
<title>Node8</title>
<g id="a_Node000008"><a xlink:href="ClipboardAdapter_8h.html" target="_top" xlink:title=" ">
<polygon fill="white" stroke="#666666" points="347.5,-184 237.5,-184 237.5,-165 347.5,-165 347.5,-184"/>
<text text-anchor="middle" x="292.5" y="-172" font-family="Helvetica,sans-Serif" font-size="10.00">ClipboardAdapter.h</text>
</a>
</g>
</g>
<!-- Node2&#45;&gt;Node8 -->
<g id="edge8_Node000002_Node000008" class="edge">
<title>Node2&#45;&gt;Node8</title>
<g id="a_edge8_Node000002_Node000008"><a xlink:title=" ">
<path fill="none" stroke="#63b8ff" d="M368.55,-219.99C352.61,-210.66 331.77,-198.47 315.94,-189.21"/>
<polygon fill="#63b8ff" stroke="#63b8ff" points="317.67,-186.17 307.27,-184.14 314.13,-192.21 317.67,-186.17"/>
</a>
</g>
</g>
<!-- Node11 -->
<g id="Node000011" class="node">
<title>Node11</title>
<g id="a_Node000011"><a xlink:title=" ">
<polygon fill="#e0e0e0" stroke="#999999" points="461.5,-184 403.5,-184 403.5,-165 461.5,-165 461.5,-184"/>
<text text-anchor="middle" x="432.5" y="-172" font-family="Helvetica,sans-Serif" font-size="10.00">memory</text>
</a>
</g>
</g>
<!-- Node2&#45;&gt;Node11 -->
<g id="edge13_Node000002_Node000011" class="edge">
<title>Node2&#45;&gt;Node11</title>
<g id="a_edge13_Node000002_Node000011"><a xlink:title=" ">
<path fill="none" stroke="#63b8ff" d="M402.18,-219.84C407.75,-211.69 414.79,-201.4 420.68,-192.78"/>
<polygon fill="#63b8ff" stroke="#63b8ff" points="423.75,-194.5 426.51,-184.27 417.97,-190.55 423.75,-194.5"/>
</a>
</g>
</g>
<!-- Node4 -->
<g id="Node000004" class="node">
<title>Node4</title>
<g id="a_Node000004"><a xlink:title=" ">
<polygon fill="#e0e0e0" stroke="#999999" points="344.5,-19 300.5,-19 300.5,0 344.5,0 344.5,-19"/>
<text text-anchor="middle" x="322.5" y="-7" font-family="Helvetica,sans-Serif" font-size="10.00">string</text>
</a>
</g>
</g>
<!-- Node3&#45;&gt;Node4 -->
<g id="edge3_Node000003_Node000004" class="edge">
<title>Node3&#45;&gt;Node4</title>
<g id="a_edge3_Node000003_Node000004"><a xlink:title=" ">
<path fill="none" stroke="#63b8ff" d="M378.77,-109.87C365.11,-102.3 346.87,-90 336.5,-74 327.86,-60.66 324.49,-42.79 323.2,-29.41"/>
<polygon fill="#63b8ff" stroke="#63b8ff" points="326.67,-28.78 322.53,-19.03 319.69,-29.23 326.67,-28.78"/>
</a>
</g>
</g>
<!-- Node5 -->
<g id="Node000005" class="node">
<title>Node5</title>
<g id="a_Node000005"><a xlink:href="KeyShortCut_8h.html" target="_top" xlink:title=" ">
<polygon fill="white" stroke="#666666" points="499.5,-74 345.5,-74 345.5,-55 499.5,-55 499.5,-74"/>
<text text-anchor="middle" x="422.5" y="-62" font-family="Helvetica,sans-Serif" font-size="10.00">KeyShortCuts/KeyShortCut.h</text>
</a>
</g>
</g>
<!-- Node3&#45;&gt;Node5 -->
<g id="edge4_Node000003_Node000005" class="edge">
<title>Node3&#45;&gt;Node5</title>
<g id="a_edge4_Node000003_Node000005"><a xlink:title=" ">
<path fill="none" stroke="#63b8ff" d="M400.79,-109.75C404.31,-102.57 409.41,-92.18 413.78,-83.27"/>
<polygon fill="#63b8ff" stroke="#63b8ff" points="417.02,-84.61 418.29,-74.09 410.74,-81.53 417.02,-84.61"/>
</a>
</g>
</g>
<!-- Node5&#45;&gt;Node4 -->
<g id="edge6_Node000005_Node000004" class="edge">
<title>Node5&#45;&gt;Node4</title>
<g id="a_edge6_Node000005_Node000004"><a xlink:title=" ">
<path fill="none" stroke="#63b8ff" d="M406.43,-54.98C390.64,-46.61 366.28,-33.7 347.87,-23.95"/>
<polygon fill="#63b8ff" stroke="#63b8ff" points="349.33,-20.76 338.86,-19.17 346.06,-26.95 349.33,-20.76"/>
</a>
</g>
</g>
<!-- Node5&#45;&gt;Node6 -->
<g id="edge5_Node000005_Node000006" class="edge">
<title>Node5&#45;&gt;Node6</title>
<g id="a_edge5_Node000005_Node000006"><a xlink:title=" ">
<path fill="none" stroke="#63b8ff" d="M439.37,-54.98C456.11,-46.54 482,-33.47 501.39,-23.68"/>
<polygon fill="#63b8ff" stroke="#63b8ff" points="502.97,-26.8 510.32,-19.17 499.82,-20.55 502.97,-26.8"/>
</a>
</g>
</g>
<!-- Node7 -->
<g id="Node000007" class="node">
<title>Node7</title>
<g id="a_Node000007"><a xlink:title=" ">
<polygon fill="#e0e0e0" stroke="#999999" points="477,-19 368,-19 368,0 477,0 477,-19"/>
<text text-anchor="middle" x="422.5" y="-7" font-family="Helvetica,sans-Serif" font-size="10.00">RmlUi/Core/Input.h</text>
</a>
</g>
</g>
<!-- Node5&#45;&gt;Node7 -->
<g id="edge7_Node000005_Node000007" class="edge">
<title>Node5&#45;&gt;Node7</title>
<g id="a_edge7_Node000005_Node000007"><a xlink:title=" ">
<path fill="none" stroke="#63b8ff" d="M422.5,-54.75C422.5,-47.8 422.5,-37.85 422.5,-29.13"/>
<polygon fill="#63b8ff" stroke="#63b8ff" points="426,-29.09 422.5,-19.09 419,-29.09 426,-29.09"/>
</a>
</g>
</g>
<!-- Node8&#45;&gt;Node3 -->
<g id="edge9_Node000008_Node000003" class="edge">
<title>Node8&#45;&gt;Node3</title>
<g id="a_edge9_Node000008_Node000003"><a xlink:title=" ">
<path fill="none" stroke="#63b8ff" d="M309.21,-164.98C325.71,-156.57 351.2,-143.59 370.38,-133.81"/>
<polygon fill="#63b8ff" stroke="#63b8ff" points="372.17,-136.83 379.49,-129.17 368.99,-130.59 372.17,-136.83"/>
</a>
</g>
</g>
<!-- Node9 -->
<g id="Node000009" class="node">
<title>Node9</title>
<g id="a_Node000009"><a xlink:title=" ">
<polygon fill="#e0e0e0" stroke="#999999" points="246,-129 175,-129 175,-110 246,-110 246,-129"/>
<text text-anchor="middle" x="210.5" y="-117" font-family="Helvetica,sans-Serif" font-size="10.00">QClipboard</text>
</a>
</g>
</g>
<!-- Node8&#45;&gt;Node9 -->
<g id="edge10_Node000008_Node000009" class="edge">
<title>Node8&#45;&gt;Node9</title>
<g id="a_edge10_Node000008_Node000009"><a xlink:title=" ">
<path fill="none" stroke="#63b8ff" d="M279.33,-164.98C266.73,-156.84 247.5,-144.41 232.56,-134.76"/>
<polygon fill="#63b8ff" stroke="#63b8ff" points="234.21,-131.66 223.91,-129.17 230.41,-137.54 234.21,-131.66"/>
</a>
</g>
</g>
<!-- Node10 -->
<g id="Node000010" class="node">
<title>Node10</title>
<g id="a_Node000010"><a xlink:title=" ">
<polygon fill="#e0e0e0" stroke="#999999" points="320.5,-129 264.5,-129 264.5,-110 320.5,-110 320.5,-129"/>
<text text-anchor="middle" x="292.5" y="-117" font-family="Helvetica,sans-Serif" font-size="10.00">QObject</text>
</a>
</g>
</g>
<!-- Node8&#45;&gt;Node10 -->
<g id="edge11_Node000008_Node000010" class="edge">
<title>Node8&#45;&gt;Node10</title>
<g id="a_edge11_Node000008_Node000010"><a xlink:title=" ">
<path fill="none" stroke="#63b8ff" d="M292.5,-164.75C292.5,-157.8 292.5,-147.85 292.5,-139.13"/>
<polygon fill="#63b8ff" stroke="#63b8ff" points="296,-139.09 292.5,-129.09 289,-139.09 296,-139.09"/>
</a>
</g>
</g>
<!-- Node13 -->
<g id="Node000013" class="node">
<title>Node13</title>
<g id="a_Node000013"><a xlink:title=" ">
<polygon fill="#e0e0e0" stroke="#999999" points="305.5,-244.5 193.5,-244.5 193.5,-225.5 305.5,-225.5 305.5,-244.5"/>
<text text-anchor="middle" x="249.5" y="-232.5" font-family="Helvetica,sans-Serif" font-size="10.00">RmlUi/Core/Types.h</text>
</a>
</g>
</g>
<!-- Node12&#45;&gt;Node13 -->
<g id="edge15_Node000012_Node000013" class="edge">
<title>Node12&#45;&gt;Node13</title>
<g id="a_edge15_Node000012_Node000013"><a xlink:title=" ">
<path fill="none" stroke="#63b8ff" d="M249.5,-285.87C249.5,-277.75 249.5,-265.31 249.5,-254.89"/>
<polygon fill="#63b8ff" stroke="#63b8ff" points="253,-254.67 249.5,-244.67 246,-254.67 253,-254.67"/>
</a>
</g>
</g>
<!-- Node14 -->
<g id="Node000014" class="node">
<title>Node14</title>
<g id="a_Node000014"><a xlink:title=" ">
<polygon fill="#e0e0e0" stroke="#999999" points="175,-244.5 0,-244.5 0,-225.5 175,-225.5 175,-244.5"/>
<text text-anchor="middle" x="87.5" y="-232.5" font-family="Helvetica,sans-Serif" font-size="10.00">RmlUi/Core/ElementDocument.h</text>
</a>
</g>
</g>
<!-- Node12&#45;&gt;Node14 -->
<g id="edge16_Node000012_Node000014" class="edge">
<title>Node12&#45;&gt;Node14</title>
<g id="a_edge16_Node000012_Node000014"><a xlink:title=" ">
<path fill="none" stroke="#63b8ff" d="M225.94,-285.99C198.23,-275.99 152.03,-259.3 120.69,-247.99"/>
<polygon fill="#63b8ff" stroke="#63b8ff" points="121.68,-244.62 111.08,-244.52 119.3,-251.21 121.68,-244.62"/>
</a>
</g>
</g>
<!-- Node15&#45;&gt;Node2 -->
<g id="edge19_Node000015_Node000002" class="edge">
<title>Node15&#45;&gt;Node2</title>
<g id="a_edge19_Node000015_Node000002"><a xlink:title=" ">
<path fill="none" stroke="#63b8ff" d="M472.63,-285.87C459.88,-277.93 440.5,-265.87 423.99,-255.6"/>
<polygon fill="#63b8ff" stroke="#63b8ff" points="425.52,-252.43 415.18,-250.11 421.82,-258.37 425.52,-252.43"/>
</a>
</g>
</g>
<!-- Node15&#45;&gt;Node3 -->
<g id="edge18_Node000015_Node000003" class="edge">
<title>Node15&#45;&gt;Node3</title>
<g id="a_edge18_Node000015_Node000003"><a xlink:title=" ">
<path fill="none" stroke="#63b8ff" d="M487.86,-285.77C490.84,-263.56 495.8,-203.94 470.5,-165 461.25,-150.77 445.72,-140.42 431.26,-133.31"/>
<polygon fill="#63b8ff" stroke="#63b8ff" points="432.54,-130.05 421.99,-129.09 429.64,-136.42 432.54,-130.05"/>
</a>
</g>
</g>
<!-- Node15&#45;&gt;Node6 -->
<g id="edge20_Node000015_Node000006" class="edge">
<title>Node15&#45;&gt;Node6</title>
<g id="a_edge20_Node000015_Node000006"><a xlink:title=" ">
<path fill="none" stroke="#63b8ff" d="M497.48,-285.96C519.19,-268.04 565.5,-224.1 565.5,-175.5 565.5,-175.5 565.5,-175.5 565.5,-118.5 565.5,-85.02 549.05,-48.84 537.8,-28.01"/>
<polygon fill="#63b8ff" stroke="#63b8ff" points="540.74,-26.1 532.78,-19.1 534.63,-29.53 540.74,-26.1"/>
</a>
</g>
</g>
</g>
</svg>
