<?xml version="1.0" encoding="UTF-8" standalone="no"?>
<!DOCTYPE svg PUBLIC "-//W3C//DTD SVG 1.1//EN"
 "http://www.w3.org/Graphics/SVG/1.1/DTD/svg11.dtd">
<!-- Generated by graphviz version 2.43.0 (0)
 -->
<!-- Title: Clipboard++/RmlUI/Shell/src/Shell.cpp Pages: 1 -->
<svg width="1156pt" height="148pt"
 viewBox="0.00 0.00 1156.00 148.00" xmlns="http://www.w3.org/2000/svg" xmlns:xlink="http://www.w3.org/1999/xlink">
<g id="graph0" class="graph" transform="scale(1 1) rotate(0) translate(4 144)">
<title>Clipboard++/RmlUI/Shell/src/Shell.cpp</title>
<!-- Node1 -->
<g id="Node000001" class="node">
<title>Node1</title>
<g id="a_Node000001"><a xlink:title=" ">
<polygon fill="#999999" stroke="#666666" points="592,-140 452,-140 452,-110 592,-110 592,-140"/>
<text text-anchor="start" x="460" y="-128" font-family="Helvetica,sans-Serif" font-size="10.00">Clipboard++/RmlUI/Shell</text>
<text text-anchor="middle" x="522" y="-117" font-family="Helvetica,sans-Serif" font-size="10.00">/src/Shell.cpp</text>
</a>
</g>
</g>
<!-- Node2 -->
<g id="Node000002" class="node">
<title>Node2</title>
<g id="a_Node000002"><a xlink:href="Shell_8h.html" target="_top" xlink:title=" ">
<polygon fill="white" stroke="#666666" points="238.5,-74 141.5,-74 141.5,-55 238.5,-55 238.5,-74"/>
<text text-anchor="middle" x="190" y="-62" font-family="Helvetica,sans-Serif" font-size="10.00">../include/Shell.h</text>
</a>
</g>
</g>
<!-- Node1&#45;&gt;Node2 -->
<g id="edge1_Node000001_Node000002" class="edge">
<title>Node1&#45;&gt;Node2</title>
<g id="a_edge1_Node000001_Node000002"><a xlink:title=" ">
<path fill="none" stroke="#63b8ff" d="M452,-111.67C391.52,-101.01 305.13,-85.79 248.33,-75.78"/>
<polygon fill="#63b8ff" stroke="#63b8ff" points="248.89,-72.32 238.43,-74.03 247.67,-79.22 248.89,-72.32"/>
</a>
</g>
</g>
<!-- Node3 -->
<g id="Node000003" class="node">
<title>Node3</title>
<g id="a_Node000003"><a xlink:title=" ">
<polygon fill="#e0e0e0" stroke="#999999" points="122,-19 0,-19 0,0 122,0 122,-19"/>
<text text-anchor="middle" x="61" y="-7" font-family="Helvetica,sans-Serif" font-size="10.00">RmlUi/Core/Context.h</text>
</a>
</g>
</g>
<!-- Node1&#45;&gt;Node3 -->
<g id="edge10_Node000001_Node000003" class="edge">
<title>Node1&#45;&gt;Node3</title>
<g id="a_edge10_Node000001_Node000003"><a xlink:title=" ">
<path fill="none" stroke="#63b8ff" d="M451.64,-120.66C353.19,-115.07 180.08,-101.59 124,-74 102.54,-63.44 84.09,-42.6 72.81,-27.67"/>
<polygon fill="#63b8ff" stroke="#63b8ff" points="75.44,-25.34 66.74,-19.29 69.77,-29.44 75.44,-25.34"/>
</a>
</g>
</g>
<!-- Node4 -->
<g id="Node000004" class="node">
<title>Node4</title>
<g id="a_Node000004"><a xlink:title=" ">
<polygon fill="#e0e0e0" stroke="#999999" points="249.5,-19 140.5,-19 140.5,0 249.5,0 249.5,-19"/>
<text text-anchor="middle" x="195" y="-7" font-family="Helvetica,sans-Serif" font-size="10.00">RmlUi/Core/Input.h</text>
</a>
</g>
</g>
<!-- Node1&#45;&gt;Node4 -->
<g id="edge13_Node000001_Node000004" class="edge">
<title>Node1&#45;&gt;Node4</title>
<g id="a_edge13_Node000001_Node000004"><a xlink:title=" ">
<path fill="none" stroke="#63b8ff" d="M451.73,-119.95C345.14,-113.09 152.74,-97.57 132,-74 115.97,-55.78 142.98,-36.15 166.46,-23.61"/>
<polygon fill="#63b8ff" stroke="#63b8ff" points="168.18,-26.66 175.52,-19.01 165.02,-20.42 168.18,-26.66"/>
</a>
</g>
</g>
<!-- Node6 -->
<g id="Node000006" class="node">
<title>Node6</title>
<g id="a_Node000006"><a xlink:href="PlatformExtensions_8h.html" target="_top" xlink:title=" ">
<polygon fill="white" stroke="#666666" points="425,-74 257,-74 257,-55 425,-55 425,-74"/>
<text text-anchor="middle" x="341" y="-62" font-family="Helvetica,sans-Serif" font-size="10.00">../include/PlatformExtensions.h</text>
</a>
</g>
</g>
<!-- Node1&#45;&gt;Node6 -->
<g id="edge5_Node000001_Node000006" class="edge">
<title>Node1&#45;&gt;Node6</title>
<g id="a_edge5_Node000001_Node000006"><a xlink:title=" ">
<path fill="none" stroke="#63b8ff" d="M478.65,-109.99C447.68,-99.98 406.5,-86.67 377.27,-77.22"/>
<polygon fill="#63b8ff" stroke="#63b8ff" points="378.06,-73.8 367.47,-74.05 375.9,-80.46 378.06,-73.8"/>
</a>
</g>
</g>
<!-- Node7 -->
<g id="Node000007" class="node">
<title>Node7</title>
<g id="a_Node000007"><a xlink:href="ShellFileInterface_8h.html" target="_top" xlink:title=" ">
<polygon fill="white" stroke="#666666" points="601,-74 443,-74 443,-55 601,-55 601,-74"/>
<text text-anchor="middle" x="522" y="-62" font-family="Helvetica,sans-Serif" font-size="10.00">../include/ShellFileInterface.h</text>
</a>
</g>
</g>
<!-- Node1&#45;&gt;Node7 -->
<g id="edge7_Node000001_Node000007" class="edge">
<title>Node1&#45;&gt;Node7</title>
<g id="a_edge7_Node000001_Node000007"><a xlink:title=" ">
<path fill="none" stroke="#63b8ff" d="M522,-109.84C522,-102.21 522,-92.7 522,-84.45"/>
<polygon fill="#63b8ff" stroke="#63b8ff" points="525.5,-84.27 522,-74.27 518.5,-84.27 525.5,-84.27"/>
</a>
</g>
</g>
<!-- Node9 -->
<g id="Node000009" class="node">
<title>Node9</title>
<g id="a_Node000009"><a xlink:title=" ">
<polygon fill="#e0e0e0" stroke="#999999" points="725.5,-74 618.5,-74 618.5,-55 725.5,-55 725.5,-74"/>
<text text-anchor="middle" x="672" y="-62" font-family="Helvetica,sans-Serif" font-size="10.00">RmlUi/Core/Core.h</text>
</a>
</g>
</g>
<!-- Node1&#45;&gt;Node9 -->
<g id="edge11_Node000001_Node000009" class="edge">
<title>Node1&#45;&gt;Node9</title>
<g id="a_edge11_Node000001_Node000009"><a xlink:title=" ">
<path fill="none" stroke="#63b8ff" d="M557.93,-109.99C583.07,-100.18 616.33,-87.21 640.45,-77.81"/>
<polygon fill="#63b8ff" stroke="#63b8ff" points="641.8,-81.03 649.85,-74.14 639.26,-74.51 641.8,-81.03"/>
</a>
</g>
</g>
<!-- Node10 -->
<g id="Node000010" class="node">
<title>Node10</title>
<g id="a_Node000010"><a xlink:title=" ">
<polygon fill="#e0e0e0" stroke="#999999" points="918.5,-74 743.5,-74 743.5,-55 918.5,-55 918.5,-74"/>
<text text-anchor="middle" x="831" y="-62" font-family="Helvetica,sans-Serif" font-size="10.00">RmlUi/Core/ElementDocument.h</text>
</a>
</g>
</g>
<!-- Node1&#45;&gt;Node10 -->
<g id="edge12_Node000001_Node000010" class="edge">
<title>Node1&#45;&gt;Node10</title>
<g id="a_edge12_Node000001_Node000010"><a xlink:title=" ">
<path fill="none" stroke="#63b8ff" d="M592.12,-110.73C647.87,-100.17 724.78,-85.61 776.11,-75.89"/>
<polygon fill="#63b8ff" stroke="#63b8ff" points="776.85,-79.31 786.02,-74.02 775.55,-72.44 776.85,-79.31"/>
</a>
</g>
</g>
<!-- Node11 -->
<g id="Node000011" class="node">
<title>Node11</title>
<g id="a_Node000011"><a xlink:title=" ">
<polygon fill="#e0e0e0" stroke="#999999" points="1041.5,-74 936.5,-74 936.5,-55 1041.5,-55 1041.5,-74"/>
<text text-anchor="middle" x="989" y="-62" font-family="Helvetica,sans-Serif" font-size="10.00">RmlUi/Debugger.h</text>
</a>
</g>
</g>
<!-- Node1&#45;&gt;Node11 -->
<g id="edge14_Node000001_Node000011" class="edge">
<title>Node1&#45;&gt;Node11</title>
<g id="a_edge14_Node000001_Node000011"><a xlink:title=" ">
<path fill="none" stroke="#63b8ff" d="M592.09,-115.71C670.92,-106.31 803.04,-90.33 926.43,-74.19"/>
<polygon fill="#63b8ff" stroke="#63b8ff" points="926.97,-77.65 936.43,-72.88 926.06,-70.71 926.97,-77.65"/>
</a>
</g>
</g>
<!-- Node12 -->
<g id="Node000012" class="node">
<title>Node12</title>
<g id="a_Node000012"><a xlink:href="LinkManager_8h.html" target="_top" xlink:title=" ">
<polygon fill="white" stroke="#666666" points="1148,-74 1060,-74 1060,-55 1148,-55 1148,-74"/>
<text text-anchor="middle" x="1104" y="-62" font-family="Helvetica,sans-Serif" font-size="10.00">LinkManager.h</text>
</a>
</g>
</g>
<!-- Node1&#45;&gt;Node12 -->
<g id="edge15_Node000001_Node000012" class="edge">
<title>Node1&#45;&gt;Node12</title>
<g id="a_edge15_Node000001_Node000012"><a xlink:title=" ">
<path fill="none" stroke="#63b8ff" d="M592.33,-118.81C691.85,-111.14 879.68,-95.48 1049.65,-74.1"/>
<polygon fill="#63b8ff" stroke="#63b8ff" points="1050.3,-77.54 1059.78,-72.81 1049.42,-70.6 1050.3,-77.54"/>
</a>
</g>
</g>
<!-- Node2&#45;&gt;Node3 -->
<g id="edge2_Node000002_Node000003" class="edge">
<title>Node2&#45;&gt;Node3</title>
<g id="a_edge2_Node000002_Node000003"><a xlink:title=" ">
<path fill="none" stroke="#63b8ff" d="M169.27,-54.98C148.24,-46.34 115.45,-32.87 91.46,-23.02"/>
<polygon fill="#63b8ff" stroke="#63b8ff" points="92.68,-19.73 82.1,-19.17 90.02,-26.21 92.68,-19.73"/>
</a>
</g>
</g>
<!-- Node2&#45;&gt;Node4 -->
<g id="edge3_Node000002_Node000004" class="edge">
<title>Node2&#45;&gt;Node4</title>
<g id="a_edge3_Node000002_Node000004"><a xlink:title=" ">
<path fill="none" stroke="#63b8ff" d="M190.83,-54.75C191.48,-47.8 192.42,-37.85 193.24,-29.13"/>
<polygon fill="#63b8ff" stroke="#63b8ff" points="196.73,-29.37 194.19,-19.09 189.77,-28.72 196.73,-29.37"/>
</a>
</g>
</g>
<!-- Node5 -->
<g id="Node000005" class="node">
<title>Node5</title>
<g id="a_Node000005"><a xlink:title=" ">
<polygon fill="#e0e0e0" stroke="#999999" points="397,-19 285,-19 285,0 397,0 397,-19"/>
<text text-anchor="middle" x="341" y="-7" font-family="Helvetica,sans-Serif" font-size="10.00">RmlUi/Core/Types.h</text>
</a>
</g>
</g>
<!-- Node2&#45;&gt;Node5 -->
<g id="edge4_Node000002_Node000005" class="edge">
<title>Node2&#45;&gt;Node5</title>
<g id="a_edge4_Node000002_Node000005"><a xlink:title=" ">
<path fill="none" stroke="#63b8ff" d="M214.26,-54.98C239.32,-46.19 278.63,-32.39 306.83,-22.49"/>
<polygon fill="#63b8ff" stroke="#63b8ff" points="308.02,-25.78 316.3,-19.17 305.7,-19.18 308.02,-25.78"/>
</a>
</g>
</g>
<!-- Node6&#45;&gt;Node5 -->
<g id="edge6_Node000006_Node000005" class="edge">
<title>Node6&#45;&gt;Node5</title>
<g id="a_edge6_Node000006_Node000005"><a xlink:title=" ">
<path fill="none" stroke="#63b8ff" d="M341,-54.75C341,-47.8 341,-37.85 341,-29.13"/>
<polygon fill="#63b8ff" stroke="#63b8ff" points="344.5,-29.09 341,-19.09 337.5,-29.09 344.5,-29.09"/>
</a>
</g>
</g>
<!-- Node7&#45;&gt;Node5 -->
<g id="edge9_Node000007_Node000005" class="edge">
<title>Node7&#45;&gt;Node5</title>
<g id="a_edge9_Node000007_Node000005"><a xlink:title=" ">
<path fill="none" stroke="#63b8ff" d="M492.92,-54.98C462.4,-46.05 414.24,-31.94 380.34,-22.02"/>
<polygon fill="#63b8ff" stroke="#63b8ff" points="380.89,-18.53 370.31,-19.08 378.92,-25.25 380.89,-18.53"/>
</a>
</g>
</g>
<!-- Node8 -->
<g id="Node000008" class="node">
<title>Node8</title>
<g id="a_Node000008"><a xlink:title=" ">
<polygon fill="#e0e0e0" stroke="#999999" points="594.5,-19 449.5,-19 449.5,0 594.5,0 594.5,-19"/>
<text text-anchor="middle" x="522" y="-7" font-family="Helvetica,sans-Serif" font-size="10.00">RmlUi/Core/FileInterface.h</text>
</a>
</g>
</g>
<!-- Node7&#45;&gt;Node8 -->
<g id="edge8_Node000007_Node000008" class="edge">
<title>Node7&#45;&gt;Node8</title>
<g id="a_edge8_Node000007_Node000008"><a xlink:title=" ">
<path fill="none" stroke="#63b8ff" d="M522,-54.75C522,-47.8 522,-37.85 522,-29.13"/>
<polygon fill="#63b8ff" stroke="#63b8ff" points="525.5,-29.09 522,-19.09 518.5,-29.09 525.5,-29.09"/>
</a>
</g>
</g>
</g>
</svg>
