<?xml version="1.0" encoding="UTF-8" standalone="no"?>
<!DOCTYPE svg PUBLIC "-//W3C//DTD SVG 1.1//EN"
 "http://www.w3.org/Graphics/SVG/1.1/DTD/svg11.dtd">
<!-- Generated by graphviz version 2.43.0 (0)
 -->
<!-- Title: Clipboard++/RmlUI/ViewModels/ShortCutsViewModel.h Pages: 1 -->
<svg width="948pt" height="258pt"
 viewBox="0.00 0.00 948.00 258.00" xmlns="http://www.w3.org/2000/svg" xmlns:xlink="http://www.w3.org/1999/xlink">
<g id="graph0" class="graph" transform="scale(1 1) rotate(0) translate(4 254)">
<title>Clipboard++/RmlUI/ViewModels/ShortCutsViewModel.h</title>
<!-- Node1 -->
<g id="Node000001" class="node">
<title>Node1</title>
<g id="a_Node000001"><a xlink:title=" ">
<polygon fill="#999999" stroke="#666666" points="613,-250 438,-250 438,-220 613,-220 613,-250"/>
<text text-anchor="start" x="446" y="-238" font-family="Helvetica,sans-Serif" font-size="10.00">Clipboard++/RmlUI/ViewModels</text>
<text text-anchor="middle" x="525.5" y="-227" font-family="Helvetica,sans-Serif" font-size="10.00">/ShortCutsViewModel.h</text>
</a>
</g>
</g>
<!-- Node2 -->
<g id="Node000002" class="node">
<title>Node2</title>
<g id="a_Node000002"><a xlink:href="ElementShortCuts_8h.html" target="_top" xlink:title=" ">
<polygon fill="white" stroke="#666666" points="266,-178.5 105,-178.5 105,-148.5 266,-148.5 266,-178.5"/>
<text text-anchor="start" x="113" y="-166.5" font-family="Helvetica,sans-Serif" font-size="10.00">Clipboard++/RmlUI/Elements</text>
<text text-anchor="middle" x="185.5" y="-155.5" font-family="Helvetica,sans-Serif" font-size="10.00">/ElementShortCuts.h</text>
</a>
</g>
</g>
<!-- Node1&#45;&gt;Node2 -->
<g id="edge1_Node000001_Node000002" class="edge">
<title>Node1&#45;&gt;Node2</title>
<g id="a_edge1_Node000001_Node000002"><a xlink:title=" ">
<path fill="none" stroke="#63b8ff" d="M446.8,-217.91C388.54,-206 309.94,-189.94 254.2,-178.54"/>
<polygon fill="#63b8ff" stroke="#63b8ff" points="446.2,-221.36 456.7,-219.94 447.6,-214.5 446.2,-221.36"/>
</a>
</g>
</g>
<!-- Node6 -->
<g id="Node000006" class="node">
<title>Node6</title>
<g id="a_Node000006"><a xlink:href="ExpandEvent_8h.html" target="_top" xlink:title=" ">
<polygon fill="white" stroke="#666666" points="497,-184 304,-184 304,-143 497,-143 497,-184"/>
<text text-anchor="start" x="312" y="-172" font-family="Helvetica,sans-Serif" font-size="10.00">Clipboard++/RmlUI/EventHandlers</text>
<text text-anchor="start" x="312" y="-161" font-family="Helvetica,sans-Serif" font-size="10.00">/Clipboard++Events/ShortCutsMenu</text>
<text text-anchor="middle" x="400.5" y="-150" font-family="Helvetica,sans-Serif" font-size="10.00">/ExpandEvent.h</text>
</a>
</g>
</g>
<!-- Node1&#45;&gt;Node6 -->
<g id="edge5_Node000001_Node000006" class="edge">
<title>Node1&#45;&gt;Node6</title>
<g id="a_edge5_Node000001_Node000006"><a xlink:title=" ">
<path fill="none" stroke="#63b8ff" d="M491.05,-214.85C473.83,-205.27 453.03,-193.71 435.7,-184.07"/>
<polygon fill="#63b8ff" stroke="#63b8ff" points="489.76,-218.14 500.2,-219.94 493.17,-212.02 489.76,-218.14"/>
</a>
</g>
</g>
<!-- Node8 -->
<g id="Node000008" class="node">
<title>Node8</title>
<g id="a_Node000008"><a xlink:href="EventManager_8cpp.html" target="_top" xlink:title=" ">
<polygon fill="white" stroke="#666666" points="639,-101.5 452,-101.5 452,-71.5 639,-71.5 639,-101.5"/>
<text text-anchor="start" x="460" y="-89.5" font-family="Helvetica,sans-Serif" font-size="10.00">Clipboard++/RmlUI/EventHandlers</text>
<text text-anchor="middle" x="545.5" y="-78.5" font-family="Helvetica,sans-Serif" font-size="10.00">/EventManager.cpp</text>
</a>
</g>
</g>
<!-- Node1&#45;&gt;Node8 -->
<g id="edge11_Node000001_Node000008" class="edge">
<title>Node1&#45;&gt;Node8</title>
<g id="a_edge11_Node000001_Node000008"><a xlink:title=" ">
<path fill="none" stroke="#63b8ff" d="M528.82,-209.65C533.03,-178.82 540.15,-126.72 543.56,-101.72"/>
<polygon fill="#63b8ff" stroke="#63b8ff" points="525.3,-209.57 527.42,-219.95 532.24,-210.52 525.3,-209.57"/>
</a>
</g>
</g>
<!-- Node9 -->
<g id="Node000009" class="node">
<title>Node9</title>
<g id="a_Node000009"><a xlink:href="SearchEvent_8h.html" target="_top" xlink:title=" ">
<polygon fill="white" stroke="#666666" points="747,-184 554,-184 554,-143 747,-143 747,-184"/>
<text text-anchor="start" x="562" y="-172" font-family="Helvetica,sans-Serif" font-size="10.00">Clipboard++/RmlUI/EventHandlers</text>
<text text-anchor="start" x="562" y="-161" font-family="Helvetica,sans-Serif" font-size="10.00">/Clipboard++Events/ShortCutsMenu</text>
<text text-anchor="middle" x="650.5" y="-150" font-family="Helvetica,sans-Serif" font-size="10.00">/SearchEvent.h</text>
</a>
</g>
</g>
<!-- Node1&#45;&gt;Node9 -->
<g id="edge8_Node000001_Node000009" class="edge">
<title>Node1&#45;&gt;Node9</title>
<g id="a_edge8_Node000001_Node000009"><a xlink:title=" ">
<path fill="none" stroke="#63b8ff" d="M559.95,-214.85C577.17,-205.27 597.97,-193.71 615.3,-184.07"/>
<polygon fill="#63b8ff" stroke="#63b8ff" points="557.83,-212.02 550.8,-219.94 561.24,-218.14 557.83,-212.02"/>
</a>
</g>
</g>
<!-- Node11 -->
<g id="Node000011" class="node">
<title>Node11</title>
<g id="a_Node000011"><a xlink:href="ShortCutsViewModel_8cpp.html" target="_top" xlink:title=" ">
<polygon fill="white" stroke="#666666" points="940,-178.5 765,-178.5 765,-148.5 940,-148.5 940,-178.5"/>
<text text-anchor="start" x="773" y="-166.5" font-family="Helvetica,sans-Serif" font-size="10.00">Clipboard++/RmlUI/ViewModels</text>
<text text-anchor="middle" x="852.5" y="-155.5" font-family="Helvetica,sans-Serif" font-size="10.00">/ShortCutsViewModel.cpp</text>
</a>
</g>
</g>
<!-- Node1&#45;&gt;Node11 -->
<g id="edge12_Node000001_Node000011" class="edge">
<title>Node1&#45;&gt;Node11</title>
<g id="a_edge12_Node000001_Node000011"><a xlink:title=" ">
<path fill="none" stroke="#63b8ff" d="M601.54,-217.84C657.54,-205.94 732.93,-189.91 786.43,-178.54"/>
<polygon fill="#63b8ff" stroke="#63b8ff" points="600.73,-214.43 591.67,-219.94 602.18,-221.28 600.73,-214.43"/>
</a>
</g>
</g>
<!-- Node3 -->
<g id="Node000003" class="node">
<title>Node3</title>
<g id="a_Node000003"><a xlink:href="ClipboardXX_8h.html" target="_top" xlink:title=" ">
<polygon fill="white" stroke="#666666" points="222.5,-96 70.5,-96 70.5,-77 222.5,-77 222.5,-96"/>
<text text-anchor="middle" x="146.5" y="-84" font-family="Helvetica,sans-Serif" font-size="10.00">Clipboard++/ClipboardXX.h</text>
</a>
</g>
</g>
<!-- Node2&#45;&gt;Node3 -->
<g id="edge2_Node000002_Node000003" class="edge">
<title>Node2&#45;&gt;Node3</title>
<g id="a_edge2_Node000002_Node000003"><a xlink:title=" ">
<path fill="none" stroke="#63b8ff" d="M173.51,-139.44C165.94,-124.89 156.59,-106.91 151.11,-96.37"/>
<polygon fill="#63b8ff" stroke="#63b8ff" points="170.45,-141.14 178.16,-148.39 176.66,-137.91 170.45,-141.14"/>
</a>
</g>
</g>
<!-- Node4 -->
<g id="Node000004" class="node">
<title>Node4</title>
<g id="a_Node000004"><a xlink:href="Clipboard_09_09_8cpp.html" target="_top" xlink:title=" ">
<polygon fill="white" stroke="#666666" points="129,-30 0,-30 0,0 129,0 129,-30"/>
<text text-anchor="start" x="8" y="-18" font-family="Helvetica,sans-Serif" font-size="10.00">Clipboard++/Clipboard</text>
<text text-anchor="middle" x="64.5" y="-7" font-family="Helvetica,sans-Serif" font-size="10.00">++.cpp</text>
</a>
</g>
</g>
<!-- Node3&#45;&gt;Node4 -->
<g id="edge3_Node000003_Node000004" class="edge">
<title>Node3&#45;&gt;Node4</title>
<g id="a_edge3_Node000003_Node000004"><a xlink:title=" ">
<path fill="none" stroke="#63b8ff" d="M128.46,-70.21C114.36,-58.26 94.92,-41.78 81.18,-30.14"/>
<polygon fill="#63b8ff" stroke="#63b8ff" points="126.55,-73.18 136.45,-76.98 131.08,-67.84 126.55,-73.18"/>
</a>
</g>
</g>
<!-- Node5 -->
<g id="Node000005" class="node">
<title>Node5</title>
<g id="a_Node000005"><a xlink:href="ClipboardXX_8cpp.html" target="_top" xlink:title=" ">
<polygon fill="white" stroke="#666666" points="310,-24.5 147,-24.5 147,-5.5 310,-5.5 310,-24.5"/>
<text text-anchor="middle" x="228.5" y="-12.5" font-family="Helvetica,sans-Serif" font-size="10.00">Clipboard++/ClipboardXX.cpp</text>
</a>
</g>
</g>
<!-- Node3&#45;&gt;Node5 -->
<g id="edge4_Node000003_Node000005" class="edge">
<title>Node3&#45;&gt;Node5</title>
<g id="a_edge4_Node000003_Node000005"><a xlink:title=" ">
<path fill="none" stroke="#63b8ff" d="M164.43,-70.3C180.96,-56.29 204.92,-35.99 218.36,-24.59"/>
<polygon fill="#63b8ff" stroke="#63b8ff" points="161.92,-67.84 156.55,-76.98 166.45,-73.18 161.92,-67.84"/>
</a>
</g>
</g>
<!-- Node7 -->
<g id="Node000007" class="node">
<title>Node7</title>
<g id="a_Node000007"><a xlink:href="ExpandEvent_8cpp.html" target="_top" xlink:title=" ">
<polygon fill="white" stroke="#666666" points="434,-107 241,-107 241,-66 434,-66 434,-107"/>
<text text-anchor="start" x="249" y="-95" font-family="Helvetica,sans-Serif" font-size="10.00">Clipboard++/RmlUI/EventHandlers</text>
<text text-anchor="start" x="249" y="-84" font-family="Helvetica,sans-Serif" font-size="10.00">/Clipboard++Events/ShortCutsMenu</text>
<text text-anchor="middle" x="337.5" y="-73" font-family="Helvetica,sans-Serif" font-size="10.00">/ExpandEvent.cpp</text>
</a>
</g>
</g>
<!-- Node6&#45;&gt;Node7 -->
<g id="edge6_Node000006_Node000007" class="edge">
<title>Node6&#45;&gt;Node7</title>
<g id="a_edge6_Node000006_Node000007"><a xlink:title=" ">
<path fill="none" stroke="#63b8ff" d="M377.36,-134.95C369.59,-125.7 361.09,-115.58 353.94,-107.07"/>
<polygon fill="#63b8ff" stroke="#63b8ff" points="374.84,-137.39 383.95,-142.79 380.2,-132.89 374.84,-137.39"/>
</a>
</g>
</g>
<!-- Node6&#45;&gt;Node8 -->
<g id="edge7_Node000006_Node000008" class="edge">
<title>Node6&#45;&gt;Node8</title>
<g id="a_edge7_Node000006_Node000008"><a xlink:title=" ">
<path fill="none" stroke="#63b8ff" d="M447.28,-138.3C470.65,-126.22 498.11,-112.01 518.05,-101.7"/>
<polygon fill="#63b8ff" stroke="#63b8ff" points="445.49,-135.29 438.22,-142.99 448.71,-141.5 445.49,-135.29"/>
</a>
</g>
</g>
<!-- Node9&#45;&gt;Node8 -->
<g id="edge10_Node000009_Node000008" class="edge">
<title>Node9&#45;&gt;Node8</title>
<g id="a_edge10_Node000009_Node000008"><a xlink:title=" ">
<path fill="none" stroke="#63b8ff" d="M614.82,-137.01C598.3,-125.22 579.31,-111.65 565.38,-101.7"/>
<polygon fill="#63b8ff" stroke="#63b8ff" points="613.01,-140.03 623.19,-142.99 617.08,-134.33 613.01,-140.03"/>
</a>
</g>
</g>
<!-- Node10 -->
<g id="Node000010" class="node">
<title>Node10</title>
<g id="a_Node000010"><a xlink:href="SearchEvent_8cpp.html" target="_top" xlink:title=" ">
<polygon fill="white" stroke="#666666" points="850,-107 657,-107 657,-66 850,-66 850,-107"/>
<text text-anchor="start" x="665" y="-95" font-family="Helvetica,sans-Serif" font-size="10.00">Clipboard++/RmlUI/EventHandlers</text>
<text text-anchor="start" x="665" y="-84" font-family="Helvetica,sans-Serif" font-size="10.00">/Clipboard++Events/ShortCutsMenu</text>
<text text-anchor="middle" x="753.5" y="-73" font-family="Helvetica,sans-Serif" font-size="10.00">/SearchEvent.cpp</text>
</a>
</g>
</g>
<!-- Node9&#45;&gt;Node10 -->
<g id="edge9_Node000009_Node000010" class="edge">
<title>Node9&#45;&gt;Node10</title>
<g id="a_edge9_Node000009_Node000010"><a xlink:title=" ">
<path fill="none" stroke="#63b8ff" d="M685.39,-137.09C698.81,-127.32 713.92,-116.32 726.48,-107.17"/>
<polygon fill="#63b8ff" stroke="#63b8ff" points="683.32,-134.27 677.29,-142.99 687.44,-139.93 683.32,-134.27"/>
</a>
</g>
</g>
</g>
</svg>
