<?xml version="1.0" encoding="UTF-8" standalone="no"?>
<!DOCTYPE svg PUBLIC "-//W3C//DTD SVG 1.1//EN"
 "http://www.w3.org/Graphics/SVG/1.1/DTD/svg11.dtd">
<!-- Generated by graphviz version 2.43.0 (0)
 -->
<!-- Title: Clipboard++/RmlUI/ViewModels/ShortCutsViewModel.h Pages: 1 -->
<svg width="364pt" height="313pt"
 viewBox="0.00 0.00 364.00 313.00" xmlns="http://www.w3.org/2000/svg" xmlns:xlink="http://www.w3.org/1999/xlink">
<g id="graph0" class="graph" transform="scale(1 1) rotate(0) translate(4 309)">
<title>Clipboard++/RmlUI/ViewModels/ShortCutsViewModel.h</title>
<!-- Node1 -->
<g id="Node000001" class="node">
<title>Node1</title>
<g id="a_Node000001"><a xlink:title=" ">
<polygon fill="#999999" stroke="#666666" points="284.5,-305 109.5,-305 109.5,-275 284.5,-275 284.5,-305"/>
<text text-anchor="start" x="117.5" y="-293" font-family="Helvetica,sans-Serif" font-size="10.00">Clipboard++/RmlUI/ViewModels</text>
<text text-anchor="middle" x="197" y="-282" font-family="Helvetica,sans-Serif" font-size="10.00">/ShortCutsViewModel.h</text>
</a>
</g>
</g>
<!-- Node2 -->
<g id="Node000002" class="node">
<title>Node2</title>
<g id="a_Node000002"><a xlink:href="ClipboardInterface_8h.html" target="_top" xlink:title=" ">
<polygon fill="white" stroke="#666666" points="116,-129 0,-129 0,-110 116,-110 116,-129"/>
<text text-anchor="middle" x="58" y="-117" font-family="Helvetica,sans-Serif" font-size="10.00">ClipboardInterface.h</text>
</a>
</g>
</g>
<!-- Node1&#45;&gt;Node2 -->
<g id="edge1_Node000001_Node000002" class="edge">
<title>Node1&#45;&gt;Node2</title>
<g id="a_edge1_Node000001_Node000002"><a xlink:title=" ">
<path fill="none" stroke="#63b8ff" d="M145.62,-274.92C126.06,-267.21 105.1,-255.72 91,-239 66.64,-210.12 60.19,-164.57 58.53,-139.18"/>
<polygon fill="#63b8ff" stroke="#63b8ff" points="62.02,-138.89 58.05,-129.06 55.03,-139.21 62.02,-138.89"/>
</a>
</g>
</g>
<!-- Node5 -->
<g id="Node000005" class="node">
<title>Node5</title>
<g id="a_Node000005"><a xlink:title=" ">
<polygon fill="#e0e0e0" stroke="#999999" points="341.5,-19 294.5,-19 294.5,0 341.5,0 341.5,-19"/>
<text text-anchor="middle" x="318" y="-7" font-family="Helvetica,sans-Serif" font-size="10.00">vector</text>
</a>
</g>
</g>
<!-- Node1&#45;&gt;Node5 -->
<g id="edge15_Node000001_Node000005" class="edge">
<title>Node1&#45;&gt;Node5</title>
<g id="a_edge15_Node000001_Node000005"><a xlink:title=" ">
<path fill="none" stroke="#63b8ff" d="M250.39,-274.95C296.58,-259.18 356,-228.58 356,-175.5 356,-175.5 356,-175.5 356,-118.5 356,-85.02 339.55,-48.84 328.3,-28.01"/>
<polygon fill="#63b8ff" stroke="#63b8ff" points="331.24,-26.1 323.28,-19.1 325.13,-29.53 331.24,-26.1"/>
</a>
</g>
</g>
<!-- Node7 -->
<g id="Node000007" class="node">
<title>Node7</title>
<g id="a_Node000007"><a xlink:href="MemoryCellManager_8h.html" target="_top" xlink:title=" ">
<polygon fill="white" stroke="#666666" points="294,-239 100,-239 100,-220 294,-220 294,-239"/>
<text text-anchor="middle" x="197" y="-227" font-family="Helvetica,sans-Serif" font-size="10.00">MemoryCells/MemoryCellManager.h</text>
</a>
</g>
</g>
<!-- Node1&#45;&gt;Node7 -->
<g id="edge7_Node000001_Node000007" class="edge">
<title>Node1&#45;&gt;Node7</title>
<g id="a_edge7_Node000001_Node000007"><a xlink:title=" ">
<path fill="none" stroke="#63b8ff" d="M197,-274.84C197,-267.21 197,-257.7 197,-249.45"/>
<polygon fill="#63b8ff" stroke="#63b8ff" points="200.5,-249.27 197,-239.27 193.5,-249.27 200.5,-249.27"/>
</a>
</g>
</g>
<!-- Node3 -->
<g id="Node000003" class="node">
<title>Node3</title>
<g id="a_Node000003"><a xlink:title=" ">
<polygon fill="#e0e0e0" stroke="#999999" points="85,-19 41,-19 41,0 85,0 85,-19"/>
<text text-anchor="middle" x="63" y="-7" font-family="Helvetica,sans-Serif" font-size="10.00">string</text>
</a>
</g>
</g>
<!-- Node2&#45;&gt;Node3 -->
<g id="edge2_Node000002_Node000003" class="edge">
<title>Node2&#45;&gt;Node3</title>
<g id="a_edge2_Node000002_Node000003"><a xlink:title=" ">
<path fill="none" stroke="#63b8ff" d="M58.41,-109.66C59.22,-92.17 61.04,-52.8 62.13,-29.27"/>
<polygon fill="#63b8ff" stroke="#63b8ff" points="65.63,-29.31 62.6,-19.16 58.64,-28.99 65.63,-29.31"/>
</a>
</g>
</g>
<!-- Node4 -->
<g id="Node000004" class="node">
<title>Node4</title>
<g id="a_Node000004"><a xlink:href="KeyShortCut_8h.html" target="_top" xlink:title=" ">
<polygon fill="white" stroke="#666666" points="240,-74 86,-74 86,-55 240,-55 240,-74"/>
<text text-anchor="middle" x="163" y="-62" font-family="Helvetica,sans-Serif" font-size="10.00">KeyShortCuts/KeyShortCut.h</text>
</a>
</g>
</g>
<!-- Node2&#45;&gt;Node4 -->
<g id="edge3_Node000002_Node000004" class="edge">
<title>Node2&#45;&gt;Node4</title>
<g id="a_edge3_Node000002_Node000004"><a xlink:title=" ">
<path fill="none" stroke="#63b8ff" d="M74.87,-109.98C91.61,-101.54 117.5,-88.47 136.89,-78.68"/>
<polygon fill="#63b8ff" stroke="#63b8ff" points="138.47,-81.8 145.82,-74.17 135.32,-75.55 138.47,-81.8"/>
</a>
</g>
</g>
<!-- Node4&#45;&gt;Node3 -->
<g id="edge5_Node000004_Node000003" class="edge">
<title>Node4&#45;&gt;Node3</title>
<g id="a_edge5_Node000004_Node000003"><a xlink:title=" ">
<path fill="none" stroke="#63b8ff" d="M146.93,-54.98C131.14,-46.61 106.78,-33.7 88.37,-23.95"/>
<polygon fill="#63b8ff" stroke="#63b8ff" points="89.83,-20.76 79.36,-19.17 86.56,-26.95 89.83,-20.76"/>
</a>
</g>
</g>
<!-- Node4&#45;&gt;Node5 -->
<g id="edge4_Node000004_Node000005" class="edge">
<title>Node4&#45;&gt;Node5</title>
<g id="a_edge4_Node000004_Node000005"><a xlink:title=" ">
<path fill="none" stroke="#63b8ff" d="M187.9,-54.98C214.16,-46.01 255.67,-31.81 284.72,-21.88"/>
<polygon fill="#63b8ff" stroke="#63b8ff" points="286.1,-25.11 294.43,-18.56 283.83,-18.48 286.1,-25.11"/>
</a>
</g>
</g>
<!-- Node6 -->
<g id="Node000006" class="node">
<title>Node6</title>
<g id="a_Node000006"><a xlink:title=" ">
<polygon fill="#e0e0e0" stroke="#999999" points="217.5,-19 108.5,-19 108.5,0 217.5,0 217.5,-19"/>
<text text-anchor="middle" x="163" y="-7" font-family="Helvetica,sans-Serif" font-size="10.00">RmlUi/Core/Input.h</text>
</a>
</g>
</g>
<!-- Node4&#45;&gt;Node6 -->
<g id="edge6_Node000004_Node000006" class="edge">
<title>Node4&#45;&gt;Node6</title>
<g id="a_edge6_Node000004_Node000006"><a xlink:title=" ">
<path fill="none" stroke="#63b8ff" d="M163,-54.75C163,-47.8 163,-37.85 163,-29.13"/>
<polygon fill="#63b8ff" stroke="#63b8ff" points="166.5,-29.09 163,-19.09 159.5,-29.09 166.5,-29.09"/>
</a>
</g>
</g>
<!-- Node7&#45;&gt;Node2 -->
<g id="edge8_Node000007_Node000002" class="edge">
<title>Node7&#45;&gt;Node2</title>
<g id="a_edge8_Node000007_Node000002"><a xlink:title=" ">
<path fill="none" stroke="#63b8ff" d="M163.71,-219.85C142.19,-212.94 114.63,-201.47 95,-184 81.03,-171.56 70.92,-152.54 64.84,-138.56"/>
<polygon fill="#63b8ff" stroke="#63b8ff" points="67.98,-136.99 60.97,-129.04 61.49,-139.62 67.98,-136.99"/>
</a>
</g>
</g>
<!-- Node7&#45;&gt;Node5 -->
<g id="edge13_Node000007_Node000005" class="edge">
<title>Node7&#45;&gt;Node5</title>
<g id="a_edge13_Node000007_Node000005"><a xlink:title=" ">
<path fill="none" stroke="#63b8ff" d="M241.14,-219.98C261.99,-213.62 285.26,-202.68 299,-184 333.36,-137.29 326.97,-63.46 321.55,-29.16"/>
<polygon fill="#63b8ff" stroke="#63b8ff" points="324.97,-28.39 319.81,-19.14 318.07,-29.59 324.97,-28.39"/>
</a>
</g>
</g>
<!-- Node8 -->
<g id="Node000008" class="node">
<title>Node8</title>
<g id="a_Node000008"><a xlink:href="ClipboardAdapter_8h.html" target="_top" xlink:title=" ">
<polygon fill="white" stroke="#666666" points="214,-184 104,-184 104,-165 214,-165 214,-184"/>
<text text-anchor="middle" x="159" y="-172" font-family="Helvetica,sans-Serif" font-size="10.00">ClipboardAdapter.h</text>
</a>
</g>
</g>
<!-- Node7&#45;&gt;Node8 -->
<g id="edge9_Node000007_Node000008" class="edge">
<title>Node7&#45;&gt;Node8</title>
<g id="a_edge9_Node000007_Node000008"><a xlink:title=" ">
<path fill="none" stroke="#63b8ff" d="M190.73,-219.75C185.41,-212.34 177.64,-201.5 171.12,-192.41"/>
<polygon fill="#63b8ff" stroke="#63b8ff" points="173.83,-190.18 165.16,-184.09 168.14,-194.26 173.83,-190.18"/>
</a>
</g>
</g>
<!-- Node11 -->
<g id="Node000011" class="node">
<title>Node11</title>
<g id="a_Node000011"><a xlink:title=" ">
<polygon fill="#e0e0e0" stroke="#999999" points="290,-184 232,-184 232,-165 290,-165 290,-184"/>
<text text-anchor="middle" x="261" y="-172" font-family="Helvetica,sans-Serif" font-size="10.00">memory</text>
</a>
</g>
</g>
<!-- Node7&#45;&gt;Node11 -->
<g id="edge14_Node000007_Node000011" class="edge">
<title>Node7&#45;&gt;Node11</title>
<g id="a_edge14_Node000007_Node000011"><a xlink:title=" ">
<path fill="none" stroke="#63b8ff" d="M207.28,-219.98C216.84,-212.07 231.28,-200.11 242.78,-190.58"/>
<polygon fill="#63b8ff" stroke="#63b8ff" points="245.06,-193.24 250.53,-184.17 240.6,-187.85 245.06,-193.24"/>
</a>
</g>
</g>
<!-- Node8&#45;&gt;Node2 -->
<g id="edge10_Node000008_Node000002" class="edge">
<title>Node8&#45;&gt;Node2</title>
<g id="a_edge10_Node000008_Node000002"><a xlink:title=" ">
<path fill="none" stroke="#63b8ff" d="M142.77,-164.98C126.82,-156.61 102.22,-143.7 83.62,-133.95"/>
<polygon fill="#63b8ff" stroke="#63b8ff" points="85,-130.72 74.52,-129.17 81.75,-136.92 85,-130.72"/>
</a>
</g>
</g>
<!-- Node9 -->
<g id="Node000009" class="node">
<title>Node9</title>
<g id="a_Node000009"><a xlink:title=" ">
<polygon fill="#e0e0e0" stroke="#999999" points="205.5,-129 134.5,-129 134.5,-110 205.5,-110 205.5,-129"/>
<text text-anchor="middle" x="170" y="-117" font-family="Helvetica,sans-Serif" font-size="10.00">QClipboard</text>
</a>
</g>
</g>
<!-- Node8&#45;&gt;Node9 -->
<g id="edge11_Node000008_Node000009" class="edge">
<title>Node8&#45;&gt;Node9</title>
<g id="a_edge11_Node000008_Node000009"><a xlink:title=" ">
<path fill="none" stroke="#63b8ff" d="M160.82,-164.75C162.26,-157.8 164.32,-147.85 166.13,-139.13"/>
<polygon fill="#63b8ff" stroke="#63b8ff" points="169.61,-139.59 168.22,-129.09 162.76,-138.17 169.61,-139.59"/>
</a>
</g>
</g>
<!-- Node10 -->
<g id="Node000010" class="node">
<title>Node10</title>
<g id="a_Node000010"><a xlink:title=" ">
<polygon fill="#e0e0e0" stroke="#999999" points="280,-129 224,-129 224,-110 280,-110 280,-129"/>
<text text-anchor="middle" x="252" y="-117" font-family="Helvetica,sans-Serif" font-size="10.00">QObject</text>
</a>
</g>
</g>
<!-- Node8&#45;&gt;Node10 -->
<g id="edge12_Node000008_Node000010" class="edge">
<title>Node8&#45;&gt;Node10</title>
<g id="a_edge12_Node000008_Node000010"><a xlink:title=" ">
<path fill="none" stroke="#63b8ff" d="M173.94,-164.98C188.5,-156.69 210.87,-143.94 227.93,-134.22"/>
<polygon fill="#63b8ff" stroke="#63b8ff" points="229.83,-137.16 236.79,-129.17 226.36,-131.08 229.83,-137.16"/>
</a>
</g>
</g>
</g>
</svg>
