<?xml version="1.0" encoding="UTF-8" standalone="no"?>
<!DOCTYPE svg PUBLIC "-//W3C//DTD SVG 1.1//EN"
 "http://www.w3.org/Graphics/SVG/1.1/DTD/svg11.dtd">
<!-- Generated by graphviz version 2.43.0 (0)
 -->
<!-- Title: Clipboard++/RmlUI/EventHandlers/Clipboard++Events/Main/SlotEvent.cpp Pages: 1 -->
<svg width="673pt" height="379pt"
 viewBox="0.00 0.00 673.00 379.00" xmlns="http://www.w3.org/2000/svg" xmlns:xlink="http://www.w3.org/1999/xlink">
<g id="graph0" class="graph" transform="scale(1 1) rotate(0) translate(4 375)">
<title>Clipboard++/RmlUI/EventHandlers/Clipboard++Events/Main/SlotEvent.cpp</title>
<!-- Node1 -->
<g id="Node000001" class="node">
<title>Node1</title>
<g id="a_Node000001"><a xlink:title=" ">
<polygon fill="#999999" stroke="#666666" points="451.5,-371 239.5,-371 239.5,-341 451.5,-341 451.5,-371"/>
<text text-anchor="start" x="247.5" y="-359" font-family="Helvetica,sans-Serif" font-size="10.00">Clipboard++/RmlUI/EventHandlers</text>
<text text-anchor="middle" x="345.5" y="-348" font-family="Helvetica,sans-Serif" font-size="10.00">/Clipboard++Events/Main/SlotEvent.cpp</text>
</a>
</g>
</g>
<!-- Node2 -->
<g id="Node000002" class="node">
<title>Node2</title>
<g id="a_Node000002"><a xlink:href="SlotEvent_8h.html" target="_top" xlink:title=" ">
<polygon fill="white" stroke="#666666" points="381.5,-305 309.5,-305 309.5,-286 381.5,-286 381.5,-305"/>
<text text-anchor="middle" x="345.5" y="-293" font-family="Helvetica,sans-Serif" font-size="10.00">SlotEvent.h</text>
</a>
</g>
</g>
<!-- Node1&#45;&gt;Node2 -->
<g id="edge1_Node000001_Node000002" class="edge">
<title>Node1&#45;&gt;Node2</title>
<g id="a_edge1_Node000001_Node000002"><a xlink:title=" ">
<path fill="none" stroke="#63b8ff" d="M345.5,-340.84C345.5,-333.21 345.5,-323.7 345.5,-315.45"/>
<polygon fill="#63b8ff" stroke="#63b8ff" points="349,-315.27 345.5,-305.27 342,-315.27 349,-315.27"/>
</a>
</g>
</g>
<!-- Node3 -->
<g id="Node000003" class="node">
<title>Node3</title>
<g id="a_Node000003"><a xlink:href="MemoryCellManager_8h.html" target="_top" xlink:title=" ">
<polygon fill="white" stroke="#666666" points="342.5,-250 204.5,-250 204.5,-220 342.5,-220 342.5,-250"/>
<text text-anchor="start" x="212.5" y="-238" font-family="Helvetica,sans-Serif" font-size="10.00">QClipboard/MemoryCells</text>
<text text-anchor="middle" x="273.5" y="-227" font-family="Helvetica,sans-Serif" font-size="10.00">/MemoryCellManager.h</text>
</a>
</g>
</g>
<!-- Node2&#45;&gt;Node3 -->
<g id="edge2_Node000002_Node000003" class="edge">
<title>Node2&#45;&gt;Node3</title>
<g id="a_edge2_Node000002_Node000003"><a xlink:title=" ">
<path fill="none" stroke="#63b8ff" d="M334.88,-285.87C325.38,-278.15 311.08,-266.54 298.68,-256.46"/>
<polygon fill="#63b8ff" stroke="#63b8ff" points="300.84,-253.7 290.87,-250.11 296.43,-259.14 300.84,-253.7"/>
</a>
</g>
</g>
<!-- Node13 -->
<g id="Node000013" class="node">
<title>Node13</title>
<g id="a_Node000013"><a xlink:href="Clipboard_09_09Event_8h.html" target="_top" xlink:title=" ">
<polygon fill="white" stroke="#666666" points="476.5,-244.5 360.5,-244.5 360.5,-225.5 476.5,-225.5 476.5,-244.5"/>
<text text-anchor="middle" x="418.5" y="-232.5" font-family="Helvetica,sans-Serif" font-size="10.00">Clipboard++Event.h</text>
</a>
</g>
</g>
<!-- Node2&#45;&gt;Node13 -->
<g id="edge15_Node000002_Node000013" class="edge">
<title>Node2&#45;&gt;Node13</title>
<g id="a_edge15_Node000002_Node000013"><a xlink:title=" ">
<path fill="none" stroke="#63b8ff" d="M356.27,-285.87C367.7,-276.71 385.98,-262.06 399.78,-251.01"/>
<polygon fill="#63b8ff" stroke="#63b8ff" points="402.07,-253.65 407.68,-244.67 397.69,-248.19 402.07,-253.65"/>
</a>
</g>
</g>
<!-- Node4 -->
<g id="Node000004" class="node">
<title>Node4</title>
<g id="a_Node000004"><a xlink:href="ClipboardInterface_8h.html" target="_top" xlink:title=" ">
<polygon fill="white" stroke="#666666" points="279.5,-129 163.5,-129 163.5,-110 279.5,-110 279.5,-129"/>
<text text-anchor="middle" x="221.5" y="-117" font-family="Helvetica,sans-Serif" font-size="10.00">ClipboardInterface.h</text>
</a>
</g>
</g>
<!-- Node3&#45;&gt;Node4 -->
<g id="edge3_Node000003_Node000004" class="edge">
<title>Node3&#45;&gt;Node4</title>
<g id="a_edge3_Node000003_Node000004"><a xlink:title=" ">
<path fill="none" stroke="#63b8ff" d="M272.11,-219.9C270.27,-205.5 266.18,-182.79 257.5,-165 252.45,-154.66 244.61,-144.57 237.53,-136.62"/>
<polygon fill="#63b8ff" stroke="#63b8ff" points="239.96,-134.1 230.58,-129.19 234.85,-138.88 239.96,-134.1"/>
</a>
</g>
</g>
<!-- Node7 -->
<g id="Node000007" class="node">
<title>Node7</title>
<g id="a_Node000007"><a xlink:title=" ">
<polygon fill="#e0e0e0" stroke="#999999" points="345,-19 298,-19 298,0 345,0 345,-19"/>
<text text-anchor="middle" x="321.5" y="-7" font-family="Helvetica,sans-Serif" font-size="10.00">vector</text>
</a>
</g>
</g>
<!-- Node3&#45;&gt;Node7 -->
<g id="edge13_Node000003_Node000007" class="edge">
<title>Node3&#45;&gt;Node7</title>
<g id="a_edge13_Node000003_Node000007"><a xlink:title=" ">
<path fill="none" stroke="#63b8ff" d="M276.58,-219.68C284.95,-180.68 308.16,-72.61 317.52,-29.05"/>
<polygon fill="#63b8ff" stroke="#63b8ff" points="320.95,-29.74 319.62,-19.23 314.1,-28.27 320.95,-29.74"/>
</a>
</g>
</g>
<!-- Node9 -->
<g id="Node000009" class="node">
<title>Node9</title>
<g id="a_Node000009"><a xlink:href="ClipboardAdapter_8h.html" target="_top" xlink:title=" ">
<polygon fill="white" stroke="#666666" points="172.5,-184 62.5,-184 62.5,-165 172.5,-165 172.5,-184"/>
<text text-anchor="middle" x="117.5" y="-172" font-family="Helvetica,sans-Serif" font-size="10.00">ClipboardAdapter.h</text>
</a>
</g>
</g>
<!-- Node3&#45;&gt;Node9 -->
<g id="edge9_Node000003_Node000009" class="edge">
<title>Node3&#45;&gt;Node9</title>
<g id="a_edge9_Node000003_Node000009"><a xlink:title=" ">
<path fill="none" stroke="#63b8ff" d="M236.13,-219.99C209.87,-210.14 175.09,-197.1 149.98,-187.68"/>
<polygon fill="#63b8ff" stroke="#63b8ff" points="151.13,-184.37 140.54,-184.14 148.67,-190.93 151.13,-184.37"/>
</a>
</g>
</g>
<!-- Node12 -->
<g id="Node000012" class="node">
<title>Node12</title>
<g id="a_Node000012"><a xlink:title=" ">
<polygon fill="#e0e0e0" stroke="#999999" points="248.5,-184 190.5,-184 190.5,-165 248.5,-165 248.5,-184"/>
<text text-anchor="middle" x="219.5" y="-172" font-family="Helvetica,sans-Serif" font-size="10.00">memory</text>
</a>
</g>
</g>
<!-- Node3&#45;&gt;Node12 -->
<g id="edge14_Node000003_Node000012" class="edge">
<title>Node3&#45;&gt;Node12</title>
<g id="a_edge14_Node000003_Node000012"><a xlink:title=" ">
<path fill="none" stroke="#63b8ff" d="M260.43,-219.84C252.59,-211.35 242.59,-200.52 234.44,-191.69"/>
<polygon fill="#63b8ff" stroke="#63b8ff" points="236.95,-189.24 227.59,-184.27 231.8,-193.99 236.95,-189.24"/>
</a>
</g>
</g>
<!-- Node5 -->
<g id="Node000005" class="node">
<title>Node5</title>
<g id="a_Node000005"><a xlink:title=" ">
<polygon fill="#e0e0e0" stroke="#999999" points="143.5,-19 99.5,-19 99.5,0 143.5,0 143.5,-19"/>
<text text-anchor="middle" x="121.5" y="-7" font-family="Helvetica,sans-Serif" font-size="10.00">string</text>
</a>
</g>
</g>
<!-- Node4&#45;&gt;Node5 -->
<g id="edge4_Node000004_Node000005" class="edge">
<title>Node4&#45;&gt;Node5</title>
<g id="a_edge4_Node000004_Node000005"><a xlink:title=" ">
<path fill="none" stroke="#63b8ff" d="M190.87,-109.98C172.14,-103.22 149.22,-91.86 135.5,-74 125.72,-61.27 122.49,-43.09 121.54,-29.45"/>
<polygon fill="#63b8ff" stroke="#63b8ff" points="125.03,-29.14 121.2,-19.27 118.04,-29.38 125.03,-29.14"/>
</a>
</g>
</g>
<!-- Node6 -->
<g id="Node000006" class="node">
<title>Node6</title>
<g id="a_Node000006"><a xlink:href="KeyShortCut_8h.html" target="_top" xlink:title=" ">
<polygon fill="white" stroke="#666666" points="298.5,-74 144.5,-74 144.5,-55 298.5,-55 298.5,-74"/>
<text text-anchor="middle" x="221.5" y="-62" font-family="Helvetica,sans-Serif" font-size="10.00">KeyShortCuts/KeyShortCut.h</text>
</a>
</g>
</g>
<!-- Node4&#45;&gt;Node6 -->
<g id="edge5_Node000004_Node000006" class="edge">
<title>Node4&#45;&gt;Node6</title>
<g id="a_edge5_Node000004_Node000006"><a xlink:title=" ">
<path fill="none" stroke="#63b8ff" d="M221.5,-109.75C221.5,-102.8 221.5,-92.85 221.5,-84.13"/>
<polygon fill="#63b8ff" stroke="#63b8ff" points="225,-84.09 221.5,-74.09 218,-84.09 225,-84.09"/>
</a>
</g>
</g>
<!-- Node6&#45;&gt;Node5 -->
<g id="edge7_Node000006_Node000005" class="edge">
<title>Node6&#45;&gt;Node5</title>
<g id="a_edge7_Node000006_Node000005"><a xlink:title=" ">
<path fill="none" stroke="#63b8ff" d="M205.43,-54.98C189.64,-46.61 165.28,-33.7 146.87,-23.95"/>
<polygon fill="#63b8ff" stroke="#63b8ff" points="148.33,-20.76 137.86,-19.17 145.06,-26.95 148.33,-20.76"/>
</a>
</g>
</g>
<!-- Node6&#45;&gt;Node7 -->
<g id="edge6_Node000006_Node000007" class="edge">
<title>Node6&#45;&gt;Node7</title>
<g id="a_edge6_Node000006_Node000007"><a xlink:title=" ">
<path fill="none" stroke="#63b8ff" d="M237.57,-54.98C253.36,-46.61 277.72,-33.7 296.13,-23.95"/>
<polygon fill="#63b8ff" stroke="#63b8ff" points="297.94,-26.95 305.14,-19.17 294.67,-20.76 297.94,-26.95"/>
</a>
</g>
</g>
<!-- Node8 -->
<g id="Node000008" class="node">
<title>Node8</title>
<g id="a_Node000008"><a xlink:title=" ">
<polygon fill="#e0e0e0" stroke="#999999" points="276,-19 167,-19 167,0 276,0 276,-19"/>
<text text-anchor="middle" x="221.5" y="-7" font-family="Helvetica,sans-Serif" font-size="10.00">RmlUi/Core/Input.h</text>
</a>
</g>
</g>
<!-- Node6&#45;&gt;Node8 -->
<g id="edge8_Node000006_Node000008" class="edge">
<title>Node6&#45;&gt;Node8</title>
<g id="a_edge8_Node000006_Node000008"><a xlink:title=" ">
<path fill="none" stroke="#63b8ff" d="M221.5,-54.75C221.5,-47.8 221.5,-37.85 221.5,-29.13"/>
<polygon fill="#63b8ff" stroke="#63b8ff" points="225,-29.09 221.5,-19.09 218,-29.09 225,-29.09"/>
</a>
</g>
</g>
<!-- Node9&#45;&gt;Node4 -->
<g id="edge10_Node000009_Node000004" class="edge">
<title>Node9&#45;&gt;Node4</title>
<g id="a_edge10_Node000009_Node000004"><a xlink:title=" ">
<path fill="none" stroke="#63b8ff" d="M134.21,-164.98C150.71,-156.57 176.2,-143.59 195.38,-133.81"/>
<polygon fill="#63b8ff" stroke="#63b8ff" points="197.17,-136.83 204.49,-129.17 193.99,-130.59 197.17,-136.83"/>
</a>
</g>
</g>
<!-- Node10 -->
<g id="Node000010" class="node">
<title>Node10</title>
<g id="a_Node000010"><a xlink:title=" ">
<polygon fill="#e0e0e0" stroke="#999999" points="71,-129 0,-129 0,-110 71,-110 71,-129"/>
<text text-anchor="middle" x="35.5" y="-117" font-family="Helvetica,sans-Serif" font-size="10.00">QClipboard</text>
</a>
</g>
</g>
<!-- Node9&#45;&gt;Node10 -->
<g id="edge11_Node000009_Node000010" class="edge">
<title>Node9&#45;&gt;Node10</title>
<g id="a_edge11_Node000009_Node000010"><a xlink:title=" ">
<path fill="none" stroke="#63b8ff" d="M104.33,-164.98C91.73,-156.84 72.5,-144.41 57.56,-134.76"/>
<polygon fill="#63b8ff" stroke="#63b8ff" points="59.21,-131.66 48.91,-129.17 55.41,-137.54 59.21,-131.66"/>
</a>
</g>
</g>
<!-- Node11 -->
<g id="Node000011" class="node">
<title>Node11</title>
<g id="a_Node000011"><a xlink:title=" ">
<polygon fill="#e0e0e0" stroke="#999999" points="145.5,-129 89.5,-129 89.5,-110 145.5,-110 145.5,-129"/>
<text text-anchor="middle" x="117.5" y="-117" font-family="Helvetica,sans-Serif" font-size="10.00">QObject</text>
</a>
</g>
</g>
<!-- Node9&#45;&gt;Node11 -->
<g id="edge12_Node000009_Node000011" class="edge">
<title>Node9&#45;&gt;Node11</title>
<g id="a_edge12_Node000009_Node000011"><a xlink:title=" ">
<path fill="none" stroke="#63b8ff" d="M117.5,-164.75C117.5,-157.8 117.5,-147.85 117.5,-139.13"/>
<polygon fill="#63b8ff" stroke="#63b8ff" points="121,-139.09 117.5,-129.09 114,-139.09 121,-139.09"/>
</a>
</g>
</g>
<!-- Node14 -->
<g id="Node000014" class="node">
<title>Node14</title>
<g id="a_Node000014"><a xlink:title=" ">
<polygon fill="#e0e0e0" stroke="#999999" points="471.5,-184 359.5,-184 359.5,-165 471.5,-165 471.5,-184"/>
<text text-anchor="middle" x="415.5" y="-172" font-family="Helvetica,sans-Serif" font-size="10.00">RmlUi/Core/Types.h</text>
</a>
</g>
</g>
<!-- Node13&#45;&gt;Node14 -->
<g id="edge16_Node000013_Node000014" class="edge">
<title>Node13&#45;&gt;Node14</title>
<g id="a_edge16_Node000013_Node000014"><a xlink:title=" ">
<path fill="none" stroke="#63b8ff" d="M418.06,-225.37C417.64,-217.25 417,-204.81 416.47,-194.39"/>
<polygon fill="#63b8ff" stroke="#63b8ff" points="419.95,-193.97 415.94,-184.17 412.96,-194.33 419.95,-193.97"/>
</a>
</g>
</g>
<!-- Node15 -->
<g id="Node000015" class="node">
<title>Node15</title>
<g id="a_Node000015"><a xlink:title=" ">
<polygon fill="#e0e0e0" stroke="#999999" points="665,-184 490,-184 490,-165 665,-165 665,-184"/>
<text text-anchor="middle" x="577.5" y="-172" font-family="Helvetica,sans-Serif" font-size="10.00">RmlUi/Core/ElementDocument.h</text>
</a>
</g>
</g>
<!-- Node13&#45;&gt;Node15 -->
<g id="edge17_Node000013_Node000015" class="edge">
<title>Node13&#45;&gt;Node15</title>
<g id="a_edge17_Node000013_Node000015"><a xlink:title=" ">
<path fill="none" stroke="#63b8ff" d="M441.62,-225.49C468.82,-215.49 514.17,-198.8 544.92,-187.49"/>
<polygon fill="#63b8ff" stroke="#63b8ff" points="546.18,-190.75 554.35,-184.02 543.76,-184.18 546.18,-190.75"/>
</a>
</g>
</g>
</g>
</svg>
