<?xml version="1.0" encoding="UTF-8" standalone="no"?>
<!DOCTYPE svg PUBLIC "-//W3C//DTD SVG 1.1//EN"
 "http://www.w3.org/Graphics/SVG/1.1/DTD/svg11.dtd">
<!-- Generated by graphviz version 2.43.0 (0)
 -->
<!-- Title: Clipboard++/Utils/StringUtils.h Pages: 1 -->
<svg width="1799pt" height="192pt"
 viewBox="0.00 0.00 1798.50 192.00" xmlns="http://www.w3.org/2000/svg" xmlns:xlink="http://www.w3.org/1999/xlink">
<g id="graph0" class="graph" transform="scale(1 1) rotate(0) translate(4 188)">
<title>Clipboard++/Utils/StringUtils.h</title>
<!-- Node1 -->
<g id="Node000001" class="node">
<title>Node1</title>
<g id="a_Node000001"><a xlink:title=" ">
<polygon fill="#999999" stroke="#666666" points="1154.5,-184 1017.5,-184 1017.5,-154 1154.5,-154 1154.5,-184"/>
<text text-anchor="start" x="1025.5" y="-172" font-family="Helvetica,sans-Serif" font-size="10.00">Clipboard++/Utils/String</text>
<text text-anchor="middle" x="1086" y="-161" font-family="Helvetica,sans-Serif" font-size="10.00">Utils.h</text>
</a>
</g>
</g>
<!-- Node2 -->
<g id="Node000002" class="node">
<title>Node2</title>
<g id="a_Node000002"><a xlink:href="KeyShortCut_8cpp.html" target="_top" xlink:title=" ">
<polygon fill="white" stroke="#666666" points="168,-112.5 0,-112.5 0,-82.5 168,-82.5 168,-112.5"/>
<text text-anchor="start" x="8" y="-100.5" font-family="Helvetica,sans-Serif" font-size="10.00">Clipboard++/QClipboard</text>
<text text-anchor="middle" x="84" y="-89.5" font-family="Helvetica,sans-Serif" font-size="10.00">/KeyShortCuts/KeyShortCut.cpp</text>
</a>
</g>
</g>
<!-- Node1&#45;&gt;Node2 -->
<g id="edge1_Node000001_Node000002" class="edge">
<title>Node1&#45;&gt;Node2</title>
<g id="a_edge1_Node000001_Node000002"><a xlink:title=" ">
<path fill="none" stroke="#63b8ff" d="M1007.14,-167.68C849,-166.15 482.13,-158.15 177,-118 166.37,-116.6 155.14,-114.66 144.3,-112.53"/>
<polygon fill="#63b8ff" stroke="#63b8ff" points="1007.22,-171.18 1017.25,-167.77 1007.29,-164.18 1007.22,-171.18"/>
</a>
</g>
</g>
<!-- Node3 -->
<g id="Node000003" class="node">
<title>Node3</title>
<g id="a_Node000003"><a xlink:href="KeyShortCutManager_8cpp.html" target="_top" xlink:title=" ">
<polygon fill="white" stroke="#666666" points="396,-112.5 186,-112.5 186,-82.5 396,-82.5 396,-112.5"/>
<text text-anchor="start" x="194" y="-100.5" font-family="Helvetica,sans-Serif" font-size="10.00">Clipboard++/QClipboard</text>
<text text-anchor="middle" x="291" y="-89.5" font-family="Helvetica,sans-Serif" font-size="10.00">/KeyShortCuts/KeyShortCutManager.cpp</text>
</a>
</g>
</g>
<!-- Node1&#45;&gt;Node3 -->
<g id="edge2_Node000001_Node000003" class="edge">
<title>Node1&#45;&gt;Node3</title>
<g id="a_edge2_Node000001_Node000003"><a xlink:title=" ">
<path fill="none" stroke="#63b8ff" d="M1007.12,-164.67C880.01,-158.76 622.12,-144.48 405,-118 392.64,-116.49 379.58,-114.57 366.89,-112.53"/>
<polygon fill="#63b8ff" stroke="#63b8ff" points="1007.01,-168.17 1017.16,-165.14 1007.33,-161.18 1007.01,-168.17"/>
</a>
</g>
</g>
<!-- Node4 -->
<g id="Node000004" class="node">
<title>Node4</title>
<g id="a_Node000004"><a xlink:href="ElementClipboard_8cpp.html" target="_top" xlink:title=" ">
<polygon fill="white" stroke="#666666" points="575.5,-112.5 414.5,-112.5 414.5,-82.5 575.5,-82.5 575.5,-112.5"/>
<text text-anchor="start" x="422.5" y="-100.5" font-family="Helvetica,sans-Serif" font-size="10.00">Clipboard++/RmlUI/Elements</text>
<text text-anchor="middle" x="495" y="-89.5" font-family="Helvetica,sans-Serif" font-size="10.00">/ElementClipboard.cpp</text>
</a>
</g>
</g>
<!-- Node1&#45;&gt;Node4 -->
<g id="edge3_Node000001_Node000004" class="edge">
<title>Node1&#45;&gt;Node4</title>
<g id="a_edge3_Node000001_Node000004"><a xlink:title=" ">
<path fill="none" stroke="#63b8ff" d="M1007.23,-163C908.08,-156.06 732.71,-141.61 584,-118 574.47,-116.49 564.43,-114.59 554.66,-112.57"/>
<polygon fill="#63b8ff" stroke="#63b8ff" points="1007.25,-166.51 1017.47,-163.71 1007.74,-159.53 1007.25,-166.51"/>
</a>
</g>
</g>
<!-- Node5 -->
<g id="Node000005" class="node">
<title>Node5</title>
<g id="a_Node000005"><a xlink:href="ElementEdit_8cpp.html" target="_top" xlink:title=" ">
<polygon fill="white" stroke="#666666" points="754.5,-112.5 593.5,-112.5 593.5,-82.5 754.5,-82.5 754.5,-112.5"/>
<text text-anchor="start" x="601.5" y="-100.5" font-family="Helvetica,sans-Serif" font-size="10.00">Clipboard++/RmlUI/Elements</text>
<text text-anchor="middle" x="674" y="-89.5" font-family="Helvetica,sans-Serif" font-size="10.00">/ElementEdit.cpp</text>
</a>
</g>
</g>
<!-- Node1&#45;&gt;Node5 -->
<g id="edge4_Node000001_Node000005" class="edge">
<title>Node1&#45;&gt;Node5</title>
<g id="a_edge4_Node000001_Node000005"><a xlink:title=" ">
<path fill="none" stroke="#63b8ff" d="M1007.17,-157.19C941.63,-147.87 845.99,-133.5 763,-118 754.14,-116.34 744.81,-114.46 735.66,-112.53"/>
<polygon fill="#63b8ff" stroke="#63b8ff" points="1007.03,-160.71 1017.42,-158.64 1008.01,-153.78 1007.03,-160.71"/>
</a>
</g>
</g>
<!-- Node6 -->
<g id="Node000006" class="node">
<title>Node6</title>
<g id="a_Node000006"><a xlink:href="ElementFileManager_8cpp.html" target="_top" xlink:title=" ">
<polygon fill="white" stroke="#666666" points="933.5,-112.5 772.5,-112.5 772.5,-82.5 933.5,-82.5 933.5,-112.5"/>
<text text-anchor="start" x="780.5" y="-100.5" font-family="Helvetica,sans-Serif" font-size="10.00">Clipboard++/RmlUI/Elements</text>
<text text-anchor="middle" x="853" y="-89.5" font-family="Helvetica,sans-Serif" font-size="10.00">/ElementFileManager.cpp</text>
</a>
</g>
</g>
<!-- Node1&#45;&gt;Node6 -->
<g id="edge5_Node000001_Node000006" class="edge">
<title>Node1&#45;&gt;Node6</title>
<g id="a_edge5_Node000001_Node000006"><a xlink:title=" ">
<path fill="none" stroke="#63b8ff" d="M1029.07,-151.02C989.48,-139.21 937.33,-123.65 900.08,-112.54"/>
<polygon fill="#63b8ff" stroke="#63b8ff" points="1028.27,-154.43 1038.85,-153.94 1030.27,-147.72 1028.27,-154.43"/>
</a>
</g>
</g>
<!-- Node7 -->
<g id="Node000007" class="node">
<title>Node7</title>
<g id="a_Node000007"><a xlink:href="ElementShortCuts_8cpp.html" target="_top" xlink:title=" ">
<polygon fill="white" stroke="#666666" points="1112.5,-112.5 951.5,-112.5 951.5,-82.5 1112.5,-82.5 1112.5,-112.5"/>
<text text-anchor="start" x="959.5" y="-100.5" font-family="Helvetica,sans-Serif" font-size="10.00">Clipboard++/RmlUI/Elements</text>
<text text-anchor="middle" x="1032" y="-89.5" font-family="Helvetica,sans-Serif" font-size="10.00">/ElementShortCuts.cpp</text>
</a>
</g>
</g>
<!-- Node1&#45;&gt;Node7 -->
<g id="edge6_Node000001_Node000007" class="edge">
<title>Node1&#45;&gt;Node7</title>
<g id="a_edge6_Node000001_Node000007"><a xlink:title=" ">
<path fill="none" stroke="#63b8ff" d="M1068.93,-146.03C1060.42,-135.07 1050.37,-122.15 1042.91,-112.54"/>
<polygon fill="#63b8ff" stroke="#63b8ff" points="1066.17,-148.19 1075.07,-153.94 1071.7,-143.89 1066.17,-148.19"/>
</a>
</g>
</g>
<!-- Node8 -->
<g id="Node000008" class="node">
<title>Node8</title>
<g id="a_Node000008"><a xlink:href="ExportFileEvent_8cpp.html" target="_top" xlink:title=" ">
<polygon fill="white" stroke="#666666" points="1253.5,-41 1066.5,-41 1066.5,0 1253.5,0 1253.5,-41"/>
<text text-anchor="start" x="1074.5" y="-29" font-family="Helvetica,sans-Serif" font-size="10.00">Clipboard++/RmlUI/EventHandlers</text>
<text text-anchor="start" x="1074.5" y="-18" font-family="Helvetica,sans-Serif" font-size="10.00">/Clipboard++Events/Export</text>
<text text-anchor="middle" x="1160" y="-7" font-family="Helvetica,sans-Serif" font-size="10.00">/ExportFileEvent.cpp</text>
</a>
</g>
</g>
<!-- Node1&#45;&gt;Node8 -->
<g id="edge7_Node000001_Node000008" class="edge">
<title>Node1&#45;&gt;Node8</title>
<g id="a_edge7_Node000001_Node000008"><a xlink:title=" ">
<path fill="none" stroke="#63b8ff" d="M1103.35,-145.54C1109.38,-137.16 1115.9,-127.4 1121,-118 1134.8,-92.59 1146.58,-61.25 1153.48,-41.31"/>
<polygon fill="#63b8ff" stroke="#63b8ff" points="1100.45,-143.57 1097.33,-153.69 1106.09,-147.72 1100.45,-143.57"/>
</a>
</g>
</g>
<!-- Node9 -->
<g id="Node000009" class="node">
<title>Node9</title>
<g id="a_Node000009"><a xlink:href="ExportFileEvent_8h.html" target="_top" xlink:title=" ">
<polygon fill="white" stroke="#666666" points="1355.5,-118 1168.5,-118 1168.5,-77 1355.5,-77 1355.5,-118"/>
<text text-anchor="start" x="1176.5" y="-106" font-family="Helvetica,sans-Serif" font-size="10.00">Clipboard++/RmlUI/EventHandlers</text>
<text text-anchor="start" x="1176.5" y="-95" font-family="Helvetica,sans-Serif" font-size="10.00">/Clipboard++Events/Export</text>
<text text-anchor="middle" x="1262" y="-84" font-family="Helvetica,sans-Serif" font-size="10.00">/ExportFileEvent.h</text>
</a>
</g>
</g>
<!-- Node1&#45;&gt;Node9 -->
<g id="edge8_Node000001_Node000009" class="edge">
<title>Node1&#45;&gt;Node9</title>
<g id="a_edge8_Node000001_Node000009"><a xlink:title=" ">
<path fill="none" stroke="#63b8ff" d="M1131.17,-150.16C1156.03,-140.35 1186.91,-128.15 1212.43,-118.07"/>
<polygon fill="#63b8ff" stroke="#63b8ff" points="1129.63,-147.01 1121.62,-153.94 1132.2,-153.52 1129.63,-147.01"/>
</a>
</g>
</g>
<!-- Node10 -->
<g id="Node000010" class="node">
<title>Node10</title>
<g id="a_Node000010"><a xlink:href="EventManager_8cpp.html" target="_top" xlink:title=" ">
<polygon fill="white" stroke="#666666" points="1476.5,-35.5 1289.5,-35.5 1289.5,-5.5 1476.5,-5.5 1476.5,-35.5"/>
<text text-anchor="start" x="1297.5" y="-23.5" font-family="Helvetica,sans-Serif" font-size="10.00">Clipboard++/RmlUI/EventHandlers</text>
<text text-anchor="middle" x="1383" y="-12.5" font-family="Helvetica,sans-Serif" font-size="10.00">/EventManager.cpp</text>
</a>
</g>
</g>
<!-- Node1&#45;&gt;Node10 -->
<g id="edge15_Node000001_Node000010" class="edge">
<title>Node1&#45;&gt;Node10</title>
<g id="a_edge15_Node000001_Node000010"><a xlink:title=" ">
<path fill="none" stroke="#63b8ff" d="M1164.8,-163.58C1236.88,-157.86 1336.37,-145.18 1364,-118 1386.15,-96.21 1386.41,-56.63 1384.71,-35.57"/>
<polygon fill="#63b8ff" stroke="#63b8ff" points="1164.52,-160.09 1154.82,-164.34 1165.06,-167.07 1164.52,-160.09"/>
</a>
</g>
</g>
<!-- Node11 -->
<g id="Node000011" class="node">
<title>Node11</title>
<g id="a_Node000011"><a xlink:href="ImportFileEvent_8cpp.html" target="_top" xlink:title=" ">
<polygon fill="white" stroke="#666666" points="1699.5,-41 1512.5,-41 1512.5,0 1699.5,0 1699.5,-41"/>
<text text-anchor="start" x="1520.5" y="-29" font-family="Helvetica,sans-Serif" font-size="10.00">Clipboard++/RmlUI/EventHandlers</text>
<text text-anchor="start" x="1520.5" y="-18" font-family="Helvetica,sans-Serif" font-size="10.00">/Clipboard++Events/Import</text>
<text text-anchor="middle" x="1606" y="-7" font-family="Helvetica,sans-Serif" font-size="10.00">/ImportFileEvent.cpp</text>
</a>
</g>
</g>
<!-- Node1&#45;&gt;Node11 -->
<g id="edge11_Node000001_Node000011" class="edge">
<title>Node1&#45;&gt;Node11</title>
<g id="a_edge11_Node000001_Node000011"><a xlink:title=" ">
<path fill="none" stroke="#63b8ff" d="M1164.77,-166.14C1302.89,-162.06 1576.94,-149.99 1606,-118 1624.7,-97.42 1619.15,-62.95 1612.93,-41.26"/>
<polygon fill="#63b8ff" stroke="#63b8ff" points="1164.56,-162.65 1154.66,-166.43 1164.76,-169.64 1164.56,-162.65"/>
</a>
</g>
</g>
<!-- Node12 -->
<g id="Node000012" class="node">
<title>Node12</title>
<g id="a_Node000012"><a xlink:href="ImportFileEvent_8h.html" target="_top" xlink:title=" ">
<polygon fill="white" stroke="#666666" points="1597.5,-118 1410.5,-118 1410.5,-77 1597.5,-77 1597.5,-118"/>
<text text-anchor="start" x="1418.5" y="-106" font-family="Helvetica,sans-Serif" font-size="10.00">Clipboard++/RmlUI/EventHandlers</text>
<text text-anchor="start" x="1418.5" y="-95" font-family="Helvetica,sans-Serif" font-size="10.00">/Clipboard++Events/Import</text>
<text text-anchor="middle" x="1504" y="-84" font-family="Helvetica,sans-Serif" font-size="10.00">/ImportFileEvent.h</text>
</a>
</g>
</g>
<!-- Node1&#45;&gt;Node12 -->
<g id="edge12_Node000001_Node000012" class="edge">
<title>Node1&#45;&gt;Node12</title>
<g id="a_edge12_Node000001_Node000012"><a xlink:title=" ">
<path fill="none" stroke="#63b8ff" d="M1164.87,-155.78C1227.78,-145.93 1318.12,-131.53 1397,-118 1401.37,-117.25 1405.85,-116.47 1410.36,-115.68"/>
<polygon fill="#63b8ff" stroke="#63b8ff" points="1163.97,-152.38 1154.63,-157.39 1165.05,-159.3 1163.97,-152.38"/>
</a>
</g>
</g>
<!-- Node13 -->
<g id="Node000013" class="node">
<title>Node13</title>
<g id="a_Node000013"><a xlink:href="StringUtils_8cpp.html" target="_top" xlink:title=" ">
<polygon fill="white" stroke="#666666" points="1790.5,-112.5 1653.5,-112.5 1653.5,-82.5 1790.5,-82.5 1790.5,-112.5"/>
<text text-anchor="start" x="1661.5" y="-100.5" font-family="Helvetica,sans-Serif" font-size="10.00">Clipboard++/Utils/String</text>
<text text-anchor="middle" x="1722" y="-89.5" font-family="Helvetica,sans-Serif" font-size="10.00">Utils.cpp</text>
</a>
</g>
</g>
<!-- Node1&#45;&gt;Node13 -->
<g id="edge16_Node000001_Node000013" class="edge">
<title>Node1&#45;&gt;Node13</title>
<g id="a_edge16_Node000001_Node000013"><a xlink:title=" ">
<path fill="none" stroke="#63b8ff" d="M1165.06,-164.35C1272.79,-158.59 1471.45,-145.12 1639,-118 1648.06,-116.53 1657.6,-114.63 1666.85,-112.6"/>
<polygon fill="#63b8ff" stroke="#63b8ff" points="1164.73,-160.86 1154.93,-164.89 1165.1,-167.85 1164.73,-160.86"/>
</a>
</g>
</g>
<!-- Node9&#45;&gt;Node8 -->
<g id="edge9_Node000009_Node000008" class="edge">
<title>Node9&#45;&gt;Node8</title>
<g id="a_edge9_Node000009_Node000008"><a xlink:title=" ">
<path fill="none" stroke="#63b8ff" d="M1227.07,-70.82C1213.88,-61.11 1199.08,-50.24 1186.75,-41.17"/>
<polygon fill="#63b8ff" stroke="#63b8ff" points="1225.34,-73.89 1235.47,-76.99 1229.48,-68.25 1225.34,-73.89"/>
</a>
</g>
</g>
<!-- Node9&#45;&gt;Node10 -->
<g id="edge10_Node000009_Node000010" class="edge">
<title>Node9&#45;&gt;Node10</title>
<g id="a_edge10_Node000009_Node000010"><a xlink:title=" ">
<path fill="none" stroke="#63b8ff" d="M1302.08,-71.66C1321.35,-59.71 1343.75,-45.83 1360.09,-35.7"/>
<polygon fill="#63b8ff" stroke="#63b8ff" points="1300.13,-68.75 1293.48,-76.99 1303.82,-74.7 1300.13,-68.75"/>
</a>
</g>
</g>
<!-- Node12&#45;&gt;Node10 -->
<g id="edge14_Node000012_Node000010" class="edge">
<title>Node12&#45;&gt;Node10</title>
<g id="a_edge14_Node000012_Node000010"><a xlink:title=" ">
<path fill="none" stroke="#63b8ff" d="M1463.92,-71.66C1444.65,-59.71 1422.25,-45.83 1405.91,-35.7"/>
<polygon fill="#63b8ff" stroke="#63b8ff" points="1462.18,-74.7 1472.52,-76.99 1465.87,-68.75 1462.18,-74.7"/>
</a>
</g>
</g>
<!-- Node12&#45;&gt;Node11 -->
<g id="edge13_Node000012_Node000011" class="edge">
<title>Node12&#45;&gt;Node11</title>
<g id="a_edge13_Node000012_Node000011"><a xlink:title=" ">
<path fill="none" stroke="#63b8ff" d="M1538.93,-70.82C1552.12,-61.11 1566.92,-50.24 1579.25,-41.17"/>
<polygon fill="#63b8ff" stroke="#63b8ff" points="1536.52,-68.25 1530.53,-76.99 1540.66,-73.89 1536.52,-68.25"/>
</a>
</g>
</g>
</g>
</svg>
