<?xml version="1.0" encoding="UTF-8" standalone="no"?>
<!DOCTYPE svg PUBLIC "-//W3C//DTD SVG 1.1//EN"
 "http://www.w3.org/Graphics/SVG/1.1/DTD/svg11.dtd">
<!-- Generated by graphviz version 2.43.0 (0)
 -->
<!-- Title: Clipboard++/Utils/TranslationManager.h Pages: 1 -->
<svg width="2291pt" height="258pt"
 viewBox="0.00 0.00 2290.50 258.00" xmlns="http://www.w3.org/2000/svg" xmlns:xlink="http://www.w3.org/1999/xlink">
<g id="graph0" class="graph" transform="scale(1 1) rotate(0) translate(4 254)">
<title>Clipboard++/Utils/TranslationManager.h</title>
<!-- Node1 -->
<g id="Node000001" class="node">
<title>Node1</title>
<g id="a_Node000001"><a xlink:title=" ">
<polygon fill="#999999" stroke="#666666" points="1214,-250 1053,-250 1053,-220 1214,-220 1214,-250"/>
<text text-anchor="start" x="1061" y="-238" font-family="Helvetica,sans-Serif" font-size="10.00">Clipboard++/Utils/Translation</text>
<text text-anchor="middle" x="1133.5" y="-227" font-family="Helvetica,sans-Serif" font-size="10.00">Manager.h</text>
</a>
</g>
</g>
<!-- Node2 -->
<g id="Node000002" class="node">
<title>Node2</title>
<g id="a_Node000002"><a xlink:href="ClipboardXX_8cpp.html" target="_top" xlink:title=" ">
<polygon fill="white" stroke="#666666" points="163,-178.5 0,-178.5 0,-159.5 163,-159.5 163,-178.5"/>
<text text-anchor="middle" x="81.5" y="-166.5" font-family="Helvetica,sans-Serif" font-size="10.00">Clipboard++/ClipboardXX.cpp</text>
</a>
</g>
</g>
<!-- Node1&#45;&gt;Node2 -->
<g id="edge1_Node000001_Node000002" class="edge">
<title>Node1&#45;&gt;Node2</title>
<g id="a_edge1_Node000001_Node000002"><a xlink:title=" ">
<path fill="none" stroke="#63b8ff" d="M1042.72,-232.32C871.94,-228.49 491.31,-216.73 172.5,-184 158.98,-182.61 144.41,-180.6 130.97,-178.54"/>
<polygon fill="#63b8ff" stroke="#63b8ff" points="1042.85,-235.82 1052.92,-232.55 1043,-228.83 1042.85,-235.82"/>
</a>
</g>
</g>
<!-- Node3 -->
<g id="Node000003" class="node">
<title>Node3</title>
<g id="a_Node000003"><a xlink:href="KeyShortCut_8cpp.html" target="_top" xlink:title=" ">
<polygon fill="white" stroke="#666666" points="349.5,-184 181.5,-184 181.5,-154 349.5,-154 349.5,-184"/>
<text text-anchor="start" x="189.5" y="-172" font-family="Helvetica,sans-Serif" font-size="10.00">Clipboard++/QClipboard</text>
<text text-anchor="middle" x="265.5" y="-161" font-family="Helvetica,sans-Serif" font-size="10.00">/KeyShortCuts/KeyShortCut.cpp</text>
</a>
</g>
</g>
<!-- Node1&#45;&gt;Node3 -->
<g id="edge2_Node000001_Node000003" class="edge">
<title>Node1&#45;&gt;Node3</title>
<g id="a_edge2_Node000001_Node000003"><a xlink:title=" ">
<path fill="none" stroke="#63b8ff" d="M1042.8,-230.65C897.88,-224.73 605.28,-210.49 358.5,-184 355.58,-183.69 352.61,-183.35 349.61,-182.99"/>
<polygon fill="#63b8ff" stroke="#63b8ff" points="1042.84,-234.15 1052.98,-231.06 1043.13,-227.16 1042.84,-234.15"/>
</a>
</g>
</g>
<!-- Node4 -->
<g id="Node000004" class="node">
<title>Node4</title>
<g id="a_Node000004"><a xlink:href="RmlUi__Platform__SDL_8cpp.html" target="_top" xlink:title=" ">
<polygon fill="white" stroke="#666666" points="529.5,-184 367.5,-184 367.5,-154 529.5,-154 529.5,-184"/>
<text text-anchor="start" x="375.5" y="-172" font-family="Helvetica,sans-Serif" font-size="10.00">Clipboard++/RmlUI/Backends</text>
<text text-anchor="middle" x="448.5" y="-161" font-family="Helvetica,sans-Serif" font-size="10.00">/RmlUi_Platform_SDL.cpp</text>
</a>
</g>
</g>
<!-- Node1&#45;&gt;Node4 -->
<g id="edge3_Node000001_Node000004" class="edge">
<title>Node1&#45;&gt;Node4</title>
<g id="a_edge3_Node000001_Node000004"><a xlink:title=" ">
<path fill="none" stroke="#63b8ff" d="M1042.63,-228.36C925.76,-220.65 716.6,-205.31 538.5,-184 535.67,-183.66 532.8,-183.3 529.9,-182.93"/>
<polygon fill="#63b8ff" stroke="#63b8ff" points="1042.75,-231.88 1052.96,-229.04 1043.21,-224.89 1042.75,-231.88"/>
</a>
</g>
</g>
<!-- Node5 -->
<g id="Node000005" class="node">
<title>Node5</title>
<g id="a_Node000005"><a xlink:href="ElementClipboard_8cpp.html" target="_top" xlink:title=" ">
<polygon fill="white" stroke="#666666" points="709,-184 548,-184 548,-154 709,-154 709,-184"/>
<text text-anchor="start" x="556" y="-172" font-family="Helvetica,sans-Serif" font-size="10.00">Clipboard++/RmlUI/Elements</text>
<text text-anchor="middle" x="628.5" y="-161" font-family="Helvetica,sans-Serif" font-size="10.00">/ElementClipboard.cpp</text>
</a>
</g>
</g>
<!-- Node1&#45;&gt;Node5 -->
<g id="edge4_Node000001_Node000005" class="edge">
<title>Node1&#45;&gt;Node5</title>
<g id="a_edge4_Node000001_Node000005"><a xlink:title=" ">
<path fill="none" stroke="#63b8ff" d="M1042.8,-224.06C958.44,-214.59 829.32,-199.51 717.5,-184 714.71,-183.61 711.87,-183.21 709.01,-182.8"/>
<polygon fill="#63b8ff" stroke="#63b8ff" points="1042.53,-227.55 1052.86,-225.19 1043.31,-220.6 1042.53,-227.55"/>
</a>
</g>
</g>
<!-- Node6 -->
<g id="Node000006" class="node">
<title>Node6</title>
<g id="a_Node000006"><a xlink:href="ElementEdit_8cpp.html" target="_top" xlink:title=" ">
<polygon fill="white" stroke="#666666" points="888,-184 727,-184 727,-154 888,-154 888,-184"/>
<text text-anchor="start" x="735" y="-172" font-family="Helvetica,sans-Serif" font-size="10.00">Clipboard++/RmlUI/Elements</text>
<text text-anchor="middle" x="807.5" y="-161" font-family="Helvetica,sans-Serif" font-size="10.00">/ElementEdit.cpp</text>
</a>
</g>
</g>
<!-- Node1&#45;&gt;Node6 -->
<g id="edge5_Node000001_Node000006" class="edge">
<title>Node1&#45;&gt;Node6</title>
<g id="a_edge5_Node000001_Node000006"><a xlink:title=" ">
<path fill="none" stroke="#63b8ff" d="M1051.87,-217.98C998.67,-207.53 929.9,-194.03 878.88,-184.01"/>
<polygon fill="#63b8ff" stroke="#63b8ff" points="1051.47,-221.46 1061.96,-219.95 1052.82,-214.59 1051.47,-221.46"/>
</a>
</g>
</g>
<!-- Node7 -->
<g id="Node000007" class="node">
<title>Node7</title>
<g id="a_Node000007"><a xlink:href="ElementShortCuts_8cpp.html" target="_top" xlink:title=" ">
<polygon fill="white" stroke="#666666" points="1067,-184 906,-184 906,-154 1067,-154 1067,-184"/>
<text text-anchor="start" x="914" y="-172" font-family="Helvetica,sans-Serif" font-size="10.00">Clipboard++/RmlUI/Elements</text>
<text text-anchor="middle" x="986.5" y="-161" font-family="Helvetica,sans-Serif" font-size="10.00">/ElementShortCuts.cpp</text>
</a>
</g>
</g>
<!-- Node1&#45;&gt;Node7 -->
<g id="edge6_Node000001_Node000007" class="edge">
<title>Node1&#45;&gt;Node7</title>
<g id="a_edge6_Node000001_Node000007"><a xlink:title=" ">
<path fill="none" stroke="#63b8ff" d="M1091.97,-215.92C1068.74,-205.8 1040.21,-193.38 1018.68,-184.01"/>
<polygon fill="#63b8ff" stroke="#63b8ff" points="1090.67,-219.17 1101.24,-219.95 1093.47,-212.75 1090.67,-219.17"/>
</a>
</g>
</g>
<!-- Node8 -->
<g id="Node000008" class="node">
<title>Node8</title>
<g id="a_Node000008"><a xlink:href="EditDoneEvent_8h.html" target="_top" xlink:title=" ">
<polygon fill="white" stroke="#666666" points="772,-112.5 551,-112.5 551,-82.5 772,-82.5 772,-112.5"/>
<text text-anchor="start" x="559" y="-100.5" font-family="Helvetica,sans-Serif" font-size="10.00">Clipboard++/RmlUI/EventHandlers</text>
<text text-anchor="middle" x="661.5" y="-89.5" font-family="Helvetica,sans-Serif" font-size="10.00">/Clipboard++Events/Edit/EditDoneEvent.h</text>
</a>
</g>
</g>
<!-- Node1&#45;&gt;Node8 -->
<g id="edge7_Node000001_Node000008" class="edge">
<title>Node1&#45;&gt;Node8</title>
<g id="a_edge7_Node000001_Node000008"><a xlink:title=" ">
<path fill="none" stroke="#63b8ff" d="M1123.28,-210.88C1113.75,-192.24 1097.65,-167.05 1075.5,-154 1018.6,-120.47 845.88,-127.34 780.5,-118 768.79,-116.33 756.45,-114.44 744.34,-112.52"/>
<polygon fill="#63b8ff" stroke="#63b8ff" points="1120.16,-212.46 1127.67,-219.94 1126.46,-209.41 1120.16,-212.46"/>
</a>
</g>
</g>
<!-- Node10 -->
<g id="Node000010" class="node">
<title>Node10</title>
<g id="a_Node000010"><a xlink:href="EventManager_8cpp.html" target="_top" xlink:title=" ">
<polygon fill="white" stroke="#666666" points="1387,-35.5 1200,-35.5 1200,-5.5 1387,-5.5 1387,-35.5"/>
<text text-anchor="start" x="1208" y="-23.5" font-family="Helvetica,sans-Serif" font-size="10.00">Clipboard++/RmlUI/EventHandlers</text>
<text text-anchor="middle" x="1293.5" y="-12.5" font-family="Helvetica,sans-Serif" font-size="10.00">/EventManager.cpp</text>
</a>
</g>
</g>
<!-- Node1&#45;&gt;Node10 -->
<g id="edge22_Node000001_Node000010" class="edge">
<title>Node1&#45;&gt;Node10</title>
<g id="a_edge22_Node000001_Node000010"><a xlink:title=" ">
<path fill="none" stroke="#63b8ff" d="M1147.88,-210.98C1153.14,-202.52 1159.12,-192.84 1164.5,-184 1193.32,-136.67 1192.74,-119.33 1228.5,-77 1241.91,-61.13 1260.09,-46.02 1273.82,-35.58"/>
<polygon fill="#63b8ff" stroke="#63b8ff" points="1144.83,-209.26 1142.51,-219.6 1150.77,-212.96 1144.83,-209.26"/>
</a>
</g>
</g>
<!-- Node11 -->
<g id="Node000011" class="node">
<title>Node11</title>
<g id="a_Node000011"><a xlink:href="ExportFileEvent_8h.html" target="_top" xlink:title=" ">
<polygon fill="white" stroke="#666666" points="977,-118 790,-118 790,-77 977,-77 977,-118"/>
<text text-anchor="start" x="798" y="-106" font-family="Helvetica,sans-Serif" font-size="10.00">Clipboard++/RmlUI/EventHandlers</text>
<text text-anchor="start" x="798" y="-95" font-family="Helvetica,sans-Serif" font-size="10.00">/Clipboard++Events/Export</text>
<text text-anchor="middle" x="883.5" y="-84" font-family="Helvetica,sans-Serif" font-size="10.00">/ExportFileEvent.h</text>
</a>
</g>
</g>
<!-- Node1&#45;&gt;Node11 -->
<g id="edge10_Node000001_Node000011" class="edge">
<title>Node1&#45;&gt;Node11</title>
<g id="a_edge10_Node000001_Node000011"><a xlink:title=" ">
<path fill="none" stroke="#63b8ff" d="M1132.46,-210.01C1130.4,-192.15 1124.72,-168.46 1109.5,-154 1099.42,-144.41 1034.75,-129.07 977.16,-116.95"/>
<polygon fill="#63b8ff" stroke="#63b8ff" points="1128.98,-210.32 1133.32,-219.98 1135.95,-209.72 1128.98,-210.32"/>
</a>
</g>
</g>
<!-- Node13 -->
<g id="Node000013" class="node">
<title>Node13</title>
<g id="a_Node000013"><a xlink:href="ExportSearchEvent_8h.html" target="_top" xlink:title=" ">
<polygon fill="white" stroke="#666666" points="1182,-118 995,-118 995,-77 1182,-77 1182,-118"/>
<text text-anchor="start" x="1003" y="-106" font-family="Helvetica,sans-Serif" font-size="10.00">Clipboard++/RmlUI/EventHandlers</text>
<text text-anchor="start" x="1003" y="-95" font-family="Helvetica,sans-Serif" font-size="10.00">/Clipboard++Events/Export</text>
<text text-anchor="middle" x="1088.5" y="-84" font-family="Helvetica,sans-Serif" font-size="10.00">/ExportSearchEvent.h</text>
</a>
</g>
</g>
<!-- Node1&#45;&gt;Node13 -->
<g id="edge13_Node000001_Node000013" class="edge">
<title>Node1&#45;&gt;Node13</title>
<g id="a_edge13_Node000001_Node000013"><a xlink:title=" ">
<path fill="none" stroke="#63b8ff" d="M1144.46,-210.46C1150.47,-194.07 1155.28,-172.01 1147.5,-154 1141.36,-139.8 1129.61,-127.56 1118.19,-118.21"/>
<polygon fill="#63b8ff" stroke="#63b8ff" points="1141.16,-209.26 1140.66,-219.85 1147.65,-211.89 1141.16,-209.26"/>
</a>
</g>
</g>
<!-- Node15 -->
<g id="Node000015" class="node">
<title>Node15</title>
<g id="a_Node000015"><a xlink:href="ImportFileEvent_8h.html" target="_top" xlink:title=" ">
<polygon fill="white" stroke="#666666" points="1871,-118 1684,-118 1684,-77 1871,-77 1871,-118"/>
<text text-anchor="start" x="1692" y="-106" font-family="Helvetica,sans-Serif" font-size="10.00">Clipboard++/RmlUI/EventHandlers</text>
<text text-anchor="start" x="1692" y="-95" font-family="Helvetica,sans-Serif" font-size="10.00">/Clipboard++Events/Import</text>
<text text-anchor="middle" x="1777.5" y="-84" font-family="Helvetica,sans-Serif" font-size="10.00">/ImportFileEvent.h</text>
</a>
</g>
</g>
<!-- Node1&#45;&gt;Node15 -->
<g id="edge16_Node000001_Node000015" class="edge">
<title>Node1&#45;&gt;Node15</title>
<g id="a_edge16_Node000001_Node000015"><a xlink:title=" ">
<path fill="none" stroke="#63b8ff" d="M1224.6,-228.47C1282.95,-222.47 1359.31,-209.99 1422.5,-184 1444.05,-175.14 1443.95,-162.86 1465.5,-154 1552.68,-118.18 1581.75,-134.77 1674.5,-118 1677.54,-117.45 1680.64,-116.89 1683.76,-116.31"/>
<polygon fill="#63b8ff" stroke="#63b8ff" points="1223.9,-225.02 1214.29,-229.48 1224.59,-231.99 1223.9,-225.02"/>
</a>
</g>
</g>
<!-- Node17 -->
<g id="Node000017" class="node">
<title>Node17</title>
<g id="a_Node000017"><a xlink:href="ImportSearchEvent_8h.html" target="_top" xlink:title=" ">
<polygon fill="white" stroke="#666666" points="2076,-118 1889,-118 1889,-77 2076,-77 2076,-118"/>
<text text-anchor="start" x="1897" y="-106" font-family="Helvetica,sans-Serif" font-size="10.00">Clipboard++/RmlUI/EventHandlers</text>
<text text-anchor="start" x="1897" y="-95" font-family="Helvetica,sans-Serif" font-size="10.00">/Clipboard++Events/Import</text>
<text text-anchor="middle" x="1982.5" y="-84" font-family="Helvetica,sans-Serif" font-size="10.00">/ImportSearchEvent.h</text>
</a>
</g>
</g>
<!-- Node1&#45;&gt;Node17 -->
<g id="edge19_Node000001_Node000017" class="edge">
<title>Node1&#45;&gt;Node17</title>
<g id="a_edge19_Node000001_Node000017"><a xlink:title=" ">
<path fill="none" stroke="#63b8ff" d="M1224.18,-230.27C1290.63,-225.11 1382.04,-212.88 1457.5,-184 1480.3,-175.28 1480.46,-162.06 1503.5,-154 1662.37,-98.42 1713.88,-141.83 1880.5,-118 1883.27,-117.6 1886.07,-117.19 1888.9,-116.75"/>
<polygon fill="#63b8ff" stroke="#63b8ff" points="1223.86,-226.78 1214.14,-231.01 1224.37,-233.76 1223.86,-226.78"/>
</a>
</g>
</g>
<!-- Node19 -->
<g id="Node000019" class="node">
<title>Node19</title>
<g id="a_Node000019"><a xlink:href="FileManager_8cpp.html" target="_top" xlink:title=" ">
<polygon fill="white" stroke="#666666" points="2282.5,-107 2094.5,-107 2094.5,-88 2282.5,-88 2282.5,-107"/>
<text text-anchor="middle" x="2188.5" y="-95" font-family="Helvetica,sans-Serif" font-size="10.00">Clipboard++/Utils/FileManager.cpp</text>
</a>
</g>
</g>
<!-- Node1&#45;&gt;Node19 -->
<g id="edge23_Node000001_Node000019" class="edge">
<title>Node1&#45;&gt;Node19</title>
<g id="a_edge23_Node000001_Node000019"><a xlink:title=" ">
<path fill="none" stroke="#63b8ff" d="M1224.35,-233.1C1299.19,-229.65 1406.87,-218.33 1494.5,-184 1516.2,-175.5 1515.51,-161.71 1537.5,-154 1652.66,-113.6 1964.43,-133.38 2085.5,-118 2106.8,-115.29 2130.35,-110.94 2149.55,-107.03"/>
<polygon fill="#63b8ff" stroke="#63b8ff" points="1223.85,-229.62 1214.01,-233.54 1224.15,-236.61 1223.85,-229.62"/>
</a>
</g>
</g>
<!-- Node20 -->
<g id="Node000020" class="node">
<title>Node20</title>
<g id="a_Node000020"><a xlink:href="FileManager_8h.html" target="_top" xlink:title=" ">
<polygon fill="white" stroke="#666666" points="1413.5,-178.5 1237.5,-178.5 1237.5,-159.5 1413.5,-159.5 1413.5,-178.5"/>
<text text-anchor="middle" x="1325.5" y="-166.5" font-family="Helvetica,sans-Serif" font-size="10.00">Clipboard++/Utils/FileManager.h</text>
</a>
</g>
</g>
<!-- Node1&#45;&gt;Node20 -->
<g id="edge24_Node000001_Node000020" class="edge">
<title>Node1&#45;&gt;Node20</title>
<g id="a_edge24_Node000001_Node000020"><a xlink:title=" ">
<path fill="none" stroke="#63b8ff" d="M1185.29,-216.74C1222.41,-204.36 1270.81,-188.23 1299.95,-178.52"/>
<polygon fill="#63b8ff" stroke="#63b8ff" points="1184.02,-213.47 1175.64,-219.95 1186.23,-220.11 1184.02,-213.47"/>
</a>
</g>
</g>
<!-- Node23 -->
<g id="Node000023" class="node">
<title>Node23</title>
<g id="a_Node000023"><a xlink:href="TranslationManager_8cpp.html" target="_top" xlink:title=" ">
<polygon fill="white" stroke="#666666" points="1707,-184 1546,-184 1546,-154 1707,-154 1707,-184"/>
<text text-anchor="start" x="1554" y="-172" font-family="Helvetica,sans-Serif" font-size="10.00">Clipboard++/Utils/Translation</text>
<text text-anchor="middle" x="1626.5" y="-161" font-family="Helvetica,sans-Serif" font-size="10.00">Manager.cpp</text>
</a>
</g>
</g>
<!-- Node1&#45;&gt;Node23 -->
<g id="edge34_Node000001_Node000023" class="edge">
<title>Node1&#45;&gt;Node23</title>
<g id="a_edge34_Node000001_Node000023"><a xlink:title=" ">
<path fill="none" stroke="#63b8ff" d="M1224.5,-223.13C1305.21,-213.35 1426.29,-198.36 1531.5,-184 1536.21,-183.36 1541.04,-182.68 1545.92,-182"/>
<polygon fill="#63b8ff" stroke="#63b8ff" points="1223.87,-219.68 1214.37,-224.35 1224.71,-226.63 1223.87,-219.68"/>
</a>
</g>
</g>
<!-- Node9 -->
<g id="Node000009" class="node">
<title>Node9</title>
<g id="a_Node000009"><a xlink:href="EditDoneEvent_8cpp.html" target="_top" xlink:title=" ">
<polygon fill="white" stroke="#666666" points="772,-35.5 539,-35.5 539,-5.5 772,-5.5 772,-35.5"/>
<text text-anchor="start" x="547" y="-23.5" font-family="Helvetica,sans-Serif" font-size="10.00">Clipboard++/RmlUI/EventHandlers</text>
<text text-anchor="middle" x="655.5" y="-12.5" font-family="Helvetica,sans-Serif" font-size="10.00">/Clipboard++Events/Edit/EditDoneEvent.cpp</text>
</a>
</g>
</g>
<!-- Node8&#45;&gt;Node9 -->
<g id="edge8_Node000008_Node000009" class="edge">
<title>Node8&#45;&gt;Node9</title>
<g id="a_edge8_Node000008_Node000009"><a xlink:title=" ">
<path fill="none" stroke="#63b8ff" d="M659.57,-72.41C658.6,-60.24 657.45,-45.9 656.62,-35.54"/>
<polygon fill="#63b8ff" stroke="#63b8ff" points="656.09,-72.7 660.37,-82.39 663.06,-72.15 656.09,-72.7"/>
</a>
</g>
</g>
<!-- Node8&#45;&gt;Node10 -->
<g id="edge9_Node000008_Node000010" class="edge">
<title>Node8&#45;&gt;Node10</title>
<g id="a_edge9_Node000008_Node000010"><a xlink:title=" ">
<path fill="none" stroke="#63b8ff" d="M752.01,-80.94C761.62,-79.51 771.25,-78.16 780.5,-77 962,-54.19 1009.3,-66.04 1190.5,-41 1201.59,-39.47 1213.29,-37.55 1224.68,-35.51"/>
<polygon fill="#63b8ff" stroke="#63b8ff" points="751.39,-77.5 742.04,-82.47 752.45,-84.42 751.39,-77.5"/>
</a>
</g>
</g>
<!-- Node11&#45;&gt;Node10 -->
<g id="edge12_Node000011_Node000010" class="edge">
<title>Node11&#45;&gt;Node10</title>
<g id="a_edge12_Node000011_Node000010"><a xlink:title=" ">
<path fill="none" stroke="#63b8ff" d="M987.07,-76.72C1078.14,-60.11 1102.61,-57.04 1190.5,-41 1200.08,-39.25 1210.15,-37.38 1220.1,-35.52"/>
<polygon fill="#63b8ff" stroke="#63b8ff" points="986.35,-73.3 977.15,-78.54 987.61,-80.18 986.35,-73.3"/>
</a>
</g>
</g>
<!-- Node12 -->
<g id="Node000012" class="node">
<title>Node12</title>
<g id="a_Node000012"><a xlink:href="ExportFileEvent_8cpp.html" target="_top" xlink:title=" ">
<polygon fill="white" stroke="#666666" points="977,-41 790,-41 790,0 977,0 977,-41"/>
<text text-anchor="start" x="798" y="-29" font-family="Helvetica,sans-Serif" font-size="10.00">Clipboard++/RmlUI/EventHandlers</text>
<text text-anchor="start" x="798" y="-18" font-family="Helvetica,sans-Serif" font-size="10.00">/Clipboard++Events/Export</text>
<text text-anchor="middle" x="883.5" y="-7" font-family="Helvetica,sans-Serif" font-size="10.00">/ExportFileEvent.cpp</text>
</a>
</g>
</g>
<!-- Node11&#45;&gt;Node12 -->
<g id="edge11_Node000011_Node000012" class="edge">
<title>Node11&#45;&gt;Node12</title>
<g id="a_edge11_Node000011_Node000012"><a xlink:title=" ">
<path fill="none" stroke="#63b8ff" d="M883.5,-66.69C883.5,-58.08 883.5,-48.9 883.5,-41.07"/>
<polygon fill="#63b8ff" stroke="#63b8ff" points="880,-66.79 883.5,-76.79 887,-66.79 880,-66.79"/>
</a>
</g>
</g>
<!-- Node13&#45;&gt;Node10 -->
<g id="edge15_Node000013_Node000010" class="edge">
<title>Node13&#45;&gt;Node10</title>
<g id="a_edge15_Node000013_Node000010"><a xlink:title=" ">
<path fill="none" stroke="#63b8ff" d="M1151.62,-73.41C1185.41,-61.05 1225.94,-46.22 1255.01,-35.58"/>
<polygon fill="#63b8ff" stroke="#63b8ff" points="1150.01,-70.27 1141.83,-76.99 1152.42,-76.84 1150.01,-70.27"/>
</a>
</g>
</g>
<!-- Node14 -->
<g id="Node000014" class="node">
<title>Node14</title>
<g id="a_Node000014"><a xlink:href="ExportSearchEvent_8cpp.html" target="_top" xlink:title=" ">
<polygon fill="white" stroke="#666666" points="1182,-41 995,-41 995,0 1182,0 1182,-41"/>
<text text-anchor="start" x="1003" y="-29" font-family="Helvetica,sans-Serif" font-size="10.00">Clipboard++/RmlUI/EventHandlers</text>
<text text-anchor="start" x="1003" y="-18" font-family="Helvetica,sans-Serif" font-size="10.00">/Clipboard++Events/Export</text>
<text text-anchor="middle" x="1088.5" y="-7" font-family="Helvetica,sans-Serif" font-size="10.00">/ExportSearchEvent.cpp</text>
</a>
</g>
</g>
<!-- Node13&#45;&gt;Node14 -->
<g id="edge14_Node000013_Node000014" class="edge">
<title>Node13&#45;&gt;Node14</title>
<g id="a_edge14_Node000013_Node000014"><a xlink:title=" ">
<path fill="none" stroke="#63b8ff" d="M1088.5,-66.69C1088.5,-58.08 1088.5,-48.9 1088.5,-41.07"/>
<polygon fill="#63b8ff" stroke="#63b8ff" points="1085,-66.79 1088.5,-76.79 1092,-66.79 1085,-66.79"/>
</a>
</g>
</g>
<!-- Node15&#45;&gt;Node10 -->
<g id="edge18_Node000015_Node000010" class="edge">
<title>Node15&#45;&gt;Node10</title>
<g id="a_edge18_Node000015_Node000010"><a xlink:title=" ">
<path fill="none" stroke="#63b8ff" d="M1673.73,-76.91C1569.78,-59.64 1462.04,-44.28 1387.23,-34.02"/>
<polygon fill="#63b8ff" stroke="#63b8ff" points="1673.34,-80.39 1683.78,-78.58 1674.49,-73.48 1673.34,-80.39"/>
</a>
</g>
</g>
<!-- Node16 -->
<g id="Node000016" class="node">
<title>Node16</title>
<g id="a_Node000016"><a xlink:href="ImportFileEvent_8cpp.html" target="_top" xlink:title=" ">
<polygon fill="white" stroke="#666666" points="1871,-41 1684,-41 1684,0 1871,0 1871,-41"/>
<text text-anchor="start" x="1692" y="-29" font-family="Helvetica,sans-Serif" font-size="10.00">Clipboard++/RmlUI/EventHandlers</text>
<text text-anchor="start" x="1692" y="-18" font-family="Helvetica,sans-Serif" font-size="10.00">/Clipboard++Events/Import</text>
<text text-anchor="middle" x="1777.5" y="-7" font-family="Helvetica,sans-Serif" font-size="10.00">/ImportFileEvent.cpp</text>
</a>
</g>
</g>
<!-- Node15&#45;&gt;Node16 -->
<g id="edge17_Node000015_Node000016" class="edge">
<title>Node15&#45;&gt;Node16</title>
<g id="a_edge17_Node000015_Node000016"><a xlink:title=" ">
<path fill="none" stroke="#63b8ff" d="M1777.5,-66.69C1777.5,-58.08 1777.5,-48.9 1777.5,-41.07"/>
<polygon fill="#63b8ff" stroke="#63b8ff" points="1774,-66.79 1777.5,-76.79 1781,-66.79 1774,-66.79"/>
</a>
</g>
</g>
<!-- Node17&#45;&gt;Node10 -->
<g id="edge21_Node000017_Node000010" class="edge">
<title>Node17&#45;&gt;Node10</title>
<g id="a_edge21_Node000017_Node000010"><a xlink:title=" ">
<path fill="none" stroke="#63b8ff" d="M1878.76,-76.81C1699.55,-51.67 1501.06,-35.66 1387.1,-27.61"/>
<polygon fill="#63b8ff" stroke="#63b8ff" points="1878.51,-80.31 1888.9,-78.25 1879.49,-73.38 1878.51,-80.31"/>
</a>
</g>
</g>
<!-- Node18 -->
<g id="Node000018" class="node">
<title>Node18</title>
<g id="a_Node000018"><a xlink:href="ImportSearchEvent_8cpp.html" target="_top" xlink:title=" ">
<polygon fill="white" stroke="#666666" points="2076,-41 1889,-41 1889,0 2076,0 2076,-41"/>
<text text-anchor="start" x="1897" y="-29" font-family="Helvetica,sans-Serif" font-size="10.00">Clipboard++/RmlUI/EventHandlers</text>
<text text-anchor="start" x="1897" y="-18" font-family="Helvetica,sans-Serif" font-size="10.00">/Clipboard++Events/Import</text>
<text text-anchor="middle" x="1982.5" y="-7" font-family="Helvetica,sans-Serif" font-size="10.00">/ImportSearchEvent.cpp</text>
</a>
</g>
</g>
<!-- Node17&#45;&gt;Node18 -->
<g id="edge20_Node000017_Node000018" class="edge">
<title>Node17&#45;&gt;Node18</title>
<g id="a_edge20_Node000017_Node000018"><a xlink:title=" ">
<path fill="none" stroke="#63b8ff" d="M1982.5,-66.69C1982.5,-58.08 1982.5,-48.9 1982.5,-41.07"/>
<polygon fill="#63b8ff" stroke="#63b8ff" points="1979,-66.79 1982.5,-76.79 1986,-66.79 1979,-66.79"/>
</a>
</g>
</g>
<!-- Node20&#45;&gt;Node8 -->
<g id="edge27_Node000020_Node000008" class="edge">
<title>Node20&#45;&gt;Node8</title>
<g id="a_edge27_Node000020_Node000008"><a xlink:title=" ">
<path fill="none" stroke="#63b8ff" d="M1227.01,-161.08C1117.68,-152.9 936.1,-137.86 780.5,-118 768.14,-116.42 755.1,-114.53 742.36,-112.54"/>
<polygon fill="#63b8ff" stroke="#63b8ff" points="1226.8,-164.57 1237.03,-161.82 1227.32,-157.59 1226.8,-164.57"/>
</a>
</g>
</g>
<!-- Node20&#45;&gt;Node10 -->
<g id="edge32_Node000020_Node000010" class="edge">
<title>Node20&#45;&gt;Node10</title>
<g id="a_edge32_Node000020_Node000010"><a xlink:title=" ">
<path fill="none" stroke="#63b8ff" d="M1362.56,-155.5C1379.77,-147.62 1398.59,-135.55 1408.5,-118 1417.46,-102.14 1418.19,-92.43 1408.5,-77 1395.89,-56.91 1373.73,-43.92 1352.21,-35.6"/>
<polygon fill="#63b8ff" stroke="#63b8ff" points="1361.07,-152.33 1353.23,-159.46 1363.8,-158.78 1361.07,-152.33"/>
</a>
</g>
</g>
<!-- Node20&#45;&gt;Node11 -->
<g id="edge28_Node000020_Node000011" class="edge">
<title>Node20&#45;&gt;Node11</title>
<g id="a_edge28_Node000020_Node000011"><a xlink:title=" ">
<path fill="none" stroke="#63b8ff" d="M1251.44,-158.04C1182.47,-148.55 1076.85,-133.44 985.5,-118 982.74,-117.53 979.95,-117.05 977.13,-116.56"/>
<polygon fill="#63b8ff" stroke="#63b8ff" points="1251.38,-161.57 1261.77,-159.46 1252.34,-154.63 1251.38,-161.57"/>
</a>
</g>
</g>
<!-- Node20&#45;&gt;Node13 -->
<g id="edge29_Node000020_Node000013" class="edge">
<title>Node20&#45;&gt;Node13</title>
<g id="a_edge29_Node000020_Node000013"><a xlink:title=" ">
<path fill="none" stroke="#63b8ff" d="M1286.44,-156.54C1250.81,-146.1 1197.44,-130.45 1155.09,-118.03"/>
<polygon fill="#63b8ff" stroke="#63b8ff" points="1285.86,-160.02 1296.44,-159.48 1287.83,-153.31 1285.86,-160.02"/>
</a>
</g>
</g>
<!-- Node20&#45;&gt;Node15 -->
<g id="edge30_Node000020_Node000015" class="edge">
<title>Node20&#45;&gt;Node15</title>
<g id="a_edge30_Node000020_Node000015"><a xlink:title=" ">
<path fill="none" stroke="#63b8ff" d="M1397.24,-158.11C1483.36,-146.17 1622.66,-126.62 1674.5,-118 1677.55,-117.49 1680.65,-116.97 1683.78,-116.43"/>
<polygon fill="#63b8ff" stroke="#63b8ff" points="1396.7,-154.65 1387.27,-159.49 1397.66,-161.58 1396.7,-154.65"/>
</a>
</g>
</g>
<!-- Node20&#45;&gt;Node17 -->
<g id="edge31_Node000020_Node000017" class="edge">
<title>Node20&#45;&gt;Node17</title>
<g id="a_edge31_Node000020_Node000017"><a xlink:title=" ">
<path fill="none" stroke="#63b8ff" d="M1418.91,-158.49C1434.47,-156.95 1450.44,-155.41 1465.5,-154 1649.84,-136.79 1697.12,-143.42 1880.5,-118 1883.27,-117.62 1886.07,-117.21 1888.91,-116.78"/>
<polygon fill="#63b8ff" stroke="#63b8ff" points="1418.37,-155.02 1408.77,-159.49 1419.06,-161.99 1418.37,-155.02"/>
</a>
</g>
</g>
<!-- Node20&#45;&gt;Node19 -->
<g id="edge33_Node000020_Node000019" class="edge">
<title>Node20&#45;&gt;Node19</title>
<g id="a_edge33_Node000020_Node000019"><a xlink:title=" ">
<path fill="none" stroke="#63b8ff" d="M1423.94,-159.96C1449.82,-157.93 1477.7,-155.81 1503.5,-154 1762.02,-135.84 1828.34,-150.17 2085.5,-118 2106.81,-115.33 2130.36,-110.98 2149.55,-107.07"/>
<polygon fill="#63b8ff" stroke="#63b8ff" points="1423.45,-156.49 1413.75,-160.77 1424,-163.47 1423.45,-156.49"/>
</a>
</g>
</g>
<!-- Node21 -->
<g id="Node000021" class="node">
<title>Node21</title>
<g id="a_Node000021"><a xlink:href="KeyShortCutManager_8cpp.html" target="_top" xlink:title=" ">
<polygon fill="white" stroke="#666666" points="1665.5,-112.5 1455.5,-112.5 1455.5,-82.5 1665.5,-82.5 1665.5,-112.5"/>
<text text-anchor="start" x="1463.5" y="-100.5" font-family="Helvetica,sans-Serif" font-size="10.00">Clipboard++/QClipboard</text>
<text text-anchor="middle" x="1560.5" y="-89.5" font-family="Helvetica,sans-Serif" font-size="10.00">/KeyShortCuts/KeyShortCutManager.cpp</text>
</a>
</g>
</g>
<!-- Node20&#45;&gt;Node21 -->
<g id="edge25_Node000020_Node000021" class="edge">
<title>Node20&#45;&gt;Node21</title>
<g id="a_edge25_Node000020_Node000021"><a xlink:title=" ">
<path fill="none" stroke="#63b8ff" d="M1364.16,-156.57C1404.96,-144.5 1469.31,-125.47 1513.14,-112.51"/>
<polygon fill="#63b8ff" stroke="#63b8ff" points="1362.91,-153.29 1354.32,-159.48 1364.9,-160 1362.91,-153.29"/>
</a>
</g>
</g>
<!-- Node22 -->
<g id="Node000022" class="node">
<title>Node22</title>
<g id="a_Node000022"><a xlink:href="ElementFileManager_8cpp.html" target="_top" xlink:title=" ">
<polygon fill="white" stroke="#666666" points="1399,-112.5 1238,-112.5 1238,-82.5 1399,-82.5 1399,-112.5"/>
<text text-anchor="start" x="1246" y="-100.5" font-family="Helvetica,sans-Serif" font-size="10.00">Clipboard++/RmlUI/Elements</text>
<text text-anchor="middle" x="1318.5" y="-89.5" font-family="Helvetica,sans-Serif" font-size="10.00">/ElementFileManager.cpp</text>
</a>
</g>
</g>
<!-- Node20&#45;&gt;Node22 -->
<g id="edge26_Node000020_Node000022" class="edge">
<title>Node20&#45;&gt;Node22</title>
<g id="a_edge26_Node000020_Node000022"><a xlink:title=" ">
<path fill="none" stroke="#63b8ff" d="M1323.61,-149.21C1322.45,-137.69 1320.99,-123.18 1319.92,-112.64"/>
<polygon fill="#63b8ff" stroke="#63b8ff" points="1320.16,-149.88 1324.64,-159.48 1327.12,-149.18 1320.16,-149.88"/>
</a>
</g>
</g>
</g>
</svg>
