<?xml version="1.0" encoding="UTF-8" standalone="no"?>
<!DOCTYPE svg PUBLIC "-//W3C//DTD SVG 1.1//EN"
 "http://www.w3.org/Graphics/SVG/1.1/DTD/svg11.dtd">
<!-- Generated by graphviz version 2.43.0 (0)
 -->
<!-- Title: Clipboard++/Utils/TranslationManager.cpp Pages: 1 -->
<svg width="450pt" height="148pt"
 viewBox="0.00 0.00 450.00 148.00" xmlns="http://www.w3.org/2000/svg" xmlns:xlink="http://www.w3.org/1999/xlink">
<g id="graph0" class="graph" transform="scale(1 1) rotate(0) translate(4 144)">
<title>Clipboard++/Utils/TranslationManager.cpp</title>
<!-- Node1 -->
<g id="Node000001" class="node">
<title>Node1</title>
<g id="a_Node000001"><a xlink:title=" ">
<polygon fill="#999999" stroke="#666666" points="297,-140 136,-140 136,-110 297,-110 297,-140"/>
<text text-anchor="start" x="144" y="-128" font-family="Helvetica,sans-Serif" font-size="10.00">Clipboard++/Utils/Translation</text>
<text text-anchor="middle" x="216.5" y="-117" font-family="Helvetica,sans-Serif" font-size="10.00">Manager.cpp</text>
</a>
</g>
</g>
<!-- Node2 -->
<g id="Node000002" class="node">
<title>Node2</title>
<g id="a_Node000002"><a xlink:href="TranslationManager_8h.html" target="_top" xlink:title=" ">
<polygon fill="white" stroke="#666666" points="121,-74 0,-74 0,-55 121,-55 121,-74"/>
<text text-anchor="middle" x="60.5" y="-62" font-family="Helvetica,sans-Serif" font-size="10.00">TranslationManager.h</text>
</a>
</g>
</g>
<!-- Node1&#45;&gt;Node2 -->
<g id="edge1_Node000001_Node000002" class="edge">
<title>Node1&#45;&gt;Node2</title>
<g id="a_edge1_Node000001_Node000002"><a xlink:title=" ">
<path fill="none" stroke="#63b8ff" d="M179.13,-109.99C152.87,-100.14 118.09,-87.1 92.98,-77.68"/>
<polygon fill="#63b8ff" stroke="#63b8ff" points="94.13,-74.37 83.54,-74.14 91.67,-80.93 94.13,-74.37"/>
</a>
</g>
</g>
<!-- Node5 -->
<g id="Node000005" class="node">
<title>Node5</title>
<g id="a_Node000005"><a xlink:title=" ">
<polygon fill="#e0e0e0" stroke="#999999" points="194,-74 139,-74 139,-55 194,-55 194,-74"/>
<text text-anchor="middle" x="166.5" y="-62" font-family="Helvetica,sans-Serif" font-size="10.00">fstream</text>
</a>
</g>
</g>
<!-- Node1&#45;&gt;Node5 -->
<g id="edge4_Node000001_Node000005" class="edge">
<title>Node1&#45;&gt;Node5</title>
<g id="a_edge4_Node000001_Node000005"><a xlink:title=" ">
<path fill="none" stroke="#63b8ff" d="M204.4,-109.84C197.21,-101.43 188.07,-90.74 180.57,-81.96"/>
<polygon fill="#63b8ff" stroke="#63b8ff" points="183.15,-79.59 173.99,-74.27 177.83,-84.14 183.15,-79.59"/>
</a>
</g>
</g>
<!-- Node6 -->
<g id="Node000006" class="node">
<title>Node6</title>
<g id="a_Node000006"><a xlink:title=" ">
<polygon fill="#e0e0e0" stroke="#999999" points="322.5,-74 212.5,-74 212.5,-55 322.5,-55 322.5,-74"/>
<text text-anchor="middle" x="267.5" y="-62" font-family="Helvetica,sans-Serif" font-size="10.00">nlohmann/json.hpp</text>
</a>
</g>
</g>
<!-- Node1&#45;&gt;Node6 -->
<g id="edge5_Node000001_Node000006" class="edge">
<title>Node1&#45;&gt;Node6</title>
<g id="a_edge5_Node000001_Node000006"><a xlink:title=" ">
<path fill="none" stroke="#63b8ff" d="M228.85,-109.84C236.17,-101.43 245.5,-90.74 253.15,-81.96"/>
<polygon fill="#63b8ff" stroke="#63b8ff" points="255.92,-84.1 259.86,-74.27 250.65,-79.5 255.92,-84.1"/>
</a>
</g>
</g>
<!-- Node7 -->
<g id="Node000007" class="node">
<title>Node7</title>
<g id="a_Node000007"><a xlink:title=" ">
<polygon fill="#e0e0e0" stroke="#999999" points="442,-74 341,-74 341,-55 442,-55 442,-74"/>
<text text-anchor="middle" x="391.5" y="-62" font-family="Helvetica,sans-Serif" font-size="10.00">RmlUi/Core/Log.h</text>
</a>
</g>
</g>
<!-- Node1&#45;&gt;Node7 -->
<g id="edge6_Node000001_Node000007" class="edge">
<title>Node1&#45;&gt;Node7</title>
<g id="a_edge6_Node000001_Node000007"><a xlink:title=" ">
<path fill="none" stroke="#63b8ff" d="M258.42,-109.99C288.23,-100.02 327.83,-86.78 356.06,-77.35"/>
<polygon fill="#63b8ff" stroke="#63b8ff" points="357.54,-80.54 365.91,-74.05 355.32,-73.9 357.54,-80.54"/>
</a>
</g>
</g>
<!-- Node3 -->
<g id="Node000003" class="node">
<title>Node3</title>
<g id="a_Node000003"><a xlink:title=" ">
<polygon fill="#e0e0e0" stroke="#999999" points="53.5,-19 9.5,-19 9.5,0 53.5,0 53.5,-19"/>
<text text-anchor="middle" x="31.5" y="-7" font-family="Helvetica,sans-Serif" font-size="10.00">string</text>
</a>
</g>
</g>
<!-- Node2&#45;&gt;Node3 -->
<g id="edge2_Node000002_Node000003" class="edge">
<title>Node2&#45;&gt;Node3</title>
<g id="a_edge2_Node000002_Node000003"><a xlink:title=" ">
<path fill="none" stroke="#63b8ff" d="M55.71,-54.75C51.74,-47.49 45.97,-36.95 41.07,-27.98"/>
<polygon fill="#63b8ff" stroke="#63b8ff" points="44.07,-26.18 36.2,-19.09 37.93,-29.54 44.07,-26.18"/>
</a>
</g>
</g>
<!-- Node4 -->
<g id="Node000004" class="node">
<title>Node4</title>
<g id="a_Node000004"><a xlink:title=" ">
<polygon fill="#e0e0e0" stroke="#999999" points="109.5,-19 71.5,-19 71.5,0 109.5,0 109.5,-19"/>
<text text-anchor="middle" x="90.5" y="-7" font-family="Helvetica,sans-Serif" font-size="10.00">map</text>
</a>
</g>
</g>
<!-- Node2&#45;&gt;Node4 -->
<g id="edge3_Node000002_Node000004" class="edge">
<title>Node2&#45;&gt;Node4</title>
<g id="a_edge3_Node000002_Node000004"><a xlink:title=" ">
<path fill="none" stroke="#63b8ff" d="M65.45,-54.75C69.56,-47.49 75.53,-36.95 80.6,-27.98"/>
<polygon fill="#63b8ff" stroke="#63b8ff" points="83.76,-29.52 85.64,-19.09 77.67,-26.07 83.76,-29.52"/>
</a>
</g>
</g>
</g>
</svg>
