<?xml version="1.0" encoding="UTF-8" standalone="no"?>
<!DOCTYPE svg PUBLIC "-//W3C//DTD SVG 1.1//EN"
 "http://www.w3.org/Graphics/SVG/1.1/DTD/svg11.dtd">
<!-- Generated by graphviz version 2.43.0 (0)
 -->
<!-- Title: Clipboard++/RmlUI/EventHandlers/Clipboard++Events/WindowFocusEvent.h Pages: 1 -->
<svg width="663pt" height="192pt"
 viewBox="0.00 0.00 663.00 192.00" xmlns="http://www.w3.org/2000/svg" xmlns:xlink="http://www.w3.org/1999/xlink">
<g id="graph0" class="graph" transform="scale(1 1) rotate(0) translate(4 188)">
<title>Clipboard++/RmlUI/EventHandlers/Clipboard++Events/WindowFocusEvent.h</title>
<!-- Node1 -->
<g id="Node000001" class="node">
<title>Node1</title>
<g id="a_Node000001"><a xlink:title=" ">
<polygon fill="#999999" stroke="#666666" points="418.5,-184 196.5,-184 196.5,-154 418.5,-154 418.5,-184"/>
<text text-anchor="start" x="204.5" y="-172" font-family="Helvetica,sans-Serif" font-size="10.00">Clipboard++/RmlUI/EventHandlers</text>
<text text-anchor="middle" x="307.5" y="-161" font-family="Helvetica,sans-Serif" font-size="10.00">/Clipboard++Events/WindowFocusEvent.h</text>
</a>
</g>
</g>
<!-- Node2 -->
<g id="Node000002" class="node">
<title>Node2</title>
<g id="a_Node000002"><a xlink:href="CopyEvent_8h.html" target="_top" xlink:title=" ">
<polygon fill="white" stroke="#666666" points="193,-118 0,-118 0,-77 193,-77 193,-118"/>
<text text-anchor="start" x="8" y="-106" font-family="Helvetica,sans-Serif" font-size="10.00">Clipboard++/RmlUI/EventHandlers</text>
<text text-anchor="start" x="8" y="-95" font-family="Helvetica,sans-Serif" font-size="10.00">/Clipboard++Events/ShortCutsMenu</text>
<text text-anchor="middle" x="96.5" y="-84" font-family="Helvetica,sans-Serif" font-size="10.00">/CopyEvent.h</text>
</a>
</g>
</g>
<!-- Node1&#45;&gt;Node2 -->
<g id="edge1_Node000001_Node000002" class="edge">
<title>Node1&#45;&gt;Node2</title>
<g id="a_edge1_Node000001_Node000002"><a xlink:title=" ">
<path fill="none" stroke="#63b8ff" d="M254.92,-150.68C224.86,-140.78 187.06,-128.33 155.92,-118.07"/>
<polygon fill="#63b8ff" stroke="#63b8ff" points="254.21,-154.13 264.8,-153.94 256.4,-147.48 254.21,-154.13"/>
</a>
</g>
</g>
<!-- Node4 -->
<g id="Node000004" class="node">
<title>Node4</title>
<g id="a_Node000004"><a xlink:href="PasteEvent_8h.html" target="_top" xlink:title=" ">
<polygon fill="white" stroke="#666666" points="404,-118 211,-118 211,-77 404,-77 404,-118"/>
<text text-anchor="start" x="219" y="-106" font-family="Helvetica,sans-Serif" font-size="10.00">Clipboard++/RmlUI/EventHandlers</text>
<text text-anchor="start" x="219" y="-95" font-family="Helvetica,sans-Serif" font-size="10.00">/Clipboard++Events/ShortCutsMenu</text>
<text text-anchor="middle" x="307.5" y="-84" font-family="Helvetica,sans-Serif" font-size="10.00">/PasteEvent.h</text>
</a>
</g>
</g>
<!-- Node1&#45;&gt;Node4 -->
<g id="edge3_Node000001_Node000004" class="edge">
<title>Node1&#45;&gt;Node4</title>
<g id="a_edge3_Node000001_Node000004"><a xlink:title=" ">
<path fill="none" stroke="#63b8ff" d="M307.5,-143.91C307.5,-135.47 307.5,-126.1 307.5,-118.07"/>
<polygon fill="#63b8ff" stroke="#63b8ff" points="304,-143.94 307.5,-153.94 311,-143.94 304,-143.94"/>
</a>
</g>
</g>
<!-- Node6 -->
<g id="Node000006" class="node">
<title>Node6</title>
<g id="a_Node000006"><a xlink:href="WindowFocusEvent_8cpp.html" target="_top" xlink:title=" ">
<polygon fill="white" stroke="#666666" points="655,-112.5 422,-112.5 422,-82.5 655,-82.5 655,-112.5"/>
<text text-anchor="start" x="430" y="-100.5" font-family="Helvetica,sans-Serif" font-size="10.00">Clipboard++/RmlUI/EventHandlers</text>
<text text-anchor="middle" x="538.5" y="-89.5" font-family="Helvetica,sans-Serif" font-size="10.00">/Clipboard++Events/WindowFocusEvent.cpp</text>
</a>
</g>
</g>
<!-- Node1&#45;&gt;Node6 -->
<g id="edge5_Node000001_Node000006" class="edge">
<title>Node1&#45;&gt;Node6</title>
<g id="a_edge5_Node000001_Node000006"><a xlink:title=" ">
<path fill="none" stroke="#63b8ff" d="M363.94,-151.02C403.19,-139.21 454.9,-123.65 491.82,-112.54"/>
<polygon fill="#63b8ff" stroke="#63b8ff" points="362.81,-147.7 354.25,-153.94 364.83,-154.41 362.81,-147.7"/>
</a>
</g>
</g>
<!-- Node3 -->
<g id="Node000003" class="node">
<title>Node3</title>
<g id="a_Node000003"><a xlink:href="CopyEvent_8cpp.html" target="_top" xlink:title=" ">
<polygon fill="white" stroke="#666666" points="193,-41 0,-41 0,0 193,0 193,-41"/>
<text text-anchor="start" x="8" y="-29" font-family="Helvetica,sans-Serif" font-size="10.00">Clipboard++/RmlUI/EventHandlers</text>
<text text-anchor="start" x="8" y="-18" font-family="Helvetica,sans-Serif" font-size="10.00">/Clipboard++Events/ShortCutsMenu</text>
<text text-anchor="middle" x="96.5" y="-7" font-family="Helvetica,sans-Serif" font-size="10.00">/CopyEvent.cpp</text>
</a>
</g>
</g>
<!-- Node2&#45;&gt;Node3 -->
<g id="edge2_Node000002_Node000003" class="edge">
<title>Node2&#45;&gt;Node3</title>
<g id="a_edge2_Node000002_Node000003"><a xlink:title=" ">
<path fill="none" stroke="#63b8ff" d="M96.5,-66.69C96.5,-58.08 96.5,-48.9 96.5,-41.07"/>
<polygon fill="#63b8ff" stroke="#63b8ff" points="93,-66.79 96.5,-76.79 100,-66.79 93,-66.79"/>
</a>
</g>
</g>
<!-- Node5 -->
<g id="Node000005" class="node">
<title>Node5</title>
<g id="a_Node000005"><a xlink:href="PasteEvent_8cpp.html" target="_top" xlink:title=" ">
<polygon fill="white" stroke="#666666" points="404,-41 211,-41 211,0 404,0 404,-41"/>
<text text-anchor="start" x="219" y="-29" font-family="Helvetica,sans-Serif" font-size="10.00">Clipboard++/RmlUI/EventHandlers</text>
<text text-anchor="start" x="219" y="-18" font-family="Helvetica,sans-Serif" font-size="10.00">/Clipboard++Events/ShortCutsMenu</text>
<text text-anchor="middle" x="307.5" y="-7" font-family="Helvetica,sans-Serif" font-size="10.00">/PasteEvent.cpp</text>
</a>
</g>
</g>
<!-- Node4&#45;&gt;Node5 -->
<g id="edge4_Node000004_Node000005" class="edge">
<title>Node4&#45;&gt;Node5</title>
<g id="a_edge4_Node000004_Node000005"><a xlink:title=" ">
<path fill="none" stroke="#63b8ff" d="M307.5,-66.69C307.5,-58.08 307.5,-48.9 307.5,-41.07"/>
<polygon fill="#63b8ff" stroke="#63b8ff" points="304,-66.79 307.5,-76.79 311,-66.79 304,-66.79"/>
</a>
</g>
</g>
</g>
</svg>
